<svg xmlns="http://www.w3.org/2000/svg" viewBox="0 0 1280 395.3"><path d="M775.5 337.9h19.8v-67.8h64.9v-18.8h-64.9v-51.8h72.5v-19.7h-92.3zm158.1-111.1c-32 0-55.5 24.5-55.5 57.4s22.6 57.4 55.5 57.4c32 0 55.5-24.5 55.5-57.4s-23.5-58.3-55.5-57.4zm-.9 97c-18.8 0-35.8-15.1-35.8-39.5 0-25.4 16.9-39.5 35.8-39.5 18.8 0 35.8 15.1 35.8 39.5s-17 39.5-35.8 39.5zm128-97.9c-14.1 0-28.2 8.5-34.8 18.8l.9-15.1H1007v109.2h20.7v-60.2c0-16.9 10.4-33.9 28.2-33.9 15.1 0 26.4 7.5 26.4 30.1v63.1h19.8v-66.8c0-26.4-14.1-45.2-41.4-45.2zm109.2 96c-10.4 0-15.1-5.6-15.1-17.9v-55.5h26.4v-18.8h-26.4v-32.9h-20.7v32.9h-18.8v18.8h18.8V305c0 22.6 12.2 34.8 36.7 35.8 6.6 0 11.3-.9 16-2.8l-7.5-17.9c-2.8 1.8-5.7 1.8-9.4 1.8zm79-45.2l-21.6-4.7c-8.5-1.9-14.1-5.6-14.1-12.2 0-9.4 10.4-14.1 21.6-14.1 10.4 0 20.7 3.8 24.5 14.1l17.9-7.5c-6.6-16.9-22.6-25.4-41.4-25.4-22.6 0-43.3 12.2-43.3 32 0 18.8 18.8 27.3 29.2 30.1l21.6 5.6c11.3 2.8 15.1 8.5 15.1 14.1 0 8.5-9.4 15.1-21.6 15.1-13.2 0-23.5-6.6-29.2-20.7l-17.9 7.5c6.6 16 21.6 31.1 47.1 32 25.4 0 42.4-15.1 42.4-33.9-.1-13.2-8.6-27.3-30.3-32zm-1155.7-32v24.5h58.4c-1.9 14.1-5.6 23.5-13.2 31.1-8.5 8.5-22.6 17.9-46.1 17.9-36.7 0-64.9-29.2-64.9-65.9s28.2-65.9 64.9-65.9c19.8 0 34.8 7.5 45.2 17.9l17.9-17.9c-15.1-14.1-34.8-25.4-62.1-25.4-49.9 0-92.2 40.5-92.2 90.4 0 49.9 42.4 90.4 92.2 92.2 26.4 0 47.1-8.5 63.1-25.4 16.9-16.9 21.6-39.5 21.6-58.4 0-5.6 0-10.4-.9-15.1H93.2zm152.4-19.8c-32 0-58.4 24.5-58.4 58.4s26.4 58.4 58.4 58.4 58.4-24.5 58.4-58.4-26.4-58.4-58.4-58.4zm0 94.2c-17.9 0-32.9-15.1-32.9-35.8 0-20.7 15.1-35.8 32.9-35.8 17.9 0 32.9 14.1 32.9 35.8.1 20.7-15 35.8-32.9 35.8zm128-94.2c-32 0-58.4 24.5-58.4 58.4s26.4 58.4 58.4 58.4 58.4-24.5 58.4-58.4-26.4-58.4-58.4-58.4zm0 94.2c-17.9 0-32.9-15.1-32.9-35.8 0-20.7 15.1-35.8 32.9-35.8 17.9 0 32.9 14.1 32.9 35.8.1 20.7-15 35.8-32.9 35.8zm157.2-81h-.9c-5.6-6.6-16.9-13.2-31.1-13.2-29.2 0-56.5 25.4-56.5 58.4 0 32.9 26.4 58.4 56.5 58.4 14.1 0 25.4-6.6 31.1-13.2h.9v8.5c0 22.6-12.2 33.9-31.1 33.9-16 0-25.4-11.3-29.2-20.7l-22.6 9.4c6.6 15.1 23.5 34.8 51.8 34.8 30.1 0 55.5-17.9 55.5-61.2V228.7h-24.5v9.4zm-29.2 81c-17.9 0-32.9-15.1-32.9-34.8 0-20.7 15.1-35.8 32.9-35.8s31.1 15.1 31.1 35.8c0 19.7-14.1 34.8-31.1 34.8zm71.6-152.5h25.4v172.2h-25.4zm143 96c-4.7-13.2-19.8-37.6-49.9-37.6-30.1 0-55.5 23.5-55.5 58.4 0 32.9 24.5 58.4 58.4 58.4 26.4 0 42.4-16 48.9-26.4l-19.8-13.2c-6.6 10.4-16 16.9-29.2 16.9s-22.6-5.6-28.2-17.9l78.1-32-2.8-6.6zm-80 18.8c0-22.6 17.9-33.9 31.1-33.9 10.4 0 18.8 4.7 21.6 12.2l-52.7 21.7zM20.7 37.6l-.9-13.1h.9l23.5 40.4h7.6l22.6-40.4h.9l-.9 13.1v44.3h12.2V.9H74.4L48 47.1h-.9L21.6.9H8.5v81h12.2zm80.9 41.5c1.9 1.9 3.8 2.8 6.6 3.8s5.6.9 8.5.9c4.7 0 7.5-.9 10.4-2.8 2.8-1.9 5.6-3.8 7.5-5.6V81h12.2V47.1c0-7.5-1.9-13.2-6.6-16.9s-10.4-5.6-18.8-5.6c-4.7 0-9.4.9-13.2 2.8-3.8 1.9-6.6 4.7-9.4 8.5l10.4 6.6c1.9-2.8 3.8-4.7 5.6-5.6 1.9-.9 4.7-1.9 7.5-1.9 1.9 0 3.8 0 4.7.9.9.9 2.8 1.9 3.8 2.8s.9 1.9 1.9 3.8c.9 1.9.9 2.8.9 4.7V51c-.9-.9-2.8-.9-5.6-1.9s-5.6-.9-9.4-.9-6.6 0-9.4.9c-2.8.9-5.6 1.9-7.5 3.8-1.9.9-3.8 3.8-4.7 5.6-.9 1.9-1.9 4.7-1.9 7.5s.9 5.6 1.9 7.5c.9 1.8 2.8 3.7 4.6 5.6zm11.3-20.7c2.8-1.9 5.6-2.8 9.4-2.8 1.9 0 4.7 0 6.6.9 2.8.9 4.7.9 5.6 1.9 0 1.9 0 3.8-.9 5.6-.9 1.9-1.9 3.8-4.7 6.6-.9.9-2.8 1.9-4.7 2.8-1.9.9-3.8.9-5.6.9-.9 0-2.8-.9-3.8-.9-.9-.9-1.9-.9-2.8-1.9-.9-.9-.9-1.9-1.9-2.8-.9-.9-.9-2.8-.9-3.8 0-2.8 1.9-4.7 3.7-6.5zm86.6 17.2v6.3h12.2V.9h-12.2v24.5l.9 7.5h-.9c-.9-2.8-2.8-4.7-6.6-6.6-3.8-1.9-6.6-2.8-11.3-2.8-3.8 0-7.5 0-10.4 1.9-2.8 1.9-5.6 3.8-8.5 6.6-1.9 2.8-4.7 5.6-5.6 9.4-.9 3.8-1.9 7.5-1.9 12.2s.9 8.5 1.9 12.2c.9 3.8 2.8 6.6 5.6 9.4 2.8 2.8 5.6 4.7 8.5 6.6 3.8.9 6.6 1.9 10.4 1.9 4.7 0 8.5-.9 11.3-2.8 2.4-1.6 4.8-3.1 6.6-5.3zm-16-4.1h-5.6c-1.9-.9-2.8-1.9-4.7-3.8-1.9-1.9-2.8-3.8-3.8-5.6-.9-1.9-.9-4.7-.9-7.5s0-4.7.9-7.5 1.9-4.7 1.9-6.6c.9-1.9 2.8-2.8 4.7-3.8 1.9-.9 4.7-.9 6.6-.9 2.8 0 4.7 0 6.6.9 2.8.9 3.8 1.9 5.6 3.8 1.9 1.9 2.8 3.8 3.8 5.6.9 1.9.9 4.7.9 7.5s0 5.6-.9 7.5c-.9 2.8-1.9 4.7-2.8 5.6-1.9 1.9-3.8 2.8-5.6 3.8-2.9 1-4.8 1-6.7 1zm45.2 3.8c2.8 2.8 5.6 4.7 9.4 6.6 3.8.9 7.5 1.9 11.3 1.9 6.6 0 11.3-1.9 16-4.7 4.7-2.8 8.5-5.6 10.4-10.4l-11.3-5.6c-.9 2.8-2.8 4.7-5.6 6.6-1.9 1.9-4.7 2.8-8.5 2.8-1.9 0-3.8 0-5.6-.9-1.9-.9-2.8-1.9-4.7-2.8-1.9-.9-2.8-2.8-3.8-4.7-.9-1.9-1.9-3.8-1.9-6.6h42.4v-2.8c0-4.7-.9-8.5-1.9-12.2-1.9-3.8-3.8-6.6-5.6-9.4-2.8-2.8-5.6-4.7-9.4-7.5-2.8-.9-6.6-1.9-11.3-1.9-3.8 0-7.5.9-11.3 2.8-2.8 1.9-5.6 3.8-8.5 6.6-2.8 2.8-4.7 5.6-5.6 9.4s-1.9 7.5-1.9 11.3c0 4.7.9 8.5 1.9 12.2s2.7 6.5 5.5 9.3zM240 38.6c2.8-1.9 5.6-2.8 9.4-2.8 2.8 0 4.7 0 6.6.9 1.9.9 2.8 1.9 3.8 2.8.9.9 1.9 2.8 2.8 3.8 0 .9.9 2.8.9 3.8h-29.2c1-3.8 2.9-6.6 5.7-8.5zm81.9 35.8h.9c.9 2.8 3.8 4.7 6.6 6.6 3.8 1.9 6.6 2.8 11.3 2.8 3.8 0 7.5 0 10.4-1.9 2.8-1.9 5.6-3.8 8.5-6.6 1.9-2.8 3.8-5.6 5.6-9.4 1.9-3.8 1.9-6.6 1.9-11.3s0-8.5-1.9-12.2c-.9-3.8-2.8-6.6-5.6-9.4-1.9-2.8-4.7-4.7-8.5-6.6-3.8-.9-6.6-1.9-10.4-1.9-4.7 0-8.5.9-11.3 2.8-2.8 1.9-4.7 3.8-6.6 6.6h-.9l.9-7.5V.9h-12.2v80.9h11.3v-7.4zm1.9-27.3c.9-1.9 1.9-3.8 3.8-5.6.9-1.9 2.8-2.8 4.7-3.8 1.9-.9 4.7-.9 6.6-.9 2.8 0 4.7 0 6.6.9 1.9.9 2.8 1.9 5.6 2.8 1.9 1.9 2.8 3.8 3.8 5.6.9 1.9.9 4.7.9 7.5s0 5.6-.9 7.5c-.9 1.9-1.9 3.8-3.8 5.6-1.9 1.9-3.8 2.8-5.6 3.8-2.8.9-4.7.9-6.6.9h-6.6c-1.9-.9-2.8-1.9-4.7-3.8-1.9-1.9-2.8-3.8-3.8-5.6-.9-1.9-.9-4.7-.9-7.5s-.1-5.6.9-7.4zm57.4 60.2h13.2l34.8-80h-14.1L400 64h-.9L384 27.3h-14.1l22.6 51.8zm81.9-25.4h12.2V37.6h14.1V26.4h-14.1v-5.6c0-2.8 0-5.6 1.9-6.6 1.9-.9 3.8-1.9 5.6-1.9h3.8c1 0 1.9.9 2.8.9l3.8-10.4c-1.9-.9-2.8-1.9-4.7-1.9-1.9-.9-3.8-.9-5.7-.9-2.8 0-4.7 0-7.5.9s-4.7 1.9-6.6 3.8c-1.9 1.9-2.8 3.8-3.8 6.6-.9 2.8-1.9 5.6-1.9 8.5v6.6h-10.4v11.3H463v44.2zm49.8 0V52.7c0-2.8 0-4.7.9-6.6.9-1.9 1.9-2.8 2.8-4.7 1.9-1.9 2.8-2.8 4.7-3.8 1.9-.9 3.8-.9 5.6-.9h3.8c1 0 1.9.9 2.8.9l3.8-11.3c-.9 0-2.8-.9-3.8-.9-.9-.9-2.8-.9-4.7-.9-1.9 0-2.8 0-4.7.9-1.9 0-2.8.9-4.7 1.9-1.9.9-2.8 2.8-3.8 3.8-.9.9-1.9 1.9-2.8 3.8h-.8v-8.5h-11.3v55.5h12.2zm32-55.5h12.2v55.5h-12.2zM550.6 0c-1.9 0-3.8.9-5.6 2.8-1.9.9-2.8 3.8-2.8 5.6 0 1.9 1.9 3.8 2.8 5.6.9 1.9 2.8 2.8 5.6 2.8s3.8-1.9 5.6-2.8c1.9-.9 2.8-3.8 2.8-5.6 0-1.9-.9-3.8-2.8-5.6-.9-1.9-3.7-2.8-5.6-2.8zm32.9 81.9c3.8.9 7.5 1.9 11.3 1.9 6.6 0 11.3-1.9 16-4.7 4.7-2.8 8.5-5.6 10.4-10.4l-11.3-5.6c-.9 2.8-3.8 4.7-5.6 6.6-1.9 1.9-4.7 2.8-8.5 2.8-1.9 0-3.8 0-5.6-.9-1.9-.9-2.8-1.9-4.7-2.8-1.9-1.9-2.8-2.8-3.8-5.6-.9-1.9-1.9-3.8-1.9-6.6h42.4v-2.8c0-4.7-.9-8.5-1.9-12.2-1.9-3.8-3.8-6.6-5.6-9.4-1.9-1.9-4.7-3.8-8.5-5.6-2.8-.9-6.6-1.9-11.3-1.9-3.8 0-7.5.9-11.3 2.8-3.8.9-6.6 3.8-9.4 5.6-2.8 2.8-4.7 5.6-5.6 9.4-.9 3.8-1.9 7.5-1.9 11.3 0 4.7.9 8.5 1.9 12.2.9 3.8 2.8 6.6 5.6 9.4 2.7 2.7 5.6 4.6 9.3 6.5zm1.9-43.3c2.8-1.9 5.6-2.8 9.4-2.8 2.8 0 4.7 0 6.6.9 1.9.9 3.8 1.9 4.7 2.8.9.9 1.9 2.8 2.8 3.8 0 .9.9 2.8.9 3.8h-30.1c1-3.8 2.9-6.6 5.7-8.5zm59.3 14.1c0-2.8 0-4.7.9-6.6.9-1.9 1.9-3.8 2.8-5.6 1.9-1.9 2.8-2.8 4.7-3.8 1.9-.9 3.8-.9 5.6-.9 3.8 0 6.6.9 8.5 2.8 2.8 1.9 3.8 5.6 3.8 10.4v32.9h12.2V48c0-7.5-1.9-13.2-5.6-16.9-3.8-4.7-9.4-6.6-16-6.6-3.8 0-7.5.9-10.4 2.8-2.4 1.6-4.8 3.2-6.6 5.4v-6.3h-12.2v55.5h12.2V52.7zM736 25.4l.9 7.5h-.9c-.9-2.8-2.8-4.7-6.6-6.6-3.8-1.9-6.6-2.8-11.3-2.8-3.8 0-7.5 0-10.4 1.9-2.8 1.9-5.6 3.8-8.5 6.6-1.9 2.8-3.8 5.6-5.6 9.4-.9 3.8-1.9 7.5-1.9 12.2s0 8.5 1.9 12.2c.9 3.8 2.8 6.6 5.6 9.4 2.8 2.8 5.6 4.7 8.5 6.6 3.8.9 6.6 1.9 10.4 1.9 4.7 0 8.5-.9 11.3-2.8 2.4-1.6 4.8-3.2 6.6-5.4v6.3h12.2V.9H736v24.5zm-.9 35.8c-.9 2.8-1.9 4.7-2.8 5.6-1.9 1.9-3.8 2.8-5.6 3.8-2.8.9-4.7.9-6.6.9s-3.8 0-6.6-.9c-1.9-.9-2.8-1.9-4.7-3.8-.9-.9-2.8-2.8-2.8-4.7-.9-1.9-.9-4.7-.9-7.5s0-5.6.9-7.5c0-2.8 1.9-4.7 1.9-6.6.9-1.9 2.8-2.8 4.7-3.8 1.9-.9 4.7-.9 6.6-.9 2.8 0 4.7 0 6.6.9 2.8.9 3.8 1.9 5.6 3.8 1.9 1.9 2.8 3.8 3.8 5.6.9 1.9.9 4.7.9 7.5s-.1 5.7-1 7.6zm54.5 20.7c2.8-.9 5.6-1.9 7.5-3.8 1.9-1.9 3.8-3.8 4.7-5.6.9-1.9 1.9-3.8 1.9-6.6 0-3.8-1.9-7.5-3.8-10.4-1.9-2.8-6.6-4.7-12.2-6.6l-8.5-1.9c-1.9 0-4.7-.9-5.6-1.9-.9-.9-1.9-1.9-1.9-3.8 0-.9-.9-1.9 0-2.8s1.9-.9 3.8-2.8c.9 0 1.9-.9 2.8-.9h2.8c1.9 0 4.7.9 6.6 1.9 1.9 1.9 3.8 2.8 4.7 5.6l11.3-4.7c-.9-1.9-1.9-3.8-3.8-5.6-1.9-.9-3.8-2.8-5.6-3.8-1.9-1.9-3.8-1.9-4.7-2.8-2.8-.9-4.7-.9-7.5-.9s-5.6 0-8.5.9c-2.8 0-5.6.9-7.5 2.8-1.9 1.9-3.8 3.8-4.7 5.6-.9 2.8-1.9 4.7-1.9 7.5s0 4.7.9 6.6c.9 1.9 2.8 3.8 3.8 4.7.9.9 2.8 1.9 4.7 2.8 1.9.9 3.8 1.9 5.6 1.9l7.5 1.9c3.8.9 6.6 1.9 7.5 2.8s1.9 1.9 1.9 3.8-.9 3.8-2.8 4.7c-1.9.9-4.7 1.9-7.5 1.9s-4.7 0-7.5-1.9c-1.9-1.9-3.8-4.7-5.6-6.6l-11.3 4.7c0 1.9 1.9 3.8 2.8 5.6.9 1.9 2.8 2.8 4.7 4.7 2.8 1.9 4.7 2.8 7.5 3.8 2.8.9 5.6.9 9.4.9s6.7-.8 8.5-1.7zm100.8-17c.9-2.8 1.9-7.5 1.9-11.3s-.9-7.5-1.9-11.3-2.8-6.6-5.6-9.4c-2.8-2.8-5.6-4.7-9.4-6.6-2.8-.9-7.5-1.9-11.3-1.9-3.8 0-7.5.9-11.3 1.9-3.8 1.9-6.6 3.8-9.4 6.6-1.9 2.8-3.8 5.6-5.6 9.4-.9 2.8-1.9 7.5-1.9 11.3s0 7.5 1.9 11.3c.9 3.8 2.8 6.6 5.6 9.4 2.8 2.8 5.6 4.7 9.4 6.6 3.8 1.9 7.5 1.9 11.3 1.9 3.8 0 7.5 0 11.3-1.9 3.8-1.9 6.6-3.8 9.4-6.6 1.8-2.8 3.7-5.6 5.6-9.4zm-11.3-3.7c-.9 1.9-1.9 3.8-3.8 5.6-1.9 1.9-3.8 2.8-5.6 3.8-1.9.9-3.8.9-5.6.9-1.9 0-3.8 0-5.6-.9-2.8-.9-3.8-1.9-5.6-3.8-1.9-1.9-2.8-3.8-3.8-5.6-.9-1.9-.9-4.7-.9-7.5s0-5.6.9-7.5c.9-1.9 1.9-3.8 3.8-5.6 1.9-1.9 3.8-2.8 5.6-3.8 1.9-.9 3.8-.9 5.6-.9 1.9 0 3.8 0 5.6.9 2.8.9 3.8 1.9 5.6 3.8 1.9 1.9 2.8 3.8 3.8 5.6.9 1.9.9 4.7.9 7.5s0 5.6-.9 7.5zm28.2 20.7h12.2V37.6h14.1V27.3h-14.1v-5.6c0-2.8 0-5.6 1.9-6.6 1.9-.9 3.8-1.9 5.6-1.9h3.8c1 0 1.9.9 2.8.9l3.8-11.3c-1.9-.9-2.8-.9-4.7-1.9-1.9-.9-3.8-.9-5.6-.9-2.8 0-5.6 0-7.5 1.9-2.8.9-4.7 1.9-6.6 3.8-1.9.9-2.8 3.8-3.8 5.6-.9 2.8-1.9 5.6-1.9 8.5v6.6h-10.4v11.3h10.4v44.2z"/></svg>