<svg xmlns="http://www.w3.org/2000/svg" viewBox="0 0 100 100"><circle fill="#0F0" cx="50" cy="50" r="50"/><path d="M52 43.4c1 1 2.2 1.8 3.6 2.2 1.4.4 2.8.5 4.2.1 1.5-.3 2.7-1 3.8-1.9 1-1 1.8-2.1 2.3-3.5.5-1.4.5-2.8.2-4.3s-1-2.7-2-3.7-2.2-1.8-3.5-2.2c-1.4-.4-2.8-.5-4.3-.1-1.4.3-2.7 1-3.8 1.9-1.1 1-1.9 2.1-2.3 3.5-.5 1.4-.5 2.8-.2 4.2.3 1.5 1 2.8 2 3.8zm-18.8 4.2c1 1 2.2 1.8 3.6 2.2 1.4.4 2.8.5 4.2.1 1.5-.3 2.7-1 3.8-1.9 1-1 1.8-2.1 2.3-3.5.5-1.4.5-2.8.2-4.3s-1-2.7-2-3.7-2.2-1.8-3.5-2.2c-1.4-.4-2.8-.5-4.3-.1-1.4.3-2.7 1-3.8 1.9-1.1 1-1.9 2.1-2.3 3.5-.5 1.4-.5 2.8-.2 4.2.3 1.5.9 2.8 2 3.8zM78 44.9c-.5-.1-1.1.1-1.5.5-.5.4-1 1-1.5 1.8-1.5 2.1-3.3 4.1-5.6 5.9-2.2 1.8-4.8 3.5-7.6 4.8-2.8 1.4-5.8 2.4-8.9 3.1-3.2.7-6.3 1-9.4 1-3.1 0-6.1-.4-8.9-1.1-2.8-.7-5.3-1.7-7.5-3-.8-.5-1.6-.8-2.2-1-.6-.2-1.2-.1-1.6.2-1.5.9-1.4 2.7.2 5.3 1.6 2.7 4 4.9 7.2 6.9 3.2 1.9 6.9 3.2 11.1 3.9s8.8.5 13.8-.6c4.9-1.1 9.1-2.9 12.7-5.3 3.6-2.4 6.4-5.2 8.4-8.3 2-3.1 3.2-6.2 3.6-9.3.1-3-.6-4.6-2.3-4.8z"/></svg>