<?xml version="1.0" encoding="utf-8"?>
<!-- Generator: Adobe Illustrator 24.0.1, SVG Export Plug-In . SVG Version: 6.00 Build 0)  -->
<svg version="1.1" id="Layer_1" xmlns="http://www.w3.org/2000/svg" xmlns:xlink="http://www.w3.org/1999/xlink" x="0px" y="0px"
	 viewBox="0 0 100 100" style="enable-background:new 0 0 100 100;" xml:space="preserve">
<style type="text/css">
	.st0{fill:#00FF00;}
</style>
<circle class="st0" cx="50" cy="50" r="37.5"/>
<path d="M51.5,45.05c0.75,0.75,1.65,1.35,2.7,1.65c1.05,0.3,2.1,0.38,3.15,0.08c1.12-0.22,2.03-0.75,2.85-1.43
	c0.75-0.75,1.35-1.57,1.73-2.62c0.38-1.05,0.38-2.1,0.15-3.22c-0.22-1.12-0.75-2.03-1.5-2.78s-1.65-1.35-2.62-1.65
	c-1.05-0.3-2.1-0.38-3.22-0.07c-1.05,0.22-2.03,0.75-2.85,1.42c-0.82,0.75-1.43,1.57-1.72,2.62c-0.38,1.05-0.38,2.1-0.15,3.15
	C50.22,43.32,50.75,44.3,51.5,45.05z M37.4,48.2c0.75,0.75,1.65,1.35,2.7,1.65c1.05,0.3,2.1,0.38,3.15,0.08
	c1.12-0.23,2.03-0.75,2.85-1.43c0.75-0.75,1.35-1.57,1.72-2.62s0.38-2.1,0.15-3.22s-0.75-2.03-1.5-2.78s-1.65-1.35-2.62-1.65
	c-1.05-0.3-2.1-0.38-3.22-0.07c-1.05,0.22-2.03,0.75-2.85,1.42c-0.83,0.75-1.42,1.58-1.72,2.62c-0.38,1.05-0.38,2.1-0.15,3.15
	C36.12,46.48,36.58,47.45,37.4,48.2z M71,46.18c-0.38-0.08-0.82,0.07-1.12,0.38c-0.38,0.3-0.75,0.75-1.12,1.35
	c-1.12,1.57-2.48,3.07-4.2,4.42c-1.65,1.35-3.6,2.62-5.7,3.6c-2.1,1.05-4.35,1.8-6.67,2.32c-2.4,0.53-4.73,0.75-7.05,0.75
	c-2.32,0-4.57-0.3-6.68-0.82c-2.1-0.53-3.97-1.28-5.62-2.25c-0.6-0.38-1.2-0.6-1.65-0.75c-0.45-0.15-0.9-0.08-1.2,0.15
	c-1.12,0.68-1.05,2.03,0.15,3.98c1.2,2.02,3,3.67,5.4,5.18c2.4,1.42,5.17,2.4,8.33,2.92c3.15,0.53,6.6,0.38,10.35-0.45
	c3.67-0.82,6.83-2.18,9.53-3.98c2.7-1.8,4.8-3.9,6.3-6.22c1.5-2.33,2.4-4.65,2.7-6.98C72.8,47.53,72.27,46.33,71,46.18z"/>
</svg>
