<?xml version="1.0" encoding="utf-8"?>
<!-- Generator: Adobe Illustrator 24.0.1, SVG Export Plug-In . SVG Version: 6.00 Build 0)  -->
<svg version="1.1" id="Layer_1" xmlns="http://www.w3.org/2000/svg" xmlns:xlink="http://www.w3.org/1999/xlink" x="0px" y="0px"
	 viewBox="0 0 150 82.1" style="enable-background:new 0 0 150 82.1;" xml:space="preserve">
<style type="text/css">
	.st0{fill:#FF0000;}
	.st1{fill:#FFFFFF;}
</style>
<path class="st0" d="M12,0h126c6.6,0,12,5.4,12,12v58.1c0,6.6-5.4,12-12,12H12c-6.6,0-12-5.4-12-12V12C0,5.4,5.4,0,12,0z"/>
<path class="st1" d="M11,13.7c0-0.5,0.2-0.9,0.5-1.3c0.4-0.4,1-0.5,1.5-0.5h12c0.5,0,1,0,1.6-0.1l1.2-0.3c0.4-0.1,0.7-0.2,1.1-0.2
	c0.6,0,1.2,0.2,1.7,0.6c0.4,0.6,0.8,1.2,0.9,1.9l1.1,3.8c0.1,0.4,0.1,0.9-0.2,1.2c-0.3,0.4-0.7,0.6-1.2,0.7c-0.4,0.1-0.8,0-1.2-0.1
	c-0.5-0.2-0.8-0.6-1-1.1s-0.5-1.1-0.9-1.5c-0.3-0.3-0.6-0.6-0.9-0.8s-0.6-0.3-1-0.4c-0.4-0.1-0.8-0.1-1.3-0.1h-3.3v14
	c-0.1,0.8,0.2,1.5,0.7,2.1c0.5,0.5,1.3,0.7,2,0.7h0.9c0.6,0,1.3,0,1.9-0.2c0.6-0.1,1-0.5,1.4-0.9c0.5-0.6,0.9-1.3,1.2-2
	c0.1-0.5,0.5-0.9,0.9-1.1s0.9-0.2,1.4-0.1c0.5,0.1,0.9,0.4,1.2,0.8c0.2,0.5,0.3,1.1,0.1,1.6l-1,3.6c-0.2,0.7-0.5,1.4-0.9,1.9
	c-0.4,0.4-1.1,0.7-1.7,0.6c-0.4,0-0.7,0-1.1-0.2c-0.4-0.1-0.7-0.2-1.2-0.3s-1-0.2-1.5-0.2H13c-0.5,0-1.1-0.1-1.5-0.5
	C11.2,35,11,34.5,11,34c0-0.8,0.4-1.5,1.1-1.9l0.6-0.3c0.2-0.1,0.5-0.3,0.6-0.5c0.2-0.3,0.3-0.6,0.2-1v-13c0-0.4-0.1-0.7-0.2-1
	c-0.2-0.2-0.4-0.4-0.6-0.5l-0.6-0.3C11.4,15.2,11,14.4,11,13.7z M17.8,22.3h5.7c0.4,0.1,0.9-0.1,1.2-0.4c0.2-0.4,0.4-0.8,0.5-1.2
	c0.1-0.3,0.3-0.7,0.6-0.9c0.3-0.2,0.6-0.3,1-0.3c0.8,0,1.5,0.5,1.6,1.4l1.1,4.4c0.2,0.5,0.2,1,0,1.4s-0.6,0.7-1,0.8
	c-0.4,0.1-0.7,0.1-1.1,0c-0.4-0.2-0.7-0.4-0.9-0.8c-0.2-0.3-0.4-0.5-0.7-0.8c-0.2-0.2-0.5-0.3-0.8-0.4c-0.4-0.1-0.9-0.1-1.4-0.1h-6
	L17.8,22.3z M56.4,30.4c0.3,0.4,0.6,0.8,0.8,1s0.3,0.4,0.5,0.5s0.4,0.3,0.7,0.4c0.4,0.2,0.7,0.4,0.9,0.8c0.2,0.3,0.3,0.7,0.3,1.1
	c0,0.5-0.2,0.9-0.5,1.3c-0.4,0.3-1,0.5-1.5,0.5h-9.4c-0.5,0-1.1-0.1-1.5-0.5c-0.3-0.3-0.5-0.8-0.5-1.3c0-0.4,0.1-0.8,0.3-1.2
	c0.3-0.3,0.6-0.6,1-0.8c0.5-0.2,0.7-0.5,0.6-0.7c-0.1-0.3-0.2-0.6-0.5-0.8c-0.3-0.3-0.6-0.6-0.9-1L37.2,17l-0.4-0.6
	c-0.1-0.2-0.3-0.3-0.4-0.5c-0.2-0.2-0.4-0.3-0.6-0.4c-0.4-0.2-0.7-0.5-0.9-0.8s-0.3-0.7-0.3-1.1c0-0.5,0.2-0.9,0.5-1.3
	c0.4-0.3,1-0.5,1.5-0.5h9c0.5,0,1.1,0.1,1.5,0.5c0.3,0.3,0.5,0.8,0.5,1.3c0,0.4-0.1,0.8-0.3,1.1s-0.4,0.5-0.7,0.6l-0.3,0.1
	c-0.3,0.2-0.5,0.4-0.5,0.6c0.1,0.4,0.3,0.8,0.6,1.1L56.4,30.4z M43.7,23.3l3.3,1.3l-4.9,6.2c-0.3,0.3-0.5,0.6-0.7,1
	c0,0.2,0.1,0.4,0.2,0.5l0.2,0.1c0.3,0.2,0.6,0.4,0.8,0.7s0.3,0.7,0.2,1c0,0.5-0.1,0.9-0.5,1.3c-0.4,0.4-0.9,0.5-1.4,0.5h-4.4
	c-0.5,0-1.1-0.1-1.5-0.5c-0.6-0.6-0.6-1.6-0.2-2.3c0.3-0.3,0.7-0.6,1.1-0.8c0.4-0.2,0.7-0.5,1-0.8s0.6-0.6,0.9-1l0.9-1.1L43.7,23.3z
	 M49.6,24.8l-3.4-1.1l5-6.8l0.5-0.7c0.1-0.2,0.1-0.3-0.2-0.5l-0.4-0.2c-0.3-0.2-0.5-0.4-0.7-0.7s-0.3-0.7-0.3-1.1
	c0-0.5,0.1-0.9,0.4-1.3c0.4-0.3,0.9-0.5,1.4-0.5h4.5c1.3,0,2,0.6,2,1.7c0,0.4-0.2,0.8-0.4,1.1c-0.4,0.4-0.8,0.7-1.2,1
	c-0.3,0.2-0.6,0.4-0.8,0.7c-0.3,0.3-0.7,0.9-1.3,1.7L49.6,24.8z M67.2,11.9h9.3c0.5,0,1,0,1.5-0.1l1.2-0.3c0.4-0.1,0.7-0.2,1.1-0.2
	c0.6,0,1.2,0.2,1.7,0.6c0.5,0.6,0.8,1.2,0.9,1.9l1,4.1c0.2,0.5,0.1,1.1-0.1,1.6c-0.2,0.4-0.7,0.7-1.2,0.8c-0.4,0.1-0.9,0.1-1.3-0.1
	c-0.4-0.3-0.8-0.6-0.9-1.1c-0.3-0.6-0.5-1.1-0.9-1.7c-0.2-0.4-0.5-0.7-0.8-1c-0.3-0.2-0.6-0.4-0.9-0.5c-0.4-0.1-0.7-0.2-1.1-0.1h-1
	v14.8c0,0.4,0,0.7,0.2,1c0.2,0.2,0.4,0.4,0.6,0.5l0.6,0.3c0.7,0.3,1.2,1.1,1.1,1.9c0,1.2-0.7,1.8-2,1.8h-9c-0.5,0-1.1-0.1-1.5-0.5
	c-0.3-0.3-0.5-0.8-0.5-1.3c0-0.8,0.4-1.5,1.1-1.8L67,32c0.2-0.1,0.5-0.3,0.6-0.5c0.2-0.3,0.3-0.6,0.2-1V15.7h-1
	c-0.5,0-1,0.1-1.4,0.3c-0.4,0.2-0.8,0.6-1.1,1c-0.4,0.7-0.8,1.4-1.1,2.1c-0.2,0.5-0.5,0.9-0.9,1.1s-0.9,0.2-1.3,0.1
	c-0.5-0.1-0.9-0.4-1.2-0.8c-0.2-0.5-0.3-1-0.1-1.5l1-4.1c0.1-0.7,0.5-1.4,0.9-1.9c0.5-0.4,1.1-0.6,1.7-0.6c0.4,0,0.8,0.1,1.1,0.2
	l1.2,0.3C66.1,11.9,66.7,11.9,67.2,11.9z M110,20.3c0,0.9-0.2,1.9-0.7,2.7c-0.5,0.9-1.2,1.6-2,2.2c-0.9,0.6-1.9,1-3,1.2
	c-0.7,0.1-1.4,0.3-2,0.5s-1.2,0.4-1.7,0.6c-0.6,0.2-1.3,0.3-2,0.3c-0.6,0-1.2,0-1.8-0.1c-0.5-0.1-1.1-0.2-1.6-0.4
	c-0.4-0.1-0.8-0.3-1.2-0.5l-0.1-2.9c0.3,0.2,0.7,0.4,1.1,0.5s0.7,0.2,1.1,0.2s0.8,0.1,1.3,0.1c1.2,0.1,2.4-0.3,3.4-1.1
	c0.8-0.9,1.2-2.1,1.2-3.4c0-0.9-0.2-1.8-0.7-2.6c-0.4-0.8-1.1-1.4-1.9-1.8c-0.9-0.4-1.8-0.7-2.8-0.6H96v15.4c0,0.4,0.1,0.7,0.3,1
	c0.2,0.2,0.4,0.4,0.6,0.6l0.3,0.2c0.3,0.2,0.5,0.5,0.7,0.8c0.1,0.3,0.2,0.7,0.2,1c0,1.2-0.7,1.8-2,1.8h-8.7c-0.5,0-1.1-0.1-1.5-0.5
	c-0.3-0.3-0.5-0.8-0.5-1.3c0-0.8,0.4-1.5,1.1-1.9L87,32c0.2-0.1,0.5-0.3,0.7-0.5c0.2-0.3,0.3-0.6,0.2-1V17.3c0-0.4-0.1-0.7-0.2-1
	c-0.2-0.2-0.4-0.4-0.7-0.5l-0.5-0.3c-0.7-0.3-1.2-1.1-1.1-1.9c0-0.5,0.2-0.9,0.5-1.3c0.4-0.3,1-0.5,1.5-0.5h9.7
	c2.4-0.1,4.8,0.3,7.1,1.1c1.7,0.6,3.2,1.6,4.4,3C109.5,17.2,110,18.7,110,20.3z M98.5,26.4l7.6-0.9l3.2,5.4c0.2,0.3,0.4,0.6,0.6,0.9
	c0.3,0.2,0.6,0.4,0.9,0.6c0.7,0.4,1,1.1,1,1.8c0,0.5-0.2,0.9-0.5,1.3c-0.4,0.3-1,0.5-1.5,0.5h-7.5c-1.3,0-1.9-0.6-1.9-1.8
	c0-0.2,0-0.5,0.2-0.7c0.1-0.2,0.3-0.4,0.4-0.6l0.1-0.2c0.1-0.1,0.2-0.3,0.2-0.4c0-0.2,0-0.4-0.1-0.6L98.5,26.4z M122.3,34.2
	c0,0.5-0.2,0.9-0.5,1.3c-0.4,0.3-1,0.5-1.5,0.5h-4.8c-0.5,0-1.1-0.1-1.5-0.5c-0.3-0.3-0.5-0.8-0.5-1.3c0-0.3,0.1-0.6,0.2-0.9
	c0.2-0.3,0.5-0.6,0.8-0.8l0.4-0.3c0.2-0.2,0.4-0.3,0.5-0.6c0.3-0.5,0.5-1,0.6-1.5l3.9-12.6c0.2-0.4,0.2-0.9,0.3-1.3
	c0-0.3-0.2-0.5-0.7-0.7c-0.3-0.2-0.6-0.4-0.8-0.7c-0.2-0.3-0.3-0.7-0.2-1.1c0-0.5,0.2-0.9,0.5-1.3c0.4-0.3,1-0.5,1.5-0.5h11.8
	c0.5,0,1.1,0.1,1.5,0.5c0.3,0.3,0.5,0.8,0.5,1.3c0,0.4-0.1,0.8-0.3,1.1s-0.5,0.6-0.9,0.8c-0.2,0.1-0.4,0.4-0.4,0.7
	c0,0.4,0.1,0.8,0.2,1.2l3.6,11.4c0.3,1,0.6,1.8,0.8,2.3c0.2,0.4,0.5,0.8,0.9,1.1c0.4,0.2,0.7,0.5,1,0.9c0.2,0.3,0.3,0.7,0.3,1.1
	c0,0.5-0.2,0.9-0.5,1.3c-0.4,0.3-1,0.5-1.5,0.5H129c-0.5,0-1.1-0.1-1.5-0.5c-0.3-0.3-0.5-0.8-0.5-1.3c0-0.4,0.1-0.7,0.3-1
	c0.2-0.3,0.5-0.5,0.9-0.7l0.6-0.3c0.3-0.1,0.4-0.4,0.3-0.7c-0.1-0.3-0.2-0.8-0.4-1.4L124.1,15l0.5,0.1l-4.4,14.2
	c-0.2,0.5-0.3,1-0.4,1.3s-0.1,0.6,0,0.8c0.2,0.3,0.5,0.6,0.9,0.8l0.5,0.3c0.3,0.2,0.6,0.4,0.8,0.7C122.2,33.4,122.3,33.8,122.3,34.2
	z M119.1,25h10.7v3.6h-10.7C119.1,28.6,119.1,25,119.1,25z"/>
<path d="M31.9,51.4l3.6,0.5l-4.7,13.6c-0.1,0.4-0.3,0.8-0.3,1.3c-0.1,0.3-0.1,0.7-0.1,1v0.7c0,0.5-0.1,0.9-0.4,1.2
	c-0.3,0.3-0.6,0.4-1,0.4h-5.3c-0.4,0-0.7-0.1-1-0.4s-0.5-0.8-0.4-1.2v-0.7c0-0.2-0.1-0.4-0.1-0.6c-0.1-0.3-0.2-0.5-0.2-0.8l-5-14.6
	c-0.1-0.4-0.3-0.8-0.6-1.2c-0.2-0.3-0.5-0.5-0.8-0.7l-0.5-0.3c-0.3-0.2-0.5-0.4-0.7-0.7C14.1,48.6,14,48.3,14,48
	c0-0.5,0.2-0.9,0.5-1.3c0.4-0.3,1-0.5,1.5-0.5h8.8c0.5,0,1.1,0.1,1.5,0.5c0.3,0.4,0.5,0.8,0.4,1.3c0,0.7-0.4,1.3-1,1.6l-0.3,0.2
	c-0.3,0.2-0.5,0.5-0.6,0.9c0,0.5,0,1.1,0.2,1.6l4.4,13.2l-3.1,2.3L31.9,51.4z M44.4,48c0-0.5,0.2-0.9,0.5-1.3
	c0.4-0.3,0.9-0.5,1.5-0.5h4.7c0.5,0,1.1,0.1,1.5,0.5c0.3,0.3,0.5,0.8,0.5,1.3c0,0.4-0.1,0.7-0.3,1s-0.5,0.5-0.9,0.7L51.4,50
	c-0.3,0.2-0.6,0.4-0.8,0.7c-0.3,0.5-0.5,1-0.7,1.6l-4.3,13.2c-0.1,0.4-0.2,0.8-0.3,1.3c-0.1,0.3-0.1,0.7-0.1,1v0.7
	c0,0.5-0.1,0.9-0.4,1.2c-0.3,0.3-0.6,0.4-1,0.4h-5.3c-0.4,0-0.7-0.1-1-0.4C37.1,69.4,37,69,37,68.5v-0.7c0-0.2-0.1-0.4-0.1-0.6
	c-0.1-0.3-0.2-0.5-0.2-0.8l-4.8-14.6c-0.2-0.6-0.3-1-0.4-1.3s-0.3-0.6-0.6-0.7l-0.5-0.3c-0.3-0.1-0.5-0.4-0.7-0.6
	c-0.2-0.3-0.3-0.6-0.3-1c0-0.5,0.2-0.9,0.5-1.3c0.4-0.3,1-0.5,1.5-0.5h8.1c0.5,0,1.1,0.1,1.5,0.5c0.3,0.4,0.5,0.8,0.5,1.3
	c0,0.4-0.1,0.7-0.3,1s-0.5,0.5-0.8,0.7L40,49.9c-0.3,0.2-0.5,0.5-0.5,0.8c-0.1,0.5,0,1.1,0.2,1.6l4.2,13.2l-2.8,2.3l5.1-16
	c0.1-0.4,0.2-0.8,0.1-1.2c-0.1-0.3-0.3-0.6-0.6-0.8l-0.4-0.2c-0.3-0.2-0.5-0.4-0.7-0.6C44.5,48.7,44.4,48.3,44.4,48z M65.5,45.5
	c1.8,0,3.6,0.3,5.3,0.9c1.5,0.6,2.9,1.5,4,2.6s2,2.5,2.6,4c0.6,1.6,0.9,3.3,0.9,5c0,1.8-0.3,3.5-0.9,5.2c-0.6,1.5-1.4,2.9-2.5,4.1
	c-1.1,1.2-2.5,2.1-4,2.7c-1.7,0.7-3.5,1-5.3,0.9c-1.8,0-3.6-0.3-5.4-0.9c-3.1-1.2-5.5-3.6-6.5-6.7c-0.6-1.7-0.9-3.5-0.9-5.3
	c0-1.6,0.3-3.3,0.9-4.8c1.1-3.1,3.5-5.5,6.5-6.7C61.8,45.8,63.6,45.5,65.5,45.5z M70.1,62.7c0-1.3-0.1-2.7-0.4-4
	c-0.2-1.3-0.6-2.5-1-3.7c-0.4-1.1-0.9-2.1-1.5-3.1c-0.5-0.8-1.1-1.5-1.8-2.1C65,49.3,64.3,49,63.6,49c-0.6,0-1.1,0.2-1.5,0.5
	c-0.4,0.4-0.7,1-0.9,1.6C61.1,52,61,52.9,61,53.7c0,1.4,0.1,2.8,0.4,4.1c0.2,1.3,0.6,2.5,1,3.7c0.4,1,0.9,2.1,1.5,3
	c0.5,0.8,1.1,1.4,1.7,2c0.5,0.4,1.1,0.7,1.7,0.7c0.5,0,1-0.2,1.4-0.5c0.5-0.4,0.8-0.9,0.9-1.5C70,64.5,70.1,63.6,70.1,62.7z
	 M89.6,68.4c0,0.5-0.2,0.9-0.5,1.3c-0.4,0.3-1,0.5-1.5,0.5h-4.8c-0.5,0-1.1-0.1-1.5-0.5c-0.3-0.3-0.5-0.8-0.5-1.3
	c0-0.9,0.5-1.7,1.3-2l0.4-0.2c0.3-0.1,0.5-0.3,0.7-0.6c0.2-0.3,0.2-0.7,0.2-1v-11c0-0.5-0.1-1-0.2-1.5c-0.2-0.4-0.4-0.7-0.7-1
	l-1.2-1.4c-0.3-0.4-0.6-0.7-0.8-0.9c-0.2-0.3-0.3-0.6-0.3-1s0.2-0.8,0.5-1.1c0.4-0.3,0.8-0.5,1.3-0.5h5c0.5,0,0.9,0,1.4,0.2
	s1,0.6,1.3,1.1l10.8,14l-0.8,3.8V51.7c0-0.3-0.1-0.7-0.2-1c-0.2-0.2-0.4-0.4-0.7-0.6l-0.4-0.2c-0.8-0.3-1.3-1.1-1.3-1.9
	c0-0.5,0.2-0.9,0.5-1.3c0.4-0.4,0.9-0.5,1.4-0.5h4.8c0.5,0,1.1,0.1,1.5,0.5c0.3,0.3,0.5,0.8,0.5,1.3c0,0.9-0.5,1.6-1.3,2l-0.4,0.2
	c-0.3,0.1-0.5,0.3-0.7,0.6c-0.1,0.3-0.2,0.7-0.2,1v10.9c0,0.6,0.1,1.1,0.2,1.7c0.1,0.5,0.3,0.9,0.5,1.3l0.6,1
	c0.2,0.3,0.4,0.7,0.6,1.1c0.1,0.3,0.2,0.5,0.2,0.8c0,0.5-0.2,0.9-0.5,1.3c-0.3,0.3-0.8,0.5-1.3,0.5H98c-1,0-1.5-0.4-1.5-1.4
	c0-0.3-0.1-0.6-0.3-0.8l-1-1.2l-10-13l1.8-2.4v13.3c0,0.3,0,0.7,0.2,1c0.2,0.2,0.4,0.4,0.7,0.6l0.4,0.2
	C89.1,66.8,89.6,67.6,89.6,68.4z M118.7,64.8c0,0.4,0,0.7,0.2,1.1c0.1,0.3,0.3,0.5,0.6,0.6l0.2,0.1c0.3,0.2,0.6,0.5,0.8,0.8
	c0.2,0.3,0.3,0.7,0.3,1.1c0,0.5-0.2,0.9-0.5,1.3c-0.4,0.3-1,0.5-1.5,0.5h-8.6c-0.5,0-1.1-0.1-1.5-0.5c-0.3-0.3-0.5-0.8-0.5-1.3
	c0-0.8,0.4-1.5,1.1-1.9l0.6-0.3c0.2-0.1,0.5-0.3,0.6-0.5c0.2-0.3,0.3-0.6,0.2-1V51.6c0-0.4,0-0.7-0.2-1c-0.2-0.2-0.4-0.4-0.6-0.5
	l-0.6-0.3c-0.7-0.3-1.1-1-1.1-1.8c0-0.5,0.2-0.9,0.5-1.3c0.4-0.3,1-0.5,1.5-0.5h9.2c0.5,0,1.1,0.1,1.5,0.5c0.3,0.3,0.5,0.8,0.5,1.3
	c0,0.8-0.4,1.5-1.1,1.9l-0.6,0.3c-0.2,0.1-0.5,0.3-0.6,0.5c-0.2,0.3-0.3,0.6-0.3,1L118.7,64.8L118.7,64.8z M115.9,60.3l9-8.4
	c0.3-0.3,0.5-0.5,0.8-0.9c0.1-0.2,0.1-0.4,0-0.5c-0.1-0.2-0.3-0.3-0.5-0.4l-0.6-0.3c-0.3-0.2-0.6-0.4-0.9-0.7
	c-0.2-0.3-0.3-0.7-0.3-1.1c0-0.5,0.2-0.9,0.5-1.3c0.4-0.3,1-0.5,1.5-0.5h7.2c0.5,0,1.1,0.1,1.5,0.5c0.3,0.3,0.5,0.8,0.5,1.3
	c0,0.4-0.2,0.8-0.5,1.1c-0.4,0.4-0.9,0.7-1.4,0.9c-0.2,0.1-0.4,0.2-0.6,0.3c-0.2,0.1-0.4,0.3-0.6,0.4l-0.7,0.6l-1.1,0.9l-12.5,11.2
	L115.9,60.3z M119.8,58.3l5.8-4.8l7.9,11.7c0.2,0.3,0.4,0.6,0.7,0.8c0.2,0.2,0.4,0.3,0.6,0.4c0.4,0.2,0.7,0.5,0.9,0.9
	s0.3,0.8,0.3,1.2c0,0.5-0.2,0.9-0.5,1.3c-0.4,0.3-1,0.5-1.5,0.5h-9c-0.5,0-1.1-0.1-1.5-0.5c-0.3-0.3-0.5-0.8-0.5-1.3
	c0-0.4,0.1-0.8,0.3-1.1c0.2-0.3,0.4-0.5,0.7-0.7l0.3-0.2c0.2-0.1,0.3-0.4,0.3-0.6c-0.1-0.4-0.3-0.8-0.5-1.1L119.8,58.3z"/>
</svg>
