<?xml version="1.0" encoding="utf-8"?>
<!-- Generator: Adobe Illustrator 24.0.1, SVG Export Plug-In . SVG Version: 6.00 Build 0)  -->
<svg version="1.1" id="Layer_1" xmlns="http://www.w3.org/2000/svg" xmlns:xlink="http://www.w3.org/1999/xlink" x="0px" y="0px"
	 viewBox="0 0 125 125" style="enable-background:new 0 0 125 125;" xml:space="preserve">
<style type="text/css">
	.st0{fill:#00FF00;}
	.st1{fill:#FFFFFF;}
</style>
<circle class="st0" cx="62.5" cy="62.5" r="62.5"/>
<path class="st1" d="M65.6,19.8l3.9,0.6c0.3,0,0.5,0.3,0.5,0.6c0,0.1-0.1,0.2-0.2,0.3L67,24.1c-0.1,0.1-0.2,0.3-0.2,0.5l0.6,3.9
	c0.1,0.3-0.1,0.6-0.4,0.6c-0.1,0-0.3,0-0.4-0.1l-3.5-1.9c-0.2-0.1-0.3-0.1-0.5,0l-3.5,1.8c-0.3,0.1-0.6,0-0.7-0.2
	c-0.1-0.1-0.1-0.2-0.1-0.4l0.7-3.9c0-0.2,0-0.4-0.2-0.5L56,21.3c-0.2-0.2-0.2-0.6,0-0.8c0.1-0.1,0.2-0.1,0.3-0.2l4-0.5
	c0.2,0,0.3-0.1,0.4-0.3l1.8-3.6c0.1-0.3,0.5-0.4,0.7-0.3c0.1,0.1,0.2,0.2,0.3,0.3l1.7,3.6C65.3,19.7,65.5,19.8,65.6,19.8z
	 M44.5,29.4l4,0.6c0.3,0,0.5,0.3,0.5,0.6c0,0.1-0.1,0.2-0.2,0.3l-2.9,2.8c-0.1,0.1-0.2,0.3-0.2,0.5l0.6,3.9c0,0.3-0.2,0.6-0.4,0.6
	c-0.1,0-0.2,0-0.3-0.1L42,36.8c-0.2-0.1-0.3-0.1-0.5,0L38,38.6c-0.3,0.1-0.6,0-0.7-0.2c-0.1-0.1-0.1-0.2-0.1-0.4l0.7-3.9
	c0-0.2,0-0.4-0.2-0.5l-2.9-2.8c-0.2-0.2-0.2-0.6,0-0.8c0.1-0.1,0.2-0.1,0.3-0.2l4-0.5c0.2,0,0.3-0.1,0.4-0.3l1.8-3.6
	c0.1-0.3,0.5-0.4,0.7-0.3c0.1,0.1,0.2,0.2,0.3,0.3L44,29C44.2,29.2,44.3,29.3,44.5,29.4z M86.8,29.4l3.9,0.6c0.3,0,0.5,0.3,0.5,0.6
	c0,0.1-0.1,0.2-0.2,0.3l-2.9,2.8C88,33.8,87.9,34,88,34.2l0.6,3.9c0.1,0.3-0.1,0.6-0.4,0.6c-0.1,0-0.3,0-0.4-0.1l-3.5-1.9
	c-0.2-0.1-0.3-0.1-0.5,0l-3.6,1.8c-0.3,0.1-0.6,0-0.7-0.2c-0.1-0.1-0.1-0.2-0.1-0.3l0.7-3.9c0-0.2,0-0.4-0.2-0.5l-2.8-2.8
	c-0.2-0.2-0.2-0.6,0-0.8c0.1-0.1,0.2-0.1,0.3-0.2l4-0.5c0.2,0,0.3-0.1,0.4-0.3l1.8-3.6c0.1-0.3,0.5-0.4,0.7-0.3
	c0.1,0.1,0.2,0.2,0.3,0.3l1.7,3.6C86.5,29.2,86.6,29.3,86.8,29.4z M65.6,103.8l3.9-0.6c0.3,0,0.5-0.3,0.5-0.6c0-0.1-0.1-0.2-0.2-0.3
	L67,99.5c-0.1-0.1-0.2-0.3-0.2-0.5l0.6-3.9c0-0.3-0.2-0.6-0.5-0.6c-0.1,0-0.2,0-0.3,0.1l-3.5,1.9c-0.2,0.1-0.4,0.1-0.5,0l-3.5-1.8
	c-0.3-0.1-0.6,0-0.7,0.2c-0.1,0.1-0.1,0.2-0.1,0.4l0.7,3.9c0,0.2,0,0.4-0.2,0.5l-2.8,2.8c-0.2,0.2-0.2,0.6,0,0.8
	c0.1,0.1,0.2,0.1,0.3,0.2l4,0.5c0.2,0,0.3,0.1,0.4,0.3l1.8,3.6c0.1,0.3,0.5,0.4,0.7,0.3c0.1-0.1,0.2-0.2,0.3-0.3l1.7-3.6
	C65.3,104,65.5,103.9,65.6,103.8z M44.5,94.3l4-0.6c0.3,0,0.5-0.3,0.5-0.6c0-0.1-0.1-0.2-0.2-0.3l-3-2.8c-0.1-0.1-0.2-0.3-0.2-0.5
	l0.6-3.9c0.1-0.3-0.1-0.6-0.4-0.6c-0.1,0-0.2,0-0.4,0.1L42,86.9c-0.2,0.1-0.3,0.1-0.5,0L38,85.1c-0.3-0.1-0.6,0-0.7,0.2
	c-0.1,0.1-0.1,0.2-0.1,0.3l0.7,3.9c0,0.2,0,0.4-0.2,0.5l-2.9,2.8c-0.2,0.2-0.2,0.6,0,0.8c0.1,0.1,0.2,0.1,0.3,0.2l4,0.5
	c0.2,0,0.3,0.1,0.4,0.3l1.8,3.6c0.1,0.3,0.5,0.4,0.7,0.3c0.1-0.1,0.2-0.2,0.3-0.3l1.7-3.6C44.2,94.5,44.3,94.3,44.5,94.3z
	 M86.8,94.3l3.9-0.6c0.3,0,0.5-0.3,0.5-0.6c0-0.1-0.1-0.2-0.2-0.3L88.1,90c-0.1-0.1-0.2-0.3-0.2-0.5l0.6-3.9c0-0.3-0.2-0.6-0.5-0.6
	c-0.1,0-0.2,0-0.3,0.1L84.2,87c-0.2,0.1-0.4,0.1-0.5,0l-3.6-1.8c-0.3-0.1-0.6,0-0.7,0.2c-0.1,0.1-0.1,0.2-0.1,0.3l0.7,3.9
	c0,0.2,0,0.4-0.2,0.5L77,92.9c-0.2,0.2-0.2,0.6,0,0.8c0.1,0.1,0.2,0.1,0.3,0.2l4,0.5c0.2,0,0.3,0.1,0.4,0.3l1.8,3.6
	c0.1,0.3,0.5,0.4,0.7,0.3c0.1-0.1,0.2-0.2,0.3-0.3l1.7-3.6C86.5,94.5,86.6,94.3,86.8,94.3L86.8,94.3z"/>
<path d="M14,70.3c-0.6,0-1.3-0.1-1.9-0.2c-0.4-0.1-0.8-0.3-1.2-0.6c-0.2-0.2-0.5-0.4-0.7-0.6s-0.3-0.2-0.4-0.2
	c-0.2,0-0.3,0.1-0.5,0.2c-0.2,0.2-0.4,0.3-0.7,0.5c-0.2,0.2-0.5,0.3-0.7,0.5c-0.2,0.1-0.3,0.2-0.6,0.2c-0.2,0-0.3,0-0.4-0.1
	c-0.1-0.2-0.1-0.4-0.1-0.5l1-5.2c0-0.2,0.1-0.5,0.2-0.7c0.1-0.1,0.3-0.2,0.4-0.2c0.2,0,0.3,0.1,0.4,0.2C8.9,63.8,9,64,9.1,64.2
	l0.5,2.3c0.2,0.8,0.6,1.5,1.2,2c0.5,0.4,1.2,0.7,1.9,0.7c0.3,0,0.7-0.1,1-0.2s0.5-0.3,0.7-0.6c0.2-0.3,0.3-0.6,0.4-0.9
	c0.2-0.7,0-1.5-0.3-2.1c-0.5-0.8-1.3-1.5-2.2-2c-1.1-0.6-2-1.5-2.6-2.6c-0.5-0.9-0.7-2-0.6-3.1c0.1-1.1,0.5-2.1,1.1-2.9
	c0.7-0.9,1.6-1.6,2.7-2.1c1.3-0.5,2.7-0.8,4.1-0.8c1.1,0,2.3,0.2,3.3,0.6c0.8,0.3,1.4,0.9,1.9,1.6c0.4,0.6,0.6,1.3,0.5,2.1
	c0,0.6-0.2,1.1-0.6,1.6c-0.3,0.4-0.8,0.6-1.4,0.6c-0.4,0-0.7-0.1-1-0.4c-0.3-0.4-0.5-0.9-0.6-1.4L19,55.3c-0.1-0.7-0.4-1.3-0.8-1.8
	c-0.4-0.4-0.8-0.6-1.4-0.5c-0.4,0-0.9,0.1-1.2,0.3c-0.4,0.2-0.7,0.5-0.9,0.9s-0.4,0.8-0.4,1.2c-0.1,0.7,0,1.5,0.3,2.1
	c0.5,0.8,1.2,1.5,2,2c0.9,0.6,1.8,1.4,2.5,2.2c0.5,0.6,0.9,1.3,1.1,2.1c0.1,0.7,0.2,1.4,0,2.1c-0.1,0.8-0.5,1.6-1,2.2
	c-0.6,0.7-1.4,1.2-2.2,1.5C16.1,70.2,15.1,70.4,14,70.3z M40.6,58.2c-0.2,1.2-0.7,2.3-1.5,3.2s-1.8,1.6-3,2.1
	c-1.3,0.5-2.6,0.7-4,0.7c-0.7,0-1.3,0-2-0.2c-0.5-0.1-1-0.3-1.4-0.5l0.4-1c0.4,0.2,0.7,0.4,1.1,0.5c0.3,0.1,0.7,0.1,1.1,0.1
	c1,0,2-0.5,2.6-1.3c0.9-1.2,1.4-2.5,1.6-4c0.2-0.9,0.2-1.8,0.2-2.7c-0.1-0.5-0.3-1-0.6-1.4c-0.3-0.3-0.6-0.4-1-0.5
	c-0.4,0-0.7,0.1-1,0.3c-0.3,0.3-0.5,0.7-0.6,1.1c-0.1,0.3-0.2,0.6-0.2,0.8c-0.1,0.5-0.3,1.1-0.5,1.8S31.3,59,31,59.8
	s-0.5,1.7-0.7,2.6s-0.4,1.7-0.6,2.5s-0.4,1.4-0.5,2S29,67.8,28.9,68c-0.1,0.2-0.1,0.3,0,0.5c0.1,0.1,0.2,0.2,0.3,0.2l1.4,0.2
	c0.1,0,0.2,0.1,0.3,0.2c0.1,0.1,0.1,0.2,0.1,0.3c0,0.2-0.1,0.3-0.2,0.4C30.7,70,30.5,70,30.3,70h-8.1c-0.2,0-0.4,0-0.5-0.1
	s-0.1-0.2-0.1-0.3c0-0.1,0-0.3,0.1-0.4s0.2-0.1,0.3-0.2l0.8-0.2c0.2,0,0.3-0.1,0.4-0.2s0.2-0.3,0.2-0.5s0.2-0.6,0.3-1.1
	s0.3-1.3,0.6-2.1l0.8-2.6c0.2-0.9,0.5-1.8,0.7-2.8s0.5-1.8,0.7-2.5l0.5-1.9c0.1-0.5,0.2-0.8,0.2-0.9c0.1-0.1,0.1-0.3,0-0.5
	c-0.1-0.1-0.2-0.2-0.3-0.2L26,53.3c-0.1,0-0.2-0.1-0.3-0.2c-0.1-0.1-0.1-0.2-0.1-0.3c0-0.2,0.1-0.3,0.2-0.4c0.2-0.1,0.3-0.2,0.5-0.2
	h8.5c0.9,0,1.8,0.1,2.6,0.4c0.7,0.3,1.4,0.7,1.9,1.2s0.9,1.2,1.1,1.9C40.7,56.6,40.7,57.4,40.6,58.2L40.6,58.2z M49.5,70h-9.3
	c-0.2,0-0.3,0-0.5-0.1c-0.1-0.1-0.1-0.2-0.1-0.3c0-0.1,0-0.3,0.1-0.3c0.1-0.1,0.2-0.2,0.3-0.2l0.8-0.2c0.2,0,0.3-0.1,0.4-0.3
	c0.1-0.2,0.2-0.4,0.2-0.6l0.3-0.9l0.5-1.9c0.2-0.8,0.4-1.6,0.7-2.5s0.5-1.8,0.7-2.7l0.7-2.5c0.2-0.8,0.4-1.5,0.5-2l0.2-1
	c0.1-0.2,0.1-0.4,0-0.6c-0.1-0.1-0.2-0.2-0.3-0.3L44,53.3c-0.1,0-0.2-0.1-0.3-0.2c-0.1-0.1-0.1-0.2-0.1-0.3c0-0.2,0.1-0.3,0.2-0.4
	c0.1-0.1,0.3-0.2,0.5-0.2H55c0.4,0,0.8-0.1,1.2-0.2c0.2-0.1,0.5-0.2,0.8-0.2c0.4,0,0.6,0.2,0.6,0.6l-0.1,4.8c0,0.2,0,0.4-0.1,0.5
	s-0.2,0.2-0.4,0.2s-0.3,0-0.5-0.1c-0.2-0.2-0.3-0.4-0.4-0.6c-0.2-0.9-0.5-1.7-0.9-2.5c-0.2-0.5-0.6-0.9-1.1-1.2
	c-0.5-0.2-1-0.3-1.6-0.3h-1.9c0,0.2-0.2,0.5-0.3,1.1s-0.3,1.2-0.5,2.1s-0.5,1.7-0.7,2.7S48.8,61,48.5,62s-0.5,1.9-0.7,2.7
	s-0.4,1.5-0.5,2.1L47,67.9c0,0.2,0,0.5,0,0.7s0.1,0.3,0.3,0.4s0.4,0.1,0.6,0.1h1.2c0.6,0,1.3-0.1,1.8-0.4c0.6-0.3,1.2-0.8,1.7-1.3
	c0.7-0.8,1.3-1.7,1.8-2.6c0.2-0.4,0.5-0.6,0.7-0.6s0.5,0.2,0.5,0.7c0,0.8-0.2,1.7-0.4,2.5c-0.1,0.6-0.4,1.2-0.7,1.7
	c-0.3,0.4-0.7,0.8-1.1,1c-0.5,0.2-1,0.3-1.5,0.3c-0.4,0-0.8-0.1-1.1-0.2C50.4,70.1,49.9,70.1,49.5,70z M47.1,60.2h3.2
	c0.5,0,1.1-0.2,1.5-0.5c0.5-0.4,0.9-1,1-1.6c0.1-0.1,0.1-0.2,0.2-0.3c0.1-0.1,0.2-0.1,0.3-0.1s0.3,0,0.4,0.2
	c0.1,0.1,0.1,0.2,0.2,0.4l0.4,4.8c0,0.2,0,0.4-0.1,0.6c-0.1,0.1-0.2,0.2-0.4,0.2c-0.1,0-0.2,0-0.3-0.1s-0.2-0.2-0.2-0.3
	c-0.2-0.6-0.6-1.2-1.1-1.6c-0.6-0.4-1.3-0.6-2-0.5h-3.4L47.1,60.2z M72.3,64c0.1,0.1,0.2,0.2,0.2,0.3c0,0.3,0,0.5-0.2,0.7
	c-0.5,1.1-1.2,2.1-2,3c-0.8,0.8-1.7,1.4-2.7,1.8s-2.1,0.6-3.2,0.6c-1.4,0-2.7-0.3-3.9-1c-1.1-0.7-1.9-1.8-2.3-3
	c-0.5-1.6-0.5-3.2-0.1-4.8c0.2-1.4,0.7-2.7,1.4-3.9c0.6-1.1,1.4-2.1,2.4-3c0.9-0.8,1.9-1.5,3-1.9c1.1-0.5,2.3-0.7,3.5-0.7
	c0.5,0,1,0.1,1.5,0.2c0.4,0.1,0.7,0.3,1,0.5s0.5,0.3,0.7,0.5c0.1,0.1,0.3,0.2,0.4,0.2c0.2,0,0.3-0.1,0.5-0.2
	c0.2-0.1,0.4-0.3,0.6-0.5l0.6-0.5c0.1-0.1,0.3-0.2,0.5-0.2s0.3,0.1,0.4,0.2c0.1,0.1,0.1,0.3,0.1,0.4l-0.4,5.5c0,0.2-0.1,0.3-0.2,0.5
	c-0.1,0.1-0.3,0.2-0.4,0.2c-0.3,0-0.6-0.3-0.7-0.6l-0.2-0.7c-0.2-1.2-0.7-2.2-1.5-3.2c-0.5-0.6-1.2-0.9-2-0.9
	c-0.6,0-1.1,0.2-1.6,0.5c-0.6,0.4-1,0.9-1.4,1.4c-0.5,0.7-0.9,1.5-1.2,2.3c-0.4,1-0.7,2.1-0.9,3.1c-0.3,1.4-0.4,2.9-0.3,4.3
	c0,0.9,0.4,1.7,1,2.3c0.5,0.5,1.2,0.7,1.9,0.7c0.5,0,1-0.1,1.5-0.3c0.6-0.3,1.1-0.6,1.6-1.1c0.6-0.6,1.1-1.3,1.4-2.1
	c0.1-0.2,0.3-0.3,0.5-0.4C72.1,63.9,72.2,63.9,72.3,64z M80.5,68.2c-0.1,0.1-0.1,0.3,0,0.4s0.2,0.2,0.3,0.2l0.7,0.2
	c0.1,0,0.2,0.1,0.3,0.2c0.1,0.1,0.1,0.2,0.1,0.3c0,0.2-0.1,0.3-0.2,0.4c-0.2,0.1-0.3,0.2-0.5,0.2h-7.4c-0.2,0-0.4,0-0.5-0.1
	s-0.1-0.2-0.1-0.3c0-0.1,0.1-0.3,0.2-0.4s0.2-0.2,0.3-0.2l0.8-0.2c0.1,0,0.3-0.1,0.4-0.2c0.1-0.2,0.2-0.3,0.2-0.5
	c0.1-0.2,0.2-0.6,0.3-1.1s0.3-1.2,0.6-2l0.7-2.5c0.2-0.9,0.5-1.8,0.7-2.7l0.7-2.5c0.2-0.8,0.4-1.4,0.5-2l0.3-1c0-0.1,0-0.3,0-0.5
	c-0.1-0.1-0.2-0.2-0.4-0.2l-0.7-0.2c-0.1,0-0.2-0.1-0.3-0.2c-0.1-0.1-0.1-0.2-0.1-0.3c0-0.2,0.1-0.3,0.2-0.4
	c0.2-0.1,0.3-0.2,0.5-0.2h7.4c0.2,0,0.3,0,0.5,0.1c0.1,0.1,0.1,0.2,0.1,0.3s0,0.3-0.1,0.4c-0.1,0.1-0.2,0.2-0.3,0.2l-0.8,0.2
	c-0.1,0-0.3,0.1-0.3,0.2c-0.1,0.2-0.2,0.4-0.2,0.5c-0.1,0.2-0.2,0.5-0.3,1.1s-0.3,1.3-0.6,2.1s-0.4,1.7-0.7,2.6l-0.7,2.8
	c-0.2,0.9-0.4,1.8-0.7,2.6s-0.4,1.4-0.5,1.9S80.6,68.2,80.5,68.2L80.5,68.2z M87.7,65.9c-0.4,0.5-0.6,1.2-0.5,1.9
	c0.2,0.5,0.6,1,1.1,1.1l0.4,0.2c0.1,0,0.2,0.1,0.3,0.2c0.1,0.1,0.1,0.2,0.1,0.3c0,0.2-0.1,0.3-0.2,0.4c-0.2,0.1-0.3,0.2-0.5,0.2
	h-4.8c-0.2,0-0.3,0-0.4-0.1S83,69.9,83,69.8c0-0.1,0.1-0.3,0.2-0.4c0.2-0.2,0.3-0.3,0.6-0.4c0.5-0.3,0.9-0.7,1.3-1.2
	c0.5-0.6,1-1.3,1.4-2l5.3-8.7c0.9-1.5,2.1-2.8,3.6-3.7c1.3-0.8,2.7-1.2,4.2-1.2c0.3,0,0.6,0,0.8,0.2c0.1,0.1,0.2,0.2,0.2,0.4
	s-0.1,0.4-0.4,0.5c-0.4,0.1-0.7,0.3-1,0.6c-0.3,0.4-0.4,0.8-0.4,1.3v12.4c0,0.3,0,0.5,0,0.8c0,0.2,0.1,0.4,0.2,0.5
	c0.2,0.2,0.4,0.3,0.6,0.4s0.3,0.3,0.4,0.5c0,0.2-0.1,0.3-0.2,0.4c-0.2,0.1-0.4,0.2-0.6,0.2h-7.3c-0.2,0-0.3,0-0.4-0.1
	s-0.1-0.2-0.1-0.3c0-0.1,0-0.3,0.1-0.4s0.3-0.2,0.4-0.2l0.7-0.1c0.2-0.1,0.4-0.2,0.5-0.5s0.2-0.6,0.2-0.8v-1.1c0-0.5,0-1.1,0.1-1.7
	s0-1.3,0.1-2s0.1-1.4,0.1-2.2s0-1.4,0.1-2.1s0-1.3,0-1.8v-1.3l0.8,0.2c-0.1,0.1-0.3,0.2-0.4,0.3c-0.2,0.2-0.4,0.4-0.6,0.6
	c-0.2,0.3-0.5,0.7-0.8,1.2L87.7,65.9z M87.8,64.5l0.2-1h6.9l-0.1,1H87.8z M110.2,70h-8.6c-0.2,0-0.3,0-0.5-0.1
	c-0.1-0.1-0.1-0.2-0.1-0.3c0-0.1,0-0.3,0.1-0.3c0.1-0.1,0.2-0.2,0.3-0.2l0.8-0.2c0.2,0,0.3-0.1,0.4-0.3c0.1-0.2,0.2-0.4,0.2-0.6
	s0.1-0.5,0.3-1l0.6-2c0.2-0.8,0.4-1.7,0.7-2.6s0.5-1.8,0.7-2.7s0.5-1.8,0.7-2.5s0.4-1.4,0.5-2s0.2-0.9,0.2-1c0.1-0.2,0.1-0.3,0-0.5
	c-0.1-0.1-0.2-0.2-0.3-0.2l-0.7-0.2c-0.1,0-0.2-0.1-0.3-0.2c-0.1-0.1-0.1-0.2-0.1-0.3c0-0.2,0.1-0.3,0.2-0.4
	c0.2-0.1,0.3-0.2,0.5-0.2h7.4c0.2,0,0.3,0,0.5,0.1c0.1,0.1,0.1,0.2,0.1,0.3s0,0.3-0.1,0.4c-0.1,0.1-0.2,0.2-0.3,0.2l-0.8,0.2
	c-0.1,0-0.3,0.1-0.3,0.2c-0.1,0.2-0.2,0.3-0.2,0.5c-0.1,0.2-0.2,0.6-0.4,1.2s-0.3,1.2-0.6,2s-0.4,1.6-0.6,2.5s-0.5,1.7-0.7,2.6
	s-0.4,1.6-0.6,2.4c-0.2,0.8-0.3,1.3-0.4,1.8s-0.2,0.8-0.2,0.9c-0.1,0.4-0.1,0.7,0.1,1.1c0.2,0.2,0.5,0.3,0.8,0.3h0.7
	c0.6,0,1.1-0.1,1.6-0.4c0.6-0.4,1.2-0.9,1.6-1.5c0.7-0.9,1.4-1.9,2-2.9c0.1-0.2,0.2-0.4,0.4-0.5c0.1-0.1,0.2-0.1,0.4-0.1
	c0.2,0,0.3,0.1,0.4,0.2c0.1,0.2,0.1,0.3,0.1,0.5c-0.1,0.9-0.2,1.8-0.4,2.8c-0.2,0.7-0.4,1.3-0.8,1.9c-0.7,1.1-2.1,1.7-3.4,1.4
	l-0.7-0.2C110.8,70,110.5,70,110.2,70L110.2,70z"/>
</svg>
