<svg xmlns="http://www.w3.org/2000/svg" viewBox="0 0 202 56.6"><path d="M5.7 0h190.7c3.1 0 5.7 2.5 5.7 5.7V51c0 3.1-2.5 5.7-5.7 5.7H5.7C2.6 56.7 0 54.2 0 51V5.7C0 2.5 2.5 0 5.7 0z" fill="red"/><path d="M25.2 34.6c0 1.4-.7 2.7-1.8 3.5-1.5 1-3.2 1.4-4.9 1.3-1.6.1-3.1-.3-4.4-1.2-1-.7-1.6-1.9-1.6-3.1 0-.7.2-1.4.7-1.9s1.1-.8 1.8-.8c.6 0 1.2.2 1.6.7s.7 1.2.6 1.9v1.5c0 .5.1 1 .4 1.5.3.4.8.6 1.3.5.5 0 1-.2 1.3-.7.4-.5.5-1.2.5-1.8s-.1-1.2-.4-1.8c-.3-.5-.6-1.1-.9-1.8-.4-.7-.7-1.4-1-2.1-.3-.9-.4-1.9-.4-2.8V17.2c0-.2 0-.4-.1-.6s-.3-.3-.5-.3l-1.3-.3c-.1-.1-.3-.1-.4-.2-.1-.1-.1-.2-.1-.3 0-.2.1-.3.2-.4.1-.1.3-.1.4-.1h9c.2 0 .4 0 .5.1s.2.2.2.4c0 .3-.2.5-.6.6l-1 .2c-.2.1-.4.2-.5.3-.1.1-.2.3-.2.5v10.4c0 .7.1 1.5.3 2.2.2.6.4 1.1.6 1.7.2.5.4 1 .6 1.6 0 .5.1 1 .1 1.6zm13.5.5l.5.6-.7.6c-1 1-2.1 1.8-3.3 2.5-.9.4-1.8.7-2.8.7-1.1 0-2.1-.4-2.8-1.1-.8-.9-1.2-2.1-1.1-3.3v-8.4c0-.1 0-.3-.1-.4s-.2-.2-.3-.2h-.9c-.1 0-.2-.1-.3-.2-.1-.1-.1-.2-.1-.2 0-.1 0-.2.1-.3.1-.1.2-.2.4-.2l4.5-1.4.6-.1h.4c.1 0 .3 0 .3.1.1.1.1.3.1.4v10.1c-.1.7.2 1.4.6 2 .4.4 1 .7 1.6.7.5 0 .9-.1 1.3-.3.5-.2.9-.5 1.3-.9l.7-.7zm-.4 2.9V26.6c0-.1 0-.3-.1-.4s-.2-.1-.3-.2H37c-.1 0-.2-.1-.2-.2-.1-.1-.1-.2-.1-.2 0-.1 0-.2.1-.3.1-.1.2-.2.4-.2l4.5-1.4.5-.1h.3c.1 0 .3 0 .4.1.1.1.2.3.1.4v13.1c0 .2 0 .4.1.6.1.1.2.3.3.3l.7.2c.1 0 .2.1.3.2.1.1.1.2.1.3s0 .2-.1.3-.2.1-.3.1h-4.7c-.5.1-1-.3-1.1-.9V38zm13.9.5c.6 0 1.2-.1 1.7-.5.4-.3.6-.8.6-1.3 0-.4-.1-.7-.3-1-.2-.4-.6-.7-.9-.9-.6-.3-1.2-.6-1.8-.8-1.2-.3-2.4-.8-3.5-1.5-.7-.4-1.4-1.1-1.8-1.9-.4-.7-.6-1.5-.5-2.4-.1-1.3.5-2.6 1.5-3.5 1.2-.9 2.7-1.4 4.3-1.3.6 0 1.2 0 1.7.2.4.1.7.2 1.1.4.2.1.4.2.6.2.2 0 .4-.1.6-.2l.8-.4c.2-.1.4-.2.6-.2.1 0 .2 0 .3.1s.2.3.2.4l.8 4c.1.2.1.5.1.7s-.1.3-.3.4c-.1.1-.3.1-.4 0-.2-.1-.3-.2-.4-.3-.5-.9-1.1-1.8-1.8-2.6-.5-.6-1.1-1-1.7-1.4-.6-.3-1.2-.4-1.9-.4-.6 0-1.3.2-1.8.6-.4.4-.6.9-.6 1.5 0 .4.1.8.3 1.1.3.4.6.7 1.1.9.7.4 1.5.6 2.2.8 1.1.3 2.1.7 3 1.3 1.4.9 2.3 2.4 2.2 4.1 0 .9-.2 1.8-.7 2.5s-1.2 1.3-2 1.7c-.9.4-1.9.6-2.9.6-.6 0-1.1-.1-1.7-.2-.4-.1-.8-.3-1.1-.5-.2-.1-.3-.2-.5-.2s-.4.1-.5.2l-.8.5c-.2.1-.4.2-.6.2-.1 0-.3 0-.3-.1-.1-.1-.2-.3-.2-.5l-.6-3.6v-.7c0-.2.1-.3.3-.3.1-.1.3-.1.4 0 .2.1.3.2.4.4.6 1.1 1.4 2.2 2.4 3 .6.6 1.5.9 2.4.9zM60.4 25l-1.1-.3c-.1 0-.2-.1-.3-.2 0-.1-.1-.2 0-.3 0-.1 0-.3.1-.4s.2-.1.4-.1h1.2c.1 0 .2 0 .3-.1s.2-.2.3-.4l2.9-2.8c.1-.2.3-.3.4-.4h.4c.1 0 .3.1.4.2s.2.3.1.5v13.8c-.1.7.1 1.4.5 2 .3.4.8.7 1.4.6.2 0 .5 0 .7-.1s.4-.2.6-.4.3-.4.4-.6c.1-.2.3-.4.4-.7.1-.1.1-.1.2 0 .1 0 .1.2.1.3-.1.7-.4 1.4-.8 2s-.9 1-1.4 1.3c-.7.3-1.4.5-2.2.5-1.2.1-2.4-.3-3.4-1.1-.9-.9-1.3-2.1-1.2-3.4v-9.7c-.2-.1-.3-.2-.4-.2zm3.5-.1l.1-1.1h5.2c.1 0 .3 0 .4.1s.1.2.1.3c0 .2-.1.4-.3.5-.3.1-.6.2-.9.2h-4.6zm18.7-11.1v23.4c0 .2 0 .4.1.6l.3.3.7.2c.1 0 .2.1.3.2.1.1.1.2.1.3s0 .2-.1.3-.2.1-.4.1h-6.9c-.1 0-.3 0-.4-.1s-.1-.2-.1-.3 0-.2.1-.3.2-.2.3-.2l.7-.1c.1-.1.3-.2.3-.3.1-.2.1-.4.1-.6v-21c0-.1 0-.3-.1-.4s-.2-.2-.3-.2h-.8c-.1 0-.2-.1-.3-.2 0-.1-.1-.2-.1-.3s0-.2.1-.3.2-.2.4-.2l4.5-1.4.6-.1h.4c.1 0 .3 0 .3.1.2.2.2.3.2.5zm10.9 9.6c1.4 0 2.9.3 4.2 1 1.2.7 2.2 1.7 2.8 2.9.7 1.3 1 2.7 1 4.2 0 1.4-.3 2.9-1.1 4.1-.7 1.2-1.7 2.2-2.9 2.8-1.3.7-2.8 1-4.3 1s-2.9-.3-4.2-1c-1.2-.7-2.2-1.6-2.8-2.8-.7-1.3-1-2.7-1-4.2 0-1.4.3-2.8 1-4.1.7-1.2 1.7-2.2 2.9-2.9 1.3-.7 2.8-1 4.4-1zm1 15c.6-.1 1.1-.5 1.4-1 .4-.7.6-1.6.7-2.4.1-1.3 0-2.6-.2-3.9-.2-1.3-.5-2.6-.9-3.8-.3-.8-.8-1.6-1.4-2.2-.5-.4-1.1-.6-1.7-.5s-1.1.5-1.4 1c-.4.8-.6 1.6-.6 2.4-.1 1.3 0 2.6.2 3.9.2 1.3.5 2.6.9 3.8.3.8.8 1.6 1.4 2.2.3.3.9.5 1.6.5zm16.5-15c1.4 0 2.9.3 4.2 1 1.2.7 2.2 1.7 2.8 2.9.7 1.3 1 2.7 1 4.2 0 1.4-.3 2.9-1 4.1-.7 1.2-1.7 2.2-2.9 2.8-1.3.7-2.8 1-4.3 1s-2.9-.3-4.2-1c-1.2-.7-2.2-1.6-2.8-2.8-.7-1.3-1-2.7-1-4.2 0-1.4.3-2.8 1-4.1.7-1.2 1.7-2.2 2.9-2.9 1.3-.6 2.8-1 4.3-1zm1 14.9c.6-.1 1.1-.5 1.4-1 .4-.7.7-1.6.7-2.4.1-1.3 0-2.6-.2-3.9-.2-1.3-.5-2.6-.9-3.8-.3-.8-.8-1.6-1.4-2.1-.5-.4-1.1-.6-1.7-.5s-1.1.5-1.4 1c-.4.8-.6 1.6-.7 2.4-.1 1.3 0 2.6.2 3.9s.5 2.6.9 3.8c.3.8.8 1.6 1.4 2.2.5.3 1.1.5 1.7.4zm8.8.8c-.1 0-.3 0-.4-.1s-.1-.2-.1-.3 0-.2.1-.3.2-.2.3-.2l.7-.1c.1 0 .3-.2.3-.3.1-.2.1-.4.1-.6V16.3c0-.1 0-.3-.1-.4-.1-.1-.2-.2-.3-.2h-.8c-.1 0-.2-.1-.3-.2-.1-.1-.1-.2-.1-.3s0-.2.1-.3.2-.2.4-.2l4.5-1.4.6-.1h.4c.1 0 .3 0 .3.1.1.1.1.3.1.4v23.4c0 .2 0 .4.1.6l.3.3.7.2c.2.1.3.2.3.4 0 .3-.2.5-.5.5h-6.7zm4.8-6.4l6.3-6c.4-.3.6-.7.5-1.1s-.5-.7-.9-.8l-.6-.2c-.1 0-.2-.1-.2-.2s-.1-.2-.1-.2c0-.1 0-.3.1-.3.1-.1.3-.1.4-.1h6.1c.1 0 .3 0 .4.1.1.1.1.2.1.3 0 .1 0 .3-.1.4-.2.1-.4.2-.6.2-.7.2-1.4.4-2.1.8-.7.4-1.4.9-1.9 1.4l-7 6.6-.4-.9zm5.6-4.7l5.5 9.2c.1.2.3.4.5.6l.6.3c.1.1.3.2.4.3.1.1.1.2.1.3s0 .2-.1.3-.2.1-.4.1h-7.4c-.1 0-.3 0-.4-.1-.1-.1-.1-.2-.1-.3s0-.1.1-.2.2-.1.2-.2l.6-.2c.3-.1.4-.2.4-.3 0-.3-.1-.5-.2-.7l-3.3-5.8 3.5-3.3zm13.8-4v13.2c0 .2 0 .4.1.6.1.1.2.2.4.3l.7.2c.1 0 .2.1.3.2.1.1.1.2.1.3s0 .2-.1.3-.2.1-.4.1h-6.9c-.1 0-.3 0-.4-.1-.1-.1-.2-.2-.2-.3s0-.2.1-.3.2-.2.3-.2l.7-.1c.2 0 .3-.1.4-.3.1-.2.1-.4.1-.6V26.6c0-.1 0-.3-.1-.4s-.2-.1-.3-.2h-.8c-.1 0-.2-.1-.3-.2s-.1-.2-.1-.3c0-.1 0-.2.1-.3.1-.1.2-.2.4-.2l4.5-1.3c.2-.1.4-.1.6-.2h.4c.1 0 .3.1.4.2v.3zm-2.5-2.4c-1.5.1-2.8-1.1-2.9-2.6v-.3c0-.7.3-1.5.8-2 .6-.5 1.3-.8 2.1-.8s1.6.3 2.1.8c1.1 1.1 1.1 2.9 0 4.1-.6.6-1.3.8-2.1.8zm11.4 2.4v13.2c0 .2 0 .4.1.6l.3.3.7.2c.2.1.3.2.3.4 0 .3-.1.5-.5.5H148c-.1 0-.3 0-.4-.1-.1-.1-.2-.2-.1-.3 0-.1 0-.2.1-.3s.2-.2.3-.2l.7-.1c.1-.1.3-.2.3-.3.1-.2.1-.4.1-.6V26.6c0-.1 0-.3-.1-.4s-.2-.2-.3-.2h-.8c-.1 0-.2-.1-.3-.2-.1-.2-.1-.4 0-.6.1-.1.2-.2.4-.2l4.5-1.3.6-.2h.4c.1 0 .3.1.4.2 0 0 .1.2.1.3zm-.5 3.8l-.5-.5.7-.6c.9-.9 2-1.8 3.1-2.5.8-.5 1.7-.7 2.6-.7 1-.1 1.9.3 2.6 1 .7.9 1.1 1.9 1.1 3l1.1 9.7c0 .2.1.4.1.6.1.1.2.3.4.3l.6.2c.1.1.2.1.3.2.1.1.1.2.1.3s0 .2-.1.3-.2.1-.4.1h-7c-.3 0-.5-.2-.5-.5 0-.2.1-.4.3-.4l.8-.2c.1-.1.3-.2.4-.3.1-.2.1-.4.1-.6l-.9-8.7c-.1-.6-.3-1.2-.6-1.8-.3-.4-.8-.6-1.3-.6-.4 0-.8.1-1.1.3-.4.2-.8.5-1.2.9l-.7.5zm26.4 11c1.6.5 2.6 1.9 2.5 3.6 0 1.6-.8 3-2.2 3.8-1.9 1.1-4.1 1.6-6.3 1.4-1.6 0-3.1-.1-4.7-.5-1-.2-1.9-.6-2.6-1.3-.5-.5-.8-1.2-.8-1.9 0-.9.4-1.8 1.2-2.3a8.9 8.9 0 0 1 3.8-1.2l.2.3c-.5.1-.9.4-1.3.8-.3.3-.4.7-.4 1.2 0 1 .4 2.1 1.2 2.7 1.1.8 2.4 1.1 3.8 1 .8 0 1.6-.1 2.4-.2.5-.1 1-.4 1.3-.8.3-.3.4-.8.4-1.2s-.1-.8-.4-1.2c-.4-.4-.9-.7-1.4-.9-.9-.3-1.9-.6-2.9-.7-1.2-.2-2.3-.4-3.4-.8-.7-.2-1.3-.6-1.7-1.1-.3-.4-.5-.9-.5-1.5 0-.5.1-1.1.4-1.5.4-.5.9-.9 1.5-1.1.9-.3 1.8-.5 2.7-.6l.1.2c-.2.1-.4.2-.5.4s-.2.4-.2.6.1.4.3.6c.4.3.8.4 1.2.5.9.3 1.8.5 2.7.6 1.1.3 2.4.7 3.6 1.1zm.3-6.4c-.7.9-1.6 1.7-2.6 2.2-1.2.5-2.5.8-3.8.8-1.4 0-2.8-.2-4.1-.8-1-.4-2-1.1-2.6-2-.6-.9-.9-1.9-.9-2.9 0-1.1.3-2.3.9-3.2.7-1 1.6-1.7 2.7-2.2 1.3-.6 2.7-.9 4.1-.8 1.3 0 2.7.2 3.9.8 1 .5 1.9 1.2 2.4 2.1.6.9.8 1.9.8 2.9.2 1.1-.1 2.2-.8 3.1zm-8.4-7.3c-.3.5-.6 1.1-.7 1.8-.1.9-.1 1.8 0 2.7.1.9.3 1.9.7 2.7.2.6.6 1.2 1.1 1.7.4.4.9.6 1.4.5.7 0 1.2-.5 1.6-1.4.4-1.2.5-2.4.2-3.7-.1-1.3-.4-2.6-1.1-3.8-.4-.7-1.2-1.2-2-1.2-.4 0-.9.2-1.2.7zm4.8-1.2c.4-1 1-1.8 1.7-2.6.6-.6 1.5-1 2.4-.9 1.2-.1 2.4.8 2.5 2v.4c0 .5-.1 1.1-.5 1.5-.3.4-.8.6-1.3.5-.3 0-.6-.1-.9-.3-.2-.2-.5-.4-.6-.6l-.6-.6c-.2-.2-.4-.3-.7-.3s-.6.2-.8.4c-.3.4-.6.8-.7 1.2h-.7l.2-.7zm10.8-10.2c.8-.1 1.7.2 2.3.7.5.5.8 1.2.7 1.9 0 .3 0 .7-.1 1 0 .4-.1.8-.2 1.1l-2.4 12.9c0 .2-.1.3-.2.5-.1.1-.2.1-.4.1-.1 0-.3 0-.4-.1-.1-.1-.2-.3-.2-.5l-2.2-13c-.1-.4-.2-.8-.2-1.1 0-.3-.1-.6-.1-1 0-.7.3-1.3.8-1.8.9-.5 1.8-.8 2.6-.7zm-.2 25.7c-.5 0-1-.1-1.5-.4-1.4-.9-1.8-2.7-1-4.1.2-.4.6-.8 1-1.1s.9-.4 1.4-.4 1.1.1 1.5.4c.4.3.8.6 1 1.1.5.9.5 2.1 0 3-.2.5-.6.8-1 1.1-.3.3-.9.4-1.4.4z" fill="#fff"/></svg>