<svg xmlns="http://www.w3.org/2000/svg" viewBox="0 0 150 82.1"><path d="M12 0h126c6.6 0 12 5.4 12 12v58.1c0 6.6-5.4 12-12 12H12c-6.6 0-12-5.4-12-12V12C0 5.4 5.4 0 12 0z" fill="red"/><path d="M11 13.7c0-.5.2-.9.5-1.3.4-.4 1-.5 1.5-.5h12c.5 0 1 0 1.6-.1l1.2-.3c.4-.1.7-.2 1.1-.2.6 0 1.2.2 1.7.6.4.6.8 1.2.9 1.9l1.1 3.8c.1.4.1.9-.2 1.2-.3.4-.7.6-1.2.7-.4.1-.8 0-1.2-.1-.5-.2-.8-.6-1-1.1s-.5-1.1-.9-1.5c-.3-.3-.6-.6-.9-.8s-.6-.3-1-.4c-.4-.1-.8-.1-1.3-.1h-3.3v14c-.1.8.2 1.5.7 2.1.5.5 1.3.7 2 .7h.9c.6 0 1.3 0 1.9-.2.6-.1 1-.5 1.4-.9.5-.6.9-1.3 1.2-2 .1-.5.5-.9.9-1.1s.9-.2 1.4-.1c.5.1.9.4 1.2.8.2.5.3 1.1.1 1.6l-1 3.6c-.2.7-.5 1.4-.9 1.9-.4.4-1.1.7-1.7.6-.4 0-.7 0-1.1-.2-.4-.1-.7-.2-1.2-.3s-1-.2-1.5-.2H13c-.5 0-1.1-.1-1.5-.5-.3-.3-.5-.8-.5-1.3 0-.8.4-1.5 1.1-1.9l.6-.3c.2-.1.5-.3.6-.5.2-.3.3-.6.2-1v-13c0-.4-.1-.7-.2-1-.2-.2-.4-.4-.6-.5l-.6-.3c-.7-.3-1.1-1.1-1.1-1.8zm6.8 8.6h5.7c.4.1.9-.1 1.2-.4.2-.4.4-.8.5-1.2.1-.3.3-.7.6-.9.3-.2.6-.3 1-.3.8 0 1.5.5 1.6 1.4l1.1 4.4c.2.5.2 1 0 1.4s-.6.7-1 .8c-.4.1-.7.1-1.1 0-.4-.2-.7-.4-.9-.8-.2-.3-.4-.5-.7-.8-.2-.2-.5-.3-.8-.4-.4-.1-.9-.1-1.4-.1h-6l.2-3.1zm38.6 8.1c.3.4.6.8.8 1s.3.4.5.5.4.3.7.4c.4.2.7.4.9.8.2.3.3.7.3 1.1 0 .5-.2.9-.5 1.3-.4.3-1 .5-1.5.5h-9.4c-.5 0-1.1-.1-1.5-.5-.3-.3-.5-.8-.5-1.3 0-.4.1-.8.3-1.2.3-.3.6-.6 1-.8.5-.2.7-.5.6-.7-.1-.3-.2-.6-.5-.8-.3-.3-.6-.6-.9-1L37.2 17l-.4-.6c-.1-.2-.3-.3-.4-.5-.2-.2-.4-.3-.6-.4-.4-.2-.7-.5-.9-.8s-.3-.7-.3-1.1c0-.5.2-.9.5-1.3.4-.3 1-.5 1.5-.5h9c.5 0 1.1.1 1.5.5.3.3.5.8.5 1.3 0 .4-.1.8-.3 1.1s-.4.5-.7.6l-.3.1c-.3.2-.5.4-.5.6.1.4.3.8.6 1.1l10 13.3zm-12.7-7.1l3.3 1.3-4.9 6.2c-.3.3-.5.6-.7 1 0 .2.1.4.2.5l.2.1c.3.2.6.4.8.7s.3.7.2 1c0 .5-.1.9-.5 1.3s-.9.5-1.4.5h-4.4c-.5 0-1.1-.1-1.5-.5-.6-.6-.6-1.6-.2-2.3.3-.3.7-.6 1.1-.8.4-.2.7-.5 1-.8s.6-.6.9-1l.9-1.1 5-6.1zm5.9 1.5l-3.4-1.1 5-6.8.5-.7c.1-.2.1-.3-.2-.5l-.4-.2c-.3-.2-.5-.4-.7-.7s-.3-.7-.3-1.1c0-.5.1-.9.4-1.3.4-.3.9-.5 1.4-.5h4.5c1.3 0 2 .6 2 1.7 0 .4-.2.8-.4 1.1-.4.4-.8.7-1.2 1-.3.2-.6.4-.8.7-.3.3-.7.9-1.3 1.7l-5.1 6.7zm17.6-12.9h9.3c.5 0 1 0 1.5-.1l1.2-.3c.4-.1.7-.2 1.1-.2.6 0 1.2.2 1.7.6.5.6.8 1.2.9 1.9l1 4.1c.2.5.1 1.1-.1 1.6-.2.4-.7.7-1.2.8-.4.1-.9.1-1.3-.1-.4-.3-.8-.6-.9-1.1-.3-.6-.5-1.1-.9-1.7-.2-.4-.5-.7-.8-1-.3-.2-.6-.4-.9-.5-.4-.1-.7-.2-1.1-.1h-1v14.8c0 .4 0 .7.2 1 .2.2.4.4.6.5l.6.3c.7.3 1.2 1.1 1.1 1.9 0 1.2-.7 1.8-2 1.8h-9c-.5 0-1.1-.1-1.5-.5-.3-.3-.5-.8-.5-1.3 0-.8.4-1.5 1.1-1.8l.7-.5c.2-.1.5-.3.6-.5.2-.3.3-.6.2-1V15.7h-1c-.5 0-1 .1-1.4.3-.4.2-.8.6-1.1 1-.4.7-.8 1.4-1.1 2.1-.2.5-.5.9-.9 1.1s-.9.2-1.3.1c-.5-.1-.9-.4-1.2-.8-.2-.5-.3-1-.1-1.5l1-4.1c.1-.7.5-1.4.9-1.9.5-.4 1.1-.6 1.7-.6.4 0 .8.1 1.1.2l1.2.3h1.6zm42.8 8.4c0 .9-.2 1.9-.7 2.7-.5.9-1.2 1.6-2 2.2-.9.6-1.9 1-3 1.2-.7.1-1.4.3-2 .5s-1.2.4-1.7.6c-.6.2-1.3.3-2 .3-.6 0-1.2 0-1.8-.1-.5-.1-1.1-.2-1.6-.4-.4-.1-.8-.3-1.2-.5l-.1-2.9c.3.2.7.4 1.1.5s.7.2 1.1.2.8.1 1.3.1c1.2.1 2.4-.3 3.4-1.1.8-.9 1.2-2.1 1.2-3.4 0-.9-.2-1.8-.7-2.6-.4-.8-1.1-1.4-1.9-1.8-.9-.4-1.8-.7-2.8-.6H96v15.4c0 .4.1.7.3 1l.6.6.3.2c.3.2.5.5.7.8.1.3.2.7.2 1 0 1.2-.7 1.8-2 1.8h-8.7c-.5 0-1.1-.1-1.5-.5-.3-.3-.5-.8-.5-1.3 0-.8.4-1.5 1.1-1.9l.5-.3c.2-.1.5-.3.7-.5.2-.3.3-.6.2-1V17.3c0-.4-.1-.7-.2-1-.2-.2-.4-.4-.7-.5l-.5-.3c-.7-.3-1.2-1.1-1.1-1.9 0-.5.2-.9.5-1.3.4-.3 1-.5 1.5-.5h9.7c2.4-.1 4.8.3 7.1 1.1 1.7.6 3.2 1.6 4.4 3 .9 1.3 1.4 2.8 1.4 4.4zm-11.5 6.1l7.6-.9 3.2 5.4.6.9.9.6c.7.4 1 1.1 1 1.8 0 .5-.2.9-.5 1.3-.4.3-1 .5-1.5.5h-7.5c-1.3 0-1.9-.6-1.9-1.8 0-.2 0-.5.2-.7.1-.2.3-.4.4-.6l.1-.2c.1-.1.2-.3.2-.4 0-.2 0-.4-.1-.6l-2.7-5.3zm23.8 7.8c0 .5-.2.9-.5 1.3-.4.3-1 .5-1.5.5h-4.8c-.5 0-1.1-.1-1.5-.5-.3-.3-.5-.8-.5-1.3 0-.3.1-.6.2-.9.2-.3.5-.6.8-.8l.4-.3c.2-.2.4-.3.5-.6.3-.5.5-1 .6-1.5l3.9-12.6c.2-.4.2-.9.3-1.3 0-.3-.2-.5-.7-.7-.3-.2-.6-.4-.8-.7-.2-.3-.3-.7-.2-1.1 0-.5.2-.9.5-1.3.4-.3 1-.5 1.5-.5h11.8c.5 0 1.1.1 1.5.5.3.3.5.8.5 1.3 0 .4-.1.8-.3 1.1s-.5.6-.9.8c-.2.1-.4.4-.4.7 0 .4.1.8.2 1.2l3.6 11.4c.3 1 .6 1.8.8 2.3.2.4.5.8.9 1.1.4.2.7.5 1 .9.2.3.3.7.3 1.1 0 .5-.2.9-.5 1.3-.4.3-1 .5-1.5.5H129c-.5 0-1.1-.1-1.5-.5-.3-.3-.5-.8-.5-1.3 0-.4.1-.7.3-1 .2-.3.5-.5.9-.7l.6-.3c.3-.1.4-.4.3-.7-.1-.3-.2-.8-.4-1.4L124.1 15l.5.1-4.4 14.2c-.2.5-.3 1-.4 1.3s-.1.6 0 .8c.2.3.5.6.9.8l.5.3c.3.2.6.4.8.7.2.2.3.6.3 1zm-3.2-9.2h10.7v3.6h-10.7V25z" fill="#fff"/><path d="M31.9 51.4l3.6.5-4.7 13.6c-.1.4-.3.8-.3 1.3-.1.3-.1.7-.1 1v.7c0 .5-.1.9-.4 1.2-.3.3-.6.4-1 .4h-5.3c-.4 0-.7-.1-1-.4s-.5-.8-.4-1.2v-.7c0-.2-.1-.4-.1-.6-.1-.3-.2-.5-.2-.8l-5-14.6c-.1-.4-.3-.8-.6-1.2-.2-.3-.5-.5-.8-.7l-.5-.3c-.3-.2-.5-.4-.7-.7-.3-.3-.4-.6-.4-.9 0-.5.2-.9.5-1.3.4-.3 1-.5 1.5-.5h8.8c.5 0 1.1.1 1.5.5.3.4.5.8.4 1.3 0 .7-.4 1.3-1 1.6l-.3.2c-.3.2-.5.5-.6.9 0 .5 0 1.1.2 1.6l4.4 13.2-3.1 2.3 5.6-16.4zM44.4 48c0-.5.2-.9.5-1.3.4-.3.9-.5 1.5-.5h4.7c.5 0 1.1.1 1.5.5.3.3.5.8.5 1.3 0 .4-.1.7-.3 1s-.5.5-.9.7l-.5.3c-.3.2-.6.4-.8.7-.3.5-.5 1-.7 1.6l-4.3 13.2c-.1.4-.2.8-.3 1.3-.1.3-.1.7-.1 1v.7c0 .5-.1.9-.4 1.2-.3.3-.6.4-1 .4h-5.3c-.4 0-.7-.1-1-.4-.4-.3-.5-.7-.5-1.2v-.7c0-.2-.1-.4-.1-.6-.1-.3-.2-.5-.2-.8l-4.8-14.6c-.2-.6-.3-1-.4-1.3s-.3-.6-.6-.7l-.5-.3c-.3-.1-.5-.4-.7-.6-.2-.3-.3-.6-.3-1 0-.5.2-.9.5-1.3.4-.3 1-.5 1.5-.5h8.1c.5 0 1.1.1 1.5.5.3.4.5.8.5 1.3 0 .4-.1.7-.3 1s-.5.5-.8.7l-.4.3c-.3.2-.5.5-.5.8-.1.5 0 1.1.2 1.6l4.2 13.2-2.8 2.3 5.1-16c.1-.4.2-.8.1-1.2-.1-.3-.3-.6-.6-.8l-.4-.2c-.3-.2-.5-.4-.7-.6-.1-.3-.2-.7-.2-1zm21.1-2.5c1.8 0 3.6.3 5.3.9 1.5.6 2.9 1.5 4 2.6s2 2.5 2.6 4c.6 1.6.9 3.3.9 5 0 1.8-.3 3.5-.9 5.2-.6 1.5-1.4 2.9-2.5 4.1-1.1 1.2-2.5 2.1-4 2.7-1.7.7-3.5 1-5.3.9-1.8 0-3.6-.3-5.4-.9-3.1-1.2-5.5-3.6-6.5-6.7-.6-1.7-.9-3.5-.9-5.3 0-1.6.3-3.3.9-4.8 1.1-3.1 3.5-5.5 6.5-6.7 1.6-.7 3.4-1 5.3-1zm4.6 17.2c0-1.3-.1-2.7-.4-4-.2-1.3-.6-2.5-1-3.7-.4-1.1-.9-2.1-1.5-3.1-.5-.8-1.1-1.5-1.8-2.1-.4-.5-1.1-.8-1.8-.8-.6 0-1.1.2-1.5.5-.4.4-.7 1-.9 1.6-.1.9-.2 1.8-.2 2.6 0 1.4.1 2.8.4 4.1.2 1.3.6 2.5 1 3.7.4 1 .9 2.1 1.5 3 .5.8 1.1 1.4 1.7 2 .5.4 1.1.7 1.7.7.5 0 1-.2 1.4-.5.5-.4.8-.9.9-1.5.4-.7.5-1.6.5-2.5zm19.5 5.7c0 .5-.2.9-.5 1.3-.4.3-1 .5-1.5.5h-4.8c-.5 0-1.1-.1-1.5-.5-.3-.3-.5-.8-.5-1.3 0-.9.5-1.7 1.3-2l.4-.2c.3-.1.5-.3.7-.6.2-.3.2-.7.2-1v-11c0-.5-.1-1-.2-1.5-.2-.4-.4-.7-.7-1l-1.2-1.4c-.3-.4-.6-.7-.8-.9-.2-.3-.3-.6-.3-1s.2-.8.5-1.1c.4-.3.8-.5 1.3-.5h5c.5 0 .9 0 1.4.2s1 .6 1.3 1.1l10.8 14-.8 3.8V51.7c0-.3-.1-.7-.2-1-.2-.2-.4-.4-.7-.6l-.4-.2c-.8-.3-1.3-1.1-1.3-1.9 0-.5.2-.9.5-1.3.4-.4.9-.5 1.4-.5h4.8c.5 0 1.1.1 1.5.5.3.3.5.8.5 1.3 0 .9-.5 1.6-1.3 2l-.4.2c-.3.1-.5.3-.7.6-.1.3-.2.7-.2 1v10.9c0 .6.1 1.1.2 1.7.1.5.3.9.5 1.3l.6 1c.2.3.4.7.6 1.1.1.3.2.5.2.8 0 .5-.2.9-.5 1.3-.3.3-.8.5-1.3.5H98c-1 0-1.5-.4-1.5-1.4 0-.3-.1-.6-.3-.8l-1-1.2-10-13 1.8-2.4v13.3c0 .3 0 .7.2 1 .2.2.4.4.7.6l.4.2c.8.1 1.3.9 1.3 1.7zm29.1-3.6c0 .4 0 .7.2 1.1.1.3.3.5.6.6l.2.1c.3.2.6.5.8.8.2.3.3.7.3 1.1 0 .5-.2.9-.5 1.3-.4.3-1 .5-1.5.5h-8.6c-.5 0-1.1-.1-1.5-.5-.3-.3-.5-.8-.5-1.3 0-.8.4-1.5 1.1-1.9l.6-.3c.2-.1.5-.3.6-.5.2-.3.3-.6.2-1V51.6c0-.4 0-.7-.2-1-.2-.2-.4-.4-.6-.5l-.6-.3c-.7-.3-1.1-1-1.1-1.8 0-.5.2-.9.5-1.3.4-.3 1-.5 1.5-.5h9.2c.5 0 1.1.1 1.5.5.3.3.5.8.5 1.3 0 .8-.4 1.5-1.1 1.9l-.6.3c-.2.1-.5.3-.6.5-.2.3-.3.6-.3 1l-.1 13.1zm-2.8-4.5l9-8.4c.3-.3.5-.5.8-.9.1-.2.1-.4 0-.5-.1-.2-.3-.3-.5-.4l-.6-.3c-.3-.2-.6-.4-.9-.7-.2-.3-.3-.7-.3-1.1 0-.5.2-.9.5-1.3.4-.3 1-.5 1.5-.5h7.2c.5 0 1.1.1 1.5.5.3.3.5.8.5 1.3 0 .4-.2.8-.5 1.1-.4.4-.9.7-1.4.9l-.6.3c-.2.1-.4.3-.6.4l-.7.6-1.1.9-12.5 11.2-1.3-3.1zm3.9-2l5.8-4.8 7.9 11.7c.2.3.4.6.7.8.2.2.4.3.6.4.4.2.7.5.9.9s.3.8.3 1.2c0 .5-.2.9-.5 1.3-.4.3-1 .5-1.5.5h-9c-.5 0-1.1-.1-1.5-.5-.3-.3-.5-.8-.5-1.3 0-.4.1-.8.3-1.1.2-.3.4-.5.7-.7l.3-.2c.2-.1.3-.4.3-.6-.1-.4-.3-.8-.5-1.1l-4.3-6.5z"/></svg>