<svg xmlns="http://www.w3.org/2000/svg" viewBox="0 0 125 125.23"><path fill="#0f0" d="M53.21 111.9L43.2 122.24l-1.95-14.26-12.26 7.53 1.66-14.29-13.75 4.23 5.16-13.43-14.38.69 8.35-11.73-14.1-2.91 11-9.28L0 62.47l12.96-6.26-10.95-9.34 14.11-2.84-8.28-11.77 14.37.76-5.1-13.46 13.73 4.31-1.59-14.3 12.23 7.59L43.5 2.91l9.96 10.39L58.96 0l7.06 12.54 8.63-11.51 3.72 13.9 11.22-9.01.15 14.39 13.11-5.93-3.44 13.98 14.18-2.48-6.81 12.67 14.35 1.12-9.75 10.59L125 54.92l-12.07 7.83 12.03 7.89-13.64 4.59 9.69 10.64-14.35 1.04 6.74 12.72-14.16-2.56 3.37 13.99-13.09-5.99-.21 14.39-11.18-9.06-3.79 13.88-8.58-11.56-7.12 12.51-5.43-13.33z"/><path d="M29.31 71.11a1.53 1.53 0 0 0 0 .94.81.81 0 0 0 .66.44l1.09.2a1.11 1.11 0 0 1 .52.21.54.54 0 0 1 .14.38.44.44 0 0 1-.25.39 1.3 1.3 0 0 1-.65.15h-7.3a1 1 0 0 1-.62-.14.49.49 0 0 1-.15-.38.43.43 0 0 1 .17-.4 1.37 1.37 0 0 1 .58-.23l1.18-.18a2.06 2.06 0 0 0 1-.45 2.37 2.37 0 0 0 .6-1c.11-.48.28-1.14.51-2s.48-1.81.77-2.88.6-2.2.92-3.39.65-2.39 1-3.58.63-2.34.91-3.44.53-2.09.74-3 .36-1.61.46-2.16a1.44 1.44 0 0 0 0-.88.85.85 0 0 0-.68-.41l-1.13-.22a1.25 1.25 0 0 1-.54-.23.48.48 0 0 1-.16-.38.45.45 0 0 1 .3-.4 2.08 2.08 0 0 1 .82-.07h7.2a1 1 0 0 1 .6.12.41.41 0 0 1 .16.35.48.48 0 0 1-.2.4 1.9 1.9 0 0 1-.67.26l-1.29.29a2 2 0 0 0-.9.35 1.65 1.65 0 0 0-.48.8c-.15.59-.35 1.34-.61 2.26s-.55 2-.86 3.1-.63 2.33-1 3.56-.65 2.45-1 3.65-.62 2.34-.89 3.39-.5 2-.68 2.79-.21 1.39-.27 1.79zm1.29-10h14.82L45 62.26H30.23zm14 10a1.48 1.48 0 0 0 0 .94.84.84 0 0 0 .7.44l1.05.2a1.16 1.16 0 0 1 .52.21.48.48 0 0 1 .16.38.44.44 0 0 1-.27.39 1.28 1.28 0 0 1-.65.15h-7.3a1 1 0 0 1-.63-.14.46.46 0 0 1-.18-.38.42.42 0 0 1 .18-.4 1.42 1.42 0 0 1 .59-.23l1.18-.18a2 2 0 0 0 1-.45 2.47 2.47 0 0 0 .59-1c.11-.48.28-1.14.5-2l.78-2.88c.29-1.07.59-2.2.92-3.39s.65-2.39 1-3.58.63-2.34.91-3.44.53-2.09.74-3 .36-1.61.46-2.16a1.61 1.61 0 0 0 0-.88.85.85 0 0 0-.67-.41L45 49.15a1.19 1.19 0 0 1-.55-.23.5.5 0 0 1-.15-.38.44.44 0 0 1 .28-.4 2.09 2.09 0 0 1 .84-.14h7.23a1 1 0 0 1 .6.12.43.43 0 0 1 .16.35.46.46 0 0 1-.21.4 1.78 1.78 0 0 1-.64.26l-1.27.29a2.06 2.06 0 0 0-.92.35 1.57 1.57 0 0 0-.47.8c-.16.59-.36 1.34-.62 2.26s-.54 2-.85 3.1l-1 3.56c-.33 1.23-.66 2.45-1 3.65s-.62 2.34-.89 3.39-.5 2-.67 2.79-.25 1.39-.31 1.79zm25.16-23.57a9.06 9.06 0 0 1 4.17 1.15 8.35 8.35 0 0 1 3 2.89 10.23 10.23 0 0 1 1.44 4.33 15.38 15.38 0 0 1-.42 5.46A19.37 19.37 0 0 1 75.58 67a16 16 0 0 1-3.65 4.12 14.38 14.38 0 0 1-4.58 2.48 14.87 14.87 0 0 1-5.17.69A9 9 0 0 1 58 73.11a8 8 0 0 1-2.94-3 10.41 10.41 0 0 1-1.31-4.51 16.34 16.34 0 0 1 .68-5.73 17.79 17.79 0 0 1 5.95-9.05 15.2 15.2 0 0 1 4.48-2.52 13.12 13.12 0 0 1 4.9-.76zm-7 25.58a8.67 8.67 0 0 0 3.49-.56 10.37 10.37 0 0 0 3.32-2.08 14.87 14.87 0 0 0 2.87-3.73 24.35 24.35 0 0 0 2.16-5.51 17.16 17.16 0 0 0 .68-5.24 9.58 9.58 0 0 0-.93-3.87 5.84 5.84 0 0 0-5-3.36 8 8 0 0 0-3.52.62 11.23 11.23 0 0 0-3.36 2.21 15.23 15.23 0 0 0-2.81 3.64 18.44 18.44 0 0 0-1.89 4.87 22.05 22.05 0 0 0-.79 5.69 9.8 9.8 0 0 0 .78 4 5.56 5.56 0 0 0 2 2.43 6 6 0 0 0 2.99.89zm26.67-1.68a.9.9 0 0 0 .07.7 1 1 0 0 0 .59.31l1.5.26c.43.11.61.29.53.55a.57.57 0 0 1-.3.43 1.66 1.66 0 0 1-.71.13H83.7a.92.92 0 0 1-.59-.16.43.43 0 0 1-.17-.38.55.55 0 0 1 .26-.4 1.66 1.66 0 0 1 .61-.23l1.38-.24a1.68 1.68 0 0 0 .81-.36 1.88 1.88 0 0 0 .5-.85l.6-2.2c.25-.94.54-2 .87-3.17s.69-2.43 1-3.75.75-2.63 1.12-4 .73-2.59 1.06-3.8.63-2.31.89-3.3.48-1.8.64-2.42l2.78.51c-.16.66-.37 1.48-.65 2.47s-.58 2.1-.92 3.31l-1.07 3.8q-.57 2-1.11 3.93c-.36 1.3-.7 2.52-1 3.69s-.59 2.19-.81 3.08-.36 1.65-.47 2.09zm-.79-23.86a14.91 14.91 0 0 1 2.15.18c.82.11 1.65.26 2.52.43l2.54.52c.82.18 1.56.33 2.23.45a10.2 10.2 0 0 0 1.56.17 2.36 2.36 0 0 0 1.13-.22 1.15 1.15 0 0 0 .55-.64 2 2 0 0 0 .15-.66v-.62a1.67 1.67 0 0 1 .46-.86 1.33 1.33 0 0 1 1-.33 1.2 1.2 0 0 1 .92.39 1.73 1.73 0 0 1 .35 1.19 2.83 2.83 0 0 1-1 2.24 4.06 4.06 0 0 1-2.71.86 11.8 11.8 0 0 1-1.93-.2c-.77-.14-1.59-.31-2.47-.5l-2.69-.59c-.9-.2-1.75-.36-2.54-.5a11.82 11.82 0 0 0-2-.2 4.54 4.54 0 0 0-2.47.5 1.63 1.63 0 0 0-.75 1.32 1.69 1.69 0 0 0 .11.76c.08.22.17.43.26.64a1.58 1.58 0 0 1 .14.69 1.29 1.29 0 0 1-.4.89 1.36 1.36 0 0 1-1 .36 1.46 1.46 0 0 1-1.19-.64 2.43 2.43 0 0 1-.37-1.65 3.68 3.68 0 0 1 .66-2.06 4.11 4.11 0 0 1 1.84-1.41 7.82 7.82 0 0 1 2.95-.51z"/></svg>