<svg xmlns="http://www.w3.org/2000/svg" viewBox="0 0 150 82.1"><rect width="150" height="82.1" rx="12" fill="#0f0"/><path d="M11 13.67a1.72 1.72 0 0 1 .48-1.28 2.06 2.06 0 0 1 1.52-.47h12a6.86 6.86 0 0 0 1.56-.15l1.16-.31a4.15 4.15 0 0 1 1.12-.16 2.18 2.18 0 0 1 1.68.6 4.93 4.93 0 0 1 .92 1.94l1.1 3.79a1.29 1.29 0 0 1-.23 1.25 1.94 1.94 0 0 1-1.21.67 2.32 2.32 0 0 1-1.22-.13 1.94 1.94 0 0 1-1-1.1A7.13 7.13 0 0 0 28 16.8a3.1 3.1 0 0 0-.93-.83 2.73 2.73 0 0 0-1-.36 8.15 8.15 0 0 0-1.27-.09h-3.3v14a2.78 2.78 0 0 0 .7 2.08 2.72 2.72 0 0 0 2 .7h.87a7.3 7.3 0 0 0 1.93-.2 2.86 2.86 0 0 0 1.42-.88 6.79 6.79 0 0 0 1.17-2 1.85 1.85 0 0 1 .9-1.1 2 2 0 0 1 1.35-.12 1.74 1.74 0 0 1 1.16.8 2.05 2.05 0 0 1 .11 1.58l-1 3.62a4.9 4.9 0 0 1-.93 1.92 2.12 2.12 0 0 1-1.68.61 4.07 4.07 0 0 1-1.11-.15c-.35-.1-.74-.21-1.17-.31a6.83 6.83 0 0 0-1.55-.15H13a2.06 2.06 0 0 1-1.49-.47 1.72 1.72 0 0 1-.51-1.28 2 2 0 0 1 1.13-1.87l.55-.29a2.18 2.18 0 0 0 .64-.51 1.53 1.53 0 0 0 .25-1V17.3a1.53 1.53 0 0 0-.25-1 2.18 2.18 0 0 0-.64-.51l-.55-.29A2 2 0 0 1 11 13.67zm6.75 8.62h5.69a1.48 1.48 0 0 0 1.23-.39 4.24 4.24 0 0 0 .55-1.2 1.66 1.66 0 0 1 .6-.87 1.63 1.63 0 0 1 .95-.28 1.55 1.55 0 0 1 1.62 1.35l1.1 4.43a2.06 2.06 0 0 1 0 1.43 1.61 1.61 0 0 1-1 .78 1.66 1.66 0 0 1-1.1 0 2 2 0 0 1-.92-.76 4.61 4.61 0 0 0-.66-.77 1.78 1.78 0 0 0-.77-.36 7.69 7.69 0 0 0-1.35-.09h-5.96zm38.68 8.14c.33.44.59.76.76 1a3 3 0 0 0 .52.5 5.61 5.61 0 0 0 .67.4 2.49 2.49 0 0 1 .92.76 1.85 1.85 0 0 1 .34 1.11 1.72 1.72 0 0 1-.48 1.28 2.08 2.08 0 0 1-1.49.47h-9.4a2.08 2.08 0 0 1-1.49-.47 1.72 1.72 0 0 1-.48-1.28 2 2 0 0 1 .32-1.2 2.49 2.49 0 0 1 1-.77q.69-.36.63-.72a1.54 1.54 0 0 0-.48-.81c-.28-.3-.58-.65-.89-1.05L37.23 17l-.42-.57a4.69 4.69 0 0 0-.42-.47 2.59 2.59 0 0 0-.6-.43 2.85 2.85 0 0 1-.91-.81 1.92 1.92 0 0 1-.27-1.08 1.72 1.72 0 0 1 .48-1.28 2.08 2.08 0 0 1 1.49-.47h9a2.06 2.06 0 0 1 1.5.47 1.72 1.72 0 0 1 .48 1.28 2 2 0 0 1-.27 1.1 2 2 0 0 1-.68.65l-.27.15c-.32.19-.48.39-.49.62a2.26 2.26 0 0 0 .57 1.11zm-12.77-7.09L47 24.67l-4.9 6.21a3.56 3.56 0 0 0-.67 1 .41.41 0 0 0 .23.45l.2.12a2.05 2.05 0 0 1 .75.67 1.91 1.91 0 0 1 .25 1 1.78 1.78 0 0 1-.46 1.27 1.85 1.85 0 0 1-1.41.48h-4.41a2.08 2.08 0 0 1-1.49-.47 1.93 1.93 0 0 1-.19-2.29 3.65 3.65 0 0 1 1.1-.83 7 7 0 0 0 1-.83 12.1 12.1 0 0 0 .92-1l.89-1.08zm5.93 1.44l-3.37-1.13 5.05-6.77.52-.71c.12-.16.06-.31-.19-.46l-.38-.22a2.12 2.12 0 0 1-.72-.71 2.08 2.08 0 0 1-.29-1.11 1.82 1.82 0 0 1 .44-1.28 1.92 1.92 0 0 1 1.43-.47h4.45c1.32 0 2 .57 2 1.7a1.65 1.65 0 0 1-.44 1.14 6.54 6.54 0 0 1-1.21 1 4.27 4.27 0 0 0-.79.69c-.27.3-.72.86-1.35 1.67zm17.62-12.86h9.26a7 7 0 0 0 1.53-.15l1.16-.31a4.15 4.15 0 0 1 1.12-.16 2.24 2.24 0 0 1 1.7.6 4.23 4.23 0 0 1 .9 1.94l1 4.12a2.07 2.07 0 0 1-.13 1.59 1.62 1.62 0 0 1-1.17.8 1.86 1.86 0 0 1-1.29-.12 2.22 2.22 0 0 1-.94-1.11 16.75 16.75 0 0 0-.86-1.67 4.63 4.63 0 0 0-.8-1 2.42 2.42 0 0 0-.89-.53 3.52 3.52 0 0 0-1.08-.15h-1v14.77a1.47 1.47 0 0 0 .25 1 2.32 2.32 0 0 0 .64.51l.55.29a2 2 0 0 1 1.13 1.87c0 1.17-.66 1.75-2 1.75h-9.03a2.08 2.08 0 0 1-1.49-.47 1.75 1.75 0 0 1-.48-1.3 2 2 0 0 1 1.13-1.85L67 32a2.06 2.06 0 0 0 .64-.51 1.47 1.47 0 0 0 .25-1V15.73h-1a3.15 3.15 0 0 0-1.4.28 3 3 0 0 0-1.1 1 13.91 13.91 0 0 0-1.13 2.09 2.12 2.12 0 0 1-.93 1.11 1.87 1.87 0 0 1-1.3.12 1.64 1.64 0 0 1-1.16-.8 2.17 2.17 0 0 1-.13-1.53l1-4.12a4.44 4.44 0 0 1 .91-1.94 2.2 2.2 0 0 1 1.69-.6 4.11 4.11 0 0 1 1.13.16l1.15.31a6.93 6.93 0 0 0 1.59.11zM110 20.29a5.51 5.51 0 0 1-.71 2.71 6.43 6.43 0 0 1-2 2.16 7.52 7.52 0 0 1-3 1.18 8.91 8.91 0 0 0-2 .54q-.87.35-1.74.63a6.58 6.58 0 0 1-2 .28 10.27 10.27 0 0 1-1.78-.14 11.58 11.58 0 0 1-1.59-.38A9.9 9.9 0 0 1 94 26.8l-.07-2.88a5.5 5.5 0 0 0 1.11.52 5.15 5.15 0 0 0 1.13.24 12.38 12.38 0 0 0 1.26.06 4.62 4.62 0 0 0 3.36-1.14 4.56 4.56 0 0 0 1.16-3.38 5.1 5.1 0 0 0-.66-2.6 4.78 4.78 0 0 0-1.86-1.79 5.81 5.81 0 0 0-2.79-.65h-.65v15.36a1.49 1.49 0 0 0 .26 1 4.54 4.54 0 0 0 .63.59l.34.25a1.86 1.86 0 0 1 .65.78 2.5 2.5 0 0 1 .18 1c0 1.17-.66 1.75-2 1.75h-8.66a2.09 2.09 0 0 1-1.5-.47 1.72 1.72 0 0 1-.48-1.28 2 2 0 0 1 1.14-1.87l.54-.29a2.11 2.11 0 0 0 .65-.51 1.53 1.53 0 0 0 .25-1V17.3a1.53 1.53 0 0 0-.25-1 2.11 2.11 0 0 0-.65-.51l-.54-.29a2 2 0 0 1-1.14-1.87 1.72 1.72 0 0 1 .48-1.28 2.09 2.09 0 0 1 1.5-.47h9.66a20.23 20.23 0 0 1 7.14 1.12 9.75 9.75 0 0 1 4.36 3 6.79 6.79 0 0 1 1.45 4.29zm-11.54 6.08l7.57-.91 3.23 5.45a5.12 5.12 0 0 0 .61.85 3.41 3.41 0 0 0 .88.59 1.93 1.93 0 0 1 1 1.82 1.72 1.72 0 0 1-.48 1.28 2.08 2.08 0 0 1-1.49.47h-7.53c-1.26 0-1.88-.58-1.88-1.75a1.51 1.51 0 0 1 .15-.68 3.12 3.12 0 0 1 .43-.61l.14-.15a.81.81 0 0 0 .18-.42 1 1 0 0 0-.13-.59zm23.81 7.8a1.72 1.72 0 0 1-.48 1.28 2.09 2.09 0 0 1-1.5.47h-4.85a2.08 2.08 0 0 1-1.49-.47 1.72 1.72 0 0 1-.48-1.28 1.82 1.82 0 0 1 .23-.92 3.13 3.13 0 0 1 .77-.79l.37-.3a2.09 2.09 0 0 0 .54-.57 7.68 7.68 0 0 0 .6-1.53l3.92-12.55a4.14 4.14 0 0 0 .26-1.32c0-.27-.25-.52-.69-.74a1.77 1.77 0 0 1-.76-.72 2.08 2.08 0 0 1-.25-1.06 1.72 1.72 0 0 1 .48-1.28 2.08 2.08 0 0 1 1.49-.47h11.76a2.08 2.08 0 0 1 1.49.47 1.72 1.72 0 0 1 .48 1.28 2 2 0 0 1-.28 1.11 2.27 2.27 0 0 1-.85.76.73.73 0 0 0-.39.66 3.7 3.7 0 0 0 .2 1.21l3.62 11.41c.33 1 .59 1.81.79 2.3a2 2 0 0 0 .85 1.06 2.94 2.94 0 0 1 1 .88 2.1 2.1 0 0 1 .28 1.11 1.72 1.72 0 0 1-.48 1.28 2.09 2.09 0 0 1-1.5.47H129a2.09 2.09 0 0 1-1.5-.47 1.75 1.75 0 0 1-.47-1.28 1.78 1.78 0 0 1 .28-1 2.24 2.24 0 0 1 .85-.7l.55-.29a.55.55 0 0 0 .3-.66c-.07-.29-.21-.75-.4-1.37L124.07 15l.48.07-4.41 14.23c-.17.55-.32 1-.45 1.31a1 1 0 0 0 0 .83 2.14 2.14 0 0 0 .92.76l.54.29a2.53 2.53 0 0 1 .83.66 1.63 1.63 0 0 1 .29 1.02zM119.08 25h10.69v3.6h-10.69z" fill="#fff"/><path d="M31.87 51.38l3.62.48-4.72 13.64a9.91 9.91 0 0 0-.34 1.28 5.63 5.63 0 0 0-.1 1v.72a1.68 1.68 0 0 1-.43 1.24 1.49 1.49 0 0 1-1 .41h-5.33a1.45 1.45 0 0 1-1-.41 1.64 1.64 0 0 1-.43-1.24v-.72a2.82 2.82 0 0 0-.11-.61c-.08-.26-.16-.53-.25-.79l-5-14.61a4.25 4.25 0 0 0-.56-1.17 2.66 2.66 0 0 0-.83-.68l-.5-.27a1.65 1.65 0 0 1-.69-.72A2.33 2.33 0 0 1 14 48a1.72 1.72 0 0 1 .48-1.28 2.08 2.08 0 0 1 1.49-.47h8.78a2.09 2.09 0 0 1 1.5.47 1.75 1.75 0 0 1 .43 1.28 1.72 1.72 0 0 1-1 1.63l-.33.17a1.18 1.18 0 0 0-.6.86 3.47 3.47 0 0 0 .25 1.61l4.41 13.18-3.12 2.31zM44.4 48a1.69 1.69 0 0 1 .49-1.28 2.07 2.07 0 0 1 1.48-.47h4.71a2.09 2.09 0 0 1 1.5.47 1.71 1.71 0 0 1 .47 1.28 1.65 1.65 0 0 1-.26 1 2.48 2.48 0 0 1-.87.71l-.54.29a2.12 2.12 0 0 0-.84.72 6.07 6.07 0 0 0-.66 1.56L45.63 65.5a11.6 11.6 0 0 0-.33 1.28 4.94 4.94 0 0 0-.11 1v.72a1.68 1.68 0 0 1-.43 1.24 1.47 1.47 0 0 1-1 .41h-5.33a1.45 1.45 0 0 1-1-.41 1.64 1.64 0 0 1-.43-1.19v-.72a2.82 2.82 0 0 0-.11-.61c-.08-.26-.16-.53-.25-.79l-4.79-14.61q-.27-.87-.42-1.32a1.22 1.22 0 0 0-.61-.7l-.49-.27a1.91 1.91 0 0 1-.69-.63 1.68 1.68 0 0 1-.26-.95 1.73 1.73 0 0 1 .49-1.28 2.1 2.1 0 0 1 1.49-.47h8.15a2.06 2.06 0 0 1 1.5.47 1.72 1.72 0 0 1 .48 1.33 1.63 1.63 0 0 1-.29 1 2.55 2.55 0 0 1-.85.7l-.37.2a1.08 1.08 0 0 0-.49.81 3.46 3.46 0 0 0 .21 1.61l4.24 13.18-2.83 2.31 5.11-16a2.44 2.44 0 0 0 .14-1.2 1.11 1.11 0 0 0-.62-.77l-.43-.24a1.82 1.82 0 0 1-.66-.63 1.61 1.61 0 0 1-.25-.97zm21.08-2.48a14.29 14.29 0 0 1 5.29.93 11.55 11.55 0 0 1 4 2.61 11.43 11.43 0 0 1 2.55 4 13.43 13.43 0 0 1 .89 5 14.57 14.57 0 0 1-.88 5.17 11.92 11.92 0 0 1-2.54 4.09 11.44 11.44 0 0 1-4 2.68 14 14 0 0 1-5.31.95 14.52 14.52 0 0 1-5.36-.95 11.11 11.11 0 0 1-6.54-6.71 15 15 0 0 1-.87-5.29 13.49 13.49 0 0 1 .86-4.83 11.52 11.52 0 0 1 6.52-6.7 13.89 13.89 0 0 1 5.39-.95zm4.58 17.14a22.77 22.77 0 0 0-.37-4 23.53 23.53 0 0 0-1-3.74 16.86 16.86 0 0 0-1.47-3.07 8.34 8.34 0 0 0-1.75-2.09 2.87 2.87 0 0 0-1.83-.77 2.12 2.12 0 0 0-1.5.54 3.21 3.21 0 0 0-.87 1.62 10.36 10.36 0 0 0-.27 2.59 21.56 21.56 0 0 0 .39 4.12 22.57 22.57 0 0 0 1 3.73 17.57 17.57 0 0 0 1.5 3 8.64 8.64 0 0 0 1.73 2 2.78 2.78 0 0 0 1.74.73 2.23 2.23 0 0 0 1.44-.47 2.94 2.94 0 0 0 .92-1.51 9.85 9.85 0 0 0 .34-2.68zm19.52 5.79a1.72 1.72 0 0 1-.48 1.28 2.08 2.08 0 0 1-1.49.47h-4.83a2.09 2.09 0 0 1-1.5-.47 1.72 1.72 0 0 1-.48-1.28 2.15 2.15 0 0 1 1.31-2l.37-.21a1.85 1.85 0 0 0 .69-.57 2 2 0 0 0 .21-1v-11a4.15 4.15 0 0 0-.22-1.54 3.89 3.89 0 0 0-.68-1l-1.2-1.37c-.32-.37-.57-.68-.77-.94a1.63 1.63 0 0 1-.29-1 1.42 1.42 0 0 1 .49-1.13A1.89 1.89 0 0 1 82 46.2h5a5.62 5.62 0 0 1 1.4.16 2.85 2.85 0 0 1 1.27 1.08l10.78 14-.82 3.75V51.72a2.09 2.09 0 0 0-.2-1 1.85 1.85 0 0 0-.69-.57l-.38-.21A2.14 2.14 0 0 1 97.07 48a1.72 1.72 0 0 1 .48-1.28A2.08 2.08 0 0 1 99 46.2h4.83a2.09 2.09 0 0 1 1.5.47 1.72 1.72 0 0 1 .48 1.28 2.15 2.15 0 0 1-1.31 1.95l-.37.21a1.8 1.8 0 0 0-.71.57 2.15 2.15 0 0 0-.19 1v10.91a8.3 8.3 0 0 0 .16 1.67 4.52 4.52 0 0 0 .5 1.33l.58 1a10.83 10.83 0 0 1 .56 1.06 1.92 1.92 0 0 1 .16.83 1.67 1.67 0 0 1-.49 1.26 1.77 1.77 0 0 1-1.26.47H98c-1 0-1.49-.45-1.49-1.36a1.24 1.24 0 0 0-.29-.78l-1-1.24-10-13L87 51.41v13.27a2 2 0 0 0 .19 1 2 2 0 0 0 .7.58l.38.21a2.14 2.14 0 0 1 1.31 1.98zm29.1-3.63a2.6 2.6 0 0 0 .16 1.08 1.25 1.25 0 0 0 .58.58l.21.12a2.2 2.2 0 0 1 .84.78 2 2 0 0 1 .27 1.07 1.72 1.72 0 0 1-.48 1.28 2.08 2.08 0 0 1-1.49.47h-8.64a2.08 2.08 0 0 1-1.49-.47 1.72 1.72 0 0 1-.48-1.28 2 2 0 0 1 1.13-1.87l.55-.29a2.06 2.06 0 0 0 .64-.51 1.47 1.47 0 0 0 .25-1v-13.2a1.47 1.47 0 0 0-.25-1 2.06 2.06 0 0 0-.64-.51l-.55-.29a2 2 0 0 1-1.13-1.78 1.72 1.72 0 0 1 .48-1.28 2.08 2.08 0 0 1 1.49-.47h9.15a2.06 2.06 0 0 1 1.49.47 1.72 1.72 0 0 1 .48 1.28 2 2 0 0 1-1.13 1.87l-.55.29a2.28 2.28 0 0 0-.63.51 1.47 1.47 0 0 0-.26 1zm-2.74-4.51l9-8.4a4.39 4.39 0 0 0 .76-.87.53.53 0 0 0 0-.55 1.07 1.07 0 0 0-.5-.41l-.55-.3a2.19 2.19 0 0 1-.86-.74 2 2 0 0 1-.27-1.09 1.72 1.72 0 0 1 .48-1.28 2.08 2.08 0 0 1 1.49-.47h7.2a2.08 2.08 0 0 1 1.49.47 1.72 1.72 0 0 1 .48 1.28 1.5 1.5 0 0 1-.48 1.14 5.22 5.22 0 0 1-1.39.88 4.88 4.88 0 0 0-.55.31q-.27.18-.57.42l-.73.62-1.06.93-12.53 11.25zm3.89-2l5.85-4.77 7.9 11.71a2.58 2.58 0 0 0 .73.81c.22.15.42.27.6.37a2.09 2.09 0 0 1 .88.89 2.71 2.71 0 0 1 .26 1.17 1.72 1.72 0 0 1-.48 1.28 2.08 2.08 0 0 1-1.49.47h-9a2.08 2.08 0 0 1-1.49-.47 1.72 1.72 0 0 1-.48-1.28 1.92 1.92 0 0 1 .27-1.08 2.44 2.44 0 0 1 .67-.69l.31-.2a.62.62 0 0 0 .31-.6 2.52 2.52 0 0 0-.5-1.06z"/></svg>