<?xml version="1.0" encoding="utf-8"?>
<!-- Generator: Adobe Illustrator 24.0.1, SVG Export Plug-In . SVG Version: 6.00 Build 0)  -->
<svg version="1.1" id="Layer_1" xmlns="http://www.w3.org/2000/svg" xmlns:xlink="http://www.w3.org/1999/xlink" x="0px" y="0px"
	 viewBox="0 0 202 56.6" style="enable-background:new 0 0 202 56.6;" xml:space="preserve">
<style type="text/css">
	.st0{fill:#FF0000;}
	.st1{fill:#FFFFFF;}
</style>
<path class="st0" d="M5.7,0h190.7c3.1,0,5.7,2.5,5.7,5.7V51c0,3.1-2.5,5.7-5.7,5.7H5.7C2.6,56.7,0,54.2,0,51V5.7C0,2.5,2.5,0,5.7,0z
	"/>
<path class="st1" d="M25.2,34.6c0,1.4-0.7,2.7-1.8,3.5c-1.5,1-3.2,1.4-4.9,1.3c-1.6,0.1-3.1-0.3-4.4-1.2c-1-0.7-1.6-1.9-1.6-3.1
	c0-0.7,0.2-1.4,0.7-1.9s1.1-0.8,1.8-0.8c0.6,0,1.2,0.2,1.6,0.7s0.7,1.2,0.6,1.9v1.5c0,0.5,0.1,1,0.4,1.5c0.3,0.4,0.8,0.6,1.3,0.5
	c0.5,0,1-0.2,1.3-0.7c0.4-0.5,0.5-1.2,0.5-1.8s-0.1-1.2-0.4-1.8c-0.3-0.5-0.6-1.1-0.9-1.8c-0.4-0.7-0.7-1.4-1-2.1
	c-0.3-0.9-0.4-1.9-0.4-2.8V17.2c0-0.2,0-0.4-0.1-0.6s-0.3-0.3-0.5-0.3L16.1,16c-0.1-0.1-0.3-0.1-0.4-0.2c-0.1-0.1-0.1-0.2-0.1-0.3
	c0-0.2,0.1-0.3,0.2-0.4c0.1-0.1,0.3-0.1,0.4-0.1h9c0.2,0,0.4,0,0.5,0.1s0.2,0.2,0.2,0.4c0,0.3-0.2,0.5-0.6,0.6l-1,0.2
	c-0.2,0.1-0.4,0.2-0.5,0.3c-0.1,0.1-0.2,0.3-0.2,0.5v10.4c0,0.7,0.1,1.5,0.3,2.2c0.2,0.6,0.4,1.1,0.6,1.7c0.2,0.5,0.4,1,0.6,1.6
	C25.1,33.5,25.2,34,25.2,34.6z M38.7,35.1l0.5,0.6l-0.7,0.6c-1,1-2.1,1.8-3.3,2.5c-0.9,0.4-1.8,0.7-2.8,0.7c-1.1,0-2.1-0.4-2.8-1.1
	c-0.8-0.9-1.2-2.1-1.1-3.3v-8.4c0-0.1,0-0.3-0.1-0.4s-0.2-0.2-0.3-0.2h-0.9c-0.1,0-0.2-0.1-0.3-0.2c-0.1-0.1-0.1-0.2-0.1-0.2
	c0-0.1,0-0.2,0.1-0.3c0.1-0.1,0.2-0.2,0.4-0.2l4.5-1.4l0.6-0.1c0.1,0,0.3,0,0.4,0c0.1,0,0.3,0,0.3,0.1c0.1,0.1,0.1,0.3,0.1,0.4v10.1
	c-0.1,0.7,0.2,1.4,0.6,2c0.4,0.4,1,0.7,1.6,0.7c0.5,0,0.9-0.1,1.3-0.3c0.5-0.2,0.9-0.5,1.3-0.9L38.7,35.1z M38.3,38V26.6
	c0-0.1,0-0.3-0.1-0.4S38,26.1,37.9,26H37c-0.1,0-0.2-0.1-0.2-0.2c-0.1-0.1-0.1-0.2-0.1-0.2c0-0.1,0-0.2,0.1-0.3
	c0.1-0.1,0.2-0.2,0.4-0.2l4.5-1.4l0.5-0.1c0.1,0,0.2,0,0.3,0s0.3,0,0.4,0.1c0.1,0.1,0.2,0.3,0.1,0.4v13.1c0,0.2,0,0.4,0.1,0.6
	c0.1,0.1,0.2,0.3,0.3,0.3l0.7,0.2c0.1,0,0.2,0.1,0.3,0.2c0.1,0.1,0.1,0.2,0.1,0.3s0,0.2-0.1,0.3s-0.2,0.1-0.3,0.1h-4.7
	c-0.5,0.1-1-0.3-1.1-0.9C38.3,38.2,38.3,38.1,38.3,38z M52.2,38.5c0.6,0,1.2-0.1,1.7-0.5c0.4-0.3,0.6-0.8,0.6-1.3
	c0-0.4-0.1-0.7-0.3-1c-0.2-0.4-0.6-0.7-0.9-0.9c-0.6-0.3-1.2-0.6-1.8-0.8c-1.2-0.3-2.4-0.8-3.5-1.5c-0.7-0.4-1.4-1.1-1.8-1.9
	c-0.4-0.7-0.6-1.5-0.5-2.4c-0.1-1.3,0.5-2.6,1.5-3.5c1.2-0.9,2.7-1.4,4.3-1.3c0.6,0,1.2,0,1.7,0.2c0.4,0.1,0.7,0.2,1.1,0.4
	c0.2,0.1,0.4,0.2,0.6,0.2c0.2,0,0.4-0.1,0.6-0.2l0.8-0.4c0.2-0.1,0.4-0.2,0.6-0.2c0.1,0,0.2,0,0.3,0.1s0.2,0.3,0.2,0.4l0.8,4
	c0.1,0.2,0.1,0.5,0.1,0.7S58.2,28.9,58,29c-0.1,0.1-0.3,0.1-0.4,0c-0.2-0.1-0.3-0.2-0.4-0.3c-0.5-0.9-1.1-1.8-1.8-2.6
	c-0.5-0.6-1.1-1-1.7-1.4c-0.6-0.3-1.2-0.4-1.9-0.4c-0.6,0-1.3,0.2-1.8,0.6c-0.4,0.4-0.6,0.9-0.6,1.5c0,0.4,0.1,0.8,0.3,1.1
	c0.3,0.4,0.6,0.7,1.1,0.9c0.7,0.4,1.5,0.6,2.2,0.8c1.1,0.3,2.1,0.7,3,1.3c1.4,0.9,2.3,2.4,2.2,4.1c0,0.9-0.2,1.8-0.7,2.5
	s-1.2,1.3-2,1.7c-0.9,0.4-1.9,0.6-2.9,0.6c-0.6,0-1.1-0.1-1.7-0.2c-0.4-0.1-0.8-0.3-1.1-0.5c-0.2-0.1-0.3-0.2-0.5-0.2
	s-0.4,0.1-0.5,0.2L48,39.2c-0.2,0.1-0.4,0.2-0.6,0.2c-0.1,0-0.3,0-0.3-0.1c-0.1-0.1-0.2-0.3-0.2-0.5l-0.6-3.6c0-0.2,0-0.5,0-0.7
	s0.1-0.3,0.3-0.3c0.1-0.1,0.3-0.1,0.4,0c0.2,0.1,0.3,0.2,0.4,0.4c0.6,1.1,1.4,2.2,2.4,3C50.4,38.2,51.3,38.5,52.2,38.5L52.2,38.5z
	 M60.4,25l-1.1-0.3c-0.1,0-0.2-0.1-0.3-0.2c0-0.1-0.1-0.2,0-0.3c0-0.1,0-0.3,0.1-0.4s0.2-0.1,0.4-0.1h1.2c0.1,0,0.2,0,0.3-0.1
	s0.2-0.2,0.3-0.4l2.9-2.8c0.1-0.2,0.3-0.3,0.4-0.4c0.1,0,0.2,0,0.4,0c0.1,0,0.3,0.1,0.4,0.2s0.2,0.3,0.1,0.5v13.8
	c-0.1,0.7,0.1,1.4,0.5,2c0.3,0.4,0.8,0.7,1.4,0.6c0.2,0,0.5,0,0.7-0.1s0.4-0.2,0.6-0.4s0.3-0.4,0.4-0.6c0.1-0.2,0.3-0.4,0.4-0.7
	c0.1-0.1,0.1-0.1,0.2,0c0.1,0,0.1,0.2,0.1,0.3c-0.1,0.7-0.4,1.4-0.8,2s-0.9,1-1.4,1.3c-0.7,0.3-1.4,0.5-2.2,0.5
	c-1.2,0.1-2.4-0.3-3.4-1.1c-0.9-0.9-1.3-2.1-1.2-3.4v-9.3c0-0.1,0-0.3,0-0.4C60.6,25.1,60.5,25,60.4,25z M63.9,24.9l0.1-1.1h5.2
	c0.1,0,0.3,0,0.4,0.1s0.1,0.2,0.1,0.3c0,0.2-0.1,0.4-0.3,0.5c-0.3,0.1-0.6,0.2-0.9,0.2H63.9z M82.6,13.8v23.4c0,0.2,0,0.4,0.1,0.6
	c0.1,0.1,0.2,0.2,0.3,0.3l0.7,0.2c0.1,0,0.2,0.1,0.3,0.2c0.1,0.1,0.1,0.2,0.1,0.3s0,0.2-0.1,0.3s-0.2,0.1-0.4,0.1h-6.9
	c-0.1,0-0.3,0-0.4-0.1s-0.1-0.2-0.1-0.3s0-0.2,0.1-0.3s0.2-0.2,0.3-0.2l0.7-0.1c0.1-0.1,0.3-0.2,0.3-0.3c0.1-0.2,0.1-0.4,0.1-0.6
	v-21c0-0.1,0-0.3-0.1-0.4s-0.2-0.2-0.3-0.2h-0.8c-0.1,0-0.2-0.1-0.3-0.2c0-0.1-0.1-0.2-0.1-0.3s0-0.2,0.1-0.3s0.2-0.2,0.4-0.2
	l4.5-1.4l0.6-0.1c0.1,0,0.2,0,0.4,0c0.1,0,0.3,0,0.3,0.1C82.6,13.5,82.6,13.6,82.6,13.8z M93.5,23.4c1.4,0,2.9,0.3,4.2,1
	c1.2,0.7,2.2,1.7,2.8,2.9c0.7,1.3,1,2.7,1,4.2c0,1.4-0.3,2.9-1.1,4.1c-0.7,1.2-1.7,2.2-2.9,2.8c-1.3,0.7-2.8,1-4.3,1s-2.9-0.3-4.2-1
	c-1.2-0.7-2.2-1.6-2.8-2.8c-0.7-1.3-1-2.7-1-4.2c0-1.4,0.3-2.8,1-4.1c0.7-1.2,1.7-2.2,2.9-2.9C90.4,23.7,91.9,23.4,93.5,23.4z
	 M94.5,38.4c0.6-0.1,1.1-0.5,1.4-1c0.4-0.7,0.6-1.6,0.7-2.4c0.1-1.3,0-2.6-0.2-3.9c-0.2-1.3-0.5-2.6-0.9-3.8
	c-0.3-0.8-0.8-1.6-1.4-2.2c-0.5-0.4-1.1-0.6-1.7-0.5s-1.1,0.5-1.4,1c-0.4,0.8-0.6,1.6-0.6,2.4c-0.1,1.3,0,2.6,0.2,3.9
	c0.2,1.3,0.5,2.6,0.9,3.8c0.3,0.8,0.8,1.6,1.4,2.2C93.2,38.2,93.8,38.4,94.5,38.4L94.5,38.4z M111,23.4c1.4,0,2.9,0.3,4.2,1
	c1.2,0.7,2.2,1.7,2.8,2.9c0.7,1.3,1,2.7,1,4.2c0,1.4-0.3,2.9-1,4.1c-0.7,1.2-1.7,2.2-2.9,2.8c-1.3,0.7-2.8,1-4.3,1s-2.9-0.3-4.2-1
	c-1.2-0.7-2.2-1.6-2.8-2.8c-0.7-1.3-1-2.7-1-4.2c0-1.4,0.3-2.8,1-4.1c0.7-1.2,1.7-2.2,2.9-2.9C108,23.8,109.5,23.4,111,23.4z
	 M112,38.3c0.6-0.1,1.1-0.5,1.4-1c0.4-0.7,0.7-1.6,0.7-2.4c0.1-1.3,0-2.6-0.2-3.9c-0.2-1.3-0.5-2.6-0.9-3.8
	c-0.3-0.8-0.8-1.6-1.4-2.1c-0.5-0.4-1.1-0.6-1.7-0.5s-1.1,0.5-1.4,1c-0.4,0.8-0.6,1.6-0.7,2.4c-0.1,1.3,0,2.6,0.2,3.9
	s0.5,2.6,0.9,3.8c0.3,0.8,0.8,1.6,1.4,2.2C110.8,38.2,111.4,38.4,112,38.3z M120.8,39.1c-0.1,0-0.3,0-0.4-0.1s-0.1-0.2-0.1-0.3
	s0-0.2,0.1-0.3s0.2-0.2,0.3-0.2l0.7-0.1c0.1,0,0.3-0.2,0.3-0.3c0.1-0.2,0.1-0.4,0.1-0.6V16.3c0-0.1,0-0.3-0.1-0.4
	c-0.1-0.1-0.2-0.2-0.3-0.2h-0.8c-0.1,0-0.2-0.1-0.3-0.2c-0.1-0.1-0.1-0.2-0.1-0.3s0-0.2,0.1-0.3s0.2-0.2,0.4-0.2l4.5-1.4l0.6-0.1
	c0.1,0,0.3,0,0.4,0s0.3,0,0.3,0.1c0.1,0.1,0.1,0.3,0.1,0.4v23.4c0,0.2,0,0.4,0.1,0.6c0.1,0.1,0.2,0.2,0.3,0.3l0.7,0.2
	c0.2,0.1,0.3,0.2,0.3,0.4c0,0.3-0.2,0.5-0.5,0.5H120.8z M125.6,32.7l6.3-6c0.4-0.3,0.6-0.7,0.5-1.1s-0.5-0.7-0.9-0.8l-0.6-0.2
	c-0.1,0-0.2-0.1-0.2-0.2s-0.1-0.2-0.1-0.2c0-0.1,0-0.3,0.1-0.3c0.1-0.1,0.3-0.1,0.4-0.1h6.1c0.1,0,0.3,0,0.4,0.1
	c0.1,0.1,0.1,0.2,0.1,0.3c0,0.1,0,0.3-0.1,0.4c-0.2,0.1-0.4,0.2-0.6,0.2c-0.7,0.2-1.4,0.4-2.1,0.8c-0.7,0.4-1.4,0.9-1.9,1.4l-7,6.6
	L125.6,32.7z M131.2,28l5.5,9.2c0.1,0.2,0.3,0.4,0.5,0.6c0.2,0.1,0.4,0.2,0.6,0.3c0.1,0.1,0.3,0.2,0.4,0.3c0.1,0.1,0.1,0.2,0.1,0.3
	s0,0.2-0.1,0.3s-0.2,0.1-0.4,0.1h-7.4c-0.1,0-0.3,0-0.4-0.1c-0.1-0.1-0.1-0.2-0.1-0.3s0-0.1,0.1-0.2c0.1-0.1,0.2-0.1,0.2-0.2
	l0.6-0.2c0.3-0.1,0.4-0.2,0.4-0.3c0-0.3-0.1-0.5-0.2-0.7l-3.3-5.8L131.2,28z M145,24v13.2c0,0.2,0,0.4,0.1,0.6
	c0.1,0.1,0.2,0.2,0.4,0.3l0.7,0.2c0.1,0,0.2,0.1,0.3,0.2c0.1,0.1,0.1,0.2,0.1,0.3s0,0.2-0.1,0.3s-0.2,0.1-0.4,0.1h-6.9
	c-0.1,0-0.3,0-0.4-0.1c-0.1-0.1-0.2-0.2-0.2-0.3s0-0.2,0.1-0.3s0.2-0.2,0.3-0.2l0.7-0.1c0.2,0,0.3-0.1,0.4-0.3
	c0.1-0.2,0.1-0.4,0.1-0.6V26.6c0-0.1,0-0.3-0.1-0.4s-0.2-0.1-0.3-0.2H139c-0.1,0-0.2-0.1-0.3-0.2s-0.1-0.2-0.1-0.3
	c0-0.1,0-0.2,0.1-0.3c0.1-0.1,0.2-0.2,0.4-0.2l4.5-1.3c0.2-0.1,0.4-0.1,0.6-0.2c0.1,0,0.2,0,0.4,0c0.1,0,0.3,0.1,0.4,0.2
	C145,23.8,145,23.9,145,24z M142.5,21.6c-1.5,0.1-2.8-1.1-2.9-2.6c0-0.1,0-0.2,0-0.3c0-0.7,0.3-1.5,0.8-2c0.6-0.5,1.3-0.8,2.1-0.8
	s1.6,0.3,2.1,0.8c1.1,1.1,1.1,2.9,0,4.1C144,21.4,143.3,21.6,142.5,21.6L142.5,21.6z M153.9,24v13.2c0,0.2,0,0.4,0.1,0.6
	c0.1,0.1,0.2,0.2,0.3,0.3l0.7,0.2c0.2,0.1,0.3,0.2,0.3,0.4c0,0.3-0.1,0.5-0.5,0.5H148c-0.1,0-0.3,0-0.4-0.1
	c-0.1-0.1-0.2-0.2-0.1-0.3c0-0.1,0-0.2,0.1-0.3s0.2-0.2,0.3-0.2l0.7-0.1c0.1-0.1,0.3-0.2,0.3-0.3c0.1-0.2,0.1-0.4,0.1-0.6V26.6
	c0-0.1,0-0.3-0.1-0.4s-0.2-0.2-0.3-0.2h-0.8c-0.1,0-0.2-0.1-0.3-0.2c-0.1-0.2-0.1-0.4,0-0.6c0.1-0.1,0.2-0.2,0.4-0.2l4.5-1.3
	l0.6-0.2c0.1,0,0.2,0,0.4,0c0.1,0,0.3,0.1,0.4,0.2C153.8,23.7,153.9,23.9,153.9,24L153.9,24z M153.4,27.8l-0.5-0.5l0.7-0.6
	c0.9-0.9,2-1.8,3.1-2.5c0.8-0.5,1.7-0.7,2.6-0.7c1-0.1,1.9,0.3,2.6,1c0.7,0.9,1.1,1.9,1.1,3l1.1,9.7c0,0.2,0.1,0.4,0.1,0.6
	c0.1,0.1,0.2,0.3,0.4,0.3l0.6,0.2c0.1,0.1,0.2,0.1,0.3,0.2c0.1,0.1,0.1,0.2,0.1,0.3s0,0.2-0.1,0.3s-0.2,0.1-0.4,0.1h-7
	c-0.3,0-0.5-0.2-0.5-0.5c0-0.2,0.1-0.4,0.3-0.4l0.8-0.2c0.1-0.1,0.3-0.2,0.4-0.3c0.1-0.2,0.1-0.4,0.1-0.6l-0.9-8.7
	c-0.1-0.6-0.3-1.2-0.6-1.8c-0.3-0.4-0.8-0.6-1.3-0.6c-0.4,0-0.8,0.1-1.1,0.3c-0.4,0.2-0.8,0.5-1.2,0.9L153.4,27.8z M179.8,38.8
	c1.6,0.5,2.6,1.9,2.5,3.6c0,1.6-0.8,3-2.2,3.8c-1.9,1.1-4.1,1.6-6.3,1.4c-1.6,0-3.1-0.1-4.7-0.5c-1-0.2-1.9-0.6-2.6-1.3
	c-0.5-0.5-0.8-1.2-0.8-1.9c0-0.9,0.4-1.8,1.2-2.3c1.2-0.7,2.5-1.1,3.8-1.2l0.2,0.3c-0.5,0.1-0.9,0.4-1.3,0.8
	c-0.3,0.3-0.4,0.7-0.4,1.2c0,1,0.4,2.1,1.2,2.7c1.1,0.8,2.4,1.1,3.8,1c0.8,0,1.6-0.1,2.4-0.2c0.5-0.1,1-0.4,1.3-0.8
	c0.3-0.3,0.4-0.8,0.4-1.2s-0.1-0.8-0.4-1.2c-0.4-0.4-0.9-0.7-1.4-0.9c-0.9-0.3-1.9-0.6-2.9-0.7c-1.2-0.2-2.3-0.4-3.4-0.8
	c-0.7-0.2-1.3-0.6-1.7-1.1c-0.3-0.4-0.5-0.9-0.5-1.5c0-0.5,0.1-1.1,0.4-1.5c0.4-0.5,0.9-0.9,1.5-1.1c0.9-0.3,1.8-0.5,2.7-0.6
	l0.1,0.2c-0.2,0.1-0.4,0.2-0.5,0.4S172,35.8,172,36s0.1,0.4,0.3,0.6c0.4,0.3,0.8,0.4,1.2,0.5c0.9,0.3,1.8,0.5,2.7,0.6
	C177.3,38,178.6,38.4,179.8,38.8L179.8,38.8z M180.1,32.4c-0.7,0.9-1.6,1.7-2.6,2.2c-1.2,0.5-2.5,0.8-3.8,0.8
	c-1.4,0-2.8-0.2-4.1-0.8c-1-0.4-2-1.1-2.6-2c-0.6-0.9-0.9-1.9-0.9-2.9c0-1.1,0.3-2.3,0.9-3.2c0.7-1,1.6-1.7,2.7-2.2
	c1.3-0.6,2.7-0.9,4.1-0.8c1.3,0,2.7,0.2,3.9,0.8c1,0.5,1.9,1.2,2.4,2.1c0.6,0.9,0.8,1.9,0.8,2.9C181.1,30.4,180.8,31.5,180.1,32.4
	L180.1,32.4z M171.7,25.1c-0.3,0.5-0.6,1.1-0.7,1.8c-0.1,0.9-0.1,1.8,0,2.7c0.1,0.9,0.3,1.9,0.7,2.7c0.2,0.6,0.6,1.2,1.1,1.7
	c0.4,0.4,0.9,0.6,1.4,0.5c0.7,0,1.2-0.5,1.6-1.4c0.4-1.2,0.5-2.4,0.2-3.7c-0.1-1.3-0.4-2.6-1.1-3.8c-0.4-0.7-1.2-1.2-2-1.2
	C172.5,24.4,172,24.6,171.7,25.1z M176.5,23.9c0.4-1,1-1.8,1.7-2.6c0.6-0.6,1.5-1,2.4-0.9c1.2-0.1,2.4,0.8,2.5,2c0,0.1,0,0.2,0,0.4
	c0,0.5-0.1,1.1-0.5,1.5c-0.3,0.4-0.8,0.6-1.3,0.5c-0.3,0-0.6-0.1-0.9-0.3c-0.2-0.2-0.5-0.4-0.6-0.6c-0.2-0.2-0.4-0.4-0.6-0.6
	c-0.2-0.2-0.4-0.3-0.7-0.3s-0.6,0.2-0.8,0.4c-0.3,0.4-0.6,0.8-0.7,1.2h-0.7L176.5,23.9z M187.3,13.7c0.8-0.1,1.7,0.2,2.3,0.7
	c0.5,0.5,0.8,1.2,0.7,1.9c0,0.3,0,0.7-0.1,1c0,0.4-0.1,0.8-0.2,1.1l-2.4,12.9c0,0.2-0.1,0.3-0.2,0.5c-0.1,0.1-0.2,0.1-0.4,0.1
	c-0.1,0-0.3,0-0.4-0.1c-0.1-0.1-0.2-0.3-0.2-0.5l-2.2-13c-0.1-0.4-0.2-0.8-0.2-1.1c0-0.3-0.1-0.6-0.1-1c0-0.7,0.3-1.3,0.8-1.8
	C185.6,13.9,186.5,13.6,187.3,13.7L187.3,13.7z M187.1,39.4c-0.5,0-1-0.1-1.5-0.4c-1.4-0.9-1.8-2.7-1-4.1c0.2-0.4,0.6-0.8,1-1.1
	s0.9-0.4,1.4-0.4s1.1,0.1,1.5,0.4c0.4,0.3,0.8,0.6,1,1.1c0.5,0.9,0.5,2.1,0,3c-0.2,0.5-0.6,0.8-1,1.1
	C188.2,39.3,187.6,39.4,187.1,39.4z"/>
</svg>
