<svg id="Layer_1" data-name="Layer 1" xmlns="http://www.w3.org/2000/svg" viewBox="0 0 101 101"><defs><style>.cls-1{fill:#fff;}.cls-2{fill:lime;}</style></defs><title>hero-stickers</title><circle class="cls-1" cx="50.5" cy="50.5" r="50.5"/><path class="cls-2" d="M39.5,46l4.86-17.1a5,5,0,0,0,.17-3,2.13,2.13,0,0,0-1.65-1.36l-1-.18a2.26,2.26,0,0,1-.65-.33.52.52,0,0,1-.18-.45.54.54,0,0,1,.26-.44,1.2,1.2,0,0,1,.73-.19h8.53a.9.9,0,0,1,.59.16.49.49,0,0,1,.2.4.61.61,0,0,1-.21.49,1.68,1.68,0,0,1-.66.33l-1.1.24a4.08,4.08,0,0,0-2,1.33A8,8,0,0,0,46,29L41.12,46.1q-1.5,5.35-4.57,7.82a12.48,12.48,0,0,1-8.06,2.46,11,11,0,0,1-5-1,6.83,6.83,0,0,1-3-2.74,7.93,7.93,0,0,1-1-4,18.13,18.13,0,0,1,.24-2.13c.14-.87.32-1.79.55-2.77s.45-1.89.67-2.74l4-14.84a1.6,1.6,0,0,0,0-1,1,1,0,0,0-.65-.58l-1.67-.28a2.29,2.29,0,0,1-.58-.3.47.47,0,0,1-.14-.42.49.49,0,0,1,.23-.43,1.15,1.15,0,0,1,.66-.16H33.94c.51,0,.77.18.77.54a.67.67,0,0,1-.19.47,1.24,1.24,0,0,1-.63.33l-1.83.33a1.34,1.34,0,0,0-.86.5,4,4,0,0,0-.55,1.23L26.7,41c-.51,1.94-.89,3.55-1.11,4.81A21.18,21.18,0,0,0,25.22,49a5.46,5.46,0,0,0,1.49,4.17,5.72,5.72,0,0,0,4.06,1.4,7.65,7.65,0,0,0,5.2-2Q38.24,50.56,39.5,46Z"/><path class="cls-2" d="M62.69,58.3a.52.52,0,0,1,.3.45,1.69,1.69,0,0,1-.28,1,15.88,15.88,0,0,1-3.35,4.87,13.46,13.46,0,0,1-4.55,2.93,15.11,15.11,0,0,1-5.51,1,11.29,11.29,0,0,1-6.41-1.8A10,10,0,0,1,39,61.41a17.69,17.69,0,0,1-.37-8.56,24.63,24.63,0,0,1,2.31-7.13,23.27,23.27,0,0,1,4.14-5.83A19,19,0,0,1,50.59,36,15.11,15.11,0,0,1,57,34.53a8.31,8.31,0,0,1,2.67.37,7.77,7.77,0,0,1,1.8.83,8.48,8.48,0,0,1,1.13.84,1.17,1.17,0,0,0,.69.38,1,1,0,0,0,.6-.36c.24-.25.5-.52.77-.83s.51-.58.75-.82a.93.93,0,0,1,.61-.36.68.68,0,0,1,.53.22.82.82,0,0,1,.17.62l0,8.6a.89.89,0,0,1-.25.59.76.76,0,0,1-.53.21,1,1,0,0,1-.87-.75l-.59-1.91a9.1,9.1,0,0,0-2.65-4.63,6.26,6.26,0,0,0-4.08-1.38,8.37,8.37,0,0,0-4.37,1.21,13.44,13.44,0,0,0-3.73,3.39,21.73,21.73,0,0,0-2.85,5.11,30.62,30.62,0,0,0-1.74,6.35,21.85,21.85,0,0,0-.15,7.94,7.4,7.4,0,0,0,2.47,4.43A6.74,6.74,0,0,0,51.67,66a9.27,9.27,0,0,0,3.54-.7A10.64,10.64,0,0,0,58.53,63,15.34,15.34,0,0,0,61.42,59a2.72,2.72,0,0,1,.68-.58A.7.7,0,0,1,62.69,58.3Z"/><path class="cls-2" d="M64.72,47a20.2,20.2,0,0,1,2.85.24c1.09.17,2.23.37,3.4.62s2.31.51,3.42.77,2.09.47,3,.64a10.49,10.49,0,0,0,2,.26,2.41,2.41,0,0,0,1.28-.28,1.32,1.32,0,0,0,.6-.87,2.66,2.66,0,0,0,.06-1,6.08,6.08,0,0,1,0-1.21A2.6,2.6,0,0,1,82,44.7a2.12,2.12,0,0,1,1.57-.57,1.86,1.86,0,0,1,1.44.64,2.72,2.72,0,0,1,.58,1.89,4.11,4.11,0,0,1-1.41,3.22,5.2,5.2,0,0,1-3.56,1.22,15.06,15.06,0,0,1-2.6-.29c-1-.2-2.17-.43-3.38-.71L71,49.27c-1.22-.28-2.36-.52-3.41-.72a15.37,15.37,0,0,0-2.65-.29,4.46,4.46,0,0,0-2.61.62,2.16,2.16,0,0,0-.89,1.73,2.86,2.86,0,0,0,.13,1.28c.13.35.27.7.41,1a2.87,2.87,0,0,1,.19,1.15,2.08,2.08,0,0,1-.64,1.47,2.19,2.19,0,0,1-1.62.6,2.26,2.26,0,0,1-1.85-1,3.68,3.68,0,0,1-.54-2.57,5.84,5.84,0,0,1,1-2.84,5.68,5.68,0,0,1,2.42-2A9.29,9.29,0,0,1,64.72,47Zm2.63,30.52a1.3,1.3,0,0,0,0,.92.93.93,0,0,0,.65.4l1.94.3c.43.14.63.35.62.61a.61.61,0,0,1-.31.52,1.44,1.44,0,0,1-.73.16H58.5a1,1,0,0,1-.64-.16.44.44,0,0,1-.18-.42.55.55,0,0,1,.22-.48,1.39,1.39,0,0,1,.55-.25l1.88-.31a1.35,1.35,0,0,0,.8-.44,3.78,3.78,0,0,0,.57-1.06c.18-.67.44-1.61.77-2.82s.7-2.58,1.13-4.12.87-3.17,1.36-4.88,1-3.44,1.44-5.18.93-3.39,1.37-4.94.81-3,1.13-4.21.58-2.22.76-2.94l5.33,1q-.31,1.13-.81,3c-.34,1.23-.72,2.61-1.14,4.15s-.87,3.15-1.33,4.84-.92,3.37-1.37,5-.88,3.26-1.27,4.74-.74,2.78-1,3.92S67.51,77,67.35,77.54Z"/></svg>