<svg xmlns="http://www.w3.org/2000/svg" viewBox="0 0 125 125"><circle cx="62.5" cy="62.5" r="62.5" fill="#0f0"/><path d="M65.63 19.84l3.94.61a.55.55 0 0 1 .3.94L67 24.15a.53.53 0 0 0-.16.48l.64 3.94a.54.54 0 0 1-.8.56l-3.51-1.89a.57.57 0 0 0-.51 0l-3.55 1.82a.54.54 0 0 1-.78-.58l.67-3.93a.57.57 0 0 0-.15-.48L56 21.26a.55.55 0 0 1 .31-.93l4-.54a.52.52 0 0 0 .41-.29l1.8-3.56a.55.55 0 0 1 1 0l1.73 3.59a.53.53 0 0 0 .38.31zm-21.14 9.52l3.95.62a.54.54 0 0 1 .29.93l-2.88 2.76a.53.53 0 0 0-.16.48l.63 3.94a.54.54 0 0 1-.79.56L42 36.76a.55.55 0 0 0-.5 0L38 38.58a.54.54 0 0 1-.79-.58l.71-3.92a.55.55 0 0 0-.15-.49l-2.87-2.81a.55.55 0 0 1 .31-.93l3.95-.53a.59.59 0 0 0 .42-.3l1.79-3.56a.55.55 0 0 1 1 0l1.74 3.59a.52.52 0 0 0 .38.31zm42.28 0l3.94.62a.54.54 0 0 1 .29.93l-2.88 2.76a.53.53 0 0 0-.16.48l.64 3.94a.54.54 0 0 1-.8.56l-3.51-1.89a.57.57 0 0 0-.51 0l-3.55 1.82a.55.55 0 0 1-.79-.58l.71-3.92a.53.53 0 0 0-.15-.49l-2.83-2.81a.55.55 0 0 1 .31-.93l4-.53a.57.57 0 0 0 .41-.3l1.8-3.56a.55.55 0 0 1 1 0l1.73 3.59a.53.53 0 0 0 .35.31zm-21.14 74.46l3.94-.61a.55.55 0 0 0 .3-.93L67 99.52a.53.53 0 0 1-.16-.48l.64-3.94a.55.55 0 0 0-.8-.57l-3.51 1.89a.54.54 0 0 1-.51 0l-3.55-1.82a.54.54 0 0 0-.78.58l.67 3.93a.58.58 0 0 1-.15.49L56 102.41a.55.55 0 0 0 .31.93l4 .53a.56.56 0 0 1 .41.3l1.8 3.56a.55.55 0 0 0 1 0l1.73-3.59a.54.54 0 0 1 .38-.32zM44.49 94.3l3.95-.61a.54.54 0 0 0 .29-.93L45.85 90a.53.53 0 0 1-.16-.48l.63-3.94a.54.54 0 0 0-.79-.57L42 86.9a.52.52 0 0 1-.5 0L38 85.08a.55.55 0 0 0-.79.59l.71 3.92a.55.55 0 0 1-.15.49l-2.87 2.81a.55.55 0 0 0 .31.93l3.95.53a.59.59 0 0 1 .42.3l1.79 3.56a.55.55 0 0 0 1 0l1.74-3.6a.54.54 0 0 1 .38-.31zm42.28 0l3.94-.61a.54.54 0 0 0 .29-.93L88.12 90a.53.53 0 0 1-.16-.48l.64-3.94a.55.55 0 0 0-.8-.57l-3.51 1.89a.54.54 0 0 1-.51 0l-3.55-1.83a.55.55 0 0 0-.79.59l.71 3.92a.53.53 0 0 1-.15.49l-2.83 2.81a.55.55 0 0 0 .31.93l4 .53a.57.57 0 0 1 .41.3l1.8 3.56a.55.55 0 0 0 1 0l1.73-3.6a.56.56 0 0 1 .35-.3z" fill="#fff"/><path d="M14 70.34a6.2 6.2 0 0 1-1.87-.24 4.57 4.57 0 0 1-1.21-.56 6.4 6.4 0 0 1-.7-.57c-.17-.17-.3-.25-.39-.25a1 1 0 0 0-.47.21c-.21.15-.45.31-.7.5a8.4 8.4 0 0 1-.72.49 1.09 1.09 0 0 1-.55.22.55.55 0 0 1-.45-.14.73.73 0 0 1-.11-.54l1-5.22a1.32 1.32 0 0 1 .17-.67.52.52 0 0 1 .43-.21.55.55 0 0 1 .43.18 2.37 2.37 0 0 1 .31.57l.53 2.35a3.55 3.55 0 0 0 1.17 2 3 3 0 0 0 1.89.66 2.4 2.4 0 0 0 1-.19 1.67 1.67 0 0 0 .72-.57 2.51 2.51 0 0 0 .39-.91 3 3 0 0 0-.3-2.09 6 6 0 0 0-2.15-2 7.72 7.72 0 0 1-2.62-2.6 5 5 0 0 1-.56-3.07 5.77 5.77 0 0 1 1.13-2.9 6.82 6.82 0 0 1 2.69-2.09 9.85 9.85 0 0 1 4.09-.78 7.54 7.54 0 0 1 3.31.63 4.37 4.37 0 0 1 1.89 1.62 3.49 3.49 0 0 1 .53 2.08 2.7 2.7 0 0 1-.57 1.61 1.68 1.68 0 0 1-1.37.63 1.34 1.34 0 0 1-1-.42 3.13 3.13 0 0 1-.65-1.36L19 55.35a4 4 0 0 0-.83-1.83 1.73 1.73 0 0 0-1.35-.52 2.29 2.29 0 0 0-1.23.33 2.65 2.65 0 0 0-.87.89 3.39 3.39 0 0 0-.42 1.23 3.45 3.45 0 0 0 .33 2.13 6.57 6.57 0 0 0 2 2 13.42 13.42 0 0 1 2.54 2.24 5.17 5.17 0 0 1 1.13 2.08 5.43 5.43 0 0 1 .04 2.1 4.31 4.31 0 0 1-1 2.24 5.87 5.87 0 0 1-2.22 1.53 8.11 8.11 0 0 1-3.12.57zm26.56-12.12a6.36 6.36 0 0 1-1.47 3.24 7.46 7.46 0 0 1-3 2.08 10.81 10.81 0 0 1-4 .72 8.7 8.7 0 0 1-2-.18 9.12 9.12 0 0 1-1.44-.5l.36-1a4.56 4.56 0 0 0 1.13.46 4.79 4.79 0 0 0 1.06.12 3.36 3.36 0 0 0 2.62-1.28 8.25 8.25 0 0 0 1.62-4 8 8 0 0 0 .15-2.66 2.65 2.65 0 0 0-.64-1.44 1.43 1.43 0 0 0-1-.45 1.37 1.37 0 0 0-1 .35 2.43 2.43 0 0 0-.59 1.08 8 8 0 0 0-.24.85c-.12.48-.28 1.09-.46 1.82s-.4 1.53-.62 2.4-.46 1.74-.68 2.62-.43 1.71-.64 2.49-.38 1.44-.52 2-.23.94-.28 1.13a.76.76 0 0 0 0 .48.38.38 0 0 0 .28.22l1.42.18a.58.58 0 0 1 .32.17.5.5 0 0 1 .1.31.49.49 0 0 1-.19.41.77.77 0 0 1-.54.16h-8.13c-.25 0-.42 0-.5-.14a.49.49 0 0 1-.12-.34.48.48 0 0 1 .14-.36.72.72 0 0 1 .3-.16l.76-.17a.65.65 0 0 0 .39-.24 1.34 1.34 0 0 0 .21-.48c.05-.19.16-.56.32-1.14s.34-1.26.56-2.08l.76-2.61c.25-.93.49-1.85.74-2.76s.46-1.76.66-2.54l.5-1.93c.13-.51.21-.82.23-.92a.57.57 0 0 0 0-.45.54.54 0 0 0-.33-.21l-.8-.15a.86.86 0 0 1-.29-.19.41.41 0 0 1-.09-.28.5.5 0 0 1 .19-.42.81.81 0 0 1 .52-.15h8.5a7.68 7.68 0 0 1 2.63.42 5.11 5.11 0 0 1 1.93 1.2 4.31 4.31 0 0 1 1.08 1.88 5.49 5.49 0 0 1 .09 2.44zm8.95 11.83h-9.28a.64.64 0 0 1-.47-.13.51.51 0 0 1-.12-.35.53.53 0 0 1 .12-.35.83.83 0 0 1 .33-.22l.79-.15a.7.7 0 0 0 .37-.28 3.18 3.18 0 0 0 .25-.57l.26-.94.52-1.93c.21-.77.43-1.61.67-2.51s.47-1.81.72-2.71l.67-2.54c.22-.79.39-1.45.53-2l.25-1a1.13 1.13 0 0 0 0-.64.46.46 0 0 0-.35-.26l-.73-.15a1.13 1.13 0 0 1-.26-.16.44.44 0 0 1-.11-.32.5.5 0 0 1 .18-.4.75.75 0 0 1 .53-.16H55a3.08 3.08 0 0 0 1.23-.2 1.79 1.79 0 0 1 .76-.21c.37 0 .58.22.64.64l-.06 4.75a.68.68 0 0 1-.07.51.48.48 0 0 1-.37.21.64.64 0 0 1-.47-.11 1.23 1.23 0 0 1-.37-.58 12.18 12.18 0 0 0-.89-2.5 2.7 2.7 0 0 0-1.08-1.19 3.35 3.35 0 0 0-1.57-.33h-1.89c0 .15-.16.51-.31 1.07s-.33 1.25-.55 2.08-.45 1.72-.71 2.69-.52 1.89-.77 2.89-.49 1.87-.7 2.7-.39 1.53-.53 2.1L47 67.88a1.89 1.89 0 0 0 0 .69.5.5 0 0 0 .26.38 1.41 1.41 0 0 0 .61.11h1.22a4.23 4.23 0 0 0 1.83-.39 5.09 5.09 0 0 0 1.67-1.32 16.85 16.85 0 0 0 1.83-2.58c.24-.4.49-.6.73-.6s.52.24.5.7a13.11 13.11 0 0 1-.38 2.48 5.6 5.6 0 0 1-.74 1.72 2.81 2.81 0 0 1-1.11 1 3.42 3.42 0 0 1-1.51.32 3.86 3.86 0 0 1-1.13-.16 4.74 4.74 0 0 0-1.27-.18zm-2.39-9.85h3.22a2.72 2.72 0 0 0 1.53-.46 2.76 2.76 0 0 0 1-1.63.76.76 0 0 1 .24-.3.44.44 0 0 1 .28-.1.46.46 0 0 1 .38.15.87.87 0 0 1 .16.39l.43 4.75a.8.8 0 0 1-.09.57.56.56 0 0 1-.4.2.52.52 0 0 1-.33-.11.74.74 0 0 1-.23-.31 3.83 3.83 0 0 0-1.14-1.62 3.19 3.19 0 0 0-2-.52h-3.38zM72.34 64a.46.46 0 0 1 .24.32 1.1 1.1 0 0 1-.19.73 9.87 9.87 0 0 1-2 3 7.48 7.48 0 0 1-2.67 1.76 8.77 8.77 0 0 1-3.19.57 7.17 7.17 0 0 1-3.88-1 5.66 5.66 0 0 1-2.32-3 9.24 9.24 0 0 1-.12-4.84 12.65 12.65 0 0 1 1.39-3.9 11.78 11.78 0 0 1 2.37-3 10.3 10.3 0 0 1 3-1.93 9.09 9.09 0 0 1 3.49-.71 5 5 0 0 1 1.5.2 4.42 4.42 0 0 1 1 .48c.28.18.5.34.68.47a.74.74 0 0 0 .42.21.93.93 0 0 0 .48-.2 7.29 7.29 0 0 0 .61-.45l.6-.46a.91.91 0 0 1 .46-.2.51.51 0 0 1 .4.16.58.58 0 0 1 .12.42l-.36 5.54a.62.62 0 0 1-.18.45.61.61 0 0 1-.41.15.69.69 0 0 1-.66-.58l-.21-.67a7.79 7.79 0 0 0-1.47-3.18 2.62 2.62 0 0 0-2-.93 2.9 2.9 0 0 0-1.56.48 5.4 5.4 0 0 0-1.42 1.41 10.53 10.53 0 0 0-1.19 2.28 18.14 18.14 0 0 0-.88 3.13 14 14 0 0 0-.3 4.29 3.57 3.57 0 0 0 1 2.28 2.68 2.68 0 0 0 1.87.68 3.68 3.68 0 0 0 1.49-.34 5.14 5.14 0 0 0 1.55-1.1 9.41 9.41 0 0 0 1.44-2.08 2.51 2.51 0 0 1 .51-.44.5.5 0 0 1 .39 0zm8.2 4.25a.43.43 0 0 0 0 .39.51.51 0 0 0 .33.22l.7.15a.7.7 0 0 1 .32.19.37.37 0 0 1 .1.28.51.51 0 0 1-.18.41.81.81 0 0 1-.54.16h-7.41a.64.64 0 0 1-.49-.14.45.45 0 0 1-.13-.34.53.53 0 0 1 .15-.36.75.75 0 0 1 .32-.21l.77-.17a.67.67 0 0 0 .36-.22 1.43 1.43 0 0 0 .24-.51c.06-.2.16-.57.31-1.12s.34-1.22.55-2l.68-2.55c.24-.9.48-1.81.71-2.71l.67-2.53c.21-.78.38-1.44.52-2l.27-1.05a.72.72 0 0 0 0-.45.5.5 0 0 0-.36-.24l-.71-.15a.65.65 0 0 1-.3-.2.4.4 0 0 1-.09-.27.51.51 0 0 1 .18-.41.76.76 0 0 1 .53-.16h7.4a.64.64 0 0 1 .47.14.5.5 0 0 1 .12.34.56.56 0 0 1-.12.36.72.72 0 0 1-.33.21l-.78.17a.61.61 0 0 0-.35.21 2.65 2.65 0 0 0-.24.54c-.06.16-.17.52-.32 1.09s-.34 1.26-.55 2.07-.45 1.68-.69 2.62l-.72 2.79c-.23.93-.45 1.78-.65 2.57s-.36 1.43-.48 1.94-.24.84-.26.94zm7.13-2.37a2.44 2.44 0 0 0-.48 1.9 1.61 1.61 0 0 0 1.14 1.09l.41.17a.62.62 0 0 1 .27.19.45.45 0 0 1 .08.26.51.51 0 0 1-.18.41.81.81 0 0 1-.52.15h-4.77a.75.75 0 0 1-.45-.12.41.41 0 0 1-.16-.35.6.6 0 0 1 .15-.39 1.94 1.94 0 0 1 .56-.42A5.14 5.14 0 0 0 85 67.59a16.33 16.33 0 0 0 1.43-2l5.32-8.65a11.71 11.71 0 0 1 3.57-3.74 7.81 7.81 0 0 1 4.21-1.2 1.55 1.55 0 0 1 .84.17.49.49 0 0 1 .24.42.58.58 0 0 1-.36.52 1.78 1.78 0 0 0-1 .58 2.11 2.11 0 0 0-.38 1.27v12.4a5.79 5.79 0 0 0 0 .8.86.86 0 0 0 .25.49 2 2 0 0 0 .62.36.6.6 0 0 1 .36.5.48.48 0 0 1-.19.4.82.82 0 0 1-.55.16H92.1a.55.55 0 0 1-.45-.14.51.51 0 0 1-.12-.35.45.45 0 0 1 .13-.36 1.16 1.16 0 0 1 .42-.24l.68-.11a.79.79 0 0 0 .51-.47 2.14 2.14 0 0 0 .18-.85v-1.13c0-.5 0-1.06.06-1.69s0-1.31.06-2 .05-1.43.07-2.15 0-1.42.06-2.09 0-1.27 0-1.82v-1.32l.75.16a2 2 0 0 0-.39.26 3.65 3.65 0 0 0-.56.62c-.21.28-.49.69-.83 1.22zm.11-1.39l.23-1h6.9l-.07 1zm22.38 5.56h-8.55a.63.63 0 0 1-.47-.13.48.48 0 0 1-.13-.35.49.49 0 0 1 .13-.35.75.75 0 0 1 .34-.22l.76-.15a.73.73 0 0 0 .39-.28 3.46 3.46 0 0 0 .25-.56c0-.15.14-.49.28-1l.55-2c.22-.79.45-1.65.69-2.57s.49-1.83.73-2.74.46-1.76.67-2.54.37-1.44.51-2 .22-.86.25-1a.73.73 0 0 0 0-.48.52.52 0 0 0-.34-.23l-.74-.16a.9.9 0 0 1-.26-.17.41.41 0 0 1-.1-.29.53.53 0 0 1 .17-.41.77.77 0 0 1 .54-.16h7.39a.63.63 0 0 1 .47.13.51.51 0 0 1 .12.35.54.54 0 0 1-.12.36.81.81 0 0 1-.32.21l-.79.17a.62.62 0 0 0-.35.22 1.39 1.39 0 0 0-.23.53c-.09.23-.21.63-.37 1.2s-.34 1.25-.55 2-.42 1.61-.64 2.48-.46 1.74-.68 2.6-.42 1.65-.6 2.38-.33 1.34-.44 1.83-.19.79-.23.91a1.4 1.4 0 0 0 .06 1.08 1 1 0 0 0 .79.29h.66a3.13 3.13 0 0 0 1.57-.42 5.82 5.82 0 0 0 1.59-1.47 26.9 26.9 0 0 0 2-2.91 1.73 1.73 0 0 1 .39-.52.64.64 0 0 1 .39-.14.44.44 0 0 1 .4.19 1 1 0 0 1 .11.52 15.53 15.53 0 0 1-.44 2.75 6.08 6.08 0 0 1-.8 1.88 3.17 3.17 0 0 1-3.37 1.37l-.71-.17a4.66 4.66 0 0 0-.97-.03z"/></svg>