<svg id="Layer_1" data-name="Layer 1" xmlns="http://www.w3.org/2000/svg" viewBox="0 0 175 71.02"><defs><style>.cls-1{fill:#fff;}.cls-2{fill:lime;}.cls-3{fill:#1f191a;}</style></defs><title>hero-stickers</title><rect class="cls-1" width="175" height="71.02" rx="5.67"/><path class="cls-2" d="M14.52,12.16h9.26a.34.34,0,0,0,.27-.15l.28-.3a.4.4,0,0,1,.32-.16.35.35,0,0,1,.25.09.5.5,0,0,1,.14.27L26,15.74a.54.54,0,0,1,0,.34.25.25,0,0,1-.2.14.27.27,0,0,1-.25-.07.79.79,0,0,1-.2-.31,16.77,16.77,0,0,0-.62-1.59,3.33,3.33,0,0,0-.57-.91,1.51,1.51,0,0,0-.65-.42,2.9,2.9,0,0,0-.83-.1H19.55V28.58a.86.86,0,0,0,.87.93l1.37.13c.31,0,.47.15.47.34s-.14.3-.41.3H16.41a.51.51,0,0,1-.3-.08A.26.26,0,0,1,16,30c0-.19.15-.3.46-.34l1.36-.13a.85.85,0,0,0,.61-.27.92.92,0,0,0,.22-.66V12.82H15.47a2.35,2.35,0,0,0-1,.19,1.84,1.84,0,0,0-.74.84,12.85,12.85,0,0,0-.78,2,.92.92,0,0,1-.2.31.26.26,0,0,1-.24.07.25.25,0,0,1-.22-.14.49.49,0,0,1,0-.34l.89-3.84a.51.51,0,0,1,.15-.27.37.37,0,0,1,.25-.09.46.46,0,0,1,.34.15c.1.11.2.21.29.32A.46.46,0,0,0,14.52,12.16Z"/><path class="cls-2" d="M29,19.24v9.59a.72.72,0,0,0,.16.49.77.77,0,0,0,.53.23l1.12.13a.52.52,0,0,1,.31.1.25.25,0,0,1,.11.23.25.25,0,0,1-.09.2.62.62,0,0,1-.31.07H26.82a.49.49,0,0,1-.3-.07.21.21,0,0,1-.1-.2.28.28,0,0,1,.11-.22,1,1,0,0,1,.32-.12l.69-.1a1,1,0,0,0,.53-.25.69.69,0,0,0,.18-.51V20.53a.68.68,0,0,0-.13-.44.54.54,0,0,0-.4-.14H26.56a.46.46,0,0,1-.29-.08.26.26,0,0,1-.09-.19.26.26,0,0,1,.09-.21.66.66,0,0,1,.28-.15l1.32-.38.42-.13a1.28,1.28,0,0,1,.28,0,.42.42,0,0,1,.34.13A.46.46,0,0,1,29,19.24Zm-.47,4.46A6.58,6.58,0,0,1,29.1,21a4.42,4.42,0,0,1,1.37-1.76,3,3,0,0,1,1.78-.61,2,2,0,0,1,1.48.51,1.76,1.76,0,0,1,.53,1.34.93.93,0,0,1-.16.58.5.5,0,0,1-.43.22.48.48,0,0,1-.42-.2.92.92,0,0,1-.15-.57v-.32a.81.81,0,0,0-.27-.68,1.14,1.14,0,0,0-.74-.21,2.39,2.39,0,0,0-1.46.53,3.85,3.85,0,0,0-1.15,1.57A6.66,6.66,0,0,0,29,23.92Z"/><path class="cls-2" d="M44.86,27.4l.42.42-.66.61A10.46,10.46,0,0,1,42.45,30a4.64,4.64,0,0,1-2.13.56A3.15,3.15,0,0,1,37,27.18V20.55a.67.67,0,0,0-.12-.45.5.5,0,0,0-.39-.14H35.36a.43.43,0,0,1-.3-.08.26.26,0,0,1,0-.41.6.6,0,0,1,.29-.14l1.33-.39.4-.13a1.26,1.26,0,0,1,.29,0,.45.45,0,0,1,.33.12.51.51,0,0,1,.12.37V27a3,3,0,0,0,.73,2.19,2.5,2.5,0,0,0,1.87.75,4.19,4.19,0,0,0,1.79-.47,8.34,8.34,0,0,0,2.07-1.5Zm-.31,2V20.55a.62.62,0,0,0-.13-.45A.5.5,0,0,0,44,20H42.87a.4.4,0,0,1-.29-.08.26.26,0,0,1-.1-.21.26.26,0,0,1,.1-.2.6.6,0,0,1,.29-.14l1.33-.39.4-.13a1.18,1.18,0,0,1,.29,0,.45.45,0,0,1,.33.12.51.51,0,0,1,.12.37v9.58a.68.68,0,0,0,.18.48,1,1,0,0,0,.53.26l.68.11a.63.63,0,0,1,.32.11.25.25,0,0,1,.1.22.23.23,0,0,1-.1.2.6.6,0,0,1-.3.07H45.32a.87.87,0,0,1-.61-.16A1,1,0,0,1,44.55,29.44Z"/><path class="cls-2" d="M53.44,29.82a2.32,2.32,0,0,0,1.67-.59,2,2,0,0,0,.64-1.54,2,2,0,0,0-.36-1.2,3.07,3.07,0,0,0-1.07-.85A10.71,10.71,0,0,0,52.56,25a9.15,9.15,0,0,1-1.91-.77,3.61,3.61,0,0,1-1.27-1.09,2.56,2.56,0,0,1-.45-1.53,2.85,2.85,0,0,1,.9-2.1,3.7,3.7,0,0,1,2.65-.88,4.79,4.79,0,0,1,1.3.15,5.82,5.82,0,0,1,.83.3,1.29,1.29,0,0,0,.49.15.18.18,0,0,0,.17-.15,1.45,1.45,0,0,1,.11-.31.26.26,0,0,1,.27-.16.4.4,0,0,1,.28.1,1.12,1.12,0,0,1,.22.36L57,21.53a.8.8,0,0,1,.08.41.19.19,0,0,1-.17.18.3.3,0,0,1-.27,0,.61.61,0,0,1-.24-.28,4.27,4.27,0,0,0-1-1.46A3.79,3.79,0,0,0,54,19.52a4.79,4.79,0,0,0-1.57-.26,2.9,2.9,0,0,0-2.09.64,2.12,2.12,0,0,0-.64,1.58,1.83,1.83,0,0,0,.4,1.18,3.26,3.26,0,0,0,1.13.89,10.62,10.62,0,0,0,1.78.71A9.26,9.26,0,0,1,55,25a3.38,3.38,0,0,1,1.2,1.06,2.77,2.77,0,0,1,.41,1.53,2.81,2.81,0,0,1-.37,1.44,2.61,2.61,0,0,1-1.08,1.05,3.64,3.64,0,0,1-1.72.38,4.18,4.18,0,0,1-1.4-.19,3.54,3.54,0,0,1-.8-.38.9.9,0,0,0-.38-.18.2.2,0,0,0-.2.18l-.09.38a.23.23,0,0,1-.25.19.37.37,0,0,1-.23-.07.41.41,0,0,1-.14-.26l-.59-2.5a4.25,4.25,0,0,1-.09-.54.2.2,0,0,1,.15-.25.25.25,0,0,1,.28.05.92.92,0,0,1,.26.44,3.68,3.68,0,0,0,1.35,1.86A3.78,3.78,0,0,0,53.44,29.82Z"/><path class="cls-2" d="M59.59,19.51l-.91-.09a.38.38,0,0,1-.31-.13.37.37,0,0,1-.09-.23.25.25,0,0,1,.08-.17.34.34,0,0,1,.25-.08h.81a.86.86,0,0,0,.47-.11.68.68,0,0,0,.2-.45l.25-1.57a.47.47,0,0,1,.14-.29.32.32,0,0,1,.23-.1.27.27,0,0,1,.22.1.46.46,0,0,1,.08.27V28.18a1.6,1.6,0,0,0,.4,1.16,1.33,1.33,0,0,0,1,.42,1.75,1.75,0,0,0,.61-.09,1.39,1.39,0,0,0,.4-.22c.11-.09.2-.16.27-.23s.14-.09.19-.08a.26.26,0,0,1,.21.09.28.28,0,0,1,0,.28.78.78,0,0,1-.27.42,2.05,2.05,0,0,1-.64.39,2.54,2.54,0,0,1-.9.15,2.13,2.13,0,0,1-1.53-.58,2.3,2.3,0,0,1-.61-1.72V20.34a1,1,0,0,0-.13-.57A.65.65,0,0,0,59.59,19.51Zm.61-.05v-.65h3.52a.58.58,0,0,1,.33.07.23.23,0,0,1,.11.22.28.28,0,0,1-.16.26.83.83,0,0,1-.46.1Z"/><path class="cls-2" d="M73.89,19.24v9.59a.64.64,0,0,0,.17.48.88.88,0,0,0,.53.26l.68.11c.28.05.42.15.42.33s-.13.27-.39.27H71.67a.6.6,0,0,1-.3-.07.26.26,0,0,1-.1-.2.25.25,0,0,1,.11-.21,1,1,0,0,1,.32-.13l.69-.1a1.05,1.05,0,0,0,.53-.26.65.65,0,0,0,.18-.5V20.53a.63.63,0,0,0-.13-.44.54.54,0,0,0-.4-.14H71.42a.47.47,0,0,1-.3-.08.26.26,0,0,1-.09-.19.26.26,0,0,1,.09-.21.66.66,0,0,1,.28-.15l1.32-.38.42-.13a1.28,1.28,0,0,1,.28,0,.42.42,0,0,1,.34.13A.46.46,0,0,1,73.89,19.24Zm-.31,2.51-.42-.43.65-.61A10.29,10.29,0,0,1,76,19.14a4.69,4.69,0,0,1,2.15-.56,3.32,3.32,0,0,1,2.38.9A3.28,3.28,0,0,1,81.47,22v6.85a.72.72,0,0,0,.17.5.91.91,0,0,0,.53.24l.67.12c.29,0,.43.16.43.34s-.13.27-.4.27H79.25q-.39,0-.39-.27c0-.18.14-.28.42-.33l.68-.11a1,1,0,0,0,.54-.26.69.69,0,0,0,.17-.5V22.18A3,3,0,0,0,79.94,20a2.53,2.53,0,0,0-1.89-.75,4.23,4.23,0,0,0-1.8.47,8.88,8.88,0,0,0-2.09,1.5Zm7.61-.22-.4-.43.6-.55a10.34,10.34,0,0,1,2-1.45,4,4,0,0,1,1.92-.52,2.87,2.87,0,0,1,2.19.83,4.28,4.28,0,0,1,1,2.42l1,7a.91.91,0,0,0,.19.5.71.71,0,0,0,.52.24l.66.12a.74.74,0,0,1,.33.12.25.25,0,0,1,.11.22.23.23,0,0,1-.1.2.65.65,0,0,1-.31.07h-3.6c-.27,0-.4-.09-.4-.27s.14-.28.41-.33l.69-.11a1.13,1.13,0,0,0,.55-.25.61.61,0,0,0,.15-.51l-1-6.75a4.23,4.23,0,0,0-.79-2.13,2.12,2.12,0,0,0-1.69-.69,3.53,3.53,0,0,0-1.56.41A8.37,8.37,0,0,0,81.72,21Z"/><path class="cls-2" d="M102,23a1,1,0,0,1-.3.82,1.35,1.35,0,0,1-.89.26h-8v-.67h7.48c.49,0,.74-.22.74-.65a3.51,3.51,0,0,0-.93-2.46,3.24,3.24,0,0,0-2.5-1,3.93,3.93,0,0,0-2.26.67,4.45,4.45,0,0,0-1.52,1.86,6.3,6.3,0,0,0-.54,2.67,5.62,5.62,0,0,0,1.25,3.91,4.14,4.14,0,0,0,3.22,1.4,3.78,3.78,0,0,0,2.56-.82,3.65,3.65,0,0,0,1.2-1.79.63.63,0,0,1,.12-.26.26.26,0,0,1,.19-.08.24.24,0,0,1,.22.12.42.42,0,0,1,0,.25,3.67,3.67,0,0,1-.7,1.63,4.28,4.28,0,0,1-1.52,1.25,4.86,4.86,0,0,1-2.21.48,5.15,5.15,0,0,1-2.81-.75,5,5,0,0,1-1.81-2.09,7,7,0,0,1-.63-3.05,7,7,0,0,1,.67-3.1A5.3,5.3,0,0,1,95,19.39a4.89,4.89,0,0,1,2.76-.8,4.27,4.27,0,0,1,2.17.55,4.06,4.06,0,0,1,1.53,1.52A4.65,4.65,0,0,1,102,23Z"/><path class="cls-2" d="M105,30.21a.89.89,0,0,1-.67-.27.94.94,0,0,1-.26-.67,1,1,0,0,1,.28-.72,1,1,0,0,1,.73-.28,1.12,1.12,0,0,1,.88.43,2.22,2.22,0,0,1,.38,1.47,5.47,5.47,0,0,1-.21,1.61,3.77,3.77,0,0,1-.53,1.14,3.41,3.41,0,0,1-.69.72,3.67,3.67,0,0,1-.67.38.48.48,0,0,1-.26,0,.17.17,0,0,1-.15-.14.3.3,0,0,1,0-.26.61.61,0,0,1,.31-.19,2.48,2.48,0,0,0,.77-.62,3.26,3.26,0,0,0,.54-.95,3.43,3.43,0,0,0,.2-1.15.56.56,0,0,0-.12-.41.54.54,0,0,0-.38-.11Z"/><path class="cls-2" d="M116.49,28.58a.85.85,0,0,0,.23.63,1.27,1.27,0,0,0,.66.3l.8.13c.31.06.46.18.46.34a.29.29,0,0,1-.1.22.48.48,0,0,1-.29.08h-4.39a.47.47,0,0,1-.28-.08.27.27,0,0,1-.11-.22c0-.16.15-.28.46-.34l.79-.13a1.26,1.26,0,0,0,.67-.3.85.85,0,0,0,.23-.63V13.84a.84.84,0,0,0-.22-.62,1.05,1.05,0,0,0-.62-.28l-.85-.15c-.31-.06-.46-.17-.46-.33a.26.26,0,0,1,.11-.23.47.47,0,0,1,.28-.07h4.39a.48.48,0,0,1,.29.07.28.28,0,0,1,.1.23c0,.16-.15.27-.46.33l-.86.15a1,1,0,0,0-.61.28.84.84,0,0,0-.22.62Z"/><path class="cls-2" d="M121,13.08a.8.8,0,0,1-.64-.28,1,1,0,0,1-.24-.67.93.93,0,0,1,.29-.7,1,1,0,0,1,.71-.28,1,1,0,0,1,.85.46,2.65,2.65,0,0,1,.35,1.59,3.92,3.92,0,0,1-.22,1.36,2.78,2.78,0,0,1-.64,1,2.36,2.36,0,0,1-1,.57.55.55,0,0,1-.3,0,.27.27,0,0,1-.17-.16.29.29,0,0,1,0-.22.41.41,0,0,1,.23-.16,1.83,1.83,0,0,0,.74-.45,2.26,2.26,0,0,0,.48-.73,2.16,2.16,0,0,0,.18-.88.62.62,0,0,0-.09-.39.37.37,0,0,0-.29-.11Z"/><path class="cls-2" d="M126.13,19.24v9.59a.64.64,0,0,0,.17.48.92.92,0,0,0,.53.26l.68.11c.28.05.42.15.42.33s-.13.27-.39.27h-3.62a.62.62,0,0,1-.31-.07.26.26,0,0,1-.1-.2.25.25,0,0,1,.11-.21,1,1,0,0,1,.32-.13l.69-.1a1.05,1.05,0,0,0,.53-.26.65.65,0,0,0,.18-.5V20.53a.63.63,0,0,0-.13-.44.54.54,0,0,0-.4-.14h-1.15a.47.47,0,0,1-.3-.08.26.26,0,0,1-.09-.19.26.26,0,0,1,.09-.21.66.66,0,0,1,.28-.15l1.32-.38.42-.13a1.28,1.28,0,0,1,.28,0,.46.46,0,0,1,.35.13A.5.5,0,0,1,126.13,19.24Zm-.31,2.51-.42-.43.65-.61a10.29,10.29,0,0,1,2.19-1.57,4.69,4.69,0,0,1,2.15-.56,3.32,3.32,0,0,1,2.38.9,3.28,3.28,0,0,1,.94,2.48v6.85a.72.72,0,0,0,.17.5.91.91,0,0,0,.53.24l.67.12c.29,0,.43.16.43.34s-.13.27-.4.27h-3.62q-.39,0-.39-.27c0-.18.14-.28.42-.33l.68-.11a1,1,0,0,0,.54-.26.69.69,0,0,0,.17-.5V22.18a3,3,0,0,0-.73-2.19,2.52,2.52,0,0,0-1.88-.75,4.24,4.24,0,0,0-1.81.47,8.88,8.88,0,0,0-2.09,1.5Zm7.61-.22-.4-.43.6-.55a10.34,10.34,0,0,1,2-1.45,4,4,0,0,1,1.92-.52,2.87,2.87,0,0,1,2.19.83,4.28,4.28,0,0,1,1,2.42l1,7a1,1,0,0,0,.19.5.73.73,0,0,0,.52.24l.66.12a.74.74,0,0,1,.33.12.25.25,0,0,1,.11.22.23.23,0,0,1-.1.2.65.65,0,0,1-.31.07h-3.6c-.27,0-.4-.09-.4-.27s.14-.28.41-.33l.69-.11a1.13,1.13,0,0,0,.55-.25.61.61,0,0,0,.15-.51l-1-6.75a4.14,4.14,0,0,0-.79-2.13,2.12,2.12,0,0,0-1.69-.69,3.46,3.46,0,0,0-1.55.41A8.39,8.39,0,0,0,134,21Z"/><path class="cls-2" d="M157.74,25.66c-.44-.14-.91-.26-1.4-.37a8.13,8.13,0,0,0-1.6-.15,4.59,4.59,0,0,0-2.6.65,2.13,2.13,0,0,0-1,1.86,1.93,1.93,0,0,0,.73,1.66,3,3,0,0,0,1.79.54,4.75,4.75,0,0,0,2.32-.6A5.91,5.91,0,0,0,158,27.53l.28.5a5.81,5.81,0,0,1-2,1.86,5.13,5.13,0,0,1-2.55.66,3.85,3.85,0,0,1-2.44-.73,2.51,2.51,0,0,1-.94-2.12,2.75,2.75,0,0,1,1.21-2.3,5.32,5.32,0,0,1,3.28-.91,9.51,9.51,0,0,1,1.56.14,7.52,7.52,0,0,1,1.44.38Zm-6.82-4a2.57,2.57,0,0,1,.48-1.49A3.48,3.48,0,0,1,152.77,19a4.73,4.73,0,0,1,2.11-.44,3.48,3.48,0,0,1,2.53.89,3.24,3.24,0,0,1,.91,2.42v7.19a.91.91,0,0,0,.17.58.56.56,0,0,0,.46.21.66.66,0,0,0,.47-.14,1.23,1.23,0,0,0,.24-.28.26.26,0,0,1,.22-.14.25.25,0,0,1,.18.08.33.33,0,0,1,.08.24.72.72,0,0,1-.16.44,1.14,1.14,0,0,1-.43.34,1.47,1.47,0,0,1-.64.13,1.26,1.26,0,0,1-1.39-1.39l0-.5V22.09a2.73,2.73,0,0,0-.77-2.11,3,3,0,0,0-2.11-.72,3.06,3.06,0,0,0-1.9.5,1.54,1.54,0,0,0-.63,1.25v.7a.77.77,0,0,1-.17.53.57.57,0,0,1-.46.18.48.48,0,0,1-.43-.22A1,1,0,0,1,150.92,21.63Z"/><path class="cls-3" d="M14.71,37H25.32a2.38,2.38,0,0,0,.68-.09l.52-.18a1.24,1.24,0,0,1,.37-.08.37.37,0,0,1,.33.15,1.67,1.67,0,0,1,.21.53l.87,5.24a.52.52,0,0,1,0,.39.41.41,0,0,1-.26.22.59.59,0,0,1-.3,0,.54.54,0,0,1-.24-.3,24.33,24.33,0,0,0-1.25-2.51,9,9,0,0,0-1.05-1.5,3,3,0,0,0-.93-.72,2.18,2.18,0,0,0-.9-.2h-.92V53.53a.48.48,0,0,0,.14.35,1.34,1.34,0,0,0,.45.22l.75.14c.25.09.37.24.37.44s-.16.4-.47.4H16.38A.5.5,0,0,1,16,55a.35.35,0,0,1-.13-.29c0-.2.12-.35.37-.44L17,54.1a1.17,1.17,0,0,0,.45-.22.48.48,0,0,0,.14-.35V37.87h-.94a2,2,0,0,0-1.14.41,6,6,0,0,0-1.31,1.49,22.49,22.49,0,0,0-1.66,3,.57.57,0,0,1-.23.3.65.65,0,0,1-.31,0,.4.4,0,0,1-.24-.22.57.57,0,0,1,0-.39l.88-5.26a1.13,1.13,0,0,1,.2-.51.41.41,0,0,1,.34-.15.94.94,0,0,1,.36.09l.51.17A2.31,2.31,0,0,0,14.71,37Z"/><path class="cls-3" d="M36.84,51.86l-2.21,4.9L30,46a6.66,6.66,0,0,0-.61-1.18,1.38,1.38,0,0,0-.72-.55.51.51,0,0,1-.25-.16.42.42,0,0,1,0-.2.37.37,0,0,1,.1-.29.39.39,0,0,1,.26-.09H35a.33.33,0,0,1,.25.09.32.32,0,0,1,.09.24.28.28,0,0,1-.07.22.7.7,0,0,1-.21.14l-.57.14a.47.47,0,0,0-.4.38,1.26,1.26,0,0,0,.15.82Zm-2.52,5.37L35.21,55l.44-1,3-8.21a1.23,1.23,0,0,0,.1-.89.84.84,0,0,0-.57-.44l-.54-.18a.47.47,0,0,1-.2-.14.35.35,0,0,1-.06-.21.32.32,0,0,1,.1-.25.36.36,0,0,1,.26-.09h3.06a.4.4,0,0,1,.27.09.33.33,0,0,1,.1.26.28.28,0,0,1-.06.18.9.9,0,0,1-.2.18,1.93,1.93,0,0,0-.93.48,3.42,3.42,0,0,0-.61,1.07L35,57.31c-.36,1-.69,1.75-1,2.36A3.54,3.54,0,0,1,33,61a2.53,2.53,0,0,1-1.55.42,2.83,2.83,0,0,1-2.09-.78,2.65,2.65,0,0,1-.78-2A1.81,1.81,0,0,1,29,57.4a1.46,1.46,0,0,1,1.11-.47,1.36,1.36,0,0,1,.91.31,2.54,2.54,0,0,1,.66,1.06l.24.62a3.59,3.59,0,0,0,.35.76.59.59,0,0,0,.51.32c.16,0,.31-.11.44-.34a5.44,5.44,0,0,0,.46-1C33.88,58.28,34.08,57.79,34.32,57.23Z"/><path class="cls-3" d="M46.23,43.71v1.38l0,.22V59.65a1.05,1.05,0,0,0,.08.46.41.41,0,0,0,.25.21l.49.1a.8.8,0,0,1,.21.16.41.41,0,0,1,.05.21.31.31,0,0,1-.35.33H41.45a.37.37,0,0,1-.26-.09.3.3,0,0,1-.11-.24.38.38,0,0,1,.07-.22,1,1,0,0,1,.21-.16l.42-.11a.41.41,0,0,0,.27-.2,1,1,0,0,0,.07-.45V45.7a.46.46,0,0,0-.07-.29.43.43,0,0,0-.22-.13H41.3a.41.41,0,0,1-.18-.12.36.36,0,0,1,0-.19.38.38,0,0,1,.08-.23.68.68,0,0,1,.26-.16l3.72-1.12.42-.12a1,1,0,0,1,.28,0,.46.46,0,0,1,.31.1A.49.49,0,0,1,46.23,43.71Zm-.36,2.48-.33-.41a6.41,6.41,0,0,1,1.78-1.84,4.15,4.15,0,0,1,2.24-.61,4.55,4.55,0,0,1,2.49.67,4.47,4.47,0,0,1,1.67,1.93,7.06,7.06,0,0,1,.6,3,7.48,7.48,0,0,1-.72,3.4,5.42,5.42,0,0,1-2,2.22,5.33,5.33,0,0,1-2.84.77,4,4,0,0,1-2.05-.46,3.47,3.47,0,0,1-1.32-1.41l.51-.53a2.8,2.8,0,0,0,.79,1,1.73,1.73,0,0,0,1,.33,1.76,1.76,0,0,0,1.18-.45,3,3,0,0,0,.82-1.52,11.46,11.46,0,0,0,.3-3,11.51,11.51,0,0,0-.26-2.76,3.28,3.28,0,0,0-.73-1.5A1.47,1.47,0,0,0,48,44.65a1.94,1.94,0,0,0-1.12.38A3.43,3.43,0,0,0,45.87,46.19Z"/><path class="cls-3" d="M61.56,43.32a6.37,6.37,0,0,1,3.18.77,5.62,5.62,0,0,1,2.17,2.13,6.17,6.17,0,0,1,.78,3.14,6,6,0,0,1-.8,3.11,5.74,5.74,0,0,1-2.23,2.11,6.83,6.83,0,0,1-3.29.76,6.49,6.49,0,0,1-3.19-.76A5.5,5.5,0,0,1,56,52.46a6.27,6.27,0,0,1-.77-3.14,5.89,5.89,0,0,1,.81-3.07,5.63,5.63,0,0,1,2.23-2.15A6.7,6.7,0,0,1,61.56,43.32Zm.72,11.19a1.17,1.17,0,0,0,.87-.7,4.42,4.42,0,0,0,.37-1.8,16.22,16.22,0,0,0-.23-2.95,17.59,17.59,0,0,0-.68-2.88,4.32,4.32,0,0,0-.89-1.61,1.11,1.11,0,0,0-1.92.31,4.25,4.25,0,0,0-.34,1.78,17,17,0,0,0,.24,2.93,15.71,15.71,0,0,0,.66,2.88,4.32,4.32,0,0,0,.89,1.61A1.19,1.19,0,0,0,62.28,54.51Z"/><path class="cls-3" d="M79.14,54.6a3,3,0,0,1,1.5,1.09,3,3,0,0,1,.43,1.66,3.41,3.41,0,0,1-1.68,3,8.9,8.9,0,0,1-4.91,1.11,16.07,16.07,0,0,1-3.61-.33,4.48,4.48,0,0,1-2-.91,1.89,1.89,0,0,1-.62-1.4,1.94,1.94,0,0,1,.84-1.66,5.74,5.74,0,0,1,2.75-.79l.13.2a1.16,1.16,0,0,0-.54.46,1.22,1.22,0,0,0-.2.67,2.82,2.82,0,0,0,.86,2.15,3.82,3.82,0,0,0,2.7.81,5.75,5.75,0,0,0,1.65-.19,1.88,1.88,0,0,0,.94-.53,1.37,1.37,0,0,0,.29-.88,1.26,1.26,0,0,0-.29-.83,2.33,2.33,0,0,0-1.07-.63A11.32,11.32,0,0,0,74,57.1a14.4,14.4,0,0,1-2.54-.57,3.11,3.11,0,0,1-1.35-.8,1.71,1.71,0,0,1-.4-1.17,2,2,0,0,1,.37-1.19,2.61,2.61,0,0,1,1.21-.88A7.45,7.45,0,0,1,73.56,52l.06.14a.57.57,0,0,0-.33.2.59.59,0,0,0-.14.38.53.53,0,0,0,.22.44,2.75,2.75,0,0,0,.87.34c.43.11,1.08.25,2,.4A14.11,14.11,0,0,1,79.14,54.6Zm.36-4.53a5,5,0,0,1-2,1.65,7,7,0,0,1-2.94.59,8,8,0,0,1-3.19-.58,4.93,4.93,0,0,1-2-1.55A3.5,3.5,0,0,1,68.59,48a4.15,4.15,0,0,1,.74-2.42,5,5,0,0,1,2.09-1.68,7.53,7.53,0,0,1,3.21-.63,6.79,6.79,0,0,1,3.06.63,4.74,4.74,0,0,1,1.9,1.61,4,4,0,0,1-.09,4.53Zm-6.4-5.53a3,3,0,0,0-.38,1.33,9.91,9.91,0,0,0,.08,2.05,9.13,9.13,0,0,0,.51,2,3.56,3.56,0,0,0,.75,1.24,1,1,0,0,0,.88.36c.44,0,.76-.41,1-1.08a6.6,6.6,0,0,0,0-2.82,7.29,7.29,0,0,0-.86-2.78c-.38-.62-.81-.91-1.26-.87A1,1,0,0,0,73.1,44.54Zm3.36-.94a6.22,6.22,0,0,1,1.33-2.13,2.64,2.64,0,0,1,1.91-.78,1.9,1.9,0,0,1,1.46.54,1.94,1.94,0,0,1,.5,1.4,1.86,1.86,0,0,1-.38,1.26,1.38,1.38,0,0,1-1.1.45,1.12,1.12,0,0,1-.72-.22,2.9,2.9,0,0,1-.53-.52,4.17,4.17,0,0,0-.46-.53.81.81,0,0,0-.54-.22.86.86,0,0,0-.65.29,3,3,0,0,0-.49.93h-.52Z"/><path class="cls-3" d="M86.78,43.85l.07,3.58v6.11A.91.91,0,0,0,87,54a.53.53,0,0,0,.31.23l1.11.19a.36.36,0,0,1,.25.13.34.34,0,0,1,.07.22.3.3,0,0,1-.1.24.36.36,0,0,1-.27.1H82a.39.39,0,0,1-.29-.1.26.26,0,0,1-.11-.22.29.29,0,0,1,.08-.22,1.08,1.08,0,0,1,.2-.16l.43-.11a.43.43,0,0,0,.27-.21,1,1,0,0,0,.06-.4v-8a.78.78,0,0,0,0-.3.3.3,0,0,0-.2-.14l-.59,0a.64.64,0,0,1-.15-.13.23.23,0,0,1-.07-.18.33.33,0,0,1,.09-.22.53.53,0,0,1,.28-.16l3.84-1,.37-.1.25,0a.28.28,0,0,1,.24.11A.77.77,0,0,1,86.78,43.85Zm-.22,4.59a7.16,7.16,0,0,1,.49-2.86,4,4,0,0,1,1.27-1.7A2.8,2.8,0,0,1,90,43.32,2,2,0,0,1,91.6,44a3.19,3.19,0,0,1,.56,2,2.71,2.71,0,0,1-.57,1.9,1.88,1.88,0,0,1-1.44.62,1.58,1.58,0,0,1-1.23-.44,1.84,1.84,0,0,1-.42-1.25l0-.48a1.21,1.21,0,0,0-.12-.52.45.45,0,0,0-.42-.19.76.76,0,0,0-.56.29,2.09,2.09,0,0,0-.39.91,8.27,8.27,0,0,0-.13,1.56Z"/><path class="cls-3" d="M99.12,50.06a3,3,0,0,0-.65-.26,3,3,0,0,0-.71-.08,1.24,1.24,0,0,0-1.07.55,2.7,2.7,0,0,0-.39,1.59,2.37,2.37,0,0,0,.38,1.47,1.21,1.21,0,0,0,1,.48,1.67,1.67,0,0,0,.77-.2,1.7,1.7,0,0,0,.6-.56l.2.44a3.53,3.53,0,0,1-1.52,1.38,4.89,4.89,0,0,1-2.16.5,3.62,3.62,0,0,1-2.46-.82,2.62,2.62,0,0,1-.93-2.06,2.8,2.8,0,0,1,1.28-2.44,7.07,7.07,0,0,1,4-.9,4,4,0,0,1,1.06.12,3.36,3.36,0,0,1,.77.32Zm-6.33-3.61A2.28,2.28,0,0,1,93.4,45a4.32,4.32,0,0,1,1.8-1.19,8.34,8.34,0,0,1,3-.47,5.49,5.49,0,0,1,3.51.93,3.17,3.17,0,0,1,1.15,2.63V53a.79.79,0,0,0,.13.5.44.44,0,0,0,.66,0,2.18,2.18,0,0,0,.22-.31c.07-.1.12-.16.17-.16a.2.2,0,0,1,.16.07.36.36,0,0,1,0,.19,1.59,1.59,0,0,1-.3.84,2.52,2.52,0,0,1-1,.82,3.73,3.73,0,0,1-1.77.36,2.89,2.89,0,0,1-1.71-.45,1.39,1.39,0,0,1-.63-1.16l-.18-.14V45.23a1.46,1.46,0,0,0-.28-1,1,1,0,0,0-.78-.33,1.13,1.13,0,0,0-.82.28.91.91,0,0,0-.3.71V46a1.86,1.86,0,0,1-.58,1.41,2.11,2.11,0,0,1-1.52.56,1.68,1.68,0,0,1-1.18-.39A1.48,1.48,0,0,1,92.79,46.45Z"/><path class="cls-3" d="M109.58,43.71v1.38l0,.22V59.65a1.08,1.08,0,0,0,.07.46.47.47,0,0,0,.25.21l.49.1a.66.66,0,0,1,.21.16.41.41,0,0,1,0,.21.31.31,0,0,1-.35.33h-5.55a.39.39,0,0,1-.26-.09.3.3,0,0,1-.1-.24.32.32,0,0,1,.07-.22.87.87,0,0,1,.2-.16l.43-.11a.39.39,0,0,0,.26-.2,1,1,0,0,0,.07-.45V45.7a.46.46,0,0,0-.07-.29.44.44,0,0,0-.21-.13h-.53a.32.32,0,0,1-.18-.12.29.29,0,0,1-.06-.19.38.38,0,0,1,.08-.23.68.68,0,0,1,.26-.16l3.73-1.12c.17-.06.31-.09.41-.12a1.06,1.06,0,0,1,.29,0,.43.43,0,0,1,.3.1A.44.44,0,0,1,109.58,43.71Zm-.36,2.48-.34-.41a6.43,6.43,0,0,1,1.79-1.84,4.09,4.09,0,0,1,2.23-.61,4.55,4.55,0,0,1,2.49.67,4.4,4.4,0,0,1,1.67,1.93,6.91,6.91,0,0,1,.61,3,7.48,7.48,0,0,1-.73,3.4,5.17,5.17,0,0,1-4.81,3,4.05,4.05,0,0,1-2.06-.46,3.47,3.47,0,0,1-1.32-1.41l.52-.53a2.6,2.6,0,0,0,.79,1,1.72,1.72,0,0,0,1,.33,1.74,1.74,0,0,0,1.18-.45,3,3,0,0,0,.82-1.52,11,11,0,0,0,.31-3,11.44,11.44,0,0,0-.27-2.76,3.28,3.28,0,0,0-.72-1.5,1.48,1.48,0,0,0-1.09-.46,1.91,1.91,0,0,0-1.12.38A3.43,3.43,0,0,0,109.22,46.19Z"/><path class="cls-3" d="M123.76,36.06V53.61a1.1,1.1,0,0,0,.08.47.37.37,0,0,0,.26.21l.46.12a.4.4,0,0,1,.24.35c0,.21-.12.32-.35.32H119a.41.41,0,0,1-.28-.09.28.28,0,0,1-.11-.25.31.31,0,0,1,.07-.2,1.25,1.25,0,0,1,.2-.17l.47-.1a.36.36,0,0,0,.24-.21,1.2,1.2,0,0,0,.07-.45V38.09a.5.5,0,0,0-.06-.29.45.45,0,0,0-.2-.14l-.53,0a.46.46,0,0,1-.2-.11.32.32,0,0,1-.06-.2.33.33,0,0,1,.08-.22.68.68,0,0,1,.27-.15l3.82-1.16.4-.12.28,0a.34.34,0,0,1,.27.11A.55.55,0,0,1,123.76,36.06Zm-.35,10.57-.32-.4.48-.45A13.35,13.35,0,0,1,126,43.91a3.92,3.92,0,0,1,1.94-.59,2.41,2.41,0,0,1,1.89.72,4.07,4.07,0,0,1,.82,2.24l.82,7.3a2.6,2.6,0,0,0,.1.48.41.41,0,0,0,.25.21l.44.11a.45.45,0,0,1,.19.16.36.36,0,0,1,.06.2.34.34,0,0,1-.1.25.37.37,0,0,1-.25.09h-5.62a.28.28,0,0,1-.32-.32.37.37,0,0,1,.23-.35l.45-.12a.42.42,0,0,0,.29-.21.8.8,0,0,0,0-.46l-.67-6.56a2.73,2.73,0,0,0-.37-1.18.93.93,0,0,0-.84-.39,1.48,1.48,0,0,0-.71.19,4,4,0,0,0-.78.55Z"/><path class="cls-3" d="M144,48.3a.81.81,0,0,1-.2.57.84.84,0,0,1-.61.21h-7.6v-.61h3.87c.25,0,.38-.14.38-.43a6.92,6.92,0,0,0-.48-3c-.32-.62-.69-.93-1.12-.93a1.13,1.13,0,0,0-.84.38,2.9,2.9,0,0,0-.61,1.21,8.78,8.78,0,0,0-.23,2.22,5.56,5.56,0,0,0,1,3.7,3.49,3.49,0,0,0,2.74,1.19,3.52,3.52,0,0,0,2.08-.6,2.45,2.45,0,0,0,1-1.63.45.45,0,0,1,.14-.16.27.27,0,0,1,.13,0,.2.2,0,0,1,.14.06.33.33,0,0,1,.08.23,4.38,4.38,0,0,1-.73,2.35,4.9,4.9,0,0,1-1.89,1.68,5.93,5.93,0,0,1-2.75.62,6.15,6.15,0,0,1-3.05-.73,5.28,5.28,0,0,1-2.07-2.07,6.25,6.25,0,0,1-.74-3,6.91,6.91,0,0,1,.72-3.26,5.22,5.22,0,0,1,2.09-2.15,6.6,6.6,0,0,1,3.24-.76,5.71,5.71,0,0,1,2.8.65,4.6,4.6,0,0,1,1.8,1.78A5.12,5.12,0,0,1,144,48.3Z"/><path class="cls-3" d="M150,43.85l.08,3.58v6.11a.91.91,0,0,0,.09.43.53.53,0,0,0,.31.23l1.11.19a.36.36,0,0,1,.25.13.34.34,0,0,1,.07.22.3.3,0,0,1-.1.24.36.36,0,0,1-.27.1h-6.29a.39.39,0,0,1-.29-.1.26.26,0,0,1-.11-.22.33.33,0,0,1,.08-.22,1.08,1.08,0,0,1,.2-.16l.43-.11a.43.43,0,0,0,.27-.21,1,1,0,0,0,.07-.4v-8a.61.61,0,0,0-.06-.3.3.3,0,0,0-.2-.14l-.59,0a.64.64,0,0,1-.15-.13.27.27,0,0,1-.07-.18.33.33,0,0,1,.09-.22.53.53,0,0,1,.28-.16l3.84-1,.37-.1.25,0a.28.28,0,0,1,.24.11A.77.77,0,0,1,150,43.85Zm-.22,4.59a7.16,7.16,0,0,1,.49-2.86,4,4,0,0,1,1.27-1.7,2.82,2.82,0,0,1,1.67-.56,2,2,0,0,1,1.61.68,3.13,3.13,0,0,1,.56,2,2.71,2.71,0,0,1-.57,1.9,1.88,1.88,0,0,1-1.43.62,1.58,1.58,0,0,1-1.24-.44,2,2,0,0,1-.42-1.25l0-.48a1.21,1.21,0,0,0-.12-.52.45.45,0,0,0-.42-.19.77.77,0,0,0-.56.29,2.09,2.09,0,0,0-.39.91,8.37,8.37,0,0,0-.12,1.56Z"/><path class="cls-3" d="M157.57,55.35a2.3,2.3,0,0,1-1.22-.33,2.45,2.45,0,0,1-.87-.91,2.48,2.48,0,0,1-.33-1.27,2.32,2.32,0,0,1,.33-1.21,2.35,2.35,0,0,1,.87-.9,2.28,2.28,0,0,1,1.22-.35,2.33,2.33,0,0,1,1.26.34,2.45,2.45,0,0,1,.88.9,2.38,2.38,0,0,1,.32,1.23,2.46,2.46,0,0,1-.32,1.26,2.56,2.56,0,0,1-.88.91A2.42,2.42,0,0,1,157.57,55.35Z"/></svg>