<?xml version="1.0" encoding="utf-8"?>
<!-- Generator: Adobe Illustrator 24.0.1, SVG Export Plug-In . SVG Version: 6.00 Build 0)  -->
<svg version="1.1" id="Layer_1" xmlns="http://www.w3.org/2000/svg" xmlns:xlink="http://www.w3.org/1999/xlink" x="0px" y="0px"
	 viewBox="0 0 125 125" style="enable-background:new 0 0 125 125;" xml:space="preserve">
<style type="text/css">
	.st0{fill:#00FF00;}
</style>
<circle class="st0" cx="62.5" cy="62.5" r="62.5"/>
<g>
	<path d="M48.7,38.9c0,0.7-0.2,1.3-0.5,2c-0.3,0.7-0.9,1.3-1.5,1.9c-0.7,0.6-1.5,1.1-2.5,1.4c-1,0.4-2.1,0.5-3.4,0.5
		c-1.9,0-3.6-0.4-5-1.3c-1.4-0.9-2.5-2-3.3-3.6c-0.8-1.5-1.2-3.3-1.2-5.3c0-1.4,0.2-2.7,0.7-4s1.1-2.3,2-3.2
		c0.8-0.9,1.8-1.6,2.9-2.1c1.1-0.5,2.3-0.8,3.5-0.8c0.8,0,1.5,0.1,2,0.2s0.9,0.3,1.2,0.4c0.3,0.1,0.6,0.2,0.8,0.2s0.5-0.1,0.6-0.2
		c0.2-0.1,0.3-0.3,0.5-0.4s0.4-0.2,0.7-0.2c0.3,0,0.5,0.1,0.6,0.3c0.2,0.2,0.3,0.6,0.5,1.1l1.2,4.5c0.1,0.3,0,0.7-0.1,1
		c-0.2,0.3-0.5,0.5-0.9,0.6c-0.4,0.1-0.7,0-1-0.1c-0.3-0.1-0.6-0.4-0.8-0.9c-0.4-1-0.8-1.7-1.3-2.3c-0.4-0.6-0.9-0.9-1.4-1.2
		c-0.5-0.2-1-0.3-1.6-0.3c-0.7,0-1.2,0.2-1.7,0.5c-0.5,0.3-0.9,0.8-1.2,1.4c-0.3,0.6-0.6,1.3-0.7,2.1s-0.2,1.7-0.2,2.7
		c0,1.5,0.2,2.8,0.6,3.8c0.4,1,1,1.8,1.8,2.3c0.8,0.5,1.6,0.8,2.7,0.8c0.7,0,1.4-0.2,2.1-0.6s1.3-0.9,1.9-1.7
		c0.3-0.4,0.6-0.6,0.9-0.7c0.2-0.1,0.5-0.1,0.7,0c0.2,0.1,0.3,0.2,0.4,0.4S48.7,38.6,48.7,38.9z"/>
	<path d="M56.1,24.5v16.3c0,0.5,0,0.8,0.1,0.9c0.1,0.2,0.1,0.3,0.2,0.4l0.1,0.1c0.2,0.2,0.3,0.3,0.4,0.5s0.2,0.4,0.2,0.7
		c0,0.4-0.1,0.6-0.3,0.8c-0.2,0.2-0.5,0.3-0.8,0.3h-5.1c-0.4,0-0.6-0.1-0.8-0.3s-0.3-0.5-0.3-0.8c0-0.3,0.1-0.5,0.2-0.7
		c0.1-0.2,0.3-0.3,0.4-0.5l0.1-0.1c0.1-0.1,0.2-0.2,0.2-0.4c0.1-0.2,0.1-0.5,0.1-0.9V28.4c0-0.4,0-0.6-0.1-0.8
		c-0.1-0.1-0.2-0.3-0.3-0.4l-0.1-0.1c-0.2-0.1-0.4-0.3-0.5-0.4s-0.1-0.3-0.1-0.6c0-0.3,0.1-0.5,0.2-0.7c0.2-0.2,0.4-0.4,0.8-0.5
		l2.5-1c0.5-0.2,0.8-0.3,1.1-0.4c0.3-0.1,0.5-0.1,0.8-0.1c0.3,0,0.6,0.1,0.8,0.3C56.1,23.9,56.1,24.2,56.1,24.5z"/>
	<path d="M64.2,32.9v7.9c0,0.4,0,0.8,0.1,0.9c0.1,0.2,0.1,0.3,0.2,0.4l0.1,0.1c0.2,0.1,0.3,0.3,0.4,0.5c0.1,0.2,0.2,0.4,0.2,0.7
		c0,0.4-0.1,0.6-0.3,0.8c-0.2,0.2-0.5,0.3-0.8,0.3H59c-0.4,0-0.6-0.1-0.9-0.3c-0.2-0.2-0.3-0.5-0.3-0.8c0-0.3,0.1-0.5,0.2-0.7
		c0.1-0.2,0.3-0.3,0.4-0.5l0.1-0.1c0.1-0.1,0.2-0.2,0.2-0.4c0.1-0.2,0.1-0.5,0.1-0.9v-4.1c0-0.4,0-0.6-0.1-0.8
		c-0.1-0.1-0.2-0.3-0.3-0.4l-0.1-0.1c-0.2-0.1-0.4-0.3-0.5-0.4c-0.1-0.1-0.1-0.3-0.1-0.6c0-0.3,0.1-0.5,0.2-0.7
		c0.2-0.2,0.4-0.4,0.8-0.5l2.5-1c0.5-0.2,0.8-0.3,1.1-0.4c0.3-0.1,0.5-0.1,0.8-0.1c0.3,0,0.6,0.1,0.8,0.3S64.2,32.5,64.2,32.9z
		 M61.5,30.8c-0.9,0-1.7-0.3-2.2-0.8s-0.8-1.2-0.8-2c0-0.9,0.3-1.5,0.8-2s1.3-0.8,2.2-0.8c0.9,0,1.7,0.3,2.2,0.8
		c0.5,0.5,0.8,1.2,0.8,2c0,0.9-0.3,1.5-0.8,2C63.2,30.6,62.4,30.8,61.5,30.8z"/>
	<path d="M77.9,35.6c0,0.8-0.2,1.4-0.7,1.8c-0.5,0.4-1.1,0.7-1.9,0.7c-0.8,0-1.4-0.2-1.8-0.7s-0.6-1-0.6-1.7v-0.4
		c0-0.4-0.1-0.6-0.2-0.8c-0.1-0.2-0.4-0.3-0.7-0.3c-0.3,0-0.6,0.1-0.8,0.3c-0.2,0.2-0.4,0.4-0.6,0.8c-0.1,0.4-0.2,0.8-0.2,1.4
		c0,0.9,0.2,1.6,0.5,2.2c0.3,0.6,0.7,1,1.3,1.3c0.5,0.3,1.1,0.4,1.8,0.4c0.6,0,1-0.1,1.4-0.2c0.4-0.1,0.7-0.3,1.1-0.6
		c0.3-0.2,0.5-0.4,0.6-0.4c0.1-0.1,0.3-0.1,0.4-0.1c0.2,0,0.3,0.1,0.4,0.2c0.1,0.1,0.2,0.3,0.2,0.6c0,0.8-0.2,1.5-0.7,2.2
		s-1.1,1.2-2,1.6c-0.9,0.4-1.9,0.6-3,0.6c-1.2,0-2.3-0.3-3.3-0.8c-1-0.5-1.8-1.3-2.3-2.2c-0.6-1-0.9-2.1-0.9-3.4
		c0-1.3,0.3-2.4,0.8-3.4c0.5-1,1.3-1.8,2.3-2.4c1-0.6,2.2-0.9,3.6-0.9c1.1,0,2.1,0.2,2.9,0.5c0.8,0.4,1.4,0.8,1.9,1.4
		C77.7,34.2,77.9,34.9,77.9,35.6z"/>
	<path d="M80.1,44.5c-0.4,0-0.6-0.1-0.8-0.3s-0.3-0.5-0.3-0.8c0-0.3,0.1-0.5,0.2-0.7s0.3-0.3,0.4-0.5l0.1-0.1
		c0.1-0.1,0.2-0.2,0.2-0.4c0.1-0.2,0.1-0.5,0.1-0.9V28.4c0-0.4,0-0.6-0.1-0.8c-0.1-0.1-0.2-0.3-0.3-0.4l-0.1-0.1
		c-0.2-0.1-0.4-0.3-0.5-0.4s-0.1-0.3-0.1-0.6c0-0.3,0.1-0.5,0.2-0.7c0.2-0.2,0.4-0.4,0.8-0.5l2.5-1c0.5-0.2,0.8-0.3,1.1-0.4
		c0.3-0.1,0.5-0.1,0.8-0.1c0.3,0,0.6,0.1,0.8,0.3s0.3,0.5,0.3,0.8v16.3c0,0.5,0,0.8,0.1,1c0,0.2,0.1,0.3,0.2,0.4l0.2,0.2
		c0.3,0.3,0.4,0.6,0.4,1c0,0.8-0.3,1.1-1,1.1H80.1z M83.7,38.4l4.3-3.6c0.1-0.1,0.2-0.2,0.2-0.3c0-0.1-0.1-0.2-0.2-0.3l-0.2-0.2
		c-0.1-0.1-0.3-0.3-0.3-0.4s-0.1-0.3-0.1-0.5c0-0.4,0.1-0.7,0.3-0.9c0.2-0.2,0.5-0.3,0.9-0.3h4.2c0.4,0,0.6,0.1,0.8,0.3
		c0.2,0.2,0.3,0.5,0.3,0.8c0,0.3-0.1,0.6-0.3,0.9c-0.2,0.3-0.6,0.5-1.2,0.5c-0.3,0-0.6,0.1-0.8,0.2c-0.2,0.1-0.5,0.3-0.9,0.6
		l-6.2,5.1L83.7,38.4z M89.1,35.1l3.8,6.1c0.1,0.2,0.2,0.4,0.3,0.5s0.2,0.3,0.4,0.4c0.3,0.3,0.5,0.5,0.6,0.7
		c0.1,0.2,0.2,0.4,0.2,0.7c0,0.3-0.1,0.6-0.3,0.8c-0.2,0.2-0.5,0.3-0.8,0.3h-5.6c-0.3,0-0.5-0.1-0.7-0.3c-0.2-0.2-0.3-0.5-0.3-0.8
		c0-0.2,0-0.4,0.1-0.5c0.1-0.1,0.1-0.3,0.3-0.4l0.2-0.2c0.1-0.1,0.2-0.3,0.1-0.5c0-0.2-0.1-0.4-0.3-0.8l-1.8-3L89.1,35.1z"/>
	<path d="M23.7,62.4c0-0.5,0.1-0.9,0.3-1.2c0.2-0.3,0.5-0.5,0.9-0.5h18.7c0.4,0,0.7,0.2,0.9,0.5c0.2,0.3,0.3,0.7,0.3,1.2
		s-0.1,0.9-0.3,1.2c-0.2,0.3-0.5,0.5-0.9,0.5H24.8c-0.4,0-0.7-0.2-0.9-0.5C23.8,63.3,23.7,62.9,23.7,62.4z"/>
	<path d="M50.8,59.6l-0.3-0.1c-0.3-0.1-0.4-0.3-0.5-0.5c-0.1-0.2-0.1-0.4-0.1-0.7c0-0.4,0.1-0.7,0.4-0.9c0.3-0.2,0.6-0.3,1-0.3h0.2
		c0.1,0,0.3-0.1,0.4-0.2c0.1-0.1,0.4-0.4,0.6-0.7l1.1-1.4c0.3-0.4,0.6-0.7,0.9-0.9c0.3-0.2,0.6-0.3,0.9-0.3c0.3,0,0.6,0.1,0.8,0.3
		c0.2,0.2,0.3,0.5,0.3,1v9.5c0,0.6,0.1,1,0.3,1.3s0.5,0.4,0.9,0.4c0.2,0,0.4-0.1,0.6-0.2c0.2-0.1,0.3-0.2,0.5-0.4
		c0.1-0.1,0.3-0.3,0.4-0.4s0.3-0.2,0.4-0.2c0.2,0,0.3,0.1,0.4,0.2c0.1,0.1,0.1,0.4,0.1,0.7c0,0.7-0.2,1.4-0.6,2
		c-0.4,0.6-1,1.1-1.6,1.5c-0.7,0.4-1.5,0.6-2.3,0.6c-1.5,0-2.6-0.4-3.3-1.1c-0.7-0.7-1.1-1.9-1.1-3.5v-4.5c0-0.3,0-0.5-0.1-0.7
		C51.1,59.8,51,59.7,50.8,59.6z M54.8,59.6V57h4.4c0.4,0,0.6,0.1,0.8,0.3s0.3,0.4,0.3,0.7c0,0.5-0.2,0.9-0.6,1.2
		c-0.4,0.3-1,0.5-1.9,0.5H54.8z"/>
	<path d="M67.7,56.7c1.4,0,2.6,0.3,3.6,0.8c1,0.6,1.8,1.3,2.4,2.3s0.8,2.1,0.8,3.4c0,1.2-0.3,2.3-0.9,3.2c-0.6,1-1.4,1.8-2.4,2.3
		c-1.1,0.6-2.3,0.9-3.7,0.9c-1.4,0-2.6-0.3-3.6-0.8c-1-0.6-1.8-1.3-2.4-2.3c-0.6-1-0.8-2.1-0.8-3.4c0-1.2,0.3-2.3,0.9-3.3
		c0.6-1,1.4-1.8,2.5-2.3C65.1,57,66.3,56.7,67.7,56.7z M68.6,67.1c0.2-0.1,0.4-0.3,0.5-0.6s0.2-0.8,0.1-1.4c0-0.6-0.2-1.4-0.4-2.3
		c-0.2-1-0.5-1.7-0.7-2.2c-0.3-0.5-0.5-0.9-0.8-1.1c-0.3-0.2-0.5-0.3-0.8-0.2c-0.2,0.1-0.4,0.3-0.5,0.6c-0.1,0.3-0.2,0.8-0.1,1.4
		c0,0.6,0.2,1.4,0.4,2.3c0.2,0.9,0.5,1.7,0.7,2.2c0.3,0.5,0.5,0.9,0.8,1.1C68.1,67.1,68.4,67.2,68.6,67.1z"/>
	<path d="M80.4,62.4c0-0.5,0.1-0.9,0.3-1.2c0.2-0.3,0.5-0.5,0.9-0.5h18.7c0.4,0,0.7,0.2,0.9,0.5c0.2,0.3,0.3,0.7,0.3,1.2
		s-0.1,0.9-0.3,1.2c-0.2,0.3-0.5,0.5-0.9,0.5H81.5c-0.4,0-0.7-0.2-0.9-0.5C80.4,63.3,80.4,62.9,80.4,62.4z"/>
	<path d="M34.9,97.8c-0.6,0-1.1,0-1.5-0.1s-0.8-0.2-1.1-0.2c-0.3-0.1-0.6-0.1-0.9-0.1c-0.2,0-0.4,0-0.6,0.1
		c-0.2,0.1-0.3,0.1-0.5,0.2c-0.1,0.1-0.3,0.1-0.5,0.2c-0.2,0.1-0.3,0.1-0.5,0.1c-0.4,0-0.7-0.1-0.9-0.3c-0.2-0.2-0.4-0.6-0.5-1.1
		l-0.7-3.6c-0.1-0.4,0-0.7,0.1-1c0.2-0.3,0.4-0.5,0.8-0.6c0.4-0.1,0.7-0.1,1,0s0.5,0.4,0.8,0.9c0.4,0.7,0.8,1.2,1.3,1.6
		s0.9,0.7,1.4,0.9s1.1,0.3,1.6,0.3c0.7,0,1.2-0.2,1.6-0.5c0.4-0.3,0.6-0.8,0.6-1.3c0-0.4-0.1-0.7-0.3-1c-0.2-0.3-0.6-0.6-1.2-0.9
		c-0.6-0.3-1.5-0.6-2.7-1c-1.4-0.4-2.6-1-3.4-1.6c-0.8-0.6-1.4-1.3-1.7-2.1s-0.5-1.7-0.5-2.7c0-1.2,0.3-2.3,0.8-3.2
		c0.5-0.9,1.3-1.7,2.3-2.2c1-0.5,2.2-0.8,3.6-0.8c0.7,0,1.3,0.1,1.8,0.2c0.5,0.1,0.9,0.3,1.3,0.4c0.4,0.1,0.7,0.2,1,0.2
		c0.3,0,0.5-0.1,0.6-0.2c0.1-0.1,0.3-0.3,0.5-0.4s0.4-0.2,0.7-0.2c0.4,0,0.7,0.1,0.9,0.4s0.4,0.8,0.7,1.5l1.1,3.7
		c0.1,0.5,0.1,0.9,0,1.2c-0.1,0.3-0.4,0.5-0.9,0.7c-0.4,0.1-0.8,0.1-1.1,0c-0.3-0.2-0.6-0.4-0.8-0.9c-0.4-0.8-0.9-1.5-1.5-2
		s-1.2-0.9-1.8-1.2c-0.6-0.3-1.2-0.4-1.9-0.4c-0.6,0-1.1,0.2-1.5,0.5c-0.4,0.3-0.5,0.8-0.5,1.3c0,0.4,0.1,0.7,0.3,1
		c0.2,0.3,0.6,0.6,1.3,0.9c0.7,0.3,1.7,0.7,3.1,1.3c1.3,0.5,2.3,1,3.1,1.6c0.8,0.6,1.3,1.3,1.6,2c0.3,0.8,0.5,1.6,0.5,2.6
		c0,1.1-0.3,2.2-0.9,3.1S40,96.4,38.9,97S36.5,97.8,34.9,97.8z"/>
	<path d="M43.6,87.6l-0.3-0.1c-0.3-0.1-0.4-0.3-0.5-0.5c-0.1-0.2-0.1-0.4-0.1-0.7c0-0.4,0.1-0.7,0.4-0.9c0.3-0.2,0.6-0.3,1-0.3h0.2
		c0.1,0,0.3-0.1,0.4-0.2c0.1-0.1,0.4-0.4,0.6-0.7l1.1-1.4c0.3-0.4,0.6-0.7,0.9-0.9c0.3-0.2,0.6-0.3,0.9-0.3c0.3,0,0.6,0.1,0.8,0.3
		c0.2,0.2,0.3,0.5,0.3,1v9.5c0,0.6,0.1,1,0.3,1.3s0.5,0.4,0.9,0.4c0.2,0,0.4-0.1,0.6-0.2c0.2-0.1,0.3-0.2,0.5-0.4
		c0.1-0.1,0.3-0.3,0.4-0.4s0.3-0.2,0.4-0.2c0.2,0,0.3,0.1,0.4,0.2c0.1,0.1,0.1,0.4,0.1,0.7c0,0.7-0.2,1.4-0.6,2
		c-0.4,0.6-1,1.1-1.6,1.5c-0.7,0.4-1.5,0.6-2.3,0.6c-1.5,0-2.6-0.4-3.3-1.1c-0.7-0.7-1.1-1.9-1.1-3.5v-4.5c0-0.3,0-0.5-0.1-0.7
		C44,87.8,43.8,87.7,43.6,87.6z M47.6,87.6V85H52c0.4,0,0.6,0.1,0.8,0.3s0.3,0.4,0.3,0.7c0,0.5-0.2,0.9-0.6,1.2
		c-0.4,0.3-1,0.5-1.9,0.5H47.6z"/>
	<path d="M60,85.9v7.9c0,0.4,0,0.8,0.1,0.9c0.1,0.2,0.1,0.3,0.2,0.4l0.1,0.1c0.2,0.1,0.3,0.3,0.4,0.5c0.1,0.2,0.2,0.4,0.2,0.7
		c0,0.4-0.1,0.6-0.3,0.8c-0.2,0.2-0.5,0.3-0.8,0.3h-5.1c-0.4,0-0.6-0.1-0.9-0.3c-0.2-0.2-0.3-0.5-0.3-0.8c0-0.3,0.1-0.5,0.2-0.7
		c0.1-0.2,0.3-0.3,0.4-0.5l0.1-0.1c0.1-0.1,0.2-0.2,0.2-0.4c0.1-0.2,0.1-0.5,0.1-0.9v-4.1c0-0.4,0-0.6-0.1-0.8
		c-0.1-0.1-0.2-0.3-0.3-0.4l-0.1-0.1c-0.2-0.1-0.4-0.3-0.5-0.4s-0.1-0.3-0.1-0.6c0-0.3,0.1-0.5,0.2-0.7c0.2-0.2,0.4-0.4,0.8-0.5
		l2.5-1c0.5-0.2,0.8-0.3,1.1-0.4c0.3-0.1,0.5-0.1,0.8-0.1c0.3,0,0.6,0.1,0.8,0.3C59.9,85.2,60,85.5,60,85.9z M57.3,83.8
		c-0.9,0-1.7-0.3-2.2-0.8c-0.5-0.5-0.8-1.2-0.8-2c0-0.9,0.3-1.5,0.8-2c0.5-0.5,1.3-0.8,2.2-0.8c0.9,0,1.7,0.3,2.2,0.8
		c0.5,0.5,0.8,1.2,0.8,2c0,0.9-0.3,1.5-0.8,2C59,83.6,58.2,83.8,57.3,83.8z"/>
	<path d="M73.7,88.6c0,0.8-0.2,1.4-0.7,1.8s-1.1,0.7-1.9,0.7c-0.8,0-1.4-0.2-1.8-0.7c-0.4-0.4-0.6-1-0.6-1.7v-0.4
		c0-0.4-0.1-0.6-0.2-0.8c-0.1-0.2-0.4-0.3-0.7-0.3s-0.6,0.1-0.8,0.3c-0.2,0.2-0.4,0.4-0.6,0.8c-0.1,0.4-0.2,0.8-0.2,1.4
		c0,0.9,0.2,1.6,0.5,2.2c0.3,0.6,0.7,1,1.3,1.3s1.1,0.4,1.8,0.4c0.6,0,1-0.1,1.4-0.2c0.4-0.1,0.7-0.3,1.1-0.6
		c0.3-0.2,0.5-0.4,0.6-0.4s0.3-0.1,0.4-0.1c0.2,0,0.3,0.1,0.4,0.2s0.2,0.3,0.2,0.6c0,0.8-0.2,1.5-0.7,2.2s-1.1,1.2-2,1.6
		c-0.9,0.4-1.9,0.6-3,0.6c-1.2,0-2.3-0.3-3.3-0.8s-1.8-1.3-2.3-2.2c-0.6-1-0.9-2.1-0.9-3.4c0-1.2,0.3-2.4,0.8-3.4
		c0.5-1,1.3-1.8,2.3-2.4c1-0.6,2.2-0.9,3.6-0.9c1.1,0,2.1,0.2,2.9,0.5s1.4,0.8,1.9,1.4C73.5,87.2,73.7,87.9,73.7,88.6z"/>
	<path d="M75.9,97.5c-0.4,0-0.6-0.1-0.8-0.3c-0.2-0.2-0.3-0.5-0.3-0.8c0-0.3,0.1-0.5,0.2-0.7s0.3-0.3,0.4-0.5l0.1-0.1
		c0.1-0.1,0.2-0.2,0.2-0.4c0.1-0.2,0.1-0.5,0.1-0.9V81.4c0-0.4,0-0.6-0.1-0.8c-0.1-0.1-0.2-0.3-0.3-0.4l-0.1-0.1
		c-0.2-0.1-0.4-0.3-0.5-0.4s-0.1-0.3-0.1-0.6c0-0.3,0.1-0.5,0.2-0.7c0.2-0.2,0.4-0.4,0.8-0.5l2.5-1c0.5-0.2,0.8-0.3,1.1-0.4
		c0.3-0.1,0.5-0.1,0.8-0.1c0.3,0,0.6,0.1,0.8,0.3c0.2,0.2,0.3,0.5,0.3,0.8v16.3c0,0.5,0,0.8,0.1,1s0.1,0.3,0.2,0.4l0.2,0.2
		c0.3,0.3,0.4,0.6,0.4,1c0,0.8-0.3,1.1-1,1.1H75.9z M79.5,91.4l4.3-3.6c0.1-0.1,0.2-0.2,0.2-0.3c0-0.1-0.1-0.2-0.2-0.3l-0.2-0.2
		c-0.1-0.1-0.3-0.3-0.3-0.4s-0.1-0.3-0.1-0.5c0-0.4,0.1-0.7,0.3-0.9c0.2-0.2,0.5-0.3,0.9-0.3h4.2c0.4,0,0.6,0.1,0.8,0.3
		c0.2,0.2,0.3,0.5,0.3,0.8c0,0.3-0.1,0.6-0.3,0.9c-0.2,0.3-0.6,0.5-1.2,0.5c-0.3,0-0.6,0.1-0.8,0.2c-0.2,0.1-0.5,0.3-0.9,0.6
		l-6.2,5.1L79.5,91.4z M84.9,88.1l3.8,6.1c0.1,0.2,0.2,0.4,0.3,0.5s0.2,0.3,0.4,0.4c0.3,0.3,0.5,0.5,0.6,0.7
		c0.1,0.2,0.2,0.4,0.2,0.7c0,0.3-0.1,0.6-0.3,0.8s-0.5,0.3-0.8,0.3h-5.6c-0.3,0-0.5-0.1-0.7-0.3c-0.2-0.2-0.3-0.5-0.3-0.8
		c0-0.2,0-0.4,0.1-0.5c0.1-0.1,0.1-0.3,0.3-0.4l0.2-0.2c0.1-0.1,0.2-0.3,0.1-0.5c0-0.2-0.1-0.4-0.3-0.8l-1.8-3L84.9,88.1z"/>
	<path d="M94.5,77c1.2,0,2,0.3,2.6,0.8c0.6,0.5,0.8,1.2,0.8,2.1c0,0.2,0,0.5-0.1,0.8c0,0.3-0.1,0.6-0.2,0.9l-1.8,7.8
		c-0.1,0.5-0.3,0.9-0.5,1.1s-0.5,0.3-0.9,0.3s-0.7-0.1-0.9-0.3c-0.2-0.2-0.4-0.6-0.5-1.1l-1.8-7.8c-0.1-0.3-0.1-0.6-0.2-0.9
		c0-0.3-0.1-0.6-0.1-0.8c0-0.9,0.3-1.6,0.8-2.1S93.3,77,94.5,77z M94.4,97.9c-0.6,0-1.1-0.1-1.6-0.4c-0.5-0.3-0.8-0.7-1.1-1.2
		c-0.3-0.5-0.4-1-0.4-1.6c0-0.6,0.1-1.1,0.4-1.6c0.3-0.5,0.6-0.9,1.1-1.1c0.5-0.3,1-0.4,1.6-0.4c0.6,0,1.2,0.1,1.6,0.4
		c0.5,0.3,0.8,0.7,1.1,1.1c0.3,0.5,0.4,1,0.4,1.6c0,0.6-0.1,1.1-0.4,1.6c-0.3,0.5-0.6,0.9-1.1,1.2C95.6,97.8,95,97.9,94.4,97.9z"/>
</g>
</svg>
