<?xml version="1.0" encoding="utf-8"?>
<!-- Generator: Adobe Illustrator 24.0.1, SVG Export Plug-In . SVG Version: 6.00 Build 0)  -->
<svg version="1.1" id="Layer_1" xmlns="http://www.w3.org/2000/svg" xmlns:xlink="http://www.w3.org/1999/xlink" x="0px" y="0px"
	 viewBox="0 0 175 71" style="enable-background:new 0 0 175 71;" xml:space="preserve">
<style type="text/css">
	.st0{fill:#00FF00;}
	.st1{fill:#FFFFFF;}
	.st2{fill:#1F191A;}
</style>
<path class="st0" d="M5.7,0h163.7c3.1,0,5.7,2.5,5.7,5.7v59.7c0,3.1-2.5,5.7-5.7,5.7H5.7C2.5,71,0,68.5,0,65.3V5.7
	C0,2.5,2.5,0,5.7,0z"/>
<path class="st1" d="M14.5,12.2h9.3c0.1,0,0.2-0.1,0.3-0.1l0.3-0.3c0.1-0.1,0.2-0.2,0.3-0.2c0.1,0,0.2,0,0.2,0.1
	c0.1,0.1,0.1,0.2,0.1,0.3l1,3.8c0,0.1,0,0.2,0,0.3c0,0.1-0.1,0.1-0.2,0.1c-0.1,0-0.2,0-0.2-0.1c-0.1-0.1-0.2-0.2-0.2-0.3
	c-0.2-0.5-0.4-1.1-0.6-1.6c-0.1-0.3-0.3-0.6-0.6-0.9c-0.2-0.2-0.4-0.3-0.6-0.4c-0.3-0.1-0.5-0.1-0.8-0.1h-3.1v15.8
	c0,0.5,0.3,0.9,0.8,0.9c0,0,0.1,0,0.1,0l1.4,0.1c0.3,0,0.5,0.1,0.5,0.3s-0.1,0.3-0.4,0.3h-5.4c-0.1,0-0.2,0-0.3-0.1
	C16,30.2,16,30.1,16,30c0-0.2,0.1-0.3,0.5-0.3l1.4-0.1c0.2,0,0.5-0.1,0.6-0.3c0.2-0.2,0.2-0.4,0.2-0.7V12.8h-3.2
	c-0.3,0-0.7,0.1-1,0.2c-0.3,0.2-0.6,0.5-0.7,0.8c-0.3,0.6-0.6,1.3-0.8,2c0,0.1-0.1,0.2-0.2,0.3c-0.1,0.1-0.2,0.1-0.2,0.1
	c-0.1,0-0.2-0.1-0.2-0.1c0-0.1,0-0.2,0-0.3l0.9-3.8c0-0.1,0.1-0.2,0.1-0.3c0.1-0.1,0.2-0.1,0.2-0.1c0.1,0,0.3,0.1,0.3,0.1
	c0.1,0.1,0.2,0.2,0.3,0.3C14.3,12.1,14.4,12.2,14.5,12.2z M29,19.2v9.6c0,0.2,0,0.4,0.2,0.5c0.1,0.1,0.3,0.2,0.5,0.2l1.1,0.1
	c0.1,0,0.2,0,0.3,0.1c0.1,0.1,0.1,0.1,0.1,0.2c0,0.1,0,0.2-0.1,0.2c-0.1,0-0.2,0.1-0.3,0.1h-4c-0.1,0-0.2,0-0.3-0.1
	c-0.1,0-0.1-0.1-0.1-0.2c0-0.1,0-0.2,0.1-0.2c0.1-0.1,0.2-0.1,0.3-0.1l0.7-0.1c0.2,0,0.4-0.1,0.5-0.2c0.1-0.1,0.2-0.3,0.2-0.5v-8.3
	c0-0.2,0-0.3-0.1-0.4c-0.1-0.1-0.3-0.1-0.4-0.1h-1.2c-0.1,0-0.2,0-0.3-0.1c-0.1,0-0.1-0.1-0.1-0.2c0-0.1,0-0.2,0.1-0.2
	c0.1-0.1,0.2-0.1,0.3-0.1l1.3-0.4l0.4-0.1c0.1,0,0.2,0,0.3,0c0.1,0,0.3,0,0.3,0.1C29,19,29,19.1,29,19.2z M28.5,23.7
	c0-0.9,0.2-1.9,0.6-2.7c0.3-0.7,0.8-1.3,1.4-1.8c0.5-0.4,1.1-0.6,1.8-0.6c0.5,0,1.1,0.1,1.5,0.5c0.4,0.4,0.6,0.8,0.5,1.3
	c0,0.2,0,0.4-0.2,0.6c-0.1,0.1-0.3,0.2-0.4,0.2c-0.2,0-0.3-0.1-0.4-0.2c-0.1-0.2-0.2-0.4-0.2-0.6v-0.3c0-0.3-0.1-0.5-0.3-0.7
	c-0.2-0.2-0.5-0.2-0.7-0.2c-0.5,0-1,0.2-1.5,0.5c-0.5,0.4-0.9,1-1.1,1.6c-0.3,0.8-0.5,1.7-0.5,2.5L28.5,23.7z M44.9,27.4l0.4,0.4
	l-0.7,0.6C44,29,43.2,29.6,42.5,30c-0.7,0.4-1.4,0.5-2.1,0.6c-1.7,0.1-3.2-1.2-3.3-3c0-0.1,0-0.3,0-0.4v-6.6c0-0.2,0-0.3-0.1-0.5
	c-0.1-0.1-0.2-0.2-0.4-0.1h-1.1c-0.1,0-0.2,0-0.3-0.1c-0.1-0.1-0.1-0.3,0-0.4c0,0,0,0,0,0c0.1-0.1,0.2-0.1,0.3-0.1l1.3-0.4l0.4-0.1
	c0.1,0,0.2,0,0.3,0c0.1,0,0.2,0,0.3,0.1c0.1,0.1,0.1,0.2,0.1,0.4V27c-0.1,0.8,0.2,1.6,0.7,2.2c0.5,0.5,1.2,0.8,1.9,0.8
	c0.6,0,1.2-0.2,1.8-0.5c0.8-0.4,1.5-0.9,2.1-1.5L44.9,27.4z M44.5,29.4v-8.9c0-0.2,0-0.3-0.1-0.5C44.3,20,44.1,20,44,20h-1.1
	c-0.1,0-0.2,0-0.3-0.1c-0.1-0.1-0.1-0.1-0.1-0.2c0-0.1,0-0.2,0.1-0.2c0.1-0.1,0.2-0.1,0.3-0.1l1.3-0.4l0.4-0.1c0.1,0,0.2,0,0.3,0
	c0.1,0,0.2,0,0.3,0.1c0.1,0.1,0.1,0.2,0.1,0.4v9.6c0,0.2,0.1,0.3,0.2,0.5c0.1,0.1,0.3,0.2,0.5,0.3l0.7,0.1c0.1,0,0.2,0,0.3,0.1
	c0.1,0.1,0.1,0.1,0.1,0.2c0,0.1,0,0.2-0.1,0.2c-0.1,0-0.2,0.1-0.3,0.1h-1.4c-0.2,0-0.4,0-0.6-0.2C44.6,30,44.5,29.7,44.5,29.4
	L44.5,29.4z M53.4,29.8c0.6,0,1.2-0.2,1.7-0.6c0.4-0.4,0.7-1,0.6-1.5c0-0.4-0.1-0.8-0.4-1.2c-0.3-0.4-0.7-0.7-1.1-0.9
	c-0.6-0.3-1.2-0.5-1.8-0.6c-0.7-0.2-1.3-0.4-1.9-0.8c-0.5-0.3-0.9-0.6-1.3-1.1c-0.3-0.4-0.5-1-0.5-1.5c0-0.8,0.3-1.6,0.9-2.1
	c0.7-0.6,1.7-0.9,2.7-0.9c0.4,0,0.9,0,1.3,0.1c0.3,0.1,0.6,0.2,0.8,0.3c0.2,0.1,0.3,0.1,0.5,0.1c0.1,0,0.2-0.1,0.2-0.1
	c0-0.1,0.1-0.2,0.1-0.3c0-0.1,0.2-0.2,0.3-0.2c0.1,0,0.2,0,0.3,0.1c0.1,0.1,0.2,0.2,0.2,0.4l0.8,2.5c0.1,0.1,0.1,0.3,0.1,0.4
	c0,0.1-0.1,0.2-0.2,0.2c-0.1,0-0.2,0-0.3,0c-0.1-0.1-0.2-0.2-0.2-0.3c-0.2-0.6-0.6-1-1-1.5C55,20,54.5,19.7,54,19.5
	c-0.5-0.2-1-0.3-1.6-0.3c-0.8-0.1-1.5,0.2-2.1,0.6c-0.4,0.4-0.7,1-0.6,1.6c0,0.4,0.1,0.8,0.4,1.2c0.3,0.4,0.7,0.7,1.1,0.9
	c0.6,0.3,1.2,0.5,1.8,0.7c0.7,0.2,1.4,0.4,2,0.7c0.5,0.3,0.9,0.6,1.2,1.1c0.3,0.5,0.4,1,0.4,1.5c0,0.5-0.1,1-0.4,1.4
	c-0.2,0.4-0.6,0.8-1.1,1c-0.5,0.3-1.1,0.4-1.7,0.4c-0.5,0-0.9,0-1.4-0.2c-0.3-0.1-0.6-0.2-0.8-0.4c-0.1-0.1-0.2-0.2-0.4-0.2
	c-0.1,0-0.2,0.1-0.2,0.2l-0.1,0.4c0,0.1-0.1,0.2-0.2,0.2c-0.1,0-0.2,0-0.2-0.1c-0.1-0.1-0.1-0.2-0.1-0.3l-0.6-2.5
	c0-0.2-0.1-0.4-0.1-0.5c0-0.1,0-0.2,0.1-0.2c0,0,0,0,0,0c0.1,0,0.2,0,0.3,0c0.1,0.1,0.2,0.3,0.3,0.4c0.2,0.7,0.7,1.4,1.3,1.9
	C51.9,29.6,52.7,29.8,53.4,29.8z M59.6,19.5l-0.9-0.1c-0.1,0-0.2,0-0.3-0.1c-0.1-0.1-0.1-0.1-0.1-0.2c0-0.1,0-0.1,0.1-0.2
	c0.1-0.1,0.2-0.1,0.2-0.1h0.8c0.2,0,0.3,0,0.5-0.1c0.1-0.1,0.2-0.3,0.2-0.5l0.2-1.6c0-0.1,0.1-0.2,0.1-0.3c0.1-0.1,0.1-0.1,0.2-0.1
	c0.1,0,0.2,0,0.2,0.1c0.1,0.1,0.1,0.2,0.1,0.3v11.5c0,0.4,0.1,0.8,0.4,1.2c0.3,0.3,0.6,0.4,1,0.4c0.2,0,0.4,0,0.6-0.1
	c0.1-0.1,0.3-0.1,0.4-0.2c0.1-0.1,0.2-0.2,0.3-0.2s0.1-0.1,0.2-0.1c0.1,0,0.2,0,0.2,0.1c0.1,0.1,0.1,0.2,0,0.3
	c0,0.2-0.1,0.3-0.3,0.4c-0.2,0.2-0.4,0.3-0.6,0.4c-0.3,0.1-0.6,0.2-0.9,0.1c-0.6,0-1.1-0.2-1.5-0.6c-0.4-0.5-0.7-1.1-0.6-1.7v-7.8
	c0-0.2,0-0.4-0.1-0.6C59.9,19.6,59.8,19.5,59.6,19.5L59.6,19.5z M60.2,19.5v-0.6h3.5c0.1,0,0.2,0,0.3,0.1c0.1,0,0.1,0.1,0.1,0.2
	c0,0.1-0.1,0.2-0.2,0.3c-0.1,0.1-0.3,0.1-0.5,0.1H60.2z M73.9,19.2v9.6c0,0.2,0,0.4,0.2,0.5c0.1,0.1,0.3,0.2,0.5,0.3l0.7,0.1
	c0.3,0,0.4,0.1,0.4,0.3s-0.1,0.3-0.4,0.3h-3.6c-0.1,0-0.2,0-0.3-0.1c-0.1,0-0.1-0.1-0.1-0.2c0-0.1,0-0.2,0.1-0.2
	c0.1-0.1,0.2-0.1,0.3-0.1l0.7-0.1c0.2,0,0.4-0.1,0.5-0.3c0.1-0.1,0.2-0.3,0.2-0.5v-8.3c0-0.2,0-0.3-0.1-0.4
	c-0.1-0.1-0.3-0.1-0.4-0.1h-1.2c-0.1,0-0.2,0-0.3-0.1c-0.1,0-0.1-0.1-0.1-0.2c0-0.1,0-0.2,0.1-0.2c0.1-0.1,0.2-0.1,0.3-0.1l1.3-0.4
	l0.4-0.1c0.1,0,0.2,0,0.3,0c0.1,0,0.3,0,0.3,0.1C73.8,19,73.9,19.1,73.9,19.2L73.9,19.2z M73.6,21.8l-0.4-0.4l0.7-0.6
	c0.7-0.6,1.4-1.1,2.2-1.6c0.7-0.4,1.4-0.5,2.2-0.6c0.9,0,1.7,0.3,2.4,0.9c0.7,0.7,1,1.6,0.9,2.5v6.9c0,0.2,0.1,0.4,0.2,0.5
	c0.1,0.1,0.3,0.2,0.5,0.2l0.7,0.1c0.3,0,0.4,0.2,0.4,0.3s-0.1,0.3-0.4,0.3h-3.6c-0.3,0-0.4-0.1-0.4-0.3s0.1-0.3,0.4-0.3l0.7-0.1
	c0.2,0,0.4-0.1,0.5-0.3c0.1-0.1,0.2-0.3,0.2-0.5v-6.7c0.1-0.8-0.2-1.6-0.7-2.2c-0.5-0.5-1.2-0.8-1.9-0.8c-0.6,0-1.2,0.2-1.8,0.5
	c-0.8,0.4-1.5,0.9-2.1,1.5L73.6,21.8z M81.2,21.5l-0.4-0.4l0.6-0.5c0.6-0.6,1.3-1,2-1.5c0.6-0.3,1.2-0.5,1.9-0.5
	c0.8,0,1.6,0.3,2.2,0.8c0.6,0.7,0.9,1.5,1,2.4l1,7c0,0.2,0.1,0.4,0.2,0.5c0.1,0.1,0.3,0.2,0.5,0.2l0.7,0.1c0.1,0,0.2,0.1,0.3,0.1
	c0.1,0,0.1,0.1,0.1,0.2c0,0.1,0,0.2-0.1,0.2c-0.1,0-0.2,0.1-0.3,0.1h-3.6c-0.3,0-0.4-0.1-0.4-0.3s0.1-0.3,0.4-0.3l0.7-0.1
	c0.2,0,0.4-0.1,0.6-0.2c0.1-0.1,0.2-0.3,0.2-0.5l-1-6.8c-0.1-0.8-0.3-1.5-0.8-2.1c-0.4-0.5-1.1-0.7-1.7-0.7c-0.5,0-1.1,0.2-1.6,0.4
	C83,20,82.3,20.5,81.7,21L81.2,21.5z M102,23c0,0.3-0.1,0.6-0.3,0.8c-0.3,0.2-0.6,0.3-0.9,0.3h-8v-0.7h7.5c0.5,0,0.7-0.2,0.7-0.6
	c0-0.9-0.3-1.8-0.9-2.5c-0.6-0.7-1.6-1-2.5-1c-0.8,0-1.6,0.2-2.3,0.7c-0.7,0.5-1.2,1.1-1.5,1.9c-0.4,0.8-0.6,1.8-0.5,2.7
	c-0.1,1.4,0.4,2.8,1.2,3.9c0.8,0.9,2,1.4,3.2,1.4c0.9,0,1.8-0.2,2.6-0.8c0.6-0.5,1-1.1,1.2-1.8c0-0.1,0.1-0.2,0.1-0.3
	c0-0.1,0.1-0.1,0.2-0.1c0.1,0,0.2,0,0.2,0.1c0,0.1,0,0.2,0,0.2c-0.1,0.6-0.3,1.2-0.7,1.6c-0.4,0.5-0.9,1-1.5,1.2
	c-0.7,0.3-1.4,0.5-2.2,0.5c-1,0-2-0.2-2.8-0.8c-0.8-0.5-1.4-1.2-1.8-2.1c-0.4-1-0.7-2-0.6-3c0-1.1,0.2-2.1,0.7-3.1
	c0.4-0.9,1.1-1.7,2-2.2c0.8-0.5,1.8-0.8,2.8-0.8c0.8,0,1.5,0.2,2.2,0.5c0.6,0.4,1.2,0.9,1.5,1.5C101.8,21.4,102,22.2,102,23z
	 M105,30.2c-0.3,0-0.5-0.1-0.7-0.3c-0.2-0.2-0.3-0.4-0.3-0.7c0-0.3,0.1-0.5,0.3-0.7c0.2-0.2,0.5-0.3,0.7-0.3c0.3,0,0.7,0.2,0.9,0.4
	c0.3,0.4,0.4,1,0.4,1.5c0,0.5-0.1,1.1-0.2,1.6c-0.1,0.4-0.3,0.8-0.5,1.1c-0.2,0.3-0.4,0.5-0.7,0.7c-0.2,0.1-0.4,0.3-0.7,0.4
	c-0.1,0-0.2,0-0.3,0c-0.1,0-0.1-0.1-0.2-0.1c0-0.1,0-0.2,0-0.3c0.1-0.1,0.2-0.2,0.3-0.2c0.3-0.2,0.6-0.4,0.8-0.6
	c0.2-0.3,0.4-0.6,0.5-1c0.1-0.4,0.2-0.8,0.2-1.1c0-0.1,0-0.3-0.1-0.4c-0.1-0.1-0.2-0.1-0.4-0.1L105,30.2z M116.5,28.6
	c0,0.2,0.1,0.5,0.2,0.6c0.2,0.2,0.4,0.3,0.7,0.3l0.8,0.1c0.3,0.1,0.5,0.2,0.5,0.3c0,0.1,0,0.2-0.1,0.2c-0.1,0.1-0.2,0.1-0.3,0.1
	h-4.4c-0.1,0-0.2,0-0.3-0.1c-0.1-0.1-0.1-0.1-0.1-0.2c0-0.2,0.2-0.3,0.5-0.3l0.8-0.1c0.2,0,0.5-0.1,0.7-0.3c0.2-0.2,0.2-0.4,0.2-0.6
	V13.8c0-0.2-0.1-0.5-0.2-0.6c-0.2-0.2-0.4-0.3-0.6-0.3l-0.8-0.1c-0.3-0.1-0.5-0.2-0.5-0.3c0-0.1,0-0.2,0.1-0.2
	c0.1-0.1,0.2-0.1,0.3-0.1h4.4c0.1,0,0.2,0,0.3,0.1c0.1,0.1,0.1,0.1,0.1,0.2c0,0.2-0.2,0.3-0.5,0.3l-0.9,0.1c-0.2,0-0.4,0.1-0.6,0.3
	c-0.2,0.2-0.2,0.4-0.2,0.6L116.5,28.6z M121,13.1c-0.2,0-0.5-0.1-0.6-0.3c-0.2-0.2-0.2-0.4-0.2-0.7c0-0.3,0.1-0.5,0.3-0.7
	c0.2-0.2,0.4-0.3,0.7-0.3c0.3,0,0.7,0.2,0.8,0.5c0.3,0.5,0.4,1,0.3,1.6c0,0.5-0.1,0.9-0.2,1.4c-0.1,0.4-0.4,0.7-0.6,1
	c-0.3,0.3-0.6,0.5-1,0.6c-0.1,0-0.2,0-0.3,0c-0.1,0-0.1-0.1-0.2-0.2c0-0.1,0-0.1,0-0.2c0.1-0.1,0.1-0.1,0.2-0.2
	c0.3-0.1,0.5-0.2,0.7-0.4c0.2-0.2,0.4-0.5,0.5-0.7c0.1-0.3,0.2-0.6,0.2-0.9c0-0.1,0-0.3-0.1-0.4c-0.1-0.1-0.2-0.1-0.3-0.1L121,13.1z
	 M126.1,19.2v9.6c0,0.2,0,0.4,0.2,0.5c0.1,0.1,0.3,0.2,0.5,0.3l0.7,0.1c0.3,0,0.4,0.1,0.4,0.3s-0.1,0.3-0.4,0.3h-3.6
	c-0.1,0-0.2,0-0.3-0.1c-0.1,0-0.1-0.1-0.1-0.2c0-0.1,0-0.2,0.1-0.2c0.1-0.1,0.2-0.1,0.3-0.1l0.7-0.1c0.2,0,0.4-0.1,0.5-0.3
	c0.1-0.1,0.2-0.3,0.2-0.5v-8.3c0-0.2,0-0.3-0.1-0.4c-0.1-0.1-0.3-0.1-0.4-0.1h-1.2c-0.1,0-0.2,0-0.3-0.1c-0.1,0-0.1-0.1-0.1-0.2
	c0-0.1,0-0.2,0.1-0.2c0.1-0.1,0.2-0.1,0.3-0.1l1.3-0.4l0.4-0.1c0.1,0,0.2,0,0.3,0c0.1,0,0.3,0,0.3,0.1
	C126.1,19,126.1,19.1,126.1,19.2z M125.8,21.8l-0.4-0.4l0.7-0.6c0.7-0.6,1.4-1.1,2.2-1.6c0.7-0.4,1.4-0.5,2.1-0.6
	c0.9,0,1.7,0.3,2.4,0.9c0.6,0.7,1,1.6,0.9,2.5v6.9c0,0.2,0.1,0.4,0.2,0.5c0.1,0.1,0.3,0.2,0.5,0.2l0.7,0.1c0.3,0,0.4,0.2,0.4,0.3
	s-0.1,0.3-0.4,0.3h-3.6c-0.3,0-0.4-0.1-0.4-0.3s0.1-0.3,0.4-0.3l0.7-0.1c0.2,0,0.4-0.1,0.5-0.3c0.1-0.1,0.2-0.3,0.2-0.5v-6.6
	c0.1-0.8-0.2-1.6-0.7-2.2c-0.5-0.5-1.2-0.8-1.9-0.8c-0.6,0-1.2,0.2-1.8,0.5c-0.8,0.4-1.5,0.9-2.1,1.5L125.8,21.8z M133.4,21.5
	l-0.4-0.4l0.6-0.5c0.6-0.6,1.3-1,2-1.5c0.6-0.3,1.2-0.5,1.9-0.5c0.8,0,1.6,0.3,2.2,0.8c0.6,0.7,0.9,1.5,1,2.4l1,7
	c0,0.2,0.1,0.4,0.2,0.5c0.1,0.1,0.3,0.2,0.5,0.2l0.7,0.1c0.1,0,0.2,0.1,0.3,0.1c0.1,0,0.1,0.1,0.1,0.2c0,0.1,0,0.2-0.1,0.2
	c-0.1,0-0.2,0.1-0.3,0.1h-3.6c-0.3,0-0.4-0.1-0.4-0.3s0.1-0.3,0.4-0.3l0.7-0.1c0.2,0,0.4-0.1,0.6-0.2c0.1-0.1,0.2-0.3,0.1-0.5
	l-1-6.8c-0.1-0.8-0.3-1.5-0.8-2.1c-0.4-0.5-1.1-0.7-1.7-0.7c-0.5,0-1.1,0.2-1.6,0.4c-0.7,0.4-1.3,0.8-1.9,1.3L133.4,21.5z
	 M157.7,25.7c-0.4-0.1-0.9-0.3-1.4-0.4c-0.5-0.1-1.1-0.2-1.6-0.1c-0.9,0-1.8,0.2-2.6,0.6c-0.6,0.4-1,1.1-1,1.9
	c0,0.6,0.2,1.3,0.7,1.7c0.5,0.4,1.2,0.6,1.8,0.5c0.8,0,1.6-0.2,2.3-0.6c0.8-0.4,1.5-1,2-1.7l0.3,0.5c-0.5,0.8-1.2,1.4-2,1.9
	c-0.8,0.4-1.7,0.7-2.6,0.7c-0.9,0-1.7-0.2-2.4-0.7c-0.6-0.5-1-1.3-0.9-2.1c0-0.9,0.4-1.8,1.2-2.3c1-0.7,2.1-1,3.3-0.9
	c0.5,0,1,0.1,1.6,0.1c0.5,0.1,1,0.2,1.4,0.4L157.7,25.7z M150.9,21.7c0-0.5,0.2-1.1,0.5-1.5c0.3-0.5,0.8-0.9,1.4-1.2
	c0.7-0.3,1.4-0.5,2.1-0.4c0.9-0.1,1.8,0.3,2.5,0.9c0.6,0.6,1,1.5,0.9,2.4v7.2c0,0.2,0,0.4,0.2,0.6c0.1,0.1,0.3,0.2,0.5,0.2
	c0.2,0,0.3,0,0.5-0.1c0.1-0.1,0.2-0.2,0.2-0.3c0-0.1,0.1-0.1,0.2-0.1c0.1,0,0.1,0,0.2,0.1c0.1,0.1,0.1,0.2,0.1,0.2
	c0,0.2-0.1,0.3-0.2,0.4c-0.1,0.1-0.3,0.3-0.4,0.3c-0.2,0.1-0.4,0.1-0.6,0.1c-0.7,0.1-1.3-0.4-1.4-1.1c0-0.1,0-0.2,0-0.3v-7
	c0.1-0.8-0.2-1.5-0.8-2.1c-0.6-0.5-1.3-0.8-2.1-0.7c-0.7,0-1.3,0.1-1.9,0.5c-0.4,0.3-0.6,0.8-0.6,1.2v0.7c0,0.2,0,0.4-0.2,0.5
	c-0.1,0.1-0.3,0.2-0.5,0.2c-0.2,0-0.3-0.1-0.4-0.2C151,22,150.9,21.8,150.9,21.7L150.9,21.7z"/>
<path class="st2" d="M14.7,37h10.6c0.2,0,0.5,0,0.7-0.1l0.5-0.2c0.1,0,0.2-0.1,0.4-0.1c0.1,0,0.3,0,0.3,0.2c0.1,0.2,0.2,0.3,0.2,0.5
	l0.9,5.2c0.1,0.1,0.1,0.3,0,0.4c-0.1,0.1-0.1,0.2-0.3,0.2c-0.1,0-0.2,0-0.3,0c-0.1-0.1-0.2-0.2-0.2-0.3c-0.4-0.9-0.8-1.7-1.2-2.5
	c-0.3-0.5-0.6-1-1-1.5c-0.3-0.3-0.6-0.5-0.9-0.7C24,38,23.7,38,23.4,38h-0.9v15.6c0,0.1,0,0.3,0.1,0.3c0.1,0.1,0.3,0.2,0.5,0.2
	l0.8,0.1c0.2,0.1,0.4,0.2,0.4,0.4s-0.2,0.4-0.5,0.4h-7.3c-0.1,0-0.3,0-0.4-0.1c-0.1-0.1-0.1-0.2-0.1-0.3c0-0.2,0.1-0.3,0.4-0.4
	l0.8-0.2c0.2,0,0.3-0.1,0.5-0.2c0.1-0.1,0.1-0.2,0.1-0.3V37.9h-0.9c-0.4,0-0.8,0.2-1.1,0.4c-0.5,0.4-1,0.9-1.3,1.5
	c-0.6,1-1.2,2-1.7,3c0,0.1-0.1,0.2-0.2,0.3c-0.1,0-0.2,0-0.3,0c-0.1,0-0.2-0.1-0.2-0.2c0-0.1,0-0.3,0-0.4l0.9-5.3
	c0-0.2,0.1-0.4,0.2-0.5c0.1-0.1,0.2-0.2,0.3-0.2c0.1,0,0.2,0,0.4,0.1l0.5,0.2C14.3,36.9,14.5,37,14.7,37z M36.8,51.9l-2.2,4.9L30,46
	c-0.2-0.4-0.4-0.8-0.6-1.2c-0.2-0.3-0.4-0.5-0.7-0.5c-0.1,0-0.2-0.1-0.2-0.2c0-0.1,0-0.1,0-0.2c0-0.1,0-0.2,0.1-0.3
	c0.1-0.1,0.2-0.1,0.3-0.1H35c0.1,0,0.2,0,0.2,0.1c0.1,0.1,0.1,0.2,0.1,0.2c0,0.1,0,0.2-0.1,0.2c-0.1,0.1-0.1,0.1-0.2,0.1l-0.6,0.1
	c-0.2,0-0.4,0.2-0.4,0.4c0,0.3,0,0.6,0.2,0.8L36.8,51.9z M34.3,57.2l0.9-2.2l0.4-1l3-8.2c0.1-0.3,0.2-0.6,0.1-0.9
	c-0.1-0.2-0.3-0.4-0.6-0.4l-0.5-0.2c-0.1,0-0.1-0.1-0.2-0.1c0-0.1-0.1-0.1-0.1-0.2c0-0.1,0-0.2,0.1-0.2c0.1-0.1,0.2-0.1,0.3-0.1h3.1
	c0.1,0,0.2,0,0.3,0.1c0.1,0.1,0.1,0.2,0.1,0.3c0,0.1,0,0.1-0.1,0.2c-0.1,0.1-0.1,0.1-0.2,0.2c-0.3,0.1-0.7,0.2-0.9,0.5
	c-0.3,0.3-0.5,0.7-0.6,1.1L35,57.3c-0.4,1-0.7,1.8-1,2.4c-0.2,0.5-0.6,1-1,1.3c-0.5,0.3-1,0.5-1.5,0.4c-0.8,0-1.5-0.2-2.1-0.8
	c-0.5-0.5-0.8-1.3-0.8-2c0-0.5,0.1-0.9,0.4-1.2c0.3-0.3,0.7-0.5,1.1-0.5c0.3,0,0.7,0.1,0.9,0.3c0.3,0.3,0.5,0.7,0.7,1.1l0.2,0.6
	c0.1,0.3,0.2,0.5,0.4,0.8c0.1,0.2,0.3,0.3,0.5,0.3c0.2,0,0.3-0.1,0.4-0.3c0.2-0.3,0.3-0.7,0.5-1C33.9,58.3,34.1,57.8,34.3,57.2z
	 M46.2,43.7v15.9c0,0.2,0,0.3,0.1,0.5c0.1,0.1,0.1,0.2,0.2,0.2l0.5,0.1c0.1,0,0.1,0.1,0.2,0.2c0,0.1,0.1,0.1,0,0.2
	c0,0.2-0.1,0.3-0.3,0.3c0,0,0,0-0.1,0h-5.5c-0.1,0-0.2,0-0.3-0.1c-0.1-0.1-0.1-0.1-0.1-0.2c0-0.1,0-0.2,0.1-0.2
	c0.1-0.1,0.1-0.1,0.2-0.2l0.4-0.1c0.1,0,0.2-0.1,0.3-0.2c0.1-0.1,0.1-0.3,0.1-0.5V45.7c0-0.1,0-0.2-0.1-0.3
	c-0.1-0.1-0.1-0.1-0.2-0.1h-0.5c-0.1,0-0.1-0.1-0.2-0.1c0-0.1,0-0.1,0-0.2c0-0.1,0-0.2,0.1-0.2c0.1-0.1,0.2-0.1,0.3-0.2l3.7-1.1
	l0.4-0.1c0.1,0,0.2,0,0.3,0c0.1,0,0.2,0,0.3,0.1C46.2,43.5,46.2,43.6,46.2,43.7z M45.9,46.2l-0.3-0.4c0.5-0.7,1.1-1.4,1.8-1.8
	c0.7-0.4,1.5-0.6,2.2-0.6c0.9,0,1.7,0.2,2.5,0.7c0.7,0.5,1.3,1.1,1.7,1.9c0.4,0.9,0.6,2,0.6,3c0,1.2-0.2,2.3-0.7,3.4
	c-0.4,0.9-1.1,1.7-2,2.2c-0.9,0.5-1.8,0.8-2.8,0.8c-0.7,0-1.4-0.1-2-0.5c-0.6-0.3-1-0.8-1.3-1.4l0.5-0.5c0.2,0.4,0.5,0.7,0.8,1
	c0.3,0.2,0.6,0.3,1,0.3c0.4,0,0.9-0.2,1.2-0.5c0.4-0.4,0.7-0.9,0.8-1.5c0.2-1,0.3-2,0.3-3c0-0.9-0.1-1.9-0.3-2.8
	C49.6,46,49.4,45.4,49,45c-0.3-0.2-0.6-0.4-1-0.4c-0.4,0-0.8,0.1-1.1,0.4C46.5,45.3,46.1,45.7,45.9,46.2z M61.6,43.3
	c1.1,0,2.2,0.2,3.2,0.8c0.9,0.5,1.7,1.2,2.2,2.1c0.5,1,0.8,2,0.8,3.1c0,1.1-0.3,2.2-0.8,3.1c-0.5,0.9-1.3,1.6-2.2,2.1
	c-1,0.5-2.1,0.8-3.3,0.8c-1.1,0-2.2-0.2-3.2-0.8c-0.9-0.5-1.7-1.2-2.2-2.1c-0.5-1-0.8-2-0.8-3.1c0-1.1,0.3-2.1,0.8-3.1
	c0.5-0.9,1.3-1.7,2.2-2.2C59.3,43.6,60.4,43.3,61.6,43.3z M62.3,54.5c0.4-0.1,0.7-0.3,0.9-0.7c0.2-0.6,0.4-1.2,0.4-1.8
	c0-1-0.1-2-0.2-3c-0.1-1-0.4-1.9-0.7-2.9c-0.2-0.6-0.5-1.1-0.9-1.6c-0.4-0.5-1.1-0.6-1.6-0.2c-0.2,0.1-0.3,0.3-0.4,0.5
	c-0.2,0.6-0.4,1.2-0.3,1.8c0,1,0.1,2,0.2,2.9c0.1,1,0.4,1.9,0.7,2.9c0.2,0.6,0.5,1.1,0.9,1.6C61.5,54.4,61.9,54.5,62.3,54.5z
	 M79.1,54.6c0.6,0.2,1.1,0.6,1.5,1.1c0.3,0.5,0.5,1.1,0.4,1.7c0,1.2-0.6,2.4-1.7,3c-1.5,0.8-3.2,1.2-4.9,1.1c-1.2,0-2.4-0.1-3.6-0.3
	c-0.7-0.1-1.4-0.4-2-0.9c-0.4-0.4-0.6-0.9-0.6-1.4c0-0.7,0.3-1.3,0.8-1.7c0.8-0.5,1.8-0.8,2.8-0.8l0.1,0.2c-0.2,0.1-0.4,0.3-0.5,0.5
	c-0.1,0.2-0.2,0.4-0.2,0.7c0,0.8,0.3,1.6,0.9,2.2c0.8,0.6,1.7,0.9,2.7,0.8c0.6,0,1.1,0,1.7-0.2c0.4-0.1,0.7-0.3,0.9-0.5
	c0.2-0.3,0.3-0.6,0.3-0.9c0-0.3-0.1-0.6-0.3-0.8c-0.3-0.3-0.7-0.5-1.1-0.6c-0.8-0.2-1.5-0.4-2.3-0.5c-0.9-0.1-1.7-0.3-2.5-0.6
	c-0.5-0.1-1-0.4-1.3-0.8c-0.3-0.3-0.4-0.7-0.4-1.2c0-0.4,0.1-0.8,0.4-1.2c0.3-0.4,0.7-0.7,1.2-0.9c0.7-0.3,1.5-0.4,2.3-0.5l0.1,0.1
	c-0.1,0-0.2,0.1-0.3,0.2c-0.1,0.1-0.1,0.2-0.1,0.4c0,0.2,0.1,0.3,0.2,0.4c0.3,0.2,0.6,0.3,0.9,0.3c0.4,0.1,1.1,0.2,2,0.4
	C77.2,54,78.2,54.3,79.1,54.6z M79.5,50.1c-0.5,0.7-1.2,1.3-2,1.7c-0.9,0.4-1.9,0.6-2.9,0.6c-1.1,0-2.2-0.2-3.2-0.6
	c-0.8-0.3-1.5-0.9-2-1.5c-0.5-0.6-0.8-1.4-0.8-2.2c0-0.9,0.2-1.7,0.7-2.4c0.5-0.7,1.3-1.3,2.1-1.7c1-0.4,2.1-0.7,3.2-0.6
	c1.1,0,2.1,0.2,3.1,0.6c0.8,0.4,1.4,0.9,1.9,1.6C80.5,46.9,80.5,48.7,79.5,50.1L79.5,50.1z M73.1,44.5c-0.2,0.4-0.4,0.9-0.4,1.3
	c0,0.7,0,1.4,0.1,2c0.1,0.7,0.3,1.4,0.5,2c0.2,0.5,0.4,0.9,0.8,1.2c0.2,0.3,0.5,0.4,0.9,0.4c0.4,0,0.8-0.4,1-1.1
	c0.2-0.9,0.2-1.9,0-2.8c-0.1-1-0.4-1.9-0.9-2.8c-0.4-0.6-0.8-0.9-1.3-0.9C73.5,44,73.2,44.2,73.1,44.5z M76.5,43.6
	c0.3-0.8,0.7-1.5,1.3-2.1c0.5-0.5,1.2-0.8,1.9-0.8c0.5,0,1.1,0.2,1.5,0.5c0.3,0.4,0.5,0.9,0.5,1.4c0,0.5-0.1,0.9-0.4,1.3
	c-0.3,0.3-0.7,0.5-1.1,0.5c-0.3,0-0.5-0.1-0.7-0.2c-0.2-0.1-0.4-0.3-0.5-0.5c-0.1-0.2-0.3-0.4-0.5-0.5c-0.1-0.1-0.3-0.2-0.5-0.2
	c-0.2,0-0.5,0.1-0.7,0.3c-0.2,0.3-0.4,0.6-0.5,0.9h-0.5L76.5,43.6z M86.8,43.9l0.1,3.6v6.1c0,0.2,0.1,0.3,0.2,0.5
	c0.1,0.1,0.2,0.2,0.3,0.2l1.1,0.2c0.1,0,0.2,0.1,0.2,0.1c0,0.1,0.1,0.1,0.1,0.2c0,0.1,0,0.2-0.1,0.2c-0.1,0.1-0.2,0.1-0.3,0.1H82
	c-0.1,0-0.2,0-0.3-0.1c-0.1-0.1-0.1-0.1-0.1-0.2c0-0.1,0-0.2,0.1-0.2c0.1-0.1,0.1-0.1,0.2-0.2l0.4-0.1c0.1,0,0.2-0.1,0.3-0.2
	c0-0.1,0.1-0.3,0.1-0.4v-8c0-0.1,0-0.2,0-0.3c0-0.1-0.1-0.1-0.2-0.1h-0.6c-0.1,0-0.1-0.1-0.2-0.1c0,0-0.1-0.1-0.1-0.2
	c0-0.1,0-0.2,0.1-0.2c0.1-0.1,0.2-0.1,0.3-0.2l3.8-1l0.4-0.1h0.2c0.1,0,0.2,0,0.2,0.1C86.7,43.7,86.8,43.8,86.8,43.9z M86.6,48.4
	c0-1,0.1-2,0.5-2.9c0.3-0.7,0.7-1.3,1.3-1.7c0.5-0.4,1.1-0.6,1.7-0.6c0.6,0,1.2,0.2,1.6,0.7c0.4,0.6,0.6,1.3,0.6,2
	c0.1,0.7-0.1,1.4-0.6,1.9c-0.4,0.4-0.9,0.6-1.4,0.6c-0.5,0-0.9-0.1-1.2-0.4c-0.3-0.4-0.4-0.8-0.4-1.2v-0.5c0-0.2,0-0.4-0.1-0.5
	c-0.1-0.1-0.3-0.2-0.4-0.2c-0.2,0-0.4,0.1-0.6,0.3c-0.2,0.3-0.3,0.6-0.4,0.9c-0.1,0.5-0.1,1-0.1,1.6L86.6,48.4z M99.1,50.1
	c-0.2-0.1-0.4-0.2-0.7-0.3c-0.2-0.1-0.5-0.1-0.7-0.1c-0.4,0-0.8,0.2-1.1,0.5c-0.3,0.5-0.4,1-0.4,1.6c0,0.5,0.1,1,0.4,1.5
	c0.2,0.3,0.6,0.5,1,0.5c0.3,0,0.5-0.1,0.8-0.2c0.2-0.1,0.4-0.3,0.6-0.6l0.2,0.4c-0.4,0.6-0.9,1.1-1.5,1.4c-0.7,0.3-1.4,0.5-2.2,0.5
	c-0.9,0-1.8-0.3-2.5-0.8c-0.6-0.5-0.9-1.3-0.9-2.1c0-1,0.5-1.9,1.3-2.4c1.2-0.7,2.6-1,4-0.9c0.4,0,0.7,0,1.1,0.1
	c0.3,0.1,0.5,0.2,0.8,0.3L99.1,50.1z M92.8,46.5c0-0.5,0.2-1.1,0.6-1.5c0.5-0.5,1.1-1,1.8-1.2c1-0.3,2-0.5,3-0.5
	c1.2-0.1,2.5,0.2,3.5,0.9c0.8,0.6,1.2,1.6,1.2,2.6V53c0,0.2,0,0.4,0.1,0.5c0.2,0.2,0.4,0.2,0.6,0c0,0,0,0,0,0
	c0.1-0.1,0.2-0.2,0.2-0.3c0.1-0.1,0.1-0.2,0.2-0.2c0.1,0,0.1,0,0.2,0.1c0,0.1,0,0.1,0,0.2c0,0.3-0.1,0.6-0.3,0.8
	c-0.3,0.4-0.6,0.6-1,0.8c-0.6,0.3-1.2,0.4-1.8,0.4c-0.6,0-1.2-0.1-1.7-0.5c-0.4-0.3-0.6-0.7-0.6-1.2l-0.2-0.1v-8.3
	c0-0.4-0.1-0.7-0.3-1c-0.2-0.2-0.5-0.3-0.8-0.3c-0.3,0-0.6,0.1-0.8,0.3c-0.2,0.2-0.3,0.4-0.3,0.7V46c0,0.5-0.2,1-0.6,1.4
	c-0.4,0.4-1,0.6-1.5,0.6c-0.4,0-0.9-0.1-1.2-0.4C92.9,47.3,92.7,46.9,92.8,46.5L92.8,46.5z M109.6,43.7v15.9c0,0.2,0,0.3,0.1,0.5
	c0.1,0.1,0.1,0.2,0.2,0.2l0.5,0.1c0.1,0,0.2,0.1,0.2,0.2c0,0.1,0,0.1,0,0.2c0,0.2-0.1,0.3-0.3,0.3c0,0,0,0-0.1,0h-5.6
	c-0.1,0-0.2,0-0.3-0.1c-0.1-0.1-0.1-0.1-0.1-0.2c0-0.1,0-0.2,0.1-0.2c0.1-0.1,0.1-0.1,0.2-0.2l0.4-0.1c0.1,0,0.2-0.1,0.3-0.2
	c0.1-0.1,0.1-0.3,0.1-0.5V45.7c0-0.1,0-0.2-0.1-0.3c-0.1-0.1-0.1-0.1-0.2-0.1h-0.5c-0.1,0-0.1-0.1-0.2-0.1c0-0.1-0.1-0.1-0.1-0.2
	c0-0.1,0-0.2,0.1-0.2c0.1-0.1,0.2-0.1,0.3-0.2l3.7-1.1c0.2-0.1,0.3-0.1,0.4-0.1c0.1,0,0.2,0,0.3,0c0.1,0,0.2,0,0.3,0.1
	C109.5,43.5,109.6,43.6,109.6,43.7L109.6,43.7z M109.2,46.2l-0.3-0.4c0.5-0.7,1.1-1.4,1.8-1.8c0.7-0.4,1.4-0.6,2.2-0.6
	c0.9,0,1.7,0.2,2.5,0.7c0.7,0.5,1.3,1.1,1.7,1.9c0.4,0.9,0.6,2,0.6,3c0,1.2-0.2,2.3-0.7,3.4c-0.9,1.9-2.8,3-4.8,3
	c-0.7,0-1.4-0.1-2.1-0.5c-0.6-0.3-1-0.8-1.3-1.4l0.5-0.5c0.2,0.4,0.4,0.7,0.8,1c0.3,0.2,0.6,0.3,1,0.3c0.4,0,0.9-0.2,1.2-0.5
	c0.4-0.4,0.7-0.9,0.8-1.5c0.2-1,0.3-2,0.3-3c0-0.9-0.1-1.9-0.3-2.8c-0.1-0.6-0.4-1.1-0.7-1.5c-0.3-0.3-0.7-0.5-1.1-0.5
	c-0.4,0-0.8,0.1-1.1,0.4C109.8,45.3,109.4,45.7,109.2,46.2z M123.8,36.1v17.5c0,0.2,0,0.3,0.1,0.5c0,0.1,0.1,0.2,0.3,0.2l0.5,0.1
	c0.1,0.1,0.2,0.2,0.2,0.3c0,0.2-0.1,0.3-0.3,0.3H119c-0.1,0-0.2,0-0.3-0.1c-0.1-0.1-0.1-0.2-0.1-0.2c0-0.1,0-0.1,0.1-0.2
	c0.1-0.1,0.1-0.1,0.2-0.2l0.5-0.1c0.1,0,0.2-0.1,0.2-0.2c0.1-0.1,0.1-0.3,0.1-0.5V38.1c0-0.1,0-0.2-0.1-0.3
	c-0.1-0.1-0.1-0.1-0.2-0.1h-0.5c-0.1,0-0.1-0.1-0.2-0.1c0-0.1-0.1-0.1-0.1-0.2c0-0.1,0-0.2,0.1-0.2c0.1-0.1,0.2-0.1,0.3-0.2l3.8-1.2
	l0.4-0.1h0.3c0.1,0,0.2,0,0.3,0.1C123.8,35.9,123.8,36,123.8,36.1z M123.4,46.6l-0.3-0.4l0.5-0.5c0.7-0.7,1.6-1.3,2.4-1.9
	c0.6-0.4,1.3-0.6,1.9-0.6c0.7,0,1.4,0.2,1.9,0.7c0.5,0.6,0.8,1.4,0.8,2.2l0.8,7.3c0,0.2,0.1,0.3,0.1,0.5c0.1,0.1,0.1,0.2,0.2,0.2
	l0.4,0.1c0.1,0,0.1,0.1,0.2,0.2c0,0.1,0.1,0.1,0.1,0.2c0,0.1,0,0.2-0.1,0.2c-0.1,0.1-0.2,0.1-0.2,0.1h-5.6c-0.2,0-0.3-0.1-0.3-0.2
	c0,0,0-0.1,0-0.1c0-0.2,0.1-0.3,0.2-0.3l0.4-0.1c0.1,0,0.2-0.1,0.3-0.2c0-0.2,0-0.3,0-0.5l-0.7-6.6c0-0.4-0.2-0.8-0.4-1.2
	c-0.2-0.3-0.5-0.4-0.8-0.4c-0.2,0-0.5,0.1-0.7,0.2c-0.3,0.2-0.5,0.3-0.8,0.5L123.4,46.6z M144,48.3c0,0.2-0.1,0.4-0.2,0.6
	c-0.2,0.1-0.4,0.2-0.6,0.2h-7.6v-0.6h3.9c0.2,0,0.4-0.1,0.4-0.4c0.1-1-0.1-2-0.5-3c-0.3-0.6-0.7-0.9-1.1-0.9c-0.3,0-0.6,0.1-0.8,0.4
	c-0.3,0.3-0.5,0.8-0.6,1.2c-0.2,0.7-0.2,1.5-0.2,2.2c-0.1,1.3,0.2,2.6,1,3.7c0.7,0.8,1.7,1.2,2.7,1.2c0.7,0,1.5-0.2,2.1-0.6
	c0.5-0.4,0.9-1,1-1.6c0-0.1,0.1-0.1,0.1-0.2c0,0,0.1,0,0.1,0c0.1,0,0.1,0,0.1,0.1c0.1,0.1,0.1,0.1,0.1,0.2c0,0.8-0.3,1.7-0.7,2.3
	c-0.5,0.7-1.1,1.3-1.9,1.7c-0.9,0.4-1.8,0.6-2.8,0.6c-1.1,0-2.1-0.2-3.1-0.7c-0.9-0.5-1.6-1.2-2.1-2.1c-0.5-0.9-0.7-2-0.7-3
	c0-1.1,0.2-2.2,0.7-3.3c0.5-0.9,1.2-1.7,2.1-2.2c1-0.5,2.1-0.8,3.2-0.8c1,0,1.9,0.2,2.8,0.7c0.8,0.4,1.4,1,1.8,1.8
	C143.7,46.6,144,47.4,144,48.3L144,48.3z M150,43.8l0.1,3.6v6.1c0,0.1,0,0.3,0.1,0.4c0.1,0.1,0.2,0.2,0.3,0.2l1.1,0.2
	c0.1,0,0.2,0.1,0.2,0.1c0,0.1,0.1,0.1,0.1,0.2c0,0.1,0,0.2-0.1,0.2c-0.1,0.1-0.2,0.1-0.3,0.1h-6.3c-0.1,0-0.2,0-0.3-0.1
	c-0.1-0.1-0.1-0.1-0.1-0.2c0-0.1,0-0.2,0.1-0.2c0.1-0.1,0.1-0.1,0.2-0.2l0.4-0.1c0.1,0,0.2-0.1,0.3-0.2c0.1-0.1,0.1-0.3,0.1-0.4v-8
	c0-0.1,0-0.2-0.1-0.3c0-0.1-0.1-0.1-0.2-0.1h-0.6c-0.1,0-0.1-0.1-0.1-0.1c0,0-0.1-0.1-0.1-0.2c0-0.1,0-0.2,0.1-0.2
	c0.1-0.1,0.2-0.1,0.3-0.2l3.8-1l0.4-0.1h0.2c0.1,0,0.2,0,0.2,0.1C150,43.6,150,43.7,150,43.8L150,43.8z M149.8,48.4
	c0-1,0.1-2,0.5-2.9c0.3-0.7,0.7-1.3,1.3-1.7c0.5-0.4,1.1-0.6,1.7-0.6c0.6,0,1.2,0.2,1.6,0.7c0.4,0.6,0.6,1.3,0.6,2
	c0.1,0.7-0.1,1.4-0.6,1.9c-0.4,0.4-0.9,0.6-1.4,0.6c-0.5,0-0.9-0.1-1.2-0.4c-0.3-0.4-0.4-0.8-0.4-1.2v-0.5c0-0.2,0-0.4-0.1-0.5
	c-0.1-0.1-0.3-0.2-0.4-0.2c-0.2,0-0.4,0.1-0.6,0.3c-0.2,0.3-0.3,0.6-0.4,0.9c-0.1,0.5-0.1,1-0.1,1.6L149.8,48.4z M157.6,55.3
	c-0.4,0-0.9-0.1-1.2-0.3c-0.4-0.2-0.7-0.5-0.9-0.9c-0.2-0.4-0.3-0.8-0.3-1.3c0-0.4,0.1-0.8,0.3-1.2c0.2-0.4,0.5-0.7,0.9-0.9
	c0.4-0.2,0.8-0.4,1.2-0.3c0.4,0,0.9,0.1,1.3,0.3c0.4,0.2,0.7,0.5,0.9,0.9c0.2,0.4,0.3,0.8,0.3,1.2c0,0.4-0.1,0.9-0.3,1.3
	c-0.2,0.4-0.5,0.7-0.9,0.9C158.4,55.2,158,55.4,157.6,55.3z"/>
</svg>
