<?xml version="1.0" encoding="utf-8"?>
<!-- Generator: Adobe Illustrator 24.0.1, SVG Export Plug-In . SVG Version: 6.00 Build 0)  -->
<svg version="1.1" id="Layer_1" xmlns="http://www.w3.org/2000/svg" xmlns:xlink="http://www.w3.org/1999/xlink" x="0px" y="0px"
	 viewBox="0 0 75 75" style="enable-background:new 0 0 75 75;" xml:space="preserve">
<style type="text/css">
	.st0{fill:#FF00FF;}
</style>
<circle class="st0" cx="37.5" cy="37.5" r="37.5"/>
<path d="M29.3,34.2L33,21.5c0.3-0.7,0.3-1.5,0.1-2.2c-0.2-0.5-0.7-0.9-1.3-1L31.1,18c-0.1-0.1-0.4-0.1-0.5-0.2
	c-0.1-0.1-0.1-0.2-0.1-0.4s0.1-0.2,0.2-0.3c0.1-0.1,0.4-0.1,0.5-0.1h6.3c0.1,0,0.3,0,0.4,0.1c0.1,0.1,0.1,0.1,0.1,0.3
	c0,0.1-0.1,0.3-0.1,0.4C37.8,18,37.6,18,37.4,18l-0.8,0.1c-0.6,0.1-1.1,0.5-1.5,1c-0.5,0.7-0.9,1.5-1,2.3l-3.6,12.7
	c-0.7,2.7-1.9,4.6-3.4,5.8c-1.7,1.3-3.9,1.9-6,1.9c-1.3,0.1-2.5-0.2-3.7-0.7c-1-0.4-1.7-1.1-2.2-2c-0.5-0.9-0.7-1.9-0.7-3
	c0-0.5,0.1-1,0.1-1.6c0.1-0.7,0.2-1.3,0.4-2.1c0.1-0.7,0.4-1.4,0.5-2l3-11c0.1-0.2,0.1-0.5,0-0.7c-0.1-0.2-0.3-0.4-0.4-0.4L16.6,18
	c-0.1-0.1-0.3-0.1-0.4-0.2c-0.1-0.1-0.1-0.2-0.1-0.3c0-0.1,0.1-0.2,0.1-0.3c0.1-0.1,0.3-0.1,0.5-0.1H25c0.4,0,0.6,0.1,0.6,0.4
	c0,0.1-0.1,0.2-0.1,0.4C25.3,18,25.2,18,25,18l-1.3,0.2c-0.2,0.1-0.4,0.1-0.7,0.4c-0.2,0.3-0.3,0.6-0.4,0.9l-2.8,10.9
	C19.5,31.9,19.2,33,19,34c-0.1,0.8-0.2,1.6-0.3,2.4c-0.1,1.1,0.3,2.3,1.1,3.1c0.8,0.7,1.9,1.1,3,1c1.4,0,2.8-0.5,3.9-1.5
	C27.8,38,28.7,36.4,29.3,34.2z"/>
<path d="M46.6,43.3c0.1,0.1,0.2,0.2,0.2,0.4c0,0.3-0.1,0.5-0.2,0.7C46,45.7,45.1,47,44.1,48c-1,1-2.2,1.7-3.3,2.2
	c-1.3,0.5-2.7,0.7-4.1,0.7c-1.7,0.1-3.3-0.4-4.8-1.3c-1.4-1-2.4-2.4-2.9-3.9c-0.6-2.1-0.7-4.2-0.3-6.4c0.3-1.9,0.9-3.6,1.7-5.3
	c0.8-1.6,1.9-3,3-4.3c1.2-1.2,2.6-2.2,4.1-2.9s3.1-1.1,4.8-1.1c0.7,0,1.3,0.1,2,0.3c0.4,0.1,0.9,0.4,1.3,0.6
	c0.3,0.1,0.6,0.4,0.8,0.6c0.1,0.1,0.3,0.2,0.5,0.3c0.1,0,0.3-0.1,0.4-0.3c0.1-0.1,0.4-0.4,0.6-0.6c0.2-0.2,0.4-0.4,0.6-0.6
	c0.1-0.1,0.3-0.2,0.4-0.3c0.1,0,0.3,0.1,0.4,0.1c0.1,0.1,0.1,0.3,0.1,0.4v6.4c0,0.1-0.1,0.3-0.1,0.4c-0.1,0.1-0.2,0.1-0.4,0.1
	c-0.3,0-0.6-0.2-0.7-0.6L48,31.3c-0.3-1.3-1-2.5-2-3.4c-0.9-0.7-1.9-1-3-1s-2.3,0.3-3.3,0.9c-1,0.7-2,1.5-2.7,2.5
	c-0.9,1.2-1.6,2.5-2.1,3.8c-0.6,1.5-1,3.1-1.3,4.7c-0.4,1.9-0.4,3.9-0.1,5.9c0.2,1.3,0.9,2.5,1.9,3.3c0.9,0.7,2,1.1,3.2,1
	c0.9,0,1.8-0.1,2.6-0.5c0.9-0.4,1.8-1,2.5-1.7c0.9-0.9,1.6-1.9,2.2-3c0.1-0.1,0.3-0.3,0.5-0.4C46.3,43.3,46.4,43.2,46.6,43.3z"/>
<path d="M48,34.9c0.7,0,1.4,0.1,2.1,0.1c0.8,0.1,1.6,0.3,2.5,0.4c0.9,0.1,1.7,0.4,2.5,0.6c0.8,0.2,1.6,0.4,2.2,0.4
	c0.5,0.1,1,0.1,1.5,0.2c0.3,0,0.7-0.1,1-0.2c0.2-0.1,0.4-0.4,0.4-0.7c0.1-0.2,0.1-0.5,0.1-0.7c0-0.3,0-0.6,0-0.9
	c0.1-0.4,0.2-0.8,0.5-1.1c0.3-0.3,0.7-0.4,1.2-0.4c0.4,0,0.8,0.1,1,0.4c0.3,0.4,0.4,0.9,0.4,1.4c0,0.9-0.4,1.8-1,2.4
	c-0.7,0.6-1.7,1-2.7,0.9c-0.7,0-1.3-0.1-1.9-0.2c-0.7-0.1-1.6-0.3-2.5-0.5l-2.7-0.4c-0.9-0.2-1.8-0.4-2.5-0.5
	c-0.7-0.1-1.3-0.2-2-0.2c-0.7-0.1-1.3,0.1-1.9,0.4c-0.4,0.3-0.7,0.7-0.7,1.3c-0.1,0.3,0,0.7,0.1,1c0.1,0.2,0.2,0.5,0.3,0.7
	c0.1,0.3,0.1,0.6,0.1,0.9c0,0.4-0.1,0.8-0.4,1.1c-0.3,0.3-0.7,0.4-1.2,0.4c-0.5,0-1-0.3-1.3-0.7c-0.4-0.6-0.5-1.3-0.4-1.9
	c0.1-0.7,0.3-1.5,0.7-2.1c0.4-0.7,1-1.2,1.8-1.5C46.1,35,47.1,34.9,48,34.9z M50,57.5c-0.1,0.2-0.1,0.4,0,0.7
	c0.1,0.1,0.3,0.3,0.5,0.3l1.4,0.2c0.3,0.1,0.4,0.2,0.4,0.4c0,0.1-0.1,0.3-0.2,0.4c-0.1,0.1-0.4,0.1-0.5,0.1h-8.2
	c-0.1,0-0.4,0-0.4-0.1c-0.1-0.1-0.1-0.2-0.1-0.3c0-0.1,0.1-0.3,0.1-0.4c0.1-0.1,0.3-0.1,0.4-0.1l1.4-0.2c0.2,0,0.4-0.1,0.6-0.3
	c0.1-0.2,0.3-0.5,0.4-0.8c0.1-0.5,0.3-1.2,0.6-2.1c0.3-0.9,0.5-1.9,0.8-3c0.3-1.1,0.7-2.4,1-3.6s0.7-2.5,1-3.9
	c0.3-1.3,0.7-2.5,1-3.6c0.4-1.1,0.6-2.2,0.8-3.1c0.2-0.9,0.4-1.6,0.6-2.2l3.9,0.7c-0.1,0.6-0.4,1.3-0.6,2.2
	c-0.2,0.9-0.5,1.9-0.8,3.1c-0.3,1.2-0.7,2.4-1,3.6s-0.7,2.5-1,3.7s-0.7,2.5-1,3.5c-0.3,1-0.5,2.1-0.7,2.9
	C50.3,56.4,50.1,57.2,50,57.5L50,57.5z"/>
</svg>
