<svg xmlns="http://www.w3.org/2000/svg" viewBox="0 0 175 107.26"><ellipse cx="87.5" cy="53.63" rx="87.5" ry="53.63" fill="#0f0"/><path d="M57.24 30.22a1.44 1.44 0 0 0 1 .84l.56.14a.94.94 0 0 1 .39.23.57.57 0 0 1 .14.37.49.49 0 0 1-.2.44.91.91 0 0 1-.54.14H53.3a.91.91 0 0 1-.59-.15.5.5 0 0 1-.19-.43c0-.31.22-.52.66-.65l.65-.16a2.32 2.32 0 0 0 1.17-.77 4.08 4.08 0 0 0 .77-1.62l3.27-12.24a2.81 2.81 0 0 0 .11-1.1 1.8 1.8 0 0 0-.34-.93l-1-1.91a.93.93 0 0 1-.24-.56.6.6 0 0 1 .18-.48.78.78 0 0 1 .59-.2h2a1.33 1.33 0 0 1 .94.3 3 3 0 0 1 .65.9c.29.82.63 1.69 1 2.61s.81 1.87 1.25 2.85.89 1.95 1.35 2.92.92 1.93 1.36 2.86l1.24 2.65c.39.83.73 1.6 1 2.29l-1.13.49 3.66-14.46a7 7 0 0 1 1.49-3 2.85 2.85 0 0 1 2.09-1 1.57 1.57 0 0 1 1.06.36 1.21 1.21 0 0 1 .39 1 1.7 1.7 0 0 1-.42 1.15 4.17 4.17 0 0 1-1.28.95 5.28 5.28 0 0 0-1.15.74 3.91 3.91 0 0 0-.82 1 6.55 6.55 0 0 0-.58 1.43L69.8 27.79a2.82 2.82 0 0 0-.12.74 2.25 2.25 0 0 0 .18.79l.68 1.86a.9.9 0 0 1 0 .86.79.79 0 0 1-.73.34h-2.6a.89.89 0 0 1-.72-.28 1.17 1.17 0 0 1-.25-.81 3.27 3.27 0 0 0-.09-.91 5.69 5.69 0 0 0-.37-.95c-.22-.59-.51-1.29-.86-2.11s-.75-1.73-1.18-2.71l-1.34-3.06c-.47-1.06-.93-2.11-1.4-3.16s-.9-2.06-1.31-3l1.21-.18-3.65 13.48a2.64 2.64 0 0 0-.01 1.53zm28.34 2.16H75a.79.79 0 0 1-.57-.17.53.53 0 0 1-.16-.39.58.58 0 0 1 .18-.42.91.91 0 0 1 .46-.23l1-.21a1.32 1.32 0 0 0 .68-.33 1.74 1.74 0 0 0 .43-.75c.06-.3.17-.77.35-1.41s.37-1.37.59-2.22.48-1.76.75-2.72.53-1.94.79-2.91.52-1.92.76-2.82.45-1.7.63-2.4.31-1.26.4-1.67a1.42 1.42 0 0 0 0-.81.49.49 0 0 0-.41-.34l-.93-.2a1.07 1.07 0 0 1-.38-.21.41.41 0 0 1-.16-.35.55.55 0 0 1 .23-.46 1 1 0 0 1 .63-.18h10.21a2.5 2.5 0 0 0 1.24-.27 1.92 1.92 0 0 1 .91-.27.79.79 0 0 1 .82.75l.59 4a.8.8 0 0 1-.07.61.59.59 0 0 1-.44.25.82.82 0 0 1-.59-.15 1.47 1.47 0 0 1-.44-.65 9.81 9.81 0 0 0-.87-2 2.69 2.69 0 0 0-1-1 2.58 2.58 0 0 0-1.24-.28H85l-.56 2.07c-.22.82-.46 1.73-.73 2.72s-.55 2-.83 3.09-.58 2.1-.85 3.12-.53 2-.76 2.89-.42 1.68-.58 2.34-.28 1.17-.35 1.5a1.64 1.64 0 0 0 0 .73.71.71 0 0 0 .4.45 1.81 1.81 0 0 0 .85.16h3.61a4.54 4.54 0 0 0 1.9-.38 4.13 4.13 0 0 0 1.51-1.21 9.77 9.77 0 0 0 1.28-2.29.92.92 0 0 1 .78-.59c.38 0 .57.24.56.71a6.93 6.93 0 0 1-.33 2 6.19 6.19 0 0 1-.83 1.69 4.31 4.31 0 0 1-1.2 1.14 2.64 2.64 0 0 1-1.43.41 1.86 1.86 0 0 1-.87-.21 2.13 2.13 0 0 0-.99-.13zM81.1 21.15h5.46a1.45 1.45 0 0 0 1.1-.42 2.64 2.64 0 0 0 .49-1.6.71.71 0 0 1 .23-.34.61.61 0 0 1 .36-.11.6.6 0 0 1 .46.16.7.7 0 0 1 .21.41l.73 4.44a.61.61 0 0 1-.58.83.67.67 0 0 1-.43-.13 1 1 0 0 1-.3-.35 3.13 3.13 0 0 0-.83-1.45 2.14 2.14 0 0 0-1.36-.37h-5.86zm28.9-5.86l.56 1.34-7.67 12.6c-.18.28-.33.53-.45.73a3 3 0 0 0-.3.72l-.25.85a1.29 1.29 0 0 1-.41.63 1.3 1.3 0 0 1-.83.22h-1.78c-.76 0-1-.32-.8-1l.3-1a3.6 3.6 0 0 0 .15-.63V13.74a2.09 2.09 0 0 0-.15-.79.71.71 0 0 0-.52-.39l-.45-.14a1.3 1.3 0 0 1-.53-.26.5.5 0 0 1-.17-.38.51.51 0 0 1 .21-.44 1.07 1.07 0 0 1 .62-.15h6.17a.91.91 0 0 1 .57.14.51.51 0 0 1 .17.41.54.54 0 0 1-.18.41 1.23 1.23 0 0 1-.55.27l-.92.2a1.08 1.08 0 0 0-.71.4 1.76 1.76 0 0 0-.25.94v15.88l-.93.12zm9.46-3.49a.5.5 0 0 1 .23-.44 1 1 0 0 1 .62-.18h5.15a.86.86 0 0 1 .58.15.5.5 0 0 1 .16.38c0 .29-.25.52-.73.7l-.48.18a2.16 2.16 0 0 0-.75.48 5.92 5.92 0 0 0-.73.85c-.25.35-.52.75-.81 1.21l-8.4 14.13a6.88 6.88 0 0 0-.36.64 3.36 3.36 0 0 0-.27.74l-.22.86a1.24 1.24 0 0 1-.4.66 1.08 1.08 0 0 1-.69.22h-2a.74.74 0 0 1-.64-.29.78.78 0 0 1 0-.75l.27-.94a2.64 2.64 0 0 0 .15-.6 4.1 4.1 0 0 0 0-.61c0-.37 0-.93-.05-1.7s-.06-1.65-.09-2.63-.08-2-.12-3.12-.08-2.14-.12-3.16-.09-2-.13-2.79-.09-1.5-.14-2a2.87 2.87 0 0 0-.2-.9.7.7 0 0 0-.53-.39l-.56-.17a1 1 0 0 1-.36-.22.45.45 0 0 1-.14-.32.56.56 0 0 1 .23-.47 1.09 1.09 0 0 1 .65-.17h5.92a1 1 0 0 1 .54.13.49.49 0 0 1 .17.42.54.54 0 0 1-.18.41 1.42 1.42 0 0 1-.47.27l-1 .23a1 1 0 0 0-.69.45 2.26 2.26 0 0 0-.16 1.06q0 .55.06 1.71c0 .77.06 1.66.1 2.67s.07 2.06.11 3.16l.12 3.23c.04 1.05.08 2 .13 2.85s.07 1.53.09 2h-.93l8.91-14.93a2.35 2.35 0 0 0 .37-1.4 1 1 0 0 0-.78-.9l-.84-.23c-.42-.05-.6-.23-.6-.48z"/><path d="M25.75 63.12a9.66 9.66 0 0 1-2-.19 9.37 9.37 0 0 1-1.42-.43l-1-.43a1.68 1.68 0 0 0-.71-.19 1.09 1.09 0 0 0-.6.19c-.2.13-.4.29-.62.46a4.08 4.08 0 0 1-.73.45 2 2 0 0 1-.9.2 1.5 1.5 0 0 1-1.19-.47 2.23 2.23 0 0 1-.35-1.53l.18-4.33a2.92 2.92 0 0 1 .5-1.69 1.42 1.42 0 0 1 1.18-.58 1.41 1.41 0 0 1 1.13.51 6.71 6.71 0 0 1 .88 1.52l.46 1a3.8 3.8 0 0 0 1.57 1.74 4.66 4.66 0 0 0 2.3.59 2.71 2.71 0 0 0 1.13-.21 1.78 1.78 0 0 0 1.07-1.44 2.43 2.43 0 0 0-.61-1.9 8.93 8.93 0 0 0-2.77-2 8.81 8.81 0 0 1-3.44-2.88 5.83 5.83 0 0 1-.81-3.87 7.33 7.33 0 0 1 1.26-3.37 7.43 7.43 0 0 1 3-2.43 11.51 11.51 0 0 1 4.83-.9 10.63 10.63 0 0 1 4.44.84 6.87 6.87 0 0 1 2.78 2.14 4.19 4.19 0 0 1 .9 2.71 3.3 3.3 0 0 1-.66 1.93 2.12 2.12 0 0 1-1.81.82 2.56 2.56 0 0 1-1.57-.46 3.86 3.86 0 0 1-1.13-1.75l-.39-1a3.69 3.69 0 0 0-1.16-1.64 2.71 2.71 0 0 0-1.72-.6 2.84 2.84 0 0 0-1.25.26 2.07 2.07 0 0 0-.83.72 2.69 2.69 0 0 0-.42 1.1 2.44 2.44 0 0 0 .56 1.86 8.11 8.11 0 0 0 2.61 2 16 16 0 0 1 3.28 2.29 5.72 5.72 0 0 1 1.53 2.3 6.64 6.64 0 0 1 .27 2.68 5.84 5.84 0 0 1-1.13 3.07 6.85 6.85 0 0 1-2.71 2.14 9.36 9.36 0 0 1-3.93.77zm25.07-7.27l-3.32 1.54 8.64-13.87a4.63 4.63 0 0 1 1.5-1.59 3 3 0 0 1 1.48-.46h5a1.64 1.64 0 0 1 1.23.37 1.56 1.56 0 0 1 .34 1.16 1.62 1.62 0 0 1-.34 1 2.28 2.28 0 0 1-.77.63l-.51.26a1.11 1.11 0 0 0-.49.47 3.6 3.6 0 0 0-.28.89c-.06.31-.14.7-.24 1.19s-.2 1-.32 1.65-.25 1.25-.37 1.91-.26 1.33-.38 2-.25 1.3-.36 1.9-.21 1.12-.29 1.59-.15.84-.19 1.12a2.82 2.82 0 0 0 0 1.09.91.91 0 0 0 .41.62l.43.25a2.22 2.22 0 0 1 .64.55 1.28 1.28 0 0 1 .23.79 1.7 1.7 0 0 1-.49 1.27 1.86 1.86 0 0 1-1.37.48h-7.23a1.64 1.64 0 0 1-1.26-.39 1.85 1.85 0 0 1 0-2.14 2.41 2.41 0 0 1 .78-.66l.48-.24a1.28 1.28 0 0 0 .59-.56 5.42 5.42 0 0 0 .35-1.28q.09-.44.21-1c.07-.41.16-.86.25-1.35l.31-1.57c.1-.55.21-1.11.31-1.68l.3-1.7c.1-.56.19-1.09.27-1.61h.46l-6.54 10.37a6.16 6.16 0 0 1-1.41 1.68 2.64 2.64 0 0 1-1.58.44 1.91 1.91 0 0 1-1.36-.62 3.77 3.77 0 0 1-.88-2c-.09-.5-.2-1.15-.34-1.93s-.28-1.63-.45-2.56-.32-1.86-.5-2.82-.33-1.87-.5-2.74l.55-.09L41.09 58a1.57 1.57 0 0 0-.07.86.88.88 0 0 0 .4.51l.44.25a1.54 1.54 0 0 1 .86 1.34 1.73 1.73 0 0 1-.48 1.27 1.9 1.9 0 0 1-1.38.48h-3.92a1.56 1.56 0 0 1-1.28-.42 1.73 1.73 0 0 1-.31-1.06 1.67 1.67 0 0 1 .34-1.07 2.32 2.32 0 0 1 .78-.64l.48-.24a1.36 1.36 0 0 0 .45-.37 3.93 3.93 0 0 0 .4-1c.15-.48.38-1.25.68-2.31l2.57-9.12a2.34 2.34 0 0 0 .16-1.14.87.87 0 0 0-.44-.51l-.44-.26a2.16 2.16 0 0 1-.65-.56 1.38 1.38 0 0 1-.22-.78 1.66 1.66 0 0 1 .5-1.28 1.94 1.94 0 0 1 1.37-.46h4.42a2.56 2.56 0 0 1 1.88.7 4.6 4.6 0 0 1 1.06 2.38c.13.65.27 1.42.43 2.32s.34 1.86.53 2.89.38 2.05.57 3.1.4 2.02.6 2.97zM80.18 41a10.11 10.11 0 0 1 4.28.9 7.56 7.56 0 0 1 2.9 2.38 8.18 8.18 0 0 1 1.42 3.47 11 11 0 0 1-.15 4.18 15 15 0 0 1-2 5 13.16 13.16 0 0 1-3.32 3.52 13.65 13.65 0 0 1-4.18 2 15 15 0 0 1-4.63.6 10.28 10.28 0 0 1-4.21-.92 7.26 7.26 0 0 1-2.86-2.38A8.08 8.08 0 0 1 66 56.22a12.75 12.75 0 0 1 .26-4.58 13.37 13.37 0 0 1 4.82-7.7 13.65 13.65 0 0 1 4.13-2.2 14.51 14.51 0 0 1 4.97-.74zm-4.91 19.09a2.51 2.51 0 0 0 1.34-.36A4.77 4.77 0 0 0 78 58.41a12.26 12.26 0 0 0 1.41-2.53 26.76 26.76 0 0 0 1.27-4 24.68 24.68 0 0 0 .66-3.52 8.69 8.69 0 0 0 0-2.39 2.76 2.76 0 0 0-.63-1.41 1.78 1.78 0 0 0-1.11-.54 2.64 2.64 0 0 0-1.49.27 4.27 4.27 0 0 0-1.46 1.26A10.58 10.58 0 0 0 75.3 48a24.53 24.53 0 0 0-1.15 3.68 30.73 30.73 0 0 0-.72 3.89 9.5 9.5 0 0 0 0 2.58 2.69 2.69 0 0 0 .65 1.44 1.8 1.8 0 0 0 1.19.5zM104.42 41a10.08 10.08 0 0 1 4.28.9 7.56 7.56 0 0 1 2.9 2.38 8.18 8.18 0 0 1 1.4 3.48 11 11 0 0 1-.15 4.18 15 15 0 0 1-2 5 13.16 13.16 0 0 1-3.32 3.52 13.71 13.71 0 0 1-4.17 2 15.1 15.1 0 0 1-4.64.6 10.28 10.28 0 0 1-4.21-.92 7.26 7.26 0 0 1-2.86-2.38 8.08 8.08 0 0 1-1.38-3.6 12.75 12.75 0 0 1 .26-4.58 13.37 13.37 0 0 1 4.82-7.7 13.65 13.65 0 0 1 4.13-2.2 14.51 14.51 0 0 1 4.94-.68zm-4.91 19.09a2.49 2.49 0 0 0 1.34-.36 4.77 4.77 0 0 0 1.43-1.32 12.26 12.26 0 0 0 1.41-2.53 26.67 26.67 0 0 0 1.28-4 24.48 24.48 0 0 0 .65-3.52 8.69 8.69 0 0 0-.05-2.39 2.76 2.76 0 0 0-.63-1.41 1.78 1.78 0 0 0-1.11-.54 2.64 2.64 0 0 0-1.49.27 4.27 4.27 0 0 0-1.46 1.26A10.59 10.59 0 0 0 99.55 48a23.35 23.35 0 0 0-1.16 3.68 30.73 30.73 0 0 0-.72 3.89 9.5 9.5 0 0 0 0 2.58 2.69 2.69 0 0 0 .65 1.44 1.8 1.8 0 0 0 1.19.5zM121.47 41a13.39 13.39 0 0 1 2.3.19c.75.13 1.47.28 2.17.47s1.35.37 2 .56 1.2.34 1.74.47a6.72 6.72 0 0 0 1.45.19 1 1 0 0 0 .65-.2 1.27 1.27 0 0 0 .38-.6c0-.13.07-.24.09-.34s0-.21.06-.35a2.78 2.78 0 0 1 .74-1.43 2.5 2.5 0 0 1 1.86-.59 2.07 2.07 0 0 1 1.62.71 2.92 2.92 0 0 1 .63 2.13 4.06 4.06 0 0 1-4.43 4.33 8 8 0 0 1-1.86-.26c-.74-.17-1.52-.38-2.36-.62l-2.51-.8c-.82-.24-1.57-.45-2.26-.62a6.89 6.89 0 0 0-1.68-.26 1.22 1.22 0 0 0-1 .48 2.16 2.16 0 0 0-.38 1.34v1.22a2.13 2.13 0 0 1-.65 1.56 2.31 2.31 0 0 1-1.72.65 2.71 2.71 0 0 1-2.07-.83 3.23 3.23 0 0 1-.74-2.4 4.92 4.92 0 0 1 2.77-4.41 7 7 0 0 1 3.2-.59zm4.74 17a1.88 1.88 0 0 0-.11.9.68.68 0 0 0 .26.41l.56.34a1.59 1.59 0 0 1 .86 1.4 1.48 1.48 0 0 1-.53 1.25 2.11 2.11 0 0 1-1.33.41h-7.4a1.61 1.61 0 0 1-1.22-.39 1.4 1.4 0 0 1-.37-1 1.75 1.75 0 0 1 .31-1.08 2.46 2.46 0 0 1 .82-.7l.56-.3a1.32 1.32 0 0 0 .4-.53 10.5 10.5 0 0 0 .5-1.27c.14-.44.31-1 .5-1.61s.41-1.33.65-2.09l.72-2.4c.24-.83.49-1.66.74-2.49s.48-1.63.7-2.4.43-1.45.61-2.08l.45-1.56 6.44 1.14c-.15.46-.33 1-.53 1.67s-.42 1.36-.65 2.14-.46 1.56-.69 2.37l-.7 2.42c-.23.8-.44 1.55-.64 2.26s-.37 1.34-.53 1.89-.29.93-.38 1.3zm16.79.21a1.2 1.2 0 0 0 0 .74.93.93 0 0 0 .34.37l.44.25a2.27 2.27 0 0 1 .65.55 1.34 1.34 0 0 1 .21.79 1.73 1.73 0 0 1-.48 1.27 1.87 1.87 0 0 1-1.38.48h-7.4a1.52 1.52 0 0 1-1.27-.42 1.67 1.67 0 0 1-.32-1.06 1.62 1.62 0 0 1 .35-1.07 2.29 2.29 0 0 1 .77-.64l.48-.24a1.21 1.21 0 0 0 .48-.38 3.19 3.19 0 0 0 .33-.82c.13-.44.27-.94.44-1.48s.33-1.13.5-1.75l.55-1.88c.18-.64.37-1.28.55-1.92s.35-1.27.51-1.88.32-1.19.45-1.73.26-1 .36-1.47a1.4 1.4 0 0 0 0-.67.77.77 0 0 0-.37-.44l-.44-.26a2 2 0 0 1-.64-.56 1.25 1.25 0 0 1-.22-.77 1.76 1.76 0 0 1 .47-1.27 1.88 1.88 0 0 1 1.39-.48h7.4a1.56 1.56 0 0 1 1.28.42 1.73 1.73 0 0 1 .31 1.06 1.67 1.67 0 0 1-.34 1.07 2.16 2.16 0 0 1-.78.64l-.48.24a1.14 1.14 0 0 0-.48.38 5 5 0 0 0-.32.83c-.16.47-.32 1-.51 1.65s-.38 1.32-.58 2.05-.41 1.46-.62 2.21-.4 1.47-.6 2.16-.36 1.33-.51 1.9-.28 1.05-.37 1.42-.15.61-.15.71zm-1-7.28h11.59l-.81 3.12H141.2zm13.67 7.28a1.18 1.18 0 0 0 0 .74.81.81 0 0 0 .34.37l.44.25a2.22 2.22 0 0 1 .64.55 1.28 1.28 0 0 1 .22.79 1.7 1.7 0 0 1-.49 1.27 1.86 1.86 0 0 1-1.37.48h-7.41a1.53 1.53 0 0 1-1.27-.42 1.73 1.73 0 0 1-.32-1.06 1.68 1.68 0 0 1 .35-1.07 2.29 2.29 0 0 1 .77-.64l.49-.24a1.17 1.17 0 0 0 .47-.38 3.19 3.19 0 0 0 .33-.82l.44-1.48.51-1.75c.17-.61.35-1.24.54-1.88s.37-1.28.55-1.92.34-1.27.51-1.88.32-1.19.46-1.73.25-1 .35-1.47a1.4 1.4 0 0 0 0-.67.74.74 0 0 0-.37-.44l-.44-.26a2.1 2.1 0 0 1-.64-.56 1.25 1.25 0 0 1-.22-.77 1.73 1.73 0 0 1 .48-1.27 1.87 1.87 0 0 1 1.38-.48h7.41a1.53 1.53 0 0 1 1.27.42 1.88 1.88 0 0 1 0 2.13 2.34 2.34 0 0 1-.78.64l-.49.24a1 1 0 0 0-.47.38 4.05 4.05 0 0 0-.33.83q-.23.7-.51 1.65c-.18.64-.38 1.32-.59 2.05l-.59 2.19c-.21.75-.4 1.47-.59 2.16s-.35 1.33-.51 1.9-.27 1.05-.37 1.42-.15.63-.17.73z" fill="#fff"/><path d="M48 72.37a.57.57 0 0 1 .28-.46 1.19 1.19 0 0 1 .67-.16h9.95a2.48 2.48 0 0 0 1.24-.27 1.79 1.79 0 0 1 .94-.28.76.76 0 0 1 .79.7l.62 4.15a.78.78 0 0 1-.08.6.6.6 0 0 1-.45.25.8.8 0 0 1-.62-.19 2.17 2.17 0 0 1-.47-.69l-.29-.85a4.92 4.92 0 0 0-.58-1.34 2.14 2.14 0 0 0-.9-.77 3.06 3.06 0 0 0-1.31-.25h-4.1c-.18.65-.39 1.4-.61 2.24l-.73 2.68c-.26 1-.52 1.91-.78 2.9s-.52 2-.76 2.92-.49 1.88-.72 2.74l-.6 2.36q-.27 1.06-.42 1.8a1.32 1.32 0 0 0 0 .75c.07.18.28.3.65.35l1 .15a1.36 1.36 0 0 1 .63.21.41.41 0 0 1 .19.35.6.6 0 0 1-.26.5 1.59 1.59 0 0 1-.86.19h-6.78a.82.82 0 0 1-.59-.16.48.48 0 0 1-.16-.42.56.56 0 0 1 .23-.42 1.76 1.76 0 0 1 .68-.28l.74-.15a1.23 1.23 0 0 0 .68-.35 1.88 1.88 0 0 0 .4-.75c.17-.6.36-1.27.58-2l.66-2.4c.23-.85.47-1.72.7-2.62l.69-2.65c.22-.88.44-1.73.65-2.54l.56-2.25c.16-.68.3-1.27.41-1.77a1.16 1.16 0 0 0 0-.7.62.62 0 0 0-.45-.33l-.76-.2a1.84 1.84 0 0 1-.5-.22.36.36 0 0 1-.16-.37zm1.69 9.86h5.36a1.51 1.51 0 0 0 1.12-.42 2.63 2.63 0 0 0 .52-1.57.79.79 0 0 1 .2-.4.57.57 0 0 1 .37-.13.63.63 0 0 1 .47.17.85.85 0 0 1 .2.45l.76 4.5a.68.68 0 0 1-.11.61.67.67 0 0 1-.48.21.59.59 0 0 1-.44-.13 1.55 1.55 0 0 1-.32-.43 3.67 3.67 0 0 0-.51-1 1.66 1.66 0 0 0-.67-.57 2.74 2.74 0 0 0-1-.17h-5.82zM76 71.35a7.7 7.7 0 0 1 3.58.93 7 7 0 0 1 2.52 2.37 8.29 8.29 0 0 1 1.23 3.54 12.25 12.25 0 0 1-.33 4.47 15.12 15.12 0 0 1-1.91 4.66 13.27 13.27 0 0 1-3 3.39 12.11 12.11 0 0 1-3.83 2 12.3 12.3 0 0 1-4.32.57 7.74 7.74 0 0 1-3.59-.93A6.67 6.67 0 0 1 63.83 90a8.57 8.57 0 0 1-1.13-3.68 13.4 13.4 0 0 1 .51-4.72 14.58 14.58 0 0 1 1.87-4.17 14.36 14.36 0 0 1 3-3.28A12.68 12.68 0 0 1 71.8 72a11.5 11.5 0 0 1 4.2-.65zm-5.58 20.78a6.05 6.05 0 0 0 2.52-.44 7.34 7.34 0 0 0 2.44-1.64 12.34 12.34 0 0 0 2.16-3 21.8 21.8 0 0 0 1.68-4.51 16.65 16.65 0 0 0 .6-4.3 8 8 0 0 0-.6-3.07 4.53 4.53 0 0 0-1.49-1.88 4.09 4.09 0 0 0-2.12-.7 5.4 5.4 0 0 0-2.55.47 8.09 8.09 0 0 0-2.46 1.72 12.11 12.11 0 0 0-2.1 2.91 16.66 16.66 0 0 0-1.5 4.05 21.11 21.11 0 0 0-.68 4.62 8.39 8.39 0 0 0 .47 3.19 4 4 0 0 0 1.45 1.89 4.2 4.2 0 0 0 2.18.69zm18.15-1.35a1.43 1.43 0 0 0 1 .85l.56.14a.85.85 0 0 1 .39.23.57.57 0 0 1 .14.37.5.5 0 0 1-.2.44 1 1 0 0 1-.54.14h-5.3a.87.87 0 0 1-.59-.16.52.52 0 0 1-.18-.42c0-.31.22-.53.65-.65l.65-.17a2.24 2.24 0 0 0 1.18-.77 4 4 0 0 0 .78-1.62l3.27-12.23a2.88 2.88 0 0 0 .11-1.11 1.8 1.8 0 0 0-.34-.92l-1-1.91a1 1 0 0 1-.24-.56.67.67 0 0 1 .17-.49.82.82 0 0 1 .6-.19h2a1.4 1.4 0 0 1 1 .29 3.26 3.26 0 0 1 .64.9c.3.82.64 1.69 1 2.62s.81 1.87 1.25 2.84.89 1.95 1.36 2.92l1.35 2.87c.44.93.86 1.81 1.25 2.65s.72 1.59 1 2.29l-1.27.48L103 75.15a6.93 6.93 0 0 1 1.49-3 2.85 2.85 0 0 1 2.08-1 1.49 1.49 0 0 1 1.06.37 1.18 1.18 0 0 1 .4 1 1.73 1.73 0 0 1-.42 1.16 4.33 4.33 0 0 1-1.28 1 4.74 4.74 0 0 0-1.15.74 4 4 0 0 0-.83 1 7.09 7.09 0 0 0-.58 1.43l-2.6 10.48a2.76 2.76 0 0 0-.12.74 2.35 2.35 0 0 0 .18.79l.68 1.86a.87.87 0 0 1 0 .86.79.79 0 0 1-.72.34h-2.64a1 1 0 0 1-.72-.28 1.22 1.22 0 0 1-.25-.81 3.23 3.23 0 0 0-.09-.91 5.62 5.62 0 0 0-.36-1c-.22-.58-.51-1.29-.86-2.11l-1.18-2.7-1.36-3.06c-.47-1.06-.94-2.11-1.4-3.16l-1.32-3 1.21-.18-3.64 13.5a2.56 2.56 0 0 0-.01 1.57zm24.75-19.4a13.48 13.48 0 0 1 1.87.16c.69.1 1.39.22 2.12.37l2.09.47c.68.15 1.29.28 1.84.38a7.48 7.48 0 0 0 1.3.15 1.65 1.65 0 0 0 .87-.19.94.94 0 0 0 .43-.53 1.91 1.91 0 0 0 .1-.54 5.46 5.46 0 0 1 0-.57 1.57 1.57 0 0 1 .44-.88 1.37 1.37 0 0 1 1-.34 1.2 1.2 0 0 1 .94.4 1.74 1.74 0 0 1 .36 1.2 2.64 2.64 0 0 1-.91 2.07 3.53 3.53 0 0 1-2.42.79 9.54 9.54 0 0 1-1.65-.18c-.66-.12-1.36-.27-2.11-.45l-2.27-.53c-.77-.17-1.48-.32-2.15-.44a9.76 9.76 0 0 0-1.71-.18 3.06 3.06 0 0 0-1.83.42 1.41 1.41 0 0 0-.56 1.13 1.75 1.75 0 0 0 .08.63c.06.19.12.37.19.56a1.67 1.67 0 0 1 .11.62 1.25 1.25 0 0 1-.4.89 1.41 1.41 0 0 1-1 .38 1.5 1.5 0 0 1-1.19-.58 2.23 2.23 0 0 1-.36-1.59 3.56 3.56 0 0 1 .58-1.87 3.73 3.73 0 0 1 1.62-1.3 6.32 6.32 0 0 1 2.62-.45zm1.5 19.29a.72.72 0 0 0 0 .61.67.67 0 0 0 .43.27l1.12.23c.37.12.54.31.5.56a.54.54 0 0 1-.28.46 1.3 1.3 0 0 1-.67.15h-6.52a.84.84 0 0 1-.58-.16.45.45 0 0 1-.17-.39.58.58 0 0 1 .21-.43 1.43 1.43 0 0 1 .54-.25l1-.2a1.17 1.17 0 0 0 .6-.32 1.89 1.89 0 0 0 .41-.78c.13-.43.29-1 .5-1.76s.44-1.6.71-2.56l.85-3q.46-1.6.9-3.21l.86-3.06.73-2.64c.21-.78.37-1.4.48-1.87l3.18.61c-.13.48-.31 1.12-.53 1.9s-.47 1.66-.73 2.63l-.85 3c-.3 1.06-.59 2.12-.88 3.16l-.81 3c-.25.93-.47 1.75-.65 2.46s-.27 1.22-.35 1.59zm11.06 2.49a1.87 1.87 0 0 1-1.41-.51 1.51 1.51 0 0 1-.42-1.26 2.2 2.2 0 0 1 .43-1.09 2.63 2.63 0 0 1 1-.78 3.25 3.25 0 0 1 1.42-.3 1.75 1.75 0 0 1 1.4.52 1.57 1.57 0 0 1 .35 1.28 2 2 0 0 1-.4 1.06 2.58 2.58 0 0 1-1 .78 3.13 3.13 0 0 1-1.37.3zm5.83-23a1.61 1.61 0 0 1 1.38.48 1.48 1.48 0 0 1 .17 1.25 4.43 4.43 0 0 1-.18.65c-.1.26-.2.53-.32.79l-4.29 12a1.63 1.63 0 0 1-.43.6.89.89 0 0 1-.55.18.52.52 0 0 1-.46-.18.92.92 0 0 1-.07-.6l2.06-12c0-.22 0-.45.08-.67a5.91 5.91 0 0 1 .13-.59 2.5 2.5 0 0 1 .83-1.38 2.6 2.6 0 0 1 1.65-.55z"/></svg>