<svg xmlns="http://www.w3.org/2000/svg" viewBox="0 0 202 56.6"><rect width="202" height="56.6" rx="5.67" fill="#fff"/><path d="M25.24 34.63a4.21 4.21 0 0 1-1.82 3.55 8.11 8.11 0 0 1-4.92 1.35 7.24 7.24 0 0 1-4.42-1.17 3.68 3.68 0 0 1-1.57-3.08 2.81 2.81 0 0 1 .66-1.93A2.24 2.24 0 0 1 15 32.6a2 2 0 0 1 1.56.7 2.7 2.7 0 0 1 .63 1.89v1.47a2.59 2.59 0 0 0 .36 1.48 1.45 1.45 0 0 0 1.27.52 1.61 1.61 0 0 0 1.3-.66 2.94 2.94 0 0 0 .5-1.82 4 4 0 0 0-.4-1.76c-.26-.55-.57-1.14-.93-1.76a13.21 13.21 0 0 1-.95-2.13 8.66 8.66 0 0 1-.43-2.84v-10.5a1.15 1.15 0 0 0-.14-.64.83.83 0 0 0-.48-.32L16.06 16a1.32 1.32 0 0 1-.39-.24.43.43 0 0 1-.13-.33.46.46 0 0 1 .18-.4.66.66 0 0 1 .44-.14h9a.8.8 0 0 1 .51.13.44.44 0 0 1 .17.37c0 .27-.21.48-.63.64l-1 .21a1.25 1.25 0 0 0-.54.29.73.73 0 0 0-.17.51v10.44a7.77 7.77 0 0 0 .26 2.17 16.07 16.07 0 0 0 .58 1.7c.21.52.41 1 .59 1.55a5.19 5.19 0 0 1 .31 1.73zm13.45.47l.47.58-.66.6a13.48 13.48 0 0 1-3.32 2.45 6.45 6.45 0 0 1-2.81.71 3.75 3.75 0 0 1-2.83-1.12A4.63 4.63 0 0 1 28.45 35v-8.39a.72.72 0 0 0-.09-.4.46.46 0 0 0-.26-.21h-.86a.8.8 0 0 1-.26-.19.37.37 0 0 1-.07-.25.38.38 0 0 1 .11-.28.81.81 0 0 1 .37-.22l4.5-1.39.57-.15a1.69 1.69 0 0 1 .38 0 .41.41 0 0 1 .34.14.54.54 0 0 1 .13.4V34.2a3 3 0 0 0 .58 2 2 2 0 0 0 1.59.65 3 3 0 0 0 1.3-.31 5.12 5.12 0 0 0 1.34-.89zm-.43 2.9V26.61a.83.83 0 0 0-.08-.4.56.56 0 0 0-.28-.17L37 26a.65.65 0 0 1-.25-.19.33.33 0 0 1-.08-.25.47.47 0 0 1 .09-.28.72.72 0 0 1 .36-.22l4.53-1.39.55-.15a1.45 1.45 0 0 1 .35 0 .48.48 0 0 1 .38.14.5.5 0 0 1 .14.4v13.09a1.26 1.26 0 0 0 .1.58.6.6 0 0 0 .35.31l.7.15a.68.68 0 0 1 .28.18.55.55 0 0 1 .08.29.39.39 0 0 1-.14.33.49.49 0 0 1-.34.12h-4.73A1 1 0 0 1 38.26 38zm13.9.5a2.46 2.46 0 0 0 1.67-.5 1.66 1.66 0 0 0 .61-1.35 2 2 0 0 0-.29-1.05 2.88 2.88 0 0 0-.94-.88 9.18 9.18 0 0 0-1.84-.8 13.41 13.41 0 0 1-3.49-1.49 4.87 4.87 0 0 1-1.78-1.85 5 5 0 0 1-.53-2.37 4.27 4.27 0 0 1 1.54-3.5 6.5 6.5 0 0 1 4.26-1.27 6.31 6.31 0 0 1 1.71.19 7 7 0 0 1 1.09.38 1.6 1.6 0 0 0 .56.19 1.47 1.47 0 0 0 .6-.19l.78-.38a1.5 1.5 0 0 1 .62-.19.57.57 0 0 1 .29.09.75.75 0 0 1 .23.43L58 28a2 2 0 0 1 .06.7.43.43 0 0 1-.26.36.58.58 0 0 1-.43 0 .85.85 0 0 1-.38-.31 15.3 15.3 0 0 0-1.8-2.64 5.42 5.42 0 0 0-1.73-1.35 4.33 4.33 0 0 0-1.87-.4 2.46 2.46 0 0 0-1.75.57 2 2 0 0 0-.59 1.48 2.28 2.28 0 0 0 .28 1.13 2.64 2.64 0 0 0 1.07.92 10.69 10.69 0 0 0 2.22.83 10.5 10.5 0 0 1 3 1.26 4.6 4.6 0 0 1 2.25 4.12 4.46 4.46 0 0 1-.73 2.55 4.81 4.81 0 0 1-2 1.69 6.77 6.77 0 0 1-2.88.59 4.88 4.88 0 0 1-1.68-.25 5.94 5.94 0 0 1-1.1-.48 1.62 1.62 0 0 0-.5-.25 1.08 1.08 0 0 0-.54.24l-.69.45a1.11 1.11 0 0 1-.57.22.48.48 0 0 1-.35-.14.86.86 0 0 1-.19-.49l-.63-3.61a3.59 3.59 0 0 1 0-.71.29.29 0 0 1 .27-.29.44.44 0 0 1 .4 0 1 1 0 0 1 .41.4 10.26 10.26 0 0 0 2.41 3 3.94 3.94 0 0 0 2.46.91zM60.39 25l-1.14-.26a.41.41 0 0 1-.3-.2.85.85 0 0 1-.05-.3.49.49 0 0 1 .14-.36.53.53 0 0 1 .36-.13h1.18a.5.5 0 0 0 .29-.08 1.93 1.93 0 0 0 .32-.37l2.9-2.83a1.64 1.64 0 0 1 .43-.41A.85.85 0 0 1 65 20a.44.44 0 0 1 .36.16.74.74 0 0 1 .14.48v13.79a3.16 3.16 0 0 0 .49 2 1.65 1.65 0 0 0 1.37.63 1.67 1.67 0 0 0 .67-.13 2.23 2.23 0 0 0 .56-.36A2.74 2.74 0 0 0 69 36a7 7 0 0 0 .37-.66.15.15 0 0 1 .2 0c.08 0 .12.16.12.35a5.12 5.12 0 0 1-.76 2A3.69 3.69 0 0 1 67.48 39a4.78 4.78 0 0 1-2.17.46 4.88 4.88 0 0 1-3.4-1.07A4.33 4.33 0 0 1 60.74 35v-9.29a1.56 1.56 0 0 0-.05-.44.45.45 0 0 0-.3-.27zm3.53-.14l.1-1.11h5.23a.7.7 0 0 1 .39.1.38.38 0 0 1 .13.32.63.63 0 0 1-.26.5 1.52 1.52 0 0 1-.87.19zm18.73-11.11v23.4a1.07 1.07 0 0 0 .13.6.79.79 0 0 0 .34.29l.71.15a.58.58 0 0 1 .27.18.55.55 0 0 1 .08.29.45.45 0 0 1-.13.33.56.56 0 0 1-.38.12h-6.89a.52.52 0 0 1-.36-.12.39.39 0 0 1-.14-.33.42.42 0 0 1 .1-.28.86.86 0 0 1 .26-.2l.73-.14a.57.57 0 0 0 .32-.29 1.33 1.33 0 0 0 .1-.6V16.34a.92.92 0 0 0-.07-.4.47.47 0 0 0-.28-.19h-.83a.37.37 0 0 1-.28-.16.51.51 0 0 1-.07-.28.43.43 0 0 1 .1-.29.87.87 0 0 1 .39-.21l4.49-1.39.57-.15a2.46 2.46 0 0 1 .37 0 .43.43 0 0 1 .35.15.61.61 0 0 1 .12.33zm10.81 9.67a8.17 8.17 0 0 1 4.15 1 7.5 7.5 0 0 1 2.85 2.85 8.32 8.32 0 0 1 1 4.19 7.91 7.91 0 0 1-1.06 4.13 7.54 7.54 0 0 1-2.92 2.82 8.79 8.79 0 0 1-4.28 1 8.39 8.39 0 0 1-4.19-1 7.16 7.16 0 0 1-2.81-2.81 8.44 8.44 0 0 1-1-4.19 8 8 0 0 1 1-4.1 7.59 7.59 0 0 1 2.9-2.86 8.49 8.49 0 0 1 4.36-1.03zm1 14.93a2.14 2.14 0 0 0 1.45-1 5.46 5.46 0 0 0 .68-2.44 16.39 16.39 0 0 0-.2-3.88 18.11 18.11 0 0 0-.94-3.77A5.47 5.47 0 0 0 94 25.1a2.16 2.16 0 0 0-1.71-.54 2 2 0 0 0-1.44 1 5.43 5.43 0 0 0-.63 2.44 18 18 0 0 0 .21 3.85 17.08 17.08 0 0 0 .94 3.77 5.47 5.47 0 0 0 1.38 2.15 2.11 2.11 0 0 0 1.67.58zM111 23.42a8.22 8.22 0 0 1 4.15 1A7.55 7.55 0 0 1 118 27.3a8.22 8.22 0 0 1 1 4.19 8 8 0 0 1-1 4.13 7.64 7.64 0 0 1-2.93 2.82 8.77 8.77 0 0 1-4.28 1 8.35 8.35 0 0 1-4.18-1 7.19 7.19 0 0 1-2.82-2.81 8.43 8.43 0 0 1-1-4.19 8.11 8.11 0 0 1 1-4.1 7.55 7.55 0 0 1 2.91-2.86 8.47 8.47 0 0 1 4.3-1.06zm1 14.93a2.12 2.12 0 0 0 1.45-1 5.45 5.45 0 0 0 .69-2.44 17 17 0 0 0-.21-3.88 17.5 17.5 0 0 0-.94-3.77 5.26 5.26 0 0 0-1.38-2.15 2.16 2.16 0 0 0-1.71-.54 2 2 0 0 0-1.44 1 5.43 5.43 0 0 0-.66 2.44 18 18 0 0 0 .21 3.85 17.66 17.66 0 0 0 .94 3.77 5.47 5.47 0 0 0 1.38 2.15 2.12 2.12 0 0 0 1.67.57zm8.75.76a.52.52 0 0 1-.36-.12.39.39 0 0 1-.14-.33.47.47 0 0 1 .09-.28.75.75 0 0 1 .26-.2l.73-.14a.56.56 0 0 0 .33-.29 1.76 1.76 0 0 0 .08-.6V16.34a.79.79 0 0 0-.07-.4.42.42 0 0 0-.26-.19h-.83a.39.39 0 0 1-.29-.16.51.51 0 0 1-.08-.28.44.44 0 0 1 .11-.29.88.88 0 0 1 .38-.21l4.51-1.39.55-.14a1.6 1.6 0 0 1 .39 0 .41.41 0 0 1 .34.15.6.6 0 0 1 .11.39v23.4a1.3 1.3 0 0 0 .12.63.76.76 0 0 0 .35.29l.73.16a.47.47 0 0 1 .3.43c0 .3-.16.45-.47.45zm4.86-6.37l6.31-6a1.11 1.11 0 0 0 .46-1.15 1.13 1.13 0 0 0-.93-.75l-.61-.16a.76.76 0 0 1-.23-.18.48.48 0 0 1-.07-.24.43.43 0 0 1 .14-.34.55.55 0 0 1 .4-.13h6.11a.57.57 0 0 1 .37.12.39.39 0 0 1 .14.32.62.62 0 0 1-.13.37.8.8 0 0 1-.57.2 7.58 7.58 0 0 0-2.06.78A9.94 9.94 0 0 0 133 27l-7 6.61zM131.2 28l5.51 9.19a1.85 1.85 0 0 0 .48.61 3.89 3.89 0 0 0 .61.34 1.35 1.35 0 0 1 .36.3.54.54 0 0 1 .07.29.35.35 0 0 1-.13.3.56.56 0 0 1-.37.1h-7.43a.56.56 0 0 1-.36-.12.45.45 0 0 1-.14-.35.29.29 0 0 1 .08-.2.77.77 0 0 1 .25-.18l.6-.15c.27-.06.42-.18.45-.35a1.2 1.2 0 0 0-.2-.71l-3.32-5.77zm13.8-4v13.15a1.28 1.28 0 0 0 .1.59.7.7 0 0 0 .35.3l.71.15a.49.49 0 0 1 .29.18.55.55 0 0 1 .08.29.45.45 0 0 1-.13.33.56.56 0 0 1-.38.12h-6.91a.56.56 0 0 1-.36-.12.38.38 0 0 1-.16-.33.4.4 0 0 1 .11-.27 1.13 1.13 0 0 1 .26-.21l.71-.14a.59.59 0 0 0 .37-.29 1.33 1.33 0 0 0 .1-.6V26.56a.76.76 0 0 0-.09-.41.39.39 0 0 0-.26-.16L139 26a.78.78 0 0 1-.27-.17.4.4 0 0 1-.08-.26.41.41 0 0 1 .11-.3 1.33 1.33 0 0 1 .36-.22l4.53-1.34a3.28 3.28 0 0 1 .55-.19 2.33 2.33 0 0 1 .37 0 .47.47 0 0 1 .36.16.55.55 0 0 1 .07.32zm-2.54-2.38a2.73 2.73 0 0 1-2.88-2.83 2.77 2.77 0 0 1 .8-2 2.83 2.83 0 0 1 2.08-.8 2.91 2.91 0 0 1 2.13.8 2.95 2.95 0 0 1 0 4.06 2.91 2.91 0 0 1-2.09.76zm11.4 2.38v13.15a1.32 1.32 0 0 0 .11.63.69.69 0 0 0 .34.29l.73.16a.48.48 0 0 1 .29.43c0 .3-.15.45-.47.45H148a.55.55 0 0 1-.37-.12.4.4 0 0 1-.15-.33.44.44 0 0 1 .09-.27.77.77 0 0 1 .27-.21l.73-.14a.63.63 0 0 0 .33-.29 1.31 1.31 0 0 0 .11-.6V26.56a.87.87 0 0 0-.08-.41.39.39 0 0 0-.29-.16h-.83a.64.64 0 0 1-.26-.17.51.51 0 0 1 0-.56 1.27 1.27 0 0 1 .37-.22l4.49-1.34.57-.18a1.5 1.5 0 0 1 .37-.05.47.47 0 0 1 .37.16.6.6 0 0 1 .14.37zm-.42 3.79l-.47-.54.68-.61a16.11 16.11 0 0 1 3.12-2.45 5.44 5.44 0 0 1 2.56-.74 3.25 3.25 0 0 1 2.56 1 5.42 5.42 0 0 1 1.12 3l1.14 9.66a1.45 1.45 0 0 0 .15.6.63.63 0 0 0 .37.3l.65.16a1 1 0 0 1 .26.21.5.5 0 0 1 .08.27.42.42 0 0 1-.13.33.54.54 0 0 1-.39.12h-7c-.31 0-.47-.15-.47-.45a.45.45 0 0 1 .33-.43l.75-.16a.7.7 0 0 0 .36-.29.93.93 0 0 0 .07-.63l-.93-8.7a4.26 4.26 0 0 0-.6-1.79 1.47 1.47 0 0 0-1.28-.57 2.51 2.51 0 0 0-1.15.29 5.82 5.82 0 0 0-1.21.86zm26.34 11.03a3.46 3.46 0 0 1 2.46 3.56 4.37 4.37 0 0 1-2.17 3.82 11.51 11.51 0 0 1-6.34 1.44 19.08 19.08 0 0 1-4.67-.47 5.77 5.77 0 0 1-2.62-1.28 2.57 2.57 0 0 1-.81-1.88 2.75 2.75 0 0 1 1.16-2.3 8.05 8.05 0 0 1 3.82-1.19l.23.28a2.72 2.72 0 0 0-1.29.8 1.81 1.81 0 0 0-.42 1.18 3.49 3.49 0 0 0 1.19 2.74 5.69 5.69 0 0 0 3.78 1 9.09 9.09 0 0 0 2.37-.25 2.59 2.59 0 0 0 1.34-.77 1.88 1.88 0 0 0 .44-1.24 1.76 1.76 0 0 0-.39-1.15 3.28 3.28 0 0 0-1.43-.86 15.39 15.39 0 0 0-2.92-.69 19.5 19.5 0 0 1-3.44-.83 4.13 4.13 0 0 1-1.74-1.07 2.19 2.19 0 0 1-.51-1.47 2.6 2.6 0 0 1 .45-1.5 3.28 3.28 0 0 1 1.48-1.12 9.55 9.55 0 0 1 2.73-.61l.07.19a1.19 1.19 0 0 0-.53.36.88.88 0 0 0-.21.58.81.81 0 0 0 .29.58 3.38 3.38 0 0 0 1.21.54 26.6 26.6 0 0 0 2.73.63 17.2 17.2 0 0 1 3.74.98zm.35-6.39a6.5 6.5 0 0 1-2.6 2.18 8.75 8.75 0 0 1-3.76.79 9.75 9.75 0 0 1-4.05-.77 6.39 6.39 0 0 1-2.63-2.05 5 5 0 0 1-.92-2.91 5.58 5.58 0 0 1 .94-3.21 6.36 6.36 0 0 1 2.68-2.22 9.43 9.43 0 0 1 4.1-.82 8.51 8.51 0 0 1 3.9.82 5.87 5.87 0 0 1 2.45 2.14 5.31 5.31 0 0 1 .84 2.91 5.46 5.46 0 0 1-.95 3.14zm-8.39-7.37a4.16 4.16 0 0 0-.66 1.75 9.13 9.13 0 0 0 0 2.67 10.66 10.66 0 0 0 .67 2.74 4.32 4.32 0 0 0 1.11 1.68 1.87 1.87 0 0 0 1.41.53q1-.07 1.59-1.44a7.4 7.4 0 0 0 .24-3.67 8.35 8.35 0 0 0-1.1-3.76 2.26 2.26 0 0 0-2-1.2 1.59 1.59 0 0 0-1.26.7zm4.74-1.21a7.66 7.66 0 0 1 1.69-2.58 3.31 3.31 0 0 1 2.35-.94 2.27 2.27 0 0 1 2.48 2.41 2.29 2.29 0 0 1-.46 1.51 1.62 1.62 0 0 1-1.3.54 1.33 1.33 0 0 1-.88-.28 3.63 3.63 0 0 1-.65-.65 5.38 5.38 0 0 0-.59-.65 1 1 0 0 0-.69-.28 1.15 1.15 0 0 0-.84.4 4.38 4.38 0 0 0-.74 1.22l-.66-.05zm10.85-10.14a3.28 3.28 0 0 1 2.33.71 2.44 2.44 0 0 1 .74 1.85 7.75 7.75 0 0 1-.07 1 8.51 8.51 0 0 1-.22 1.14l-2.35 12.85a.79.79 0 0 1-.19.45.52.52 0 0 1-.38.14.45.45 0 0 1-.35-.14 1.18 1.18 0 0 1-.21-.45l-2.24-13a11.54 11.54 0 0 1-.21-1.15 7.94 7.94 0 0 1-.06-.95 2.24 2.24 0 0 1 .79-1.78 3.59 3.59 0 0 1 2.42-.67zm-.21 25.71a2.71 2.71 0 0 1-1.48-.4 3.09 3.09 0 0 1-1-4.09 3.08 3.08 0 0 1 1-1.08 2.77 2.77 0 0 1 1.45-.4 2.82 2.82 0 0 1 1.51.41 2.89 2.89 0 0 1 1 1.08 3.06 3.06 0 0 1 0 3 2.9 2.9 0 0 1-1 1.11 2.76 2.76 0 0 1-1.48.37z" fill="#1f191a"/></svg>