<svg xmlns="http://www.w3.org/2000/svg" viewBox="0 0 100 100"><path fill="#0F0" d="M90.1 51.7l9.9-5.8-10.7-4.2 8.1-8.1L86 32.2l5.8-9.9-11.4 1.6 3.1-11.1-10.6 4.4.3-11.5-9.2 6.8-2.6-11.2-7.2 9L48.9 0l-4.7 10.5-7.7-8.6-2 11.3-9.6-6.4.9 11.4L15 14.4l3.6 10.9-11.4-1.1 6.2 9.7-11.3 1.8 8.4 7.8L0 48.1l10.1 5.4-9 7.1 11.1 2.8-7 9.1 11.5-.1-4.5 10.5L23.3 80l-1.8 11.3 10.1-5.6 1.1 11.4 8.3-7.9 3.9 10.8 6.1-9.8 6.5 9.5 3.4-11 8.7 7.6.6-11.5L80.4 90l-2.2-11.3 11.2 2.5-5-10.4 11.5-.4-7.4-8.7 11-3.3z"/><path d="M25.9 47.6c.4 0 .7-.1.8-.3.2-.2.3-.5.5-1l.6-2.2c.1-.3.1-.6-.1-.8-.1-.2-.3-.4-.6-.4-.3-.1-.5 0-.7 0-.2.1-.4.3-.5.6l-.4.8c-.1.3-.3.5-.5.7-.2.2-.4.3-.6.4-.2.1-.5.1-.8.1h-.7c-.2 0-.4-.1-.6-.2-.1-.1-.2-.3-.2-.6v-6.8c0-.2 0-.4.1-.5l.3-.3.3-.1c.4-.2.6-.5.6-.9 0-.3-.1-.5-.2-.6-.2-.2-.4-.2-.8-.2h-4.6c-.3 0-.6.1-.8.2-.2.2-.2.4-.2.6 0 .4.2.7.6.9l.3.1.3.3c.1.1.1.3.1.5v6.7c0 .2 0 .4-.1.5l-.3.3-.3.1c-.4.2-.6.5-.6.9 0 .3.1.5.2.6.2.2.4.2.8.2h5.9c.5 0 .8.1 1.1.2.6.1.8.2 1.1.2zM38 40.9c-.4-.7-1-1.2-1.7-1.6-.7-.4-1.6-.6-2.6-.6s-1.9.2-2.6.6c-.8.4-1.3.9-1.8 1.6-.4.7-.6 1.4-.6 2.2 0 .9.2 1.7.6 2.4.4.7 1 1.2 1.7 1.6.7.4 1.6.6 2.6.6s1.9-.2 2.6-.6c.8-.4 1.3-.9 1.8-1.6.4-.7.6-1.4.6-2.2-.1-1-.2-1.7-.6-2.4zm-3.3 4.4c-.1.2-.2.4-.4.4-.2.1-.4 0-.6-.1-.2-.1-.4-.4-.6-.8-.2-.4-.4-.8-.5-1.4-.2-.6-.2-1.1-.2-1.5 0-.4.1-.7.2-1 .1-.2.2-.4.4-.4.2-.1.4 0 .6.1.2.2.4.4.6.8.2.4.4.8.5 1.4.1.6.2 1 .2 1.5 0 .4-.1.8-.2 1zm14-4.4c-.4-.7-1-1.2-1.7-1.6-.7-.4-1.6-.6-2.6-.6s-1.9.2-2.6.6c-.8.4-1.3.9-1.8 1.6-.4.7-.6 1.4-.6 2.2 0 .9.2 1.7.6 2.4.4.7 1 1.2 1.7 1.6.7.4 1.6.6 2.6.6s1.9-.2 2.6-.6c.8-.4 1.3-.9 1.8-1.6.4-.7.6-1.4.6-2.2 0-.9-.2-1.7-.6-2.4zm-3.2 4.4c-.1.2-.2.4-.4.4-.2.1-.4 0-.6-.1-.2-.1-.4-.4-.6-.8-.2-.4-.4-.8-.5-1.4-.2-.6-.2-1.1-.2-1.5 0-.4.1-.7.2-1 .1-.2.2-.4.4-.4.2-.1.4 0 .6.1.2.2.4.4.6.8.2.4.4.8.5 1.4.1.6.2 1 .2 1.5s-.1.8-.2 1zm5.1-8.5l.1.1c.1.1.2.1.2.2.1.1.1.3.1.5v7.3c0 .3 0 .5-.1.6 0 .1-.1.2-.2.3l-.1.1-.3.3c-.1.1-.1.3-.1.4 0 .2.1.4.2.5.1.1.3.2.6.2h3.6c.5 0 .7-.2.7-.7 0-.3-.1-.5-.3-.7-.1-.1-.1-.2-.2-.3v-1.1l.8-.6.9 1.3c.1.2.2.3.3.5.1.1 0 .2-.2.4l-.1.1c-.1.1-.2.2-.2.3 0 .1-.1.2-.1.3 0 .2.1.4.2.5.1.1.3.2.5.2h3.7c.3 0 .5-.1.6-.2.1-.1.2-.3.2-.5s-.1-.3-.2-.5l-.4-.4-.3-.3-.3-.3L58 42l.7-.6c.4-.3.6-.4.8-.5.2-.1.4-.1.6-.2.4-.1.6-.2.7-.4.1-.2.2-.3.2-.5s-.1-.4-.2-.6c-.1-.1-.3-.2-.6-.2h-3.1c-.2 0-.4.1-.6.2-.1.1-.2.3-.2.5 0 .1 0 .3.1.4.1.1.1.2.2.3l.2.1c.1.1.2.2.2.3 0 .1-.1.2-.2.3l-2.1 1.6v-7.6c0-.2-.1-.4-.2-.6-.1-.1-.3-.2-.5-.2s-.4 0-.6.1-.4.1-.7.2l-1.8.7c-.5.2-.7.4-.7.8 0 .2 0 .3.1.4.1.2.2.3.3.3zm11.5 4.6l.1.1c.1.1.2.1.2.2.1.1.1.3.1.5V45c0 .3 0 .5-.1.6 0 .1-.1.2-.2.3v.1l-.3.3c-.1.1-.1.3-.1.4 0 .2.1.4.2.5.1.1.3.2.6.2h3.6c.3 0 .5-.1.6-.2.1-.1.2-.3.2-.5s0-.3-.1-.4l-.3-.3-.1-.1c-.1-.1-.1-.2-.2-.3 0-.1-.1-.3-.1-.6v-5.4c0-.2-.1-.4-.2-.6-.1-.1-.3-.2-.5-.2s-.4 0-.6.1-.4.1-.7.2l-1.8.7c-.5.2-.7.4-.7.8 0 .2 0 .3.1.4 0 .2.1.3.3.4zm2.1-3.3c.6 0 1.2-.1 1.5-.4.4-.3.6-.7.6-1.2s-.2-.9-.6-1.2-.9-.4-1.5-.4-1.2.1-1.5.4c-.4.3-.6.7-.6 1.2s.2.9.6 1.2c.3.3.9.4 1.5.4zM78.6 46h-.1c-.1-.1-.1-.2-.2-.3 0-.1-.1-.3-.1-.6l-.3-3.4c-.1-.8-.3-1.5-.7-2-.4-.5-1-.8-1.8-.8-.5 0-1 .2-1.6.5-.4.2-.9.6-1.5 1.1v-.8c0-.2-.1-.4-.2-.6-.1-.1-.3-.2-.5-.2s-.4 0-.6.1c-.2.1-.4.1-.7.2l-1.8.7c-.5.2-.7.4-.7.8 0 .2 0 .3.1.4l.3.3.1.1c.1.1.2.1.2.2.1.1.1.3.1.5V45c0 .3 0 .5-.1.6 0 .1-.1.2-.2.3l-.1.1-.3.3c-.1.1-.1.3-.1.4 0 .2.1.4.2.5.1.1.3.2.6.2h3.6c.5 0 .7-.2.7-.7 0-.3-.1-.5-.3-.7h-.1c-.1-.1-.1-.2-.2-.3v-3.9c.2-.2.4-.3.5-.3.2-.1.4-.1.5-.1.3 0 .5.1.7.3.1.2.2.5.3.8l.2 2.5v.7c0 .1-.1.2-.2.3l-.1.1c-.2.2-.3.4-.3.7 0 .5.2.7.7.7h3.7c.3 0 .5-.1.6-.2.1-.1.2-.3.2-.5s0-.3-.1-.4c-.2-.1-.3-.3-.4-.4zm4.8-11.3c-.4-.4-1-.6-1.6-.6-.6 0-1 .2-1.4.5-.4.3-.6.8-.6 1.3s.1.9.4 1.2c.3.3.7.4 1.3.4h.2c.2 0 .3 0 .3.1.1.1.1.2.1.3 0 .2-.1.3-.2.5s-.3.3-.6.5c-.2.2-.5.3-.9.4-.3.1-.5.2-.6.4-.1.1-.1.3-.1.5s.1.4.3.5c.2.1.5.1.8 0 1-.3 1.7-.8 2.3-1.6.6-.7.8-1.6.8-2.6.1-.7-.1-1.3-.5-1.8zM36.2 61.9H32c-.3 0-.6.1-.8.2-.2.1-.2.4-.2.6 0 .2.1.4.2.5.1.1.3.2.5.4l.3.1c.1.1.3.1.3.2.1.1.1.2.1.4V66c0 .1-.1.2-.1.2-.1.1-.1.1-.3.1h-.4c-.6 0-1.1-.2-1.6-.6-.5-.4-.9-.9-1.2-1.6-.3-.7-.4-1.6-.4-2.6 0-.9.1-1.6.4-2.3.2-.6.6-1.1 1-1.4.4-.3 1-.5 1.6-.5.4 0 .8.1 1.2.2.4.1.8.4 1.1.7.4.3.7.8 1 1.4.1.3.3.5.5.5.2.1.4.1.6.1.3 0 .5-.2.6-.3.1-.2.2-.4.1-.7l-.8-2.8c-.1-.3-.2-.5-.3-.7-.1-.1-.3-.2-.5-.2-.1 0-.3 0-.4.1-.1.1-.2.2-.3.2-.1.1-.3.1-.4.1-.2 0-.4 0-.6-.1-.2-.1-.5-.2-.9-.3-.4-.1-.8-.1-1.4-.1-.9 0-1.7.2-2.5.5s-1.5.8-2 1.3c-.6.6-1 1.3-1.4 2-.3.8-.5 1.6-.5 2.5 0 1 .1 1.9.4 2.6.3.8.7 1.5 1.2 2 .5.6 1.1 1 1.9 1.3.7.3 1.6.5 2.5.5.6 0 1.1-.1 1.5-.2.4-.1.7-.3 1-.4.3-.1.5-.2.7-.2.1 0 .3 0 .4.1l.3.3c.1.1.2.2.4.3.1.1.3.1.5.1.3 0 .5-.1.7-.2s.2-.4.2-.7V64c0-.2 0-.3.1-.4.1-.1.2-.2.3-.2l.2-.1c.2-.1.3-.2.4-.3.1-.1.1-.3.1-.5 0-.3-.1-.5-.2-.6h-.9zm9.5-1.8c-.7-.4-1.6-.6-2.6-.6s-1.9.2-2.6.6c-.8.4-1.3.9-1.8 1.6-.4.7-.6 1.4-.6 2.2 0 .9.2 1.7.6 2.4.4.7 1 1.2 1.7 1.6.7.4 1.6.6 2.6.6s1.9-.2 2.6-.6c.8-.4 1.3-.9 1.8-1.6.4-.7.6-1.4.6-2.2 0-.9-.2-1.7-.6-2.3-.5-.8-1-1.3-1.7-1.7zm-1.6 6c-.1.2-.2.4-.4.4-.2.1-.4 0-.6-.1-.2-.1-.4-.4-.6-.8-.2-.4-.4-.8-.5-1.4-.2-.6-.2-1.1-.2-1.5 0-.4.1-.7.2-1 .1-.2.2-.4.4-.4.2-.1.4 0 .6.1.2.2.4.4.6.8.2.4.4.8.5 1.4.1.6.2 1 .2 1.5 0 .4-.1.8-.2 1zm12.3-5.9c-.7-.4-1.6-.6-2.6-.6s-1.9.2-2.6.6c-.8.4-1.3.9-1.8 1.6-.4.7-.6 1.4-.6 2.2 0 .9.2 1.7.6 2.4.4.7 1 1.2 1.7 1.6.7.4 1.6.6 2.6.6s1.9-.2 2.6-.6c.8-.4 1.3-.9 1.8-1.6.4-.7.6-1.4.6-2.2 0-.9-.2-1.7-.6-2.3-.4-.8-.9-1.4-1.7-1.7zm-1.5 6c-.1.2-.2.4-.4.4-.2.1-.4 0-.6-.1-.2-.1-.4-.4-.6-.8-.2-.4-.4-.8-.5-1.4-.2-.6-.2-1.1-.2-1.5 0-.4.1-.7.2-1 .1-.2.2-.4.4-.4.2-.1.4 0 .6.1.2.2.4.4.6.8.2.4.4.8.5 1.4.1.6.2 1 .2 1.5 0 .4-.1.7-.2 1zm14.8.6l-.1-.1c-.1-.1-.1-.2-.2-.3 0-.1-.1-.3-.1-.6V56c0-.2-.1-.4-.2-.6-.1-.1-.3-.2-.5-.2s-.4 0-.6.1c-.2.1-.4.1-.7.2l-1.8.7c-.5.2-.7.4-.7.8 0 .2 0 .3.1.4l.3.3.1.1c.1.1.2.1.3.2.1.1.1.3.1.5V60c-.5-.3-1.1-.4-1.7-.4-.8 0-1.6.2-2.3.6-.7.4-1.2.9-1.6 1.6-.4.7-.6 1.5-.6 2.5 0 .8.1 1.5.5 2.2.3.6.7 1.1 1.3 1.5.5.4 1.2.5 1.8.5.8 0 1.5-.2 2.1-.7.2-.2.4-.4.7-.6.1.2.2.4.4.6.3.3.7.4 1.1.4h1.9c.3 0 .5-.1.6-.2.1-.1.2-.3.2-.5s0-.3-.1-.4c0-.1-.1-.2-.3-.3zm-4.8-.4c-.3 0-.5-.1-.8-.3-.2-.2-.4-.4-.5-.8-.1-.4-.2-.8-.2-1.4 0-.5.1-1 .2-1.3.1-.4.3-.6.5-.8.2-.2.5-.3.7-.3.3 0 .5.1.8.2.1 0 .1.1.2.1V66c-.4.3-.6.4-.9.4zm8.7-11.1c-.8 0-1.3.2-1.7.5-.4.3-.5.8-.5 1.4v.5c0 .2.1.4.1.6l1 4.6c.1.3.2.6.4.7.2.2.4.2.6.2.3 0 .5-.1.7-.2.2-.1.3-.4.4-.7l1.1-4.6c0-.2.1-.4.1-.6v-.5c0-.6-.2-1.1-.5-1.4-.4-.4-.9-.5-1.7-.5zm1 9.3c-.3-.2-.7-.3-1.1-.3-.4 0-.7.1-1 .3-.3.2-.6.4-.7.8-.2.3-.3.7-.3 1 0 .4.1.7.3 1 .2.3.4.6.7.8.3.2.7.3 1 .3.4 0 .7-.1 1.1-.3.3-.2.6-.4.7-.8.2-.3.3-.7.3-1 0-.4-.1-.7-.3-1.1-.2-.2-.4-.5-.7-.7z"/></svg>