<?xml version="1.0" encoding="utf-8"?>
<!-- Generator: Adobe Illustrator 24.0.1, SVG Export Plug-In . SVG Version: 6.00 Build 0)  -->
<svg version="1.1" id="Layer_1" xmlns="http://www.w3.org/2000/svg" xmlns:xlink="http://www.w3.org/1999/xlink" x="0px" y="0px"
	 viewBox="0 0 125 125" style="enable-background:new 0 0 125 125;" xml:space="preserve">
<style type="text/css">
	.st0{fill:#00FF00;}
</style>
<path class="st0" d="M112.62,64.62L125,57.38l-13.38-5.25L121.75,42l-14.25-1.75l7.25-12.38l-14.25,2L104.38,16l-13.25,5.5
	L91.5,7.12L80,15.62l-3.25-14l-9,11.25L61.12,0l-5.88,13.12L45.62,2.37l-2.5,14.12l-12-8l1.12,14.25L18.75,18l4.5,13.62L9,30.25
	l7.75,12.12L2.63,44.62l10.5,9.75L0,60.12l12.62,6.75L1.38,75.75l13.88,3.5L6.5,90.62l14.37-0.12l-5.62,13.12L29.12,100l-2.25,14.12
	l12.62-7l1.38,14.25l10.38-9.88l4.88,13.5l7.62-12.25l8.12,11.88l4.25-13.75l10.88,9.5L87.75,106l12.75,6.5l-2.75-14.13l14,3.12
	l-6.25-13l14.38-0.5l-9.25-10.88L124.38,73L112.62,64.62z"/>
<path d="M32.38,59.5c0.5,0,0.88-0.12,1-0.37c0.25-0.25,0.37-0.62,0.62-1.25l0.75-2.75c0.12-0.37,0.12-0.75-0.12-1
	c-0.12-0.25-0.38-0.5-0.75-0.5c-0.38-0.12-0.62,0-0.88,0c-0.25,0.12-0.5,0.38-0.62,0.75l-0.5,1c-0.13,0.38-0.38,0.62-0.62,0.88
	c-0.25,0.25-0.5,0.38-0.75,0.5c-0.25,0.12-0.62,0.12-1,0.12h-0.88c-0.25,0-0.5-0.12-0.75-0.25c-0.12-0.12-0.25-0.38-0.25-0.75v-8.5
	c0-0.25,0-0.5,0.12-0.62l0.38-0.38l0.37-0.12c0.5-0.25,0.75-0.62,0.75-1.13c0-0.37-0.12-0.62-0.25-0.75c-0.25-0.25-0.5-0.25-1-0.25
	h-5.75c-0.37,0-0.75,0.12-1,0.25C21,44.62,21,44.88,21,45.12c0,0.5,0.25,0.88,0.75,1.13l0.38,0.12l0.37,0.38
	c0.12,0.12,0.12,0.38,0.12,0.62v8.38c0,0.25,0,0.5-0.12,0.62l-0.37,0.38l-0.38,0.12C21.25,57.12,21,57.5,21,58
	c0,0.38,0.12,0.62,0.25,0.75c0.25,0.25,0.5,0.25,1,0.25h7.38c0.62,0,1,0.12,1.38,0.25C31.75,59.37,32,59.5,32.38,59.5z M47.5,51.12
	c-0.5-0.88-1.25-1.5-2.12-2c-0.88-0.5-2-0.75-3.25-0.75s-2.38,0.25-3.25,0.75c-1,0.5-1.62,1.12-2.25,2
	c-0.5,0.88-0.75,1.75-0.75,2.75c0,1.13,0.25,2.13,0.75,3s1.25,1.5,2.13,2c0.88,0.5,2,0.75,3.25,0.75s2.38-0.25,3.25-0.75
	c1-0.5,1.62-1.12,2.25-2c0.5-0.88,0.75-1.75,0.75-2.75C48.12,52.88,48,52,47.5,51.12z M43.38,56.63c-0.12,0.25-0.25,0.5-0.5,0.5
	c-0.25,0.12-0.5,0-0.75-0.12c-0.25-0.12-0.5-0.5-0.75-1c-0.25-0.5-0.5-1-0.62-1.75c-0.25-0.75-0.25-1.38-0.25-1.88
	c0-0.5,0.12-0.88,0.25-1.25c0.12-0.25,0.25-0.5,0.5-0.5c0.25-0.12,0.5,0,0.75,0.12c0.25,0.25,0.5,0.5,0.75,1
	c0.25,0.5,0.5,1,0.62,1.75c0.12,0.75,0.25,1.25,0.25,1.88C43.62,55.88,43.5,56.38,43.38,56.63z M60.88,51.12
	c-0.5-0.88-1.25-1.5-2.12-2c-0.88-0.5-2-0.75-3.25-0.75s-2.38,0.25-3.25,0.75c-1,0.5-1.62,1.12-2.25,2
	c-0.5,0.88-0.75,1.75-0.75,2.75c0,1.13,0.25,2.13,0.75,3c0.5,0.88,1.25,1.5,2.13,2c0.88,0.5,2,0.75,3.25,0.75s2.38-0.25,3.25-0.75
	c1-0.5,1.62-1.12,2.25-2c0.5-0.88,0.75-1.75,0.75-2.75C61.62,53,61.38,52,60.88,51.12z M56.88,56.63c-0.12,0.25-0.25,0.5-0.5,0.5
	c-0.25,0.12-0.5,0-0.75-0.12c-0.25-0.12-0.5-0.5-0.75-1c-0.25-0.5-0.5-1-0.62-1.75C54,53.5,54,52.88,54,52.38
	c0-0.5,0.12-0.88,0.25-1.25c0.12-0.25,0.25-0.5,0.5-0.5c0.25-0.12,0.5,0,0.75,0.12c0.25,0.25,0.5,0.5,0.75,1
	c0.25,0.5,0.5,1,0.62,1.75c0.12,0.75,0.25,1.25,0.25,1.88S57,56.38,56.88,56.63z M63.25,46l0.12,0.12c0.12,0.12,0.25,0.12,0.25,0.25
	c0.12,0.12,0.12,0.38,0.12,0.62v9.12c0,0.38,0,0.62-0.12,0.75c0,0.12-0.12,0.25-0.25,0.38l-0.12,0.12l-0.38,0.38
	c-0.12,0.12-0.12,0.37-0.12,0.5c0,0.25,0.12,0.5,0.25,0.62c0.12,0.12,0.38,0.25,0.75,0.25h4.5c0.62,0,0.88-0.25,0.88-0.88
	c0-0.37-0.12-0.62-0.38-0.88c-0.12-0.12-0.12-0.25-0.25-0.38v-1.37l1-0.75l1.12,1.62c0.12,0.25,0.25,0.38,0.38,0.62
	c0.12,0.12,0,0.25-0.25,0.5l-0.12,0.12c-0.12,0.12-0.25,0.25-0.25,0.38c0,0.12-0.12,0.25-0.12,0.38c0,0.25,0.12,0.5,0.25,0.62
	c0.12,0.12,0.38,0.25,0.62,0.25h4.62c0.38,0,0.62-0.12,0.75-0.25s0.25-0.38,0.25-0.62c0-0.25-0.12-0.38-0.25-0.62l-0.5-0.5L75.62,57
	l-0.38-0.37L72.5,52.5l0.88-0.75c0.5-0.38,0.75-0.5,1-0.62c0.25-0.12,0.5-0.12,0.75-0.25c0.5-0.12,0.75-0.25,0.88-0.5
	c0.12-0.25,0.25-0.38,0.25-0.62c0-0.25-0.12-0.5-0.25-0.75c-0.12-0.12-0.38-0.25-0.75-0.25h-3.88c-0.25,0-0.5,0.12-0.75,0.25
	c-0.12,0.12-0.25,0.38-0.25,0.62c0,0.12,0,0.38,0.12,0.5s0.12,0.25,0.25,0.38L71,50.62c0.12,0.12,0.25,0.25,0.25,0.38
	c0,0.12-0.12,0.25-0.25,0.37l-2.62,2v-9.5c0-0.25-0.12-0.5-0.25-0.75C68,43,67.75,42.88,67.5,42.88c-0.25,0-0.5,0-0.75,0.12
	c-0.25,0.12-0.5,0.12-0.88,0.25l-2.25,0.88c-0.62,0.25-0.88,0.5-0.88,1c0,0.25,0,0.38,0.12,0.5C63,45.88,63.13,46,63.25,46z
	 M77.62,51.75l0.12,0.12C77.87,52,78,52,78,52.12c0.12,0.12,0.12,0.38,0.12,0.62v3.5c0,0.38,0,0.62-0.12,0.75
	c0,0.12-0.12,0.25-0.25,0.38v0.12l-0.38,0.38c-0.12,0.12-0.12,0.38-0.12,0.5c0,0.25,0.12,0.5,0.25,0.62
	c0.12,0.12,0.38,0.25,0.75,0.25h4.5c0.38,0,0.62-0.12,0.75-0.25c0.12-0.12,0.25-0.38,0.25-0.62c0-0.25,0-0.38-0.12-0.5l-0.38-0.38
	l-0.12-0.12C83,57.25,83,57.12,82.87,57c0-0.12-0.12-0.37-0.12-0.75V49.5c0-0.25-0.12-0.5-0.25-0.75c-0.12-0.12-0.38-0.25-0.62-0.25
	s-0.5,0-0.75,0.12c-0.25,0.12-0.5,0.12-0.87,0.25L78,49.75c-0.62,0.25-0.88,0.5-0.88,1c0,0.25,0,0.38,0.12,0.5
	C77.25,51.5,77.38,51.62,77.62,51.75z M80.25,47.62c0.75,0,1.5-0.12,1.88-0.5c0.5-0.38,0.75-0.88,0.75-1.5s-0.25-1.13-0.75-1.5
	c-0.5-0.38-1.13-0.5-1.88-0.5c-0.75,0-1.5,0.12-1.88,0.5c-0.5,0.37-0.75,0.88-0.75,1.5s0.25,1.12,0.75,1.5
	C78.75,47.5,79.5,47.62,80.25,47.62z M98.25,57.5h-0.12C98,57.38,98,57.25,97.88,57.12c0-0.12-0.12-0.38-0.12-0.75l-0.38-4.25
	c-0.12-1-0.38-1.88-0.87-2.5c-0.5-0.62-1.25-1-2.25-1c-0.62,0-1.25,0.25-2,0.62c-0.5,0.25-1.12,0.75-1.88,1.38v-1
	c0-0.25-0.12-0.5-0.25-0.75c-0.12-0.12-0.38-0.25-0.62-0.25s-0.5,0-0.75,0.12c-0.25,0.12-0.5,0.12-0.87,0.25l-2.25,0.88
	c-0.62,0.25-0.87,0.5-0.87,1c0,0.25,0,0.38,0.12,0.5l0.38,0.38l0.12,0.12C85.5,52,85.63,52,85.63,52.12
	c0.12,0.12,0.12,0.38,0.12,0.62v3.5c0,0.38,0,0.62-0.12,0.75c0,0.12-0.12,0.25-0.25,0.38l-0.12,0.12l-0.38,0.38
	c-0.12,0.12-0.12,0.38-0.12,0.5c0,0.25,0.12,0.5,0.25,0.62c0.12,0.12,0.38,0.25,0.75,0.25h4.5c0.62,0,0.87-0.25,0.87-0.88
	c0-0.38-0.12-0.62-0.38-0.88h-0.12c-0.12-0.12-0.12-0.25-0.25-0.37v-4.88c0.25-0.25,0.5-0.38,0.62-0.38
	c0.25-0.12,0.5-0.12,0.62-0.12c0.38,0,0.62,0.12,0.88,0.38c0.12,0.25,0.25,0.62,0.38,1l0.25,3.12v0.88c0,0.12-0.12,0.25-0.25,0.37
	l-0.12,0.12c-0.25,0.25-0.38,0.5-0.38,0.88c0,0.62,0.25,0.88,0.88,0.88h4.62c0.38,0,0.62-0.12,0.75-0.25
	c0.12-0.12,0.25-0.38,0.25-0.62s0-0.38-0.12-0.5C98.5,57.87,98.37,57.62,98.25,57.5z M104.25,43.38c-0.5-0.5-1.25-0.75-2-0.75
	c-0.75,0-1.25,0.25-1.75,0.62c-0.5,0.38-0.75,1-0.75,1.62s0.12,1.13,0.5,1.5c0.38,0.38,0.87,0.5,1.62,0.5h0.25
	c0.25,0,0.38,0,0.38,0.12c0.12,0.12,0.12,0.25,0.12,0.38c0,0.25-0.12,0.38-0.25,0.62c-0.12,0.25-0.38,0.38-0.75,0.62
	c-0.25,0.25-0.62,0.38-1.12,0.5c-0.38,0.12-0.62,0.25-0.75,0.5c-0.12,0.12-0.12,0.38-0.12,0.62c0,0.25,0.12,0.5,0.38,0.62
	c0.25,0.12,0.62,0.12,1,0c1.25-0.37,2.12-1,2.88-2c0.75-0.88,1-2,1-3.25C105,44.75,104.75,44,104.25,43.38L104.25,43.38z
	 M45.25,77.38H40c-0.38,0-0.75,0.12-1,0.25s-0.25,0.5-0.25,0.75S38.88,78.88,39,79s0.38,0.25,0.62,0.5L40,79.62
	c0.12,0.12,0.38,0.12,0.38,0.25c0.12,0.12,0.12,0.25,0.12,0.5v2.12c0,0.12-0.12,0.25-0.12,0.25c-0.12,0.12-0.12,0.12-0.38,0.12h-0.5
	c-0.75,0-1.38-0.25-2-0.75c-0.62-0.5-1.12-1.12-1.5-2c-0.38-0.88-0.5-2-0.5-3.25c0-1.12,0.12-2,0.5-2.88
	c0.25-0.75,0.75-1.38,1.25-1.75s1.25-0.62,2-0.62c0.5,0,1,0.12,1.5,0.25s1,0.5,1.37,0.88c0.5,0.38,0.88,1,1.25,1.75
	c0.12,0.38,0.38,0.62,0.62,0.62c0.25,0.12,0.5,0.12,0.75,0.12c0.38,0,0.62-0.25,0.75-0.38c0.12-0.25,0.25-0.5,0.12-0.88l-1-3.5
	c-0.12-0.38-0.25-0.62-0.38-0.88c-0.12-0.12-0.38-0.25-0.62-0.25c-0.12,0-0.38,0-0.5,0.12c-0.12,0.12-0.25,0.25-0.38,0.25
	c-0.12,0.12-0.38,0.12-0.5,0.12c-0.25,0-0.5,0-0.75-0.12c-0.25-0.12-0.62-0.25-1.13-0.38c-0.5-0.12-1-0.12-1.75-0.12
	c-1.12,0-2.12,0.25-3.12,0.62c-1,0.38-1.88,1-2.5,1.62c-0.75,0.75-1.25,1.62-1.75,2.5c-0.37,1-0.62,2-0.62,3.12
	c0,1.25,0.12,2.38,0.5,3.25c0.37,1,0.88,1.88,1.5,2.5C33.25,83.62,34,84.12,35,84.5c0.88,0.38,2,0.62,3.12,0.62
	c0.75,0,1.38-0.12,1.88-0.25c0.5-0.12,0.88-0.38,1.25-0.5c0.37-0.12,0.62-0.25,0.88-0.25c0.12,0,0.38,0,0.5,0.12L43,84.63
	c0.12,0.12,0.25,0.25,0.5,0.38c0.12,0.12,0.38,0.12,0.62,0.12c0.38,0,0.62-0.12,0.88-0.25c0.25-0.12,0.25-0.5,0.25-0.88v-4
	c0-0.25,0-0.38,0.12-0.5c0.12-0.12,0.25-0.25,0.38-0.25L46,79.12c0.25-0.12,0.38-0.25,0.5-0.38c0.12-0.12,0.12-0.38,0.12-0.62
	c0-0.38-0.12-0.62-0.25-0.75C46.37,77.38,45.25,77.38,45.25,77.38z M57.12,75.12c-0.88-0.5-2-0.75-3.25-0.75s-2.38,0.25-3.25,0.75
	c-1,0.5-1.62,1.12-2.25,2c-0.5,0.88-0.75,1.75-0.75,2.75c0,1.12,0.25,2.12,0.75,3s1.25,1.5,2.12,2s2,0.75,3.25,0.75
	s2.38-0.25,3.25-0.75c1-0.5,1.62-1.12,2.25-2C59.75,82,60,81.12,60,80.13c0-1.12-0.25-2.12-0.75-2.88
	C58.62,76.25,58,75.63,57.12,75.12z M55.13,82.63c-0.12,0.25-0.25,0.5-0.5,0.5c-0.25,0.12-0.5,0-0.75-0.12
	c-0.25-0.12-0.5-0.5-0.75-1c-0.25-0.5-0.5-1-0.62-1.75c-0.25-0.75-0.25-1.38-0.25-1.88c0-0.5,0.12-0.88,0.25-1.25
	c0.12-0.25,0.25-0.5,0.5-0.5c0.25-0.12,0.5,0,0.75,0.12c0.25,0.25,0.5,0.5,0.75,1c0.25,0.5,0.5,1,0.62,1.75
	c0.12,0.75,0.25,1.25,0.25,1.88C55.38,81.88,55.25,82.38,55.13,82.63z M70.5,75.25c-0.88-0.5-2-0.75-3.25-0.75s-2.38,0.25-3.25,0.75
	c-1,0.5-1.62,1.12-2.25,2C61.25,78.12,61,79,61,80c0,1.12,0.25,2.12,0.75,3c0.5,0.88,1.25,1.5,2.12,2s2,0.75,3.25,0.75
	S69.5,85.5,70.38,85c1-0.5,1.62-1.12,2.25-2c0.5-0.87,0.75-1.75,0.75-2.75c0-1.13-0.25-2.13-0.75-2.88
	C72.12,76.38,71.5,75.62,70.5,75.25z M68.62,82.75c-0.12,0.25-0.25,0.5-0.5,0.5c-0.25,0.12-0.5,0-0.75-0.12s-0.5-0.5-0.75-1
	c-0.25-0.5-0.5-1-0.62-1.75c-0.25-0.75-0.25-1.37-0.25-1.88c0-0.5,0.12-0.88,0.25-1.25c0.12-0.25,0.25-0.5,0.5-0.5
	c0.25-0.12,0.5,0,0.75,0.12c0.25,0.25,0.5,0.5,0.75,1c0.25,0.5,0.5,1,0.62,1.75s0.25,1.25,0.25,1.87
	C68.88,82,68.75,82.37,68.62,82.75z M87.13,83.5L87,83.38c-0.12-0.12-0.12-0.25-0.25-0.38c0-0.12-0.12-0.38-0.12-0.75V70
	c0-0.25-0.12-0.5-0.25-0.75C86.25,69.12,86,69,85.75,69c-0.25,0-0.5,0-0.75,0.12c-0.25,0.12-0.5,0.12-0.87,0.25l-2.25,0.88
	c-0.62,0.25-0.87,0.5-0.87,1c0,0.25,0,0.38,0.12,0.5l0.38,0.38l0.12,0.12c0.12,0.12,0.25,0.12,0.38,0.25
	c0.12,0.12,0.12,0.38,0.12,0.62V75c-0.62-0.38-1.37-0.5-2.12-0.5c-1,0-2,0.25-2.88,0.75c-0.88,0.5-1.5,1.13-2,2
	c-0.5,0.88-0.75,1.88-0.75,3.12c0,1,0.12,1.88,0.62,2.75c0.38,0.75,0.88,1.37,1.62,1.88c0.62,0.5,1.5,0.62,2.25,0.62
	c1,0,1.88-0.25,2.62-0.88c0.25-0.25,0.5-0.5,0.88-0.75c0.12,0.25,0.25,0.5,0.5,0.75c0.38,0.38,0.88,0.5,1.38,0.5h2.38
	c0.38,0,0.62-0.12,0.75-0.25s0.25-0.38,0.25-0.62c0-0.25,0-0.38-0.12-0.5C87.5,83.75,87.38,83.62,87.13,83.5L87.13,83.5z M81.12,83
	c-0.38,0-0.62-0.12-1-0.38c-0.25-0.25-0.5-0.5-0.62-1s-0.25-1-0.25-1.75c0-0.62,0.12-1.25,0.25-1.62c0.12-0.5,0.38-0.75,0.62-1
	c0.25-0.25,0.62-0.38,0.87-0.38c0.38,0,0.62,0.12,1,0.25c0.12,0,0.12,0.12,0.25,0.12v5.25C81.75,82.88,81.5,83,81.12,83z M92,69.12
	c-1,0-1.63,0.25-2.12,0.62c-0.5,0.38-0.62,1-0.62,1.75v0.62c0,0.25,0.12,0.5,0.12,0.75l1.25,5.75c0.12,0.38,0.25,0.75,0.5,0.88
	c0.25,0.25,0.5,0.25,0.75,0.25c0.38,0,0.62-0.12,0.88-0.25c0.25-0.12,0.38-0.5,0.5-0.88l1.38-5.75c0-0.25,0.12-0.5,0.12-0.75V71.5
	c0-0.75-0.25-1.38-0.62-1.75C93.62,69.25,93,69.12,92,69.12z M93.25,80.75c-0.38-0.25-0.88-0.38-1.38-0.38S91,80.5,90.62,80.75
	c-0.38,0.25-0.75,0.5-0.88,1c-0.25,0.38-0.38,0.88-0.38,1.25c0,0.5,0.12,0.88,0.38,1.25c0.25,0.38,0.5,0.75,0.88,1
	c0.38,0.25,0.88,0.38,1.25,0.38c0.5,0,0.88-0.12,1.38-0.38c0.38-0.25,0.75-0.5,0.87-1c0.25-0.38,0.38-0.87,0.38-1.25
	c0-0.5-0.12-0.87-0.38-1.37C93.88,81.38,93.62,81,93.25,80.75z"/>
</svg>
