<?xml version="1.0" encoding="utf-8"?>
<!-- Generator: Adobe Illustrator 24.0.1, SVG Export Plug-In . SVG Version: 6.00 Build 0)  -->
<svg version="1.1" id="Layer_1" xmlns="http://www.w3.org/2000/svg" xmlns:xlink="http://www.w3.org/1999/xlink" x="0px" y="0px"
	 viewBox="0 0 1824 1282" style="enable-background:new 0 0 1824 1282;" xml:space="preserve">
<style type="text/css">
	.st0{fill:#FBA900;}
</style>
<g>
	<path class="st0" d="M178.26,1236.32c-11.12-0.16-22.27,0.16-33.35-0.62c-9.51-0.67-18.99,0.71-28.48-0.39
		c-4.23-0.49-8.62,0.48-12.89,0.15c-6.8-0.52-13.55-0.15-20.33-0.01c-3.17,0.06-6.34-0.32-9.51-0.32
		c-11.33,0.02-22.65,0.44-33.97,0.98c-2.94,0.14-5.91,0.13-8.83-0.14c-3.64-0.33-4.51-2.39-4.43-4.9c0.09-2.95-0.04-5.91,0.07-8.85
		c0.09-2.63,1.43-4.17,3.94-4.85c0.44-0.12,0.89-0.22,1.34-0.25c5.29-0.31,10.05-2.42,14.97-4.14c7.12-2.49,12.62-7.01,17.6-12.39
		c5.92-6.39,8.71-14.15,10.13-22.59c1.55-9.25,0.94-18.56,1.01-27.84c0.05-6.8-0.46-13.6-0.47-20.39
		c-0.01-8.39,0.41-16.78,0.35-25.16c-0.06-9.75-0.59-19.49-0.64-29.24c-0.09-15.16,0.06-30.32,0.1-45.49
		c0.02-7.47-0.06-14.95,0.05-22.42c0.14-9.48-0.87-18.97,0.24-28.46c0.28-2.43-0.22-4.93-0.24-7.41c-0.02-2.93,0.11-5.87,0.18-8.8
		c0.03-1.36,0.26-2.74,0.06-4.07c-0.75-4.98-0.39-9.95-0.03-14.92c0.08-1.12,0.09-2.25,0.08-3.37c-0.1-11.09-0.29-22.17,0.14-33.27
		c0.45-11.78,0.21-23.58,0.27-35.38c0.05-12.26,0.11-24.52,0.13-36.78c0.01-3.86-0.31-7.73-0.06-11.57
		c0.66-10.18-0.26-20.36,0.27-30.52c0.2-3.85-0.27-7.62-0.54-11.43c-0.89-12.72-7.36-22.09-17.49-29.27
		c-3.55-2.51-7.43-4.32-11.65-5.4c-4.17-1.06-8.35-2.06-12.51-3.15c-1.09-0.28-2.15-0.73-3.18-1.2c-1.58-0.73-2.49-2.06-2.54-3.75
		c-0.09-2.95-0.07-5.91,0.08-8.85c0.12-2.47,1.43-3.7,3.89-3.81c2.95-0.13,5.9-0.27,8.85-0.18c16.13,0.51,32.22-0.64,48.32-1.18
		c20.87-0.71,41.73-1.72,62.62-1.38c14.54,0.24,28.97,1.37,43.39,3.54c15.89,2.39,30.86,7.15,45.2,14.24
		c9.01,4.45,17.28,10.01,25.02,16.34c8.97,7.33,17.36,15.3,25.25,23.8c7.76,8.36,14.37,17.58,20.32,27.24
		c8.45,13.73,16.06,27.93,22.21,42.87c8.06,19.56,13.81,39.79,18.09,60.51c2.94,14.24,5.31,28.54,7.13,42.95
		c0.71,5.62,1.34,11.27,1.72,16.92c0.75,11.32,1.31,22.66,1.94,33.99c0.23,4.08,0.51,8.15,0.59,12.23c0.06,2.94-0.18,5.89-0.26,8.83
		c-0.3,11.79-0.31,23.59-0.96,35.36c-0.87,15.62-2.2,31.25-5.38,46.59c-3.26,15.77-7.33,31.4-13.96,46.15
		c-5.31,11.82-11.73,23.06-20.18,32.96c-5.16,6.04-10.85,11.58-17.03,16.61c-7.24,5.89-14.81,11.25-22.98,15.75
		c-7.37,4.06-15.28,6.9-23.11,9.89c-0.63,0.24-1.31,0.39-1.97,0.5c-11.62,1.92-23.17,4.45-35.05,4.38c-2.7-0.02-5.4,0.68-8.11,0.76
		c-11.8,0.33-23.6,0.56-35.4,0.82C178.26,1236.48,178.26,1236.4,178.26,1236.32z M130.07,1012.28c0,0,0.01,0,0.01,0
		c0,4.31-0.03,8.62,0.01,12.93c0.09,12.26,0.27,24.52,0.3,36.78c0.06,21.79-0.03,43.58,0.08,65.36c0.04,9.06,0.45,18.12,0.64,27.18
		c0.16,7.49,0.1,14.99,0.44,22.47c0.2,4.52,0.83,9.04,1.54,13.52c0.57,3.63,2.09,6.99,4.59,9.73c5.7,6.25,12.76,10.33,21.15,11.29
		c12.85,1.47,25.71,1.6,38.67,0.3c7.62-0.76,14.59-3.31,21.55-5.78c10.81-3.84,20.06-10.55,28.12-18.66
		c9.97-10.03,18.37-21.29,24.55-34.08c2.27-4.69,4.29-9.5,6.44-14.25c4.23-9.32,7.32-19.09,9.64-28.99
		c3.19-13.65,6.16-27.39,7.95-41.34c1.42-11.03,2.5-22.1,3.05-33.17c0.93-18.58,0.87-37.2,0.16-55.81
		c-0.27-7.02-0.72-14.03-1.13-21.04c-0.51-8.82-1.06-17.63-1.6-26.45c-0.03-0.45-0.14-0.9-0.22-1.34
		c-1.03-6.26-1.25-12.6-2.16-18.89c-1.52-10.52-2.74-21.09-5.21-31.45c-3.25-13.66-6.38-27.37-10.09-40.91
		c-2.03-7.39-4.75-14.65-7.87-21.66c-4.14-9.3-8.86-18.31-14.58-26.81c-10.34-15.36-23.51-27.54-39.61-36.57
		c-5.56-3.12-11.51-5.41-17.8-6.56c-10.94-2-21.93-2.84-33.06-1.4c-8.3,1.07-15.77,3.85-22.49,8.84c-2.4,1.79-4.37,3.9-6.2,6.24
		c-4.87,6.23-6.26,13.66-6.45,21.12c-0.33,12.92,0.14,25.87,0.29,38.8c0.07,6.55,0.3,13.11,0.21,19.66
		c-0.13,8.85-0.69,17.69-0.74,26.53c-0.14,30.65-0.15,61.31-0.19,91.96C130.06,977.32,130.07,994.8,130.07,1012.28z"/>
	<path class="st0" d="M821.19,973.52c0,15.45-0.03,30.89,0.01,46.34c0.04,17.26,0.17,34.52,0.2,51.78
		c0.03,14.76-0.1,29.51,0.01,44.27c0.04,5.89,0.66,11.77,0.79,17.66c0.16,7.03,0.02,14.06,0.12,21.09
		c0.1,7.49-0.24,15.04,0.59,22.45c1.63,14.51,8.17,26.2,21.13,33.92c5.75,3.42,11.91,5.5,18.27,7.2c1.31,0.35,2.66,0.59,3.95,1.01
		c3.23,1.07,5.13,3.26,4.96,6.48c-0.15,2.91-0.8,5.82-1.47,8.68c-0.16,0.67-1.21,1.32-1.99,1.59c-0.81,0.28-1.79,0.11-2.69,0.1
		c-15.66-0.25-31.32-0.6-46.98-0.71c-9.52-0.07-19.05,0.26-28.58,0.36c-10.22,0.11-20.43,0.19-30.65,0.21
		c-6.12,0.02-7.46-1.43-7.49-7.75c0-1.36,0.05-2.72,0.11-4.09c0.08-1.8-0.07-3.64,1.35-5.12c1.3-1.35,3.02-0.65,4.49-1.05
		c9.25-2.52,18.08-5.89,25.53-12.24c6.05-5.15,10.19-11.52,12.38-19.1c2.85-9.87,3.9-19.87,3.53-30.24
		c-0.3-8.53-1.14-17.13,0.18-25.74c0.64-4.19-0.02-8.58-0.07-12.88c-0.07-6.57-0.07-13.14-0.19-19.71c-0.05-2.7-0.47-5.4-0.49-8.1
		c-0.07-8.85-0.03-17.7-0.02-26.56c0-1.82-0.1-3.66,0.18-5.44c0.54-3.38,0.36-6.74,0.29-10.12c-0.22-11.11-0.44-22.22-0.47-33.33
		c-0.02-11.12,0.32-22.24,0.28-33.35c-0.05-16.11-0.39-32.23-0.42-48.34c-0.04-19.07,0.14-38.15,0.18-57.22
		c0.03-13.85-0.06-27.7,0.01-41.55c0.07-14.08,0.27-28.15,0.41-42.23c0-0.45,0.01-0.91,0.02-1.36c0.1-6.79,0.19-6.86-4.21-12.33
		c-3.69-4.6-7.41-9.2-11.48-13.46c-8.45-8.83-18.58-15.15-30.03-19.45c-6.46-2.42-6.87-1.48-6.87-9.64c0-1.14,0.03-2.27,0.08-3.41
		c0.14-3.39,0.63-4.03,3.94-4.14c5.45-0.19,10.9-0.3,16.35-0.28c9.31,0.04,18.61,0.24,27.92,0.33c20.88,0.2,41.76,0.4,62.64,0.53
		c9.08,0.06,18.17-0.09,27.25-0.08c6.2,0.01,6.33,0.2,6.41,6.62c0.01,0.45,0,0.91,0,1.36c-0.08,7.98,0.86,7.05-6.95,8.78
		c-5.42,1.2-10.3,3.4-14.8,6.59c-8.97,6.37-10.95,17.57-4.66,27.1c1.75,2.65,3.75,5.13,5.67,7.67
		c18.63,24.62,37.23,49.26,55.9,73.85c22.37,29.48,44.8,58.91,67.18,88.38c12.63,16.63,24.81,33.6,38.02,49.79
		c1,1.23,1.92,2.54,2.86,3.82c1.95,2.66,3.22,5.89,6.24,7.68c0.02-3.16,0.21-6.32,0.05-9.47c-0.88-16.56-0.69-33.13-0.27-49.7
		c0.32-12.91,0.52-25.83-0.12-38.75c-0.34-6.78,0.19-13.6,0.32-20.41c0.04-2.04,0.08-4.09,0.06-6.13
		c-0.13-12.01-0.29-24.02-0.41-36.04c-0.18-17.02-0.29-34.04-0.52-51.06c-0.07-4.97-0.49-9.92-1.13-14.88
		c-1.71-13.07-8.8-22.65-19.09-30.14c-5.91-4.3-12.51-7.36-19.72-8.94c-1.11-0.24-2.22-0.46-3.33-0.7
		c-1.74-0.38-2.91-1.42-2.97-3.23c-0.12-3.4-0.12-6.81-0.05-10.21c0.03-1.47,1.1-2.41,2.69-2.53c1.36-0.1,2.72-0.09,4.08-0.09
		c33.39-0.11,66.77-0.21,100.16-0.31c7.55-0.02,7.93-0.62,7.62,7.91c-0.02,0.68,0.05,1.36,0.02,2.04c-0.13,3.78-0.47,4.29-4.04,5.09
		c-7.41,1.65-14.16,4.77-20.5,8.87c-7.81,5.06-14.06,11.51-17.49,20.29c-1.31,3.36-2.41,6.88-2.97,10.43
		c-1.11,6.94-1.42,13.98-1.36,21.02c0.13,14.29,0.18,28.57,0.79,42.86c0.57,13.38,0.21,26.79,0.34,40.19
		c0.23,23.16,0.56,46.31,0.79,69.47c0.06,6.33-0.13,12.67-0.15,19c-0.01,2.72,0.13,5.44,0.22,8.15c0.02,0.68,0.27,1.36,0.2,2.03
		c-1.15,12.02,0.42,24.02,0.24,36.03c-0.18,12.03-0.11,24.06-0.02,36.09c0.12,15.44,0.41,30.88,0.56,46.32
		c0.08,8.17-0.28,16.35,0.08,24.51c0.39,8.82-0.03,17.62,0.07,26.43c0.1,9.29,0.09,18.64,1.09,27.86
		c0.83,7.59,2.18,15.25,6.86,21.83c5.02,7.07,10.94,12.7,19.74,14.55c1.09,0.23,2.13,0.74,3.18,1.17c1.62,0.65,2.56,1.83,2.62,3.62
		c0.11,3.4,0.27,6.8,0.29,10.2c0.01,1.54-0.85,2.59-2.37,2.9c-1.54,0.32-3.2,0.77-4.67,0.47c-4.52-0.91-9.05-0.51-13.58-0.5
		c-3.4,0-6.81-0.09-10.21-0.1c-13.39-0.06-26.78-0.1-40.17-0.17c-4.31-0.02-8.63-0.05-12.94-0.18c-2.28-0.07-3.29-0.9-3.79-3.15
		c-0.34-1.52-0.45-3.13-0.44-4.69c0.02-1.81,0.26-3.62,0.45-5.43c0.3-2.93,0.78-3.73,3.51-4.17c5.87-0.95,10.03-5.06,14.97-7.72
		c2.75-3.85,6.29-7.17,7.99-11.71c2.25-5.98,3.6-12.21,3.71-18.58c0.15-8.37,0.52-16.73-0.37-25.12c-0.47-4.45,0.33-9.02,0.19-13.52
		c-0.2-6.57-0.32-13.19-1.24-19.68c-1.08-7.63-3.47-14.98-6.61-22.08c-3.22-7.29-7.26-14.1-11.37-20.9
		c-5.9-9.74-13.17-18.48-19.91-27.6c-7.81-10.58-15.8-21.04-23.77-31.5c-13.07-17.14-26.24-34.21-39.28-51.38
		c-10.15-13.36-20.12-26.86-30.23-40.26c-6.83-9.04-13.95-17.86-20.6-27.02c-12.54-17.25-26.1-33.73-38.03-51.43
		c-1.39-2.07-3.02-3.97-4.54-5.95c-6.37-8.27-12.74-16.55-19.12-24.81c-0.97-1.26-2-2.46-3.04-3.67c-0.12-0.14-0.5-0.25-0.62-0.17
		c-0.3,0.21-0.73,0.52-0.74,0.8c-0.09,2.27-0.12,4.54-0.12,6.81c0.01,13.63,0.37,27.27-0.01,40.88
		c-0.61,21.56,0.18,43.11,0.02,64.67c-0.11,14.99-0.02,29.98-0.02,44.97C821.12,973.52,821.15,973.52,821.19,973.52z"/>
	<path class="st0" d="M1575.87,729.42c12.94,0,25.88-0.08,38.82,0.02c22.24,0.18,44.47,0.47,66.71,0.71
		c0.68,0.01,1.36-0.01,2.04,0.01c1.82,0.05,3.03-0.94,3.77-2.44c1.19-2.44,2.21-4.97,3.36-7.44c2.75-5.91,1.71-6.23,9.57-6.17
		c0.23,0,0.45,0,0.68,0.01c6.48,0.17,6.63-1.17,9.21,7.19c3.27,10.62,6.64,21.21,9.95,31.82c3.38,10.81,6.78,21.62,10.09,32.45
		c4.31,14.09,8.54,28.2,12.8,42.29c0.33,1.08,0.76,2.14,1.02,3.24c0.72,2.97,0.16,4.08-2.74,5.25c-2.52,1.01-5.05,2.03-7.65,2.8
		c-3.14,0.93-4.65,0.35-6.42-2.28c-1.39-2.07-2.63-4.24-3.9-6.39c-9.13-15.49-19.28-30.23-31.68-43.33
		c-9.26-9.78-19.41-18.51-31.35-24.85c-9.63-5.11-19.62-9.6-30.61-10.85c-5.84-0.67-11.78-0.6-17.67-0.78
		c-2.49-0.08-5,0.21-7.49,0.06c-6.51-0.4-12.64,1.15-18.57,3.53c-6.05,2.43-10.92,6.29-14.16,12.16c-3.01,5.46-4.9,11.15-5.24,17.4
		c-0.69,12.91-0.63,25.83-0.67,38.75c-0.02,7.23,0.6,14.44,0.09,21.71c-0.54,7.67-0.15,15.41-0.13,23.12
		c0.04,12.02,0.1,24.05,0.17,36.07c0.01,1.81,0.07,3.63,0.27,5.43c0.27,2.46,0.96,2.99,3.53,3.03c17.68,0.27,35.36,0.56,53.05,0.77
		c9.08,0.11,18.17-0.08,27.18-1.14c4.7-0.55,9.31-1.93,13.94-3.02c1.32-0.31,2.62-0.78,3.83-1.38c3.18-1.57,4.34,0.09,5.04,2.44
		c2.39,8.04,4.64,16.12,6.99,24.17c3.29,11.31,6.61,22.61,9.95,33.9c2.64,8.91,5.3,17.81,8.02,26.69
		c1.79,5.86,3.68,11.68,5.54,17.51c0.27,0.86,0.69,1.69,0.9,2.56c0.87,3.73,0.03,5.46-3.43,7.05c-1.85,0.85-3.73,1.65-5.63,2.4
		c-3.91,1.55-5.57,0.77-7.54-3.13c-3.47-6.88-6.78-13.87-10.63-20.53c-8.79-15.18-18.79-29.55-32.11-41.16
		c-12.49-10.88-26.72-18.77-43-22.45c-4.4-1-8.95-1.42-13.45-1.87c-5.41-0.54-10.85-0.81-16.27-1.19c-0.68-0.05-1.36-0.08-2.04-0.08
		c-3.74,0.01-4.48,0.63-4.53,4.22c-0.06,5,0,9.99,0.02,14.99c0.02,4.31-0.01,8.62,0.12,12.93c0.2,6.57,0.53,13.14,0.76,19.71
		c0.05,1.58-0.07,3.17-0.15,4.75c-0.17,3.17-0.52,6.33-0.52,9.49c0,9.97,0.22,19.94,0.2,29.91c-0.03,11.8-0.43,23.6-0.27,35.4
		c0.17,13.59-0.29,27.18,0.56,40.77c0.53,8.37,0.49,16.8,0.18,25.19c-0.23,6.13,0.46,12.2,0.29,18.32
		c-0.21,7.48,0.21,14.98,0.17,22.47c-0.04,7.36,1.34,14.42,3.89,21.29c3.01,8.11,8.68,13.66,16.46,17.21
		c5.88,2.68,12.14,3.64,18.51,4c5.44,0.31,10.89,0.48,16.33,0.69c1.35,0.05,2.71,0.04,4.07-0.01c3.18-0.11,6.36-0.47,9.52-0.36
		c10.76,0.38,21.28-1.48,31.72-3.55c16.17-3.2,31.07-9.9,45.3-18.09c6.71-3.86,12.74-8.68,18.77-13.5
		c12.3-9.81,23.32-20.9,33.17-33.14c4.12-5.12,7.83-10.57,11.71-15.88c0.8-1.1,1.51-2.27,2.33-3.35c0.89-1.17,2.09-1.62,3.58-1.48
		c4.87,0.46,9.08,2.7,13.24,5c0.96,0.53,1.36,1.75,1,3.01c-1.41,5.02-2.72,10.08-4.21,15.07c-3.9,13.04-7.9,26.04-11.82,39.07
		c-2.22,7.38-4.36,14.79-6.56,22.17c-2.65,8.91-5.33,17.81-7.98,26.72c-0.64,2.17-1.15,4.38-1.8,6.55
		c-0.59,1.95-1.27,3.88-1.97,5.79c-0.78,2.12-2.21,3.32-4.61,3.31c-2.04-0.01-4.1,0.02-6.12,0.29c-3.75,0.5-6.06-1.22-7.5-4.47
		c-1.38-3.11-2.71-6.24-4.09-9.35c-0.63-1.4-1.71-1.83-3.28-1.76c-7.26,0.29-14.52,0.33-21.77,0.69
		c-11.79,0.58-23.57,0.31-35.36,0.19c-19.53-0.21-39.06-0.17-58.59-0.29c-21.57-0.13-43.14-0.38-64.71-0.46
		c-15.43-0.06-30.85,0.07-46.28,0.13c-12.48,0.04-24.96,0.1-37.44,0.15c-0.68,0-1.36,0.01-2.04-0.02c-3.04-0.14-4.1-1.05-4.23-4.09
		c-0.14-3.17-0.08-6.36,0-9.53c0.04-1.73,0.77-2.42,2.39-2.75c3.99-0.81,8.05-1.39,11.96-2.5c9.4-2.67,17.39-7.59,23.56-15.32
		c3.02-3.79,5.26-8,6.66-12.56c1.72-5.65,2.85-11.48,2.83-17.42c-0.03-14.31,0.07-28.62-0.35-42.91
		c-1.31-44.26-0.93-88.52-0.97-132.78c-0.03-27.25-0.19-54.5-0.28-81.74c-0.06-16.56-0.12-33.11-0.15-49.67
		c-0.02-12.68,0.09-25.36-0.02-38.05c-0.1-11.78-0.29-23.57-0.68-35.34c-0.15-4.51-0.64-9.08-1.6-13.49
		c-1.62-7.47-5.38-13.9-10.75-19.36c-5.36-5.46-11.93-8.98-18.99-11.66c-2.54-0.97-5.11-1.91-7.73-2.62c-7.35-2-5.75-1.43-6.01-8.28
		c-0.08-2.04-0.1-4.09-0.04-6.13c0.06-1.88,1.22-2.96,3.05-2.88c2.49,0.11,4.97,0.43,7.46,0.45c14.31,0.13,28.61,0.25,42.92,0.29
		c18.85,0.05,37.7,0.01,56.54,0.01C1575.87,729.08,1575.87,729.25,1575.87,729.42z"/>
	<path class="st0" d="M661.56,1236.06c-20.21,0-40.42,0.02-60.63-0.01c-3.63-0.01-7.26-0.12-10.88-0.38
		c-0.71-0.05-1.83-0.91-1.95-1.55c-0.78-4.01-1.34-8.06-0.53-12.15c0.28-1.43,0.96-2.53,2.54-2.81c1.79-0.32,3.58-0.64,5.36-0.99
		c7.69-1.53,14.66-4.65,20.83-9.51c6.13-4.83,9.74-11.28,11.58-18.69c1.43-5.77,1.43-11.63,0.29-17.55
		c-4.57-23.85-10.43-47.4-16.1-71c-3.45-14.33-6.79-28.69-10.5-42.96c-2.89-11.14-1.48-8.98-11.49-9.03
		c-9.31-0.04-18.62-0.1-27.93,0.13c-15.65,0.39-31.3-0.43-46.94,0.1c-9.74,0.33-19.46-0.18-29.19,0.07
		c-1.99,0.05-2.39,0.32-2.87,2.13c-3.54,13.36-7.06,26.73-10.59,40.09c-2.72,10.3-5.47,20.59-8.17,30.9
		c-1.84,7.01-3.64,14.04-5.4,21.07c-1.65,6.59-3.22,13.21-4.82,19.81c-0.59,2.42-1.26,4.83-1.73,7.27
		c-4.6,23.99,12.29,42.99,29.4,47.45c5.57,1.45,5.89,2.03,5.96,8.06c0.03,2.26-0.21,4.53-0.4,6.79c-0.13,1.48-1.14,2.45-2.73,2.47
		c-5.9,0.06-11.81,0.06-17.71,0.05c-17.71-0.03-35.41-0.09-53.12-0.11c-11.34-0.01-22.67,0.04-34.01,0.05
		c-1.36,0-2.73,0.07-4.08-0.06c-2.64-0.25-4.04-1.72-4.15-4.46c-0.11-2.72-0.07-5.44-0.02-8.16c0.04-2.31,1.23-3.84,3.47-4.48
		c1.96-0.56,3.93-1.12,5.91-1.57c7.95-1.83,14.84-5.81,20.69-11.28c4.77-4.47,9.48-9.02,13.38-14.43
		c6.59-9.13,11.5-19.04,14.94-29.64c3.5-10.77,6.52-21.7,9.47-32.64c6.16-22.76,12.16-45.56,18.18-68.36
		c6.71-25.43,13.29-50.9,20.08-76.31c3.75-14.01,7.89-27.92,11.73-41.91c2.94-10.72,5.64-21.5,8.51-32.23
		c6.68-24.96,13.51-49.89,20.05-74.89c3.96-15.13,8.25-30.2,10.89-45.64c1.66-9.7,0.52-18.97-5.53-27.23
		c-2.76-3.76-6.34-6.52-10.21-8.84c-8.24-4.94-17.08-8.38-26.66-9.76c-2.69-0.39-5.37-0.87-8.04-1.4c-1.48-0.29-2.35-1.47-2.1-3
		c0.5-3.12,1.05-6.26,1.84-9.32c0.42-1.62,1.72-2.69,3.53-2.72c2.95-0.05,5.9-0.04,8.85-0.03c26.79,0.08,53.59,0.17,80.38,0.26
		c1.59,0.01,3.18-0.05,4.77,0.03c3.11,0.15,3.8,0.64,4.66,3.89c1.15,4.38,2.13,8.81,3.16,13.23c5.19,22.07,10.33,44.15,15.56,66.21
		c4.34,18.3,8.78,36.58,13.17,54.87c4.02,16.75,8.12,33.49,12.04,50.26c3,12.81,5.71,25.69,8.69,38.5
		c2.16,9.27,4.56,18.48,6.83,27.72c4.15,16.95,8.26,33.92,12.41,50.87c3.29,13.44,6.65,26.86,9.93,40.3
		c2.09,8.58,4.08,17.19,6.15,25.78c3.29,13.64,6.61,27.28,9.91,40.92c1.76,7.27,3.42,14.56,5.27,21.8
		c2.41,9.44,4.76,18.93,8.56,27.91c3.41,8.04,8.51,14.85,15.78,20.06c5.48,3.93,11.6,6.11,17.87,8.1c1.94,0.61,3.92,1.38,5.91,1.49
		c4.41,0.25,5.13,2.68,4.73,6.52c-0.28,2.7-0.55,5.41-0.86,8.11c-0.17,1.51-1.16,2.59-2.54,2.77c-0.89,0.12-1.81,0.19-2.71,0.16
		c-7.48-0.2-14.95-0.46-22.42-0.63c-6.13-0.14-12.25-0.25-18.38-0.28c-9.31-0.05-18.62-0.01-27.92-0.01
		C661.56,1236.17,661.56,1236.12,661.56,1236.06z M545.32,823.11c-0.71,1.15-1.32,1.81-1.56,2.58c-0.72,2.39-1.3,4.81-1.94,7.23
		c-3.65,13.81-7.21,27.65-10.99,41.42c-2.21,8.09-4.85,16.07-7.12,24.14c-1.23,4.36-1.98,8.85-3.16,13.22
		c-1.89,7-4.13,13.91-5.9,20.94c-3.92,15.6-7.7,31.23-12.07,46.71c-2.77,9.81-5.51,19.63-8.07,29.49
		c-1.25,4.82-2.09,9.75-3.05,14.64c-0.33,1.7,0.41,2.66,2.03,2.8c1.35,0.12,2.72,0.16,4.08,0.16c6.13-0.01,12.26-0.13,18.39-0.03
		c6.12,0.1,12.24,0.5,18.37,0.59c6.11,0.09,12.22-0.13,18.33-0.07c12.7,0.12,25.39-0.34,38.08-0.83c0.23-0.01,0.45-0.02,0.68-0.04
		c1.58-0.12,2.39-1.13,2.03-2.79c-1.51-7.09-2.98-14.19-4.66-21.24c-4.3-18.08-8.75-36.13-13.07-54.21
		c-3.06-12.79-5.97-25.61-9-38.4c-3.18-13.46-6.74-26.83-9.55-40.37c-2.45-11.79-5.79-23.34-8.52-35.05
		C547.82,830.5,546.55,827.09,545.32,823.11z"/>
	<path class="st0" d="M1115.54,980.29c0-5.22-0.06-10.45,0.01-15.67c0.14-10.22,1.5-20.34,2.36-30.51c1.08-12.7,3.3-25.2,6.02-37.59
		c2.77-12.6,6.1-25.1,10.39-37.31c7.63-21.73,18.17-42.01,30.81-61.22c11.44-17.39,25.37-32.51,41.39-45.8
		c10.23-8.49,21.56-15.07,33.58-20.49c4.94-2.23,10.19-3.83,15.39-5.41c4.99-1.52,10.1-2.62,15.14-3.96
		c3.52-0.94,7.08-1.46,10.74-1.56c3.39-0.1,6.78-0.48,10.17-0.75c0.9-0.07,1.81-0.25,2.71-0.2c11.1,0.61,22.16,1.33,32.93,4.52
		c12.71,3.76,24.59,9.32,36.13,15.7c2.98,1.65,5.89,3.41,8.87,5.05c1.48,0.82,2.75,0.41,3.35-1.05c0.95-2.31,1.81-4.65,2.69-6.98
		c0.72-1.91,1.38-3.84,2.12-5.74c0.95-2.42,2.82-3.48,5.36-3.33c1.81,0.11,3.61,0.55,5.42,0.54c6.96-0.06,6.13,0.65,7.77,6.17
		c3.43,11.51,6.52,23.13,9.68,34.72c4.58,16.84,9.05,33.71,13.65,50.54c2.63,9.63,5.43,19.21,8.12,28.82
		c1.83,6.54,3.63,13.09,5.42,19.65c0.81,2.98,0.16,5.06-2.34,6.37c-3.42,1.79-6.93,3.39-10.46,4.95c-1.86,0.82-3.53,0.26-4.74-1.51
		c-1.15-1.68-2.15-3.47-3.18-5.24c-7.82-13.3-15.42-26.74-23.51-39.88c-11.68-18.97-24.53-37.1-39.54-53.66
		c-8.01-8.84-17.12-16.3-27.35-22.28c-10.49-6.14-21.8-10.06-34.12-10.59c-5.88-0.25-11.72-0.81-17.64-0.17
		c-8.39,0.91-16.51,2.57-24.33,5.88c-12.09,5.11-22.72,12.28-32.14,21.36c-10.14,9.77-17.47,21.41-22.91,34.3
		c-5.65,13.39-10.01,27.14-12.82,41.47c-2.44,12.48-4.16,25.05-5.95,37.62c-0.32,2.24-0.4,4.52-0.48,6.79
		c-0.48,12.67-1.5,25.33-1.14,38.02c0.46,16.09,1.6,32.12,3.34,48.13c1.2,11.06,2.72,22.04,4.45,33.02
		c2.57,16.36,5.83,32.57,10.48,48.48c2.86,9.78,5.54,19.64,8.92,29.25c4.06,11.55,8.61,22.91,13.88,34
		c4.19,8.82,8.44,17.59,13.26,26.09c5.49,9.69,11.7,18.88,18.87,27.44c3.51,4.19,7.13,8.24,11.09,11.96
		c11.24,10.55,24.08,18.48,38.83,23.14c18.82,5.95,37.45,5.38,55.99-1.44c7.5-2.76,14.55-6.29,21.32-10.47
		c11.26-6.95,19.87-16.49,26.68-27.66c7.86-12.9,12.65-27.09,16.37-41.65c2.75-10.77,4.83-21.68,6.54-32.66
		c0.91-5.82,1.26-11.72,1.95-17.58c0.32-2.7,0.82-5.37,1.31-8.05c0.06-0.31,0.57-0.73,0.89-0.74c0.38-0.02,0.96,0.22,1.16,0.54
		c2.81,4.4,5.66,8.77,8.32,13.26c5.56,9.37,11.02,18.8,16.51,28.21c0.57,0.98,1.05,2.02,1.67,2.97c2.47,3.74,2.47,7.47,0.75,11.61
		c-5.15,12.4-11.33,24.24-18.49,35.6c-5.22,8.27-11.25,15.96-17.52,23.39c-4.95,5.87-10.66,11.18-16.47,16.23
		c-10.98,9.54-22.65,18.19-35.64,24.88c-16.74,8.63-34.34,14.18-53.32,14.7c-1.36,0.04-2.72,0.1-4.08,0.2
		c-18.63,1.45-36.58-1.96-54.18-7.71c-9.49-3.1-18.77-6.71-27.69-11.27c-12.83-6.56-24.22-15.15-35.09-24.5
		c-14.43-12.41-26.01-27.24-36.07-43.26c-6.41-10.2-11.21-21.26-15.66-32.45c-5.88-14.77-10.57-29.89-14.07-45.42
		c-4.35-19.27-7.77-38.69-10.02-58.3C1115.8,1008,1115.18,994.16,1115.54,980.29z"/>
	<path class="st0" d="M1161.84,340.93c-15.89,0-31.77,0.1-47.66-0.04c-8.16-0.07-16.31-0.54-24.46-0.87
		c-3.31-0.14-4.04-0.9-4.11-4.02c-0.01-0.68,0.01-1.36,0.06-2.04c0.1-1.24,0.7-2.16,1.92-2.49c1.75-0.48,3.53-0.82,5.28-1.29
		c3.97-1.05,7.67-2.66,11.09-5c7.28-4.98,11.15-11.86,11.5-20.57c0.35-8.62,0.29-17.25,0.42-25.87c0.26-17.23-0.03-34.47-0.07-51.7
		c-0.01-7.01,0.41-14.01,0.51-21.02c0.12-8.16,0.1-16.32,0.15-24.48c0.15-27.68,0.31-55.36,0.43-83.04
		c0.05-11.81,0.04-23.61,0.04-35.42c0-3.4-0.25-6.76-1.04-10.11c-1.85-7.8-6.46-13.33-13.27-17.26c-3.97-2.29-8.28-3.65-12.63-4.95
		c-2.35-0.7-3.07-2.12-2.71-4.7c0.22-1.57,1.02-2.46,2.65-2.6c4.29-0.37,8.59-0.72,12.89-0.96c23.12-1.31,46.25-2.29,69.4-1.41
		c11.57,0.44,23.02,2.08,33.92,6.34c10.44,4.09,20.05,9.52,28.26,17.29c13.78,13.05,22.45,28.78,25.81,47.56
		c2.51,14.04,1.1,27.56-4.16,40.69c-5.41,13.5-15.54,22.01-29.16,26.58c-6.71,2.25-13.62,3.38-20.72,3.35
		c-1.34,0-2.7,0.19-4.01,0.51c-0.31,0.07-0.74,1.23-0.55,1.5c0.64,0.91,1.45,1.72,2.32,2.42c3.55,2.82,7.16,5.57,10.72,8.37
		c7.3,5.76,14.79,11.31,21.83,17.37c11.06,9.52,20.85,20.26,28.27,32.91c5.67,9.66,9.23,20.17,11.57,31.11
		c1.92,8.96,2.44,18.03,1.41,27.09c-1.1,9.74-3.41,19.2-8.85,27.6c-7.11,10.98-16.52,19.18-28.78,23.97
		c-6.16,2.4-12.57,3.55-19.14,4.38c-15.39,1.94-30.81,1.13-46.23,1.26c-4.31,0.04-8.62,0.01-12.93,0.01
		C1161.84,341.23,1161.84,341.08,1161.84,340.93z M1149.5,223.99c0.01,0,0.03,0,0.04,0c0,2.73,0.01,5.45,0,8.18
		c-0.07,18.4-0.16,36.79-0.2,55.19c-0.01,5.9-0.06,11.82,0.27,17.71c0.75,13.34,7.54,21.14,20.62,24.34
		c5.6,1.37,11.27,1.07,16.93,1.23c7.61,0.2,14.91-1.42,21.87-4.38c7.89-3.35,14.52-8.31,19.21-15.67c4.99-7.83,7.4-16.48,8.69-25.56
		c1.64-11.56,1.52-23.11-0.18-34.62c-1.5-10.12-3.84-20.02-8.28-29.36c-4.22-8.9-9.82-16.87-16.08-24.37
		c-5.95-7.14-12.15-14.07-19.15-20.24c-10.38-9.16-20.56-18.55-30.9-27.76c-3.39-3.02-6.99-5.78-10.53-8.63
		c-0.87-0.7-1.93-0.23-1.95,0.83c-0.14,7.27-0.34,14.53-0.36,21.8C1149.47,183.1,1149.5,203.55,1149.5,223.99z M1149.83,89.72
		c-0.11,0-0.22,0-0.34,0c0,10.45,0.01,20.89-0.01,31.34c0,1.86,0.11,3.55,1.68,4.93c6.3,5.55,12.61,11.13,19.7,15.65
		c12.48,7.96,29.65,6.05,40.32-5.63c6.65-7.29,10.44-15.84,12.24-25.39c1.74-9.23,1.6-18.56,0.78-27.84
		c-0.98-11.21-3.9-21.86-10.6-31.18c-10.09-14.05-23.83-20.6-41-19.56c-9.61,0.58-19.76,5.36-21.9,20.28
		c-0.51,3.58-0.79,7.22-0.84,10.83C1149.75,72.01,1149.83,80.86,1149.83,89.72z"/>
	<path class="st0" d="M481.09,341.61c-10.22-0.18-20.43-0.36-30.65-0.53c-1.14-0.02-2.27,0.02-3.41-0.01
		c-5.1-0.13-5.29-2.08-4.62-6.8c0.08-0.53,0.77-1.18,1.33-1.38c1.48-0.55,3.04-0.91,4.57-1.32c4.43-1.18,8.44-3.12,12.1-5.98
		c4.6-3.59,6.99-8.27,7.69-13.89c0.5-4.07,0.26-8.11-0.66-12.16c-4.02-17.69-7.86-35.42-11.89-53.11
		c-1.51-6.63-3.3-13.19-5.03-19.77c-0.61-2.32-1.06-2.66-3.19-2.72c-3.4-0.1-6.81-0.14-10.22-0.14c-15.21-0.01-30.43,0.03-45.64,0
		c-4.08-0.01-8.16-0.33-12.23-0.3c-2.68,0.02-3.07,0.47-3.75,2.99c-4.88,17.93-9.75,35.87-14.64,53.81
		c-1.73,6.34-3.75,12.61-5.23,19.01c-2.79,12.13,1.49,22.27,10.9,28.53c2.6,1.73,5.73,2.67,8.67,3.86c1.21,0.49,1.81,1.3,1.92,2.51
		c0.08,0.9,0.04,1.82-0.02,2.72c-0.14,2.12-0.86,2.92-2.83,3.08c-1.36,0.11-2.72,0.17-4.08,0.16c-19.3-0.21-38.6-0.43-57.9-0.68
		c-1.57-0.02-3.17-0.18-4.7-0.5c-1.51-0.32-2.48-1.84-2.58-3.62c-0.1-1.68,0.26-3.22,1.91-4.03c1.01-0.5,2.11-0.79,3.18-1.17
		c12.63-4.52,21.55-13.15,27.43-25.03c3.02-6.09,5.39-12.35,6.97-19.08c2.65-11.23,6.46-22.19,9.74-33.27
		c1.16-3.91,2.32-7.83,3.25-11.81c2.51-10.81,5.44-21.5,8.5-32.17c2.56-8.93,4.79-17.94,7.29-26.89c2.44-8.73,5.06-17.41,7.57-26.12
		c2.14-7.41,4.57-14.75,6.28-22.26c2.41-10.62,5.35-21.1,8.11-31.63c2.53-9.65,5.39-19.21,8.03-28.83
		c1.44-5.26,2.38-10.63,2.62-16.09c0.21-4.88-0.67-9.51-3.64-13.55c-1.63-2.21-3.53-4.07-5.99-5.45
		c-5.39-3.02-10.94-5.48-17.14-6.27c-1.12-0.14-2.2-0.52-3.31-0.79c-1.09-0.26-2.54-0.31-2.8-1.55c-0.38-1.79-0.1-3.67,1.11-5.16
		c0.38-0.47,1.13-0.75,1.76-0.87c0.88-0.17,1.81-0.15,2.71-0.14c17.94,0.11,35.88,0.23,53.82,0.35c0.68,0,1.37-0.01,2.04,0.08
		c1.22,0.16,2.11,0.86,2.45,2.04c1.2,4.14,2.47,8.27,3.48,12.45c3.72,15.42,7.4,30.85,11,46.3c2.58,11.04,4.96,22.13,7.52,33.17
		c3.17,13.69,6.46,27.36,9.66,41.05c3.87,16.55,7.66,33.12,11.54,49.66c3.52,15.01,7.16,29.99,10.67,45
		c3.05,13.02,5.83,26.11,9.03,39.09c1.73,7.03,3.33,14.09,6.05,20.88c4.14,10.34,11.73,16.42,22.14,19.44
		c0.87,0.25,1.79,0.31,2.67,0.56c2.33,0.66,2.91,1.43,3.01,3.86c0.14,3.4-0.53,4.3-3.59,4.37c-12.02,0.27-24.04,0.55-36.06,0.69
		c-4.29,0.05-8.59-0.3-12.89-0.47C481.09,341.71,481.09,341.66,481.09,341.61z M415.78,79.03c-0.86,1.93-1.56,3.05-1.87,4.27
		c-1.81,7.02-3.44,14.08-5.29,21.08c-2.78,10.5-5.72,20.96-8.55,31.45c-5.32,19.68-10.61,39.37-15.9,59.06
		c-1.17,4.37-2.35,8.74-3.42,13.14c-0.38,1.54,0.53,2.55,2.22,2.6c3.63,0.1,7.26,0.11,10.88,0.12c3.85,0.01,7.71-0.12,11.56-0.01
		c6.79,0.21,13.58,0.63,20.37,0.82c4.31,0.12,8.62,0.01,12.93-0.06c1.36-0.02,2.72-0.17,4.06-0.37c3.41-0.51,4.02-1.28,3.28-4.42
		c-2.91-12.34-5.87-24.67-8.84-37c-1.43-5.95-3.02-11.85-4.39-17.82c-4.2-18.31-8.3-36.63-12.51-54.94
		C418.99,91.26,417.44,85.59,415.78,79.03z"/>
	<path class="st0" d="M743.4,168.8c0,28.16,0,56.32,0,84.48c0,17.94-0.05,35.88,0,53.82c0.01,3.38,0.05,6.76,0.92,10.13
		c1.78,6.94,6.04,11.54,12.51,14.25c1.25,0.53,2.59,0.84,3.88,1.27c1.23,0.4,1.78,1.33,1.85,2.55c0.05,0.9,0.03,1.82-0.03,2.72
		c-0.11,1.64-0.9,2.59-2.37,2.84c-0.89,0.15-1.8,0.29-2.7,0.28c-11.58-0.13-23.16-0.28-34.73-0.45c-0.9-0.01-1.81-0.17-2.7-0.33
		c-1.19-0.21-2.01-0.82-2.41-2.06c-0.67-2.06,0.36-4.7-2.05-6.17c-2.02,0.99-4.06,1.95-6.05,2.99c-5.24,2.73-10.57,5.14-16.44,6.35
		c-13.39,2.75-25.64,0.1-37.04-7.24c-6.6-4.25-11.9-9.8-16.41-16.14c-9.22-12.95-15.31-27.13-17.72-42.99
		c-1.45-9.53-1.57-19-0.93-28.5c0.4-5.86,1.59-11.68,2.68-17.47c1.22-6.45,2.48-12.88,4.67-19.13c1.88-5.37,4.06-10.6,6.84-15.53
		c5.38-9.54,11.75-18.31,20.53-25.13c14.29-11.09,31.79-12.75,47.09-3.64c2.34,1.39,4.69,2.78,7.1,4.04
		c2.49,1.3,3.95,4.31,7.21,4.31c0.12-2.93,0.35-5.86,0.35-8.79c-0.04-24.75-0.13-49.51-0.17-74.26c-0.02-8.86,0.15-17.71,0.02-26.57
		c-0.04-2.92-0.36-5.93-1.19-8.72c-1.99-6.71-6.22-11.5-13.1-13.62c-1.08-0.33-2.17-0.64-3.28-0.9c-1.88-0.44-2.51-1.74-2.56-3.5
		c-0.01-0.23-0.01-0.46-0.04-0.68c-0.26-2.05,0.45-3.54,2.44-4.33c2.11-0.84,4.21-1.7,6.32-2.53c8.03-3.14,16.08-6.2,24.08-9.42
		c3.53-1.42,7.1-1.3,10.72-0.86c1.65,0.2,2.7,1.53,2.9,3.3c0.05,0.45,0.08,0.91,0.07,1.36c-0.23,8.39,1.07,16.73,0.4,25.15
		c-0.41,5.18,0.29,10.43,0.26,15.65c-0.05,9.08-0.35,18.15-0.42,27.22c-0.03,4.31,0.25,8.62,0.37,12.93
		c0.04,1.59,0.07,3.18,0.04,4.77c-0.25,15.42-0.54,30.84-0.78,46.27c-0.06,4.09-0.01,8.17-0.01,12.26
		C743.48,168.8,743.44,168.8,743.4,168.8z M716.66,252.05c-0.04,0-0.09,0-0.13,0c0-7.25,0.02-14.51,0-21.76
		c-0.03-13.15-0.17-26.31-0.07-39.46c0.02-3.03-0.95-5.33-3.2-7.11c-4.09-3.22-8.15-6.49-12.46-9.39c-2.4-1.62-5.19-2.82-7.97-3.7
		c-12.43-3.91-21.52,0.41-27.64,7.58c-4.36,5.11-7.11,11-9,17.36c-4.27,14.29-5.07,28.98-4.4,43.74
		c0.68,14.94,2.44,29.76,5.54,44.44c1.78,8.47,4.21,16.67,7.49,24.65c1.82,4.43,4.22,8.59,7.34,12.19
		c6.57,7.58,14.53,11.43,24.78,8.43c6.39-1.87,12.12-4.98,17.43-8.93c1.36-1.01,1.99-2.44,2.03-4.12c0.1-4.76,0.26-9.52,0.27-14.28
		C716.68,285.14,716.66,268.59,716.66,252.05z"/>
	<path class="st0" d="M60.87,23.17c14.05,0.15,26.98,0.29,39.91,0.44c1.36,0.02,2.72,0.1,4.08,0.23c2.65,0.26,3.08,0.73,3.72,3.84
		c0.58,2.78,0.35,3.26-2.02,4.03c-2.8,0.91-5.64,1.73-8.42,2.69c-7.48,2.6-12.67,7.57-15.81,14.89c-1.83,4.26-2.7,8.58-2.69,13.19
		c0.03,21.54-0.01,43.09-0.01,64.63c0,24.51-0.01,49.02,0,73.53c0.01,22.92,0.07,45.83,0.04,68.75c-0.02,11.1-0.29,22.2-0.28,33.31
		c0,3.15,0.12,6.31,1.1,9.42c3.09,9.8,10.15,15.21,19.52,18.22c2.15,0.69,4.35,1.25,6.46,2.07c1.8,0.7,2.36,2.28,1.9,4.53
		c-0.37,1.86-1.27,2.82-3.23,2.85c-6.58,0.08-13.16,0.06-19.73,0.05c-14.06-0.02-28.13-0.06-42.19-0.08
		c-5.45-0.01-10.89-0.02-16.34-0.02c-3.04,0-5.84-0.61-8.1-2.88c-1.63-1.63-1.2-4.26,0.95-4.9c1.95-0.58,3.99-0.89,5.93-1.51
		c10.16-3.26,16.04-10.4,18.77-20.53c0.96-3.56,1.28-7.09,1.3-10.75c0.07-17.25-0.05-34.5,0.44-51.73
		c0.49-17.25-0.8-34.46-0.56-51.7c0.21-15.2,0.23-30.41,0.23-45.62c0-12.71-0.2-25.42-0.19-38.13c0.01-13.39,0.2-26.77,0.25-40.16
		c0.01-4.54-0.03-9.08-0.31-13.61c-0.7-11.13-5.97-19.29-16.24-23.93c-2.46-1.11-5.13-1.75-7.71-2.58c-1.08-0.35-2.19-0.6-3.26-0.96
		c-2.13-0.73-2.5-1.25-2.45-3.45c0.02-0.9,0.04-1.82,0.23-2.7c0.27-1.18,1.03-2.08,2.3-2.15c2.04-0.12,4.08-0.17,6.12-0.12
		C37.05,22.59,49.52,22.9,60.87,23.17z"/>
	<path class="st0" d="M165.12,250.6c-0.19,9.06-0.42,18.12-0.56,27.19c-0.16,9.76-0.34,19.52-0.3,29.29
		c0.01,3.14,0.37,6.36,1.1,9.41c1.58,6.59,5.67,11.26,11.88,14c1.24,0.55,2.54,0.95,3.83,1.38c1.45,0.49,2.26,1.46,2.25,3.01
		c0,0.91-0.03,1.82-0.14,2.72c-0.19,1.53-1.06,2.33-2.72,2.49c-1.13,0.11-2.27,0.15-3.4,0.14c-17.71-0.19-35.42-0.4-53.12-0.6
		c-0.45-0.01-0.91,0.01-1.36-0.01c-4.08-0.18-5.23-1.57-4.67-5.6c0.17-1.22,0.76-2.12,1.9-2.58c1.05-0.42,2.1-0.87,3.19-1.14
		c7.63-1.92,11.93-7.01,13.61-14.46c0.49-2.2,0.66-4.51,0.66-6.76c0.02-9.99-0.18-19.98-0.11-29.96
		c0.09-11.78,0.39-23.56,0.58-35.34c0.15-9.08,0.25-18.16,0.39-27.25c0.07-4.54,0.2-9.07,0.22-13.61c0.02-3.85-0.17-7.66-0.9-11.5
		c-1.26-6.61-5.45-10.2-11.36-12.35c-1.27-0.46-2.61-0.76-3.93-1.11c-3.87-1.03-3.93-1.16-3.87-4.96c0.02-1.29,0.43-2.14,1.59-2.69
		c2.46-1.16,4.84-2.51,7.36-3.52c8.21-3.27,16.46-6.45,24.72-9.59c1.46-0.56,3.05-1.1,4.58-1.1c7.31-0.01,7.99-1.12,7.91,6.91
		c-0.03,2.95,0.04,5.91,0.28,8.85c0.08,1.02,0.81,1.98,1.25,2.97c0.77-0.34,1.61-0.58,2.29-1.04c3.19-2.15,6.25-4.53,9.53-6.53
		c7.41-4.51,15.24-8.19,23.85-9.56c16.46-2.62,30.08,4.4,37.75,19.3c2.38,4.62,3.63,9.77,3.68,15.09
		c0.07,7.72,0.22,15.44,0.22,23.16c-0.01,18.16-0.04,36.32-0.16,54.49c-0.04,6.12-0.44,12.25-0.59,18.37
		c-0.18,7.49-0.3,14.98-0.38,22.47c-0.01,1.35,0.31,2.7,0.44,4.05c0.88,8.85,6.18,14.32,13.78,18.02c0.61,0.3,1.31,0.4,1.93,0.67
		c2.7,1.16,3.7,3.98,2.26,6.64c-0.28,0.52-1.02,1.03-1.59,1.1c-1.79,0.21-3.62,0.3-5.43,0.28c-9.76-0.11-19.53-0.06-29.28-0.48
		c-9.96-0.42-9.39-0.65-9.31-9.84c0.12-13.38,0.61-26.76,0.78-40.14c0.17-13.62,0.08-27.24,0.22-40.86
		c0.08-7.47,0.52-14.94,0.56-22.41c0.05-8.39-0.15-16.78-0.27-25.16c-0.07-4.99,0-9.99-0.34-14.96c-0.48-6.94-3.9-12.06-10.56-14.48
		c-2.28-0.83-4.87-1.07-7.33-1.11c-5.81-0.09-11.22,1.65-16.2,4.53c-4.91,2.84-9.63,6-14.45,9c-1.47,0.91-2.3,2.14-2.24,3.91
		c0.01,0.23,0.01,0.45,0,0.68c-0.18,8.85-0.47,17.7-0.5,26.55c-0.03,11.34,0.16,22.68,0.26,34.03
		C164.98,250.6,165.05,250.6,165.12,250.6z"/>
	<path class="st0" d="M1134.51,668.27c-13.25-0.48-26.51-0.95-39.76-1.46c-1.01-0.04-2.3-0.08-2.93-0.68
		c-0.84-0.8-1.47-2.12-1.57-3.28c-0.07-0.77,0.74-2.1,1.47-2.39c2.16-0.87,4.46-1.37,6.72-1.96c11.1-2.93,17.59-12.61,16.1-23.44
		c-0.78-5.65-2.03-11.25-3.3-16.82c-4-17.48-8.1-34.93-12.17-52.4c-0.18-0.76-0.33-1.53-0.61-2.25c-0.72-1.86-2.1-2.98-4.09-3.15
		c-2.07-0.17-4.16-0.24-6.24-0.25c-16.91-0.13-33.82-0.3-50.73-0.33c-7.3-0.01-6.75-0.33-8.77,7c-4.7,17.02-9.48,34.03-14.09,51.07
		c-1.49,5.5-2.8,11.03-3.3,16.79c-0.74,8.57,5.98,19.94,15.09,23.53c1.21,0.48,2.45,0.86,3.63,1.4c1.8,0.82,2.46,2.3,1.75,4.52
		c-0.27,0.84-1.13,1.71-1.94,2.08c-0.89,0.4-2.03,0.32-3.06,0.32c-17.95-0.09-35.9-0.19-53.86-0.3c-0.78,0-1.56-0.06-2.34-0.04
		c-4.02,0.12-4.62-1.79-4.03-5.61c0.23-1.5,1.42-2.05,2.71-2.43c4.53-1.33,8.75-3.2,12.53-6.13c5.85-4.54,10.68-9.92,14.02-16.52
		c3.29-6.51,5.95-13.28,7.64-20.4c3.95-16.68,8.41-33.23,13.17-49.7c4.26-14.72,8.15-29.55,12.16-44.35
		c4.21-15.55,8.39-31.11,12.54-46.67c4.29-16.07,8.61-32.13,12.75-48.23c1.36-5.27,2.33-10.66,3.24-16.03
		c1.74-10.25-3.81-17.23-10.28-20.83c-5.07-2.83-10.48-4.52-16.18-5.4c-1-0.15-1.99-0.47-2.91-0.89c-0.35-0.16-0.63-0.81-0.66-1.25
		c-0.17-2.86,1.24-4.59,3.9-4.77c1.55-0.1,3.12-0.04,4.68-0.03c14.57,0.13,29.13,0.26,43.7,0.4c1.3,0.01,2.61-0.03,3.9,0.06
		c1.42,0.1,2.48,0.88,2.85,2.26c0.95,3.51,1.85,7.04,2.69,10.57c4.74,19.96,9.52,39.91,14.18,59.88
		c3.54,15.18,6.82,30.42,10.41,45.59c3.54,14.92,7.46,29.74,10.97,44.66c6.67,28.31,13.12,56.68,19.77,84.99
		c1.25,5.3,2.86,10.53,4.55,15.71c3.14,9.62,9.84,15.68,19.38,18.73c1.23,0.39,2.52,0.62,3.72,1.09c1.91,0.74,2.77,3.3,1.72,5.27
		c-0.32,0.61-1.05,1.29-1.68,1.39c-1.79,0.27-3.62,0.33-5.43,0.34c-10.67,0.03-21.34,0.01-32.01,0.01
		C1134.52,668.04,1134.51,668.16,1134.51,668.27z M1067.14,425.54c-0.58,1.64-0.87,2.34-1.07,3.08c-2.24,8.26-4.47,16.53-6.7,24.8
		c-7.83,29.07-15.54,58.18-23.56,87.2c-2.17,7.83,0.31,8.05,5.63,8.08c15.59,0.09,31.19,0.2,46.78,0.29
		c1.29,0.01,2.6-0.09,3.88-0.22c1.46-0.15,2.43-1.29,2.19-2.65c-0.66-3.84-1.25-7.7-2.12-11.49c-4.22-18.47-8.56-36.91-12.79-55.38
		c-3.07-13.41-6.01-26.85-9.03-40.27C1069.41,434.76,1068.35,430.58,1067.14,425.54z"/>
	<path class="st0" d="M193.39,588.02c-0.52,5.69-0.93,11.39-1.57,17.06c-1.2,10.51-5.1,20.03-10.55,29.07
		c-6.25,10.37-15.1,17.69-25.55,23.4c-8.81,4.81-18.36,7.14-28.14,8.79c-18.04,3.03-35.8,1.36-53.26-3.58
		c-6.22-1.76-12.14-4.59-18.2-6.93c-2-0.77-2.68-0.58-3.88,1.23c-0.86,1.3-1.72,2.61-2.46,3.98c-0.84,1.55-2.14,2.12-3.81,2.21
		c-4.31,0.23-5.51-0.48-6.74-4.71c-5.37-18.45-10.7-36.92-16.01-55.39c-0.64-2.23-0.3-3.21,1.15-4c2.59-1.4,4.31-1.38,5.65,0.16
		c0.85,0.98,1.57,2.07,2.34,3.12c8.61,11.82,18.34,22.57,29.6,31.99c10.51,8.81,22.11,15.76,35.03,19.97
		c17.7,5.77,34.93,4.49,50.52-6.69c11.54-8.27,18.31-19.61,20.77-33.6c1.78-10.09,2.02-20.14-0.01-30.24
		c-2.35-11.71-7.45-22.07-14.77-31.45c-8.99-11.53-20.93-19.39-33.26-26.69c-12.53-7.41-25.37-14.32-37.84-21.83
		c-8.01-4.82-15.9-9.95-23.31-15.63c-15.41-11.8-25.6-27.05-29.13-46.48c-1.34-7.35-0.88-14.6,0.88-21.66
		c2.87-11.48,7.63-22.14,16.27-30.62c7.63-7.49,16.62-12.23,27.25-14.07c10.38-1.8,20.67-1.89,31.02,0.05
		c5.92,1.11,11.57,2.91,16.96,5.6c2.09,1.05,4.22,2.03,6.37,2.96c2.09,0.9,2.52,0.75,3.86-1.18c0.74-1.06,1.32-2.26,2.12-3.27
		c1.99-2.49,6.47-2.3,8.07,0.39c0.79,1.33,1.3,2.84,1.86,4.29c5.21,13.59,10.41,27.19,15.61,40.79c1.11,2.91,2.25,5.82,3.31,8.75
		c0.42,1.16,1.35,2.33,0.41,3.64c-0.98,1.36-4.16,2.6-5.61,1.99c-0.89-0.38-1.77-1.13-2.32-1.94c-2.32-3.46-4.48-7.01-6.75-10.5
		c-7.44-11.45-16.47-21.58-27.37-29.68c-11.65-8.66-24.7-14.11-39.68-14.05c-15.99,0.07-29.5,11.85-31.22,28.95
		c-1.29,12.86,2.44,24.04,11.42,33.56c6.52,6.91,14.2,12.2,22.19,17.07c10.66,6.49,21.55,12.62,32.26,19.03
		c9.15,5.48,18.26,11.02,27.27,16.73c8.82,5.59,16.79,12.27,24.01,19.83c11.07,11.59,17.94,25.42,21.64,40.89
		C192.03,568.76,193.33,578.29,193.39,588.02z"/>
	<path class="st0" d="M1423.86,327.47c0,3.18-0.02,6.35,0.01,9.53c0.02,2.12-1.09,3.38-2.97,4.06c-9.92,3.62-19.21,2.29-27.8-3.74
		c-3.37-2.37-6.27-5.25-8.18-8.98c-1.24-2.42-2.47-4.85-3.69-7.28c-0.69-1.35-1.57-1.68-2.65-0.88c-2.01,1.48-3.95,3.06-5.97,4.53
		c-6.06,4.4-11.96,9.02-18.68,12.44c-13.9,7.07-28.17,8.02-42.79,2.67c-11.12-4.07-18.47-12.05-22.71-22.97
		c-4.29-11.06-3.71-22.21-0.31-33.37c2.76-9.05,7.59-16.91,13.54-24.18c11.58-14.16,25.6-24.93,42.75-31.6
		c6.35-2.47,12.75-4.71,19.32-6.5c1.75-0.48,3.48-1.04,5.19-1.64c1.17-0.41,1.84-1.34,1.81-2.58c-0.08-2.95-0.07-5.92-0.39-8.84
		c-0.72-6.76-1.6-13.51-2.46-20.26c-0.17-1.34-0.54-2.65-0.84-3.98c-2.54-11.2-11.33-16.37-21.43-15.94
		c-6.87,0.29-12.76,2.93-17.96,7.23c-5.67,4.69-9.82,10.59-13.26,17.04c-0.75,1.4-1.51,2.8-2.3,4.17c-1.08,1.88-2.29,2.35-3.81,1.18
		c-6.65-5.12-13.25-10.31-19.83-15.52c-1.33-1.05-1.29-2.35-0.02-3.46c6.54-5.75,13.94-10.15,22.02-13.32
		c7.41-2.9,15.01-5.15,23.06-5.55c1.81-0.09,3.59-0.56,5.4-0.7c11.23-0.9,22.24,0.02,32.65,4.71c14.43,6.5,22.74,17.65,24.6,33.37
		c0.8,6.75,1.14,13.56,1.63,20.35c0.79,11.09,1.52,22.17,2.28,33.26c0.06,0.91,0.15,1.81,0.21,2.72c0.8,12.23,1.6,24.45,2.39,36.68
		c0.48,7.47,0.94,14.95,1.43,22.42c0.07,1.13,0.12,2.29,0.41,3.37c0.83,3.08,2.76,5.15,5.9,5.99c3.73,0.99,7.21,0.88,10.04-2.23
		c0.61-0.67,1.24-1.34,1.94-1.9c0.27-0.21,0.86-0.3,1.14-0.15c0.34,0.18,0.71,0.68,0.72,1.04c0.06,2.93,0.03,5.87,0.03,8.81
		C1424.12,327.47,1423.99,327.47,1423.86,327.47z M1318.64,294.06c-0.02,5.68,0.62,10.6,2.72,15.24
		c3.42,7.54,9.16,12.59,17.29,13.91c6.76,1.1,13.71,0.48,19.98-2.65c4.86-2.42,9.36-5.53,14.07-8.26c3.83-2.22,5.27-5.37,4.29-9.72
		c-0.34-1.54-0.3-3.16-0.43-4.74c-0.65-7.92-1.44-15.82-1.91-23.75c-0.74-12.46-1.26-24.94-1.91-37.4
		c-0.11-2.04-0.38-4.07-0.64-6.09c-0.24-1.87-1.06-2.47-2.66-2c-1.09,0.32-2.16,0.7-3.24,1.05c-6.78,2.19-12.61,6.11-18.38,10.15
		C1328.8,253.14,1319.54,271.69,1318.64,294.06z"/>
	<path class="st0" d="M999.24,246.26c-0.25,10.66-0.63,21.31-0.71,31.97c-0.09,11.12,0.06,22.24,0.22,33.36
		c0.06,4.32,0.58,8.57,3.01,12.39c2.55,4.01,5.85,6.89,10.55,8c1.1,0.26,2.2,0.56,3.3,0.84c1.29,0.33,1.79,1.26,1.82,2.49
		c0.03,0.9,0.04,1.82-0.05,2.71c-0.13,1.31-1.04,1.95-2.24,2.15c-0.67,0.11-1.36,0.08-2.04,0.08c-17.02-0.04-34.04-0.08-51.06-0.13
		c-1.82-0.01-3.63,0-5.45-0.07c-4.25-0.16-4.93-1-4.65-5.46c0.1-1.55,0.76-2.52,2.34-2.83c3.16-0.62,6.06-1.8,8.66-3.75
		c6.11-4.57,8.65-10.93,9.07-18.27c0.28-4.76,0.32-9.53,0.32-14.3c0.03-19.97-0.03-39.95,0.01-59.92
		c0.03-18.16,0.14-36.31,0.2-54.47c0.01-1.59-0.02-3.19-0.24-4.75c-0.07-0.51-0.76-1.2-1.27-1.31c-1.09-0.23-2.25-0.16-3.38-0.16
		c-5.9-0.04-11.8-0.04-17.71-0.11c-1.71-0.02-2.42-1.06-1.89-2.68c0.78-2.37,1.58-4.73,2.44-7.07c1.17-3.2,1.96-3.78,5.57-3.79
		c4.08-0.02,8.17,0.12,12.25,0.16c0.9,0.01,1.85,0.02,2.69-0.25c0.54-0.17,1.13-0.79,1.31-1.33c0.28-0.84,0.29-1.79,0.29-2.69
		c0.01-13.39-0.01-26.78-0.01-40.17c0-7.04-0.25-14.09,0.09-21.11c0.61-12.47,1.96-24.89,5.75-36.86
		c4.21-13.3,11.5-24.61,22.61-33.24c5.21-4.05,11.29-5.91,17.77-5.77c7.02,0.15,12.43,4.01,16.83,9.16
		c1.74,2.03,2.95,4.55,4.23,6.94c3.85,7.2,5.18,14.89,4.6,23.02c-0.25,3.53-1.71,6.06-4.71,7.73c-4.96,2.76-9.93,5.48-14.93,8.16
		c-4.87,2.61-6.04,2.82-5.85,1.99c0.45-1.94,1.14-3.83,1.81-5.71c2.53-7.08,4.06-14.39,4.81-21.86c0.18-1.81,0.05-3.67,0.42-5.43
		c0.93-4.4-0.68-8.06-3.16-11.43c-3.07-4.16-8.24-4.44-11.76-0.65c-2.65,2.85-4.85,6.14-5.76,9.91c-1.93,7.92-3.71,15.84-4.47,24.04
		c-1.33,14.27-1.24,28.55-1.42,42.84c-0.09,7.02-0.5,14.04-0.57,21.06c-0.06,7.24,0.15,14.49,0.18,21.73
		c0.01,2.26-0.25,4.53-0.2,6.79c0.06,2.43,1,3.4,3.27,3.37c11.33-0.16,22.64,1.5,33.97,0.37c1.1-0.11,2.1,1.27,1.6,2.39
		c-1.39,3.09-2.82,6.17-4.48,9.11c-0.47,0.83-1.76,1.51-2.76,1.64c-2.01,0.27-4.07,0.14-6.11,0.14c-7.26-0.02-14.53-0.09-21.79-0.05
		c-2.58,0.01-3.2,0.59-3.33,3.2c-0.24,4.98-0.44,9.96-0.43,14.94c0.04,12.21,0.24,24.42,0.34,36.63c0.04,5.43,0.01,10.87,0.01,16.3
		C999.19,246.26,999.21,246.26,999.24,246.26z"/>
	<path class="st0" d="M805.95,251.98c-0.29-12.38,1.31-24.26,4.69-35.87c3-10.28,7.17-20.14,13.24-28.96
		c5.93-8.62,12.94-16.33,22.07-21.85c11.1-6.7,22.93-9.2,35.85-7.29c12.81,1.89,22.88,8.53,31.42,17.6
		c9.95,10.57,16.33,23.35,20.77,37.1c4.44,13.76,5.86,27.95,5.29,42.3c-0.44,11.12-2.5,22.03-5.92,32.68
		c-3.35,10.44-7.62,20.38-14.21,29.21c-3.8,5.1-7.85,9.97-12.73,14.12c-5.11,4.34-10.88,7.22-17.33,9.03
		c-22.24,6.25-46.08-2.55-59.96-19.57c-9.12-11.19-15.7-23.72-19.38-37.83C807.1,272.47,805.68,262.22,805.95,251.98z
		 M832.94,226.45c0.27,5.67,0.2,11.37,0.89,16.99c0.85,6.96,2.28,13.86,3.52,20.77c2.61,14.59,7.17,28.55,13.63,41.89
		c3.28,6.78,7.38,13.05,12.91,18.23c6.98,6.53,15.1,9.1,24.44,6.07c5.8-1.88,10.36-5.49,13.6-10.73c2.9-4.69,4.88-9.77,5.93-15.12
		c1.52-7.79,2.58-15.66,2.82-23.61c0.22-7.26-0.04-14.48-0.78-21.73c-0.86-8.35-2.24-16.6-3.75-24.84c-1.56-8.49-4.02-16.74-6.43-25
		c-2.22-7.61-5.16-15-9.01-21.97c-3.09-5.6-6.8-10.71-12.03-14.57c-8.83-6.52-21.08-6.79-30.15,0.98
		c-5.57,4.78-8.65,11.02-10.84,17.76C834.01,202.89,832.78,214.58,832.94,226.45z"/>
	<path class="st0" d="M819.15,515.85c0.15-1.87,0.36-3.14,0.34-4.4c-0.31-20.81-0.67-41.62-0.99-62.43
		c-0.18-11.45-0.34-22.9-0.44-34.36c-0.03-2.91-0.46-5.68-1.55-8.38c-1.73-4.31-4.6-7.51-8.88-9.32c-1.91-0.81-3.93-1.36-5.88-2.06
		c-1.71-0.61-2.27-1.96-2.33-3.66c-0.06-1.64,0.16-3.13,1.69-4.07c0.66-0.41,1.37-0.75,2.09-1.03c8.48-3.3,16.92-6.71,25.48-9.78
		c2.88-1.03,6.06-1.44,9.13-1.66c2.89-0.2,4.31,1.49,4.34,4.29c0.27,19.49,0.58,38.98,0.81,58.47c0.15,12.74,0.08,25.48,0.26,38.22
		c0.2,14.25,0.73,28.49,0.81,42.73c0.05,8.56,0.13,17.12-0.56,25.7c-0.36,4.53-0.67,9.23,0.25,13.89c0.53,2.72,0.03,5.65-0.01,8.49
		c-0.15,12.44,1.18,24.88,0.14,37.34c-0.25,3.07,0.34,6.2,0.36,9.3c0.09,9.11,0.1,18.22,0.12,27.32c0.02,8.79,4.19,14.77,12.2,18.17
		c1.2,0.51,2.46,0.85,3.66,1.35c1.54,0.64,2.41,2.08,2.33,3.67c-0.09,1.91-1.4,3.3-3.44,3.63c-0.51,0.08-1.03,0.19-1.55,0.18
		c-10.4-0.21-20.81-0.37-31.2-0.71c-3.19-0.1-3.48-0.61-3.83-3.67c-0.09-0.77-0.01-1.57-0.11-2.34c-0.3-2.48-1.44-2.95-3.72-1.53
		c-1.99,1.24-3.88,2.63-5.92,3.77c-13.19,7.35-26.6,7.76-40.41,1.56c-10.11-4.53-17.72-11.8-23.74-20.81
		c-8.04-12.04-13.18-25.11-15.27-39.64c-1.7-11.8-0.98-23.32,0.6-34.93c0.63-4.62,1.63-9.2,2.63-13.77
		c2.83-12.9,8.23-24.58,16.72-34.76c4.37-5.24,9.35-9.83,15.27-13.22c10.03-5.75,20.53-7.06,31.46-2.68
		c4.83,1.94,9.6,3.98,13.63,7.45C815.16,513.48,816.99,514.43,819.15,515.85z M819.36,587.16c-0.1,0-0.2,0-0.29-0.01
		c0-17.17,0.01-34.34-0.01-51.5c0-2.08-0.05-4.17-0.32-6.22c-0.28-2.08-1.07-3.94-2.71-5.46c-5.38-5.01-11.22-9.32-18.25-11.68
		c-3.68-1.23-7.36-2.09-11.43-1.12c-7.56,1.81-13.23,6-16.97,12.65c-1.9,3.37-3.44,7.02-4.64,10.7
		c-4.01,12.27-4.89,24.97-4.12,37.73c0.56,9.33,1.72,18.64,3.09,27.88c1.59,10.8,3.91,21.48,7.56,31.8
		c2.44,6.91,5.89,13.3,10.94,18.73c3.94,4.23,8.77,6.3,14.56,6.36c8.25,0.08,15.14-3.29,21.33-8.33c1.11-0.9,1.84-2.51,2.27-3.94
		c0.44-1.45,0.41-3.08,0.4-4.64c-0.11-9.6-0.19-19.21-0.43-28.8C820.11,603.27,819.69,595.21,819.36,587.16z"/>
	<path class="st0" d="M1588.32,252.63c0,16.57,0.02,33.14-0.01,49.71c-0.01,5.44-0.24,10.87-0.16,16.31c0.04,2.71,0.2,5.5,0.9,8.09
		c1.41,5.18,4.6,8.72,10.2,9.71c3.18,0.56,5.83-0.27,8.18-2.32c3.63-3.17,5.34-7.27,5.62-12c0.38-6.35,0.57-12.7-0.43-19.02
		c-0.14-0.89-0.25-1.79-0.3-2.69c-0.05-0.79,1.12-1.6,1.95-1.38c0.44,0.11,0.89,0.2,1.3,0.38c6.04,2.61,12.07,5.24,18.1,7.85
		c1.86,0.81,2.67,2.19,2.81,4.23c0.94,14.49-7.46,26.11-18.78,31.21c-14.65,6.6-28.35,4.08-41.23-4.62
		c-4.32-2.92-7.94-6.69-11.12-10.93c-3.45-4.6-4.93-9.53-4.59-15.24c0.47-7.93,0.69-15.88,0.9-23.82c0.09-3.62-0.22-7.25-0.17-10.87
		c0.1-7.7,0.31-15.41,0.45-23.11c0.04-2.03-0.02-4.07-0.05-6.1c-0.04-1.82-0.18-3.63-0.15-5.44c0.29-19.96,0.61-39.92,0.9-59.87
		c0.07-4.5-0.16-4.81-4.39-4.75c-4.3,0.06-8.6,0.36-12.91,0.55c-0.9,0.04-1.81,0.09-2.72,0.08c-2.75-0.03-3.31-0.78-2.3-3.17
		c1.14-2.72,2.38-5.4,3.52-8.11c0.81-1.92,2.28-2.69,4.28-2.74c3.86-0.09,7.72-0.15,11.57-0.34c2.26-0.11,2.88-0.74,2.94-2.87
		c0.1-3.63,0.11-7.26,0.11-10.89c0-10.44-0.02-20.89-0.02-31.33c0-0.68,0.01-1.36,0.04-2.04c0.09-1.73,0.83-3.03,2.5-3.7
		c0.84-0.34,1.66-0.73,2.52-1.04c5.11-1.86,10.2-3.76,15.33-5.52c4.27-1.47,4.96-0.88,5.06,3.92c0.01,0.68-0.02,1.36-0.01,2.04
		c0.04,13.62,0.07,27.24,0.14,40.87c0.01,2.72,0.11,5.45,0.27,8.17c0.1,1.63,0.98,2.4,2.65,2.44c1.82,0.04,3.63-0.02,5.45-0.03
		c9.08-0.04,18.17-0.08,27.25-0.12c1.14,0,2.27-0.01,3.41,0.02c3.15,0.1,3.77,0.91,2.73,3.64c-0.65,1.7-1.38,3.36-2.05,5.04
		c-2.11,5.27-2.27,5.45-7.82,5.45c-4.76,0-9.53-0.24-14.29-0.3c-3.18-0.04-6.37-0.14-9.53,0.1c-9.49,0.73-8.13,0.5-8.27,8.53
		C1587.7,208.61,1588.54,230.62,1588.32,252.63z"/>
	<path class="st0" d="M1750.2,345.68c-10.86-0.32-21.2-2.6-31.18-6.67c-1.47-0.6-2.9-1.36-4.43-1.72c-0.73-0.17-1.79,0.21-2.43,0.69
		c-0.69,0.51-1.26,1.38-1.53,2.21c-1.1,3.36-3.7,3.53-6.58,3.39c-1.79-0.09-2.98-0.91-3.74-2.46c-0.3-0.61-0.67-1.19-0.95-1.81
		c-4.8-10.77-9.6-21.55-14.39-32.33c-0.28-0.62-0.55-1.24-0.79-1.88c-0.07-0.19,0-0.44,0.02-0.66c0.14-1.72,4.69-3.83,6.17-2.75
		c1.26,0.93,2.36,2.1,3.45,3.24c4.4,4.59,8.67,9.3,13.19,13.77c2.57,2.55,5.35,4.96,8.32,7.02c12.12,8.42,25.4,11.75,40.02,8.47
		c12.54-2.82,22.43-12.73,23.94-27.94c1.18-11.84-3.2-21.73-11.09-30.32c-5.47-5.95-12.35-9.9-19.3-13.78
		c-6.93-3.87-13.87-7.74-20.75-11.71c-7.53-4.35-14.17-9.84-19.8-16.47c-4.43-5.22-7.88-11.06-9.92-17.68
		c-5.7-18.44,1.77-37.62,17.71-46.33c3.78-2.06,7.52-4.1,11.73-5.34c9.82-2.89,19.25-2.33,28.44,2.22c1.22,0.6,2.47,1.14,3.71,1.71
		c3.27,1.51,3.27,1.51,5.62-1.93c2.35-3.45,7.59-3.21,9.48,0.44c0.31,0.6,0.58,1.23,0.86,1.86c4.2,9.55,8.41,19.1,12.6,28.65
		c0.36,0.83,0.69,1.69,0.88,2.57c0.08,0.38-0.13,0.91-0.37,1.27c-1.75,2.55-5.55,2.9-7.61,0.58c-2.41-2.72-4.75-5.5-6.95-8.39
		c-4.59-6.02-10.15-11.03-16.24-15.43c-8.22-5.94-17.34-7.87-27.08-4.63c-6.93,2.31-11.6,6.93-12.41,14.62
		c-0.02,0.22,0.1,0.48,0.03,0.68c-2.33,6.82,0.53,12.47,4.31,17.72c2.79,3.87,6.34,7.06,10.48,9.58
		c11.05,6.71,22.07,13.48,33.06,20.29c3.28,2.03,6.47,4.22,9.6,6.46c8.99,6.45,16.28,14.49,21.55,24.21
		c3.82,7.05,5.87,14.65,6.14,22.79c0.3,9.03-1.19,17.66-4.75,25.89c-6.91,15.98-18.63,25.96-36.19,28.4
		C1758.76,344.76,1754.47,345.18,1750.2,345.68z"/>
	<path class="st0" d="M680.87,595.15c0-17.95,0.03-35.91-0.02-53.86c-0.01-4.68-0.24-9.37-0.44-14.05c-0.05-1.29-0.24-2.6-0.59-3.83
		c-1.93-6.67-6.01-9.92-12.95-10.42c-5.31-0.38-10.44,0.43-15.11,2.99c-5.01,2.75-9.83,5.83-14.73,8.77
		c-1.48,0.89-2.05,2.25-2.11,3.92c-0.28,7.53-0.77,15.06-0.85,22.59c-0.14,14.3-0.01,28.6-0.07,42.9
		c-0.06,12.23-0.24,24.46-0.35,36.69c-0.03,2.86-0.03,5.73,0.05,8.59c0.24,8.06,4.43,13.64,11.22,17.49c1.57,0.89,3.32,1.47,5,2.19
		c2.05,0.88,2.33,2.58,2.18,4.52c-0.11,1.46-0.79,2.5-2.26,2.71c-1.28,0.18-2.59,0.16-3.89,0.15c-15.62-0.14-31.23-0.29-46.85-0.45
		c-1.3-0.01-2.61,0-3.9-0.11c-3.13-0.27-4.4-2.08-3.75-5.43c0.13-0.68,0.62-1.57,1.19-1.84c1.64-0.76,3.44-1.19,5.13-1.86
		c6.67-2.67,10.47-7.5,10.83-14.79c0.21-4.16,0.44-8.32,0.43-12.48c-0.02-10.41-0.43-20.82-0.23-31.22
		c0.32-16.62-0.56-33.26,0.9-49.86c0.39-4.39,0.21-8.85,0.04-13.26c-0.31-8.19-4.25-13.71-12.3-16.04c-1-0.29-1.96-0.73-2.96-0.99
		c-1.7-0.44-2.72-1.38-2.81-3.22c-0.1-2.2,0.17-4.24,2.53-5.17c5.08-2,10.19-3.91,15.28-5.89c3.39-1.32,6.75-2.74,10.14-4.06
		c1.45-0.57,2.91-1.2,4.43-1.48c9.41-1.74,10.13-0.91,10.46,7.87c0.09,2.32-0.47,4.68,0.58,6.9c0.16,0.33,0.82,0.72,1.12,0.63
		c0.73-0.22,1.38-0.7,2.06-1.08c5.9-3.31,11.74-6.72,17.71-9.9c6.89-3.67,14.33-4.59,21.98-3.58c8.06,1.06,14.68,4.71,19.89,11.11
		c5.16,6.34,7.67,13.47,7.67,21.57c0,15.88,0.05,31.75-0.01,47.63c-0.07,18.74-0.22,37.48-0.33,56.22c-0.01,1.3,0.02,2.6,0.06,3.9
		c0.32,10.17,4.91,17.25,14.81,20.53c2.08,0.69,2.65,1.85,2.45,4.19c-0.13,1.45-0.8,2.47-2.23,2.8c-1,0.23-2.05,0.35-3.08,0.33
		c-10.92-0.24-21.84-0.53-32.76-0.8c-0.26-0.01-0.52-0.04-0.78-0.07c-2.28-0.24-3.25-1.13-3.27-3.49
		c-0.06-9.63-0.04-19.26-0.04-28.89c0-13.01,0-26.03,0-39.04C680.52,595.15,680.7,595.15,680.87,595.15z"/>
	<path class="st0" d="M1411.04,595.52c0-16.52,0.02-34.99-0.02-53.46c-0.01-3.35-0.51-6.67-0.1-10.06c0.21-1.75-0.32-3.61-0.67-5.39
		c-1.93-9.69-9.07-14.82-18.71-12.93c-4.28,0.84-8.53,2.36-12.47,4.26c-3.95,1.9-7.5,4.66-11.23,7.03
		c-2.13,1.36-3.28,3.26-3.29,5.83c-0.01,2.08-0.09,4.16-0.1,6.24c-0.01,24.45,0.07,48.9-0.05,73.35
		c-0.04,7.79-0.81,15.57-0.78,23.36c0.02,4.64,0.24,9.49,1.61,13.85c2.07,6.58,7.1,10.66,13.89,12.48c2.3,0.62,3.37,4.53,1.88,6.38
		c-0.43,0.54-1.3,1.02-1.98,1.03c-3.12,0.06-6.24-0.03-9.36-0.09c-13.25-0.27-26.51-0.55-39.76-0.84c-2.08-0.05-4.16-0.07-6.23-0.26
		c-1.43-0.13-2.38-1.03-2.51-2.5c-0.14-1.55-0.29-3.29,1.24-4.23c1.06-0.65,2.42-0.82,3.64-1.24c6.73-2.32,10.88-6.9,11.96-14.01
		c0.35-2.31,0.55-4.66,0.55-6.99c0.03-9.87-0.16-19.74-0.03-29.61c0.24-19.22,0.65-38.43,0.96-57.65c0.07-4.42,0.13-8.85-0.09-13.27
		c-0.13-2.56-0.71-5.13-1.33-7.63c-0.8-3.2-2.86-5.57-5.76-7.02c-2.31-1.15-4.76-2.05-7.22-2.85c-1.72-0.55-2.6-1.48-2.68-3.29
		c-0.16-3.64,0.34-4.77,3.59-6.04c8.96-3.5,17.92-7,26.98-10.21c2.37-0.84,5.11-0.72,7.69-0.83c3.12-0.13,3.7,0.45,3.81,3.4
		c0.12,3.38,0.13,6.76,0.29,10.14c0.05,1.01,0.07,2.49,0.68,2.9c1.21,0.81,2.35-0.36,3.38-1.08c5.98-4.17,12.13-8.07,18.83-10.97
		c6.04-2.62,12.3-3.82,18.97-3.36c10.88,0.75,18.34,6.48,23.92,15.34c4.04,6.41,5.11,13.62,5.2,20.93
		c0.21,17.93,0.25,35.87,0.11,53.8c-0.13,16.12-0.58,32.23-0.91,48.35c-0.08,3.92,0.11,7.74,1.78,11.44c1.9,4.22,4.77,7.41,8.8,9.57
		c1.6,0.86,3.32,1.5,4.92,2.36c1.26,0.67,1.72,2.44,1.24,4.14c-0.42,1.46-1.53,2.03-2.91,2.08c-2.08,0.07-4.16,0.07-6.24,0.05
		c-8.58-0.07-17.17-0.13-25.75-0.24c-6.64-0.08-6.73-0.11-6.72-6.34c0.02-16.91,0.08-33.81,0.22-50.72
		C1410.32,606.3,1410.71,601.88,1411.04,595.52z"/>
	<path class="st0" d="M1463.61,342.3c-9.08,0-18.16,0.01-27.23-0.01c-1.13,0-2.28,0.01-3.38-0.2c-1.18-0.23-2.09-1.08-2.22-2.29
		c-0.15-1.34-0.16-2.74,0.12-4.05c0.16-0.75,0.9-1.54,1.6-1.97c0.73-0.45,1.71-0.55,2.6-0.7c7.94-1.35,15.1-8.11,15.42-18.97
		c0.16-5.22,0.12-10.44,0.14-15.66c0.15-32,0.29-63.99,0.43-95.99c0.01-1.82,0.04-3.63-0.05-5.45c-0.38-7.51-4.98-13.35-12.15-15.42
		c-1.09-0.31-2.22-0.47-3.32-0.73c-1.33-0.31-2.75-0.54-3.06-2.22c-0.5-2.76,0.2-5.01,2.08-5.97c2.22-1.13,4.51-2.14,6.84-3.04
		c8.45-3.28,16.89-6.58,25.4-9.68c2.08-0.76,4.41-1.06,6.63-1.11c5.71-0.13,5.36,0.31,5.2,5.12c-0.29,8.84-0.28,17.7-0.33,26.55
		c-0.01,1.1,0.3,2.2,0.51,3.29c0.03,0.18,0.3,0.43,0.47,0.43c0.39,0.01,0.99,0.02,1.13-0.21c1.05-1.74,2.2-3.46,2.97-5.33
		c2.28-5.5,5.6-10.38,9-15.2c3.73-5.29,8.67-9.4,14.53-12.01c7.41-3.3,14.96-3.12,22.27,0.75c1.34,0.71,2.05,1.75,2.12,3.22
		c0.11,2.27,0.23,4.54,0.21,6.8c-0.07,8.85-0.19,17.7-0.3,26.55c-0.01,0.68-0.01,1.37-0.16,2.03c-0.09,0.38-0.49,1.01-0.7,0.99
		c-0.61-0.06-1.36-0.23-1.77-0.64c-0.62-0.63-1.03-1.48-1.49-2.26c-2.62-4.52-6.61-7.43-11.28-9.44c-3.91-1.68-7.92-1.54-11.94-0.11
		c-6.07,2.15-10.35,6.54-13.91,11.57c-7.24,10.23-11.28,21.69-11.66,34.26c-0.29,9.52-0.19,19.06-0.26,28.59
		c-0.1,13.39-0.22,26.78-0.29,40.17c-0.02,3.4,0.04,6.81,0.21,10.2c0.49,10.03,5.84,16.36,15.14,19.62c1.24,0.44,3.02,0.7,3.51,1.6
		c0.68,1.26,0.51,3.05,0.45,4.6c-0.05,1.25-0.95,2.12-2.21,2.18c-3.4,0.17-6.8,0.28-10.2,0.3c-7.04,0.04-14.07,0.01-21.11,0.01
		C1463.61,342.43,1463.61,342.36,1463.61,342.3z"/>
	<path class="st0" d="M1223.62,586.26c0,15.35-0.01,30.69,0.01,46.04c0,3.12,0.13,6.24,0.2,9.36c0.19,7.92,4.75,12.9,11.24,16.51
		c1.13,0.63,2.39,1.03,3.62,1.45c2.51,0.85,2.69,2.86,2.41,5.08c-0.17,1.42-1.05,2.43-2.49,2.57c-1.8,0.18-3.63,0.19-5.44,0.15
		c-14.3-0.3-28.59-0.63-42.89-0.94c-1.82-0.04-3.64,0.05-5.46-0.05c-2.41-0.13-3.57-1.33-4.01-3.92c-0.3-1.72,0.48-3.28,1.99-3.75
		c1.24-0.38,2.55-0.52,3.78-0.94c5.87-1.98,9.88-5.84,10.93-12.05c0.74-4.33,1.2-8.77,1.23-13.16c0.2-27.57,0.25-55.14,0.36-82.71
		c0.02-5.2,0.19-10.4,0.11-15.59c-0.12-7.76-4.31-12.51-11.47-14.91c-0.98-0.33-2-0.58-2.99-0.89c-1.61-0.51-2.68-1.4-2.71-3.3
		c-0.03-1.93,0.27-3.67,2.1-4.68c1.13-0.63,2.33-1.15,3.54-1.61c8.02-3.03,16.05-6.01,24.07-9.06c3-1.14,6.09-1.21,9.22-0.98
		c1.81,0.14,2.79,1.1,2.95,2.96c0.18,2.07,0.25,4.15,0.36,6.23c0.08,1.56,0.12,3.12,0.24,4.68c0.09,1.15,1.23,1.86,2.18,1.33
		c5-2.76,9.92-5.68,15-8.29c3.22-1.66,6.62-3,10.03-4.25c6.79-2.49,13.7-2.59,20.71-0.82c3.89,0.98,7.3,2.97,10.22,5.48
		c6.26,5.39,10.5,12.05,11.79,20.46c1.47,9.57,1.22,19.19,1.15,28.8c-0.1,12.48-0.47,24.95-0.73,37.42
		c-0.03,1.56-0.25,3.13-0.17,4.68c0.65,12.21-0.35,24.41-0.23,36.61c0.04,4.14-0.05,8.26,0.97,12.39
		c1.56,6.3,5.11,10.66,10.97,13.26c0.47,0.21,0.98,0.36,1.46,0.55c3.42,1.35,3.95,2.02,3.65,5.01c-0.21,2.14-1.17,2.61-5.57,2.6
		c-7.54-0.02-15.09-0.14-22.63-0.21c-2.86-0.03-5.73,0.05-8.58-0.06c-3.22-0.12-4.69-1.51-5.04-4.74c-0.2-1.8-0.19-3.64-0.15-5.46
		c0.16-7.27,0.46-14.53,0.54-21.8c0.28-23.39,0.53-46.77,0.71-70.16c0.08-9.88-0.05-19.77-0.12-29.65c-0.02-2.6,0.07-5.23-0.29-7.79
		c-1.4-9.98-7.65-16.35-19.84-14.6c-2.03,0.29-4.04,1.02-5.96,1.79c-2.89,1.16-5.84,2.29-8.5,3.88
		c-14.21,8.47-11.8,4.49-11.97,20.25c-0.17,15.61-0.04,31.22-0.04,46.83C1223.93,586.26,1223.77,586.26,1223.62,586.26z"/>
	<path class="st0" d="M1573.66,573.82c0,11.71-0.01,23.42,0,35.12c0.02,10.93,0.06,21.85,0.11,32.78
		c0.03,6.05,2.01,11.35,6.93,15.02c2.22,1.65,5.08,2.48,7.68,3.58c2.23,0.94,3.09,2.38,2.36,4.96c-0.24,0.84-1.11,1.65-1.9,2.15
		c-0.59,0.38-1.51,0.31-2.28,0.31c-10.41,0.05-20.82,0.08-31.22,0.1c-1.04,0-2.09-0.05-3.11-0.21c-1.11-0.16-1.92-0.86-2.12-1.97
		c-0.33-1.78-0.51-3.59-0.79-5.39c-0.27-1.79-0.51-3.58-0.89-5.35c-0.23-1.05-1.26-1.02-1.86-0.64c-2.41,1.53-4.72,3.22-7.08,4.83
		c-7.2,4.87-14.97,8.25-23.64,9.56c-6.64,1-13.07,0.24-19.11-2.37c-8.57-3.71-14.12-10.28-16.83-19.3
		c-1.73-5.78-2.64-11.63-2.64-17.66c-0.02-25.76-0.09-51.52-0.12-77.28c-0.01-4.68,0.11-9.37,0.17-14.05
		c0.04-3.16-0.39-6.2-1.9-9.06c-2.05-3.88-5.06-6.55-9.25-7.86c-0.99-0.31-2.05-0.37-3.05-0.63c-1.56-0.4-2.92-1.02-3.11-2.95
		c-0.21-2.23,0.18-4.17,2.29-5.36c0.67-0.38,1.41-0.64,2.14-0.93c7.74-3.06,15.45-6.17,23.22-9.14c2.17-0.83,4.48-1.67,6.75-1.76
		c7.85-0.32,8.18-0.15,8.21,7.29c0.04,11.17,0.43,22.34,0.35,33.5c-0.18,26.27-0.56,52.54-0.8,78.81
		c-0.06,5.98-0.03,11.98,0.25,17.95c0.13,2.82,0.51,5.77,1.5,8.39c1.98,5.24,5.87,8.41,11.62,9.09c5.83,0.69,11.42,0.19,16.58-2.9
		c3.79-2.26,7.64-4.43,11.39-6.76c3.83-2.38,5.63-5.74,5.49-10.44c-0.28-9.36-0.23-18.73-0.26-28.1
		c-0.04-15.87-0.05-31.73-0.06-47.6c0-5.98,0.14-11.97-0.01-17.95c-0.07-2.84-0.47-5.71-1.07-8.49c-1.39-6.4-5.25-10.59-11.72-12.17
		c-1.01-0.25-2.06-0.33-3.06-0.61c-1.3-0.36-2.49-1.02-2.55-2.54c-0.07-1.78-0.39-3.78,1.59-4.86c1.36-0.75,2.81-1.36,4.26-1.9
		c7.29-2.76,14.66-5.32,21.89-8.26c4.59-1.86,9.15-1.54,13.77-0.67c0.69,0.13,1.63,1.43,1.66,2.21c0.17,5.72,0.15,11.45,0.16,17.17
		c0.01,17.43,0,34.86,0,52.29C1573.62,573.82,1573.64,573.82,1573.66,573.82z"/>
	<path class="st0" d="M1723.66,656.21c0,2.34-0.01,4.68,0,7.02c0.01,1.8-0.99,2.85-2.51,3.56c-8.86,4.17-17.2,2.83-25.04-2.54
		c-4.14-2.83-7.35-6.58-9.5-11.16c-0.66-1.41-1.16-2.91-1.96-4.24c-0.23-0.39-1.42-0.61-1.88-0.37c-1.37,0.72-2.59,1.71-3.87,2.6
		c-5.13,3.56-10.07,7.42-15.41,10.61c-16.09,9.6-32.57,10.03-48.74,0.41c-10.75-6.39-16.44-16.51-17.46-28.88
		c-0.92-11.19,2.08-21.75,7.73-31.32c11.39-19.28,27.54-32.99,48.9-40.25c3.93-1.34,7.9-2.57,11.82-3.94
		c1.95-0.68,3.97-1.35,5.71-2.43c0.95-0.59,1.98-2.07,1.92-3.08c-0.62-10.11-1.09-20.3-3.66-30.13c-1.89-7.2-7.06-11.3-14.59-12.16
		c-8.4-0.96-15.25,2.31-21.09,7.99c-5.27,5.11-9.53,10.96-12.29,17.84c-0.75,1.88-2.08,2.23-3.69,1.04c-3.75-2.8-7.41-5.7-11.1-8.57
		c-2.46-1.91-4.95-3.79-7.33-5.8c-1.23-1.03-1.11-3.07,0.19-4.12c10.71-8.63,22.46-14.95,36.44-16.3c2.84-0.27,5.66-0.81,8.5-1.03
		c8.64-0.68,17.18,0.32,25.42,2.78c14.69,4.39,25.95,15.74,27.21,34.21c0.79,11.65,1.76,23.28,2.66,34.92
		c0.06,0.78,0.11,1.56,0.16,2.34c1.23,18.66,2.35,37.33,3.75,55.98c0.37,4.89,1.22,9.82,2.54,14.55c1.58,5.67,6.06,6.9,10.91,3.48
		c0.84-0.6,1.49-1.51,2.37-2.01c0.8-0.46,2.14-1.06,2.64-0.71c0.64,0.44,0.88,1.75,0.93,2.7c0.12,2.33,0.04,4.68,0.04,7.02
		C1723.47,656.21,1723.56,656.21,1723.66,656.21z M1650.77,650.7c4.12,0.09,8.77-0.56,12.9-2.96c4.7-2.73,9.16-5.87,13.77-8.74
		c2.05-1.28,2.6-3.1,2.42-5.31c-0.32-3.87-0.7-7.74-0.96-11.61c-1.19-17.61-2.34-35.21-3.51-52.82c-0.05-0.77-0.14-1.55-0.27-2.32
		c-0.23-1.42-1.49-2.23-2.83-1.83c-7.82,2.35-14.7,6.29-20.89,11.64c-9.39,8.11-17.15,17.34-20.64,29.5
		c-1.21,4.22-1.74,8.63-2.73,12.92c-1.34,5.79-0.14,11.31,1.46,16.84C1632,644.63,1640.32,650.84,1650.77,650.7z"/>
	<path class="st0" d="M461.36,578.92c-0.15-9.14,1.85-22.15,6.36-34.76c4.17-11.66,10.43-22.1,18.92-31.05
		c8.8-9.27,19.77-14.19,32.64-14.28c4.91-0.03,9.81-0.03,14.69,1.22c12.46,3.2,21.75,10.85,29.39,20.68
		c8.73,11.24,14.29,23.97,17.06,38c1.67,8.46,2.61,17.01,2.67,25.53c0.15,24.57-5.86,47.23-22.12,66.47
		c-10.13,11.99-23.09,17.46-38.5,16.79c-10.88-0.48-20.81-4.37-29.45-11.09c-11.15-8.67-18.81-20.02-23.96-33.03
		C463.96,610.51,461.28,597.07,461.36,578.92z M557.12,611.84c-0.26-8.14-0.19-13.61-0.67-19.04c-1.18-13.48-3.66-26.76-7.43-39.75
		c-2.75-9.49-6.01-18.82-10.91-27.47c-3.38-5.96-7.86-10.86-13.73-14.59c-7.33-4.65-22.28-2.72-27.15,5.85
		c-2.84,5.01-5.75,9.89-7.16,15.47c-3.36,13.22-4.32,26.64-2.9,40.2c1.22,11.63,2.71,23.22,5.95,34.5
		c3.37,11.76,7.33,23.31,13.93,33.72c1.94,3.06,4.08,6.04,6.5,8.73c10.54,11.71,31.05,10.7,37.99-5.98c1.9-4.58,3.84-9.14,4.3-14.1
		C556.45,622.66,556.83,615.92,557.12,611.84z"/>
	<path class="st0" d="M1776.92,510.75c-0.37,15.85-0.8,31.71-1.08,47.56c-0.26,14.3-0.34,28.61-0.52,42.91
		c-0.14,10.66-0.36,21.33-0.48,31.99c-0.04,3.38-0.05,6.77,0.17,10.14c0.54,8.26,4.82,14.07,12.12,17.73
		c0.92,0.46,1.97,0.67,2.91,1.1c2.02,0.9,2.72,2.24,2.33,4.33c-0.3,1.61-1.42,2.55-3.38,2.55c-4.16-0.01-8.32-0.09-12.48-0.19
		c-11.96-0.29-23.91-0.61-35.87-0.91c-1.56-0.04-3.12,0.01-4.68-0.09c-2.82-0.18-4.02-1.76-3.68-4.73c0.16-1.41,0.88-2.43,2.25-2.87
		c0.99-0.32,2.05-0.42,3.02-0.78c8.22-3.03,12.59-8.93,12.8-17.69c0.26-10.92,0.41-21.84,0.49-32.77
		c0.12-18.45-0.43-36.93,0.38-55.35c0.74-16.91,0.09-33.79,0.42-50.69c0.44-22.36,0.4-44.73,0.59-67.1
		c0.05-5.97,0.22-11.94,0.3-17.91c0.01-1.04-0.14-2.07-0.17-3.11c-0.29-10.02-4.9-16.68-14.84-19.32c-1.97-0.52-2.95-1.96-3-4.05
		c-0.05-2.18,0.1-4.22,2.5-5.17c5.08-2,10.16-3.99,15.24-5.97c4.36-1.69,8.71-3.4,13.11-5c1.44-0.52,3-1.02,4.5-1.03
		c6.18-0.05,7.42,0.32,7.38,6.87c-0.06,9.62,0.06,19.25,0,28.87c-0.2,32.52-0.45,65.03-0.68,97.54c-0.01,1.04,0,2.08,0,3.12
		C1776.69,510.75,1776.81,510.75,1776.92,510.75z"/>
	<path class="st0" d="M590.8,235.49c0,23.16,0,46.31,0.01,69.47c0,2.27,0,4.55,0.16,6.81c0.37,5.15,2.46,9.65,5.65,13.62
		c1.87,2.33,4.23,4.12,7.15,5.01c1.73,0.53,3.51,0.91,5.23,1.47c1.2,0.4,1.78,1.44,1.73,2.64c-0.05,1.12-0.21,2.31-0.67,3.3
		c-0.33,0.71-1.16,1.38-1.91,1.65c-0.81,0.28-1.79,0.08-2.69,0.06c-9.27-0.17-18.54-0.45-27.81-0.48
		c-5.89-0.02-11.78,0.39-17.67,0.49c-4.08,0.07-8.17,0.06-12.25-0.12c-2.25-0.1-3.1-1.24-3.24-3.57c-0.01-0.23-0.03-0.45-0.03-0.68
		c-0.04-2.88,0.48-3.6,3.05-4.56c2.33-0.86,4.8-1.5,6.91-2.74c5.69-3.34,8.61-8.51,9.03-15.07c0.12-1.81,0.15-3.63,0.15-5.45
		c0.03-12.48-0.12-24.96,0.09-37.44c0.35-21.09-0.45-42.19,0.54-63.28c0.2-4.27-0.06-8.6-0.61-12.85
		c-0.91-7.14-4.5-12.24-11.99-13.82c-1.11-0.23-2.2-0.53-3.3-0.79c-2.8-0.65-3.34-1.13-3.54-3.26c-0.31-3.15,0.24-4.19,2.91-5.37
		c2.7-1.19,5.39-2.4,8.11-3.51c6.29-2.57,12.69-4.89,18.86-7.7c4.52-2.06,9.15-2.4,13.93-2.24c2.28,0.08,3.01,1.01,2.98,3.54
		c-0.2,14.05-0.45,28.1-0.57,42.15c-0.09,10.9-0.02,21.79-0.02,32.69C590.95,235.49,590.88,235.49,590.8,235.49z"/>
	<path class="st0" d="M202.63,579.53c0.92-9.38,1.84-18.67,4.63-27.67c3.64-11.76,8.69-22.79,16.52-32.43
		c7.76-9.55,17.1-16.62,29.36-19.31c13.74-3.02,26.37-0.41,37.74,7.74c14.38,10.3,22.9,24.52,26.99,41.56
		c0.12,0.5,0.18,1.02,0.26,1.54c0.42,2.79-0.07,3.83-2.59,4.9c-3.34,1.42-6.72,2.77-10.11,4.08c-11.86,4.57-23.71,9.19-35.62,13.64
		c-10.45,3.91-20.98,7.64-31.47,11.45c-1.47,0.53-2.96,1-4.4,1.58c-2.64,1.07-3.21,2.08-2.66,4.74c0.74,3.56,1.48,7.12,2.3,10.67
		c2.46,10.64,5.31,21.16,9.87,31.13c2.28,4.99,4.93,9.72,8.62,13.84c9.41,10.5,21.74,12.52,34.11,8.19
		c7.35-2.58,11.99-8.05,14.64-15.2c3-8.08,5.19-16.34,4.78-25.09c-0.05-1.02,0.13-2.07,0.33-3.08c0.22-1.07,1.12-0.98,1.79-0.64
		c0.91,0.46,1.78,1.07,2.52,1.77c3.58,3.4,7.06,6.91,10.7,10.26c1.73,1.6,2.38,3.32,1.65,5.55c-2.05,6.23-4.8,12.03-9.45,16.83
		c-3.98,4.12-7.88,8.29-12.67,11.51c-8.35,5.62-17.35,8.99-27.57,9.66c-16.21,1.06-30.1-4.12-42.38-14.28
		c-2.38-1.97-4.47-4.35-6.44-6.75c-12.12-14.74-17.93-32.02-20.07-50.72C203.43,589.87,203.09,584.69,202.63,579.53z M228.35,559.51
		c0.25,4.92,0.38,9.86,0.77,14.77c0.31,3.87,1.56,4.03,4.4,2.92c16.18-6.34,32.4-12.57,48.59-18.89c1.93-0.75,3.72-1.84,5.63-2.65
		c1.68-0.71,2.44-1.94,2.18-3.66c-0.45-3.07-0.77-6.19-1.66-9.14c-1.94-6.45-3.78-12.98-6.44-19.14
		c-2.49-5.76-6.48-10.74-12.18-13.76c-10.69-5.66-24.15-2.24-31.15,7.76c-4.08,5.83-6.36,12.43-7.86,19.34
		C229.03,544.45,228.64,551.96,228.35,559.51z"/>
	<path class="st0" d="M360.01,558.54c0.19,23.89,3.32,43.85,9.32,63.36c2.31,7.51,5.61,14.59,9.84,21.15
		c4.63,7.18,10.83,12.55,19.61,14.32c10.11,2.05,23.88-2.8,29.36-11.89c4.43-7.33,6.45-15.26,7.33-23.6c0.27-2.58,0.16-5.2,0.34-7.8
		c0.05-0.7,0.31-1.61,0.81-2.02c1.06-0.87,1.97,0.09,2.68,0.75c3.8,3.55,7.43,7.29,11.36,10.7c2.94,2.55,2.71,5.28,1.38,8.38
		c-3.44,8.01-8.37,14.94-14.98,20.66c-6.76,5.85-14.09,10.86-22.88,12.91c-22.66,5.28-42.18-0.47-58.03-17.65
		c-11.64-12.62-17.6-27.96-20.8-44.6c-1.73-9.01-2.22-18.08-1.5-27.16c1.7-21.43,7.74-41.31,21.75-58.18
		c5.04-6.06,11-11.01,17.82-14.94c4.36-2.51,9.02-3.96,14.06-4.19c8.75-0.39,17.11,0.68,24.55,5.88c1.9,1.33,4.11,2.22,6.23,3.23
		c1.78,0.85,2.74,0.5,3.84-1.3c0.53-0.88,0.81-1.94,1.42-2.76c1.86-2.51,5.83-2.13,7.1,0.61c0.22,0.47,0.43,0.95,0.58,1.45
		c4.2,14.2,8.39,28.4,12.58,42.59c0.15,0.5,0.39,0.98,0.49,1.48c0.29,1.43-0.18,2.56-1.51,3.22c-0.93,0.46-1.94,0.75-2.88,1.18
		c-1.38,0.63-2.51,0.45-3.28-0.93c-1.9-3.4-3.88-6.77-5.65-10.24c-3.57-6.99-8.08-13.35-12.85-19.52c-4-5.18-8.74-9.61-14.45-12.93
		c-13.59-7.9-27.67-2.52-34.37,7.67c-4.09,6.23-6.08,13.17-7.54,20.33C360.16,546.4,359.89,554.19,360.01,558.54z"/>
	<path class="st0" d="M1674.73,59.1c0.08,8.73-0.26,16.64-1.69,24.48c-1.6,8.8-4.42,17.09-9.67,24.43
		c-4.02,5.61-8.9,10.24-15.22,13.2c-1.47,0.69-2.69-0.05-2.81-1.71c-0.18-2.54-0.08-4.94,2.06-6.85c5.67-5.07,8.32-11.77,9.67-19
		c1.03-5.55,1.74-11.18,2.26-16.81c0.33-3.56-0.19-3.93-3.31-4.9c-7.91-2.44-10.17-4.92-10.47-12.85
		c-0.26-6.78-0.07-13.6,0.23-20.38c0.15-3.41,1.37-6.58,3.98-9.1c6.33-6.11,21.25-4.24,23.63,6.67c0.43,1.98,0.88,3.97,1.06,5.99
		C1674.98,48.13,1675.56,54,1674.73,59.1z"/>
	<path class="st0" d="M563.25,94.69c0-2.72-0.02-5.44,0.01-8.16c0.01-0.9,0.13-1.81,0.22-2.71c1.16-12.01,12.39-14.23,19.44-11.77
		c4.92,1.72,7.99,5.09,9.16,10.05c1.67,7.12,1.77,14.39,1.24,21.63c-0.48,6.45-3.87,10.98-10.16,13.04
		c-5.92,1.93-11.15,0.67-15.67-3.56c-2.41-2.25-3.94-5-4.05-8.34c-0.11-3.39-0.02-6.79-0.02-10.19
		C563.35,94.69,563.3,94.69,563.25,94.69z"/>
</g>
</svg>
