<svg xmlns="http://www.w3.org/2000/svg" viewBox="0 0 1824 1282"><path d="M178.26 1236.32c-11.12-.16-22.27.16-33.35-.62-9.51-.67-18.99.71-28.48-.39-4.23-.49-8.62.48-12.89.15-6.8-.52-13.55-.15-20.33-.01-3.17.06-6.34-.32-9.51-.32-11.33.02-22.65.44-33.97.98-2.94.14-5.91.13-8.83-.14-3.64-.33-4.51-2.39-4.43-4.9.09-2.95-.04-5.91.07-8.85.09-2.63 1.43-4.17 3.94-4.85.44-.12.89-.22 1.34-.25 5.29-.31 10.05-2.42 14.97-4.14 7.12-2.49 12.62-7.01 17.6-12.39 5.92-6.39 8.71-14.15 10.13-22.59 1.55-9.25.94-18.56 1.01-27.84.05-6.8-.46-13.6-.47-20.39-.01-8.39.41-16.78.35-25.16-.06-9.75-.59-19.49-.64-29.24-.09-15.16.06-30.32.1-45.49.02-7.47-.06-14.95.05-22.42.14-9.48-.87-18.97.24-28.46.28-2.43-.22-4.93-.24-7.41-.02-2.93.11-5.87.18-8.8.03-1.36.26-2.74.06-4.07-.75-4.98-.39-9.95-.03-14.92.08-1.12.09-2.25.08-3.37-.1-11.09-.29-22.17.14-33.27.45-11.78.21-23.58.27-35.38.05-12.26.11-24.52.13-36.78.01-3.86-.31-7.73-.06-11.57.66-10.18-.26-20.36.27-30.52.2-3.85-.27-7.62-.54-11.43-.89-12.72-7.36-22.09-17.49-29.27a35.1 35.1 0 0 0-11.65-5.4c-4.17-1.06-8.35-2.06-12.51-3.15-1.09-.28-2.15-.73-3.18-1.2-1.58-.73-2.49-2.06-2.54-3.75-.09-2.95-.07-5.91.08-8.85.12-2.47 1.43-3.7 3.89-3.81 2.95-.13 5.9-.27 8.85-.18 16.13.51 32.22-.64 48.32-1.18 20.87-.71 41.73-1.72 62.62-1.38 14.54.24 28.97 1.37 43.39 3.54 15.89 2.39 30.86 7.15 45.2 14.24 9.01 4.45 17.28 10.01 25.02 16.34 8.97 7.33 17.36 15.3 25.25 23.8 7.76 8.36 14.37 17.58 20.32 27.24 8.45 13.73 16.06 27.93 22.21 42.87 8.06 19.56 13.81 39.79 18.09 60.51 2.94 14.24 5.31 28.54 7.13 42.95.71 5.62 1.34 11.27 1.72 16.92.75 11.32 1.31 22.66 1.94 33.99.23 4.08.51 8.15.59 12.23.06 2.94-.18 5.89-.26 8.83-.3 11.79-.31 23.59-.96 35.36-.87 15.62-2.2 31.25-5.38 46.59-3.26 15.77-7.33 31.4-13.96 46.15-5.31 11.82-11.73 23.06-20.18 32.96a131.703 131.703 0 0 1-17.03 16.61c-7.24 5.89-14.81 11.25-22.98 15.75-7.37 4.06-15.28 6.9-23.11 9.89-.63.24-1.31.39-1.97.5-11.62 1.92-23.17 4.45-35.05 4.38-2.7-.02-5.4.68-8.11.76-11.8.33-23.6.56-35.4.82-.02-.06-.02-.14-.02-.22zm-48.19-224.04h.01c0 4.31-.03 8.62.01 12.93.09 12.26.27 24.52.3 36.78.06 21.79-.03 43.58.08 65.36.04 9.06.45 18.12.64 27.18.16 7.49.1 14.99.44 22.47.2 4.52.83 9.04 1.54 13.52.57 3.63 2.09 6.99 4.59 9.73 5.7 6.25 12.76 10.33 21.15 11.29 12.85 1.47 25.71 1.6 38.67.3 7.62-.76 14.59-3.31 21.55-5.78 10.81-3.84 20.06-10.55 28.12-18.66 9.97-10.03 18.37-21.29 24.55-34.08 2.27-4.69 4.29-9.5 6.44-14.25 4.23-9.32 7.32-19.09 9.64-28.99 3.19-13.65 6.16-27.39 7.95-41.34 1.42-11.03 2.5-22.1 3.05-33.17.93-18.58.87-37.2.16-55.81-.27-7.02-.72-14.03-1.13-21.04-.51-8.82-1.06-17.63-1.6-26.45-.03-.45-.14-.9-.22-1.34-1.03-6.26-1.25-12.6-2.16-18.89-1.52-10.52-2.74-21.09-5.21-31.45-3.25-13.66-6.38-27.37-10.09-40.91-2.03-7.39-4.75-14.65-7.87-21.66-4.14-9.3-8.86-18.31-14.58-26.81-10.34-15.36-23.51-27.54-39.61-36.57-5.56-3.12-11.51-5.41-17.8-6.56-10.94-2-21.93-2.84-33.06-1.4-8.3 1.07-15.77 3.85-22.49 8.84-2.4 1.79-4.37 3.9-6.2 6.24-4.87 6.23-6.26 13.66-6.45 21.12-.33 12.92.14 25.87.29 38.8.07 6.55.3 13.11.21 19.66-.13 8.85-.69 17.69-.74 26.53-.14 30.65-.15 61.31-.19 91.96 0 17.49.01 34.97.01 52.45zm691.12-38.76c0 15.45-.03 30.89.01 46.34.04 17.26.17 34.52.2 51.78.03 14.76-.1 29.51.01 44.27.04 5.89.66 11.77.79 17.66.16 7.03.02 14.06.12 21.09.1 7.49-.24 15.04.59 22.45 1.63 14.51 8.17 26.2 21.13 33.92 5.75 3.42 11.91 5.5 18.27 7.2 1.31.35 2.66.59 3.95 1.01 3.23 1.07 5.13 3.26 4.96 6.48-.15 2.91-.8 5.82-1.47 8.68-.16.67-1.21 1.32-1.99 1.59-.81.28-1.79.11-2.69.1-15.66-.25-31.32-.6-46.98-.71-9.52-.07-19.05.26-28.58.36-10.22.11-20.43.19-30.65.21-6.12.02-7.46-1.43-7.49-7.75 0-1.36.05-2.72.11-4.09.08-1.8-.07-3.64 1.35-5.12 1.3-1.35 3.02-.65 4.49-1.05 9.25-2.52 18.08-5.89 25.53-12.24 6.05-5.15 10.19-11.52 12.38-19.1 2.85-9.87 3.9-19.87 3.53-30.24-.3-8.53-1.14-17.13.18-25.74.64-4.19-.02-8.58-.07-12.88-.07-6.57-.07-13.14-.19-19.71-.05-2.7-.47-5.4-.49-8.1-.07-8.85-.03-17.7-.02-26.56 0-1.82-.1-3.66.18-5.44.54-3.38.36-6.74.29-10.12-.22-11.11-.44-22.22-.47-33.33-.02-11.12.32-22.24.28-33.35-.05-16.11-.39-32.23-.42-48.34-.04-19.07.14-38.15.18-57.22.03-13.85-.06-27.7.01-41.55.07-14.08.27-28.15.41-42.23 0-.45.01-.91.02-1.36.1-6.79.19-6.86-4.21-12.33-3.69-4.6-7.41-9.2-11.48-13.46-8.45-8.83-18.58-15.15-30.03-19.45-6.46-2.42-6.87-1.48-6.87-9.64 0-1.14.03-2.27.08-3.41.14-3.39.63-4.03 3.94-4.14 5.45-.19 10.9-.3 16.35-.28 9.31.04 18.61.24 27.92.33 20.88.2 41.76.4 62.64.53 9.08.06 18.17-.09 27.25-.08 6.2.01 6.33.2 6.41 6.62.01.45 0 .91 0 1.36-.08 7.98.86 7.05-6.95 8.78-5.42 1.2-10.3 3.4-14.8 6.59-8.97 6.37-10.95 17.57-4.66 27.1 1.75 2.65 3.75 5.13 5.67 7.67 18.63 24.62 37.23 49.26 55.9 73.85 22.37 29.48 44.8 58.91 67.18 88.38 12.63 16.63 24.81 33.6 38.02 49.79 1 1.23 1.92 2.54 2.86 3.82 1.95 2.66 3.22 5.89 6.24 7.68.02-3.16.21-6.32.05-9.47-.88-16.56-.69-33.13-.27-49.7.32-12.91.52-25.83-.12-38.75-.34-6.78.19-13.6.32-20.41.04-2.04.08-4.09.06-6.13-.13-12.01-.29-24.02-.41-36.04-.18-17.02-.29-34.04-.52-51.06-.07-4.97-.49-9.92-1.13-14.88-1.71-13.07-8.8-22.65-19.09-30.14-5.91-4.3-12.51-7.36-19.72-8.94-1.11-.24-2.22-.46-3.33-.7-1.74-.38-2.91-1.42-2.97-3.23-.12-3.4-.12-6.81-.05-10.21.03-1.47 1.1-2.41 2.69-2.53 1.36-.1 2.72-.09 4.08-.09 33.39-.11 66.77-.21 100.16-.31 7.55-.02 7.93-.62 7.62 7.91-.02.68.05 1.36.02 2.04-.13 3.78-.47 4.29-4.04 5.09-7.41 1.65-14.16 4.77-20.5 8.87-7.81 5.06-14.06 11.51-17.49 20.29-1.31 3.36-2.41 6.88-2.97 10.43-1.11 6.94-1.42 13.98-1.36 21.02.13 14.29.18 28.57.79 42.86.57 13.38.21 26.79.34 40.19.23 23.16.56 46.31.79 69.47.06 6.33-.13 12.67-.15 19-.01 2.72.13 5.44.22 8.15.02.68.27 1.36.2 2.03-1.15 12.02.42 24.02.24 36.03-.18 12.03-.11 24.06-.02 36.09.12 15.44.41 30.88.56 46.32.08 8.17-.28 16.35.08 24.51.39 8.82-.03 17.62.07 26.43.1 9.29.09 18.64 1.09 27.86.83 7.59 2.18 15.25 6.86 21.83 5.02 7.07 10.94 12.7 19.74 14.55 1.09.23 2.13.74 3.18 1.17 1.62.65 2.56 1.83 2.62 3.62.11 3.4.27 6.8.29 10.2.01 1.54-.85 2.59-2.37 2.9-1.54.32-3.2.77-4.67.47-4.52-.91-9.05-.51-13.58-.5-3.4 0-6.81-.09-10.21-.1-13.39-.06-26.78-.1-40.17-.17-4.31-.02-8.63-.05-12.94-.18-2.28-.07-3.29-.9-3.79-3.15-.34-1.52-.45-3.13-.44-4.69.02-1.81.26-3.62.45-5.43.3-2.93.78-3.73 3.51-4.17 5.87-.95 10.03-5.06 14.97-7.72 2.75-3.85 6.29-7.17 7.99-11.71 2.25-5.98 3.6-12.21 3.71-18.58.15-8.37.52-16.73-.37-25.12-.47-4.45.33-9.02.19-13.52-.2-6.57-.32-13.19-1.24-19.68-1.08-7.63-3.47-14.98-6.61-22.08-3.22-7.29-7.26-14.1-11.37-20.9-5.9-9.74-13.17-18.48-19.91-27.6-7.81-10.58-15.8-21.04-23.77-31.5-13.07-17.14-26.24-34.21-39.28-51.38-10.15-13.36-20.12-26.86-30.23-40.26-6.83-9.04-13.95-17.86-20.6-27.02-12.54-17.25-26.1-33.73-38.03-51.43-1.39-2.07-3.02-3.97-4.54-5.95-6.37-8.27-12.74-16.55-19.12-24.81-.97-1.26-2-2.46-3.04-3.67-.12-.14-.5-.25-.62-.17-.3.21-.73.52-.74.8-.09 2.27-.12 4.54-.12 6.81.01 13.63.37 27.27-.01 40.88-.61 21.56.18 43.11.02 64.67-.11 14.99-.02 29.98-.02 44.97h.1zm754.68-244.1c12.94 0 25.88-.08 38.82.02 22.24.18 44.47.47 66.71.71.68.01 1.36-.01 2.04.01 1.82.05 3.03-.94 3.77-2.44 1.19-2.44 2.21-4.97 3.36-7.44 2.75-5.91 1.71-6.23 9.57-6.17.23 0 .45 0 .68.01 6.48.17 6.63-1.17 9.21 7.19 3.27 10.62 6.64 21.21 9.95 31.82 3.38 10.81 6.78 21.62 10.09 32.45 4.31 14.09 8.54 28.2 12.8 42.29.33 1.08.76 2.14 1.02 3.24.72 2.97.16 4.08-2.74 5.25-2.52 1.01-5.05 2.03-7.65 2.8-3.14.93-4.65.35-6.42-2.28-1.39-2.07-2.63-4.24-3.9-6.39-9.13-15.49-19.28-30.23-31.68-43.33-9.26-9.78-19.41-18.51-31.35-24.85-9.63-5.11-19.62-9.6-30.61-10.85-5.84-.67-11.78-.6-17.67-.78-2.49-.08-5 .21-7.49.06-6.51-.4-12.64 1.15-18.57 3.53-6.05 2.43-10.92 6.29-14.16 12.16-3.01 5.46-4.9 11.15-5.24 17.4-.69 12.91-.63 25.83-.67 38.75-.02 7.23.6 14.44.09 21.71-.54 7.67-.15 15.41-.13 23.12.04 12.02.1 24.05.17 36.07.01 1.81.07 3.63.27 5.43.27 2.46.96 2.99 3.53 3.03 17.68.27 35.36.56 53.05.77 9.08.11 18.17-.08 27.18-1.14 4.7-.55 9.31-1.93 13.94-3.02 1.32-.31 2.62-.78 3.83-1.38 3.18-1.57 4.34.09 5.04 2.44 2.39 8.04 4.64 16.12 6.99 24.17 3.29 11.31 6.61 22.61 9.95 33.9 2.64 8.91 5.3 17.81 8.02 26.69 1.79 5.86 3.68 11.68 5.54 17.51.27.86.69 1.69.9 2.56.87 3.73.03 5.46-3.43 7.05-1.85.85-3.73 1.65-5.63 2.4-3.91 1.55-5.57.77-7.54-3.13-3.47-6.88-6.78-13.87-10.63-20.53-8.79-15.18-18.79-29.55-32.11-41.16-12.49-10.88-26.72-18.77-43-22.45-4.4-1-8.95-1.42-13.45-1.87-5.41-.54-10.85-.81-16.27-1.19-.68-.05-1.36-.08-2.04-.08-3.74.01-4.48.63-4.53 4.22-.06 5 0 9.99.02 14.99.02 4.31-.01 8.62.12 12.93.2 6.57.53 13.14.76 19.71.05 1.58-.07 3.17-.15 4.75-.17 3.17-.52 6.33-.52 9.49 0 9.97.22 19.94.2 29.91-.03 11.8-.43 23.6-.27 35.4.17 13.59-.29 27.18.56 40.77.53 8.37.49 16.8.18 25.19-.23 6.13.46 12.2.29 18.32-.21 7.48.21 14.98.17 22.47-.04 7.36 1.34 14.42 3.89 21.29 3.01 8.11 8.68 13.66 16.46 17.21 5.88 2.68 12.14 3.64 18.51 4 5.44.31 10.89.48 16.33.69 1.35.05 2.71.04 4.07-.01 3.18-.11 6.36-.47 9.52-.36 10.76.38 21.28-1.48 31.72-3.55 16.17-3.2 31.07-9.9 45.3-18.09 6.71-3.86 12.74-8.68 18.77-13.5 12.3-9.81 23.32-20.9 33.17-33.14 4.12-5.12 7.83-10.57 11.71-15.88.8-1.1 1.51-2.27 2.33-3.35.89-1.17 2.09-1.62 3.58-1.48 4.87.46 9.08 2.7 13.24 5 .96.53 1.36 1.75 1 3.01-1.41 5.02-2.72 10.08-4.21 15.07-3.9 13.04-7.9 26.04-11.82 39.07-2.22 7.38-4.36 14.79-6.56 22.17-2.65 8.91-5.33 17.81-7.98 26.72-.64 2.17-1.15 4.38-1.8 6.55-.59 1.95-1.27 3.88-1.97 5.79-.78 2.12-2.21 3.32-4.61 3.31-2.04-.01-4.1.02-6.12.29-3.75.5-6.06-1.22-7.5-4.47-1.38-3.11-2.71-6.24-4.09-9.35-.63-1.4-1.71-1.83-3.28-1.76-7.26.29-14.52.33-21.77.69-11.79.58-23.57.31-35.36.19-19.53-.21-39.06-.17-58.59-.29-21.57-.13-43.14-.38-64.71-.46-15.43-.06-30.85.07-46.28.13-12.48.04-24.96.1-37.44.15-.68 0-1.36.01-2.04-.02-3.04-.14-4.1-1.05-4.23-4.09-.14-3.17-.08-6.36 0-9.53.04-1.73.77-2.42 2.39-2.75 3.99-.81 8.05-1.39 11.96-2.5 9.4-2.67 17.39-7.59 23.56-15.32 3.02-3.79 5.26-8 6.66-12.56 1.72-5.65 2.85-11.48 2.83-17.42-.03-14.31.07-28.62-.35-42.91-1.31-44.26-.93-88.52-.97-132.78-.03-27.25-.19-54.5-.28-81.74-.06-16.56-.12-33.11-.15-49.67-.02-12.68.09-25.36-.02-38.05-.1-11.78-.29-23.57-.68-35.34-.15-4.51-.64-9.08-1.6-13.49-1.62-7.47-5.38-13.9-10.75-19.36-5.36-5.46-11.93-8.98-18.99-11.66-2.54-.97-5.11-1.91-7.73-2.62-7.35-2-5.75-1.43-6.01-8.28a89.5 89.5 0 0 1-.04-6.13c.06-1.88 1.22-2.96 3.05-2.88 2.49.11 4.97.43 7.46.45 14.31.13 28.61.25 42.92.29 18.85.05 37.7.01 56.54.01-.01.16-.01.33-.01.5zm-914.31 506.64c-20.21 0-40.42.02-60.63-.01-3.63-.01-7.26-.12-10.88-.38-.71-.05-1.83-.91-1.95-1.55-.78-4.01-1.34-8.06-.53-12.15.28-1.43.96-2.53 2.54-2.81 1.79-.32 3.58-.64 5.36-.99 7.69-1.53 14.66-4.65 20.83-9.51 6.13-4.83 9.74-11.28 11.58-18.69 1.43-5.77 1.43-11.63.29-17.55-4.57-23.85-10.43-47.4-16.1-71-3.45-14.33-6.79-28.69-10.5-42.96-2.89-11.14-1.48-8.98-11.49-9.03-9.31-.04-18.62-.1-27.93.13-15.65.39-31.3-.43-46.94.1-9.74.33-19.46-.18-29.19.07-1.99.05-2.39.32-2.87 2.13-3.54 13.36-7.06 26.73-10.59 40.09-2.72 10.3-5.47 20.59-8.17 30.9-1.84 7.01-3.64 14.04-5.4 21.07-1.65 6.59-3.22 13.21-4.82 19.81-.59 2.42-1.26 4.83-1.73 7.27-4.6 23.99 12.29 42.99 29.4 47.45 5.57 1.45 5.89 2.03 5.96 8.06.03 2.26-.21 4.53-.4 6.79-.13 1.48-1.14 2.45-2.73 2.47-5.9.06-11.81.06-17.71.05-17.71-.03-35.41-.09-53.12-.11-11.34-.01-22.67.04-34.01.05-1.36 0-2.73.07-4.08-.06-2.64-.25-4.04-1.72-4.15-4.46-.11-2.72-.07-5.44-.02-8.16.04-2.31 1.23-3.84 3.47-4.48 1.96-.56 3.93-1.12 5.91-1.57 7.95-1.83 14.84-5.81 20.69-11.28 4.77-4.47 9.48-9.02 13.38-14.43 6.59-9.13 11.5-19.04 14.94-29.64 3.5-10.77 6.52-21.7 9.47-32.64 6.16-22.76 12.16-45.56 18.18-68.36 6.71-25.43 13.29-50.9 20.08-76.31 3.75-14.01 7.89-27.92 11.73-41.91 2.94-10.72 5.64-21.5 8.51-32.23 6.68-24.96 13.51-49.89 20.05-74.89 3.96-15.13 8.25-30.2 10.89-45.64 1.66-9.7.52-18.97-5.53-27.23-2.76-3.76-6.34-6.52-10.21-8.84-8.24-4.94-17.08-8.38-26.66-9.76-2.69-.39-5.37-.87-8.04-1.4-1.48-.29-2.35-1.47-2.1-3 .5-3.12 1.05-6.26 1.84-9.32.42-1.62 1.72-2.69 3.53-2.72 2.95-.05 5.9-.04 8.85-.03 26.79.08 53.59.17 80.38.26 1.59.01 3.18-.05 4.77.03 3.11.15 3.8.64 4.66 3.89 1.15 4.38 2.13 8.81 3.16 13.23 5.19 22.07 10.33 44.15 15.56 66.21 4.34 18.3 8.78 36.58 13.17 54.87 4.02 16.75 8.12 33.49 12.04 50.26 3 12.81 5.71 25.69 8.69 38.5 2.16 9.27 4.56 18.48 6.83 27.72 4.15 16.95 8.26 33.92 12.41 50.87 3.29 13.44 6.65 26.86 9.93 40.3 2.09 8.58 4.08 17.19 6.15 25.78 3.29 13.64 6.61 27.28 9.91 40.92 1.76 7.27 3.42 14.56 5.27 21.8 2.41 9.44 4.76 18.93 8.56 27.91 3.41 8.04 8.51 14.85 15.78 20.06 5.48 3.93 11.6 6.11 17.87 8.1 1.94.61 3.92 1.38 5.91 1.49 4.41.25 5.13 2.68 4.73 6.52-.28 2.7-.55 5.41-.86 8.11-.17 1.51-1.16 2.59-2.54 2.77-.89.12-1.81.19-2.71.16-7.48-.2-14.95-.46-22.42-.63-6.13-.14-12.25-.25-18.38-.28-9.31-.05-18.62-.01-27.92-.01.05-.07.05-.12.05-.18zM545.32 823.11c-.71 1.15-1.32 1.81-1.56 2.58-.72 2.39-1.3 4.81-1.94 7.23-3.65 13.81-7.21 27.65-10.99 41.42-2.21 8.09-4.85 16.07-7.12 24.14-1.23 4.36-1.98 8.85-3.16 13.22-1.89 7-4.13 13.91-5.9 20.94-3.92 15.6-7.7 31.23-12.07 46.71-2.77 9.81-5.51 19.63-8.07 29.49-1.25 4.82-2.09 9.75-3.05 14.64-.33 1.7.41 2.66 2.03 2.8 1.35.12 2.72.16 4.08.16 6.13-.01 12.26-.13 18.39-.03 6.12.1 12.24.5 18.37.59 6.11.09 12.22-.13 18.33-.07 12.7.12 25.39-.34 38.08-.83.23-.01.45-.02.68-.04 1.58-.12 2.39-1.13 2.03-2.79-1.51-7.09-2.98-14.19-4.66-21.24-4.3-18.08-8.75-36.13-13.07-54.21-3.06-12.79-5.97-25.61-9-38.4-3.18-13.46-6.74-26.83-9.55-40.37-2.45-11.79-5.79-23.34-8.52-35.05-.83-3.5-2.1-6.91-3.33-10.89zm570.22 157.18c0-5.22-.06-10.45.01-15.67.14-10.22 1.5-20.34 2.36-30.51 1.08-12.7 3.3-25.2 6.02-37.59 2.77-12.6 6.1-25.1 10.39-37.31 7.63-21.73 18.17-42.01 30.81-61.22 11.44-17.39 25.37-32.51 41.39-45.8 10.23-8.49 21.56-15.07 33.58-20.49 4.94-2.23 10.19-3.83 15.39-5.41 4.99-1.52 10.1-2.62 15.14-3.96 3.52-.94 7.08-1.46 10.74-1.56 3.39-.1 6.78-.48 10.17-.75.9-.07 1.81-.25 2.71-.2 11.1.61 22.16 1.33 32.93 4.52 12.71 3.76 24.59 9.32 36.13 15.7 2.98 1.65 5.89 3.41 8.87 5.05 1.48.82 2.75.41 3.35-1.05.95-2.31 1.81-4.65 2.69-6.98.72-1.91 1.38-3.84 2.12-5.74.95-2.42 2.82-3.48 5.36-3.33 1.81.11 3.61.55 5.42.54 6.96-.06 6.13.65 7.77 6.17 3.43 11.51 6.52 23.13 9.68 34.72 4.58 16.84 9.05 33.71 13.65 50.54 2.63 9.63 5.43 19.21 8.12 28.82 1.83 6.54 3.63 13.09 5.42 19.65.81 2.98.16 5.06-2.34 6.37-3.42 1.79-6.93 3.39-10.46 4.95-1.86.82-3.53.26-4.74-1.51-1.15-1.68-2.15-3.47-3.18-5.24-7.82-13.3-15.42-26.74-23.51-39.88-11.68-18.97-24.53-37.1-39.54-53.66-8.01-8.84-17.12-16.3-27.35-22.28-10.49-6.14-21.8-10.06-34.12-10.59-5.88-.25-11.72-.81-17.64-.17-8.39.91-16.51 2.57-24.33 5.88-12.09 5.11-22.72 12.28-32.14 21.36-10.14 9.77-17.47 21.41-22.91 34.3-5.65 13.39-10.01 27.14-12.82 41.47-2.44 12.48-4.16 25.05-5.95 37.62-.32 2.24-.4 4.52-.48 6.79-.48 12.67-1.5 25.33-1.14 38.02.46 16.09 1.6 32.12 3.34 48.13 1.2 11.06 2.72 22.04 4.45 33.02 2.57 16.36 5.83 32.57 10.48 48.48 2.86 9.78 5.54 19.64 8.92 29.25 4.06 11.55 8.61 22.91 13.88 34 4.19 8.82 8.44 17.59 13.26 26.09 5.49 9.69 11.7 18.88 18.87 27.44 3.51 4.19 7.13 8.24 11.09 11.96 11.24 10.55 24.08 18.48 38.83 23.14 18.82 5.95 37.45 5.38 55.99-1.44 7.5-2.76 14.55-6.29 21.32-10.47 11.26-6.95 19.87-16.49 26.68-27.66 7.86-12.9 12.65-27.09 16.37-41.65 2.75-10.77 4.83-21.68 6.54-32.66.91-5.82 1.26-11.72 1.95-17.58.32-2.7.82-5.37 1.31-8.05.06-.31.57-.73.89-.74.38-.02.96.22 1.16.54 2.81 4.4 5.66 8.77 8.32 13.26 5.56 9.37 11.02 18.8 16.51 28.21.57.98 1.05 2.02 1.67 2.97 2.47 3.74 2.47 7.47.75 11.61-5.15 12.4-11.33 24.24-18.49 35.6-5.22 8.27-11.25 15.96-17.52 23.39-4.95 5.87-10.66 11.18-16.47 16.23-10.98 9.54-22.65 18.19-35.64 24.88-16.74 8.63-34.34 14.18-53.32 14.7-1.36.04-2.72.1-4.08.2-18.63 1.45-36.58-1.96-54.18-7.71-9.49-3.1-18.77-6.71-27.69-11.27-12.83-6.56-24.22-15.15-35.09-24.5-14.43-12.41-26.01-27.24-36.07-43.26-6.41-10.2-11.21-21.26-15.66-32.45a302.132 302.132 0 0 1-14.07-45.42c-4.35-19.27-7.77-38.69-10.02-58.3-1.59-13.8-2.21-27.64-1.85-41.51zm46.3-639.36c-15.89 0-31.77.1-47.66-.04-8.16-.07-16.31-.54-24.46-.87-3.31-.14-4.04-.9-4.11-4.02-.01-.68.01-1.36.06-2.04.1-1.24.7-2.16 1.92-2.49 1.75-.48 3.53-.82 5.28-1.29 3.97-1.05 7.67-2.66 11.09-5 7.28-4.98 11.15-11.86 11.5-20.57.35-8.62.29-17.25.42-25.87.26-17.23-.03-34.47-.07-51.7-.01-7.01.41-14.01.51-21.02.12-8.16.1-16.32.15-24.48.15-27.68.31-55.36.43-83.04.05-11.81.04-23.61.04-35.42 0-3.4-.25-6.76-1.04-10.11-1.85-7.8-6.46-13.33-13.27-17.26-3.97-2.29-8.28-3.65-12.63-4.95-2.35-.7-3.07-2.12-2.71-4.7.22-1.57 1.02-2.46 2.65-2.6 4.29-.37 8.59-.72 12.89-.96 23.12-1.31 46.25-2.29 69.4-1.41 11.57.44 23.02 2.08 33.92 6.34 10.44 4.09 20.05 9.52 28.26 17.29 13.78 13.05 22.45 28.78 25.81 47.56 2.51 14.04 1.1 27.56-4.16 40.69-5.41 13.5-15.54 22.01-29.16 26.58a63.92 63.92 0 0 1-20.72 3.35c-1.34 0-2.7.19-4.01.51-.31.07-.74 1.23-.55 1.5.64.91 1.45 1.72 2.32 2.42 3.55 2.82 7.16 5.57 10.72 8.37 7.3 5.76 14.79 11.31 21.83 17.37 11.06 9.52 20.85 20.26 28.27 32.91 5.67 9.66 9.23 20.17 11.57 31.11 1.92 8.96 2.44 18.03 1.41 27.09-1.1 9.74-3.41 19.2-8.85 27.6-7.11 10.98-16.52 19.18-28.78 23.97-6.16 2.4-12.57 3.55-19.14 4.38-15.39 1.94-30.81 1.13-46.23 1.26-4.31.04-8.62.01-12.93.01.03-.17.03-.32.03-.47zm-12.34-116.94h.04c0 2.73.01 5.45 0 8.18-.07 18.4-.16 36.79-.2 55.19-.01 5.9-.06 11.82.27 17.71.75 13.34 7.54 21.14 20.62 24.34 5.6 1.37 11.27 1.07 16.93 1.23 7.61.2 14.91-1.42 21.87-4.38 7.89-3.35 14.52-8.31 19.21-15.67 4.99-7.83 7.4-16.48 8.69-25.56 1.64-11.56 1.52-23.11-.18-34.62-1.5-10.12-3.84-20.02-8.28-29.36-4.22-8.9-9.82-16.87-16.08-24.37-5.95-7.14-12.15-14.07-19.15-20.24-10.38-9.16-20.56-18.55-30.9-27.76-3.39-3.02-6.99-5.78-10.53-8.63-.87-.7-1.93-.23-1.95.83-.14 7.27-.34 14.53-.36 21.8-.03 20.42 0 40.87 0 61.31zm.33-134.27h-.34c0 10.45.01 20.89-.01 31.34 0 1.86.11 3.55 1.68 4.93 6.3 5.55 12.61 11.13 19.7 15.65 12.48 7.96 29.65 6.05 40.32-5.63 6.65-7.29 10.44-15.84 12.24-25.39 1.74-9.23 1.6-18.56.78-27.84-.98-11.21-3.9-21.86-10.6-31.18-10.09-14.05-23.83-20.6-41-19.56-9.61.58-19.76 5.36-21.9 20.28-.51 3.58-.79 7.22-.84 10.83-.11 8.86-.03 17.71-.03 26.57zM481.09 341.61c-10.22-.18-20.43-.36-30.65-.53-1.14-.02-2.27.02-3.41-.01-5.1-.13-5.29-2.08-4.62-6.8.08-.53.77-1.18 1.33-1.38 1.48-.55 3.04-.91 4.57-1.32 4.43-1.18 8.44-3.12 12.1-5.98 4.6-3.59 6.99-8.27 7.69-13.89.5-4.07.26-8.11-.66-12.16-4.02-17.69-7.86-35.42-11.89-53.11-1.51-6.63-3.3-13.19-5.03-19.77-.61-2.32-1.06-2.66-3.19-2.72-3.4-.1-6.81-.14-10.22-.14-15.21-.01-30.43.03-45.64 0-4.08-.01-8.16-.33-12.23-.3-2.68.02-3.07.47-3.75 2.99-4.88 17.93-9.75 35.87-14.64 53.81-1.73 6.34-3.75 12.61-5.23 19.01-2.79 12.13 1.49 22.27 10.9 28.53 2.6 1.73 5.73 2.67 8.67 3.86 1.21.49 1.81 1.3 1.92 2.51.08.9.04 1.82-.02 2.72-.14 2.12-.86 2.92-2.83 3.08-1.36.11-2.72.17-4.08.16-19.3-.21-38.6-.43-57.9-.68a24.67 24.67 0 0 1-4.7-.5c-1.51-.32-2.48-1.84-2.58-3.62-.1-1.68.26-3.22 1.91-4.03 1.01-.5 2.11-.79 3.18-1.17 12.63-4.52 21.55-13.15 27.43-25.03 3.02-6.09 5.39-12.35 6.97-19.08 2.65-11.23 6.46-22.19 9.74-33.27 1.16-3.91 2.32-7.83 3.25-11.81 2.51-10.81 5.44-21.5 8.5-32.17 2.56-8.93 4.79-17.94 7.29-26.89 2.44-8.73 5.06-17.41 7.57-26.12 2.14-7.41 4.57-14.75 6.28-22.26 2.41-10.62 5.35-21.1 8.11-31.63 2.53-9.65 5.39-19.21 8.03-28.83 1.44-5.26 2.38-10.63 2.62-16.09.21-4.88-.67-9.51-3.64-13.55-1.63-2.21-3.53-4.07-5.99-5.45-5.39-3.02-10.94-5.48-17.14-6.27-1.12-.14-2.2-.52-3.31-.79-1.09-.26-2.54-.31-2.8-1.55-.38-1.79-.1-3.67 1.11-5.16.38-.47 1.13-.75 1.76-.87.88-.17 1.81-.15 2.71-.14 17.94.11 35.88.23 53.82.35.68 0 1.37-.01 2.04.08 1.22.16 2.11.86 2.45 2.04 1.2 4.14 2.47 8.27 3.48 12.45 3.72 15.42 7.4 30.85 11 46.3 2.58 11.04 4.96 22.13 7.52 33.17 3.17 13.69 6.46 27.36 9.66 41.05 3.87 16.55 7.66 33.12 11.54 49.66 3.52 15.01 7.16 29.99 10.67 45 3.05 13.02 5.83 26.11 9.03 39.09 1.73 7.03 3.33 14.09 6.05 20.88 4.14 10.34 11.73 16.42 22.14 19.44.87.25 1.79.31 2.67.56 2.33.66 2.91 1.43 3.01 3.86.14 3.4-.53 4.3-3.59 4.37-12.02.27-24.04.55-36.06.69-4.29.05-8.59-.3-12.89-.47-.03-.02-.03-.07-.03-.12zM415.78 79.03c-.86 1.93-1.56 3.05-1.87 4.27-1.81 7.02-3.44 14.08-5.29 21.08-2.78 10.5-5.72 20.96-8.55 31.45-5.32 19.68-10.61 39.37-15.9 59.06-1.17 4.37-2.35 8.74-3.42 13.14-.38 1.54.53 2.55 2.22 2.6 3.63.1 7.26.11 10.88.12 3.85.01 7.71-.12 11.56-.01 6.79.21 13.58.63 20.37.82 4.31.12 8.62.01 12.93-.06 1.36-.02 2.72-.17 4.06-.37 3.41-.51 4.02-1.28 3.28-4.42-2.91-12.34-5.87-24.67-8.84-37-1.43-5.95-3.02-11.85-4.39-17.82-4.2-18.31-8.3-36.63-12.51-54.94-1.32-5.69-2.87-11.36-4.53-17.92zM743.4 168.8v84.48c0 17.94-.05 35.88 0 53.82.01 3.38.05 6.76.92 10.13 1.78 6.94 6.04 11.54 12.51 14.25 1.25.53 2.59.84 3.88 1.27 1.23.4 1.78 1.33 1.85 2.55.05.9.03 1.82-.03 2.72-.11 1.64-.9 2.59-2.37 2.84-.89.15-1.8.29-2.7.28-11.58-.13-23.16-.28-34.73-.45-.9-.01-1.81-.17-2.7-.33-1.19-.21-2.01-.82-2.41-2.06-.67-2.06.36-4.7-2.05-6.17-2.02.99-4.06 1.95-6.05 2.99-5.24 2.73-10.57 5.14-16.44 6.35-13.39 2.75-25.64.1-37.04-7.24-6.6-4.25-11.9-9.8-16.41-16.14-9.22-12.95-15.31-27.13-17.72-42.99-1.45-9.53-1.57-19-.93-28.5.4-5.86 1.59-11.68 2.68-17.47 1.22-6.45 2.48-12.88 4.67-19.13 1.88-5.37 4.06-10.6 6.84-15.53 5.38-9.54 11.75-18.31 20.53-25.13 14.29-11.09 31.79-12.75 47.09-3.64 2.34 1.39 4.69 2.78 7.1 4.04 2.49 1.3 3.95 4.31 7.21 4.31.12-2.93.35-5.86.35-8.79-.04-24.75-.13-49.51-.17-74.26-.02-8.86.15-17.71.02-26.57-.04-2.92-.36-5.93-1.19-8.72-1.99-6.71-6.22-11.5-13.1-13.62-1.08-.33-2.17-.64-3.28-.9-1.88-.44-2.51-1.74-2.56-3.5-.01-.23-.01-.46-.04-.68-.26-2.05.45-3.54 2.44-4.33 2.11-.84 4.21-1.7 6.32-2.53 8.03-3.14 16.08-6.2 24.08-9.42 3.53-1.42 7.1-1.3 10.72-.86 1.65.2 2.7 1.53 2.9 3.3.05.45.08.91.07 1.36-.23 8.39 1.07 16.73.4 25.15-.41 5.18.29 10.43.26 15.65-.05 9.08-.35 18.15-.42 27.22-.03 4.31.25 8.62.37 12.93.04 1.59.07 3.18.04 4.77-.25 15.42-.54 30.84-.78 46.27-.06 4.09-.01 8.17-.01 12.26-.04.02-.08.02-.12.02zm-26.74 83.25h-.13c0-7.25.02-14.51 0-21.76-.03-13.15-.17-26.31-.07-39.46.02-3.03-.95-5.33-3.2-7.11-4.09-3.22-8.15-6.49-12.46-9.39-2.4-1.62-5.19-2.82-7.97-3.7-12.43-3.91-21.52.41-27.64 7.58-4.36 5.11-7.11 11-9 17.36-4.27 14.29-5.07 28.98-4.4 43.74.68 14.94 2.44 29.76 5.54 44.44 1.78 8.47 4.21 16.67 7.49 24.65 1.82 4.43 4.22 8.59 7.34 12.19 6.57 7.58 14.53 11.43 24.78 8.43 6.39-1.87 12.12-4.98 17.43-8.93 1.36-1.01 1.99-2.44 2.03-4.12.1-4.76.26-9.52.27-14.28.01-16.55-.01-33.1-.01-49.64zM60.87 23.17c14.05.15 26.98.29 39.91.44 1.36.02 2.72.1 4.08.23 2.65.26 3.08.73 3.72 3.84.58 2.78.35 3.26-2.02 4.03-2.8.91-5.64 1.73-8.42 2.69-7.48 2.6-12.67 7.57-15.81 14.89-1.83 4.26-2.7 8.58-2.69 13.19.03 21.54-.01 43.09-.01 64.63 0 24.51-.01 49.02 0 73.53.01 22.92.07 45.83.04 68.75-.02 11.1-.29 22.2-.28 33.31 0 3.15.12 6.31 1.1 9.42 3.09 9.8 10.15 15.21 19.52 18.22 2.15.69 4.35 1.25 6.46 2.07 1.8.7 2.36 2.28 1.9 4.53-.37 1.86-1.27 2.82-3.23 2.85-6.58.08-13.16.06-19.73.05-14.06-.02-28.13-.06-42.19-.08-5.45-.01-10.89-.02-16.34-.02-3.04 0-5.84-.61-8.1-2.88-1.63-1.63-1.2-4.26.95-4.9 1.95-.58 3.99-.89 5.93-1.51 10.16-3.26 16.04-10.4 18.77-20.53.96-3.56 1.28-7.09 1.3-10.75.07-17.25-.05-34.5.44-51.73.49-17.25-.8-34.46-.56-51.7.21-15.2.23-30.41.23-45.62 0-12.71-.2-25.42-.19-38.13.01-13.39.2-26.77.25-40.16.01-4.54-.03-9.08-.31-13.61-.7-11.13-5.97-19.29-16.24-23.93-2.46-1.11-5.13-1.75-7.71-2.58-1.08-.35-2.19-.6-3.26-.96-2.13-.73-2.5-1.25-2.45-3.45.02-.9.04-1.82.23-2.7.27-1.18 1.03-2.08 2.3-2.15 2.04-.12 4.08-.17 6.12-.12 12.47.26 24.94.57 36.29.84zM165.12 250.6c-.19 9.06-.42 18.12-.56 27.19-.16 9.76-.34 19.52-.3 29.29.01 3.14.37 6.36 1.1 9.41 1.58 6.59 5.67 11.26 11.88 14 1.24.55 2.54.95 3.83 1.38 1.45.49 2.26 1.46 2.25 3.01 0 .91-.03 1.82-.14 2.72-.19 1.53-1.06 2.33-2.72 2.49-1.13.11-2.27.15-3.4.14-17.71-.19-35.42-.4-53.12-.6-.45-.01-.91.01-1.36-.01-4.08-.18-5.23-1.57-4.67-5.6.17-1.22.76-2.12 1.9-2.58 1.05-.42 2.1-.87 3.19-1.14 7.63-1.92 11.93-7.01 13.61-14.46.49-2.2.66-4.51.66-6.76.02-9.99-.18-19.98-.11-29.96.09-11.78.39-23.56.58-35.34.15-9.08.25-18.16.39-27.25.07-4.54.2-9.07.22-13.61.02-3.85-.17-7.66-.9-11.5-1.26-6.61-5.45-10.2-11.36-12.35-1.27-.46-2.61-.76-3.93-1.11-3.87-1.03-3.93-1.16-3.87-4.96.02-1.29.43-2.14 1.59-2.69 2.46-1.16 4.84-2.51 7.36-3.52 8.21-3.27 16.46-6.45 24.72-9.59 1.46-.56 3.05-1.1 4.58-1.1 7.31-.01 7.99-1.12 7.91 6.91-.03 2.95.04 5.91.28 8.85.08 1.02.81 1.98 1.25 2.97.77-.34 1.61-.58 2.29-1.04 3.19-2.15 6.25-4.53 9.53-6.53 7.41-4.51 15.24-8.19 23.85-9.56 16.46-2.62 30.08 4.4 37.75 19.3 2.38 4.62 3.63 9.77 3.68 15.09.07 7.72.22 15.44.22 23.16-.01 18.16-.04 36.32-.16 54.49-.04 6.12-.44 12.25-.59 18.37-.18 7.49-.3 14.98-.38 22.47-.01 1.35.31 2.7.44 4.05.88 8.85 6.18 14.32 13.78 18.02.61.3 1.31.4 1.93.67 2.7 1.16 3.7 3.98 2.26 6.64-.28.52-1.02 1.03-1.59 1.1-1.79.21-3.62.3-5.43.28-9.76-.11-19.53-.06-29.28-.48-9.96-.42-9.39-.65-9.31-9.84.12-13.38.61-26.76.78-40.14.17-13.62.08-27.24.22-40.86.08-7.47.52-14.94.56-22.41.05-8.39-.15-16.78-.27-25.16-.07-4.99 0-9.99-.34-14.96-.48-6.94-3.9-12.06-10.56-14.48-2.28-.83-4.87-1.07-7.33-1.11-5.81-.09-11.22 1.65-16.2 4.53-4.91 2.84-9.63 6-14.45 9-1.47.91-2.3 2.14-2.24 3.91.01.23.01.45 0 .68-.18 8.85-.47 17.7-.5 26.55-.03 11.34.16 22.68.26 34.03h.22zm969.39 417.67c-13.25-.48-26.51-.95-39.76-1.46-1.01-.04-2.3-.08-2.93-.68-.84-.8-1.47-2.12-1.57-3.28-.07-.77.74-2.1 1.47-2.39 2.16-.87 4.46-1.37 6.72-1.96 11.1-2.93 17.59-12.61 16.1-23.44-.78-5.65-2.03-11.25-3.3-16.82-4-17.48-8.1-34.93-12.17-52.4-.18-.76-.33-1.53-.61-2.25-.72-1.86-2.1-2.98-4.09-3.15-2.07-.17-4.16-.24-6.24-.25-16.91-.13-33.82-.3-50.73-.33-7.3-.01-6.75-.33-8.77 7-4.7 17.02-9.48 34.03-14.09 51.07-1.49 5.5-2.8 11.03-3.3 16.79-.74 8.57 5.98 19.94 15.09 23.53 1.21.48 2.45.86 3.63 1.4 1.8.82 2.46 2.3 1.75 4.52-.27.84-1.13 1.71-1.94 2.08-.89.4-2.03.32-3.06.32-17.95-.09-35.9-.19-53.86-.3-.78 0-1.56-.06-2.34-.04-4.02.12-4.62-1.79-4.03-5.61.23-1.5 1.42-2.05 2.71-2.43 4.53-1.33 8.75-3.2 12.53-6.13 5.85-4.54 10.68-9.92 14.02-16.52 3.29-6.51 5.95-13.28 7.64-20.4 3.95-16.68 8.41-33.23 13.17-49.7 4.26-14.72 8.15-29.55 12.16-44.35 4.21-15.55 8.39-31.11 12.54-46.67 4.29-16.07 8.61-32.13 12.75-48.23 1.36-5.27 2.33-10.66 3.24-16.03 1.74-10.25-3.81-17.23-10.28-20.83-5.07-2.83-10.48-4.52-16.18-5.4-1-.15-1.99-.47-2.91-.89-.35-.16-.63-.81-.66-1.25-.17-2.86 1.24-4.59 3.9-4.77 1.55-.1 3.12-.04 4.68-.03 14.57.13 29.13.26 43.7.4 1.3.01 2.61-.03 3.9.06 1.42.1 2.48.88 2.85 2.26.95 3.51 1.85 7.04 2.69 10.57 4.74 19.96 9.52 39.91 14.18 59.88 3.54 15.18 6.82 30.42 10.41 45.59 3.54 14.92 7.46 29.74 10.97 44.66 6.67 28.31 13.12 56.68 19.77 84.99 1.25 5.3 2.86 10.53 4.55 15.71 3.14 9.62 9.84 15.68 19.38 18.73 1.23.39 2.52.62 3.72 1.09 1.91.74 2.77 3.3 1.72 5.27-.32.61-1.05 1.29-1.68 1.39-1.79.27-3.62.33-5.43.34-10.67.03-21.34.01-32.01.01.01.1 0 .22 0 .33zm-67.37-242.73c-.58 1.64-.87 2.34-1.07 3.08-2.24 8.26-4.47 16.53-6.7 24.8-7.83 29.07-15.54 58.18-23.56 87.2-2.17 7.83.31 8.05 5.63 8.08 15.59.09 31.19.2 46.78.29 1.29.01 2.6-.09 3.88-.22 1.46-.15 2.43-1.29 2.19-2.65-.66-3.84-1.25-7.7-2.12-11.49-4.22-18.47-8.56-36.91-12.79-55.38-3.07-13.41-6.01-26.85-9.03-40.27-.94-4.22-2-8.4-3.21-13.44zM193.39 588.02c-.52 5.69-.93 11.39-1.57 17.06-1.2 10.51-5.1 20.03-10.55 29.07-6.25 10.37-15.1 17.69-25.55 23.4-8.81 4.81-18.36 7.14-28.14 8.79-18.04 3.03-35.8 1.36-53.26-3.58-6.22-1.76-12.14-4.59-18.2-6.93-2-.77-2.68-.58-3.88 1.23-.86 1.3-1.72 2.61-2.46 3.98-.84 1.55-2.14 2.12-3.81 2.21-4.31.23-5.51-.48-6.74-4.71-5.37-18.45-10.7-36.92-16.01-55.39-.64-2.23-.3-3.21 1.15-4 2.59-1.4 4.31-1.38 5.65.16.85.98 1.57 2.07 2.34 3.12 8.61 11.82 18.34 22.57 29.6 31.99 10.51 8.81 22.11 15.76 35.03 19.97 17.7 5.77 34.93 4.49 50.52-6.69 11.54-8.27 18.31-19.61 20.77-33.6 1.78-10.09 2.02-20.14-.01-30.24-2.35-11.71-7.45-22.07-14.77-31.45-8.99-11.53-20.93-19.39-33.26-26.69-12.53-7.41-25.37-14.32-37.84-21.83-8.01-4.82-15.9-9.95-23.31-15.63-15.41-11.8-25.6-27.05-29.13-46.48-1.34-7.35-.88-14.6.88-21.66 2.87-11.48 7.63-22.14 16.27-30.62 7.63-7.49 16.62-12.23 27.25-14.07 10.38-1.8 20.67-1.89 31.02.05 5.92 1.11 11.57 2.91 16.96 5.6 2.09 1.05 4.22 2.03 6.37 2.96 2.09.9 2.52.75 3.86-1.18.74-1.06 1.32-2.26 2.12-3.27 1.99-2.49 6.47-2.3 8.07.39.79 1.33 1.3 2.84 1.86 4.29 5.21 13.59 10.41 27.19 15.61 40.79 1.11 2.91 2.25 5.82 3.31 8.75.42 1.16 1.35 2.33.41 3.64-.98 1.36-4.16 2.6-5.61 1.99-.89-.38-1.77-1.13-2.32-1.94-2.32-3.46-4.48-7.01-6.75-10.5-7.44-11.45-16.47-21.58-27.37-29.68-11.65-8.66-24.7-14.11-39.68-14.05-15.99.07-29.5 11.85-31.22 28.95-1.29 12.86 2.44 24.04 11.42 33.56 6.52 6.91 14.2 12.2 22.19 17.07 10.66 6.49 21.55 12.62 32.26 19.03 9.15 5.48 18.26 11.02 27.27 16.73 8.82 5.59 16.79 12.27 24.01 19.83 11.07 11.59 17.94 25.42 21.64 40.89 2.24 9.43 3.54 18.96 3.6 28.69zm1230.47-260.55c0 3.18-.02 6.35.01 9.53.02 2.12-1.09 3.38-2.97 4.06-9.92 3.62-19.21 2.29-27.8-3.74-3.37-2.37-6.27-5.25-8.18-8.98a993.05 993.05 0 0 1-3.69-7.28c-.69-1.35-1.57-1.68-2.65-.88-2.01 1.48-3.95 3.06-5.97 4.53-6.06 4.4-11.96 9.02-18.68 12.44-13.9 7.07-28.17 8.02-42.79 2.67-11.12-4.07-18.47-12.05-22.71-22.97-4.29-11.06-3.71-22.21-.31-33.37 2.76-9.05 7.59-16.91 13.54-24.18 11.58-14.16 25.6-24.93 42.75-31.6 6.35-2.47 12.75-4.71 19.32-6.5 1.75-.48 3.48-1.04 5.19-1.64 1.17-.41 1.84-1.34 1.81-2.58-.08-2.95-.07-5.92-.39-8.84-.72-6.76-1.6-13.51-2.46-20.26-.17-1.34-.54-2.65-.84-3.98-2.54-11.2-11.33-16.37-21.43-15.94-6.87.29-12.76 2.93-17.96 7.23-5.67 4.69-9.82 10.59-13.26 17.04-.75 1.4-1.51 2.8-2.3 4.17-1.08 1.88-2.29 2.35-3.81 1.18-6.65-5.12-13.25-10.31-19.83-15.52-1.33-1.05-1.29-2.35-.02-3.46 6.54-5.75 13.94-10.15 22.02-13.32 7.41-2.9 15.01-5.15 23.06-5.55 1.81-.09 3.59-.56 5.4-.7 11.23-.9 22.24.02 32.65 4.71 14.43 6.5 22.74 17.65 24.6 33.37.8 6.75 1.14 13.56 1.63 20.35.79 11.09 1.52 22.17 2.28 33.26.06.91.15 1.81.21 2.72.8 12.23 1.6 24.45 2.39 36.68.48 7.47.94 14.95 1.43 22.42.07 1.13.12 2.29.41 3.37.83 3.08 2.76 5.15 5.9 5.99 3.73.99 7.21.88 10.04-2.23.61-.67 1.24-1.34 1.94-1.9.27-.21.86-.3 1.14-.15.34.18.71.68.72 1.04.06 2.93.03 5.87.03 8.81h-.42zm-105.22-33.41c-.02 5.68.62 10.6 2.72 15.24 3.42 7.54 9.16 12.59 17.29 13.91 6.76 1.1 13.71.48 19.98-2.65 4.86-2.42 9.36-5.53 14.07-8.26 3.83-2.22 5.27-5.37 4.29-9.72-.34-1.54-.3-3.16-.43-4.74-.65-7.92-1.44-15.82-1.91-23.75-.74-12.46-1.26-24.94-1.91-37.4-.11-2.04-.38-4.07-.64-6.09-.24-1.87-1.06-2.47-2.66-2-1.09.32-2.16.7-3.24 1.05-6.78 2.19-12.61 6.11-18.38 10.15-19.02 13.34-28.28 31.89-29.18 54.26zm-319.4-47.8c-.25 10.66-.63 21.31-.71 31.97-.09 11.12.06 22.24.22 33.36.06 4.32.58 8.57 3.01 12.39 2.55 4.01 5.85 6.89 10.55 8 1.1.26 2.2.56 3.3.84 1.29.33 1.79 1.26 1.82 2.49.03.9.04 1.82-.05 2.71-.13 1.31-1.04 1.95-2.24 2.15-.67.11-1.36.08-2.04.08-17.02-.04-34.04-.08-51.06-.13-1.82-.01-3.63 0-5.45-.07-4.25-.16-4.93-1-4.65-5.46.1-1.55.76-2.52 2.34-2.83 3.16-.62 6.06-1.8 8.66-3.75 6.11-4.57 8.65-10.93 9.07-18.27.28-4.76.32-9.53.32-14.3.03-19.97-.03-39.95.01-59.92.03-18.16.14-36.31.2-54.47.01-1.59-.02-3.19-.24-4.75-.07-.51-.76-1.2-1.27-1.31-1.09-.23-2.25-.16-3.38-.16-5.9-.04-11.8-.04-17.71-.11-1.71-.02-2.42-1.06-1.89-2.68.78-2.37 1.58-4.73 2.44-7.07 1.17-3.2 1.96-3.78 5.57-3.79 4.08-.02 8.17.12 12.25.16.9.01 1.85.02 2.69-.25.54-.17 1.13-.79 1.31-1.33.28-.84.29-1.79.29-2.69.01-13.39-.01-26.78-.01-40.17 0-7.04-.25-14.09.09-21.11.61-12.47 1.96-24.89 5.75-36.86 4.21-13.3 11.5-24.61 22.61-33.24 5.21-4.05 11.29-5.91 17.77-5.77 7.02.15 12.43 4.01 16.83 9.16 1.74 2.03 2.95 4.55 4.23 6.94 3.85 7.2 5.18 14.89 4.6 23.02-.25 3.53-1.71 6.06-4.71 7.73-4.96 2.76-9.93 5.48-14.93 8.16-4.87 2.61-6.04 2.82-5.85 1.99.45-1.94 1.14-3.83 1.81-5.71 2.53-7.08 4.06-14.39 4.81-21.86.18-1.81.05-3.67.42-5.43.93-4.4-.68-8.06-3.16-11.43-3.07-4.16-8.24-4.44-11.76-.65-2.65 2.85-4.85 6.14-5.76 9.91-1.93 7.92-3.71 15.84-4.47 24.04-1.33 14.27-1.24 28.55-1.42 42.84-.09 7.02-.5 14.04-.57 21.06-.06 7.24.15 14.49.18 21.73.01 2.26-.25 4.53-.2 6.79.06 2.43 1 3.4 3.27 3.37 11.33-.16 22.64 1.5 33.97.37 1.1-.11 2.1 1.27 1.6 2.39-1.39 3.09-2.82 6.17-4.48 9.11-.47.83-1.76 1.51-2.76 1.64-2.01.27-4.07.14-6.11.14-7.26-.02-14.53-.09-21.79-.05-2.58.01-3.2.59-3.33 3.2-.24 4.98-.44 9.96-.43 14.94.04 12.21.24 24.42.34 36.63.04 5.43.01 10.87.01 16.3.04.01.06.01.09.01zm-193.29 5.72c-.29-12.38 1.31-24.26 4.69-35.87 3-10.28 7.17-20.14 13.24-28.96 5.93-8.62 12.94-16.33 22.07-21.85 11.1-6.7 22.93-9.2 35.85-7.29 12.81 1.89 22.88 8.53 31.42 17.6 9.95 10.57 16.33 23.35 20.77 37.1 4.44 13.76 5.86 27.95 5.29 42.3-.44 11.12-2.5 22.03-5.92 32.68-3.35 10.44-7.62 20.38-14.21 29.21-3.8 5.1-7.85 9.97-12.73 14.12-5.11 4.34-10.88 7.22-17.33 9.03-22.24 6.25-46.08-2.55-59.96-19.57-9.12-11.19-15.7-23.72-19.38-37.83-2.65-10.18-4.07-20.43-3.8-30.67zm26.99-25.53c.27 5.67.2 11.37.89 16.99.85 6.96 2.28 13.86 3.52 20.77 2.61 14.59 7.17 28.55 13.63 41.89 3.28 6.78 7.38 13.05 12.91 18.23 6.98 6.53 15.1 9.1 24.44 6.07 5.8-1.88 10.36-5.49 13.6-10.73 2.9-4.69 4.88-9.77 5.93-15.12 1.52-7.79 2.58-15.66 2.82-23.61.22-7.26-.04-14.48-.78-21.73-.86-8.35-2.24-16.6-3.75-24.84-1.56-8.49-4.02-16.74-6.43-25-2.22-7.61-5.16-15-9.01-21.97-3.09-5.6-6.8-10.71-12.03-14.57-8.83-6.52-21.08-6.79-30.15.98-5.57 4.78-8.65 11.02-10.84 17.76-3.68 11.32-4.91 23.01-4.75 34.88zm-13.79 289.4c.15-1.87.36-3.14.34-4.4-.31-20.81-.67-41.62-.99-62.43-.18-11.45-.34-22.9-.44-34.36-.03-2.91-.46-5.68-1.55-8.38-1.73-4.31-4.6-7.51-8.88-9.32-1.91-.81-3.93-1.36-5.88-2.06-1.71-.61-2.27-1.96-2.33-3.66-.06-1.64.16-3.13 1.69-4.07.66-.41 1.37-.75 2.09-1.03 8.48-3.3 16.92-6.71 25.48-9.78 2.88-1.03 6.06-1.44 9.13-1.66 2.89-.2 4.31 1.49 4.34 4.29.27 19.49.58 38.98.81 58.47.15 12.74.08 25.48.26 38.22.2 14.25.73 28.49.81 42.73.05 8.56.13 17.12-.56 25.7-.36 4.53-.67 9.23.25 13.89.53 2.72.03 5.65-.01 8.49-.15 12.44 1.18 24.88.14 37.34-.25 3.07.34 6.2.36 9.3.09 9.11.1 18.22.12 27.32.02 8.79 4.19 14.77 12.2 18.17 1.2.51 2.46.85 3.66 1.35 1.54.64 2.41 2.08 2.33 3.67-.09 1.91-1.4 3.3-3.44 3.63-.51.08-1.03.19-1.55.18-10.4-.21-20.81-.37-31.2-.71-3.19-.1-3.48-.61-3.83-3.67-.09-.77-.01-1.57-.11-2.34-.3-2.48-1.44-2.95-3.72-1.53-1.99 1.24-3.88 2.63-5.92 3.77-13.19 7.35-26.6 7.76-40.41 1.56-10.11-4.53-17.72-11.8-23.74-20.81-8.04-12.04-13.18-25.11-15.27-39.64-1.7-11.8-.98-23.32.6-34.93.63-4.62 1.63-9.2 2.63-13.77 2.83-12.9 8.23-24.58 16.72-34.76 4.37-5.24 9.35-9.83 15.27-13.22 10.03-5.75 20.53-7.06 31.46-2.68 4.83 1.94 9.6 3.98 13.63 7.45 1.52 1.31 3.35 2.26 5.51 3.68zm.21 71.31c-.1 0-.2 0-.29-.01 0-17.17.01-34.34-.01-51.5 0-2.08-.05-4.17-.32-6.22-.28-2.08-1.07-3.94-2.71-5.46-5.38-5.01-11.22-9.32-18.25-11.68-3.68-1.23-7.36-2.09-11.43-1.12-7.56 1.81-13.23 6-16.97 12.65-1.9 3.37-3.44 7.02-4.64 10.7-4.01 12.27-4.89 24.97-4.12 37.73.56 9.33 1.72 18.64 3.09 27.88 1.59 10.8 3.91 21.48 7.56 31.8 2.44 6.91 5.89 13.3 10.94 18.73 3.94 4.23 8.77 6.3 14.56 6.36 8.25.08 15.14-3.29 21.33-8.33 1.11-.9 1.84-2.51 2.27-3.94.44-1.45.41-3.08.4-4.64-.11-9.6-.19-19.21-.43-28.8-.23-8.04-.65-16.1-.98-24.15zm768.96-334.53c0 16.57.02 33.14-.01 49.71-.01 5.44-.24 10.87-.16 16.31.04 2.71.2 5.5.9 8.09 1.41 5.18 4.6 8.72 10.2 9.71 3.18.56 5.83-.27 8.18-2.32 3.63-3.17 5.34-7.27 5.62-12 .38-6.35.57-12.7-.43-19.02-.14-.89-.25-1.79-.3-2.69-.05-.79 1.12-1.6 1.95-1.38.44.11.89.2 1.3.38 6.04 2.61 12.07 5.24 18.1 7.85 1.86.81 2.67 2.19 2.81 4.23.94 14.49-7.46 26.11-18.78 31.21-14.65 6.6-28.35 4.08-41.23-4.62-4.32-2.92-7.94-6.69-11.12-10.93-3.45-4.6-4.93-9.53-4.59-15.24.47-7.93.69-15.88.9-23.82.09-3.62-.22-7.25-.17-10.87.1-7.7.31-15.41.45-23.11.04-2.03-.02-4.07-.05-6.1-.04-1.82-.18-3.63-.15-5.44.29-19.96.61-39.92.9-59.87.07-4.5-.16-4.81-4.39-4.75-4.3.06-8.6.36-12.91.55-.9.04-1.81.09-2.72.08-2.75-.03-3.31-.78-2.3-3.17 1.14-2.72 2.38-5.4 3.52-8.11.81-1.92 2.28-2.69 4.28-2.74 3.86-.09 7.72-.15 11.57-.34 2.26-.11 2.88-.74 2.94-2.87.1-3.63.11-7.26.11-10.89 0-10.44-.02-20.89-.02-31.33 0-.68.01-1.36.04-2.04.09-1.73.83-3.03 2.5-3.7.84-.34 1.66-.73 2.52-1.04 5.11-1.86 10.2-3.76 15.33-5.52 4.27-1.47 4.96-.88 5.06 3.92.01.68-.02 1.36-.01 2.04.04 13.62.07 27.24.14 40.87.01 2.72.11 5.45.27 8.17.1 1.63.98 2.4 2.65 2.44 1.82.04 3.63-.02 5.45-.03l27.25-.12c1.14 0 2.27-.01 3.41.02 3.15.1 3.77.91 2.73 3.64-.65 1.7-1.38 3.36-2.05 5.04-2.11 5.27-2.27 5.45-7.82 5.45-4.76 0-9.53-.24-14.29-.3-3.18-.04-6.37-.14-9.53.1-9.49.73-8.13.5-8.27 8.53-.4 22 .44 44.01.22 66.02zm161.88 93.05c-10.86-.32-21.2-2.6-31.18-6.67-1.47-.6-2.9-1.36-4.43-1.72-.73-.17-1.79.21-2.43.69-.69.51-1.26 1.38-1.53 2.21-1.1 3.36-3.7 3.53-6.58 3.39-1.79-.09-2.98-.91-3.74-2.46-.3-.61-.67-1.19-.95-1.81-4.8-10.77-9.6-21.55-14.39-32.33-.28-.62-.55-1.24-.79-1.88-.07-.19 0-.44.02-.66.14-1.72 4.69-3.83 6.17-2.75 1.26.93 2.36 2.1 3.45 3.24 4.4 4.59 8.67 9.3 13.19 13.77 2.57 2.55 5.35 4.96 8.32 7.02 12.12 8.42 25.4 11.75 40.02 8.47 12.54-2.82 22.43-12.73 23.94-27.94 1.18-11.84-3.2-21.73-11.09-30.32-5.47-5.95-12.35-9.9-19.3-13.78-6.93-3.87-13.87-7.74-20.75-11.71-7.53-4.35-14.17-9.84-19.8-16.47-4.43-5.22-7.88-11.06-9.92-17.68-5.7-18.44 1.77-37.62 17.71-46.33 3.78-2.06 7.52-4.1 11.73-5.34 9.82-2.89 19.25-2.33 28.44 2.22 1.22.6 2.47 1.14 3.71 1.71 3.27 1.51 3.27 1.51 5.62-1.93 2.35-3.45 7.59-3.21 9.48.44.31.6.58 1.23.86 1.86 4.2 9.55 8.41 19.1 12.6 28.65.36.83.69 1.69.88 2.57.08.38-.13.91-.37 1.27-1.75 2.55-5.55 2.9-7.61.58-2.41-2.72-4.75-5.5-6.95-8.39-4.59-6.02-10.15-11.03-16.24-15.43-8.22-5.94-17.34-7.87-27.08-4.63-6.93 2.31-11.6 6.93-12.41 14.62-.02.22.1.48.03.68-2.33 6.82.53 12.47 4.31 17.72 2.79 3.87 6.34 7.06 10.48 9.58 11.05 6.71 22.07 13.48 33.06 20.29 3.28 2.03 6.47 4.22 9.6 6.46 8.99 6.45 16.28 14.49 21.55 24.21 3.82 7.05 5.87 14.65 6.14 22.79.3 9.03-1.19 17.66-4.75 25.89-6.91 15.98-18.63 25.96-36.19 28.4-4.27.58-8.56 1-12.83 1.5zM680.87 595.15c0-17.95.03-35.91-.02-53.86-.01-4.68-.24-9.37-.44-14.05-.05-1.29-.24-2.6-.59-3.83-1.93-6.67-6.01-9.92-12.95-10.42-5.31-.38-10.44.43-15.11 2.99-5.01 2.75-9.83 5.83-14.73 8.77-1.48.89-2.05 2.25-2.11 3.92-.28 7.53-.77 15.06-.85 22.59-.14 14.3-.01 28.6-.07 42.9-.06 12.23-.24 24.46-.35 36.69-.03 2.86-.03 5.73.05 8.59.24 8.06 4.43 13.64 11.22 17.49 1.57.89 3.32 1.47 5 2.19 2.05.88 2.33 2.58 2.18 4.52-.11 1.46-.79 2.5-2.26 2.71-1.28.18-2.59.16-3.89.15-15.62-.14-31.23-.29-46.85-.45-1.3-.01-2.61 0-3.9-.11-3.13-.27-4.4-2.08-3.75-5.43.13-.68.62-1.57 1.19-1.84 1.64-.76 3.44-1.19 5.13-1.86 6.67-2.67 10.47-7.5 10.83-14.79.21-4.16.44-8.32.43-12.48-.02-10.41-.43-20.82-.23-31.22.32-16.62-.56-33.26.9-49.86.39-4.39.21-8.85.04-13.26-.31-8.19-4.25-13.71-12.3-16.04-1-.29-1.96-.73-2.96-.99-1.7-.44-2.72-1.38-2.81-3.22-.1-2.2.17-4.24 2.53-5.17 5.08-2 10.19-3.91 15.28-5.89 3.39-1.32 6.75-2.74 10.14-4.06 1.45-.57 2.91-1.2 4.43-1.48 9.41-1.74 10.13-.91 10.46 7.87.09 2.32-.47 4.68.58 6.9.16.33.82.72 1.12.63.73-.22 1.38-.7 2.06-1.08 5.9-3.31 11.74-6.72 17.71-9.9 6.89-3.67 14.33-4.59 21.98-3.58 8.06 1.06 14.68 4.71 19.89 11.11 5.16 6.34 7.67 13.47 7.67 21.57 0 15.88.05 31.75-.01 47.63-.07 18.74-.22 37.48-.33 56.22-.01 1.3.02 2.6.06 3.9.32 10.17 4.91 17.25 14.81 20.53 2.08.69 2.65 1.85 2.45 4.19-.13 1.45-.8 2.47-2.23 2.8-1 .23-2.05.35-3.08.33-10.92-.24-21.84-.53-32.76-.8-.26-.01-.52-.04-.78-.07-2.28-.24-3.25-1.13-3.27-3.49-.06-9.63-.04-19.26-.04-28.89v-39.04c.18-.03.36-.03.53-.03zm730.17.37c0-16.52.02-34.99-.02-53.46-.01-3.35-.51-6.67-.1-10.06.21-1.75-.32-3.61-.67-5.39-1.93-9.69-9.07-14.82-18.71-12.93-4.28.84-8.53 2.36-12.47 4.26-3.95 1.9-7.5 4.66-11.23 7.03-2.13 1.36-3.28 3.26-3.29 5.83-.01 2.08-.09 4.16-.1 6.24-.01 24.45.07 48.9-.05 73.35-.04 7.79-.81 15.57-.78 23.36.02 4.64.24 9.49 1.61 13.85 2.07 6.58 7.1 10.66 13.89 12.48 2.3.62 3.37 4.53 1.88 6.38-.43.54-1.3 1.02-1.98 1.03-3.12.06-6.24-.03-9.36-.09-13.25-.27-26.51-.55-39.76-.84-2.08-.05-4.16-.07-6.23-.26-1.43-.13-2.38-1.03-2.51-2.5-.14-1.55-.29-3.29 1.24-4.23 1.06-.65 2.42-.82 3.64-1.24 6.73-2.32 10.88-6.9 11.96-14.01.35-2.31.55-4.66.55-6.99.03-9.87-.16-19.74-.03-29.61.24-19.22.65-38.43.96-57.65.07-4.42.13-8.85-.09-13.27-.13-2.56-.71-5.13-1.33-7.63-.8-3.2-2.86-5.57-5.76-7.02-2.31-1.15-4.76-2.05-7.22-2.85-1.72-.55-2.6-1.48-2.68-3.29-.16-3.64.34-4.77 3.59-6.04 8.96-3.5 17.92-7 26.98-10.21 2.37-.84 5.11-.72 7.69-.83 3.12-.13 3.7.45 3.81 3.4.12 3.38.13 6.76.29 10.14.05 1.01.07 2.49.68 2.9 1.21.81 2.35-.36 3.38-1.08 5.98-4.17 12.13-8.07 18.83-10.97 6.04-2.62 12.3-3.82 18.97-3.36 10.88.75 18.34 6.48 23.92 15.34 4.04 6.41 5.11 13.62 5.2 20.93.21 17.93.25 35.87.11 53.8-.13 16.12-.58 32.23-.91 48.35-.08 3.92.11 7.74 1.78 11.44 1.9 4.22 4.77 7.41 8.8 9.57 1.6.86 3.32 1.5 4.92 2.36 1.26.67 1.72 2.44 1.24 4.14-.42 1.46-1.53 2.03-2.91 2.08-2.08.07-4.16.07-6.24.05-8.58-.07-17.17-.13-25.75-.24-6.64-.08-6.73-.11-6.72-6.34.02-16.91.08-33.81.22-50.72.04-4.42.43-8.84.76-15.2zm52.57-253.22c-9.08 0-18.16.01-27.23-.01-1.13 0-2.28.01-3.38-.2-1.18-.23-2.09-1.08-2.22-2.29-.15-1.34-.16-2.74.12-4.05.16-.75.9-1.54 1.6-1.97.73-.45 1.71-.55 2.6-.7 7.94-1.35 15.1-8.11 15.42-18.97.16-5.22.12-10.44.14-15.66.15-32 .29-63.99.43-95.99.01-1.82.04-3.63-.05-5.45-.38-7.51-4.98-13.35-12.15-15.42-1.09-.31-2.22-.47-3.32-.73-1.33-.31-2.75-.54-3.06-2.22-.5-2.76.2-5.01 2.08-5.97 2.22-1.13 4.51-2.14 6.84-3.04 8.45-3.28 16.89-6.58 25.4-9.68 2.08-.76 4.41-1.06 6.63-1.11 5.71-.13 5.36.31 5.2 5.12-.29 8.84-.28 17.7-.33 26.55-.01 1.1.3 2.2.51 3.29.03.18.3.43.47.43.39.01.99.02 1.13-.21 1.05-1.74 2.2-3.46 2.97-5.33 2.28-5.5 5.6-10.38 9-15.2 3.73-5.29 8.67-9.4 14.53-12.01 7.41-3.3 14.96-3.12 22.27.75 1.34.71 2.05 1.75 2.12 3.22.11 2.27.23 4.54.21 6.8-.07 8.85-.19 17.7-.3 26.55-.01.68-.01 1.37-.16 2.03-.09.38-.49 1.01-.7.99-.61-.06-1.36-.23-1.77-.64-.62-.63-1.03-1.48-1.49-2.26-2.62-4.52-6.61-7.43-11.28-9.44-3.91-1.68-7.92-1.54-11.94-.11-6.07 2.15-10.35 6.54-13.91 11.57-7.24 10.23-11.28 21.69-11.66 34.26-.29 9.52-.19 19.06-.26 28.59-.1 13.39-.22 26.78-.29 40.17-.02 3.4.04 6.81.21 10.2.49 10.03 5.84 16.36 15.14 19.62 1.24.44 3.02.7 3.51 1.6.68 1.26.51 3.05.45 4.6-.05 1.25-.95 2.12-2.21 2.18-3.4.17-6.8.28-10.2.3-7.04.04-14.07.01-21.11.01.04-.04.04-.11.04-.17zm-239.99 243.96c0 15.35-.01 30.69.01 46.04 0 3.12.13 6.24.2 9.36.19 7.92 4.75 12.9 11.24 16.51 1.13.63 2.39 1.03 3.62 1.45 2.51.85 2.69 2.86 2.41 5.08-.17 1.42-1.05 2.43-2.49 2.57-1.8.18-3.63.19-5.44.15-14.3-.3-28.59-.63-42.89-.94-1.82-.04-3.64.05-5.46-.05-2.41-.13-3.57-1.33-4.01-3.92-.3-1.72.48-3.28 1.99-3.75 1.24-.38 2.55-.52 3.78-.94 5.87-1.98 9.88-5.84 10.93-12.05.74-4.33 1.2-8.77 1.23-13.16.2-27.57.25-55.14.36-82.71.02-5.2.19-10.4.11-15.59-.12-7.76-4.31-12.51-11.47-14.91-.98-.33-2-.58-2.99-.89-1.61-.51-2.68-1.4-2.71-3.3-.03-1.93.27-3.67 2.1-4.68 1.13-.63 2.33-1.15 3.54-1.61 8.02-3.03 16.05-6.01 24.07-9.06 3-1.14 6.09-1.21 9.22-.98 1.81.14 2.79 1.1 2.95 2.96.18 2.07.25 4.15.36 6.23.08 1.56.12 3.12.24 4.68.09 1.15 1.23 1.86 2.18 1.33 5-2.76 9.92-5.68 15-8.29 3.22-1.66 6.62-3 10.03-4.25 6.79-2.49 13.7-2.59 20.71-.82 3.89.98 7.3 2.97 10.22 5.48 6.26 5.39 10.5 12.05 11.79 20.46 1.47 9.57 1.22 19.19 1.15 28.8-.1 12.48-.47 24.95-.73 37.42-.03 1.56-.25 3.13-.17 4.68.65 12.21-.35 24.41-.23 36.61.04 4.14-.05 8.26.97 12.39 1.56 6.3 5.11 10.66 10.97 13.26.47.21.98.36 1.46.55 3.42 1.35 3.95 2.02 3.65 5.01-.21 2.14-1.17 2.61-5.57 2.6-7.54-.02-15.09-.14-22.63-.21-2.86-.03-5.73.05-8.58-.06-3.22-.12-4.69-1.51-5.04-4.74-.2-1.8-.19-3.64-.15-5.46.16-7.27.46-14.53.54-21.8.28-23.39.53-46.77.71-70.16.08-9.88-.05-19.77-.12-29.65-.02-2.6.07-5.23-.29-7.79-1.4-9.98-7.65-16.35-19.84-14.6-2.03.29-4.04 1.02-5.96 1.79-2.89 1.16-5.84 2.29-8.5 3.88-14.21 8.47-11.8 4.49-11.97 20.25-.17 15.61-.04 31.22-.04 46.83h-.46zm350.04-12.44c0 11.71-.01 23.42 0 35.12.02 10.93.06 21.85.11 32.78.03 6.05 2.01 11.35 6.93 15.02 2.22 1.65 5.08 2.48 7.68 3.58 2.23.94 3.09 2.38 2.36 4.96-.24.84-1.11 1.65-1.9 2.15-.59.38-1.51.31-2.28.31-10.41.05-20.82.08-31.22.1-1.04 0-2.09-.05-3.11-.21-1.11-.16-1.92-.86-2.12-1.97-.33-1.78-.51-3.59-.79-5.39-.27-1.79-.51-3.58-.89-5.35-.23-1.05-1.26-1.02-1.86-.64-2.41 1.53-4.72 3.22-7.08 4.83-7.2 4.87-14.97 8.25-23.64 9.56-6.64 1-13.07.24-19.11-2.37-8.57-3.71-14.12-10.28-16.83-19.3-1.73-5.78-2.64-11.63-2.64-17.66-.02-25.76-.09-51.52-.12-77.28-.01-4.68.11-9.37.17-14.05.04-3.16-.39-6.2-1.9-9.06-2.05-3.88-5.06-6.55-9.25-7.86-.99-.31-2.05-.37-3.05-.63-1.56-.4-2.92-1.02-3.11-2.95-.21-2.23.18-4.17 2.29-5.36.67-.38 1.41-.64 2.14-.93 7.74-3.06 15.45-6.17 23.22-9.14 2.17-.83 4.48-1.67 6.75-1.76 7.85-.32 8.18-.15 8.21 7.29.04 11.17.43 22.34.35 33.5-.18 26.27-.56 52.54-.8 78.81-.06 5.98-.03 11.98.25 17.95.13 2.82.51 5.77 1.5 8.39 1.98 5.24 5.87 8.41 11.62 9.09 5.83.69 11.42.19 16.58-2.9 3.79-2.26 7.64-4.43 11.39-6.76 3.83-2.38 5.63-5.74 5.49-10.44-.28-9.36-.23-18.73-.26-28.1-.04-15.87-.05-31.73-.06-47.6 0-5.98.14-11.97-.01-17.95-.07-2.84-.47-5.71-1.07-8.49-1.39-6.4-5.25-10.59-11.72-12.17-1.01-.25-2.06-.33-3.06-.61-1.3-.36-2.49-1.02-2.55-2.54-.07-1.78-.39-3.78 1.59-4.86 1.36-.75 2.81-1.36 4.26-1.9 7.29-2.76 14.66-5.32 21.89-8.26 4.59-1.86 9.15-1.54 13.77-.67.69.13 1.63 1.43 1.66 2.21.17 5.72.15 11.45.16 17.17.01 17.43 0 34.86 0 52.29.02.05.04.05.06.05zm150 82.39c0 2.34-.01 4.68 0 7.02.01 1.8-.99 2.85-2.51 3.56-8.86 4.17-17.2 2.83-25.04-2.54-4.14-2.83-7.35-6.58-9.5-11.16-.66-1.41-1.16-2.91-1.96-4.24-.23-.39-1.42-.61-1.88-.37-1.37.72-2.59 1.71-3.87 2.6-5.13 3.56-10.07 7.42-15.41 10.61-16.09 9.6-32.57 10.03-48.74.41-10.75-6.39-16.44-16.51-17.46-28.88-.92-11.19 2.08-21.75 7.73-31.32 11.39-19.28 27.54-32.99 48.9-40.25 3.93-1.34 7.9-2.57 11.82-3.94 1.95-.68 3.97-1.35 5.71-2.43.95-.59 1.98-2.07 1.92-3.08-.62-10.11-1.09-20.3-3.66-30.13-1.89-7.2-7.06-11.3-14.59-12.16-8.4-.96-15.25 2.31-21.09 7.99-5.27 5.11-9.53 10.96-12.29 17.84-.75 1.88-2.08 2.23-3.69 1.04-3.75-2.8-7.41-5.7-11.1-8.57-2.46-1.91-4.95-3.79-7.33-5.8-1.23-1.03-1.11-3.07.19-4.12 10.71-8.63 22.46-14.95 36.44-16.3 2.84-.27 5.66-.81 8.5-1.03 8.64-.68 17.18.32 25.42 2.78 14.69 4.39 25.95 15.74 27.21 34.21.79 11.65 1.76 23.28 2.66 34.92.06.78.11 1.56.16 2.34 1.23 18.66 2.35 37.33 3.75 55.98.37 4.89 1.22 9.82 2.54 14.55 1.58 5.67 6.06 6.9 10.91 3.48.84-.6 1.49-1.51 2.37-2.01.8-.46 2.14-1.06 2.64-.71.64.44.88 1.75.93 2.7.12 2.33.04 4.68.04 7.02.09-.01.18-.01.28-.01zm-72.89-5.51c4.12.09 8.77-.56 12.9-2.96 4.7-2.73 9.16-5.87 13.77-8.74 2.05-1.28 2.6-3.1 2.42-5.31-.32-3.87-.7-7.74-.96-11.61-1.19-17.61-2.34-35.21-3.51-52.82-.05-.77-.14-1.55-.27-2.32-.23-1.42-1.49-2.23-2.83-1.83-7.82 2.35-14.7 6.29-20.89 11.64-9.39 8.11-17.15 17.34-20.64 29.5-1.21 4.22-1.74 8.63-2.73 12.92-1.34 5.79-.14 11.31 1.46 16.84 2.51 8.62 10.83 14.83 21.28 14.69zM461.36 578.92c-.15-9.14 1.85-22.15 6.36-34.76 4.17-11.66 10.43-22.1 18.92-31.05 8.8-9.27 19.77-14.19 32.64-14.28 4.91-.03 9.81-.03 14.69 1.22 12.46 3.2 21.75 10.85 29.39 20.68 8.73 11.24 14.29 23.97 17.06 38 1.67 8.46 2.61 17.01 2.67 25.53.15 24.57-5.86 47.23-22.12 66.47-10.13 11.99-23.09 17.46-38.5 16.79-10.88-.48-20.81-4.37-29.45-11.09-11.15-8.67-18.81-20.02-23.96-33.03-5.1-12.89-7.78-26.33-7.7-44.48zm95.76 32.92c-.26-8.14-.19-13.61-.67-19.04a207.286 207.286 0 0 0-7.43-39.75c-2.75-9.49-6.01-18.82-10.91-27.47-3.38-5.96-7.86-10.86-13.73-14.59-7.33-4.65-22.28-2.72-27.15 5.85-2.84 5.01-5.75 9.89-7.16 15.47-3.36 13.22-4.32 26.64-2.9 40.2 1.22 11.63 2.71 23.22 5.95 34.5 3.37 11.76 7.33 23.31 13.93 33.72 1.94 3.06 4.08 6.04 6.5 8.73 10.54 11.71 31.05 10.7 37.99-5.98 1.9-4.58 3.84-9.14 4.3-14.1.61-6.72.99-13.46 1.28-17.54zm1219.8-101.09c-.37 15.85-.8 31.71-1.08 47.56-.26 14.3-.34 28.61-.52 42.91-.14 10.66-.36 21.33-.48 31.99-.04 3.38-.05 6.77.17 10.14.54 8.26 4.82 14.07 12.12 17.73.92.46 1.97.67 2.91 1.1 2.02.9 2.72 2.24 2.33 4.33-.3 1.61-1.42 2.55-3.38 2.55-4.16-.01-8.32-.09-12.48-.19-11.96-.29-23.91-.61-35.87-.91-1.56-.04-3.12.01-4.68-.09-2.82-.18-4.02-1.76-3.68-4.73.16-1.41.88-2.43 2.25-2.87.99-.32 2.05-.42 3.02-.78 8.22-3.03 12.59-8.93 12.8-17.69.26-10.92.41-21.84.49-32.77.12-18.45-.43-36.93.38-55.35.74-16.91.09-33.79.42-50.69.44-22.36.4-44.73.59-67.1.05-5.97.22-11.94.3-17.91.01-1.04-.14-2.07-.17-3.11-.29-10.02-4.9-16.68-14.84-19.32-1.97-.52-2.95-1.96-3-4.05-.05-2.18.1-4.22 2.5-5.17 5.08-2 10.16-3.99 15.24-5.97 4.36-1.69 8.71-3.4 13.11-5 1.44-.52 3-1.02 4.5-1.03 6.18-.05 7.42.32 7.38 6.87-.06 9.62.06 19.25 0 28.87-.2 32.52-.45 65.03-.68 97.54-.01 1.04 0 2.08 0 3.12.12.02.24.02.35.02zM590.8 235.49c0 23.16 0 46.31.01 69.47 0 2.27 0 4.55.16 6.81.37 5.15 2.46 9.65 5.65 13.62 1.87 2.33 4.23 4.12 7.15 5.01 1.73.53 3.51.91 5.23 1.47 1.2.4 1.78 1.44 1.73 2.64-.05 1.12-.21 2.31-.67 3.3-.33.71-1.16 1.38-1.91 1.65-.81.28-1.79.08-2.69.06-9.27-.17-18.54-.45-27.81-.48-5.89-.02-11.78.39-17.67.49-4.08.07-8.17.06-12.25-.12-2.25-.1-3.1-1.24-3.24-3.57-.01-.23-.03-.45-.03-.68-.04-2.88.48-3.6 3.05-4.56 2.33-.86 4.8-1.5 6.91-2.74 5.69-3.34 8.61-8.51 9.03-15.07.12-1.81.15-3.63.15-5.45.03-12.48-.12-24.96.09-37.44.35-21.09-.45-42.19.54-63.28.2-4.27-.06-8.6-.61-12.85-.91-7.14-4.5-12.24-11.99-13.82-1.11-.23-2.2-.53-3.3-.79-2.8-.65-3.34-1.13-3.54-3.26-.31-3.15.24-4.19 2.91-5.37 2.7-1.19 5.39-2.4 8.11-3.51 6.29-2.57 12.69-4.89 18.86-7.7 4.52-2.06 9.15-2.4 13.93-2.24 2.28.08 3.01 1.01 2.98 3.54-.2 14.05-.45 28.1-.57 42.15-.09 10.9-.02 21.79-.02 32.69-.04.03-.11.03-.19.03zM202.63 579.53c.92-9.38 1.84-18.67 4.63-27.67 3.64-11.76 8.69-22.79 16.52-32.43 7.76-9.55 17.1-16.62 29.36-19.31 13.74-3.02 26.37-.41 37.74 7.74 14.38 10.3 22.9 24.52 26.99 41.56.12.5.18 1.02.26 1.54.42 2.79-.07 3.83-2.59 4.9a328.22 328.22 0 0 1-10.11 4.08c-11.86 4.57-23.71 9.19-35.62 13.64-10.45 3.91-20.98 7.64-31.47 11.45-1.47.53-2.96 1-4.4 1.58-2.64 1.07-3.21 2.08-2.66 4.74.74 3.56 1.48 7.12 2.3 10.67 2.46 10.64 5.31 21.16 9.87 31.13 2.28 4.99 4.93 9.72 8.62 13.84 9.41 10.5 21.74 12.52 34.11 8.19 7.35-2.58 11.99-8.05 14.64-15.2 3-8.08 5.19-16.34 4.78-25.09-.05-1.02.13-2.07.33-3.08.22-1.07 1.12-.98 1.79-.64.91.46 1.78 1.07 2.52 1.77 3.58 3.4 7.06 6.91 10.7 10.26 1.73 1.6 2.38 3.32 1.65 5.55-2.05 6.23-4.8 12.03-9.45 16.83-3.98 4.12-7.88 8.29-12.67 11.51-8.35 5.62-17.35 8.99-27.57 9.66-16.21 1.06-30.1-4.12-42.38-14.28-2.38-1.97-4.47-4.35-6.44-6.75-12.12-14.74-17.93-32.02-20.07-50.72-.58-5.13-.92-10.31-1.38-15.47zm25.72-20.02c.25 4.92.38 9.86.77 14.77.31 3.87 1.56 4.03 4.4 2.92 16.18-6.34 32.4-12.57 48.59-18.89 1.93-.75 3.72-1.84 5.63-2.65 1.68-.71 2.44-1.94 2.18-3.66-.45-3.07-.77-6.19-1.66-9.14-1.94-6.45-3.78-12.98-6.44-19.14-2.49-5.76-6.48-10.74-12.18-13.76-10.69-5.66-24.15-2.24-31.15 7.76-4.08 5.83-6.36 12.43-7.86 19.34-1.6 7.39-1.99 14.9-2.28 22.45zm131.66-.97c.19 23.89 3.32 43.85 9.32 63.36a85.098 85.098 0 0 0 9.84 21.15c4.63 7.18 10.83 12.55 19.61 14.32 10.11 2.05 23.88-2.8 29.36-11.89 4.43-7.33 6.45-15.26 7.33-23.6.27-2.58.16-5.2.34-7.8.05-.7.31-1.61.81-2.02 1.06-.87 1.97.09 2.68.75 3.8 3.55 7.43 7.29 11.36 10.7 2.94 2.55 2.71 5.28 1.38 8.38-3.44 8.01-8.37 14.94-14.98 20.66-6.76 5.85-14.09 10.86-22.88 12.91-22.66 5.28-42.18-.47-58.03-17.65-11.64-12.62-17.6-27.96-20.8-44.6-1.73-9.01-2.22-18.08-1.5-27.16 1.7-21.43 7.74-41.31 21.75-58.18 5.04-6.06 11-11.01 17.82-14.94 4.36-2.51 9.02-3.96 14.06-4.19 8.75-.39 17.11.68 24.55 5.88 1.9 1.33 4.11 2.22 6.23 3.23 1.78.85 2.74.5 3.84-1.3.53-.88.81-1.94 1.42-2.76 1.86-2.51 5.83-2.13 7.1.61.22.47.43.95.58 1.45 4.2 14.2 8.39 28.4 12.58 42.59.15.5.39.98.49 1.48.29 1.43-.18 2.56-1.51 3.22-.93.46-1.94.75-2.88 1.18-1.38.63-2.51.45-3.28-.93-1.9-3.4-3.88-6.77-5.65-10.24-3.57-6.99-8.08-13.35-12.85-19.52-4-5.18-8.74-9.61-14.45-12.93-13.59-7.9-27.67-2.52-34.37 7.67-4.09 6.23-6.08 13.17-7.54 20.33-1.58 7.7-1.85 15.49-1.73 19.84zM1674.73 59.1c.08 8.73-.26 16.64-1.69 24.48-1.6 8.8-4.42 17.09-9.67 24.43-4.02 5.61-8.9 10.24-15.22 13.2-1.47.69-2.69-.05-2.81-1.71-.18-2.54-.08-4.94 2.06-6.85 5.67-5.07 8.32-11.77 9.67-19 1.03-5.55 1.74-11.18 2.26-16.81.33-3.56-.19-3.93-3.31-4.9-7.91-2.44-10.17-4.92-10.47-12.85-.26-6.78-.07-13.6.23-20.38.15-3.41 1.37-6.58 3.98-9.1 6.33-6.11 21.25-4.24 23.63 6.67.43 1.98.88 3.97 1.06 5.99.53 5.86 1.11 11.73.28 16.83zM563.25 94.69c0-2.72-.02-5.44.01-8.16.01-.9.13-1.81.22-2.71 1.16-12.01 12.39-14.23 19.44-11.77 4.92 1.72 7.99 5.09 9.16 10.05 1.67 7.12 1.77 14.39 1.24 21.63-.48 6.45-3.87 10.98-10.16 13.04-5.92 1.93-11.15.67-15.67-3.56-2.41-2.25-3.94-5-4.05-8.34-.11-3.39-.02-6.79-.02-10.19-.07.01-.12.01-.17.01z" fill="#fba900"/></svg>