<svg xmlns="http://www.w3.org/2000/svg" viewBox="0 0 100 100"><circle fill="#F60" cx="50" cy="50" r="50"/><path d="M40.5 38.6c.9 1.1 2.1 1.9 3.5 2.4s2.8.7 4.2.4c1.4-.2 2.7-.8 3.8-1.7 1.1-.9 2-2 2.5-3.5.5-1.4.6-2.8.4-4.2-.3-1.4-.9-2.7-1.8-3.8-.9-1.1-2.1-1.9-3.5-2.4s-2.8-.7-4.2-.4-2.7.8-3.9 1.7c-1.1.9-2 2-2.5 3.4s-.7 2.9-.4 4.3c.3 1.5.9 2.7 1.9 3.8zm32.4.2c-.3-1.4-.9-2.7-1.8-3.8-.9-1.1-2.1-1.9-3.5-2.4s-2.8-.7-4.2-.4c-1.4.2-2.7.8-3.9 1.7-1.1.9-2 2-2.5 3.4s-.7 2.9-.4 4.3c.3 1.4.9 2.7 1.8 3.8.9 1.1 2.1 1.9 3.5 2.4s2.8.7 4.2.4c1.4-.2 2.7-.8 3.8-1.7 1.1-.9 2-2 2.5-3.5.7-1.3.8-2.7.5-4.2zM61.6 58.9c-3.2-2.9-7.1-5.2-11.9-7-4.7-1.8-9.2-2.6-13.5-2.5-4.3.1-8.2.9-11.5 2.4-3.4 1.5-6.1 3.4-8.1 5.8-1.9 2.4-2.2 4.1-.9 5.2.4.4 1 .5 1.6.4.6-.1 1.4-.3 2.3-.7 2.4-1 5-1.6 7.9-1.9 2.9-.3 5.9-.3 9 .1 3.1.4 6.2 1.1 9.2 2.3 3 1.1 5.9 2.6 8.5 4.3 2.6 1.7 4.9 3.7 6.8 5.8 2 2.1 3.5 4.3 4.7 6.6.4.9.9 1.5 1.3 2s.9.7 1.4.7c1.7 0 2.6-1.5 2.7-4.5.1-3.1-.7-6.3-2.3-9.7-1.6-3.3-4-6.4-7.2-9.3z"/></svg>