<?xml version="1.0" encoding="utf-8"?>
<!-- Generator: Adobe Illustrator 24.0.1, SVG Export Plug-In . SVG Version: 6.00 Build 0)  -->
<svg version="1.1" id="Layer_1" xmlns="http://www.w3.org/2000/svg" xmlns:xlink="http://www.w3.org/1999/xlink" x="0px" y="0px"
	 viewBox="0 0 100 100" style="enable-background:new 0 0 100 100;" xml:space="preserve">
<style type="text/css">
	.st0{fill:#FF6600;}
</style>
<circle class="st0" cx="50" cy="50" r="37.5"/>
<path d="M42.88,41.45c0.68,0.83,1.57,1.43,2.62,1.8s2.1,0.53,3.15,0.3c1.05-0.15,2.03-0.6,2.85-1.28c0.82-0.68,1.5-1.5,1.88-2.62
	c0.38-1.05,0.45-2.1,0.3-3.15c-0.23-1.05-0.68-2.03-1.35-2.85c-0.67-0.83-1.57-1.42-2.62-1.8c-1.05-0.38-2.1-0.52-3.15-0.3
	c-1.05,0.23-2.03,0.6-2.93,1.27c-0.82,0.67-1.5,1.5-1.88,2.55c-0.38,1.05-0.53,2.18-0.3,3.23C41.67,39.73,42.12,40.63,42.88,41.45z
	 M67.18,41.6c-0.23-1.05-0.68-2.03-1.35-2.85s-1.57-1.43-2.62-1.8c-1.05-0.38-2.1-0.52-3.15-0.3c-1.05,0.15-2.03,0.6-2.93,1.28
	c-0.82,0.67-1.5,1.5-1.88,2.55c-0.38,1.05-0.52,2.18-0.3,3.22c0.22,1.05,0.67,2.03,1.35,2.85c0.68,0.82,1.57,1.42,2.62,1.8
	s2.1,0.53,3.15,0.3c1.05-0.15,2.02-0.6,2.85-1.28c0.82-0.68,1.5-1.5,1.88-2.62C67.32,43.78,67.4,42.72,67.18,41.6z M58.7,56.68
	c-2.4-2.18-5.32-3.9-8.92-5.25c-3.53-1.35-6.9-1.95-10.12-1.88c-3.22,0.07-6.15,0.67-8.62,1.8c-2.55,1.12-4.58,2.55-6.08,4.35
	c-1.42,1.8-1.65,3.08-0.67,3.9c0.3,0.3,0.75,0.38,1.2,0.3c0.45-0.07,1.05-0.22,1.72-0.52c1.8-0.75,3.75-1.2,5.92-1.43
	c2.17-0.22,4.43-0.22,6.75,0.08c2.33,0.3,4.65,0.82,6.9,1.72c2.25,0.82,4.42,1.95,6.38,3.23c1.95,1.27,3.67,2.77,5.1,4.35
	c1.5,1.57,2.63,3.22,3.53,4.95c0.3,0.68,0.67,1.12,0.98,1.5s0.68,0.53,1.05,0.53c1.27,0,1.95-1.12,2.02-3.38
	c0.07-2.32-0.52-4.73-1.72-7.28C62.9,61.18,61.1,58.85,58.7,56.68z"/>
</svg>
