<svg xmlns="http://www.w3.org/2000/svg" viewBox="0 0 130 100"><path fill="#FBA900" d="M9.95 56.902c.549-.929.192-2.39-.691-2.833-.888-.443-2.289-.103-2.916.73-.231.307-.361.712-.638.958-.261.231-.721.509-.98.423-.677-.225-1.352-.529-1.789-1.185-1.173-1.759.049-4.306 1.524-4.8 1.448-.486 2.909-.752 4.465-.527 1.894.273 3.543 1.065 5.14 2.054.729.451 1.129.979 1.061 1.889-.047.633-.021 1.325.188 1.913.491 1.383 1.538 2.397 2.686 3.23 1.277.925 2.712 1.627 4.002 2.536 1.319.93 2.766 1.734 3.548 3.28 1.038 2.053 1.141 3.855-.293 5.78-1.011 1.356-2.424 2.031-4.091 2.095-1.593.061-3.19.08-4.72-.536-1.364-.549-2.743-1.03-3.688-2.285-.89-1.181-1.018-2.215-.278-3.467.439-.742 1.131-1.008 1.944-.697.563.216 1.1.5 1.655.739.395.168.789.375 1.204.452.846.159 1.657-.36 1.941-1.163.376-1.062-.027-2.188-.982-2.83-2.095-1.41-5.881-1.41-7.708.812-.513.624-.796 1.3-1.096 2.005-.794 1.865-.577 3.634.613 5.228 1.586 2.123 3.895 3.087 6.398 3.528a18.36 18.36 0 0 0 6.082.063c2.48-.392 4.72-1.24 6.542-3.051.565-.562.747-1.562 1.67-1.689.809-.111 1.645-.038 2.468-.046h.13v.006c.868 0 1.738.043 2.6-.022.338-.025.794-.213.951-.474.213-.353.182-.836-.278-1.137-.901-.588-.876-1.549-.59-2.327.356-.969.346-1.94.484-2.914.095-.673.342-1.327.433-2 .114-.849.262-1.697.383-2.53.179-1.234.982-1.468 1.838-1.813.157-.063.39-.007.501-.105.856-.751 1.544-.096 2.209.295.467.275.645.77.456 1.361-.182.571-.296 1.165-.427 1.751-.216.965-.407 1.935-.636 2.896-.277 1.156-.621 2.298-.865 3.461-.219 1.043-.487 2.008-1.621 2.421-.122.044-.254.093-.343.18-.108.105-.265.272-.241.374.033.135.204.3.345.334.419.102.85.191 1.279.204.994.033 1.989.022 2.983.025.476.001.967.056 1.425-.039.288-.058.636-.297.755-.549.085-.182-.088-.668-.276-.765-1.022-.528-.897-1.324-.659-2.21.134-.499.179-1.021.253-1.535.053-.362.139-.753.575-.731.51.027.399.508.388.814a5.41 5.41 0 0 0 .853 3.185c.973 1.538 2.353 2.417 4.16 2.375 3.722-.089 6.572-1.808 8.536-4.946.814-1.302 1.344-2.713 1.668-4.252.251-1.192.364-2.257-.057-3.413-.704-1.928-2.141-3.039-4.033-3.427-2.814-.577-5.288.337-7.373 2.258-.817.754-1.514 1.637-2.282 2.447-.195.205-.451.355-.679.53-.068-.31-.176-.618-.196-.932-.038-.597.018-1.201-.045-1.794-.113-1.073-.782-1.856-1.645-2.362-.829-.487-1.696-.875-2.798-.391-.77.338-1.612.555-2.384.938-.486.241-.755.063-.653-.482.206-1.105.472-2.2.728-3.295.254-1.087.545-2.165.781-3.256.097-.449-.108-.635-.592-.483-1.235.385-2.482.734-3.716 1.12-.524.165-1.046.351-1.537.591-.417.204-.454.457.011.731 1.333.788 1.314 2.004.994 3.303-.143.586-.289 1.17-.401 1.761-.209 1.099-.377 2.205-.597 3.302-.292 1.467-.576 2.938-.941 4.388-.313 1.246-.715 2.471-1.12 3.69-.07.213-.349.355-.531.53-.164-.223-.402-.425-.478-.674-.173-.577-.186-1.211-.409-1.763-.707-1.752-1.778-3.248-3.398-4.275a89.403 89.403 0 0 0-3.439-2.044c-.959-.549-1.971-1.01-2.897-1.608-.404-.26-.684-.743-.952-1.167-.075-.118.033-.459.165-.569.117-.097.414-.08.575 0 .458.23.864.568 1.33.774 1.536.679 3.125.89 4.798.562 2.178-.426 3.989-1.296 5.008-3.436.334-.7.321-1.313.101-1.989-.526-1.619-1.789-2.552-3.25-3.123-1.804-.704-3.683-1.214-5.673-1.114-2.672.133-4.792 1.273-6.375 3.411-.701.945-.68.962-1.693.31-.072-.047-.132-.115-.206-.158-2.663-1.587-5.488-2.565-8.64-2.608-3.498-.047-5.578 2.697-5.93 5.652-.096.81-.086 1.615.293 2.414.976 2.056 2.489 3.327 4.766 3.746 1.792.33 3.937-.505 4.84-2.034zm41.215 1.262c.793-1.487 2.171-2.161 3.735-1.936.81.117 1.318.565 1.635 1.294.349.802.626 1.611.489 2.519-.266 2.32-.963 4.476-2.415 6.365-.698.908-1.628 1.245-2.705 1.252-.774.005-1.311-.49-1.614-1.131-.273-.575-.54-1.236-.523-1.851.064-2.247.315-4.48 1.398-6.512zm-31.655-8.03c.717-.378 1.478-.737 2.263-.907 1.521-.331 3.067-.414 4.592.066.732.229 1.499.376 2.192.689.818.369.967 1.35.339 2.015-.317.337-.712.685-1.138.818-1.013.317-2.066.511-2.811.685-2.005-.168-3.623-.535-5.167-1.209a1.925 1.925 0 0 1-.333-.203c-.859-.611-.859-1.469.063-1.954zm39.401-27.591c.647.383 1.438.623 2.189.71 1.399.162 2.763-.052 3.988-.849.599-.39 1.265-.401 1.833.01 1.168.847 2.376.724 3.573.191.662-.295 1.318-.379 2.018-.374 1.214.009 2.429.028 3.642-.016.664-.024.919-.531.45-.926-.641-.539-.698-1.2-.61-1.879.172-1.324.422-2.639.682-3.95.152-.763.391-1.508.58-2.264.158-.635.546-1.119 1.123-1.351.799-.32 1.64-.545 2.474-.774.403-.111.71.06 1.017.387.713.758.53 1.651.364 2.465a61.078 61.078 0 0 1-1.373 5.498c-.214.708-.513 1.463-1.211 1.944-.281.194-.884.32-.64.805.125.246.635.329.987.418.289.073.602.059.905.06 1.605.006 3.21.003 4.814.003v.058c.607 0 1.215.002 1.821 0l3.772-.012c.537-.001.577-.384.659-.787.078-.387.061-.581-.37-.79-.969-.471-1.249-1.38-.862-2.389.305-.799.709-1.481 1.475-1.984.972-.636 1.065-.679 1.662.339.066.111.101.24.167.352 1.1 1.895 2.218 3.782 3.644 5.456 1.97 2.314 4.084 4.388 7.18 5.229 1.77.48 3.433.446 5.02-.341.817-.404 1.689-.898 2.074-1.871.316-.799.059-1.553-.732-1.79-.68-.203-1.379-.226-1.936.36-.239.251-.455.524-.707.76-.843.792-1.645 1.62-2.999 1.385-.832-.145-1.459-.595-1.966-1.163-1.146-1.283-2.321-2.566-3.28-3.987-1.438-2.129-2.857-4.288-3.749-6.733-.381-1.045-.383-1.214.461-1.889.74-.594 1.55-1.103 2.265-1.725.795-.692 1.526-1.382 2.725-1.203.446.067.798-.467.717-.878-.087-.439-.457-.322-.734-.325a563.794 563.794 0 0 0-5.202-.028c-.215 0-.459-.009-.636.085-.244.13-.526.314-.634.548-.144.315.118.49.4.686.606.423.605.574.2 1.142a2.97 2.97 0 0 1-.53.556c-.834.682-1.675 1.355-2.524 2.019-.13.102-.308.146-.47.2-.328.108-.5-.024-.49-.364.006-.216.015-.438.067-.646.344-1.376.703-2.747 1.05-4.123.242-.961.401-1.951.729-2.882.4-1.129.349-2.359.892-3.45.253-.507.052-.882-.529-.886-.712-.006-1.469.061-2.131.303-.991.363-1.926.885-2.864 1.38-.352.185-.643.484-.962.732.338.173.674.35 1.015.519.076.038.171.041.246.081.5.27.734.591.599 1.25a140.66 140.66 0 0 1-1.711 7.423c-.302 1.159-.527 2.339-.76 3.514-.216 1.088-.379 2.186-.602 3.272-.049.239-.263.44-.383.669-.343.652-.945.514-1.489.462-.571-.056-.577-.57-.655-.985a1.984 1.984 0 0 1-.004-.648c.204-1.369.279-2.778.671-4.092.359-1.203.394-2.385.367-3.592-.019-.858-.381-1.524-1.152-2.025-1.476-.96-3.107-1.166-4.716-.77-.903.224-1.68.451-2.583.117-.296-.105-.732-.029-1.02.12-1.179.607-2.362 1.218-3.472 1.938-.68.44-.569.787.214 1.08.74.278 1.049.583.988 1.172-.084.815-.192 1.639-.41 2.426-.418 1.521-.963 3.007-1.364 4.532-.157.601-.464.767-.994.769-.947.004-1.491-.599-1.362-1.622.092-.727.315-1.437.454-2.158.349-1.808.944-3.563.841-5.462-.063-1.157-.532-1.919-1.411-2.586-.732-.555-1.556-.698-2.415-.83-2.392-.365-4.308.457-5.856 2.272-.361.425-.503.879-.485 1.425.032.981.417 1.218 1.302.828 1.133-.5 1.923-1.423 2.832-2.203.679-.584 1.829-.625 2.377-.092.464.451.389 2.129-.091 2.66-.267.295-.52.314-.91.247-1.174-.201-2.265.137-3.377.537-1.094.393-1.985 1.067-2.833 1.775-1.022.853-1.943 1.841-2.417 3.149-.509 1.401-.191 2.62 1.088 3.376zm3.412-5.553c1.029-1.075 2.432-1.401 3.864-1.531.432-.04.623.343.562.706a30.453 30.453 0 0 1-.606 2.906c-.199.74-.72 1.153-1.54 1.09-.257-.02-.518-.004-.777-.004v.013c-.043 0-.086.002-.13 0-.722-.031-1.547.12-1.888-.766-.344-.892-.099-1.771.515-2.414z"/><path fill="#FBA900" d="M26.568 10.856c2.028 1.067 4.109 1.264 6.214.175 1.627-.842 2.019-2.233 1.055-3.753-.463-.729-1.068-.857-1.852-.375-.291.18-.566.388-.846.585-.658.462-1.374.673-2.19.685-.947.016-1.563-.368-1.949-1.212-.412-.9-.462-1.741.278-2.515 1.375-1.438 3.044-1.86 4.959-1.486.934.182 1.869.362 2.806.521.981.167 1.966.312 2.951.455.426.062.815.227.778.7-.06.772-.149 1.556-.351 2.301-.59 2.177-1.265 4.33-1.865 6.505-.504 1.831-.922 3.685-1.428 5.516-.302 1.092-.701 2.157-2.006 2.461-.075.017-.124.124-.199.161-.343.168-.86.304-.671.767.086.208.654.29 1.007.302 1.083.038 2.167.014 3.252.014v-.009c1.257 0 2.515.019 3.771-.016.262-.007.632-.15.752-.35.209-.349.112-.758-.23-1.047-.131-.11-.3-.181-.415-.304-.598-.634-1.061-1.203-.677-2.254.537-1.467.79-3.038 1.17-4.563.219-.88.438-1.759.676-2.635.555-2.033 1.129-4.061 1.678-6.096.167-.618.537-1.09 1.067-1.137a53.687 53.687 0 0 1 3.105-.205c.634-.019.785.159.761.753-.01.254-.082.509-.148.758-.22.833-.459 1.662-.674 2.497-.538 2.08-1.072 4.162-1.598 6.246-.323 1.279-.532 2.598-.971 3.836-.409 1.153-.42 2.584-1.858 3.191-.206.088-.243.574-.359.877.228.085.454.241.682.244 1.82.021 3.641.015 5.461.014.13 0 .284.026.383-.033.207-.123.52-.278.543-.451.032-.243-.094-.677-.268-.748-.681-.279-.675-.825-.705-1.396-.05-.967.191-1.867.451-2.794.549-1.954.952-3.947 1.443-5.918.066-.262.254-.537.465-.709.397-.32.824-.629 1.287-.833 1.181-.522 2.849.466 2.88 1.745.019.808-.098 1.639-.286 2.429-.348 1.464-.82 2.898-1.191 4.358-.408 1.611-.635 3.28-1.182 4.839-.344.981-.359 1.928-.413 2.909-.029.504.142.91.418 1.321 1.006 1.494 3.499 2.595 5.331 2.201.414-.09.804-.295 1.217-.395 1.694-.413 2.699-1.594 3.462-3.055a.559.559 0 0 0 .068-.243c.006-.562-.771-1.487-1.427-1.707-.656-.22-1.335.027-1.749.705-.269.441-.475.925-.68 1.401-.253.588-.672.997-1.235 1.277-.806.401-1.87-.081-2.005-.969-.078-.505-.096-1.06.029-1.549.433-1.692.969-3.357 1.413-5.046.471-1.797.926-3.602 1.301-5.422.25-1.212.7-2.387.584-3.679-.111-1.239-.786-2.086-1.829-2.456-1.15-.407-2.385-.827-3.659-.282-.353.151-.753.199-1.135.276-.571.116-.77-.002-.676-.562.166-1.002.426-1.988.667-2.976.262-1.073.566-2.136.801-3.214.037-.169-.202-.573-.308-.571-.681.01-1.449-.077-2.023.205-1.347.66-2.792.839-4.217.999-1.573.18-3.159.212-4.731-.359-1.288-.468-2.699-.585-4.017-.985-2.223-.675-4.475-.95-6.772-.662-2.294.288-4.37 1.078-5.808 3.026-1.222 1.656-1.806 3.412-.886 5.447.489 1.082 1.342 1.752 2.323 2.269zm101.836 43.078c-1.081-.163-1.924.367-2.726.953-.681.499-1.317.534-2.047.118-.405-.23-.868-.429-1.325-.489-1.967-.259-3.897-.166-5.663.883-1.418.843-2.732 1.807-3.35 3.423-.545 1.425-.624 2.838.138 4.247.105.195-.089.792-.278.869-1.191.479-1.876 1.291-2.093 2.561-.037.213-.409.368-.626.549-.111-.215-.29-.419-.323-.646-.167-1.118.405-2.088.742-3.083.569-1.683 1.016-3.39 1.217-5.144.111-.961-.218-1.842-1.067-2.495-.997-.768-2.083-1.079-3.286-.777-.958.24-1.891.592-2.82.933-.782.287-.863.303-1.06-.478-.137-.545-.344-.46-.725-.274-.966.471-1.963.88-2.924 1.361-.492.246-.952.567-1.391.9-.46.348-.477.623.024.83.622.256.757.691.685 1.232a167.517 167.517 0 0 1-.722 4.833c-.075.457-.23.908-.399 1.342-.188.481-.39.966-.663 1.401-.314.497-.828.618-1.376.444-.496-.157-.836-1.836-.771-2.217.214-1.233.456-2.462.697-3.69.333-1.696.688-3.387 1.01-5.084.209-1.101-.127-1.416-1.166-1.038a51.954 51.954 0 0 0-3.45 1.419c-.618.276-.693.567-.205 1.039.809.783.786 1.632.512 2.623a37.465 37.465 0 0 0-.769 3.526c-.279 1.596-.579 3.149-2.357 3.805a.42.42 0 0 0-.21.149c-.166.278-.315.566-.472.851.272.079.543.224.815.227 2.037.019 4.075.01 6.113.01v.014c2.081 0 4.162-.002 6.243.002.508.001 1.002-.073 1.133-.642.107-.467-.146-.835-.597-1.018-.548-.222-.63-.66-.588-1.17.044-.561.045-1.129.135-1.682.281-1.734.64-3.456.872-5.195.09-.67.322-1.168.878-1.481.595-.335 1.211-.65 1.851-.88 1.322-.475 2.358.101 2.324 1.611-.02.894-.363 1.669-.527 2.504-.232 1.177-.411 2.364-.645 3.54-.117.589-.221 1.208-.493 1.73-.219.423-.66.743-1.043 1.061-.151.125-.454.063-.609.186-.218.174-.515.452-.499.664.018.228.323.51.569.623.257.117.593.073.895.076 1.257.009 2.514-.009 3.771.02.937.022 1.14.378.742 1.216-.073.153-.253.273-.28.427-.136.757-.426 1.582.291 2.182.524.438 1.113.879 1.748 1.086 1.726.564 3.463 1.018 5.343.629a13.412 13.412 0 0 0 3.633-1.314c1.012-.543 1.969-1.209 2.628-2.23 1.018-1.581.917-2.961-.478-3.824-.518-.321-1.228-.493-1.842-.469-1.795.069-3.539-.206-5.285-.532-.326-.061-.691-.185-.92-.403-.17-.163-.268-.584-.174-.782.08-.167.577-.329.729-.235.745.463 1.516.209 2.273.178.382-.017.754-.204 1.139-.241 2-.199 3.396-1.355 4.5-2.9 1.026-1.435 1.89-2.954 1.883-4.816-.002-.552.364-.75.893-.594.121.036.222.152.343.177.459.095.921.228 1.384.236.839.012 1.31-.447 1.366-1.22.067-.929-.399-1.515-1.275-1.647zm-12.446 15.104a7.516 7.516 0 0 1 3.604.828c1.209.61 1.207 1.302.152 2.123-.396.308-.797.476-1.29.469-.56-.007-1.119-.002-1.679-.002v-.043c-.602 0-1.209.044-1.807-.011-.709-.066-1.279-.357-1.556-1.108-.292-.794-.128-1.379.588-1.817.617-.378 1.29-.421 1.988-.439zm5.559-8.921c-.27.63-.393 1.339-.738 1.919-.919 1.545-2.288 1.537-3.586.873-.699-.357-.889-.952-.862-2.681.074-1.044.66-2.396 1.841-3.446 1.137-1.012 2.557-.623 3.244.741.448.89.484 1.703.101 2.594zM52.188 77.038c.124-.154.209-.338.313-.508-.194-.057-.387-.164-.582-.166-1.734-.022-3.47-.042-5.204-.027-.595.005-1.189.108-1.783.167.398.477.802.949 1.19 1.435.188.234.367.482.508.746.245.46.211.871-.143 1.313-2.08 2.588-4.116 5.211-6.203 7.792-.704.87-1.516 1.651-2.27 2.482-.354.391-.658.207-.812-.133-.154-.339-.194-.744-.225-1.124-.059-.734.116-1.553-.155-2.189-.379-.892-.286-1.773-.369-2.664-.073-.773-.154-1.547-.22-2.32-.118-1.377-.265-2.755-.328-4.135-.031-.677.462-1.188 1.135-1.364.208-.054.435-.041.639-.105.098-.031.244-.193.227-.252-.043-.14-.154-.335-.269-.361-.291-.064-.6-.06-.903-.06-2.168 0-4.338-.004-6.506.02-.346.004-.875-.216-.947.351-.018.134.502.332.769.51.142.096.257.261.411.31.827.26 1.142.87 1.193 1.672.061.95.124 1.9.175 2.851.028.516-.23.898-.586 1.252-.673.669-1.351 1.337-1.975 2.049-1.501 1.712-2.968 3.455-4.466 5.169-.147.168-.451.349-.623.303-.187-.05-.39-.339-.438-.556a185.65 185.65 0 0 1-1.063-5.074c-.214-1.103-.382-2.215-.551-3.325a49.952 49.952 0 0 1-.277-2.185c-.053-.491.146-.893.382-1.332.365-.682 1.055-.858 1.604-1.24.274-.19.574-.369.45-.655-.076-.173-.492-.277-.757-.278-2.557-.02-5.114-.012-7.671-.012v-.035c-2.039 0-4.08.071-6.115-.022-1.743-.079-3.359.271-4.869 1.062-1.598.837-2.727 2.154-2.967 3.967-.244 1.854.388 3.551 1.447 5.079.716 1.032 1.711 1.563 2.963 1.595.694.018 1.389-.027 2.081.01 1.166.062 2.085-.468 2.935-1.164.663-.542.786-1.186.432-1.968-.587-1.294-1.557-1.677-2.864-1.08-.78.357-1.492.828-2.369 1-.868.171-1.536.034-1.938-.722-1.028-1.93-.663-3.747 1.142-4.997 1.577-1.092 3.472-1.462 5.349-1.74 1.272-.189 2.455.377 3.663.625a4.48 4.48 0 0 1 3.151 2.438c.62 1.271 1 2.688 1.055 4.097a27.636 27.636 0 0 0 1.055 6.647c.216.747.459 1.504.522 2.271.135 1.633.444 3.224.877 4.796.029.106.122.265.197.271.092.008.216-.101.29-.19 1.136-1.352 2.262-2.712 3.4-4.062a78.136 78.136 0 0 1 1.616-1.84c1.525-1.695 3.055-3.386 4.584-5.077.058-.064.121-.126.191-.176.487-.341.804-.218.895.367.059.385-.027.826.132 1.154.397.822.436 1.693.374 2.544-.068.944.413 1.735.523 2.623.164 1.314.371 2.623.595 3.93.04.231.248.435.378.65.182-.134.381-.251.541-.408.215-.209.393-.456.599-.676 1.9-2.046 3.81-4.082 5.701-6.137a59.259 59.259 0 0 0 2.209-2.541c.79-.962 1.528-1.966 2.309-2.935 2.076-2.573 4.166-5.139 6.246-7.713zm25.147 6.112c-.542.261-1.047.607-1.604.821-.335.129-.787.192-1.092.062-.162-.068-.125-.612-.166-.944-.01-.082.016-.173.039-.256.438-1.562.944-3.11 1.033-4.75.008-.166.098-.328.156-.489.444-1.228.389-1.315-.955-1.231-1.462.092-2.842.543-4.223.993-1.123.366-1.354 1.084-.458 1.834.664.556.85 1.174.726 1.944-.211 1.323-.405 2.652-.699 3.957-.387 1.716-.938 3.397-1.277 5.121a33.532 33.532 0 0 1-1.06 4.08c-.823 2.488-3.05 3.599-5.459 2.65-.939-.369-1.478-1.025-1.475-2.051.003-.648-.033-1.321.119-1.94.579-2.342 1.22-4.67 1.858-6.996.123-.448.453-.731.94-.777.216-.02.438.005.648-.037.483-.097.77-.444.778-.902.007-.433-.363-.529-.747-.525-.579.005-.755-.349-.689-.853.061-.465.154-.927.256-1.385.083-.374.227-.734.295-1.11.076-.417.097-.844.142-1.266-.453.038-.907.067-1.36.118-.428.049-.854.161-1.282.177-.96.036-1.516.604-1.757 1.43-.39 1.342-1.289 2.195-2.441 2.858-.297.171-.618.323-.864.552-.123.115-.154.391-.126.58.019.119.209.251.35.303.155.058.342.031.514.044 1.106.085 1.292.303 1.069 1.348-.333 1.559-.685 3.113-1.037 4.667-.189.836-.281 1.721-.625 2.489-.453 1.009-.375 2.03-.338 3.053.014.392.247.82.489 1.152 1.012 1.391 2.587 1.551 4.115 1.778.186.028.396-.123.598-.183 1.216-.365 2.378-.931 3.722-.742.723.101 1.472.018 2.209.018v.017c1.257 0 2.515.006 3.772-.003.442-.003.876-.043 1.073-.549.19-.484.031-.86-.378-1.117-.528-.331-.619-.829-.52-1.359.101-.542.327-1.06.443-1.6.39-1.812.732-3.634 1.144-5.442.16-.705.254-1.517.949-1.931.773-.463 1.584-.904 2.433-1.191 1.111-.376 1.571.008 1.467 1.163-.065.722-.291 1.429-.442 2.143-.214 1.014-.403 2.033-.644 3.041-.277 1.163-.693 2.3-.87 3.474-.144.959-.646 1.559-1.369 2.07-.211.15-.469.253-.633.441-.154.175-.212.434-.312.656.197.057.394.163.591.165 1.951.015 3.902.013 5.854.016.086 0 .173-.009.259-.017.453-.04.5-.406.603-.736.13-.414-.111-.529-.444-.615-.684-.179-.829-.705-.778-1.314.036-.429.088-.865.199-1.279.5-1.882 1.089-3.742 1.517-5.638.276-1.223.733-2.427.219-3.771-.632-1.67-2.7-3.064-4.455-2.216z"/><path fill="#FBA900" d="M15.432 35.208c1.42.744 2.954.545 4.459.554 1.414.009 2.467-.654 3.214-1.841.402-.64.343-1.6-.154-2.168-.628-.72-1.421-.909-2.196-.454a9.627 9.627 0 0 0-1.472 1.058c-.899.79-1.979.833-2.917.39-.908-.429-1.413-1.38-1.512-2.438-.169-1.792.348-2.758 1.964-3.585a10.209 10.209 0 0 1 4.338-1.108c1.775-.06 3.554-.027 5.331-.032 1.502-.004 1.737.207 2.164 1.656.36 1.22.754 2.434 1.199 3.625a93.606 93.606 0 0 0 1.677 4.117c.272.636.284 1.251.097 1.899-.451 1.565-.995 3.115-1.296 4.709-.227 1.206-.713 2.067-1.792 2.649-.397.214-.385.672-.024.974.21.178.516.336.781.339 2.167.031 4.335.021 6.502.029.397.001.685-.111.692-.57.006-.386.053-.733-.463-.93-1.144-.438-1.253-.601-1.129-1.821.091-.895.396-1.771.465-2.666a4.962 4.962 0 0 1 .979-2.61c.839-1.14 1.741-2.234 2.621-3.343 1.339-1.688 2.728-3.338 4.009-5.069 1.138-1.538 2.289-3.001 4.239-3.558.398-.114.59-.63.351-.915-.141-.167-.431-.29-.655-.291-2.037-.011-4.074.005-6.111.029-.205.003-.473.056-.598.191a.996.996 0 0 0-.241.666c.006.126.277.315.445.337.427.054.866.016 1.299.039.704.038.796.154.404.734-1.105 1.633-2.257 3.234-3.394 4.845-.198.282-.507.524-.601.833-.278.918-.994 1.485-1.588 2.147-.576.642-.863.61-1.18-.16a175.134 175.134 0 0 1-2.136-5.421c-.379-1.014.044-1.952 1.034-2.512.298-.167.638-.283.892-.5.158-.137.268-.424.254-.634-.008-.124-.29-.3-.468-.327-.383-.059-.778-.046-1.167-.046-2.167-.004-4.335-.002-6.502-.002v.017c-1.691 0-3.382-.027-5.072.007-1.339.028-2.693.029-4.015.216-3.295.467-5.904 2.638-5.66 6.463.129 2.056 1.121 3.528 2.933 4.478zm49.375 33.81c.556.039 1.102.215 1.657.287.552.071 1.142.217 1.661.099.91-.207 1.826-.503 2.66-.922 1.591-.801 2.902-1.895 3.77-3.548.743-1.413 1.064-2.894 1.152-4.423.059-1.022-.178-2.063-.301-3.092-.019-.16-.129-.315-.217-.461-1.401-2.292-4.16-3.175-6.674-2.123-.508.213-.957.364-1.404-.155-.114-.132-.515-.158-.701-.065-1.426.713-2.824 1.484-4.251 2.198-.396.199-.5.503-.419.843.087.364.214.813.481 1.022.643.5.599 1.066.434 1.741-.431 1.759-.802 3.533-1.244 5.289-.249.99-.619 1.95-.884 2.937a27.362 27.362 0 0 0-.611 2.755c-.164 1.02-.454 1.371-1.487 1.635-.364.093-.706.282-1.044.453-.028.014.017.314.074.332.284.089.583.168.878.176.91.021 1.821.007 2.732.007v.012c.39 0 .781.003 1.171-.001.737-.007 1.475.002 2.21-.045.172-.011.443-.196.47-.339.031-.161-.131-.393-.268-.54-.109-.117-.362-.109-.451-.23-.193-.26-.441-.562-.456-.857-.035-.733.014-1.475.092-2.207.061-.599.33-.821.97-.778zm.259-3.905c.376-1.419.684-2.856 1.068-4.271.258-.945.584-1.873.909-2.797.356-1.007 1.161-1.304 2.217-1.414.485.234 1.024.394 1.441.715 1.073.825 1.646 2.964 1.206 4.223-.084.241-.241.49-.226.727.073 1.106-.461 1.994-.981 2.887-.994 1.709-2.803 2.396-4.676 1.796-.929-.298-1.214-.9-.958-1.866z"/><path fill="#FBA900" d="M90.612 60.783c-.031-.692-.018-1.385-.012-2.078.008-.957-.398-1.746-.995-2.45-1.436-1.692-3.798-2.235-5.876-1.413-.516.204-1.113.617-1.605-.148-.07-.111-.499-.102-.692-.006a189.362 189.362 0 0 0-4.351 2.226.887.887 0 0 0-.349 1.227c.082.147.211.277.341.389.668.575.816 1.242.552 2.097-.278.904-.424 1.848-.627 2.775-.183.837-.279 1.707-.567 2.507-.635 1.767-1.034 3.589-1.423 5.415-.235 1.109-.581 1.475-1.754 1.732-.273.059-.525.235-.772.381-.203.119-.202.294.026.364.325.099.665.192 1.001.203.908.027 1.818.009 2.727.009v-.003c1.039 0 2.078.021 3.115-.019.193-.008.44-.237.537-.428.053-.102-.124-.451-.263-.499-.978-.333-1.056-.999-.814-1.866.102-.368.057-.775.099-1.162.095-.892.364-1.11 1.281-.994.383.048.755.186 1.136.261.379.075.778.217 1.143.164 2.06-.307 3.985-.946 5.5-2.475 1.704-1.719 2.753-3.714 2.642-6.209zm-5.633 5.343c-1.369 1.171-2.845 1.426-4.186.673-.862-.485-.955-.848-.681-1.803.416-1.449.751-2.92 1.121-4.383.18-.711.308-1.442.555-2.129.336-.933 1.059-1.836 2.429-1.713 1.009-.144 1.936.685 2.384 1.858.745 1.948.178 5.956-1.622 7.497zm-6.636-32.759c.906-.078.936-.103 1.016-.833.084-.774.05-.826-.716-1.089-.841-.287-.9-.302-.742-1.196.141-.799.341-1.611.662-2.353 1.017-2.351 1.869-2.081 3.256-.647.858.887 1.286.818 2.068-.175.725-.92.591-1.821-.34-2.556-1.384-1.091-2.924-.986-4.428-.468-1.38.475-2.417 1.476-3.084 2.784-.505.991-1.048 1.991-1.339 3.052-.27.985-.663 1.536-1.737 1.511-.538-.013-.872.279-.883.891-.006.276-.159.549-.245.825.317.088.631.201.954.259.722.13.904.316.863 1.014a2.844 2.844 0 0 1-.133.633c-.817 2.707-1.604 5.423-2.47 8.114-.492 1.528-1.265 2.925-2.248 4.216-.889 1.169-2.145 1.656-3.449 2.09-.168.056-.405-.072-.606-.131-.854-.251-1.698-.539-2.561-.754-1.357-.338-2.609 1.424-2.452 2.646.076.587.318 1.011.968 1.359.815.438 1.599.217 2.467.383.611-.053 1.356.037 1.974-.204 1.183-.461 2.353-1.016 3.42-1.701a11.524 11.524 0 0 0 3.54-3.528c1.547-2.439 2.692-5.041 3.514-7.827.5-1.694.942-3.397 1.37-5.106.251-1.005.366-1.123 1.361-1.209zm37.77 50.918c-2.338-1.759-4.918-2.452-7.738-1.192-1.014.452-1.935 1.061-2.496 2.086-.834 1.525-.66 3.595.498 4.565.582.487 1.315.791 1.972 1.192.944.576 1.912 1.121 2.805 1.768.475.344.87.838 1.202 1.331.559.832.475 1.533-.211 2.212-.938.928-2.063 1.387-3.254 1.217-.407 0-.668.009-.927-.002-1.428-.056-2.289-.921-2.337-2.356-.013-.389.023-.78.003-1.168-.019-.347-.282-.473-.538-.31-.981.62-1.995 1.209-2.881 1.949-.786.657-.828 1.344-.148 2.178.895 1.1 2.031 1.976 3.585 2.008.389.008.781.038 1.164.103 1.873.316 3.682.049 5.449-.584 2.217-.794 3.493-2.306 3.865-4.689.24-1.537-.261-2.622-1.261-3.717-.8-.876-1.811-1.281-2.804-1.777-.725-.362-1.477-.671-2.193-1.048-.875-.46-.897-1.271-.83-2.129.071-.913.695-1.498 1.403-1.687 1.353-.363 2.753-.299 3.963.582.221.161.343.46.511.695-.222.116-.442.236-.667.344-.117.056-.243.092-.365.139-.609.232-.816.698-.844 1.323-.026.596.214.969.726 1.249.887.484 1.767.492 2.517-.163.668-.584 1.088-1.443.949-2.275-.111-.667-.574-1.436-1.118-1.844zm-15.606-.103c-.535.091-1.054.311-1.561.517a117.53 117.53 0 0 0-3.43 1.457c-.166.074-.351.29-.364.453-.009.116.238.287.401.376.853.468 1.115.867.953 1.599-.166.754-.369 1.499-.554 2.25-.304 1.24-.706 2.465-.881 3.723-.159 1.144-.798 1.83-1.744 2.214-1.116.454-2.268-.072-2.304-1.526-.037-1.507.438-2.885.711-4.306.405-2.112 1.015-4.186 1.547-6.273.088-.345-.052-.502-.367-.506-.345-.004-.706-.016-1.032.075-1.15.319-2.292.664-3.427 1.031-.864.278-1.043 1.007-.302 1.512.585.399.696.858.581 1.435a37.428 37.428 0 0 1-.628 2.622c-.398 1.438-.916 2.849-.865 4.465-.147 1.073.007 2.082.993 2.937.632.549 1.372.715 2.076.912.719.201 1.539.171 2.242-.327.348-.246.76-.401 1.146-.591.362-.179.666-.315.988.16.14.206.624.317.911.262 1.095-.214 2.177-.5 3.256-.784a6.545 6.545 0 0 0 1.212-.439c.252-.124.381-.362.045-.588-.247-.167-.509-.32-.724-.522-.179-.166-.426-.396-.426-.597.002-.9-.002-1.815.153-2.697.191-1.092.545-2.154.812-3.234.403-1.626.779-3.259 1.195-4.882.154-.613.036-.839-.613-.728z"/><path fill="#FBA900" d="M79.65 45.095c1.811 1.161 3.691.828 5.576.284.519-.149 1.055-.338 1.498-.636.781-.525 1.574-1.073 2.227-1.744 1.951-2.006 2.931-4.47 3.199-7.222.069-.949-.116-1.811-.603-2.616-1.067-1.761-2.596-2.729-4.681-2.608-2.119.124-3.956 1.041-5.652 2.251-.517.369-1.078.74-1.45 1.237-.795 1.056-1.592 2.127-1.968 3.438-.487 1.697-.64 3.397-.056 5.09.355 1.035.953 1.912 1.91 2.526zm1.892-4.222c.393-1.792.834-3.573 1.287-5.351.114-.45.277-.922.549-1.285.267-.355.671-.652 1.077-.845.335-.159.758-.165 1.144-.179 1.914-.064 2.635 1.479 2.624 3.06-.018.099-.079.436-.147.771-.094.457-.267.911-.278 1.37-.034 1.331-.54 2.515-1.172 3.625-.64 1.126-1.641 1.725-3.027 1.562-1.396-.164-2.359-1.353-2.057-2.728zM53.27 44.977c1.931 1.237 3.616 1.777 5.863.268.45-.302.916-.867 1.549-.205.104.107.417.015.78.015 1.037-.188 2.218-.394 3.396-.623.206-.04.398-.168.59-.267.326-.167.326-.432.056-.597-.995-.611-1.038-1.492-.796-2.489.439-1.802.867-3.608 1.296-5.412.228-.957.5-1.907.655-2.876.085-.534.649-.97.32-1.58-.537.128-1.081.228-1.608.387-1.274.386-2.541.791-3.806 1.207-.186.061-.34.22-.509.334.156.112.307.233.471.332.221.134.439.299.682.367.553.154.601.557.563 1.016a2.76 2.76 0 0 1-.097.508c-.598 2.153-1.171 4.313-1.81 6.454-.387 1.294-1.145 1.691-2.603 1.511-.947-.117-1.501-.705-1.458-1.651.033-.732.099-1.474.259-2.188.511-2.276 1.085-4.536 1.6-6.811.102-.447.052-.929.072-1.394-.361.093-.722.19-1.083.28-.126.031-.259.037-.381.078-1.226.407-2.455.806-3.669 1.245-.191.068-.428.334-.427.507.001.172.245.398.436.503.741.41.841.502.683 1.287-.178.88-.415 1.749-.657 2.616-.39 1.397-.725 2.819-1.244 4.168-.242.628-.057 1.034.108 1.574.168.549.294 1.131.769 1.436zm53.28-15.554c-1.555.343-3.048.756-4.47 1.445-.776.376-1.522.816-2.297 1.195-.659.322-.77.312-.896-.362-.11-.586-.419-.707-.89-.685-.343.016-.734-.004-1.015.153-1.35.748-2.748 1.435-3.735 2.702-.201.257-.167.378.055.49 1.075.543 1.282 1.22.833 2.422-.632 1.688-.966 3.491-1.379 5.255-.165.702-.552 1.134-1.173 1.448-.376.191-.765.425-1.037.735-.389.445-.209.815.387.833 1.04.032 2.081.009 3.122.009v.018c1.041 0 2.082.022 3.122-.008.609-.018.923-.505.703-1.053a.902.902 0 0 0-.429-.435c-.785-.36-.864-.9-.684-1.704.302-1.347.428-2.732.661-4.094.123-.714.276-1.429.496-2.118.094-.295.342-.607.608-.769 1.056-.647 2.119-1.297 3.234-1.833 1.429-.688 2.885-1.364 4.467-1.617.967-.155 1.92-.561 2.943-.24 1.123.352 1.512 1.098 1.089 2.235-.131.354-.271.71-.453 1.038-.168.304-.062.487.183.643 1.274.806 2.525.773 3.735-.203 1.31-1.056 1.836-3.126.75-4.489-.832-1.043-2.017-1.308-3.194-1.391-1.581-.112-3.148.029-4.736.38zm-54.773 3.951c-2.741-3.08-5.646-3.256-8.715-1.169-2.306 1.567-4.037 3.735-4.904 6.467-.233.733-.401 1.487-.565 2.24-.167.758.244 1.42.389 2.128.174.854.628 1.496 1.254 2.043 1.745 1.524 3.805 1.322 5.768.781 2.185-.604 3.997-1.949 5.37-3.773 1.24-1.649 2.351-3.385 2.216-5.675.163-1.073-.047-2.181-.813-3.042zm-3.036 3.373c-.35 1.892-.697 3.796-1.761 5.455-.948 1.475-2.057 1.9-3.396 1.315-.957-.417-1.594-1.094-1.737-2.227-.29-2.282-.142-4.51.913-6.564.85-1.655 2.6-2.525 4.048-1.901.406.176.855.486 1.057.858.51.937.973 1.924.876 3.064zm3.993 47.52a390.783 390.783 0 0 0-3.646 1.551c-.395.171-.795.342-1.158.568-.278.173-.625.346-.118.753 1.191.957 1.019 2.282.778 3.562-.246 1.303-.692 2.576-.856 3.887-.149 1.183-.767 1.96-1.64 2.622-.235.179-.538.265-.812.393-.297.139-.509.327-.436.699.08.408.413.403.708.407 1.04.014 2.079.006 3.119.006v.007c1.083 0 2.167.022 3.25-.008.631-.018.838-.398.564-.936-.056-.113-.159-.203-.243-.301-.711-.833-.955-1.714-.325-2.714.085-.136.076-.335.1-.505.203-1.396.401-2.791.603-4.186.019-.129.055-.254.08-.381.292-1.434.586-2.867.873-4.301.034-.169.045-.344.047-.517.009-.65-.288-.857-.888-.606zm72.994-9.508c-.862.053-1.329.608-1.703 1.236-.689 1.162-.984 2.462-1.129 3.797-.19 1.743-.384 3.486-.577 5.228-.009.086-.007.188-.054.252-.47.646-.355 1.401-.411 2.125-.076.983.026 1.986-.428 2.924-.124.255-.076.595-.085.687 0 .426-.024.646.008.857.022.154.118.297.181.445.115-.1.278-.179.334-.304.243-.538.452-1.092.678-1.637 1.537-3.721 3.098-7.432 4.598-11.168.316-.79.489-1.662.585-2.512.141-1.259-.727-2.007-1.997-1.93zm-30.655-24.13c-.022 1.307 1.004 2.331 2.343 2.339 1.407.008 2.299-.895 2.298-2.326 0-1.274-1.014-2.354-2.216-2.362-1.204-.008-2.405 1.156-2.425 2.349zm25.86 43.007c-1.457.185-2.435 1.741-2.003 3.188.239.804.906 1.115 1.698.825 1.142-.416 1.801-1.416 1.732-2.578-.01-.874-.666-1.532-1.427-1.435zM53.677 78.667c-.444.197-.806.588-1.191.908-.55.456-.591 1.125-.305 1.637.21.374.795.538.973.648 1.077.081 2.555-1.099 2.678-1.87a.641.641 0 0 0-.03-.251c-.288-1.14-1.04-1.553-2.125-1.072z"/></svg>