<svg xmlns="http://www.w3.org/2000/svg" viewBox="0 0 1388.9 766.6"><path d="M171 298.6c14-6.5 24.3-15.4 30.9-26.5 6.6-11.2 10-23.8 10.1-37.9-.1-6.2-.3-12-.5-17.5s-.6-11.2-1.2-17l-6.4-78.7c-.4-5.9.6-10.8 3-14.5 2.4-3.7 6.4-6.4 12-7.9l4.5-1.5c3.1-.9 6-2.4 8.4-4.6 1.9-1.9 2.8-4.6 2.8-8.2.2-3.2-1-6.3-3.1-8.7-2.1-2.1-5.2-3.2-9.2-3.2h-60.9c-4 0-7 1.1-9.2 3.2-2.3 2.3-3.5 5.4-3.3 8.7-.1 3 .8 5.9 2.6 8.2 1.8 2.1 4.6 3.7 8.6 4.8l4.5 1.5c4.6 1.2 8 3.4 10.2 6.6s3.6 7.8 4 14l5.9 81c.4 4.7.6 9.5.9 14.4.2 4.8.3 10.9.2 18.3.1 9.8-1.8 18.3-5.6 25.5-3.8 7.1-9.7 12.9-16.9 16.5-7.4 3.8-16.2 5.7-26.3 5.7-13.2 0-23.6-4-31.1-12.1s-11.2-21-11.1-38.9c.1-4 .2-8.7.2-14.3s.2-11.7.7-18.4l5.5-87c.3-3.4 1.1-5.9 2.4-7.6 1.4-1.8 3.4-3.1 5.6-3.7l7.3-1.6c3.8-1.2 6.7-2.8 8.6-4.7 1.9-1.9 2.8-4.8 2.8-8.5.1-3.2-1.1-6.3-3.3-8.5-2.2-2.1-5.3-3.2-9.2-3.2H12.7c-4.2 0-7.4 1.1-9.5 3.2C1 77.7-.2 80.8 0 84c0 7 3.9 11.4 11.7 13.2l6.1 1.7c3.8 1.1 6.4 2.4 7.7 4s1.8 4.1 1.6 7.4l-5.4 85.1c-.4 5.2-.8 10.2-1.2 15.1-.3 4.9-.6 9.4-.9 13.5-.3 3.5-.3 6.9-.1 10.4-.1 15.3 3.5 28.5 10.8 39.6 7.3 11.1 18.2 19.6 32.5 25.6 14.4 5.9 32.2 8.9 53.5 8.9 22.5-.1 40.7-3.4 54.7-9.9zm77.8-202.9l4.8 2.3c2.5 1.2 4.7 2.9 6.4 5.1 1.4 2 2.8 5.2 4.1 9.6L315.3 268c1.1 3.2 2.1 6 2.9 8.6.7 2.1 1.2 4.3 1.2 6.6v8.9c0 3.7 1 6.6 3 8.4 1.9 1.8 4.5 2.8 7.2 2.8h59.7c2.8.1 5.5-.9 7.5-2.8s3.1-4.6 3.1-8.1v-8.7c0-3.1.4-6.3 1.2-9.3.8-3.1 2.1-7.4 4-12.8l43.8-138.5c2.6-7.9 5.2-13.7 7.8-17.4 2.6-3.6 6.1-6.4 10.2-8.2l5-2.3c2.3-1.1 4.2-2.7 5.8-4.7 2.9-4.8 2.3-10.8-1.4-15-2.1-2.1-5.4-3.2-9.8-3.2h-51.6c-4.6 0-8 1-10 3.1-2.1 2.3-3.2 5.3-3 8.4 0 3.1.6 5.4 1.9 7 1.7 1.9 3.7 3.4 6 4.5l4.3 2.1c5.6 2.2 9 5.2 10.3 9.1 1.3 3.9 1 8.5-.7 13.8l-39.4 123.2-40.6-127.3c-1.8-5.3-2.3-9.3-1.6-12.2.7-2.9 2.7-5.2 5.4-6.4l5.1-2.2c2.5-1.1 4.7-2.7 6.4-4.7 1.4-2 2.1-4.4 2-6.8.2-3.1-1-6.2-3.2-8.4-2.1-2.1-5.6-3.1-10.3-3.1h-91.7c-4.7 0-8.2 1-10.4 3.1-2.3 2.2-3.5 5.3-3.3 8.4-.4 4.9 2.3 9.6 6.7 11.8zm326.7 170c0 3-.7 5.3-2 6.9-1.7 1.8-3.9 3.2-6.3 4l-6.3 2.6c-5.4 2.5-8.1 6.7-8.1 12.5-.1 3.1 1.1 6.2 3.3 8.4 2.2 2.1 5.6 3.1 10.1 3.1h121.3c4.2-.1 8.4.4 12.5 1.4 3.5.9 6.7 1.8 9.4 2.6s5.6 1.2 8.4 1.2c4.9 0 8.5-1.4 11-4.3s4.6-7.4 6.3-13.5l14-56.8c1-4.3.7-7.8-.7-10.6-1.5-2.8-4-4.6-7.7-5.5-3-.9-6.2-.7-9.1.5-2.6 1.2-4.8 3.7-6.6 7.6l-11.6 22.4c-3.7 8-7.7 14.3-11.8 18.7-3.6 4.1-8.1 7.3-13.2 9.3-4.9 1.8-10.2 2.7-15.4 2.6h-11.5c-3.9 0-6.8-1-9-2.9-2.1-1.9-3.2-5.2-3.2-9.8V110c-.2-2.5.6-5 2.2-6.9 1.7-1.8 3.8-3.2 6.1-4l6.4-2.6c5.3-2.4 7.9-6.6 7.9-12.5 0-3.7-1.1-6.5-3.3-8.5s-5.5-3-9.9-3h-92.6c-4.5 0-7.9 1-10.1 3s-3.3 4.9-3.3 8.5c0 5.8 2.7 10 8.1 12.5l6.3 2.6c2.4.7 4.6 2.1 6.3 4 1.4 2 2.1 4.5 2 6.9v155.7zM777.2 124c6.8 5.9 15.9 8.8 27.3 8.8 11.6 0 20.7-2.9 27.4-8.8s10.1-13.8 10.1-23.7c0-9.7-3.4-17.5-10.1-23.3-6.8-5.9-15.9-8.8-27.3-8.8s-20.5 2.9-27.3 8.8c-6.8 5.9-10.2 13.7-10.2 23.3 0 10 3.4 17.8 10.1 23.7zm-12 59.8l3.5 1c1.5.7 2.7 1.8 3.6 3.1.9 1.4 1.4 3.9 1.4 7.4v73.4c.1 3.1-.2 6.1-.8 9.1-.5 1.8-1.8 3.2-3.5 3.9l-3.1 1.3c-1.9 1.1-3.5 2.7-4.8 4.5-1.1 1.8-1.7 3.8-1.7 5.9-.1 2.6 1 5.2 2.9 7 1.9 1.8 4.8 2.7 8.7 2.7h71c3.6 0 6.4-.9 8.3-2.7 1.9-1.8 3-4.4 2.9-7 .1-2.1-.4-4.3-1.6-6.1-1.3-1.7-2.9-3.1-4.9-4.1l-3.3-1.5c-1.4-1.1-2.5-2.5-3.1-4.1-.7-1.7-1-4.7-1-9.1V156.8c.1-3.1-1-6-2.9-8.4-1.9-2.3-4.8-3.5-8.5-3.5-2.7 0-5.4.5-7.9 1.3-2.8.9-6.4 2.2-11.1 3.8l-40.6 14.2c-2.8 1-5.3 2.6-7.4 4.6-2.8 3.2-3.1 7.9-.7 11.5 1.2 1.5 2.8 2.8 4.6 3.5zm97.2 168c-.1 6.8 2.9 13.2 8.1 17.6 5.4 4.8 14.1 8.5 26.2 11 12 2.5 28 3.8 47.9 3.8 33.7 0 59.1-5.3 76.2-15.8 17.2-10.5 25.7-24.2 25.7-41 0-9.4-2.3-17.2-6.8-23.4s-11.9-11.2-21.9-14.7c-10-3.5-23.6-6.2-40.8-8.1-12.1-1.3-21.1-2.5-27.1-3.5-5.9-1-9.8-2-11.6-3.1-1.8-1.1-2.7-2.4-2.7-3.8-.1-1.3.4-2.5 1.3-3.4.6-.5 1.2-1 1.9-1.4 3.9.3 8 .4 12.2.4 16.8 0 31.4-2.6 43.7-7.8 12.3-5.2 21.9-12.4 28.8-21.8 6.9-9.3 10.3-20.2 10.3-32.6 0-10.4-3.1-20.5-9-29-6-8.9-15-16-27-21.4-2.1-.9-4.3-1.8-6.5-2.6 1.2-2.2 2.3-4 3.4-5.3 2.1-2.7 5.3-4.3 8.8-4.3 2.8-.1 5.5.8 7.7 2.6 2 1.9 3.9 3.9 5.7 6.1 1.9 2.4 4.2 4.5 6.8 6.2 2.6 1.8 6.1 2.7 10.4 2.7 6.8 0 12.1-2.4 15.9-7.2 3.8-4.8 5.7-11.2 5.7-19.2 0-8.8-2.5-15.7-7.5-20.5-5-4.9-11.7-7.3-20.1-7.3-10.7 0-21 3.8-29.1 10.8-8.6 7.2-15.5 17.9-20.8 32-7.5-1.4-15.7-2.1-24.5-2.1-18.2 0-33.7 2.7-46.7 8.1-13 5.4-22.9 12.8-29.9 22.3s-10.4 20.6-10.4 33.3c-.1 10.5 3.3 20.8 9.7 29.1 6.5 8.6 16 15.4 28.6 20.4 4.9 1.9 10.1 3.4 15.8 4.6-6.4.9-11.9 2.2-16.5 3.9-8.5 3.2-14.5 7.3-18.2 12.4-3.6 4.8-5.5 10.5-5.5 16.5-.1 5.6 1.7 11.1 5.1 15.5 3.3 4.2 9 7.7 17.1 10.7-13.3 1.6-23 4.4-29.1 8.5-7.5 5.1-11.3 12-11.3 20.8zm69.8-169c.3-5.8 1.4-10.3 3.2-13.5 1.5-2.9 4.3-5 7.5-5.4 5.4-.7 10.1 2.7 14.2 10.1 4.1 7.4 7.2 18.4 9.4 33.2 2 13 2.1 22.8.5 29.6-1.7 6.8-5 10.5-9.9 11.3-3.5.3-6.8-1.1-9.9-4.2-3.1-3.1-5.7-8-8-14.6-2.6-8.2-4.5-16.6-5.7-25.1-1.1-7.1-1.5-14.2-1.3-21.4zm-19.3 147.1c.3-1.4.9-2.7 1.7-3.9 7.1 1.7 15.5 3.1 25.4 4.3 13.4 1.4 23.7 2.9 31 4.5 7.3 1.5 12.3 3.4 15.2 5.5 2.7 1.7 4.3 4.7 4.3 7.9.1 2.9-1.1 5.7-3.1 7.8-2.1 2.1-5.7 3.7-10.7 4.8-5.1 1.1-12.2 1.7-21.4 1.7-16.4 0-27.7-2.4-33.8-7.2-6-4.5-9.5-11.6-9.2-19.1-.2-2.3.1-4.4.6-6.3zm147.3-236.8l3.3.7c1.6.7 2.9 1.9 3.9 3.3.8 1.3 1.2 3.8 1.2 7.4v164.4c0 4.3-.3 7.3-1 9.1-.5 1.6-1.6 3-3.1 3.9l-3.3 1.3c-1.9 1.1-3.6 2.6-4.8 4.4-1 1.8-1.6 3.9-1.5 6-.1 2.6.9 5.2 2.8 7 1.9 1.8 4.6 2.7 8.2 2.7h70.5c7 0 10.6-3.3 10.6-9.9.1-3.8-1.8-7.3-5-9.2l-3.3-1.5c-1.6-1-2.7-2.5-3.3-4.3-.7-1.9-1-5.1-1-9.7V194c2.8-2.3 5.9-4.3 9.2-5.7 2.8-1.2 5.8-1.8 8.9-1.9 5 0 8.7 1.6 11 4.8s3.8 7.9 4.5 14.2l5.9 63.7c.4 4.6.2 7.8-.6 9.6-.7 1.6-1.8 3-3.2 4.1l-3.6 1.5c-3.3 1.9-5.2 5.5-5.1 9.2 0 6.6 3.5 9.9 10.4 9.9h71.8c3.5 0 6.2-.9 8.1-2.7 1.9-1.8 2.9-4.4 2.8-7 .1-2.1-.4-4.2-1.5-6-1.2-1.8-2.8-3.3-4.6-4.4l-3.5-1.5c-1.4-1-2.4-2.4-2.9-4-.7-3-1.2-6-1.4-9.1l-7.6-77.4c-1.3-14.3-5.5-25.5-12.4-33.7-6.9-8.1-16.9-12.2-29.9-12.2-8.7 0-18.2 2.8-28.3 8.5-8.1 4.5-17.5 11.5-28.1 21V65.7c.1-3-.9-5.9-2.7-8.2-1.9-2.2-4.6-3.3-8.2-3.3-2.8 0-5.5.4-8.2 1.1-3.8 1.1-7.5 2.4-11.1 3.9l-40.4 14.2c-3.6 1.3-6.2 2.8-7.6 4.5-1.5 1.8-2.2 4.2-2.1 6.5-.1 1.9.5 3.7 1.6 5.2s2.7 2.7 4.6 3.5zm301.9 79.7c8.5 0 14.6-1.4 18.3-4.1 3.6-2.4 5.7-6.4 5.6-10.7.1-2.4-.8-4.8-2.6-6.4-1.7-1.5-4.3-2.2-7.6-2.2h-35.3v-30c0-4.1-1.1-7.2-3.2-9.2-2.1-2.1-4.9-3.2-7.8-3.1-3.1.1-6.2 1-8.8 2.7-3.3 2.1-6.3 4.7-8.7 7.8l-25.4 24.4c-1.7 2.2-3.6 4.2-5.8 5.9-1.5 1-3.2 1.6-5 1.6h-7.8c-3-.1-6 .9-8.2 2.9-2.1 1.9-3.2 4.7-3.1 7.5-.1 2.1.4 4.1 1.5 5.9 1.2 1.8 3 3.2 5 4l5.4 1.8c1.9.9 3.6 2.3 4.9 3.9 1 1.4 1.6 3.7 1.6 6.9V256c0 17.6 4.6 30.5 13.8 38.9 9.2 8.3 22.6 12.5 40.2 12.5 10.9 0 20.5-2.1 29-6.3 8.1-3.9 15-9.8 20.1-17.2 4.9-7.3 7.6-15.8 7.8-24.6.1-3.1-.4-5.3-1.6-6.5-1.1-1.2-2.6-1.9-4.2-1.9-2 1.1-3.7 2.5-5.2 4.2-1.6 1.8-3.2 3.7-4.9 5.7-1.7 2-3.7 3.7-5.9 5.2s-4.9 2.3-7.6 2.2c-5.5 0-9.6-2-12.1-6-2.6-4-3.9-9.9-3.9-17.7V173h21.5zM302 477.2c-13.7-5.9-30.5-8.9-50.5-8.9H151c-4.6 0-8.2 1.2-10.7 3.6-2.5 2.5-3.9 5.9-3.8 9.4-.2 2.2.5 4.3 1.9 6 1.6 1.7 3.4 3.1 5.4 4.4l6.8 2.2c2.6 1.2 4.1 2.8 4.5 4.9s0 5.2-.8 9.5c-.8 2.6-2 7.1-3.6 13.3-1.6 6.2-3.6 13.6-5.8 22.1s-4.6 17.6-7.2 27.2c-2.6 9.6-5.1 19.1-7.7 28.7-2.5 9.6-5 18.6-7.3 27.1s-4.3 15.9-6 21.9c-1.7 6.1-2.9 10.5-3.5 13.1-.6 2.6-1.6 5.1-3.1 7.3-1.4 1.7-3.2 3-5.3 3.7l-7.6 2.5c-2.4 1.1-4.5 2.8-6.1 4.9-1.8 2.3-2.7 5.1-2.6 8-.2 2.9.6 5.7 2.4 8 1.7 2.1 4.9 3.2 9.6 3.2H187c4.8 0 8.4-1.2 10.7-3.5 2.3-2.5 3.6-5.8 3.5-9.2.1-2.5-.6-4.9-2.1-6.8-1.6-1.9-3.4-3.5-5.5-4.7l-6.3-2.3c-1.5-.8-2.8-1.9-3.9-3.2-.8-1.2-.8-3.8.1-8 .8-3.2 1.9-8 3.4-14.3 1.5-6.3 3.4-13.7 5.6-22.1 1-3.8 2-7.6 3.1-11.6 5.5 1.1 11.8 1.7 18.8 1.9l14.2 61.4c1.3 5.6 3.7 10.9 6.9 15.7 2.9 4 6.9 7.1 11.5 8.9 5.4 2 11.2 2.9 16.9 2.8 13.8.1 27.3-3.9 38.8-11.5 11.7-7.6 20.7-18.7 25.8-31.8 1.4-3.7 1.9-7 1.3-9.7-.3-2.5-2-4.6-4.3-5.5-1.6-.5-3.4-.5-5 0s-3 1.3-4.2 2.5c-2.1 2.1-4.4 3.9-6.9 5.4-2 1.3-4.4 2-6.8 2-2 0-3.9-.7-5.4-1.9-1.8-1.4-3.2-3.1-4.2-5.1-1.2-2.4-2.2-4.9-2.9-7.5L280 605.7c16.1-6.1 29.1-14.5 39.1-25.3 9.9-10.5 16.3-23.9 18.2-38.3 2.6-15.3.8-28.4-5.4-39.4-6.3-11.1-16.2-19.5-29.9-25.5zm-33.1 57.3c-1.4 11.8-4.3 22.1-8.8 30.9-4.4 8.9-10.2 15.7-17.4 20.6-7.4 4.9-16.1 7.5-25 7.3-5.6.1-11.1-.5-16.6-1.6 1.9-7.2 3.8-14.4 5.9-21.6 2.6-9.4 5.1-18.2 7.3-26.5s4.1-15.5 5.7-21.7 2.8-10.5 3.7-13c1.3-4.9 3.7-9.4 6.9-13.2 3-3.3 7.7-5 14.2-5 5.1-.1 10 1.6 14.1 4.6 4.1 3.1 7.1 7.7 9.1 14.1 1.9 6.4 2.2 14.7.9 25.1zm254.5 20.1c-4.6-3.5-11.8-6.3-21.5-8.4s-22.2-3.1-37.4-3.1c-14.2-.2-28.3 1.9-41.8 6.2-12 3.8-23.2 9.5-33.3 17-9.4 7-17.7 15.3-24.7 24.7-6.7 8.9-12 18.8-15.8 29.2-3.6 9.8-6 20.1-6.9 30.5-1.3 17.6 1.9 30.8 9.5 39.5s18.1 13.1 31.4 13.1c9.3.2 18.5-1.6 27.1-5.2 8.3-3.7 15.6-9.1 21.5-16 3.3-3.9 6.4-8 9.1-12.4-.1 2.2-.2 4.4-.2 6.3 0 8.5 2.1 15.2 6.4 20 4.2 4.8 10.8 7.3 19.7 7.3 11.9.2 23.7-3.1 33.8-9.4 9.7-5.9 17.2-14.7 21.5-25.2 1.8-5.1 2.6-8.9 2.1-11.5-.4-2.6-1.6-4.2-3.6-4.9-1-.5-2.2-.7-3.4-.4-1.5.5-2.8 1.2-4 2.2-1.5 1.6-3.2 3-5 4.3-1.4.9-2.9 1.3-4.5 1.3-2.3 0-3.9-1.5-4.6-4.5-.8-3-.2-7.9 1.7-14.8l13.8-52c1.1-3.8 2.8-6.7 5.1-8.5 2.3-1.8 4.5-3.6 6.5-5.3 2-1.7 3.3-4.4 3.9-8.2.3-4.4-1.8-8.3-6.4-11.8zm-67.9 33.6c-1.4 8.4-3.2 16.8-5.5 25-2.1 7.5-4.7 14.8-7.8 21.9-2.6 6-5.6 11.7-9.1 17.2-2.6 4.2-5.7 8-9.4 11.3-3.1 2.7-6.1 4-9 4-2.3 0-4.2-1.4-5.8-4.2-1.5-2.8-2-7.7-1.3-14.8.6-7.3 1.8-14.5 3.6-21.6 1.9-7.3 4.2-14.6 6.9-21.6 2.5-6.6 5.6-12.9 9.2-19 2.9-5 6.5-9.5 10.6-13.5 3.7-3.3 7.4-5 11-5 3.3 0 5.5 1.8 6.5 5.4 1.2 3.5 1.2 8.5.1 14.9zm205.1-28.9c-2.9-1.6-7.1-2.4-12.6-2.4l-12.7-.1c-.2-2.5-.8-5-1.7-7.4-2.2-5.8-5-11.4-8.3-16.7-3.4-5.4-6.3-10.5-8.9-15.2s-3.4-9.1-2.6-13.2c.4-2.2 1.5-4.2 3-5.8 1.7-1.5 3.9-2.3 6.2-2.1 3.5.1 6.8 1.3 9.6 3.4 3.3 2.3 6.7 4.9 10.3 7.8 3.6 3 7.5 5.6 11.6 7.8 4.2 2.2 8.8 3.3 13.5 3.3 8 0 14.5-2.5 19.3-7.5 4.8-5 7.3-11.8 7.3-20.4 0-8.8-3.4-16.4-10.3-22.7-6.9-6.3-16.9-9.5-30.1-9.5-13.9 0-25.6 2.9-35.2 8.6-9.6 5.7-17.6 14-23.8 24.9-6.3 10.9-11.2 24.1-14.8 39.8l-6 24.6h-13.6c-4.8 0-8.6 1.1-11.2 3.4-2.6 2.1-4 5.2-4 8.5 0 2.7.9 5.4 2.6 7.5 1.7 2.2 4.6 4.6 8.8 7.3 4.4 2.1 7.2 4.9 8.3 8.3s.7 8.8-1.4 16.1l-32.8 116.2c-3.7 13.7-4.2 24.3-1.2 31.8 2.9 7.4 9.8 11.1 20.5 11.1 10.3.1 20.5-1.5 30.3-4.7 9.5-3.2 17.3-7.2 23.4-12 6.1-4.8 9.2-10 9.2-15.5.1-3.3-1.2-6.4-3.5-8.7l-7.3-7c-2.6-2.5-3.9-6-3.8-9.6 0-2 .2-4 .5-5.9.4-3 1-6 1.8-8.9l28-105.3h10.8c4.4 0 8.7-.9 12.7-2.7 3.7-1.7 6.9-4.3 9.3-7.5 2.3-3 3.6-6.7 3.5-10.6-.3-4.4-1.7-7.4-4.7-9zm122.9-7.3h-24.3l2.9-10.2c1.1-3.8 2-7.6 2.7-11.5.4-2.6.7-5.3.7-8 .1-2.9-.9-5.6-2.8-7.8-1.9-2-4.7-3-8.6-3-3.1-.1-6.2.6-8.9 2.1s-5.1 3.4-7.1 5.7l-26.2 21.6c-3.6 3.8-6.9 6.5-9.8 7.8-3.4 1.5-7 2.2-10.6 2.1h-6.9c-4.8 0-8.6 1.1-11.4 3.2-2.8 2.2-4.3 5.5-4.1 9 0 2.3.6 4.5 1.7 6.4 1.4 2.2 3.3 3.9 5.5 5.1l6.1 2.8c3.3 1.8 5.1 4.3 5.4 7.4s-.6 7.7-2.7 14L671.8 644c-4.5 13.6-6.4 24.8-5.6 33.6.8 8.7 4.1 15.2 9.9 19.5 5.8 4.2 13.8 6.3 23.9 6.3 18.1.2 35.9-5.3 50.7-15.6 6.1-4.1 11.4-9.3 15.8-15.2 3.9-5.4 6.2-10.7 6.8-15.8.4-2.8 0-4.9-1.2-6.4s-3.1-2.4-5-2.3c-1.5-.1-2.9.2-4.2.9-1.9 1.2-3.7 2.6-5.2 4.2-2.5 3-5.5 5.5-8.8 7.6-2.5 1.5-5.4 2.3-8.3 2.3-4.3 0-7.1-1.7-8.4-5s-.7-9.7 2-19l17.3-60.6h19c6.5 0 11.7-1.6 15.7-4.7s5.9-7.5 5.9-13c.2-5.8-2.8-8.8-8.6-8.8zm167.9 42.5c-1.4-.9-2.5-2.2-3.2-3.7-1-2-1.7-4.2-2.1-6.3-1-7.6-3.6-14.9-7.6-21.5-4.1-6.5-10-11.7-17-15-7.4-3.6-16.7-5.5-27.9-5.5-13.6-.2-27.1 2.3-39.8 7.2-11.7 4.6-22.5 11.4-31.7 20-9 8.5-16.3 18.6-21.4 29.9-5.3 11.6-8.6 24-9.7 36.7-.9 13.5.8 25.4 5.1 35.5 4.3 10.1 11.9 18.4 21.6 23.4 10.1 5.5 23 8.2 38.6 8.2 17.9 0 33.2-2.7 46-8.1 12.8-5.4 23-12.4 30.7-21 7.7-8.6 12.5-17.9 14.3-27.8.6-2.9.3-5.9-1-8.5-1.2-2.2-3.4-3.6-5.9-3.7-2.5-.3-5.1.3-7.2 1.7-3.1 2.2-5.8 4.7-8.2 7.6-3.3 4.3-7.2 8.2-11.6 11.5-4 3-8.4 5.4-13 7.2-4.7 1.8-9.7 2.7-14.7 2.6-10.4 0-18.1-3.7-23-11.1-2.9-4.4-4.7-10-5.5-16.7 4.6-1.2 9.5-2.4 14.6-3.8 8.8-2.3 17.7-4.6 26.6-7 8.9-2.4 17.2-4.6 24.9-6.7s14-3.7 18.8-4.8c5.3-1.4 8.9-3.3 10.8-5.6 1.8-2.1 2.9-4.8 3-7.6-.1-1.6-.5-3.1-1.3-4.5-.6-1.2-1.8-2.2-3.2-2.6zm-59.1 6.9c-.4 3-1.1 5.9-1.9 8.8-3.5 1.1-7.5 2.2-12.1 3.5-6.2 1.8-12.5 3.5-18.9 5.3-.6.2-1.2.3-1.8.5.8-6.9 2-13.8 3.6-20.5 1.4-6 3.4-11.9 6-17.5 1.9-4.1 4.4-7.9 7.6-11.1 2.8-2.7 5.7-4 8.8-4 3.2-.1 6.2 1.6 7.8 4.4 1.8 2.9 2.6 6.9 2.5 12-.2 6.1-.7 12.4-1.6 18.6zm234.4-48c-5.3-6.6-12.7-9.9-22.1-9.9-7.3.1-14.4 1.9-20.8 5.3-6.8 3.5-13.3 8.9-19.5 16-3.4 3.9-6.7 8.5-9.8 13.7 1.2-4.7 1.9-9.5 2-14.3 0-6.4-2-11.5-6.2-15.3s-10.2-5.7-18.2-5.7c-17.5 0-34.5 6.4-47.5 18.2-6 5.4-10.9 11.9-14.5 19.2-2.3 4.2-3 7.6-2 10.2.7 2.4 2.7 4.2 5.1 4.6 1.4.2 2.8.1 4.1-.5 1.4-.6 2.8-1.3 4-2.2 1.7-1.7 3.6-3.2 5.6-4.5 1.4-.8 3-1.2 4.6-1.2 2.7 0 4.3 1.6 4.7 4.6s-.8 8.1-3.7 15l-20 54.1c-3.4 8.4-5.2 15.8-5.4 22.2-.2 6.4 1.7 11.4 5.7 15 4 3.6 10.3 5.4 19 5.4 11.9 0 22.1-1.2 30.8-3.5 8.6-2.3 15.3-5.4 20-9.3 4.7-3.9 7.1-8.1 7.1-12.5 0-2.3-.7-4.6-2.1-6.4-1.3-1.9-2.7-3.9-4-6.1-1.4-2.5-2.1-5.4-2-8.2.1-5.1.6-10.2 1.6-15.2 1.4-6.8 3.1-13.5 5.4-20.1 2.4-7.1 5.1-14.2 8.2-21 2.5-5.3 5.1-9.2 7.7-11.5s5-3.5 7.3-3.5c1.4-.1 2.7.5 3.6 1.6.9 1.2 1.4 2.7 1.3 4.2 0 3.1-.5 6.2-1.4 9.2-.9 2.9-1.4 5.9-1.4 9 0 4.1 1.7 8 4.6 10.8 3.1 3.1 8.3 4.7 15.5 4.7 6.7-.1 13.2-2.1 18.7-5.8 6.1-4 11.2-9.5 14.6-16 3.7-6.8 5.8-14.8 6.3-24.1.8-10.9-1.6-19.6-6.9-26.2zm137.9-5.7c-8.9-3.4-20.1-5.1-33.5-5.1-17.4 0-32 2.4-43.9 7.3-11.9 4.9-21 11.4-27.4 19.4-6.2 7.6-9.7 17.1-9.9 26.9-.2 6.4 1 12.8 3.6 18.6 2.8 5.8 6.9 10.9 12 14.9 6.5 5.2 13.6 9.8 21 13.6 5.7 2.9 11.2 6.1 16.4 9.7 3.8 2.7 6.4 5.3 7.8 7.8 1.4 2.5 2.1 5.3 2 8.2.1 3.4-1.1 6.7-3.3 9.3-2.3 2.5-5.5 3.9-8.9 3.7-4.8.1-9.5-1.3-13.4-4.1-3.7-2.7-7.5-7.8-11.4-15.3-3.6-7.7-7.5-13.6-11.6-17.6-4-4-9.5-6.2-15.2-6-5.7 0-10.2 2.1-13.3 6.3-3.1 4.2-4.8 9.8-5 16.8-.1 7.5 2.2 14.8 6.6 20.9 4.4 6.2 11.4 11.2 20.9 14.8s21.8 5.5 36.9 5.5c15.7 0 29.5-2 41.2-6.1s21-9.8 27.6-17.2c6.5-7 10.4-16 11-25.6.5-5.9-.2-11.9-2.1-17.5-1.8-5.3-5.4-10.5-10.7-15.5-5.3-5.1-12.9-10.4-22.5-16.2-5.9-3.4-11.7-7.2-17.1-11.4-4.1-3.3-7-6.4-8.6-9.3-1.5-2.6-2.3-5.5-2.4-8.5 0-4.1 1.1-7.2 3.2-9.4 2.3-2.3 5.4-3.5 8.7-3.3 5.1 0 10.1 1.8 14 5.1 4.1 3.4 7.9 8.6 11.4 15.5 4 8.5 7.9 14.3 11.7 17.6 3.8 3.2 8.6 5 13.5 4.9 5 .2 9.7-2.2 12.6-6.2 3.1-4.2 4.7-10.2 4.5-18.2.1-7.4-2.2-14.6-6.7-20.5-4.1-5.8-10.8-10.4-19.7-13.8z"/><circle cx="378.9" cy="295" r="37.8"/><circle cx="1187.6" cy="235.8" r="37.8"/><circle cx="567" cy="295" r="37.8"/><circle cx="692.5" cy="471.5" r="37.8"/><circle cx="193.2" cy="170.2" r="37.8"/><path d="M349.2 318.5l-105.1 60.1m73.7-344.7l-95.7 111.8M782.3 33.6L597.1 270.9m607-1l89.8 128m-563.6 73.6l140.9-9.6"/><circle cx="508.5" cy="563.6" r="37.8"/><path d="M494.1 528.6l-47.6-100.9M38.9 401.9l-.5-.2c-.2-.1-.4-.2-.5-.4-.1-.2-.2-.5-.2-.8v-7.3c.1-1.2-.4-2.3-1.2-3.2-.8-.8-1.9-1.3-3.1-1.2-.9 0-1.9.3-2.7.7-.9.5-1.8 1.2-2.6 1.9v-1.6c0-.2-.1-.4-.2-.6-.2-.2-.4-.3-.6-.2-.2 0-.4 0-.6.1-.2.1-.5.2-.8.3l-2.3.8-.6.3c-.1.1-.2.3-.2.5s.1.3.2.4c.1.1.3.2.4.3h.9c.2 0 .3.1.5.3.1.2.2.5.1.7v7.8c0 .3 0 .5-.2.8-.1.2-.3.3-.5.4l-.5.2c-.2.1-.3.2-.5.3-.1.1-.2.3-.2.5s.1.4.2.5c.2.1.4.2.6.2H29c.5 0 .8-.2.8-.7 0-.3-.2-.6-.6-.7l-.5-.2c-.2-.1-.4-.2-.5-.4-.1-.3-.2-.5-.2-.8v-7.5l.2-.2c.6-.5 1.2-1 1.9-1.3.5-.3 1.1-.4 1.7-.4.7 0 1.4.2 1.9.7.5.6.8 1.4.7 2.2v6.5c0 .3 0 .6-.2.8-.1.2-.3.3-.5.4l-.6.2c-.4.2-.6.4-.6.7 0 .5.3.7.8.7h5.2c.2 0 .5-.1.6-.2.1-.1.2-.3.2-.5s0-.3-.2-.5c.1-.1 0-.2-.2-.3zm18 0l-.5-.2c-.2-.1-.4-.2-.5-.4-.1-.2-.2-.5-.2-.8v-10.6c0-.2-.1-.5-.2-.7-.2-.2-.4-.3-.6-.2-.2 0-.4 0-.7.1-.2.1-.5.2-.8.3l-2.2.8-.6.3c-.1.1-.2.3-.2.5s0 .3.2.4c.1.1.3.2.4.2h1c.2 0 .3.1.5.3.1.2.2.5.2.7v6.8l-.3.2c-.6.5-1.2.9-1.8 1.3-.5.3-1.1.4-1.6.4-.7 0-1.3-.2-1.8-.7-.5-.6-.7-1.4-.7-2.1v-8.6c0-.2-.1-.5-.2-.7-.2-.2-.4-.3-.6-.2-.2 0-.4 0-.7.1-.2.1-.5.2-.8.3l-2.3.8-.6.3c-.1.1-.2.3-.2.5s0 .3.2.4c.1.1.3.2.4.2h.9c.2 0 .3.1.5.3.1.2.2.5.1.7v6.6c-.1 1.2.4 2.3 1.2 3.2.8.8 1.9 1.2 3 1.2.9 0 1.8-.3 2.6-.8 1-.6 1.8-1.2 2.7-2l.1.6c-.1.5.1.9.4 1.3.3.3.8.5 1.2.4h2.4c.2 0 .5-.1.6-.2.2-.1.2-.3.2-.5s-.1-.3-.2-.5c-.1.2-.3.1-.5 0zM72.3 390c-1-.6-2.1-.9-3.2-.9-1.2 0-2.4.3-3.4 1-.5.3-.9.7-1.4 1.1v-9c0-.2-.1-.4-.2-.6-.2-.2-.4-.3-.6-.2-.2 0-.4 0-.7.1-.2.1-.5.2-.8.3l-2.3.8-.6.3c-.1.1-.2.3-.2.5s.1.3.2.4c.1.1.3.2.4.2h.9c.2 0 .3.1.5.3.1.2.2.5.2.7v17.9c0 .2.1.4.2.6.1.1.3.2.5.2s.5-.1.7-.2c.2-.1.4-.2.7-.3l.9-1c.3.3.6.5.9.7 1 .6 2.1 1 3.3.9 2.5 0 4.9-1.4 6.1-3.6.6-1.2 1-2.6.9-4 0-1.3-.2-2.5-.8-3.7-.5-1-1.2-1.9-2.2-2.5zm-.9 9.4c-.3.8-.8 1.4-1.5 1.9-.6.4-1.4.7-2.1.7-.8 0-1.7-.3-2.4-.8-.4-.3-.8-.6-1.1-1v-7.5c.3-.4.7-.7 1-1 .7-.5 1.5-.7 2.4-.7.8 0 1.5.2 2.1.6.7.5 1.2 1.1 1.5 1.8.4.9.6 1.9.5 2.9.2 1.2 0 2.2-.4 3.1zm18.8-9.4c-1-.6-2.1-.9-3.2-.9-1.2 0-2.4.3-3.4 1-.5.3-.9.7-1.3 1.1v-9c0-.2-.1-.4-.2-.6-.2-.2-.4-.3-.6-.2-.2 0-.4 0-.7.1-.2.1-.5.2-.8.3l-2.3.8-.6.3c-.1.1-.2.3-.2.5s.1.3.2.4c.1.1.3.2.4.2h.9c.2 0 .3.1.5.3.1.2.2.5.2.7v17.8c0 .2 0 .4.2.6.1.1.3.2.5.2s.5 0 .7-.2c.2-.1.5-.2.7-.3l.9-1c.3.3.6.5.9.7 1 .6 2.1 1 3.2.9 1.3 0 2.5-.3 3.6-.9 1.1-.6 2-1.6 2.5-2.7.7-1.2 1-2.6 1-4 0-1.3-.3-2.5-.8-3.7-.6-.9-1.3-1.8-2.3-2.4zm-8.8 3.9zm7.9 5.5c-.3.8-.8 1.4-1.5 1.9-.6.4-1.4.7-2.1.7-.8 0-1.7-.3-2.4-.8-.4-.3-.7-.6-1-.9v-7.6c.3-.3.6-.6 1-.9.7-.5 1.5-.7 2.4-.7.8 0 1.5.2 2.1.6.7.5 1.2 1.1 1.5 1.8.4.9.6 1.9.5 2.9 0 1.1-.1 2.1-.5 3zm21-10.1H106c-.2 0-.4.1-.6.2-.2.1-.2.3-.2.5s.1.4.2.5c.1.1.3.2.5.3l.7.2c.3 0 .6.3.7.5.1.4 0 .8-.2 1.2l-3.3 8.2-3.3-8.1c-.2-.4-.3-.8-.3-1.2 0-.3.2-.5.6-.5l.6-.2c.2-.1.4-.2.5-.3.1-.1.2-.3.2-.5s-.1-.4-.2-.5c-.2-.1-.4-.2-.6-.2h-5.8c-.2 0-.5 0-.6.2-.2.1-.2.3-.2.5s.1.3.2.4c.1.1.3.3.5.3.3.1.7.2 1 .4.3.2.5.5.7.9l5.3 12.2-.5 1.2c-.2.6-.5 1.2-.9 1.7-.2.4-.5.7-.8.9-.2.2-.5.3-.8.3-.2 0-.5-.1-.7-.2-.2-.2-.3-.5-.4-.8l-.1-.5c-.1-.4-.3-.8-.5-1.1-.3-.3-.6-.4-1-.4s-.8.2-1 .5c-.3.4-.4.8-.4 1.3 0 .8.3 1.6.9 2.2.7.6 1.6 1 2.6.9.7 0 1.3-.2 1.9-.5.6-.4 1.2-1 1.6-1.6.6-1 1.1-2 1.6-3.1l5.2-12.7c.1-.4.4-.8.7-1.1.3-.2.6-.4 1-.5.2-.1.4-.2.5-.4.1-.1.1-.3.1-.4 0-.2-.1-.4-.2-.5-.5-.1-.7-.2-.9-.2zm21.4.7c-1-.6-2.1-.9-3.2-.9-1.2 0-2.4.3-3.4 1-.5.3-.9.7-1.3 1.1v-9c0-.2-.1-.4-.2-.6-.2-.2-.4-.3-.6-.2-.2 0-.4 0-.6.1-.2.1-.5.2-.8.3l-2.3.8-.6.3c-.1.1-.2.3-.2.5s.1.3.2.4c.1.1.3.2.4.2h.9c.2 0 .3.1.5.3.1.2.2.5.2.7v17.9c0 .2 0 .4.2.6.1.1.3.2.5.2s.5 0 .7-.2c.2-.1.5-.2.7-.3l.9-1c.3.3.6.5.9.7 1 .6 2.1 1 3.2.9 1.3 0 2.5-.3 3.6-.9 1.1-.6 2-1.6 2.5-2.7.6-1.2 1-2.6 1-4 0-1.3-.3-2.5-.8-3.7-.7-1-1.5-1.9-2.4-2.5zm-.9 9.5c-.3.8-.8 1.4-1.5 1.9-.6.4-1.4.6-2.1.6-.8 0-1.7-.3-2.4-.8-.4-.3-.8-.6-1.1-1v-7.5c.3-.3.6-.7 1-.9.7-.5 1.5-.7 2.4-.7.8 0 1.5.2 2.2.6.7.5 1.2 1.1 1.5 1.8.4.9.6 1.9.5 2.9 0 1.1-.2 2.1-.5 3.1zm17.8-9.5c-1.2-.6-2.5-1-3.9-.9-1.4 0-2.7.3-3.9.9-1.1.6-2 1.5-2.7 2.6-.7 1.1-1 2.4-1 3.8s.3 2.7 1 3.9c.6 1.1 1.5 2 2.6 2.6 2.5 1.3 5.4 1.3 7.8 0 1.1-.6 2-1.5 2.7-2.6.7-1.1 1-2.5 1-3.8 0-1.3-.3-2.7-1-3.8-.6-1.2-1.5-2.1-2.6-2.7zm.2 8.7c-.1.8-.5 1.6-1 2.2-.5.6-1.2.9-1.9 1.1-.8.1-1.5 0-2.2-.3-.8-.4-1.4-.9-1.9-1.6-.6-.9-1-1.9-1.2-2.9-.2-1-.3-2-.1-3 .1-.8.5-1.6 1-2.2.5-.6 1.2-.9 1.9-1.1.8-.2 1.6-.1 2.3.3.7.4 1.4.9 1.8 1.7.6.9 1 1.9 1.2 2.9.3.9.3 1.9.1 2.9zm13.1-7.6c.4 0 .9-.1 1.3-.3.2-.2.4-.4.4-.7 0-.2-.1-.4-.2-.5-.2-.1-.4-.2-.6-.2h-3.3v-2.6c0-.2-.1-.5-.2-.7-.2-.2-.4-.2-.6-.2-.2 0-.4.1-.6.2-.2.2-.4.4-.5.6l-.7 1.8c-.1.3-.3.5-.5.7-.2.1-.4.2-.7.2h-.7c-.2 0-.4.1-.6.2-.1.1-.2.3-.2.5s.1.3.2.5c.1.1.3.3.4.3l.7.1c.3 0 .5.2.7.4.2.2.2.5.2.8v8c-.1 1 .3 2 1 2.7.8.6 1.7 1 2.7.9.6 0 1.2-.1 1.8-.3.5-.2.9-.5 1.3-.9.3-.3.5-.7.5-1.2 0-.2 0-.4-.1-.5-.1-.1-.2-.2-.4-.2-.1 0-.3 0-.4.1-.1.1-.3.2-.4.3-.2.1-.3.2-.5.3-.2.1-.5.1-.7.1-.4 0-.9-.2-1.2-.5-.3-.4-.5-.9-.4-1.4v-8.4l2.3-.1zm11.1 0c.4 0 .9-.1 1.3-.3.2-.2.4-.4.4-.7 0-.2-.1-.4-.2-.5-.2-.1-.4-.2-.6-.2h-3.3v-2.6c0-.2-.1-.5-.2-.7-.2-.2-.4-.2-.6-.2-.2 0-.4.1-.6.2-.2.2-.4.4-.5.6l-.7 1.8c-.1.3-.3.5-.5.7-.2.1-.4.2-.7.2h-.8c-.2 0-.4.1-.6.2-.1.1-.2.3-.2.5s.1.3.2.5c.1.1.3.3.4.3l.7.1c.3 0 .5.2.7.4.2.2.2.5.2.8v8c-.1 1 .3 2 1 2.7.8.6 1.7 1 2.7.9.6 0 1.2-.1 1.8-.3.5-.2.9-.5 1.3-.9.3-.3.5-.7.5-1.2 0-.2 0-.4-.1-.5-.1-.1-.2-.2-.4-.2-.1 0-.3 0-.4.1-.1.1-.3.2-.4.3-.2.1-.4.2-.5.3-.2.1-.5.1-.7.1-.4 0-.9-.2-1.2-.5-.3-.4-.5-.9-.4-1.4v-8.4l2.4-.1zm15.4-1.1c-1.2-.6-2.5-1-3.9-.9-1.4 0-2.7.3-3.9.9-1.1.6-2 1.5-2.7 2.6-.7 1.1-1 2.4-1 3.8 0 1.3.3 2.7.9 3.9.6 1.1 1.5 2 2.6 2.6 2.5 1.3 5.4 1.3 7.9 0 1.1-.6 2-1.5 2.7-2.6.7-1.1 1-2.5 1-3.8 0-1.3-.3-2.7-1-3.8-.6-1.2-1.5-2.1-2.6-2.7zm.2 8.7c-.1.8-.5 1.6-1 2.2-.5.6-1.2.9-1.9 1.1-.8.1-1.6 0-2.3-.3-.8-.4-1.4-.9-1.9-1.6-.6-.9-1-1.9-1.2-2.9-.2-1-.3-2-.1-3 .1-.8.5-1.6 1-2.2.5-.6 1.2-.9 1.9-1.1.8-.2 1.6-.1 2.3.3.7.4 1.4.9 1.8 1.7.6.9 1 1.9 1.2 2.9.3.9.4 1.9.2 2.9zm31.1 3.3l-.5-.2c-.2-.1-.4-.2-.5-.4-.1-.2-.2-.5-.2-.8v-7.3c.1-1.2-.4-2.3-1.2-3.2-.8-.8-1.9-1.3-3-1.2-.9 0-1.8.3-2.7.8-1 .6-1.9 1.3-2.8 2.1-.2-.6-.5-1.2-1-1.7-.8-.8-1.9-1.2-3-1.2-.9 0-1.8.3-2.7.7-1 .5-1.8 1.2-2.7 1.9v-1.6c0-.2 0-.5-.2-.7-.2-.2-.4-.3-.6-.2-.2 0-.4 0-.7.1-.3.1-.5.2-.8.3l-2.2.8-.6.3c-.1.1-.2.3-.2.5s.1.3.2.4c.1.1.3.2.4.3h.9c.2 0 .3.1.5.3.1.2.2.5.2.7v7.8c0 .3 0 .5-.2.8-.1.2-.3.3-.5.4l-.5.2c-.2.1-.3.2-.5.3-.1.1-.2.3-.2.5s.1.4.2.5c.2.1.4.2.6.2h5.2c.5 0 .8-.2.8-.7 0-.3-.2-.6-.6-.7l-.5-.2c-.2-.1-.4-.2-.5-.4-.1-.3-.2-.5-.2-.8v-7.4l.2-.2c.6-.5 1.2-1 1.9-1.3.5-.3 1.1-.4 1.7-.4.7 0 1.4.2 1.9.7.5.6.8 1.4.7 2.2v6.5c0 .3 0 .6-.2.8-.1.2-.3.3-.5.4l-.6.2c-.4.2-.6.4-.6.7 0 .5.3.7.8.7h5.1c.5 0 .8-.2.8-.7 0-.3-.2-.6-.6-.7l-.5-.2c-.2-.1-.4-.2-.5-.4-.1-.3-.2-.5-.2-.8v-7.3l.2-.2c.6-.6 1.2-1 1.9-1.4.5-.3 1.1-.4 1.7-.4.7 0 1.4.2 1.9.7.5.6.8 1.4.7 2.2v6.5c0 .3 0 .6-.2.8-.1.2-.3.3-.5.4l-.6.2c-.3.1-.6.4-.6.7 0 .5.3.7.8.7h5.2c.2 0 .5-.1.7-.2.2-.1.2-.3.2-.5s-.1-.3-.2-.5c.1-.2-.1-.3-.3-.4zm11.9-6.2c-.9-.4-1.9-.8-2.9-1-.5-.1-1-.3-1.5-.5-.4-.2-.7-.4-1-.7-.3-.3-.4-.7-.4-1.1 0-.5.2-1 .6-1.4.5-.4 1.1-.6 1.7-.5.9 0 1.7.2 2.5.6.7.5 1.3 1.1 1.7 1.8.2.3.4.5.7.7.2.1.4.2.6.1.3-.1.5-.3.5-.6s0-.7-.1-1l-.8-2.5c0-.2-.1-.4-.3-.5-.1-.1-.3-.2-.5-.2-.1 0-.3.1-.4.1-.1.1-.2.2-.4.3-.1.1-.3.1-.4.2-.2 0-.4-.1-.6-.2-.3-.1-.7-.2-1-.3-.5-.1-1-.1-1.5-.1-.9 0-1.8.2-2.6.5-.7.3-1.3.8-1.7 1.5-.4.6-.6 1.4-.6 2.1 0 .8.2 1.6.6 2.2.5.6 1.1 1.2 1.8 1.5.9.4 1.8.7 2.7.9.6.1 1.1.3 1.7.5.4.2.8.4 1.2.8.3.3.4.7.4 1.1 0 .6-.2 1.1-.6 1.5-.5.4-1.2.7-2 .6-.6 0-1.1-.1-1.7-.3-.5-.2-1.1-.5-1.5-.9-.5-.4-.9-.9-1.3-1.5-.2-.2-.4-.4-.6-.5-.2-.1-.5-.1-.7 0-.2.1-.4.3-.5.5-.1.3 0 .7.1 1l1.1 2.4c.1.2.2.5.4.6.1.1.3.2.5.2s.3 0 .4-.2l.4-.3c.1-.1.3-.2.5-.2s.5.1.7.1c.3.1.6.2 1 .3.4.1.9.2 1.3.2 1.4.1 2.8-.3 3.9-1.2.9-.8 1.4-1.9 1.3-3.1 0-.8-.3-1.5-.8-2.1-.5-.6-1.2-1.1-1.9-1.4zM799.6 15c-.9-.4-1.9-.8-2.9-1-.5-.1-1-.3-1.5-.5-.4-.2-.7-.4-1-.7-.3-.3-.4-.7-.4-1.1 0-.5.2-1 .6-1.4.5-.4 1.1-.6 1.7-.5.9 0 1.7.2 2.4.6.7.5 1.3 1.1 1.7 1.9.2.3.4.5.7.7.2.1.4.2.6.1.3-.1.5-.3.5-.6s0-.7-.1-1l-.8-2.5c0-.2-.1-.4-.3-.5-.1-.1-.3-.2-.5-.2-.1 0-.3.1-.4.1-.1.1-.2.2-.4.3-.1.1-.3.1-.4.2-.2 0-.4-.1-.6-.2-.3-.1-.7-.2-1-.3-.5-.1-1-.1-1.5-.1-.9 0-1.8.2-2.6.5-.7.3-1.3.8-1.7 1.5-.4.6-.6 1.4-.6 2.1 0 .8.2 1.6.6 2.2.5.6 1.1 1.1 1.8 1.5.9.4 1.8.7 2.7.9.6.1 1.1.3 1.7.5.4.2.8.4 1.2.8.3.3.4.7.4 1.1 0 .6-.2 1.1-.6 1.5-.6.5-1.3.7-2 .6-.6 0-1.1-.1-1.7-.3-.5-.2-1.1-.5-1.5-.9-.5-.4-.9-.9-1.3-1.5-.2-.2-.4-.4-.6-.5-.2-.1-.5-.1-.7 0-.2.1-.4.3-.5.5-.1.3 0 .7.1 1l1.1 2.4c.1.2.2.5.4.6.1.1.3.2.5.2s.3 0 .4-.1c.1-.1.2-.2.4-.3.1-.1.3-.2.4-.2.2 0 .5.1.7.2.3.1.6.2 1 .3.4.1.9.1 1.3.1 1.4.1 2.8-.3 3.9-1.2.9-.8 1.4-1.9 1.3-3.1 0-.8-.2-1.5-.7-2.2-.4-.7-1.1-1.2-1.8-1.5zm16.6-5.8c-1.2-.6-2.5-1-3.9-.9-1.4 0-2.7.3-3.9.9-1.1.6-2 1.5-2.7 2.6-.7 1.1-1 2.4-1 3.8s.3 2.7.9 3.9c.6 1.1 1.5 2 2.6 2.6 2.5 1.3 5.4 1.3 7.8 0 1.1-.6 2-1.5 2.7-2.6.7-1.1 1-2.5 1-3.8 0-1.3-.3-2.7-1-3.8-.5-1.2-1.4-2.1-2.5-2.7zm.2 8.7c-.1.8-.5 1.6-1 2.2-.5.6-1.2.9-1.9 1.1-.8.2-1.6.1-2.3-.2-.8-.4-1.4-.9-1.9-1.6-.6-.9-1-1.9-1.2-2.9-.2-1-.3-2-.1-3 .1-.8.5-1.6 1-2.2.5-.6 1.2-.9 1.9-1.1.8-.2 1.6-.1 2.3.3.8.4 1.4.9 1.9 1.6.6.9 1 1.9 1.2 2.9.2.9.2 1.9.1 2.9zm13.8-16.4c-.7-.3-1.5-.5-2.3-.4-1.2-.1-2.5.3-3.4 1.1-1.2 1-1.6 2.7-1 4.2.2.4.3.7.6 1.1.2.3.4.6.6.8.1.2.2.4.2.6H823c-.2 0-.4.1-.5.2-.1.1-.2.3-.2.5s.1.4.3.5c.2.2.5.3.8.4l.5.2c.3.1.5.2.7.4.1.2.2.4.2.7v8.1c0 .3-.1.6-.2.8-.2.2-.4.3-.6.4l-.6.1-.6.3c-.1.1-.2.3-.2.5s.1.4.2.5c.2.1.4.2.6.2h6.7c.6 0 .9-.2.9-.7 0-.2-.1-.4-.2-.5-.2-.2-.4-.2-.6-.3l-1.4-.1c-.3 0-.5-.1-.6-.3-.2-.2-.2-.5-.2-.8l-.1-9.3h2.1c.4 0 .9-.1 1.3-.3.2-.2.4-.4.4-.7 0-.2-.1-.4-.2-.5-.2-.1-.4-.2-.6-.2h-3.2v-.2c0-.3-.1-.5-.2-.7-.1-.3-.3-.5-.5-.8l-.6-.9c-.2-.3-.4-.7-.5-1-.1-.4-.2-.7-.2-1.1 0-.5.2-1.1.5-1.5.4-.4.9-.5 1.4-.5.4 0 .8.1 1.1.4.3.3.4.7.4 1.1v.6c0 .4.1.9.4 1.2.3.3.7.5 1.2.4.4 0 .8-.1 1.1-.4.3-.4.4-.8.4-1.3 0-.6-.2-1.2-.5-1.6-.5-.6-1-1-1.5-1.2zm10.5 8.7c.4 0 .9-.1 1.3-.3.2-.2.4-.4.4-.7 0-.2-.1-.4-.2-.5-.2-.1-.4-.2-.6-.2h-3.3V6c0-.2-.1-.5-.2-.7-.2-.2-.4-.2-.6-.2-.2 0-.4.1-.6.2-.2.2-.4.4-.5.6l-.7 1.8c-.1.3-.3.5-.5.7-.2.1-.4.2-.7.2h-.7c-.2 0-.4.1-.6.2-.1.1-.2.3-.2.5s0 .3.2.5c.1.1.3.2.4.3l.7.1c.3 0 .5.2.7.4.2.2.2.5.2.8v8c-.1 1 .3 2 1 2.7.8.6 1.7 1 2.7.9.6 0 1.2-.1 1.8-.3.5-.2.9-.5 1.3-.9.3-.3.5-.7.5-1.2.1-.2 0-.4-.1-.5-.1-.1-.2-.2-.4-.2-.1 0-.3 0-.4.1-.1.1-.3.2-.4.3-.2.1-.3.2-.5.3-.2.1-.5.1-.7.1-.4 0-.9-.2-1.2-.5-.3-.4-.5-.9-.4-1.4v-8.5h2.3zm12.9 2.8h-7.3c-.2 0-.4 0-.6.1-.2.1-.3.3-.3.5l-.4.9c-.2.5 0 .8.6.8h7.3c.2 0 .4 0 .6-.1.2-.1.3-.3.3-.5l.4-.9c.2-.5 0-.8-.6-.8zm15.9-3.8c-1-.6-2.1-.9-3.2-.9-1.2 0-2.4.3-3.4 1-.5.3-.9.7-1.3 1.1v-9c0-.2-.1-.4-.2-.6-.2-.2-.4-.3-.6-.2-.2 0-.4 0-.7.1-.2.1-.5.2-.8.3l-2.3.8-.6.3c-.1.1-.2.3-.2.5s.1.3.2.5c.1.1.3.2.4.2h.9c.2 0 .3.1.4.3.1.2.2.5.2.7V22c0 .2 0 .4.2.6.1.1.3.2.5.2s.5 0 .7-.1c.2-.1.5-.2.7-.4l.8-.9c.3.3.6.5.9.7 1 .6 2.1 1 3.3.9 1.2 0 2.5-.3 3.6-.9 1.1-.6 2-1.6 2.5-2.7.7-1.2 1-2.6 1-4.1 0-1.3-.3-2.5-.8-3.7-.5-.9-1.3-1.8-2.2-2.4zm-.9 9.5c-.3.8-.8 1.4-1.5 1.9-.6.4-1.4.7-2.1.7-.8 0-1.7-.3-2.4-.8-.4-.3-.7-.6-1-.9V12c.3-.3.6-.7 1-.9.7-.5 1.5-.7 2.4-.7.8 0 1.5.2 2.2.6.7.5 1.2 1.1 1.5 1.8.4.9.6 1.9.5 2.9-.1 1-.3 2-.6 3zm17.9-9.5c-1.2-.6-2.5-1-3.9-.9-1.4 0-2.7.3-3.9.9-1.1.6-2 1.5-2.7 2.6-.7 1.1-1 2.4-1 3.8s.3 2.7 1 3.9c.6 1.1 1.5 2 2.6 2.6 2.5 1.3 5.4 1.3 7.8 0 1.1-.6 2-1.5 2.7-2.6.7-1.1 1-2.5 1-3.8 0-1.3-.3-2.7-1-3.8-.6-1.2-1.5-2.1-2.6-2.7zm.2 8.7c-.1.8-.5 1.6-1 2.2-.5.6-1.2.9-1.9 1.1-.8.1-1.6 0-2.3-.3-.8-.4-1.4-.9-1.9-1.6-.6-.9-1-1.9-1.2-2.9-.2-1-.3-2-.1-3 .1-.8.5-1.6 1-2.2.5-.6 1.2-.9 1.9-1.1.8-.2 1.6-.1 2.3.3.7.4 1.4.9 1.8 1.7.6.9 1 1.9 1.2 2.9.3.9.3 1.9.2 2.9zm10.9 8.6c-.2.4-.5.7-.8.9-.2.2-.5.3-.8.3-.2 0-.5-.1-.7-.2-.2-.2-.3-.5-.4-.8l-.1-.5c-.1-.4-.3-.8-.5-1.1-.3-.3-.6-.4-1-.4s-.8.2-1 .5c-.3.4-.4.8-.4 1.3 0 .8.3 1.6.9 2.2.7.6 1.6 1 2.6.9.7 0 1.3-.2 1.9-.5.6-.4 1.2-1 1.6-1.6.6-1 1.1-2 1.6-3.1l5.3-12.7c.1-.4.4-.8.7-1.1.3-.2.6-.4 1-.5.2-.1.4-.2.5-.4.1-.1.1-.3.1-.4 0-.2-.1-.4-.2-.6-.2-.1-.4-.2-.6-.2H903c-.2 0-.4.1-.6.2-.2.1-.3.3-.2.5 0 .2.1.4.2.5.1.1.3.2.5.3l.7.2c.3.1.6.3.7.6.1.4 0 .8-.2 1.2l-3.3 8.2-3.3-8c-.2-.4-.3-.8-.3-1.2 0-.3.2-.5.6-.5l.6-.2c.2-.1.4-.2.5-.3.1-.1.2-.3.2-.5s-.1-.4-.2-.5c-.2-.1-.4-.2-.6-.2h-5.8c-.2 0-.4.1-.6.2-.2.1-.3.3-.2.6 0 .2.1.3.2.4.1.1.3.3.5.3.3.1.7.2 1 .4.3.2.5.5.7.9l5.3 12.1-.5 1.2c-.7.5-1 1.1-1.3 1.6zm21.9-4.1c.3 0 .5.1.7.2.2.1.6.2 1 .3.4.1.9.1 1.3.1 1.4.1 2.8-.3 3.9-1.2.9-.8 1.4-1.9 1.3-3.1 0-.8-.2-1.5-.7-2.2-.5-.6-1.2-1.2-1.9-1.5-.9-.4-1.9-.8-2.9-1-.5-.1-1-.3-1.5-.5-.4-.2-.7-.4-1-.7-.3-.3-.4-.7-.4-1.1 0-.5.2-1 .6-1.4.5-.4 1.1-.6 1.7-.5.8 0 1.7.2 2.4.6.7.5 1.3 1.1 1.7 1.9.2.3.4.5.7.7.2.1.4.2.6.1.3-.1.5-.3.5-.6s0-.7-.1-1l-.8-2.5c0-.2-.1-.4-.3-.5-.1-.1-.3-.2-.5-.2-.1 0-.3 0-.4.1l-.4.3c-.1.1-.3.2-.4.2-.2 0-.4-.1-.6-.2-.3-.1-.7-.2-1-.3-.5-.1-1-.1-1.5-.1-.9 0-1.8.2-2.6.5-.7.3-1.3.8-1.7 1.5-.4.6-.6 1.4-.6 2.1 0 .8.2 1.6.6 2.2.5.6 1.1 1.2 1.8 1.5.9.4 1.8.7 2.7.9.6.1 1.1.3 1.7.5.4.2.8.4 1.2.8.3.3.4.7.4 1.1 0 .6-.2 1.1-.6 1.5-.6.5-1.3.7-2 .6-.6 0-1.1-.1-1.6-.3-.6-.2-1.1-.5-1.5-.9-.5-.4-.9-.9-1.3-1.5-.2-.2-.4-.4-.6-.5-.2-.1-.5-.1-.8 0-.2.1-.4.3-.5.5-.1.3 0 .7.1 1l1.1 2.4c.1.2.2.5.4.6.1.1.3.2.5.2s.3 0 .4-.1l.3-.3c.3-.2.4-.2.6-.2zm23.6-4.5c-.1 0-.2 0-.3.1-.1.1-.2.2-.3.4-.4.7-.9 1.2-1.5 1.6-.8.5-1.7.7-2.6.7-1.4.1-2.7-.5-3.7-1.5-.9-1-1.4-2.3-1.4-3.7h8.3c.5 0 1.1-.1 1.5-.5.4-.4.6-.9.5-1.4 0-1-.2-1.9-.8-2.8-.5-.8-1.2-1.5-2.1-1.9-1-.5-2-.7-3.1-.7-1.4 0-2.7.3-3.9 1-1.1.7-1.9 1.6-2.5 2.7-.6 1.2-.9 2.5-.9 3.9 0 1.3.3 2.6.9 3.8.6 1.1 1.4 2 2.5 2.5 1.2.6 2.5 1 3.8.9 1.1 0 2.2-.2 3.2-.6.8-.4 1.6-1 2.1-1.7.5-.6.8-1.4.8-2.2 0-.2 0-.3-.1-.5-.1-.1-.3-.1-.4-.1zm-9.4-5.7c.3-.7.8-1.3 1.4-1.7.6-.4 1.3-.6 2-.6.9 0 1.7.3 2.3.9.6.7.9 1.6.9 2.5 0 .6-.3.9-.9.9h-6.1c0-.7.2-1.3.4-2zm12.7-1.1h.9c.2 0 .3.1.5.3.1.2.2.5.2.7v7.8c0 .3 0 .5-.2.8-.1.2-.3.3-.5.4l-.5.1c-.2.1-.3.2-.5.3-.1.1-.2.3-.2.5s.1.4.2.5c.2.1.4.2.6.2h6.1c.2 0 .5-.1.6-.2.2-.1.2-.3.2-.5s-.1-.4-.2-.5c-.2-.2-.4-.3-.6-.3l-1.2-.1c-.2 0-.5-.1-.6-.3-.2-.2-.2-.5-.2-.8v-5.1c0-.8.1-1.6.4-2.4.2-.6.5-1.1 1-1.5.4-.3.8-.5 1.3-.5.3 0 .5.1.7.2.2.2.3.5.3.7v.5c0 .4.1.8.4 1.1.3.3.7.4 1.1.4.4 0 .9-.2 1.2-.5.3-.4.5-1 .4-1.5 0-.8-.2-1.6-.8-2.2-.6-.5-1.3-.8-2.1-.8s-1.6.3-2.3.8c-.8.6-1.3 1.3-1.7 2.2v.1l-.1-2c0-.3-.1-.5-.2-.7-.1-.1-.3-.2-.6-.2-.2 0-.4 0-.5.1l-.7.3-2.3.8-.6.3c-.1.1-.2.3-.2.5s.1.3.2.4c.2 0 .3.1.5.1zm16.3-5.5zM960 11h.9c.2 0 .3.1.5.3.1.2.2.5.2.7v7.8c0 .3 0 .5-.2.8-.1.2-.3.3-.5.4l-.5.1c-.2.1-.3.2-.5.3-.1.1-.2.3-.2.5s.1.4.2.5c.2.1.4.2.6.2h5.2c.2 0 .5-.1.6-.2.2-.1.2-.3.2-.5s-.1-.3-.2-.5c-.1-.1-.3-.2-.5-.3l-.5-.1c-.2-.1-.4-.2-.5-.4-.1-.2-.2-.5-.2-.8V9.3c0-.2-.1-.5-.2-.7-.2-.2-.4-.3-.6-.2-.2 0-.4 0-.7.1l-.8.3-2.3.8-.6.3c-.1.1-.2.3-.2.5s.1.3.2.4c.2.1.4.2.6.2zm2.7-5.4c.6 0 1.2-.2 1.7-.5.4-.4.6-.9.6-1.4 0-.5-.2-1-.6-1.4-.5-.4-1.1-.6-1.7-.5-.6 0-1.2.2-1.6.5-.4.3-.6.9-.6 1.4 0 .5.2 1.1.6 1.4.4.3 1 .5 1.6.5zm14.7 16.3c0-.2-.1-.4-.2-.5-.2-.2-.4-.2-.6-.3l-1.4-.1c-.2 0-.5-.1-.6-.3-.2-.2-.2-.5-.2-.8l-.1-9.3h2.1c.4 0 .9-.1 1.3-.3.2-.2.4-.4.4-.7 0-.2-.1-.4-.2-.5-.2-.1-.4-.2-.6-.2h-3.2v-.1c0-.2-.1-.5-.2-.7-.1-.3-.3-.5-.5-.8l-.6-.9c-.2-.3-.4-.7-.5-1-.1-.4-.2-.7-.2-1.1 0-.5.2-1.1.5-1.5.4-.4.9-.5 1.4-.5.4 0 .8.1 1.1.4.3.3.4.7.4 1.1v.6c0 .4.1.9.4 1.2.3.3.7.5 1.2.4.4 0 .8-.1 1.1-.4.3-.4.4-.8.4-1.3 0-.6-.2-1.2-.5-1.6-.4-.5-.9-.9-1.4-1.2-.7-.3-1.5-.5-2.3-.4-1.2-.1-2.5.3-3.4 1.1-1.2 1-1.6 2.7-1 4.2.2.4.3.7.6 1.1l.6.8c.1.2.2.4.2.6h-1.8c-.2 0-.4.1-.5.2-.1.1-.2.3-.2.5s.1.4.3.5c.2.2.5.3.8.4l.5.2c.3.1.5.2.7.4.1.2.2.4.2.7v8.1c0 .3-.1.6-.2.8-.2.2-.4.3-.6.4l-.6.1-.6.3c-.1.1-.2.3-.2.5s.1.4.2.5c.2.1.4.2.6.2h6.7c.4 0 .7-.3.7-.8zM989 15c-.9-.4-1.9-.8-2.9-1-.5-.1-1-.3-1.5-.5-.4-.2-.7-.4-1-.7-.3-.3-.4-.7-.4-1.1 0-.5.2-1 .6-1.4.5-.4 1.1-.6 1.7-.5.8 0 1.6.2 2.3.6.7.5 1.3 1.1 1.7 1.9.2.3.4.5.7.7.2.1.4.2.6.1.3-.1.5-.3.5-.6s0-.7-.1-1l-.8-2.5c0-.2-.1-.4-.3-.5-.1-.1-.3-.2-.5-.2-.1 0-.3.1-.4.1-.1.1-.2.2-.4.3-.1.1-.3.1-.4.2-.2 0-.4-.1-.6-.2-.3-.1-.7-.2-1-.3-.5-.1-1-.1-1.5-.1-.9 0-1.8.2-2.6.5-.7.3-1.3.8-1.7 1.5-.4.6-.6 1.4-.6 2.1 0 .8.2 1.6.6 2.2.5.6 1.1 1.1 1.8 1.5.9.4 1.8.7 2.7.9.6.1 1.1.3 1.7.5.4.2.8.4 1.2.8.3.3.4.7.4 1.1 0 .6-.2 1.1-.6 1.5-.5.4-1.2.7-1.9.6-.6 0-1.1-.1-1.6-.3-.6-.2-1.1-.5-1.5-.9-.5-.4-.9-.9-1.3-1.5-.2-.2-.4-.4-.6-.5-.2-.1-.5-.1-.7 0-.2.1-.4.3-.5.5-.1.3 0 .7.1 1l1.1 2.4c.1.2.2.5.4.6.1.1.3.2.5.2s.3 0 .4-.1l.3-.3c.1-.1.3-.2.4-.2.3 0 .5.1.7.2.3.1.6.2 1 .3.4.1.9.1 1.3.1 1.4.1 2.9-.3 4-1.2.9-.8 1.4-1.9 1.3-3.1 0-.8-.2-1.5-.7-2.2-.5-.7-1.2-1.2-1.9-1.5zm-654.2 7.3c1-.5 1.9-1.2 2.7-2l.1.6c0 .5.1 1 .4 1.3.3.3.8.5 1.2.4h2.4c.2 0 .5-.1.7-.2.2-.1.2-.3.2-.5s-.1-.3-.2-.5c-.1-.1-.3-.2-.5-.3l-.5-.2c-.2-.1-.4-.2-.5-.3-.1-.2-.2-.5-.2-.8V9.3c0-.2-.1-.5-.2-.7-.2-.2-.4-.3-.6-.2-.2 0-.4 0-.7.1l-.8.3-2.3.8-.6.3c-.1.1-.2.3-.2.5 0 .1 0 .3.1.4.1.1.3.2.4.2h1c.2 0 .3.1.5.3.1.2.2.5.2.7v6.8l-.2.2c-.6.5-1.2.9-1.9 1.3-.5.3-1.1.4-1.6.4-.7 0-1.3-.2-1.8-.7-.5-.6-.7-1.4-.7-2.1V9.3c0-.2-.1-.5-.2-.7-.2-.2-.4-.3-.6-.2-.2 0-.4 0-.7.1l-.8.3-2.3.8-.6.3c-.1.1-.2.3-.2.5s0 .3.2.4c.1.1.3.2.4.2h.9c.2 0 .3.1.5.3.1.2.2.5.2.7v6.6c-.1 1.2.4 2.3 1.2 3.2.8.8 1.9 1.2 3 1.2.9 0 1.8-.2 2.6-.7zm11.7-1.7c-.1.2-.3.3-.5.4l-.5.2c-.2.1-.3.2-.5.3-.1.1-.2.3-.2.5s.1.4.2.5c.2.1.4.2.6.2h5.2c.5 0 .8-.2.8-.7 0-.3-.2-.5-.6-.7l-.5-.2c-.2-.1-.4-.2-.5-.4-.1-.3-.2-.5-.2-.8v-7.5l.1-.1c.6-.5 1.2-1 1.9-1.3.5-.3 1.1-.4 1.7-.4.7 0 1.4.2 1.9.7.5.6.8 1.4.7 2.1v6.5c0 .3 0 .6-.2.8-.1.2-.3.3-.5.4l-.6.2c-.4.2-.6.4-.6.7 0 .5.3.7.8.7h5.2c.2 0 .5 0 .6-.2.2-.1.2-.3.2-.5s0-.3-.2-.5c-.1-.1-.3-.2-.5-.3l-.5-.2c-.2-.1-.4-.2-.5-.3-.1-.2-.2-.5-.2-.8v-7.3c.1-1.2-.4-2.3-1.2-3.1-.8-.8-1.9-1.3-3.1-1.2-.9 0-1.9.3-2.7.7-.9.5-1.8 1.2-2.6 1.9V9.3c0-.2-.1-.5-.2-.7-.2-.2-.4-.3-.6-.2-.2 0-.4 0-.7.1-.3.1-.5.2-.8.3l-2.3.8-.6.3c-.1.1-.2.3-.2.5s.1.3.2.4c.1.1.3.2.4.3h.9c.2 0 .3.1.5.3.1.2.2.5.2.7v7.8c.4.2.4.5.2.7zm23.1 2.1c.5 0 .8-.2.8-.7 0-.3-.2-.5-.6-.7l-.5-.2c-.2-.1-.4-.2-.5-.4-.1-.3-.2-.5-.2-.8v-7.5l.2-.2c.6-.5 1.2-1 1.9-1.3.5-.3 1.1-.4 1.7-.4.7 0 1.4.2 1.9.7.5.6.8 1.4.7 2.1v6.5c0 .3 0 .6-.2.8-.1.2-.3.3-.5.4l-.5.2c-.4.2-.6.4-.6.7 0 .5.3.7.8.7h5.2c.2 0 .5-.1.6-.2.2-.1.2-.3.2-.5s-.1-.3-.2-.5c-.1-.1-.3-.2-.5-.3l-.5-.2c-.2-.1-.4-.2-.5-.3-.1-.2-.2-.5-.2-.8v-7.3c.1-1.2-.4-2.3-1.2-3.1-.8-.8-1.9-1.3-3.1-1.2-.9 0-1.9.3-2.7.7-.9.5-1.8 1.2-2.6 1.9V9.3c0-.2-.1-.5-.3-.6-.2-.2-.4-.3-.6-.2-.2 0-.4 0-.7.1-.2.1-.5.2-.8.3l-2.1.7-.6.3c-.1.1-.2.3-.2.5 0 .1.1.3.2.4.1.1.3.2.4.3h.9c.2 0 .3.1.5.3.1.2.2.5.2.7v7.8c0 .3 0 .5-.2.8-.1.2-.3.3-.5.4l-.5.2c-.2.1-.4.2-.5.3-.1.1-.2.3-.2.5s.1.4.2.5c.2.1.4.2.6.2h5.3zm25.4-4.8c-.1 0-.2 0-.3.1-.1.1-.2.2-.3.4-.4.7-.9 1.2-1.5 1.6-.8.5-1.7.7-2.6.7-1.4.1-2.7-.5-3.7-1.5-.9-1-1.4-2.3-1.4-3.7h8.3c.5 0 1.1-.1 1.5-.5.4-.4.6-.9.5-1.4 0-1-.2-1.9-.8-2.8-.5-.8-1.2-1.5-2.1-1.9-1-.5-2-.7-3.1-.7-1.4 0-2.7.3-3.9 1-1.1.7-1.9 1.6-2.5 2.7-.6 1.2-.9 2.5-.9 3.9 0 1.3.3 2.6.9 3.8.6 1.1 1.4 2 2.5 2.5 1.2.6 2.5 1 3.8.9 1.1 0 2.2-.2 3.2-.6.8-.4 1.6-1 2.1-1.7.5-.6.8-1.4.8-2.2 0-.2 0-.3-.1-.5-.1-.1-.2-.1-.4-.1zm-9.3-5.7c.3-.7.8-1.3 1.4-1.7.6-.4 1.3-.6 2-.6.9 0 1.7.3 2.3.9.6.7.9 1.6.9 2.5 0 .6-.3.9-.9.9h-6.1c-.1-.7.1-1.3.4-2zm15.6 9.9c1.1.6 2.4.9 3.7.9 1.1 0 2.1-.2 3.1-.6.8-.4 1.6-.9 2.1-1.7.5-.6.8-1.4.8-2.2 0-.2 0-.3-.1-.5-.1-.1-.2-.2-.4-.2-.1 0-.2 0-.3.1l-.4.4c-.4.6-.9 1.2-1.5 1.5-.8.5-1.7.7-2.5.7-.9 0-1.8-.2-2.6-.7-.8-.5-1.4-1.1-1.8-1.9-.5-1-.7-2-.7-3.1 0-.9.2-1.8.5-2.6.3-.7.8-1.3 1.4-1.7.6-.4 1.3-.6 2.1-.6.7 0 1.4.2 2 .6.5.4.7.9.7 1.5v.4c0 .4.1.9.4 1.2.3.3.7.5 1.2.4.5 0 .9-.2 1.2-.5.3-.3.5-.8.5-1.3 0-.7-.2-1.4-.7-1.9-.5-.7-1.2-1.2-1.9-1.5-.9-.4-2-.6-3-.6-1.4 0-2.7.3-3.9 1-1.1.7-2 1.6-2.6 2.7-.6 1.2-.9 2.5-.9 3.9 0 1.3.3 2.6.9 3.7.8 1.2 1.7 2 2.7 2.6zm15.3 0c1.2.6 2.5 1 3.8.9 1.1 0 2.2-.2 3.2-.6.8-.4 1.6-1 2.1-1.7.5-.6.8-1.4.8-2.2 0-.2 0-.3-.1-.5-.1-.1-.2-.2-.3-.2-.1 0-.2 0-.3.1-.1.1-.2.2-.3.4-.4.7-.9 1.2-1.5 1.6-.8.5-1.7.7-2.6.7-1.4.1-2.7-.5-3.7-1.5-.9-1-1.4-2.3-1.4-3.7h8.3c.5 0 1.1-.1 1.5-.5.4-.4.6-.9.5-1.4 0-1-.3-1.9-.8-2.8-.5-.8-1.2-1.5-2.1-1.9-1-.5-2-.7-3.1-.7-1.4 0-2.7.3-3.9 1-1.1.7-1.9 1.6-2.5 2.7-.6 1.2-.9 2.5-.9 3.9 0 1.3.3 2.6.9 3.8.5 1.1 1.3 2 2.4 2.6zm.1-9.9c.3-.7.8-1.3 1.4-1.7.6-.4 1.3-.6 2-.6.9 0 1.7.3 2.3.9.6.7.9 1.6.9 2.5 0 .6-.3.9-.9.9h-6.1c-.1-.7.1-1.3.4-2zm23.9 6.4c0-.8-.2-1.5-.7-2.2-.5-.6-1.2-1.2-1.9-1.5-.9-.4-1.9-.8-2.9-1-.5-.1-1-.3-1.5-.5-.4-.2-.7-.4-1-.7-.3-.3-.4-.7-.4-1.1 0-.5.2-1 .6-1.4.5-.4 1.1-.6 1.7-.5.8 0 1.7.2 2.4.6.7.5 1.3 1.1 1.7 1.9.2.3.4.5.7.7.2.1.4.2.6.1.3-.1.5-.3.5-.6s0-.7-.1-1l-.9-2.4c0-.2-.1-.4-.3-.5-.1-.1-.3-.2-.5-.2-.1 0-.3 0-.4.1l-.3.3c-.1.1-.3.2-.4.2-.2 0-.4-.1-.6-.2-.3-.1-.7-.2-1-.3-.5-.1-1-.1-1.5-.1-.9 0-1.8.2-2.6.5-.7.3-1.3.8-1.7 1.5-.4.6-.6 1.4-.6 2.1 0 .8.2 1.6.6 2.2.5.6 1.1 1.2 1.8 1.5.9.4 1.8.7 2.7.9.6.1 1.1.3 1.7.5.4.2.8.4 1.2.8.3.3.4.7.4 1.1 0 .6-.2 1.1-.6 1.5-.5.4-1.2.7-2 .6-.6 0-1.1-.1-1.6-.3-.6-.2-1.1-.5-1.5-.9-.5-.4-.9-.9-1.3-1.5-.2-.2-.4-.4-.6-.5-.2-.1-.5-.1-.7 0-.2.1-.4.3-.5.5-.1.3 0 .7.1 1l1.1 2.4c.1.2.2.5.4.6.1.1.3.2.5.2s.3 0 .4-.1l.3-.3c.1-.1.3-.2.5-.2s.5 0 .7.1c.3.1.6.2 1 .3.4.1.9.1 1.3.1 1.4.1 2.9-.3 4-1.2.7-.8 1.2-1.9 1.2-3.1zm14.1 0c0-.8-.2-1.5-.7-2.2-.5-.6-1.2-1.2-1.9-1.5-.9-.4-1.9-.8-2.9-1-.5-.1-1-.3-1.5-.5-.4-.2-.7-.4-1-.7-.3-.3-.4-.7-.4-1.1 0-.5.2-1 .6-1.4.5-.4 1.1-.6 1.7-.5.8 0 1.6.2 2.3.6.7.5 1.3 1.1 1.7 1.9.2.3.4.5.7.7.2.1.4.2.6.1.3-.1.5-.3.5-.6s0-.7-.1-1l-.8-2.5c0-.2-.1-.4-.3-.5-.1-.1-.3-.2-.5-.2-.1 0-.3 0-.4.1l-.4.3c-.1.1-.3.2-.4.2-.2 0-.4-.1-.6-.2-.3-.1-.7-.2-1-.3-.5-.1-1-.1-1.5-.1-.9 0-1.8.2-2.6.5-.7.3-1.3.8-1.7 1.5-.4.6-.6 1.4-.6 2.1 0 .8.2 1.6.6 2.2.5.6 1.1 1.2 1.8 1.5.9.4 1.8.7 2.7.9.6.1 1.1.3 1.7.5.5.2.9.4 1.2.8.3.3.4.7.4 1.1 0 .6-.2 1.1-.6 1.5-.6.5-1.3.7-2 .6-.6 0-1.1-.1-1.6-.3-.6-.2-1.1-.5-1.5-.9-.5-.4-.9-.9-1.3-1.5-.2-.2-.4-.4-.6-.5-.2-.1-.5-.1-.7 0-.2.1-.4.3-.5.5-.1.3 0 .7.1 1l1.1 2.4c.1.2.2.5.4.6.1.1.3.2.5.2s.3 0 .4-.1l.3-.3c.1-.1.3-.2.5-.2.3 0 .5.1.7.2.3.1.6.2 1 .3.4.1.9.1 1.3.1 1.4.1 2.9-.3 4-1.2.8-.8 1.3-1.9 1.3-3.1zm15.7 4.2c.3-.2.7-.4.9-.7.2-.3.3-.6.3-.9 0-.2 0-.3-.2-.5-.1-.1-.3-.2-.4-.2-.1 0-.2 0-.3.1-.1.1-.2.2-.3.2-.1.1-.3.1-.5.1s-.4-.1-.5-.2c-.1-.1-.2-.3-.2-.5v-7.8c.1-1.1-.4-2.2-1.2-3-1-.8-2.3-1.2-3.6-1.1-1.2 0-2.4.2-3.5.6-.9.3-1.6.8-2.2 1.5-.5.5-.7 1.2-.8 1.9 0 .4.1.7.4 1 .3.3.7.4 1.1.4.5 0 .9-.1 1.3-.4.3-.3.5-.7.5-1.1v-1c0-.4.2-.8.6-1 .5-.3 1.1-.5 1.7-.4.7 0 1.4.2 1.9.6.5.5.7 1.1.7 1.8v3.6c-.3-.1-.6-.2-.9-.2-.6-.1-1.2-.2-1.8-.2-1.6-.1-3.1.3-4.5 1.2-1 .6-1.7 1.8-1.7 3 0 1 .4 2 1.2 2.6.9.7 2 1 3.1.9 1.1 0 2.1-.2 3.1-.7.6-.3 1.2-.7 1.7-1.3 0 .6.3 1.1.7 1.4.5.4 1.2.6 1.9.6.6 0 1.1-.1 1.5-.3zm-4.2-3c-.3.3-.7.6-1.1.9-.6.3-1.3.5-2.1.5-.6 0-1.2-.2-1.7-.5-.5-.4-.7-1-.7-1.6 0-.7.3-1.3.8-1.7.7-.5 1.5-.7 2.3-.6.5 0 1 0 1.4.2.3.1.6.2 1 .3v2.5zm7.7-8.7h.9c.2 0 .3.1.5.3.1.2.2.5.2.7v7.8c0 .3 0 .5-.2.8-.1.2-.3.3-.5.4l-.5.1c-.2.1-.3.2-.5.3-.1.1-.2.3-.2.5s.1.4.2.5c.2.1.4.2.6.2h6.1c.2 0 .5-.1.6-.2.2-.1.2-.3.2-.5s-.1-.4-.2-.5c-.2-.2-.4-.3-.6-.3l-1.2-.1c-.2 0-.5-.1-.6-.3-.2-.2-.2-.5-.2-.8v-5.2c0-.8.1-1.6.4-2.4.2-.6.5-1.1 1-1.5.4-.3.8-.5 1.3-.5.3 0 .5.1.7.2.2.2.3.5.3.7v.5c0 .4.1.8.4 1.1.3.3.7.4 1.1.4.4 0 .9-.2 1.2-.5.3-.4.5-1 .5-1.5 0-.8-.2-1.6-.8-2.2-.6-.5-1.3-.8-2.1-.8s-1.6.3-2.3.8c-.8.6-1.3 1.3-1.7 2.2v.1l-.1-2c0-.3-.1-.5-.3-.8-.1-.1-.4-.2-.6-.2-.2 0-.4 0-.5.1l-.7.3-2.3.8-.6.3c-.1.1-.2.3-.2.5s.1.4.2.5c.2.1.3.2.5.2zm27-.5c.3-.2.6-.4 1-.5.2-.1.4-.2.5-.4.1-.1.1-.3.1-.4 0-.2-.1-.4-.2-.6-.2-.1-.4-.2-.6-.2h-4.3c-.2 0-.4.1-.6.2-.2.1-.2.3-.2.5s.1.4.2.5c.1.1.3.2.5.3l.7.2c.3.1.6.3.7.6.1.4 0 .8-.2 1.2l-3.3 8.2-3.3-8c-.2-.4-.3-.8-.3-1.2 0-.3.2-.5.6-.5l.6-.2c.2-.1.4-.2.5-.3.1-.1.2-.3.2-.5s-.1-.4-.2-.5c-.2-.1-.4-.2-.6-.2h-5.8c-.2 0-.5.1-.6.2-.3-.1-.3.1-.3.3 0 .2 0 .3.2.4.1.1.3.3.5.3.3.1.7.2 1 .4.3.2.5.5.7.9l5.3 12.1-.6 1.3c-.2.6-.5 1.2-.9 1.8-.2.4-.5.7-.8.9-.2.2-.5.3-.8.3-.2 0-.5-.1-.7-.2-.2-.2-.3-.5-.4-.8l-.1-.5c-.1-.4-.3-.8-.5-1.1l-.1-.1c-.6-.5-1.4-.4-1.9.2-.3.4-.4.8-.4 1.3 0 .8.3 1.6.9 2.2.7.6 1.6 1 2.6.9.7 0 1.3-.2 1.9-.5.6-.4 1.2-1 1.6-1.6.6-1 1.1-2 1.6-3.1l5.3-12.7c0-.4.2-.8.5-1.1zm29.2-8.9h-5.3c-.3 0-.5.1-.7.2-.2.2-.3.4-.2.6 0 .2.1.5.2.6.2.2.4.3.7.3l.7.1c.3 0 .6.2.8.4.2.2.3.5.3.8l.5 9.1c0 .4.1.8.1 1.2v1.6c.1.8-.1 1.7-.5 2.4s-1 1.2-1.8 1.6c-.9.4-1.9.6-2.9.5-1.5.1-2.9-.3-4.2-1.2-1-.9-1.6-2.2-1.4-3.5v-1.6c0-.6.1-1.2.1-1.9l.4-8.1c0-.3.1-.6.3-.8.2-.2.5-.4.8-.4l.7-.1c.2-.1.5-.2.7-.3.2-.2.3-.4.2-.6 0-.2-.1-.5-.2-.6-.2-.2-.5-.2-.7-.2h-6.9c-.3 0-.5.1-.7.2-.2.2-.3.4-.3.6 0 .5.3.8.9 1l.7.1c.3 0 .6.2.8.4.2.3.3.6.2.9l-.4 8c0 .3-.1.8-.1 1.2l-.1 1.5v1.2c-.1 1.2.3 2.4.9 3.4.7 1 1.7 1.8 2.8 2.2 1.4.5 3 .8 4.5.8 1.6 0 3.1-.2 4.6-.8 1.1-.5 2.1-1.2 2.8-2.2.6-1 .9-2.1.8-3.3-.1-.5 0-1-.1-1.5 0-.5-.1-1-.1-1.5l-.6-9c0-.3.1-.6.3-.9.2-.2.5-.4.9-.5l.7-.1c.2-.1.5-.2.7-.3.2-.2.2-.4.2-.6 0-.2-.1-.5-.2-.6-.4-.3-.6-.3-.9-.3zm4.9 2.1h.3c.2 0 .3 0 .5.2.1.2.1.3.1.5 0 .3-.1.7-.2.9-.2.3-.4.6-.7.9-.3.3-.7.5-1.2.6-.2.1-.4.2-.6.4-.1.1-.1.3-.1.5s.2.4.4.5c.2.1.5.1.8 0 .7-.2 1.3-.6 1.9-1.1.5-.5 1-1.1 1.2-1.8.3-.7.4-1.5.4-2.3.1-.9-.2-1.7-.7-2.4-.5-.5-1.1-.8-1.8-.8-.6 0-1.1.2-1.6.6-.4.4-.7.9-.7 1.5 0 .5.2 1 .5 1.3.4.4.9.6 1.5.5zm5.9 18.3c.1.2.2.5.4.6.1.1.3.2.5.2s.3 0 .4-.1l.3-.3c.1-.1.3-.2.5-.2s.5.1.7.2c.3.1.6.2 1 .3.4.1.9.1 1.3.1 1.4.1 2.8-.3 4-1.2.9-.8 1.4-1.9 1.3-3.1 0-.8-.2-1.5-.7-2.2-.5-.6-1.2-1.1-1.9-1.5-.9-.4-1.9-.8-2.9-1-.5-.1-1-.3-1.5-.5-.4-.2-.7-.4-1-.7-.3-.3-.4-.7-.4-1.1 0-.5.2-1 .6-1.4.5-.4 1-.6 1.6-.5.9 0 1.7.2 2.4.6.7.5 1.3 1.1 1.7 1.9.2.3.4.5.7.7.2.1.4.2.6.1.3-.1.5-.3.5-.6s0-.7-.1-1l-.8-2.5c0-.2-.1-.4-.3-.5-.1-.1-.3-.2-.5-.2-.1 0-.3.1-.4.1-.1.1-.2.2-.4.3-.1.1-.3.1-.5.2-.2 0-.4-.1-.6-.2-.3-.1-.7-.2-1-.3-.5-.1-1-.1-1.5-.1-.9 0-1.8.2-2.6.5-.7.3-1.3.8-1.7 1.5-.4.6-.6 1.4-.6 2.1 0 .8.2 1.6.6 2.2.5.6 1.1 1.1 1.8 1.5.9.4 1.8.7 2.7.9.6.1 1.1.3 1.7.5.4.2.8.4 1.2.8.3.3.4.7.4 1.1 0 .6-.2 1.1-.6 1.5-.6.5-1.3.7-2 .6-.6 0-1.1-.1-1.6-.3-.5-.2-1.1-.5-1.5-.9-.5-.4-.9-.9-1.3-1.5-.2-.2-.4-.4-.6-.5-.2-.1-.5-.1-.7 0-.2.1-.4.3-.5.5-.1.3 0 .7.1 1l1.2 2.4zm648.8 405.7c-1-.6-2.1-.9-3.2-.9-1.2 0-2.4.3-3.4 1l-1.5 1.2v-1.2c0-.2-.1-.4-.2-.6-.2-.2-.4-.3-.6-.2-.2 0-.4 0-.7.1-.3.1-.5.2-.8.3l-2.1.8-.6.3c-.1.1-.2.3-.2.5s.1.3.2.4c.1.1.3.2.4.3h.9c.2 0 .3.1.5.3.1.2.2.5.2.7v14.8c0 .3 0 .5-.2.8-.1.2-.3.3-.5.4l-.5.2c-.2.1-.3.2-.5.3-.1.1-.2.3-.2.5s.1.4.2.5c.2.1.4.2.6.2h5.6c.2 0 .5-.1.7-.2.2-.1.2-.3.2-.5s-.1-.3-.2-.5c-.1-.1-.3-.2-.5-.3l-.9-.2c-.2-.1-.4-.2-.5-.3-.1-.2-.2-.5-.2-.8v-5.2c.2.2.4.3.7.5 1 .6 2.1 1 3.3.9 1.2 0 2.5-.3 3.6-.9 1.1-.6 2-1.6 2.5-2.7.7-1.3 1-2.6.9-4.1 0-1.3-.2-2.5-.8-3.7-.5-1.2-1.3-2.1-2.2-2.7zm-.9 9.5c-.3.8-.8 1.4-1.5 1.9-.6.4-1.4.7-2.1.7-.9 0-1.7-.3-2.4-.8-.4-.3-.8-.6-1.1-1v-7.5c.3-.3.7-.7 1-.9.7-.5 1.5-.7 2.4-.7.8 0 1.5.2 2.1.6.7.5 1.2 1.1 1.5 1.8.8 1.9.8 4 .1 5.9zm15.4-10.4c-.8 0-1.6.3-2.3.8-.8.6-1.3 1.3-1.7 2.2v.1l-.1-2c0-.3-.1-.5-.2-.7-.1-.1-.3-.2-.6-.2-.2 0-.4 0-.5.1l-.7.3-2.3.8-.6.3c-.1.1-.2.3-.2.5s.1.3.2.4c.1.1.3.2.4.2h.9c.2 0 .4.1.5.3.1.2.2.4.2.7v7.8c0 .3 0 .5-.2.8-.1.2-.3.3-.5.4l-.5.2c-.2.1-.3.2-.5.3-.1.1-.2.3-.2.5s.1.4.2.5c.2.1.4.2.6.2h6.1c.2 0 .5-.1.6-.2.2-.1.2-.3.2-.5s-.1-.4-.2-.5l-.6-.3-1.2-.2c-.2 0-.5-.1-.6-.3-.2-.2-.2-.5-.2-.8v-5.1c0-.8.1-1.6.4-2.4.2-.6.6-1.1 1-1.5.4-.3.8-.5 1.3-.5.3 0 .5.1.7.2.2.2.3.5.3.8v.5c0 .4.1.8.4 1 .3.3.7.4 1.1.4.4 0 .9-.2 1.2-.5.3-.4.5-1 .4-1.5 0-.8-.2-1.6-.8-2.2-.5-.7-1.3-1-2-.9zm17.4 9.6c-.1 0-.2 0-.3.1-.1.1-.3.2-.4.4-.4.7-.9 1.2-1.5 1.6-.8.5-1.7.7-2.6.7-1.4.1-2.7-.5-3.7-1.5-.9-1-1.4-2.3-1.4-3.7h8.2c.5 0 1.1-.1 1.5-.5.4-.4.6-.9.5-1.4 0-1-.2-1.9-.7-2.8-.5-.8-1.2-1.5-2.1-1.9-1-.5-2-.7-3.1-.7-1.4 0-2.7.3-3.9 1-1.1.6-1.9 1.6-2.5 2.7-.6 1.2-.9 2.5-.9 3.8 0 1.3.3 2.6.9 3.8.6 1.1 1.4 2 2.5 2.5 1.2.6 2.5 1 3.8.9 1.1 0 2.2-.2 3.2-.7.8-.4 1.6-1 2.1-1.7.5-.6.8-1.4.8-2.2 0-.2 0-.3-.1-.5-.1.2-.2.1-.3.1zm-9.4-5.6c.3-.7.8-1.3 1.4-1.7.6-.4 1.3-.6 2-.6.9 0 1.7.3 2.3.9.6.7.9 1.6.9 2.5 0 .6-.4.9-1 .9h-6c0-.7.1-1.4.4-2zm25 5.6c-.1 0-.2 0-.3.1l-.4.4c-.4.6-.9 1.2-1.5 1.5-.8.5-1.7.7-2.6.7-.9 0-1.8-.2-2.6-.7-.8-.4-1.4-1.1-1.8-1.9-.5-1-.7-2-.7-3.1 0-.9.2-1.8.5-2.6.3-.7.8-1.3 1.4-1.7.6-.4 1.3-.6 2-.6s1.4.2 2 .6c.5.4.7.9.7 1.5v.4c0 .4.1.9.4 1.2.3.3.8.5 1.2.4.5 0 .9-.2 1.2-.5.3-.3.5-.8.5-1.2 0-.7-.2-1.4-.6-2-.5-.7-1.2-1.2-1.9-1.5-.9-.4-2-.6-3-.6-1.4 0-2.7.3-3.9 1-1.1.7-2 1.6-2.6 2.7-.6 1.2-.9 2.5-.9 3.9 0 1.3.3 2.6.9 3.7.6 1.1 1.4 1.9 2.5 2.5 1.1.6 2.4.9 3.7.9 1.1 0 2.1-.2 3.1-.6.8-.4 1.6-.9 2.1-1.7.5-.6.8-1.4.8-2.2 0-.2 0-.3-.1-.5.1-.1 0-.1-.1-.1zm16.4 2.6c-.1 0-.2 0-.3.1-.1.1-.2.2-.3.2-.1.1-.3.1-.4.1-.2 0-.4-.1-.5-.2-.1-.1-.2-.3-.2-.5V431c.1-1.1-.4-2.2-1.2-3-1-.8-2.3-1.2-3.6-1.1-1.2 0-2.4.2-3.5.6-.9.3-1.6.8-2.2 1.5-.5.5-.7 1.2-.8 1.9 0 .4.1.7.4 1 .3.3.7.4 1.1.4.5 0 .9-.1 1.3-.4.3-.3.5-.7.5-1.1v-1c0-.4.2-.8.6-1 .5-.3 1.1-.5 1.7-.4.7 0 1.4.2 1.9.6.5.5.7 1.1.7 1.8v3.6c-.3-.1-.6-.2-.9-.2-.6-.1-1.2-.2-1.8-.2-1.6-.1-3.1.3-4.5 1.2-1 .6-1.7 1.8-1.7 3 0 1 .4 2 1.2 2.6.9.6 2 1 3.1.9 1.1 0 2.1-.2 3.1-.7.6-.3 1.2-.8 1.7-1.3 0 .6.3 1.1.7 1.5.5.4 1.2.6 1.9.5.5 0 .9-.1 1.3-.3.4-.2.7-.4.9-.7.2-.3.3-.6.3-.9 0-.2 0-.3-.2-.5 0-.1-.1-.2-.3-.2zm-4.8-.7c-.3.3-.7.6-1.1.8-.6.3-1.3.5-2.1.5-.6 0-1.2-.2-1.7-.5-.5-.4-.7-1-.7-1.6 0-.7.3-1.3.8-1.7.7-.4 1.5-.7 2.3-.6.5 0 1 0 1.4.1.3.1.6.2 1 .3v2.7zm16.3-11.5c-.8 0-1.6.3-2.3.8-.8.6-1.3 1.3-1.7 2.2v.1l-.1-2c0-.3-.1-.5-.2-.7-.1-.2-.4-.2-.6-.2-.2 0-.4.1-.5.1l-.7.3-2.3.8-.6.3c-.1.1-.2.3-.2.5s0 .3.2.4c.1.1.3.2.4.2h.9c.2 0 .3.1.5.3.1.2.2.5.2.7v7.8c0 .3 0 .5-.2.8-.1.2-.3.3-.5.4l-.5.2c-.2.1-.3.2-.5.3-.1.1-.2.3-.2.5s.1.4.2.5c.2.1.4.2.6.2h6.1c.2 0 .5-.1.6-.2.2-.1.2-.3.2-.5s-.1-.4-.2-.5l-.6-.3-1.2-.2c-.2 0-.5-.1-.6-.3-.2-.2-.2-.5-.2-.8v-5.1c0-.8.1-1.6.4-2.4.2-.6.6-1.1 1-1.5.4-.3.8-.5 1.3-.5.3 0 .5.1.7.2.2.2.3.5.3.8v.5c0 .4.1.8.4 1 .3.3.7.4 1.1.4.5 0 .9-.2 1.2-.5.3-.5.5-1 .4-1.5 0-.8-.2-1.6-.8-2.2-.5-.7-1.2-1-2-.9zm10.9 12.9l-.5-.2c-.2-.1-.4-.2-.5-.3-.1-.2-.2-.5-.2-.8v-10.6c0-.2-.1-.4-.2-.6-.2-.2-.4-.3-.6-.2-.2 0-.4 0-.7.1l-.8.3-2.3.8-.6.3c-.1.1-.2.3-.2.5s.1.3.2.4c.1.1.3.2.4.3h.9c.2 0 .3.1.5.3.1.2.2.5.2.7v7.8c0 .3 0 .5-.2.8-.1.2-.3.3-.5.4l-.5.2c-.2.1-.3.2-.5.3-.1.1-.2.3-.2.5s.1.4.2.5c.2.1.4.2.6.2h5.2c.2 0 .5-.1.7-.2.2-.1.2-.3.2-.5s0-.3-.2-.5c-.1-.3-.2-.4-.4-.5zm-3.3-15.6c.6 0 1.2-.2 1.7-.5.4-.4.6-.9.6-1.4 0-.5-.2-1.1-.6-1.4-.5-.4-1.1-.6-1.7-.5-.6 0-1.2.2-1.6.5-.4.4-.6.9-.6 1.4 0 .5.2 1.1.6 1.4.5.4 1.1.6 1.6.5zm.1 0c-.1 0-.1 0 0 0-.1 0-.1 0 0 0zm17.5 3.6c-1.2-.6-2.5-1-3.9-.9-1.4-.1-2.8.3-4 .9-1.1.6-2 1.5-2.7 2.6-.7 1.1-1 2.4-1 3.8s.3 2.7 1 3.9c.6 1.1 1.5 2 2.6 2.6 1.2.7 2.5 1 3.9 1s2.8-.3 4-1c1.1-.6 2-1.5 2.7-2.6.7-1.1 1-2.4 1-3.8 0-1.3-.3-2.7-.9-3.8-.7-1.2-1.6-2.1-2.7-2.7zm.2 8.7c-.1.8-.5 1.6-1 2.2-.5.6-1.2.9-1.9 1.1-.8.1-1.5 0-2.2-.3-.8-.4-1.4-.9-1.9-1.6-.6-.9-1-1.9-1.2-2.9-.2-1-.3-2-.1-3 .1-.8.5-1.5 1-2.2.5-.6 1.2-.9 1.9-1.1.8-.2 1.6-.1 2.3.3.7.4 1.4.9 1.8 1.7.6.9 1 1.9 1.2 2.9.2.9.3 1.9.1 2.9zm21.1 3.3l-.5-.2c-.2-.1-.4-.2-.5-.3-.1-.2-.2-.5-.2-.8v-10.6c0-.2-.1-.5-.2-.7-.2-.2-.4-.3-.6-.2-.2 0-.4 0-.7.1l-.8.3-2.2.8-.6.3c-.1.1-.2.3-.2.5s0 .3.2.4c.1.1.3.2.4.2h1c.2 0 .3.1.4.3.1.2.2.4.2.7v6.8l-.3.3c-.6.5-1.2.9-1.8 1.3-.5.3-1.1.4-1.6.4-.7 0-1.3-.2-1.8-.7-.5-.6-.7-1.4-.7-2.1V428c0-.2-.1-.5-.2-.7-.2-.2-.4-.3-.6-.2-.2 0-.4 0-.7.1l-.8.3-2.3.8-.6.3c-.1.1-.2.3-.2.5s0 .3.2.4c.1.1.3.2.4.2h.9c.2 0 .3.1.5.3.1.2.2.5.2.7v6.6c-.1 1.2.4 2.3 1.2 3.2.8.8 1.9 1.2 3 1.2.9 0 1.8-.3 2.6-.7 1-.6 1.8-1.2 2.7-2l.1.6h-.1v.3c.1.8.8 1.5 1.7 1.4h2.4c.2 0 .5-.1.7-.2.2-.1.2-.3.2-.5s-.1-.3-.2-.5l-.6-.3zm12-6.2c-.9-.4-1.9-.8-2.9-1-.5-.1-1-.3-1.5-.5-.4-.2-.7-.4-1-.7-.3-.3-.4-.7-.3-1.1 0-.5.2-1 .6-1.3.5-.4 1.1-.6 1.7-.5.8 0 1.7.2 2.4.7.7.5 1.3 1.1 1.7 1.8.2.3.4.5.7.7.2.1.4.2.6.1.3-.1.5-.3.5-.6s0-.7-.1-1l-.8-2.5c0-.2-.1-.4-.3-.5-.1-.1-.3-.2-.5-.2-.1 0-.3.1-.4.2l-.4.3c-.1.1-.3.2-.4.2-.2 0-.4-.1-.6-.2-.3-.1-.7-.2-1-.3-.5-.1-1-.2-1.5-.2-.9 0-1.8.2-2.6.5-.7.3-1.3.8-1.7 1.5-.8 1.3-.8 3 0 4.3.5.6 1.1 1.2 1.8 1.5.9.4 1.8.7 2.7.9.6.1 1.1.3 1.7.5.4.2.8.4 1.2.8.3.3.4.7.4 1.1 0 .6-.2 1.1-.6 1.5-.5.5-1.2.7-1.9.6-.6 0-1.1-.1-1.6-.3-.5-.2-1.1-.5-1.5-.9-.5-.4-.9-.9-1.3-1.5-.2-.2-.4-.4-.6-.5-.2-.1-.5-.1-.8 0-.2.1-.4.3-.5.5-.1.3 0 .7.1 1l1.1 2.4c.1.2.2.5.4.6.1.1.3.2.5.2s.3 0 .4-.1l.3-.3c.1-.1.3-.2.4-.2.2 0 .5.1.7.1.2.1.6.2 1 .3.4.1.9.1 1.3.1 1.4.1 2.8-.3 3.9-1.2.9-.8 1.4-1.9 1.3-3.1 0-.8-.2-1.5-.7-2.2-.5-.6-1.1-1.1-1.9-1.5zm18.3 6.2l-.5-.2c-.2-.1-.4-.2-.5-.3-.1-.2-.2-.5-.2-.8v-18.4c0-.2-.1-.5-.2-.7-.2-.2-.4-.3-.6-.2-.2 0-.4 0-.7.1l-.8.3-2.3.8-.6.3c-.1.1-.2.3-.2.5s0 .3.2.4c.1.1.3.2.4.2h.9c.2 0 .3.1.5.3.1.2.2.5.2.7v15.6c0 .3 0 .5-.2.8-.1.2-.3.3-.5.4l-.5.2c-.2.1-.3.2-.5.3-.1.1-.2.3-.2.5s.1.4.2.5c.2.1.4.2.6.2h5.2c.2 0 .5-.1.7-.2.2-.1.2-.3.2-.5s0-.3-.2-.5c-.1-.1-.2-.2-.4-.3zm15.6-3.3c-.1 0-.2 0-.3.1-.1.1-.2.2-.3.4-.4.7-.9 1.2-1.5 1.6-.8.5-1.7.7-2.6.7-1.4.1-2.7-.5-3.7-1.5-.9-1-1.4-2.3-1.4-3.7h8.3c.5 0 1.1-.1 1.5-.5.4-.4.6-.9.5-1.4 0-1-.2-1.9-.8-2.8-.5-.8-1.2-1.5-2.1-1.9-1-.5-2-.7-3.1-.7-1.4 0-2.7.3-3.9 1-1.1.6-1.9 1.6-2.5 2.7-.6 1.2-.9 2.5-.9 3.8 0 1.3.3 2.6.9 3.8.6 1.1 1.4 2 2.5 2.5 1.2.6 2.5 1 3.8.9 1.1 0 2.2-.2 3.2-.7.8-.4 1.6-1 2.1-1.7.5-.6.8-1.4.8-2.2 0-.2 0-.3-.1-.5-.1.2-.2.1-.4.1zm-9.3-5.6c.3-.7.8-1.3 1.4-1.7.6-.4 1.3-.6 2-.6.9 0 1.7.3 2.3.9.6.7.9 1.6.9 2.5 0 .6-.3.9-.9.9h-6.1c-.1-.7.1-1.4.4-2zm26.1-5.9c-.7 0-1.3.2-1.9.6-.6.5-1.2 1.2-1.5 1.9-1.1-.5-2.2-.7-3.4-.7-1.2 0-2.4.2-3.5.7-1 .4-1.8 1.1-2.4 2-.6.9-.9 1.9-.9 3 0 1 .3 2 .8 2.8.6.9 1.4 1.6 2.3 2 .2.1.4.2.6.2l-.9.3c-.4.2-.7.5-1 .8-.2.3-.3.6-.3.9 0 .5.1.9.4 1.3.4.4.9.7 1.4.9-.9.2-1.8.6-2.7 1.1-.8.5-1.2 1.4-1.2 2.3 0 .6.3 1.2.7 1.7.6.6 1.4 1 2.3 1.2 1.3.3 2.6.5 3.9.4 2.1.1 4.1-.3 6-1.2 1.2-.6 2-1.8 2.1-3.2 0-.7-.2-1.3-.5-1.9-.5-.6-1.1-1-1.8-1.3-1-.4-2.1-.7-3.2-.8-1.2-.2-2.2-.3-2.8-.5-.5-.1-1-.2-1.4-.5-.2-.1-.4-.3-.4-.6 0-.2.1-.4.2-.6.1-.1.2-.1.3-.2.6.1 1.1.2 1.7.1 1.2 0 2.3-.2 3.4-.7.9-.4 1.7-1.1 2.3-2 .6-.9.9-2 .8-3 0-1-.3-2-.8-2.8-.4-.5-.8-1-1.3-1.4.1-.2.3-.4.4-.5.2-.3.5-.5.8-.5.2 0 .3.1.4.2.1.1.2.2.3.4.1.1.3.3.4.3.2.1.4.2.7.2.4 0 .7-.1.9-.4.2-.3.3-.7.3-1.1 0-.5-.2-.9-.5-1.2-.1-.1-.6-.2-1-.2zm-8.6 17.3c.8.2 1.6.3 2.3.4.9.1 1.8.2 2.6.5.5.1 1 .4 1.3.7.3.2.4.6.4.9 0 .4-.2.9-.5 1.2-.4.4-1 .6-1.5.8-.8.2-1.7.3-2.6.3-1.3.1-2.6-.1-3.8-.7-.6-.3-1.1-1-1.1-1.7 0-.6.4-1.2.9-1.6.6-.4 1.3-.7 2-.8zm4.2-6.6c-.6.7-1.5 1.1-2.4 1-.7 0-1.3-.2-1.8-.6-.6-.4-1-1-1.3-1.7-.3-.8-.5-1.7-.5-2.5 0-.7.1-1.3.4-1.9.2-.5.6-1 1.1-1.3.5-.3 1.1-.5 1.7-.4 1 0 2 .5 2.6 1.3.7 1 1 2.2 1 3.4.1 1-.2 2-.8 2.7zm18.3-.6c-.5-.6-1.2-1.1-1.9-1.5-.9-.4-1.9-.8-2.9-1-.5-.1-1-.3-1.5-.5-.4-.2-.7-.4-1-.7-.3-.3-.4-.7-.4-1.1 0-.5.2-1 .6-1.3.5-.4 1.1-.6 1.7-.5.9 0 1.7.2 2.4.6.7.5 1.3 1.1 1.7 1.8.2.3.4.5.7.7.2.1.4.2.6.1.3-.1.5-.3.5-.6s0-.7-.1-1l-.8-2.5c0-.2-.1-.4-.3-.5-.1-.1-.3-.2-.5-.2-.1 0-.3.1-.4.2l-.4.3c-.1.1-.3.2-.4.2-.2 0-.4-.1-.6-.2-.3-.1-.7-.2-1-.3-.5-.1-1-.2-1.5-.2-.9 0-1.8.2-2.6.5-.7.3-1.3.8-1.7 1.5-.4.6-.6 1.4-.6 2.1 0 .8.2 1.6.6 2.2.5.6 1.1 1.2 1.8 1.5.9.4 1.8.7 2.7.9.6.1 1.1.3 1.7.5.4.2.8.4 1.2.8.3.3.4.7.4 1.1 0 .6-.2 1.1-.6 1.5-.6.5-1.3.7-2 .6-.6 0-1.1-.1-1.7-.3-.5-.2-1.1-.5-1.5-.9-.5-.4-.9-.9-1.3-1.5-.2-.2-.4-.4-.6-.5-.2-.1-.5-.1-.8 0-.2.1-.4.3-.5.5-.1.3 0 .7.1 1l1.1 2.4c.1.2.2.5.4.6.1.1.3.2.5.2s.3 0 .4-.1l.3-.3c.1-.1.3-.2.4-.2.2 0 .5.1.7.1.2.1.6.2 1 .3.4.1.9.2 1.3.2 1.4.1 2.8-.3 3.9-1.2.9-.8 1.4-1.9 1.3-3.1.3-.8 0-1.5-.4-2.2zm-488.3 14.2c-.7-.3-1.5-.5-2.3-.4-1.2-.1-2.5.3-3.4 1.1-1.2 1-1.6 2.7-1.1 4.2.2.4.3.7.6 1.1l.6.8c.1.2.2.4.2.6h-1.8c-.2 0-.4.1-.5.2-.1.1-.2.3-.2.5s.1.4.3.5c.2.2.5.3.8.4l.5.2c.3.1.5.2.7.4.1.2.2.4.2.7v8.1c0 .3-.1.6-.2.8-.2.2-.4.3-.6.4l-.6.1-.6.3c-.1.1-.2.3-.2.5s.1.4.2.5c.2.1.4.2.6.2h6.7c.6 0 .9-.2.9-.7 0-.2-.1-.4-.2-.5-.2-.2-.4-.2-.6-.2l-1.4-.2c-.3 0-.5-.1-.6-.3-.2-.2-.2-.5-.2-.8v-9.3h2.1c.4 0 .9-.1 1.3-.3.2-.2.4-.4.4-.7 0-.2-.1-.4-.2-.5-.2-.1-.4-.2-.6-.2h-3.2c0-.2-.1-.5-.2-.7-.1-.3-.3-.5-.5-.8l-.6-.9c-.2-.3-.4-.7-.5-1-.1-.4-.2-.7-.2-1.1 0-.5.2-1.1.5-1.5.4-.4.9-.5 1.4-.5.4 0 .8.1 1.1.4.3.3.4.7.4 1.1v.6c0 .4.1.9.4 1.2.3.3.7.4 1.1.4.4 0 .8-.1 1.1-.4.3-.4.4-.8.4-1.3 0-.6-.2-1.2-.5-1.7-.4-.7-.9-1.1-1.5-1.3zm16 16.4c-.1 0-.2 0-.3.1-.1.1-.3.2-.4.4-.4.7-.9 1.2-1.5 1.6-.8.5-1.7.7-2.6.7-1.4.1-2.7-.5-3.7-1.5-.9-1-1.4-2.3-1.4-3.7h8.3c.5 0 1.1-.1 1.5-.5.4-.4.6-.9.5-1.4 0-1-.2-1.9-.8-2.8-.5-.8-1.2-1.5-2.1-1.9-1-.5-2-.7-3.1-.7-1.4 0-2.7.3-3.9 1-1.1.6-1.9 1.6-2.5 2.7-.6 1.2-.9 2.5-.9 3.8 0 1.3.3 2.6.9 3.8.6 1.1 1.4 2 2.5 2.5 1.2.6 2.5 1 3.8.9 1.1 0 2.2-.2 3.2-.7.8-.4 1.6-1 2.1-1.7.5-.6.8-1.4.8-2.2 0-.2 0-.3-.1-.5 0 .1-.1.1-.3.1zm-9.3-5.6c.3-.7.8-1.3 1.4-1.7.6-.4 1.3-.6 2-.6.9 0 1.7.3 2.3.9.6.7.9 1.6.9 2.5 0 .6-.3.8-.9.8h-6.1c0-.7.1-1.3.4-1.9zm21.2 2.7c-.9-.4-1.9-.8-2.9-1-.5-.1-1-.3-1.5-.5-.4-.2-.7-.4-1-.7-.3-.3-.4-.7-.4-1.1 0-.5.2-1 .6-1.3.5-.4 1.1-.6 1.7-.5.9 0 1.7.2 2.4.7.7.5 1.3 1.1 1.7 1.8.2.3.4.5.7.7.2.1.4.2.6.1.3-.1.5-.3.5-.6s0-.7-.1-1l-.8-2.5c0-.2-.1-.4-.3-.5-.1-.1-.3-.2-.5-.2-.1 0-.3.1-.4.2l-.4.3c-.1.1-.3.2-.4.2-.2 0-.4-.1-.6-.2-.3-.1-.7-.2-1-.3-.5-.1-1-.2-1.5-.2-.9 0-1.8.2-2.6.5-.7.3-1.3.8-1.7 1.5-.8 1.3-.8 3 0 4.3.5.6 1.1 1.2 1.8 1.5.9.4 1.8.7 2.7.9.6.1 1.1.3 1.7.5.4.2.8.4 1.2.8.3.3.4.7.4 1.1 0 .6-.2 1.1-.6 1.5-.6.5-1.3.7-2 .6-.6 0-1.1-.1-1.6-.3-.5-.2-1.1-.5-1.5-.9-.5-.4-.9-.9-1.3-1.5-.2-.2-.4-.4-.6-.5-.2-.1-.5-.1-.8-.1-.2.1-.4.3-.5.5-.1.3 0 .7.1 1l1.1 2.4c.1.2.2.5.4.6.1.1.3.2.5.2s.3 0 .4-.1l.3-.3c.1-.1.3-.2.4-.2.2 0 .5.1.7.1.3.1.7.2 1.1.3.4.1.9.1 1.3.1 1.4.1 2.8-.3 3.9-1.2.9-.8 1.4-1.9 1.3-3.1 0-.8-.2-1.5-.7-2.2-.3-.6-1-1.1-1.8-1.4zm12.4-4.7c.4 0 .9-.1 1.3-.3.3-.2.4-.4.4-.7 0-.2-.1-.4-.2-.5-.2-.1-.4-.2-.6-.2h-3.3v-2.6c0-.2-.1-.5-.2-.7-.2-.2-.4-.2-.6-.2-.2 0-.4.1-.6.2-.2.2-.4.4-.5.6l-.7 1.8c-.1.3-.2.5-.5.7-.2.1-.4.2-.7.2h-.7c-.2 0-.4.1-.6.2-.1.1-.2.3-.2.5s.1.3.2.5c.1.1.3.2.4.3l.7.1c.3 0 .5.2.7.4.2.2.2.5.2.8v8c-.1 1 .3 2 1 2.7.8.6 1.7 1 2.7.9.6 0 1.2-.1 1.8-.3.5-.2.9-.5 1.3-.9.3-.3.5-.7.5-1.2.1-.2 0-.4-.1-.5-.1-.1-.2-.2-.4-.2-.1 0-.3 0-.4.1-.1.1-.3.2-.4.3-.2.1-.3.2-.5.3-.2.1-.5.1-.7.1-.4 0-.9-.2-1.2-.5-.3-.4-.5-.9-.4-1.4v-8.4l2.3-.1zm10.2 10.9l-.5-.2c-.2-.1-.4-.2-.5-.3-.1-.2-.2-.5-.2-.8v-10.6c0-.2-.1-.4-.2-.6-.2-.2-.4-.3-.6-.2-.2 0-.4 0-.7.1l-.8.3-2.3.8-.6.3c-.1.1-.2.3-.2.5s.1.3.2.4c.1.1.3.2.4.3h.9c.2 0 .3.1.5.3.1.2.2.5.2.7v7.8c0 .3 0 .5-.2.8-.1.2-.3.3-.5.4l-.5.2c-.2.1-.3.2-.5.3-.1.1-.2.3-.2.5s.1.4.2.5c.2.1.4.2.6.2h5.2c.2 0 .5 0 .7-.2.2-.1.2-.3.2-.5s0-.3-.2-.5c-.1-.4-.2-.5-.4-.5zm-3.2-15.6c.6 0 1.2-.2 1.7-.6.4-.4.6-.9.6-1.4 0-.5-.2-1.1-.6-1.4-.5-.4-1.1-.6-1.7-.5-.6 0-1.2.2-1.6.5-.4.4-.6.9-.6 1.4 0 .5.2 1.1.6 1.4.4.5 1 .7 1.6.6zm20.6 3h-4.2c-.2 0-.5.1-.6.2-.2.1-.2.3-.2.5s.1.4.2.5c.2.1.3.2.5.3l.6.2c.3.1.5.3.6.5.1.4 0 .8-.1 1.1l-3.5 8.7-3.3-8.6c-.2-.4-.3-.8-.2-1.2 0-.3.3-.5.7-.6l.6-.2c.2-.1.4-.2.5-.3.1-.1.2-.3.2-.5 0-.5-.3-.7-.8-.7H953c-.2 0-.5.1-.6.2-.2.1-.2.3-.2.5s0 .3.2.5c.1.1.3.2.5.3l.6.1c.2.1.4.2.5.4.1.2.3.5.3.7l4.3 10.5c.1.3.3.6.6.9.2.2.5.3.8.3h1c.3 0 .6-.1.9-.2.3-.2.5-.5.6-.8l4.2-10.2c.1-.4.3-.7.6-1.1.1-.2.3-.3.5-.4l.5-.1c.2-.1.3-.2.5-.3.1-.1.2-.3.2-.4 0-.2-.1-.4-.2-.5-.5-.3-.8-.4-1-.3zm15.1 9.3c-.1 0-.2 0-.3.1-.1.1-.2.2-.3.4-.4.7-.9 1.2-1.5 1.6-.8.5-1.7.7-2.6.7-1.4.1-2.7-.5-3.7-1.5-.9-1-1.4-2.3-1.4-3.7h8.3c.5 0 1.1-.1 1.5-.5.4-.4.6-.9.5-1.4 0-1-.2-1.9-.8-2.8-.5-.8-1.2-1.5-2.1-1.9-1-.5-2-.7-3.1-.7-1.4 0-2.7.3-3.9 1-1.1.6-1.9 1.6-2.5 2.7-.6 1.2-.9 2.5-.9 3.8 0 1.3.3 2.6.9 3.8.6 1.1 1.4 2 2.5 2.5 1.2.6 2.5 1 3.8.9 1.1 0 2.2-.2 3.2-.7.8-.4 1.6-1 2.1-1.7.5-.6.8-1.4.8-2.2 0-.2 0-.3-.1-.5-.1.1-.3.1-.4.1zm-9.4-5.6c.3-.7.8-1.3 1.4-1.7.6-.4 1.3-.6 2-.6.9 0 1.7.3 2.3.9.6.7.9 1.6.9 2.5 0 .6-.3.8-.9.8H973c.1-.7.3-1.3.5-1.9zm32.9-5.9c-.7 0-1.3.2-1.9.6-.6.5-1.2 1.2-1.5 1.9v.1c-1.1-.5-2.2-.7-3.4-.7-1.2 0-2.4.2-3.5.7-1 .4-1.8 1.1-2.4 2-.6.9-.9 1.9-.9 3 0 1 .3 2 .8 2.8.6.8 1.4 1.5 2.3 2 .2.1.4.1.5.2-.3.1-.6.2-.8.3-.4.2-.7.5-1 .8-.2.3-.3.6-.3.9 0 .5.1.9.4 1.3.4.4.9.8 1.5.9-1 .2-1.9.6-2.7 1.1-.8.5-1.2 1.4-1.2 2.4 0 .6.3 1.2.7 1.7.6.6 1.4 1 2.3 1.2 1.3.3 2.6.5 3.9.4 2.1.1 4.1-.3 6-1.2 1.2-.6 2-1.8 2.1-3.2 0-.7-.2-1.3-.5-1.9-.5-.6-1.1-1-1.8-1.3-1-.4-2.1-.7-3.2-.9-1.2-.2-2.2-.3-2.8-.4-.5-.1-1-.2-1.4-.5-.2-.1-.4-.4-.4-.6 0-.2.1-.4.2-.6l.2-.2c.6.1 1.2.2 1.8.2 1.2 0 2.3-.2 3.4-.7.9-.4 1.7-1.1 2.3-2 .6-.9.8-1.9.8-3 0-1-.3-2-.8-2.8-.4-.6-.8-1-1.3-1.4.1-.2.3-.4.4-.6.2-.3.5-.5.8-.5.2 0 .3.1.4.2.1.1.2.2.3.4.1.1.3.3.4.3.2.1.4.2.7.2.4 0 .7-.1.9-.4.2-.3.3-.7.3-1.1 0-.5-.2-.9-.5-1.2-.1-.3-.6-.4-1.1-.4zm-8.4 17.3c.7.2 1.5.3 2.2.4.9.1 1.8.2 2.6.5.5.1 1 .4 1.3.7.3.3.4.6.4 1s-.2.9-.5 1.2c-.4.4-1 .6-1.5.8-.8.2-1.7.3-2.6.3-1.3.1-2.6-.1-3.8-.7-.6-.3-1-1-1.1-1.7 0-.6.4-1.2.9-1.6.6-.6 1.3-.8 2.1-.9zm4-6.6c-.6.7-1.5 1.1-2.4 1-.7 0-1.3-.2-1.8-.6-.6-.4-1-1-1.3-1.7-.3-.8-.5-1.7-.5-2.5 0-.7.1-1.3.4-1.9.2-.5.6-1 1.1-1.3.5-.3 1.1-.5 1.7-.4 1 0 2 .5 2.6 1.3.7 1 1 2.2 1 3.4.1 1-.2 1.9-.8 2.7zm13.7 4.1l-.5-.2c-.2-.1-.4-.2-.5-.3-.1-.2-.2-.5-.2-.8v-18.4c0-.2-.1-.4-.2-.6-.2-.2-.4-.3-.6-.2-.2 0-.4 0-.7.1l-.8.3-2.3.8-.6.3c-.1.1-.2.3-.2.5s0 .3.2.4c.1.1.3.2.4.2h.9c.2 0 .3.1.5.3.1.2.2.5.2.7v15.6c0 .3 0 .5-.2.8-.1.2-.3.3-.5.4l-.5.2c-.2.1-.3.2-.5.3-.1.1-.2.3-.2.5s.1.4.2.5c.2.1.4.2.6.2h5.2c.2 0 .5 0 .7-.2.2-.1.2-.3.2-.5s0-.3-.2-.5c0-.3-.2-.4-.4-.4zm14.4-12c-1.2-.6-2.5-1-3.9-.9-1.4 0-2.8.3-4 1-1.1.6-2 1.5-2.7 2.6-.7 1.1-1 2.4-1 3.8s.3 2.7 1 3.9c.6 1.1 1.5 2 2.6 2.6 1.2.7 2.5 1 3.9 1s2.8-.3 4-1c1.1-.6 2-1.5 2.7-2.6.7-1.1 1-2.5 1-3.8 0-1.3-.3-2.7-1-3.8-.6-1.3-1.5-2.2-2.6-2.8zm.2 8.7c-.1.8-.5 1.6-1 2.2-.5.6-1.2.9-1.9 1.1-.8.1-1.5 0-2.2-.3-.8-.4-1.4-.9-1.9-1.6-.6-.9-1-1.9-1.2-2.9-.2-1-.3-2-.1-3 .1-.8.5-1.5 1-2.2.5-.6 1.2-.9 1.9-1.1.8-.2 1.6-.1 2.3.3.7.4 1.4.9 1.8 1.7.6.9 1 1.9 1.2 2.9.2.9.2 1.9.1 2.9zm18.2-8.7c-1-.6-2.1-.9-3.2-.9-1.2 0-2.4.3-3.4 1-.5.3-.9.7-1.3 1.1v-9c0-.2-.1-.4-.2-.6-.2-.2-.4-.3-.6-.2-.2 0-.4 0-.7.1l-.8.3-2.3.8-.6.3c-.1.1-.2.3-.2.5s.1.3.2.4c.1.1.3.2.4.2h.9c.2 0 .4.1.5.3.1.2.2.4.2.7v17.9c0 .2 0 .4.2.6.1.1.3.2.5.2s.5 0 .7-.2c.2-.1.5-.2.7-.3l.8-.9c.3.3.6.5.9.7 1 .6 2.1.9 3.2.9 1.2 0 2.5-.3 3.6-.9 1.1-.6 1.9-1.6 2.5-2.7.7-1.2 1-2.6 1-4.1 0-1.3-.3-2.5-.8-3.7-.5-1-1.3-1.8-2.2-2.5zm-1 9.5c-.3.8-.8 1.4-1.5 1.9-.6.4-1.4.7-2.1.7-.8 0-1.7-.3-2.4-.8-.4-.3-.7-.6-1-.9v-7.6c.3-.3.6-.6 1-.9.7-.5 1.5-.8 2.4-.8.8 0 1.5.2 2.2.6.7.5 1.2 1.1 1.5 1.8.4.9.6 1.9.5 2.9 0 1.2-.2 2.2-.6 3.1zm21.7 2.5l-.5-.2c-.2-.1-.4-.2-.5-.3-.1-.2-.2-.5-.2-.8v-10.6c0-.2-.1-.5-.2-.7-.2-.2-.4-.3-.6-.2-.2 0-.4 0-.6.1l-.8.3-2.2.8-.6.3c-.1.1-.2.3-.2.5s.1.3.2.4c.1.1.3.2.4.2h.9c.2 0 .3.1.4.3.1.2.2.4.2.7v6.8l-.3.3c-.6.5-1.2.9-1.8 1.3-.5.3-1.1.4-1.6.4-.7 0-1.3-.2-1.8-.7-.5-.6-.7-1.4-.7-2.1v-8.6c0-.2-.1-.5-.2-.7-.2-.2-.4-.3-.6-.2-.2 0-.4 0-.7.1l-.8.3-2.3.8-.6.3c-.1.1-.2.3-.2.5s.1.3.2.4c.1.1.3.2.4.2h.9c.2 0 .4.1.5.3.1.2.2.4.2.7v6.6c-.1 1.2.4 2.3 1.2 3.2.8.8 1.9 1.2 3 1.2.9 0 1.8-.3 2.6-.7 1-.6 1.8-1.2 2.7-2l.1.6c-.1.5.1 1 .4 1.3.3.3.8.4 1.2.4h2.4c.2 0 .5-.1.7-.2.3-.3.3-.7.1-1-.3-.1-.5-.2-.7-.3zm9.4 0l-.5-.2c-.2-.1-.4-.2-.5-.3-.1-.2-.2-.5-.2-.8v-18.4c0-.2-.1-.4-.2-.6-.2-.2-.4-.3-.6-.2-.2 0-.4 0-.7.1l-.8.3-2.3.8-.6.3c-.1.1-.2.3-.2.5s.1.3.2.4c.1.1.3.2.4.2h.9c.2 0 .4.1.5.3.1.2.2.4.2.7v15.6c0 .3 0 .5-.2.8-.1.2-.3.3-.5.4l-.5.2c-.2.1-.3.2-.5.3-.1.1-.2.3-.2.5s.1.4.2.5c.2.1.4.2.6.2h5.2c.2 0 .5 0 .6-.2.2-.1.2-.3.2-.5s-.1-.3-.2-.5c0-.3-.1-.4-.3-.4zm15.7-3.3c-.1 0-.2 0-.3.1-.1.1-.3.2-.4.4-.4.7-.9 1.2-1.5 1.6-.8.5-1.7.7-2.6.7-1.4.1-2.7-.5-3.7-1.5-.9-1-1.4-2.3-1.4-3.7h8.2c.5 0 1.1-.1 1.5-.5.4-.4.6-.9.5-1.4 0-1-.3-1.9-.8-2.7-.5-.8-1.2-1.5-2.1-1.9-1-.5-2-.7-3.1-.7-1.4 0-2.7.3-3.9 1-1.1.6-1.9 1.6-2.5 2.7-.6 1.2-.9 2.5-.9 3.8 0 1.3.3 2.6.9 3.8.6 1.1 1.5 1.9 2.6 2.5 1.2.6 2.5 1 3.8.9 1.1 0 2.2-.2 3.2-.7.8-.4 1.6-1 2.1-1.7.5-.6.8-1.4.8-2.2 0-.2 0-.3-.1-.5h-.3zm-9.4-5.6c.3-.7.8-1.3 1.4-1.7.6-.4 1.3-.6 2-.6.9 0 1.7.3 2.3.9.6.7.9 1.6.9 2.5 0 .6-.4.8-1 .8h-6c0-.7.1-1.3.4-1.9zm21.2 2.7c-.9-.4-1.9-.8-2.9-1-.5-.1-1-.3-1.5-.5-.4-.2-.7-.4-1-.7-.3-.3-.4-.7-.4-1.1 0-.5.2-1 .6-1.3.5-.4 1.1-.6 1.7-.5.9 0 1.7.2 2.5.7.7.5 1.3 1.1 1.7 1.8.2.3.4.5.7.7.2.1.4.2.6.1.3-.1.5-.3.5-.6s0-.7-.1-1l-.8-2.5c0-.2-.1-.4-.3-.5-.1-.1-.3-.2-.5-.2-.1 0-.3.1-.4.2l-.4.3c-.1.1-.3.2-.4.2-.2 0-.4-.1-.6-.2-.3-.1-.7-.2-1-.3-.5-.1-1-.2-1.5-.2-.9 0-1.8.2-2.6.5-.7.3-1.3.8-1.7 1.5-.8 1.3-.8 3 0 4.3.5.6 1.1 1.2 1.8 1.5.9.4 1.8.7 2.7.9.6.1 1.1.3 1.7.5.4.2.8.4 1.2.8.3.3.4.7.4 1.1 0 .6-.2 1.1-.6 1.5-.5.5-1.2.7-1.9.6-.6 0-1.1-.1-1.6-.3-.5-.2-1.1-.5-1.5-.9-.5-.4-.9-.9-1.3-1.5-.2-.2-.4-.4-.6-.5-.2-.1-.5-.1-.8-.1-.2.1-.4.3-.5.5-.1.3 0 .7.1 1l1.1 2.4c.1.2.2.5.4.6.1.1.3.2.5.2s.3 0 .4-.1l.3-.3c.1-.1.3-.2.4-.2.2 0 .5.1.7.1.2.1.6.2 1 .3.4.1.9.1 1.3.1 1.4.1 2.8-.3 3.9-1.2.9-.8 1.4-1.9 1.3-3.1 0-.8-.2-1.5-.7-2.2-.5-.6-1.1-1.1-1.9-1.4zM324.7 398c-.8 0-1.6.3-2.3.8-.8.6-1.3 1.3-1.7 2.2v.1l-.1-2c0-.3-.1-.5-.2-.8-.2-.1-.4-.2-.6-.2-.2 0-.4 0-.5.1l-.7.2-2.3.8-.6.3c-.1.1-.2.3-.2.5s.1.3.2.4c.1.1.3.2.4.2h.9c.2 0 .3.1.5.3.1.2.2.5.2.7v7.8c0 .3 0 .5-.2.8-.1.2-.3.3-.5.4l-.5.2c-.2.1-.3.2-.5.3-.1.1-.2.3-.2.5s.1.4.2.5c.2.1.4.2.6.2h6.1c.2 0 .5-.1.6-.2.2-.1.2-.3.2-.5s-.1-.4-.2-.5c-.2-.2-.4-.2-.6-.3l-1.2-.2c-.2 0-.5-.2-.6-.3-.2-.2-.2-.5-.2-.8v-5.1c0-.8.1-1.6.4-2.4.2-.6.5-1.1 1-1.5.4-.3.8-.5 1.3-.5.3 0 .5.1.7.2.2.2.3.5.3.7v.5c0 .4.1.8.4 1.1.3.3.7.4 1.1.4.4 0 .9-.2 1.2-.5.3-.4.5-1 .5-1.5 0-.8-.2-1.6-.8-2.2-.6-.4-1.3-.7-2.1-.7zm18.4 12.3c-.1 0-.2 0-.3.1-.1.1-.2.2-.3.2-.1.1-.3.1-.5.1s-.4-.1-.5-.2c-.1-.1-.2-.3-.2-.5v-7.8c.1-1.1-.4-2.2-1.2-3-1-.8-2.3-1.2-3.6-1.1-1.2 0-2.4.2-3.5.6-.8.3-1.6.8-2.2 1.5-.5.5-.7 1.2-.8 1.9 0 .4.1.7.4 1 .3.3.7.4 1.1.4.5 0 1-.1 1.3-.4.3-.3.5-.7.5-1.1v-1c0-.4.2-.8.6-1 .5-.3 1.1-.5 1.7-.4.7 0 1.4.2 1.9.6.5.5.7 1.1.7 1.8v3.6c-.3-.1-.6-.2-.9-.2-.6-.1-1.2-.2-1.8-.2-1.6-.1-3.1.3-4.5 1.2-1 .6-1.7 1.8-1.7 3 0 1 .4 2 1.2 2.6.9.7 2 1 3.1.9 1.1 0 2.1-.2 3.1-.7.6-.3 1.2-.7 1.7-1.3 0 .6.3 1.1.7 1.5.5.4 1.2.6 1.9.5.5 0 .9-.1 1.3-.3.4-.2.7-.4.9-.7.2-.3.3-.6.3-.9 0-.2 0-.3-.2-.5.1-.2 0-.2-.2-.2zm-4.8-.7c-.3.3-.7.6-1.1.8-.6.3-1.3.5-2.1.5-.6 0-1.2-.2-1.7-.5-.5-.4-.7-1-.7-1.6 0-.7.3-1.3.9-1.7.7-.4 1.5-.7 2.3-.6.5 0 1 0 1.4.1.3.1.6.2 1 .3v2.7zm22.5 1.3l-.5-.2c-.2-.1-.4-.2-.5-.4-.1-.2-.2-.5-.2-.8v-10.6c0-.2-.1-.5-.2-.7-.2-.2-.4-.3-.6-.2-.2 0-.4 0-.7.1-.2.1-.5.2-.8.3l-2.2.8-.6.3c-.1.1-.2.3-.2.5s0 .3.2.4c.1.1.3.2.4.2h1c.2 0 .3.1.5.3.1.2.2.5.2.7v6.8l-.2.2c-.6.5-1.2.9-1.9 1.3-.5.3-1.1.4-1.6.4-.7 0-1.3-.2-1.8-.7-.5-.6-.7-1.4-.7-2.1v-8.6c0-.2-.1-.5-.2-.7-.2-.2-.4-.3-.6-.2-.2 0-.4 0-.7.1-.2.1-.5.2-.8.3l-2.3.8-.6.3c-.1.1-.2.3-.2.5s0 .3.2.4c.1.1.3.2.4.2h.9c.2 0 .3.1.5.3.1.2.2.5.2.7v6.6c-.1 1.2.4 2.3 1.2 3.2.8.8 1.9 1.2 3 1.2.9 0 1.8-.3 2.6-.8 1-.5 1.9-1.2 2.7-2l.1.6c0 .5.1.9.4 1.3.3.3.8.5 1.2.4h2.3c.2 0 .5-.1.7-.2.3-.3.3-.7.1-1-.3.2-.5.1-.7 0zm15.8-3.2c-.1 0-.2 0-.3.1-.1.1-.3.2-.4.4-.4.6-.9 1.1-1.5 1.5-.8.5-1.7.7-2.5.7-.9 0-1.8-.2-2.6-.7-.8-.5-1.4-1.1-1.8-1.9-.5-1-.7-2-.7-3.1 0-.9.2-1.8.5-2.6.3-.7.8-1.3 1.4-1.7.6-.4 1.3-.6 2-.6s1.4.2 2 .6c.5.3.7.9.7 1.5v.4c0 .4.1.8.4 1.2.3.3.8.5 1.2.4.5 0 .9-.2 1.2-.5.3-.3.5-.8.5-1.2 0-.7-.2-1.4-.7-2-.5-.6-1.2-1.2-1.9-1.5-.9-.4-2-.6-3-.6-1.4 0-2.7.3-3.9 1-1.1.7-2 1.6-2.6 2.7-.6 1.2-.9 2.5-.9 3.9 0 1.3.3 2.6.9 3.7.6 1.1 1.5 1.9 2.5 2.5 1.1.6 2.4.9 3.7.9 1.1 0 2.1-.2 3.1-.6.8-.4 1.6-.9 2.1-1.7.5-.6.8-1.4.8-2.2 0-.2 0-.3-.1-.5.2-.1 0-.2-.1-.1zm14.1-8.7c-1.2-.6-2.5-1-3.9-.9-1.4 0-2.7.3-3.9.9-1.1.6-2 1.5-2.7 2.6-.7 1.1-1 2.4-1 3.8 0 1.3.3 2.7.9 3.9.6 1.1 1.5 2 2.6 2.6 2.5 1.3 5.4 1.3 7.9 0 1.1-.6 2-1.5 2.7-2.6.7-1.1 1-2.5 1-3.8 0-1.3-.3-2.7-1-3.8-.6-1.2-1.5-2.1-2.6-2.7zm.2 8.7c-.1.8-.5 1.6-1 2.2-.5.6-1.2.9-1.9 1.1-.8.1-1.6 0-2.3-.3-.8-.4-1.4-.9-1.9-1.6-.6-.9-1-1.9-1.2-2.9-.2-1-.3-2-.1-3 .1-.8.5-1.6 1-2.2.5-.6 1.2-.9 1.9-1.1.8-.2 1.6-.1 2.3.3.7.4 1.4.9 1.8 1.7.6.9 1 1.9 1.2 2.9.3.9.3 1.9.2 2.9zm21.2 3.2l-.5-.2c-.2-.1-.4-.2-.5-.4-.1-.2-.2-.5-.2-.8v-10.6c0-.2-.1-.5-.2-.7-.2-.2-.4-.3-.6-.2-.2 0-.4 0-.6.1-.2.1-.5.2-.8.3l-2.2.8-.6.3c-.1.1-.2.3-.2.5s.1.3.2.4c.1.1.3.2.4.2h.9c.2 0 .3.1.5.3.1.2.2.5.2.7v6.8l-.3.2c-.6.5-1.2.9-1.8 1.3-.5.3-1.1.4-1.6.4-.7 0-1.3-.2-1.8-.7-.5-.6-.7-1.4-.7-2.1v-8.6c0-.2-.1-.5-.2-.7-.2-.2-.4-.3-.6-.2-.2 0-.4 0-.7.1-.2.1-.5.2-.8.3l-2.3.8-.6.3c-.1.1-.2.3-.2.5s.1.3.2.4c.1.1.3.2.4.2h.9c.2 0 .3.1.5.3.1.2.2.5.2.7v6.6c-.1 1.2.4 2.3 1.2 3.2.8.8 1.9 1.2 3 1.2.9 0 1.8-.3 2.6-.8 1-.6 1.8-1.2 2.7-2l.1.6c0 .5.1.9.4 1.3.3.3.8.5 1.2.4h2.4c.2 0 .5-.1.7-.2.2-.1.2-.3.2-.5s-.1-.3-.2-.5c-.4.2-.6.1-.7 0zm11.9-6.1c-.9-.4-1.9-.8-2.9-1-.5-.1-1-.3-1.5-.5-.4-.2-.7-.4-1-.7-.3-.3-.4-.7-.4-1.1 0-.5.2-1 .6-1.3.5-.4 1.1-.6 1.7-.5.8 0 1.6.2 2.3.6.7.5 1.3 1.1 1.7 1.8.2.3.4.5.7.7.2.1.4.2.6.1.3-.1.5-.3.5-.6s0-.7-.1-1l-.8-2.5c0-.2-.1-.4-.3-.5-.1-.1-.3-.2-.5-.2-.1 0-.3 0-.4.1-.1.1-.2.2-.4.3-.1.1-.3.2-.4.2-.2 0-.4-.1-.6-.2-.3-.1-.7-.2-1-.3-.5-.1-1-.1-1.5-.1-.9 0-1.8.2-2.6.5-.7.3-1.3.8-1.7 1.5-.4.6-.6 1.4-.6 2.1 0 .8.2 1.6.6 2.2.5.6 1.1 1.2 1.8 1.5.9.4 1.8.7 2.7.9.6.1 1.1.3 1.7.5.4.2.8.4 1.2.8.3.3.4.7.4 1.1 0 .6-.2 1.1-.6 1.5-.6.5-1.3.7-2 .6-.6 0-1.1-.1-1.6-.3-.6-.2-1.1-.5-1.5-.9-.5-.4-.9-.9-1.3-1.5-.2-.2-.4-.4-.6-.5-.2-.1-.5-.1-.7 0-.2.1-.4.3-.5.5-.1.3 0 .7.1 1l1.1 2.4c.1.2.2.5.4.6.1.1.3.2.5.2s.3 0 .4-.2l.3-.3c.1-.1.3-.2.5-.2.3 0 .5.1.7.1.3.1.6.2 1 .3.4.1.9.2 1.3.2 1.4.1 2.9-.3 4-1.2.9-.8 1.4-1.9 1.3-3.1 0-.8-.2-1.5-.7-2.2-.5-.6-1.1-1.1-1.9-1.4zm24.6 2.9c-.1 0-.2 0-.3.1l-.4.4c-.4.6-.9 1.1-1.5 1.5-.8.5-1.7.7-2.5.7-.9 0-1.8-.2-2.6-.7-.8-.5-1.4-1.1-1.8-1.9-.5-1-.7-2-.7-3.1 0-.9.2-1.8.5-2.6.3-.7.8-1.3 1.4-1.7.6-.4 1.3-.6 2.1-.6.7 0 1.4.2 2 .6.5.4.7.9.7 1.5v.4c0 .4.1.9.4 1.2.3.3.8.5 1.2.4.5 0 .9-.2 1.2-.5.3-.3.5-.8.5-1.2 0-.7-.2-1.4-.7-2-.5-.7-1.2-1.2-2-1.5-.9-.4-2-.6-3-.6-1.4 0-2.7.3-3.9 1-1.1.7-2 1.6-2.6 2.7-.6 1.2-.9 2.5-.9 3.9 0 1.3.3 2.6.9 3.7.6 1.1 1.4 1.9 2.5 2.5 1.1.6 2.4.9 3.7.9 1.1 0 2.1-.2 3.1-.6.8-.4 1.6-.9 2.1-1.7.5-.6.8-1.4.8-2.2 0-.2 0-.3-.1-.5.2-.1 0-.2-.1-.1zm14.1-8.7c-1.2-.6-2.5-1-3.9-.9-1.4 0-2.7.3-3.9 1-1.1.6-2 1.5-2.7 2.6-.7 1.1-1 2.4-1 3.8 0 1.3.3 2.6.9 3.8.6 1.1 1.5 2 2.6 2.6 2.5 1.3 5.4 1.3 7.8 0 1.1-.6 2-1.5 2.7-2.6.7-1.1 1-2.5 1-3.8 0-1.3-.3-2.7-1-3.8-.5-1.2-1.4-2.1-2.5-2.7zm.2 8.7c-.1.8-.5 1.6-1 2.2-.5.6-1.2.9-1.9 1.1-.8.1-1.6 0-2.3-.3-.8-.4-1.4-.9-1.9-1.6-.6-.9-1-1.9-1.2-2.9-.2-1-.3-2-.1-3 .1-.8.5-1.6 1-2.2.5-.6 1.2-.9 1.9-1.1.8-.2 1.6-.1 2.3.3.7.4 1.4.9 1.8 1.7.6.9 1 1.9 1.2 2.9.4.9.4 1.9.2 2.9zM494 411l-.5-.2c-.2-.1-.4-.2-.5-.4-.1-.2-.2-.5-.2-.8v-7.3c0-1.2-.4-2.3-1.2-3.2-.8-.8-1.9-1.2-3-1.2-.9 0-1.8.3-2.7.8-1 .6-2 1.3-2.8 2.2-.2-.7-.5-1.3-1-1.8-.8-.8-1.9-1.2-3-1.2-.9 0-1.8.3-2.7.7-.9.5-1.8 1.2-2.6 1.9v-1.6c0-.2-.1-.4-.2-.6-.2-.2-.4-.3-.6-.2-.2 0-.4 0-.7.1-.3.1-.5.2-.8.3l-2.2.8-.6.3c-.1.1-.2.3-.2.5s.1.3.2.4c.1.1.3.2.4.3h.9c.2 0 .3.1.5.3.1.2.2.5.2.7v7.8c0 .3 0 .5-.2.8-.1.2-.3.3-.5.4l-.5.2c-.2.1-.3.2-.5.3-.1.1-.2.3-.2.5s.1.4.2.5c.2.1.4.2.6.2h5.2c.5 0 .8-.2.8-.7 0-.3-.2-.6-.6-.7l-.6-.2c-.2-.1-.4-.2-.5-.4-.1-.3-.2-.5-.2-.8v-7.4l.2-.2c.6-.5 1.2-1 1.9-1.3.5-.3 1.1-.4 1.7-.4.7 0 1.4.2 1.9.7.5.6.8 1.4.7 2.2v6.5c0 .3 0 .6-.2.8-.1.2-.3.3-.5.4h-.4c-.4.2-.6.4-.6.7 0 .5.3.7.8.7h5.1c.5 0 .8-.2.8-.7 0-.3-.2-.6-.6-.7l-.5-.2c-.2-.1-.4-.2-.5-.4-.1-.3-.2-.5-.2-.8v-7.3l.2-.2c.6-.6 1.2-1 1.9-1.4.5-.3 1.1-.4 1.7-.4.7 0 1.4.2 1.9.7.5.6.8 1.4.7 2.2v6.5c0 .3 0 .6-.2.8-.1.2-.3.3-.5.4l-.5.2c-.3.1-.6.4-.6.7 0 .5.3.7.8.7h5.1c.2 0 .5-.1.7-.2.2-.1.3-.3.2-.5 0-.2-.1-.3-.2-.5-.1-.1-.3-.2-.5-.3zm15.3-12c-1-.6-2.1-.9-3.2-.9-1.2 0-2.4.3-3.4 1-.5.3-.9.7-1.3 1.1v-9c0-.2-.1-.4-.2-.6-.2-.2-.4-.3-.6-.2-.2 0-.4 0-.7.1-.2.1-.5.2-.8.3l-2.3.8-.6.3c-.1.1-.2.3-.2.5s.1.3.2.4c.1.1.3.2.4.2h.9c.2 0 .3.1.5.3.1.2.2.5.2.7v17.9c0 .2 0 .4.2.6.1.1.3.2.5.2s.5-.1.7-.2c.2-.1.5-.2.7-.3l.9-1c.3.3.6.5.9.7 1 .6 2.1 1 3.2.9 1.3 0 2.5-.3 3.6-.9 1.1-.6 2-1.6 2.5-2.7.7-1.2 1-2.6 1-4 0-1.3-.3-2.5-.8-3.7-.6-1-1.4-1.9-2.3-2.5zm-1 9.4c-.3.8-.8 1.4-1.5 1.9-.6.4-1.4.7-2.1.7-.8 0-1.7-.3-2.4-.8-.4-.3-.7-.6-1-.9v-7.6c.3-.3.6-.7 1-.9.7-.5 1.5-.7 2.4-.7.8 0 1.5.2 2.2.6.7.5 1.2 1.1 1.5 1.8.4.9.6 1.9.5 2.9 0 1.1-.2 2.1-.6 3zm17.9-9.4c-1.2-.6-2.5-1-3.9-.9-1.4 0-2.7.3-3.9.9-1.1.6-2 1.5-2.7 2.6-.7 1.1-1 2.4-1 3.8s.3 2.7 1 3.9c.6 1.1 1.5 2 2.6 2.6 2.5 1.3 5.4 1.3 7.8 0 1.1-.6 2-1.5 2.7-2.6.7-1.1 1-2.5 1-3.8 0-1.3-.3-2.7-1-3.8-.6-1.2-1.5-2.1-2.6-2.7zm.2 8.7c-.1.8-.5 1.6-1 2.2-.5.6-1.2.9-1.9 1.1-.8.1-1.6 0-2.3-.3-.8-.4-1.4-.9-1.9-1.6-.6-.9-1-1.9-1.2-2.9-.2-1-.3-2-.1-3 .1-.8.5-1.6 1-2.2.5-.6 1.2-.9 1.9-1.1.8-.2 1.6-.1 2.3.3.7.4 1.4.9 1.8 1.7.6.9 1 1.9 1.2 2.9.4.9.4 1.9.2 2.9zm20.5-9.4h-4.2c-.2 0-.5 0-.6.2-.2.1-.2.3-.2.5s.1.4.2.5c.2.1.3.2.5.3l.6.2c.3.1.5.3.6.5.1.4 0 .8-.1 1.1l-3.5 8.7-3.3-8.6c-.2-.4-.3-.8-.2-1.2 0-.3.3-.5.7-.6l.5-.2c.2-.1.4-.2.5-.3.1-.1.2-.3.2-.5 0-.5-.3-.7-.8-.7H532c-.2 0-.5 0-.6.2-.2.1-.2.3-.2.5s.1.3.2.5c.1.1.3.2.5.3l.5.1c.2.1.4.2.5.4.1.2.3.5.4.7l4.3 10.5c.1.3.3.6.6.9.2.2.5.3.8.3h1c.3 0 .6-.1.8-.2.3-.2.5-.5.6-.8l4.3-10.2c.1-.4.3-.7.5-1.1.1-.2.3-.3.5-.4l.5-.1c.2-.1.3-.2.5-.3.1-.1.2-.3.2-.4 0-.2-.1-.4-.2-.5-.3-.2-.6-.3-.8-.3zm15.1 9.4c-.1 0-.2 0-.3.1-.1.1-.2.2-.3.4-.4.7-.9 1.2-1.5 1.6-.8.5-1.7.7-2.6.7-1.4.1-2.7-.5-3.7-1.5-.9-1-1.4-2.3-1.4-3.7h8.2c.5 0 1.1-.1 1.5-.5.4-.4.6-.9.5-1.4 0-1-.2-1.9-.7-2.7-.5-.8-1.2-1.5-2.1-1.9-1-.5-2-.7-3.1-.7-1.4 0-2.7.3-3.9 1-1.1.7-1.9 1.6-2.5 2.7-.6 1.2-.9 2.5-.9 3.8 0 1.3.3 2.6.9 3.8.6 1.1 1.4 2 2.5 2.5 1.2.6 2.5 1 3.8.9 1.1 0 2.2-.2 3.2-.7.8-.4 1.6-1 2.1-1.7.5-.6.8-1.4.8-2.2 0-.2 0-.3-.1-.5h-.4zm-9.3-5.7c.3-.7.8-1.3 1.4-1.7.6-.4 1.3-.6 2-.6.9 0 1.7.3 2.3.9.6.7.9 1.6.9 2.5 0 .6-.3.8-1 .8h-6.1c0-.6.2-1.2.5-1.9zm21.2-4c-.8 0-1.6.3-2.3.8-.8.6-1.3 1.3-1.7 2.2v.1l-.1-2c0-.3-.1-.5-.2-.8-.2-.1-.4-.2-.6-.2-.2 0-.4 0-.5.1l-.7.2-2.3.8-.6.3c-.1.1-.2.3-.2.5s.1.3.2.4c.1.1.3.2.4.2h.9c.2 0 .3.1.5.3.1.2.2.5.2.7v7.8c0 .3 0 .5-.2.8-.1.2-.3.3-.5.4l-.5.2c-.2.1-.3.2-.5.3-.1.1-.2.3-.2.5s.1.4.2.5c.2.1.4.2.6.2h6.1c.2 0 .5-.1.6-.2.2-.1.2-.3.2-.5s-.1-.4-.2-.5c-.2-.2-.4-.2-.6-.3l-1.2-.2c-.2 0-.5-.2-.6-.3-.2-.2-.2-.5-.2-.8v-5.1c0-.8.1-1.6.4-2.4.2-.6.5-1.1 1-1.5.4-.3.8-.5 1.3-.5.3 0 .5.1.7.2.2.2.3.5.3.7v.5c0 .4.1.8.4 1.1.3.3.7.4 1.1.4.4 0 .9-.2 1.2-.5.3-.4.5-1 .5-1.5 0-.8-.2-1.6-.8-2.2-.6-.4-1.3-.7-2.1-.7zm13.5 6.8c-.9-.4-1.9-.8-2.9-1-.5-.1-1-.3-1.5-.5-.4-.2-.7-.4-1-.7-.3-.3-.4-.7-.4-1.1 0-.5.2-1 .6-1.4.5-.4 1.1-.6 1.7-.5.9 0 1.7.2 2.4.7.7.5 1.3 1.1 1.7 1.8.2.3.4.5.7.7.2.1.4.2.6.1.3-.1.5-.3.5-.6s0-.7-.1-1l-.8-2.5c0-.2-.1-.4-.3-.5-.1-.1-.3-.2-.5-.2-.1 0-.3.1-.4.1-.1.1-.2.2-.4.3-.1.1-.3.1-.4.2-.2 0-.4-.1-.6-.2-.3-.1-.7-.2-1-.3-.5-.1-1-.1-1.5-.1-.9 0-1.8.2-2.6.5-.7.3-1.3.8-1.7 1.5-.4.6-.6 1.4-.6 2.1 0 .8.2 1.6.6 2.2.5.6 1.1 1.2 1.8 1.5.9.4 1.8.7 2.7.9.6.1 1.1.3 1.7.5.4.2.8.4 1.2.8.3.3.4.7.4 1.1 0 .6-.2 1.1-.6 1.5-.6.5-1.3.7-2 .6-.6 0-1.1-.1-1.7-.3-.5-.2-1.1-.5-1.5-.9-.5-.4-.9-.9-1.3-1.5-.2-.2-.4-.4-.6-.5-.2-.1-.5-.1-.7 0-.2.1-.4.3-.5.5-.1.3 0 .7.1 1l1.1 2.4c.1.2.2.5.4.6.1.1.3.2.5.2s.3 0 .4-.2l.4-.3c.1-.1.3-.2.5-.2s.5.1.7.1c.3.1.6.2 1 .3.4.1.9.2 1.3.2 1.4.1 2.8-.3 3.9-1.2.9-.8 1.4-1.9 1.3-3.1 0-.8-.2-1.5-.7-2.2-.5-.6-1.1-1.1-1.9-1.4z"/></svg>