<svg xmlns="http://www.w3.org/2000/svg" viewBox="0 0 100 45"><path d="M88.176 15.849c.041-1.034-.419-1.959-1.263-2.569-1.104-.798-2.394-1.036-3.716-.755-1.679.356-2.616 1.461-2.585 3.03.017.88.319 1.696.748 2.461.453.808.955 1.591 1.367 2.42.582 1.172 1.013 2.391.836 3.744-.099.756-.609 1.447-1.218 1.593-.598.143-1.246-.201-1.622-.969a460.254 460.254 0 0 1-3.2-6.688c-.222-.473-.334-.997-.524-1.486-.195-.505-.105-.977.118-1.435.135-.277.312-.534.469-.801.752-1.277.595-1.908-1.151-2.282-.306-.066-.675.031-.985.137-.729.251-1.437.565-2.161.832-1.127.415-2.226.936-3.448 1.026-1.068.079-1.617-.255-2.013-1.248a4.428 4.428 0 0 1-.249-.986c-.309-2.076-.121-4.145.201-6.197.092-.59.352-1.197.684-1.697.662-.998 2.018-1.138 2.928-.357.276.237.522.54.696.859.399.73.735 1.494 1.115 2.235.282.549.547 1.115.901 1.615.45.635 1.093.971 1.904.961 1.399-.017 2.619-1.024 3.051-2.547.743-2.622-.453-4.593-2.62-5.828C75.04.119 73.47-.08 71.854.103a10.83 10.83 0 0 0-4.825 1.767c-3.163 2.093-5.289 4.798-5.229 8.822.017 1.112-.085 2.228-.162 3.34a4.784 4.784 0 0 1-.232 1.179c-.413 1.234-1.454 1.462-2.329.513a13.99 13.99 0 0 1-1.183-1.425c-.817-1.161-1.965-1.914-3.236-2.389-2.784-1.041-5.536-1.066-8.203.514-2.199 1.303-3.703 3.125-4.541 5.525-.103.296-.267.57-.414.875-.654-.286-.702-.808-.865-1.261-1.081-3.013-3.127-5.03-6.26-5.747-1.957-.448-3.916-.292-5.812.534-1.955.852-3.443 2.143-4.332 4.096-.192.422-.351.859-.557 1.273-.289.58-.619 1.135-1.319 1.431-.129-.192-.276-.349-.353-.535-.388-.942-.748-1.895-1.137-2.836-.251-.607-.308-1.195.066-1.771.234-.36.485-.71.714-1.073.739-1.172 1.654-2.275 2.169-3.54 1.014-2.494.43-5.359-2.896-6.463-1.565-.519-2.999-.239-4.173.989-1.016 1.064-1.154 2.345-.282 3.532.468.637 1.055 1.211 1.672 1.708.923.744 1.49 1.649 1.578 2.826.043.569-.051 1.152-.579 1.484-.48.301-.955.036-1.4-.187-.193-.097-.367-.233-.564-.322-.787-.356-1.549-.815-2.373-1.027-3.395-.874-6.399-.232-8.919 2.366-1.172 1.208-1.797 2.654-2.187 4.22-.607 2.436.187 4.504 1.824 6.314.232.257.408.564.7.975-.47.16-.779.268-1.089.371-.585.194-1.186.348-1.752.586-1.203.506-1.814 1.399-1.782 2.749.041 1.714.918 2.823 2.386 3.556l1.772.884c-.334.745-.878.744-1.405.781-.708.049-1.425.044-2.12.167-1.155.204-1.95 1.081-2.147 2.248-.327 1.941.393 3.55 1.711 4.879 1.651 1.665 3.767 2.444 6.046 2.751 3.368.454 6.655-.007 9.884-1.01 2.647-.822 5.082-1.977 7.221-3.813 2.149-1.845 1.611-5.405-.032-6.776-1.35-1.127-2.905-1.762-4.625-1.955-2.028-.228-4.068-.355-6.098-.564-1.352-.139-2.714-.268-4.041-.544-.922-.192-1.825-.561-2.676-.976-.642-.313-.828-1.103-.566-1.69.227-.508.778-.729 1.519-.537.505.131.984.362 1.484.519 1.532.48 3.032.925 4.711.663 3.058-.477 5.112-2.149 6.411-4.876.093-.195.159-.404.266-.59.52-.915 1.115-.946 1.654-.05.381.634.675 1.32 1.027 1.972 1.017 1.889 2.521 3.288 4.46 4.158 1.77.794 3.672.881 5.558.559.93-.159 1.887-.445 2.708-.899 2.01-1.112 3.265-2.875 3.907-5.078.115-.395.049-.983.643-.974.567.008.549.604.668.986.435 1.406 1.277 2.573 2.34 3.508 2.94 2.587 7.048 2.94 10.443 1.043 2.439-1.363 3.733-3.523 4.329-6.166.129-.57.127-1.168.198-1.751.109-.904.423-1.28 1.119-1.365 1.058-.129 1.613.278 1.65 1.356.042 1.237.02 2.479-.054 3.715-.065 1.084-.64 1.855-1.696 2.21a3.87 3.87 0 0 0-1.628 1.025c-.632.672-.652 1.663-.022 2.338.71.76 1.557 1.024 2.598.863 2.737-.425 5.481-.414 8.227-.046 1.272.171 2.388-.204 3.288-1.129.551-.566.655-1.917.245-2.63-.359-.623-1.093-.891-2.045-.675-.661.15-1.296.413-1.956.564-1.186.271-1.615-.097-1.575-1.318.063-1.951.134-3.901.218-5.851a3.72 3.72 0 0 1 .173-1c.336-1.024 1.244-1.478 2.278-1.16.518.159.94.446 1.213.938.614 1.107 1.251 2.201 1.858 3.311 1.023 1.869 2.053 3.735 3.033 5.627.495.956.92 1.952 1.319 2.954.432 1.086.217 2.116-.387 3.098a8.3 8.3 0 0 1-3.045 2.924c-2.925 1.637-5.823 1.298-8.62-.365-.904-.538-1.75-1.179-2.801-1.406-2.899-.625-4.624 2.145-4.103 4.141.458 1.754 1.677 2.897 3.336 3.457 1.098.371 2.284.568 3.443.649 3.013.212 5.714-.786 8.23-2.37 1.522-.958 2.874-2.122 4.178-3.357a30.544 30.544 0 0 0 4.036-4.694c1.078-1.54 2.048-3.161 3.004-4.782 1.356-2.301 2.391-4.754 3.009-7.351.289-1.218.376-2.502.425-3.763zM9.157 34.951c1.356.02 2.731.078 4.057.331 1.539.294 3.034.818 4.548 1.243.732.206 1.332.626 1.885 1.137.673.622.734 1.391.031 1.986-.437.37-.972.645-1.498.884-1.329.604-2.766.588-4.091.652-1.746.022-3.355-.147-4.888-.848-1.338-.613-2.192-1.793-2.179-3.165.011-1.24.895-2.238 2.135-2.22zm6.693-10.928c-.552 1.2-1.763 1.451-2.847.696-1.164-.81-1.835-1.993-2.426-3.209a10.608 10.608 0 0 1-1.05-4.005 6.014 6.014 0 0 1 .13-1.65c.179-.8.783-1.229 1.585-1.055.584.127 1.244.343 1.656.741 1.956 1.892 3.071 4.215 3.279 7.187-.071.294-.115.833-.327 1.295zm19.225.677c-.337.992-1.276 1.453-2.233 1.066-.499-.202-1.013-.521-1.358-.926-1.791-2.099-2.57-4.618-2.857-7.314-.032-.297.053-.616.129-.913.38-1.486 1.604-1.876 2.817-.94 1.849 1.425 2.857 3.367 3.46 5.557.163.593.221 1.214.343 1.917-.087.471-.125 1.035-.301 1.553zm18.74-.591c-.385 1.659-2.194 1.723-3.079.932-.435-.389-.889-.797-1.192-1.285-1.235-1.986-2.184-4.087-2.303-6.495.07-.455.094-.923.219-1.363.214-.754.673-1.114 1.436-1.026.501.058 1.091.2 1.441.522.719.661 1.406 1.404 1.921 2.229.835 1.337 1.538 2.771 1.672 4.381.059.696.042 1.429-.115 2.105zM98.968 1.553c-.827-.7-1.778-.789-2.551-.814-1.946.012-3.221.314-4.623 1.214-1.398.898-2.111 2.203-2.045 3.905.111 2.875.228 5.744.644 8.6.325 2.233.495 4.489.716 6.736.079.807.466 1.386 1.145 1.8.914.558 1.979.222 2.364-.778.121-.314.189-.656.23-.991.273-2.208.532-4.417.794-6.626.179-1.505.34-3.013.537-4.516.182-1.385.578-2.658 1.917-3.408.347-.195.659-.461.963-.722 1.308-1.123 1.228-3.284-.091-4.4zm-3.659 23.552c-1.77-.367-3.505-.133-5.191.453-1.071.372-1.983 1.008-2.647 1.943-1.065 1.5-.69 3.14.84 4.15 1.229.812 2.577.958 3.98.94 1.784-.026 3.489-.283 4.991-1.381 1.254-.916 1.728-2.752.997-4.124-.639-1.198-1.725-1.722-2.97-1.981z" fill="#FBA900"/></svg>