<svg xmlns="http://www.w3.org/2000/svg" viewBox="0 0 100 100"><circle cx="50" cy="50" r="37.5" fill="#0f0"/><path d="M51.5 45.05c.75.75 1.65 1.35 2.7 1.65 1.05.3 2.1.38 3.15.08 1.12-.22 2.03-.75 2.85-1.43.75-.75 1.35-1.57 1.73-2.62.38-1.05.38-2.1.15-3.22-.22-1.12-.75-2.03-1.5-2.78s-1.65-1.35-2.62-1.65c-1.05-.3-2.1-.38-3.22-.07-1.05.22-2.03.75-2.85 1.42-.82.75-1.43 1.57-1.72 2.62-.38 1.05-.38 2.1-.15 3.15.2 1.12.73 2.1 1.48 2.85zM37.4 48.2c.75.75 1.65 1.35 2.7 1.65 1.05.3 2.1.38 3.15.08 1.12-.23 2.03-.75 2.85-1.43.75-.75 1.35-1.57 1.72-2.62s.38-2.1.15-3.22-.75-2.03-1.5-2.78-1.65-1.35-2.62-1.65c-1.05-.3-2.1-.38-3.22-.07-1.05.22-2.03.75-2.85 1.42-.83.75-1.42 1.58-1.72 2.62-.38 1.05-.38 2.1-.15 3.15.21 1.13.67 2.1 1.49 2.85zM71 46.18c-.38-.08-.82.07-1.12.38-.38.3-.75.75-1.12 1.35a21.219 21.219 0 0 1-4.2 4.42c-1.65 1.35-3.6 2.62-5.7 3.6-2.1 1.05-4.35 1.8-6.67 2.32-2.4.53-4.73.75-7.05.75-2.32 0-4.57-.3-6.68-.82-2.1-.53-3.97-1.28-5.62-2.25-.6-.38-1.2-.6-1.65-.75-.45-.15-.9-.08-1.2.15-1.12.68-1.05 2.03.15 3.98 1.2 2.02 3 3.67 5.4 5.18 2.4 1.42 5.17 2.4 8.33 2.92 3.15.53 6.6.38 10.35-.45 3.67-.82 6.83-2.18 9.53-3.98 2.7-1.8 4.8-3.9 6.3-6.22 1.5-2.33 2.4-4.65 2.7-6.98.05-2.25-.48-3.45-1.75-3.6z"/></svg>