<svg xmlns="http://www.w3.org/2000/svg" viewBox="0 0 75 75"><circle cx="37.5" cy="37.5" r="37.5" fill="#f0f"/><path d="M29.3 34.2L33 21.5c.3-.7.3-1.5.1-2.2-.2-.5-.7-.9-1.3-1l-.7-.3c-.1-.1-.4-.1-.5-.2-.1-.1-.1-.2-.1-.4s.1-.2.2-.3c.1-.1.4-.1.5-.1h6.3c.1 0 .3 0 .4.1.1.1.1.1.1.3 0 .1-.1.3-.1.4-.1.2-.3.2-.5.2l-.8.1c-.6.1-1.1.5-1.5 1-.5.7-.9 1.5-1 2.3l-3.6 12.7c-.7 2.7-1.9 4.6-3.4 5.8-1.7 1.3-3.9 1.9-6 1.9-1.3.1-2.5-.2-3.7-.7-1-.4-1.7-1.1-2.2-2-.5-.9-.7-1.9-.7-3 0-.5.1-1 .1-1.6.1-.7.2-1.3.4-2.1.1-.7.4-1.4.5-2l3-11c.1-.2.1-.5 0-.7-.1-.2-.3-.4-.4-.4l-1.5-.3c-.1-.1-.3-.1-.4-.2-.1-.1-.1-.2-.1-.3 0-.1.1-.2.1-.3.1-.1.3-.1.5-.1H25c.4 0 .6.1.6.4 0 .1-.1.2-.1.4-.2.1-.3.1-.5.1l-1.3.2c-.2.1-.4.1-.7.4-.2.3-.3.6-.4.9l-2.8 10.9c-.3 1.5-.6 2.6-.8 3.6l-.3 2.4c-.1 1.1.3 2.3 1.1 3.1.8.7 1.9 1.1 3 1 1.4 0 2.8-.5 3.9-1.5s2-2.6 2.6-4.8z"/><path d="M46.6 43.3c.1.1.2.2.2.4 0 .3-.1.5-.2.7-.6 1.3-1.5 2.6-2.5 3.6s-2.2 1.7-3.3 2.2c-1.3.5-2.7.7-4.1.7-1.7.1-3.3-.4-4.8-1.3-1.4-1-2.4-2.4-2.9-3.9-.6-2.1-.7-4.2-.3-6.4.3-1.9.9-3.6 1.7-5.3.8-1.6 1.9-3 3-4.3 1.2-1.2 2.6-2.2 4.1-2.9s3.1-1.1 4.8-1.1c.7 0 1.3.1 2 .3.4.1.9.4 1.3.6.3.1.6.4.8.6.1.1.3.2.5.3.1 0 .3-.1.4-.3l.6-.6.6-.6c.1-.1.3-.2.4-.3.1 0 .3.1.4.1.1.1.1.3.1.4v6.4c0 .1-.1.3-.1.4-.1.1-.2.1-.4.1-.3 0-.6-.2-.7-.6l-.2-1.2c-.3-1.3-1-2.5-2-3.4-.9-.7-1.9-1-3-1s-2.3.3-3.3.9c-1 .7-2 1.5-2.7 2.5-.9 1.2-1.6 2.5-2.1 3.8-.6 1.5-1 3.1-1.3 4.7-.4 1.9-.4 3.9-.1 5.9.2 1.3.9 2.5 1.9 3.3.9.7 2 1.1 3.2 1 .9 0 1.8-.1 2.6-.5.9-.4 1.8-1 2.5-1.7.9-.9 1.6-1.9 2.2-3 .1-.1.3-.3.5-.4-.1-.1 0-.2.2-.1z"/><path d="M48 34.9c.7 0 1.4.1 2.1.1.8.1 1.6.3 2.5.4.9.1 1.7.4 2.5.6.8.2 1.6.4 2.2.4.5.1 1 .1 1.5.2.3 0 .7-.1 1-.2.2-.1.4-.4.4-.7.1-.2.1-.5.1-.7v-.9c.1-.4.2-.8.5-1.1.3-.3.7-.4 1.2-.4.4 0 .8.1 1 .4.3.4.4.9.4 1.4 0 .9-.4 1.8-1 2.4-.7.6-1.7 1-2.7.9-.7 0-1.3-.1-1.9-.2-.7-.1-1.6-.3-2.5-.5l-2.7-.4c-.9-.2-1.8-.4-2.5-.5-.7-.1-1.3-.2-2-.2-.7-.1-1.3.1-1.9.4-.4.3-.7.7-.7 1.3-.1.3 0 .7.1 1 .1.2.2.5.3.7.1.3.1.6.1.9 0 .4-.1.8-.4 1.1-.3.3-.7.4-1.2.4s-1-.3-1.3-.7c-.4-.6-.5-1.3-.4-1.9.1-.7.3-1.5.7-2.1.4-.7 1-1.2 1.8-1.5.9-.5 1.9-.6 2.8-.6zm2 22.6c-.1.2-.1.4 0 .7.1.1.3.3.5.3l1.4.2c.3.1.4.2.4.4 0 .1-.1.3-.2.4-.1.1-.4.1-.5.1h-8.2c-.1 0-.4 0-.4-.1-.1-.1-.1-.2-.1-.3 0-.1.1-.3.1-.4.1-.1.3-.1.4-.1l1.4-.2c.2 0 .4-.1.6-.3.1-.2.3-.5.4-.8.1-.5.3-1.2.6-2.1.3-.9.5-1.9.8-3 .3-1.1.7-2.4 1-3.6s.7-2.5 1-3.9c.3-1.3.7-2.5 1-3.6.4-1.1.6-2.2.8-3.1.2-.9.4-1.6.6-2.2l3.9.7c-.1.6-.4 1.3-.6 2.2-.2.9-.5 1.9-.8 3.1-.3 1.2-.7 2.4-1 3.6s-.7 2.5-1 3.7-.7 2.5-1 3.5c-.3 1-.5 2.1-.7 2.9-.1.8-.3 1.6-.4 1.9z"/></svg>