<svg xmlns="http://www.w3.org/2000/svg" viewBox="0 0 125 125"><circle cx="62.5" cy="62.5" r="62.5" fill="#0f0"/><path d="M48.7 38.9c0 .7-.2 1.3-.5 2s-.9 1.3-1.5 1.9c-.7.6-1.5 1.1-2.5 1.4-1 .4-2.1.5-3.4.5-1.9 0-3.6-.4-5-1.3s-2.5-2-3.3-3.6c-.8-1.5-1.2-3.3-1.2-5.3 0-1.4.2-2.7.7-4s1.1-2.3 2-3.2c.8-.9 1.8-1.6 2.9-2.1 1.1-.5 2.3-.8 3.5-.8.8 0 1.5.1 2 .2s.9.3 1.2.4c.3.1.6.2.8.2s.5-.1.6-.2c.2-.1.3-.3.5-.4s.4-.2.7-.2c.3 0 .5.1.6.3.2.2.3.6.5 1.1l1.2 4.5c.1.3 0 .7-.1 1-.2.3-.5.5-.9.6-.4.1-.7 0-1-.1-.3-.1-.6-.4-.8-.9-.4-1-.8-1.7-1.3-2.3-.4-.6-.9-.9-1.4-1.2-.5-.2-1-.3-1.6-.3-.7 0-1.2.2-1.7.5s-.9.8-1.2 1.4c-.3.6-.6 1.3-.7 2.1s-.2 1.7-.2 2.7c0 1.5.2 2.8.6 3.8.4 1 1 1.8 1.8 2.3.8.5 1.6.8 2.7.8.7 0 1.4-.2 2.1-.6s1.3-.9 1.9-1.7c.3-.4.6-.6.9-.7.2-.1.5-.1.7 0 .2.1.3.2.4.4s0 .5 0 .8zm7.4-14.4v16.3c0 .5 0 .8.1.9.1.2.1.3.2.4l.1.1c.2.2.3.3.4.5s.2.4.2.7c0 .4-.1.6-.3.8-.2.2-.5.3-.8.3h-5.1c-.4 0-.6-.1-.8-.3s-.3-.5-.3-.8c0-.3.1-.5.2-.7.1-.2.3-.3.4-.5l.1-.1c.1-.1.2-.2.2-.4.1-.2.1-.5.1-.9V28.4c0-.4 0-.6-.1-.8-.1-.1-.2-.3-.3-.4l-.1-.1c-.2-.1-.4-.3-.5-.4s-.1-.3-.1-.6.1-.5.2-.7c.2-.2.4-.4.8-.5l2.5-1c.5-.2.8-.3 1.1-.4.3-.1.5-.1.8-.1.3 0 .6.1.8.3.2.2.2.5.2.8zm8.1 8.4v7.9c0 .4 0 .8.1.9.1.2.1.3.2.4l.1.1c.2.1.3.3.4.5.1.2.2.4.2.7 0 .4-.1.6-.3.8-.2.2-.5.3-.8.3H59c-.4 0-.6-.1-.9-.3-.2-.2-.3-.5-.3-.8 0-.3.1-.5.2-.7.1-.2.3-.3.4-.5l.1-.1c.1-.1.2-.2.2-.4.1-.2.1-.5.1-.9v-4.1c0-.4 0-.6-.1-.8-.1-.1-.2-.3-.3-.4l-.1-.1c-.2-.1-.4-.3-.5-.4-.1-.1-.1-.3-.1-.6s.1-.5.2-.7c.2-.2.4-.4.8-.5l2.5-1c.5-.2.8-.3 1.1-.4.3-.1.5-.1.8-.1.3 0 .6.1.8.3s.3.5.3.9zm-2.7-2.1c-.9 0-1.7-.3-2.2-.8s-.8-1.2-.8-2c0-.9.3-1.5.8-2s1.3-.8 2.2-.8c.9 0 1.7.3 2.2.8.5.5.8 1.2.8 2 0 .9-.3 1.5-.8 2-.5.6-1.3.8-2.2.8zm16.4 4.8c0 .8-.2 1.4-.7 1.8-.5.4-1.1.7-1.9.7-.8 0-1.4-.2-1.8-.7s-.6-1-.6-1.7v-.4c0-.4-.1-.6-.2-.8-.1-.2-.4-.3-.7-.3-.3 0-.6.1-.8.3-.2.2-.4.4-.6.8-.1.4-.2.8-.2 1.4 0 .9.2 1.6.5 2.2.3.6.7 1 1.3 1.3.5.3 1.1.4 1.8.4.6 0 1-.1 1.4-.2.4-.1.7-.3 1.1-.6.3-.2.5-.4.6-.4.1-.1.3-.1.4-.1.2 0 .3.1.4.2.1.1.2.3.2.6 0 .8-.2 1.5-.7 2.2s-1.1 1.2-2 1.6c-.9.4-1.9.6-3 .6-1.2 0-2.3-.3-3.3-.8s-1.8-1.3-2.3-2.2c-.6-1-.9-2.1-.9-3.4 0-1.3.3-2.4.8-3.4s1.3-1.8 2.3-2.4c1-.6 2.2-.9 3.6-.9 1.1 0 2.1.2 2.9.5.8.4 1.4.8 1.9 1.4.3.9.5 1.6.5 2.3zm2.2 8.9c-.4 0-.6-.1-.8-.3s-.3-.5-.3-.8c0-.3.1-.5.2-.7s.3-.3.4-.5l.1-.1c.1-.1.2-.2.2-.4.1-.2.1-.5.1-.9V28.4c0-.4 0-.6-.1-.8-.1-.1-.2-.3-.3-.4l-.1-.1c-.2-.1-.4-.3-.5-.4s-.1-.3-.1-.6.1-.5.2-.7c.2-.2.4-.4.8-.5l2.5-1c.5-.2.8-.3 1.1-.4.3-.1.5-.1.8-.1.3 0 .6.1.8.3s.3.5.3.8v16.3c0 .5 0 .8.1 1 0 .2.1.3.2.4l.2.2c.3.3.4.6.4 1 0 .8-.3 1.1-1 1.1h-5.2zm3.6-6.1l4.3-3.6c.1-.1.2-.2.2-.3 0-.1-.1-.2-.2-.3l-.2-.2c-.1-.1-.3-.3-.3-.4s-.1-.3-.1-.5c0-.4.1-.7.3-.9.2-.2.5-.3.9-.3h4.2c.4 0 .6.1.8.3.2.2.3.5.3.8 0 .3-.1.6-.3.9-.2.3-.6.5-1.2.5-.3 0-.6.1-.8.2-.2.1-.5.3-.9.6l-6.2 5.1-.8-1.9zm5.4-3.3l3.8 6.1c.1.2.2.4.3.5s.2.3.4.4c.3.3.5.5.6.7.1.2.2.4.2.7 0 .3-.1.6-.3.8-.2.2-.5.3-.8.3h-5.6c-.3 0-.5-.1-.7-.3-.2-.2-.3-.5-.3-.8 0-.2 0-.4.1-.5.1-.1.1-.3.3-.4l.2-.2c.1-.1.2-.3.1-.5 0-.2-.1-.4-.3-.8l-1.8-3 3.8-3zM23.7 62.4c0-.5.1-.9.3-1.2.2-.3.5-.5.9-.5h18.7c.4 0 .7.2.9.5.2.3.3.7.3 1.2s-.1.9-.3 1.2c-.2.3-.5.5-.9.5H24.8c-.4 0-.7-.2-.9-.5-.1-.3-.2-.7-.2-1.2zm27.1-2.8l-.3-.1c-.3-.1-.4-.3-.5-.5-.1-.2-.1-.4-.1-.7 0-.4.1-.7.4-.9.3-.2.6-.3 1-.3h.2c.1 0 .3-.1.4-.2.1-.1.4-.4.6-.7l1.1-1.4c.3-.4.6-.7.9-.9.3-.2.6-.3.9-.3.3 0 .6.1.8.3.2.2.3.5.3 1v9.5c0 .6.1 1 .3 1.3s.5.4.9.4c.2 0 .4-.1.6-.2.2-.1.3-.2.5-.4l.4-.4c.1-.1.3-.2.4-.2.2 0 .3.1.4.2.1.1.1.4.1.7 0 .7-.2 1.4-.6 2-.4.6-1 1.1-1.6 1.5-.7.4-1.5.6-2.3.6-1.5 0-2.6-.4-3.3-1.1-.7-.7-1.1-1.9-1.1-3.5v-4.5c0-.3 0-.5-.1-.7 0-.3-.1-.4-.3-.5zm4 0V57h4.4c.4 0 .6.1.8.3s.3.4.3.7c0 .5-.2.9-.6 1.2-.4.3-1 .5-1.9.5h-3zm12.9-2.9c1.4 0 2.6.3 3.6.8 1 .6 1.8 1.3 2.4 2.3s.8 2.1.8 3.4c0 1.2-.3 2.3-.9 3.2-.6 1-1.4 1.8-2.4 2.3-1.1.6-2.3.9-3.7.9-1.4 0-2.6-.3-3.6-.8-1-.6-1.8-1.3-2.4-2.3-.6-1-.8-2.1-.8-3.4 0-1.2.3-2.3.9-3.3.6-1 1.4-1.8 2.5-2.3 1-.5 2.2-.8 3.6-.8zm.9 10.4c.2-.1.4-.3.5-.6s.2-.8.1-1.4c0-.6-.2-1.4-.4-2.3-.2-1-.5-1.7-.7-2.2-.3-.5-.5-.9-.8-1.1-.3-.2-.5-.3-.8-.2-.2.1-.4.3-.5.6-.1.3-.2.8-.1 1.4 0 .6.2 1.4.4 2.3.2.9.5 1.7.7 2.2.3.5.5.9.8 1.1.3.2.6.3.8.2zm11.8-4.7c0-.5.1-.9.3-1.2.2-.3.5-.5.9-.5h18.7c.4 0 .7.2.9.5.2.3.3.7.3 1.2s-.1.9-.3 1.2c-.2.3-.5.5-.9.5H81.5c-.4 0-.7-.2-.9-.5-.2-.3-.2-.7-.2-1.2zM34.9 97.8c-.6 0-1.1 0-1.5-.1s-.8-.2-1.1-.2c-.3-.1-.6-.1-.9-.1-.2 0-.4 0-.6.1-.2.1-.3.1-.5.2-.1.1-.3.1-.5.2s-.3.1-.5.1c-.4 0-.7-.1-.9-.3-.2-.2-.4-.6-.5-1.1l-.7-3.6c-.1-.4 0-.7.1-1 .2-.3.4-.5.8-.6.4-.1.7-.1 1 0s.5.4.8.9c.4.7.8 1.2 1.3 1.6s.9.7 1.4.9 1.1.3 1.6.3c.7 0 1.2-.2 1.6-.5.4-.3.6-.8.6-1.3 0-.4-.1-.7-.3-1-.2-.3-.6-.6-1.2-.9-.6-.3-1.5-.6-2.7-1-1.4-.4-2.6-1-3.4-1.6-.8-.6-1.4-1.3-1.7-2.1s-.5-1.7-.5-2.7c0-1.2.3-2.3.8-3.2.5-.9 1.3-1.7 2.3-2.2 1-.5 2.2-.8 3.6-.8.7 0 1.3.1 1.8.2s.9.3 1.3.4c.4.1.7.2 1 .2.3 0 .5-.1.6-.2.1-.1.3-.3.5-.4s.4-.2.7-.2c.4 0 .7.1.9.4s.4.8.7 1.5l1.1 3.7c.1.5.1.9 0 1.2-.1.3-.4.5-.9.7-.4.1-.8.1-1.1 0-.3-.2-.6-.4-.8-.9-.4-.8-.9-1.5-1.5-2s-1.2-.9-1.8-1.2c-.6-.3-1.2-.4-1.9-.4-.6 0-1.1.2-1.5.5-.4.3-.5.8-.5 1.3 0 .4.1.7.3 1 .2.3.6.6 1.3.9.7.3 1.7.7 3.1 1.3 1.3.5 2.3 1 3.1 1.6.8.6 1.3 1.3 1.6 2 .3.8.5 1.6.5 2.6 0 1.1-.3 2.2-.9 3.1s-.9 1.3-2 1.9-2.4.8-4 .8zm8.7-10.2l-.3-.1c-.3-.1-.4-.3-.5-.5-.1-.2-.1-.4-.1-.7 0-.4.1-.7.4-.9.3-.2.6-.3 1-.3h.2c.1 0 .3-.1.4-.2.1-.1.4-.4.6-.7l1.1-1.4c.3-.4.6-.7.9-.9.3-.2.6-.3.9-.3.3 0 .6.1.8.3.2.2.3.5.3 1v9.5c0 .6.1 1 .3 1.3s.5.4.9.4c.2 0 .4-.1.6-.2.2-.1.3-.2.5-.4l.4-.4c.1-.1.3-.2.4-.2.2 0 .3.1.4.2.1.1.1.4.1.7 0 .7-.2 1.4-.6 2-.4.6-1 1.1-1.6 1.5-.7.4-1.5.6-2.3.6-1.5 0-2.6-.4-3.3-1.1-.7-.7-1.1-1.9-1.1-3.5v-4.5c0-.3 0-.5-.1-.7.1-.3-.1-.4-.3-.5zm4 0V85H52c.4 0 .6.1.8.3s.3.4.3.7c0 .5-.2.9-.6 1.2-.4.3-1 .5-1.9.5h-3zM60 85.9v7.9c0 .4 0 .8.1.9.1.2.1.3.2.4l.1.1c.2.1.3.3.4.5.1.2.2.4.2.7 0 .4-.1.6-.3.8-.2.2-.5.3-.8.3h-5.1c-.4 0-.6-.1-.9-.3-.2-.2-.3-.5-.3-.8 0-.3.1-.5.2-.7.1-.2.3-.3.4-.5l.1-.1c.1-.1.2-.2.2-.4.1-.2.1-.5.1-.9v-4.1c0-.4 0-.6-.1-.8-.1-.1-.2-.3-.3-.4l-.1-.1c-.2-.1-.4-.3-.5-.4s-.1-.3-.1-.6.1-.5.2-.7c.2-.2.4-.4.8-.5l2.5-1c.5-.2.8-.3 1.1-.4.3-.1.5-.1.8-.1.3 0 .6.1.8.3.2.2.3.5.3.9zm-2.7-2.1c-.9 0-1.7-.3-2.2-.8-.5-.5-.8-1.2-.8-2 0-.9.3-1.5.8-2s1.3-.8 2.2-.8c.9 0 1.7.3 2.2.8.5.5.8 1.2.8 2 0 .9-.3 1.5-.8 2-.5.6-1.3.8-2.2.8zm16.4 4.8c0 .8-.2 1.4-.7 1.8s-1.1.7-1.9.7c-.8 0-1.4-.2-1.8-.7-.4-.4-.6-1-.6-1.7v-.4c0-.4-.1-.6-.2-.8-.1-.2-.4-.3-.7-.3s-.6.1-.8.3c-.2.2-.4.4-.6.8-.1.4-.2.8-.2 1.4 0 .9.2 1.6.5 2.2.3.6.7 1 1.3 1.3s1.1.4 1.8.4c.6 0 1-.1 1.4-.2.4-.1.7-.3 1.1-.6.3-.2.5-.4.6-.4s.3-.1.4-.1c.2 0 .3.1.4.2s.2.3.2.6c0 .8-.2 1.5-.7 2.2s-1.1 1.2-2 1.6c-.9.4-1.9.6-3 .6-1.2 0-2.3-.3-3.3-.8s-1.8-1.3-2.3-2.2c-.6-1-.9-2.1-.9-3.4 0-1.2.3-2.4.8-3.4s1.3-1.8 2.3-2.4c1-.6 2.2-.9 3.6-.9 1.1 0 2.1.2 2.9.5s1.4.8 1.9 1.4c.3.9.5 1.6.5 2.3zm2.2 8.9c-.4 0-.6-.1-.8-.3-.2-.2-.3-.5-.3-.8 0-.3.1-.5.2-.7s.3-.3.4-.5l.1-.1c.1-.1.2-.2.2-.4.1-.2.1-.5.1-.9V81.4c0-.4 0-.6-.1-.8-.1-.1-.2-.3-.3-.4l-.1-.1c-.2-.1-.4-.3-.5-.4s-.1-.3-.1-.6.1-.5.2-.7c.2-.2.4-.4.8-.5l2.5-1c.5-.2.8-.3 1.1-.4.3-.1.5-.1.8-.1.3 0 .6.1.8.3.2.2.3.5.3.8v16.3c0 .5 0 .8.1 1s.1.3.2.4l.2.2c.3.3.4.6.4 1 0 .8-.3 1.1-1 1.1h-5.2zm3.6-6.1l4.3-3.6c.1-.1.2-.2.2-.3 0-.1-.1-.2-.2-.3l-.2-.2c-.1-.1-.3-.3-.3-.4s-.1-.3-.1-.5c0-.4.1-.7.3-.9.2-.2.5-.3.9-.3h4.2c.4 0 .6.1.8.3.2.2.3.5.3.8 0 .3-.1.6-.3.9-.2.3-.6.5-1.2.5-.3 0-.6.1-.8.2-.2.1-.5.3-.9.6l-6.2 5.1-.8-1.9zm5.4-3.3l3.8 6.1c.1.2.2.4.3.5s.2.3.4.4c.3.3.5.5.6.7.1.2.2.4.2.7 0 .3-.1.6-.3.8s-.5.3-.8.3h-5.6c-.3 0-.5-.1-.7-.3-.2-.2-.3-.5-.3-.8 0-.2 0-.4.1-.5.1-.1.1-.3.3-.4l.2-.2c.1-.1.2-.3.1-.5 0-.2-.1-.4-.3-.8l-1.8-3 3.8-3zM94.5 77c1.2 0 2 .3 2.6.8.6.5.8 1.2.8 2.1 0 .2 0 .5-.1.8 0 .3-.1.6-.2.9l-1.8 7.8c-.1.5-.3.9-.5 1.1s-.5.3-.9.3-.7-.1-.9-.3c-.2-.2-.4-.6-.5-1.1l-1.8-7.8c-.1-.3-.1-.6-.2-.9 0-.3-.1-.6-.1-.8 0-.9.3-1.6.8-2.1s1.6-.8 2.8-.8zm-.1 20.9c-.6 0-1.1-.1-1.6-.4-.5-.3-.8-.7-1.1-1.2-.3-.5-.4-1-.4-1.6 0-.6.1-1.1.4-1.6.3-.5.6-.9 1.1-1.1.5-.3 1-.4 1.6-.4.6 0 1.2.1 1.6.4.5.3.8.7 1.1 1.1.3.5.4 1 .4 1.6 0 .6-.1 1.1-.4 1.6-.3.5-.6.9-1.1 1.2-.4.3-1 .4-1.6.4z"/></svg>