<svg xmlns="http://www.w3.org/2000/svg" viewBox="0 0 175 71"><path d="M5.7 0h163.7c3.1 0 5.7 2.5 5.7 5.7v59.7c0 3.1-2.5 5.7-5.7 5.7H5.7C2.5 71 0 68.5 0 65.3V5.7C0 2.5 2.5 0 5.7 0z" fill="#0f0"/><path d="M14.5 12.2h9.3c.1 0 .2-.1.3-.1l.3-.3c.1-.1.2-.2.3-.2.1 0 .2 0 .2.1.1.1.1.2.1.3l1 3.8v.3c0 .1-.1.1-.2.1s-.2 0-.2-.1c-.1-.1-.2-.2-.2-.3-.2-.5-.4-1.1-.6-1.6-.1-.3-.3-.6-.6-.9-.2-.2-.4-.3-.6-.4-.3-.1-.5-.1-.8-.1h-3.1v15.8c0 .5.3.9.8.9h.1l1.4.1c.3 0 .5.1.5.3s-.1.3-.4.3h-5.4c-.1 0-.2 0-.3-.1-.4.1-.4 0-.4-.1 0-.2.1-.3.5-.3l1.4-.1c.2 0 .5-.1.6-.3.2-.2.2-.4.2-.7V12.8h-3.2c-.3 0-.7.1-1 .2-.3.2-.6.5-.7.8-.3.6-.6 1.3-.8 2 0 .1-.1.2-.2.3-.1.1-.2.1-.2.1-.1 0-.2-.1-.2-.1v-.3l.9-3.8c0-.1.1-.2.1-.3.1-.1.2-.1.2-.1.1 0 .3.1.3.1l.3.3c.1.1.2.2.3.2zm14.5 7v9.6c0 .2 0 .4.2.5.1.1.3.2.5.2l1.1.1c.1 0 .2 0 .3.1.1.1.1.1.1.2s0 .2-.1.2-.2.1-.3.1h-4c-.1 0-.2 0-.3-.1-.1 0-.1-.1-.1-.2s0-.2.1-.2c.1-.1.2-.1.3-.1l.7-.1c.2 0 .4-.1.5-.2.1-.1.2-.3.2-.5v-8.3c0-.2 0-.3-.1-.4-.1-.1-.3-.1-.4-.1h-1.2c-.1 0-.2 0-.3-.1-.1 0-.1-.1-.1-.2s0-.2.1-.2c.1-.1.2-.1.3-.1l1.3-.4.4-.1h.3c.1 0 .3 0 .3.1.2 0 .2.1.2.2zm-.5 4.5c0-.9.2-1.9.6-2.7.3-.7.8-1.3 1.4-1.8.5-.4 1.1-.6 1.8-.6.5 0 1.1.1 1.5.5.4.4.6.8.5 1.3 0 .2 0 .4-.2.6-.1.1-.3.2-.4.2-.2 0-.3-.1-.4-.2-.1-.2-.2-.4-.2-.6v-.3c0-.3-.1-.5-.3-.7-.2-.2-.5-.2-.7-.2-.5 0-1 .2-1.5.5-.5.4-.9 1-1.1 1.6-.3.8-.5 1.7-.5 2.5l-.5-.1zm16.4 3.7l.4.4-.7.6c-.6.6-1.4 1.2-2.1 1.6-.7.4-1.4.5-2.1.6-1.7.1-3.2-1.2-3.3-3v-7c0-.2 0-.3-.1-.5-.1-.1-.2-.2-.4-.1h-1.1c-.1 0-.2 0-.3-.1-.1-.1-.1-.3 0-.4.1-.1.2-.1.3-.1l1.3-.4.4-.1h.3c.1 0 .2 0 .3.1.1.1.1.2.1.4V27c-.1.8.2 1.6.7 2.2.5.5 1.2.8 1.9.8.6 0 1.2-.2 1.8-.5.8-.4 1.5-.9 2.1-1.5l.5-.6zm-.4 2v-8.9c0-.2 0-.3-.1-.5h-1.5c-.1 0-.2 0-.3-.1-.1-.1-.1-.1-.1-.2s0-.2.1-.2c.1-.1.2-.1.3-.1l1.3-.4.4-.1h.3c.1 0 .2 0 .3.1.1.1.1.2.1.4V29c0 .2.1.3.2.5.1.1.3.2.5.3l.7.1c.1 0 .2 0 .3.1.1.1.1.1.1.2s0 .2-.1.2-.2.1-.3.1h-1.4c-.2 0-.4 0-.6-.2-.1-.3-.2-.6-.2-.9zm8.9.4c.6 0 1.2-.2 1.7-.6.4-.4.7-1 .6-1.5 0-.4-.1-.8-.4-1.2-.3-.4-.7-.7-1.1-.9-.6-.3-1.2-.5-1.8-.6-.7-.2-1.3-.4-1.9-.8-.5-.3-.9-.6-1.3-1.1-.3-.4-.5-1-.5-1.5 0-.8.3-1.6.9-2.1.7-.6 1.7-.9 2.7-.9.4 0 .9 0 1.3.1.3.1.6.2.8.3.2.1.3.1.5.1.1 0 .2-.1.2-.1 0-.1.1-.2.1-.3 0-.1.2-.2.3-.2.1 0 .2 0 .3.1.1.1.2.2.2.4l.8 2.5c.1.1.1.3.1.4 0 .1-.1.2-.2.2h-.3c-.1-.1-.2-.2-.2-.3-.2-.6-.6-1-1-1.5-.2-.3-.7-.6-1.2-.8-.5-.2-1-.3-1.6-.3-.8-.1-1.5.2-2.1.6-.4.4-.7 1-.6 1.6 0 .4.1.8.4 1.2.3.4.7.7 1.1.9.6.3 1.2.5 1.8.7.7.2 1.4.4 2 .7.5.3.9.6 1.2 1.1.3.5.4 1 .4 1.5s-.1 1-.4 1.4c-.2.4-.6.8-1.1 1-.5.3-1.1.4-1.7.4-.5 0-.9 0-1.4-.2-.3-.1-.6-.2-.8-.4-.1-.1-.2-.2-.4-.2-.1 0-.2.1-.2.2l-.1.4c0 .1-.1.2-.2.2s-.2 0-.2-.1c-.1-.1-.1-.2-.1-.3l-.6-2.5c0-.2-.1-.4-.1-.5 0-.1 0-.2.1-.2h.3c.1.1.2.3.3.4.2.7.7 1.4 1.3 1.9.6.6 1.4.8 2.1.8zm6.2-10.3l-.9-.1c-.1 0-.2 0-.3-.1-.1-.1-.1-.1-.1-.2s0-.1.1-.2.2-.1.2-.1h.8c.2 0 .3 0 .5-.1.1-.1.2-.3.2-.5l.2-1.6c0-.1.1-.2.1-.3.1-.1.1-.1.2-.1s.2 0 .2.1c.1.1.1.2.1.3v11.5c0 .4.1.8.4 1.2.3.3.6.4 1 .4.2 0 .4 0 .6-.1.1-.1.3-.1.4-.2.1-.1.2-.2.3-.2s.1-.1.2-.1.2 0 .2.1c.1.1.1.2 0 .3 0 .2-.1.3-.3.4-.2.2-.4.3-.6.4-.3.1-.6.2-.9.1-.6 0-1.1-.2-1.5-.6-.4-.5-.7-1.1-.6-1.7v-7.8c0-.2 0-.4-.1-.6-.1-.1-.2-.2-.4-.2zm.6 0v-.6h3.5c.1 0 .2 0 .3.1.1 0 .1.1.1.2s-.1.2-.2.3c-.1.1-.3.1-.5.1h-3.2zm13.7-.3v9.6c0 .2 0 .4.2.5.1.1.3.2.5.3l.7.1c.3 0 .4.1.4.3s-.1.3-.4.3h-3.6c-.1 0-.2 0-.3-.1-.1 0-.1-.1-.1-.2s0-.2.1-.2c.1-.1.2-.1.3-.1l.7-.1c.2 0 .4-.1.5-.3.1-.1.2-.3.2-.5v-8.3c0-.2 0-.3-.1-.4-.1-.1-.3-.1-.4-.1h-1.2c-.1 0-.2 0-.3-.1-.1 0-.1-.1-.1-.2s0-.2.1-.2c.1-.1.2-.1.3-.1l1.3-.4.4-.1h.3c.1 0 .3 0 .3.1.1 0 .2.1.2.2zm-.3 2.6l-.4-.4.7-.6c.7-.6 1.4-1.1 2.2-1.6.7-.4 1.4-.5 2.2-.6.9 0 1.7.3 2.4.9.7.7 1 1.6.9 2.5v6.9c0 .2.1.4.2.5.1.1.3.2.5.2l.7.1c.3 0 .4.2.4.3s-.1.3-.4.3h-3.6c-.3 0-.4-.1-.4-.3s.1-.3.4-.3l.7-.1c.2 0 .4-.1.5-.3.1-.1.2-.3.2-.5v-6.7c.1-.8-.2-1.6-.7-2.2-.5-.5-1.2-.8-1.9-.8-.6 0-1.2.2-1.8.5-.8.4-1.5.9-2.1 1.5l-.7.7zm7.6-.3l-.4-.4.6-.5c.6-.6 1.3-1 2-1.5.6-.3 1.2-.5 1.9-.5.8 0 1.6.3 2.2.8.6.7.9 1.5 1 2.4l1 7c0 .2.1.4.2.5.1.1.3.2.5.2l.7.1c.1 0 .2.1.3.1.1 0 .1.1.1.2s0 .2-.1.2-.2.1-.3.1h-3.6c-.3 0-.4-.1-.4-.3s.1-.3.4-.3l.7-.1c.2 0 .4-.1.6-.2.1-.1.2-.3.2-.5l-1-6.8c-.1-.8-.3-1.5-.8-2.1-.4-.5-1.1-.7-1.7-.7-.5 0-1.1.2-1.6.4-.7.4-1.4.9-2 1.4l-.5.5zM102 23c0 .3-.1.6-.3.8-.3.2-.6.3-.9.3h-8v-.7h7.5c.5 0 .7-.2.7-.6 0-.9-.3-1.8-.9-2.5-.6-.7-1.6-1-2.5-1-.8 0-1.6.2-2.3.7-.7.5-1.2 1.1-1.5 1.9-.4.8-.6 1.8-.5 2.7-.1 1.4.4 2.8 1.2 3.9.8.9 2 1.4 3.2 1.4.9 0 1.8-.2 2.6-.8.6-.5 1-1.1 1.2-1.8 0-.1.1-.2.1-.3 0-.1.1-.1.2-.1s.2 0 .2.1v.2c-.1.6-.3 1.2-.7 1.6-.4.5-.9 1-1.5 1.2-.7.3-1.4.5-2.2.5-1 0-2-.2-2.8-.8-.8-.5-1.4-1.2-1.8-2.1-.4-1-.7-2-.6-3 0-1.1.2-2.1.7-3.1.4-.9 1.1-1.7 2-2.2.8-.5 1.8-.8 2.8-.8.8 0 1.5.2 2.2.5.6.4 1.2.9 1.5 1.5.2.9.4 1.7.4 2.5zm3 7.2c-.3 0-.5-.1-.7-.3-.2-.2-.3-.4-.3-.7 0-.3.1-.5.3-.7.2-.2.5-.3.7-.3.3 0 .7.2.9.4.3.4.4 1 .4 1.5s-.1 1.1-.2 1.6c-.1.4-.3.8-.5 1.1-.2.3-.4.5-.7.7-.2.1-.4.3-.7.4h-.3c-.1 0-.1-.1-.2-.1v-.3c.1-.1.2-.2.3-.2.3-.2.6-.4.8-.6.2-.3.4-.6.5-1 .1-.4.2-.8.2-1.1 0-.1 0-.3-.1-.4-.1-.1-.2-.1-.4-.1v.1zm11.5-1.6c0 .2.1.5.2.6.2.2.4.3.7.3l.8.1c.3.1.5.2.5.3 0 .1 0 .2-.1.2-.1.1-.2.1-.3.1h-4.4c-.1 0-.2 0-.3-.1-.1-.1-.1-.1-.1-.2 0-.2.2-.3.5-.3l.8-.1c.2 0 .5-.1.7-.3.2-.2.2-.4.2-.6V13.8c0-.2-.1-.5-.2-.6-.2-.2-.4-.3-.6-.3l-.8-.1c-.3-.1-.5-.2-.5-.3 0-.1 0-.2.1-.2.1-.1.2-.1.3-.1h4.4c.1 0 .2 0 .3.1.1.1.1.1.1.2 0 .2-.2.3-.5.3l-.9.1c-.2 0-.4.1-.6.3-.2.2-.2.4-.2.6l-.1 14.8zm4.5-15.5c-.2 0-.5-.1-.6-.3-.2-.2-.2-.4-.2-.7 0-.3.1-.5.3-.7.2-.2.4-.3.7-.3.3 0 .7.2.8.5.3.5.4 1 .3 1.6 0 .5-.1.9-.2 1.4-.1.4-.4.7-.6 1-.3.3-.6.5-1 .6h-.3c-.1 0-.1-.1-.2-.2v-.2l.2-.2c.3-.1.5-.2.7-.4.2-.2.4-.5.5-.7.1-.3.2-.6.2-.9 0-.1 0-.3-.1-.4-.1-.1-.2-.1-.3-.1h-.2zm5.1 6.1v9.6c0 .2 0 .4.2.5.1.1.3.2.5.3l.7.1c.3 0 .4.1.4.3s-.1.3-.4.3h-3.6c-.1 0-.2 0-.3-.1-.1 0-.1-.1-.1-.2s0-.2.1-.2c.1-.1.2-.1.3-.1l.7-.1c.2 0 .4-.1.5-.3.1-.1.2-.3.2-.5v-8.3c0-.2 0-.3-.1-.4-.1-.1-.3-.1-.4-.1h-1.2c-.1 0-.2 0-.3-.1-.1 0-.1-.1-.1-.2s0-.2.1-.2c.1-.1.2-.1.3-.1l1.3-.4.4-.1h.3c.1 0 .3 0 .3.1.2 0 .2.1.2.2zm-.3 2.6l-.4-.4.7-.6c.7-.6 1.4-1.1 2.2-1.6.7-.4 1.4-.5 2.1-.6.9 0 1.7.3 2.4.9.6.7 1 1.6.9 2.5v6.9c0 .2.1.4.2.5.1.1.3.2.5.2l.7.1c.3 0 .4.2.4.3s-.1.3-.4.3h-3.6c-.3 0-.4-.1-.4-.3s.1-.3.4-.3l.7-.1c.2 0 .4-.1.5-.3.1-.1.2-.3.2-.5v-6.6c.1-.8-.2-1.6-.7-2.2-.5-.5-1.2-.8-1.9-.8-.6 0-1.2.2-1.8.5-.8.4-1.5.9-2.1 1.5l-.6.6zm7.6-.3l-.4-.4.6-.5c.6-.6 1.3-1 2-1.5.6-.3 1.2-.5 1.9-.5.8 0 1.6.3 2.2.8.6.7.9 1.5 1 2.4l1 7c0 .2.1.4.2.5.1.1.3.2.5.2l.7.1c.1 0 .2.1.3.1.1 0 .1.1.1.2s0 .2-.1.2-.2.1-.3.1h-3.6c-.3 0-.4-.1-.4-.3s.1-.3.4-.3l.7-.1c.2 0 .4-.1.6-.2.1-.1.2-.3.1-.5l-1-6.8c-.1-.8-.3-1.5-.8-2.1-.4-.5-1.1-.7-1.7-.7-.5 0-1.1.2-1.6.4-.7.4-1.3.8-1.9 1.3l-.5.6zm24.3 4.2c-.4-.1-.9-.3-1.4-.4-.5-.1-1.1-.2-1.6-.1-.9 0-1.8.2-2.6.6-.6.4-1 1.1-1 1.9 0 .6.2 1.3.7 1.7.5.4 1.2.6 1.8.5.8 0 1.6-.2 2.3-.6.8-.4 1.5-1 2-1.7l.3.5c-.5.8-1.2 1.4-2 1.9-.8.4-1.7.7-2.6.7-.9 0-1.7-.2-2.4-.7-.6-.5-1-1.3-.9-2.1 0-.9.4-1.8 1.2-2.3 1-.7 2.1-1 3.3-.9.5 0 1 .1 1.6.1.5.1 1 .2 1.4.4l-.1.5zm-6.8-4c0-.5.2-1.1.5-1.5.3-.5.8-.9 1.4-1.2.7-.3 1.4-.5 2.1-.4.9-.1 1.8.3 2.5.9.6.6 1 1.5.9 2.4v7.2c0 .2 0 .4.2.6.1.1.3.2.5.2s.3 0 .5-.1c.1-.1.2-.2.2-.3 0-.1.1-.1.2-.1s.1 0 .2.1.1.2.1.2c0 .2-.1.3-.2.4-.1.1-.3.3-.4.3-.2.1-.4.1-.6.1-.7.1-1.3-.4-1.4-1.1v-7.3c.1-.8-.2-1.5-.8-2.1-.6-.5-1.3-.8-2.1-.7-.7 0-1.3.1-1.9.5-.4.3-.6.8-.6 1.2v.7c0 .2 0 .4-.2.5-.1.1-.3.2-.5.2s-.3-.1-.4-.2c-.1-.2-.2-.4-.2-.5z" fill="#fff"/><path d="M14.7 37h10.6c.2 0 .5 0 .7-.1l.5-.2c.1 0 .2-.1.4-.1.1 0 .3 0 .3.2.1.2.2.3.2.5l.9 5.2c.1.1.1.3 0 .4-.1.1-.1.2-.3.2h-.3c-.1-.1-.2-.2-.2-.3-.4-.9-.8-1.7-1.2-2.5-.3-.5-.6-1-1-1.5-.3-.3-.6-.5-.9-.7-.4-.1-.7-.1-1-.1h-.9v15.6c0 .1 0 .3.1.3.1.1.3.2.5.2l.8.1c.2.1.4.2.4.4s-.2.4-.5.4h-7.3c-.1 0-.3 0-.4-.1-.1-.1-.1-.2-.1-.3 0-.2.1-.3.4-.4l.8-.2c.2 0 .3-.1.5-.2.1-.1.1-.2.1-.3V37.9h-.9c-.4 0-.8.2-1.1.4-.5.4-1 .9-1.3 1.5-.6 1-1.2 2-1.7 3 0 .1-.1.2-.2.3h-.3c-.1 0-.2-.1-.2-.2v-.4l.9-5.3c0-.2.1-.4.2-.5.1-.1.2-.2.3-.2.1 0 .2 0 .4.1l.5.2c-.1.1.1.2.3.2zm22.1 14.9l-2.2 4.9L30 46l-.6-1.2c-.2-.3-.4-.5-.7-.5-.1 0-.2-.1-.2-.2v-.2c0-.1 0-.2.1-.3.1-.1.2-.1.3-.1H35c.1 0 .2 0 .2.1.1.1.1.2.1.2 0 .1 0 .2-.1.2-.1.1-.1.1-.2.1l-.6.1c-.2 0-.4.2-.4.4 0 .3 0 .6.2.8l2.6 6.5zm-2.5 5.3l.9-2.2.4-1 3-8.2c.1-.3.2-.6.1-.9-.1-.2-.3-.4-.6-.4l-.5-.2c-.1 0-.1-.1-.2-.1 0-.1-.1-.1-.1-.2s0-.2.1-.2c.1-.1.2-.1.3-.1h3.1c.1 0 .2 0 .3.1.1.1.1.2.1.3 0 .1 0 .1-.1.2l-.2.2c-.3.1-.7.2-.9.5-.3.3-.5.7-.6 1.1L35 57.3c-.4 1-.7 1.8-1 2.4-.2.5-.6 1-1 1.3-.5.3-1 .5-1.5.4-.8 0-1.5-.2-2.1-.8-.5-.5-.8-1.3-.8-2 0-.5.1-.9.4-1.2.3-.3.7-.5 1.1-.5.3 0 .7.1.9.3.3.3.5.7.7 1.1l.2.6c.1.3.2.5.4.8.1.2.3.3.5.3s.3-.1.4-.3c.2-.3.3-.7.5-1 .2-.4.4-.9.6-1.5zm11.9-13.5v15.9c0 .2 0 .3.1.5.1.1.1.2.2.2l.5.1c.1 0 .1.1.2.2 0 .1.1.1 0 .2 0 .2-.1.3-.3.3h-5.6c-.1 0-.2 0-.3-.1-.1-.1-.1-.1-.1-.2s0-.2.1-.2l.2-.2.4-.1c.1 0 .2-.1.3-.2.1-.1.1-.3.1-.5V45.7c0-.1 0-.2-.1-.3-.1-.1-.1-.1-.2-.1h-.5c-.1 0-.1-.1-.2-.1V45c0-.1 0-.2.1-.2.1-.1.2-.1.3-.2l3.7-1.1.4-.1h.3c.1 0 .2 0 .3.1.1 0 .1.1.1.2zm-.3 2.5l-.3-.4c.5-.7 1.1-1.4 1.8-1.8.7-.4 1.5-.6 2.2-.6.9 0 1.7.2 2.5.7.7.5 1.3 1.1 1.7 1.9.4.9.6 2 .6 3 0 1.2-.2 2.3-.7 3.4-.4.9-1.1 1.7-2 2.2-.9.5-1.8.8-2.8.8-.7 0-1.4-.1-2-.5-.6-.3-1-.8-1.3-1.4l.5-.5c.2.4.5.7.8 1 .3.2.6.3 1 .3s.9-.2 1.2-.5c.4-.4.7-.9.8-1.5.2-1 .3-2 .3-3 0-.9-.1-1.9-.3-2.8-.3-.5-.5-1.1-.9-1.5-.3-.2-.6-.4-1-.4s-.8.1-1.1.4c-.4.3-.8.7-1 1.2zm15.7-2.9c1.1 0 2.2.2 3.2.8.9.5 1.7 1.2 2.2 2.1.5 1 .8 2 .8 3.1s-.3 2.2-.8 3.1c-.5.9-1.3 1.6-2.2 2.1-1 .5-2.1.8-3.3.8-1.1 0-2.2-.2-3.2-.8-.9-.5-1.7-1.2-2.2-2.1-.5-1-.8-2-.8-3.1s.3-2.1.8-3.1c.5-.9 1.3-1.7 2.2-2.2 1-.4 2.1-.7 3.3-.7zm.7 11.2c.4-.1.7-.3.9-.7.2-.6.4-1.2.4-1.8 0-1-.1-2-.2-3s-.4-1.9-.7-2.9c-.2-.6-.5-1.1-.9-1.6s-1.1-.6-1.6-.2c-.2.1-.3.3-.4.5-.2.6-.4 1.2-.3 1.8 0 1 .1 2 .2 2.9.1 1 .4 1.9.7 2.9.2.6.5 1.1.9 1.6.2.4.6.5 1 .5zm16.8.1c.6.2 1.1.6 1.5 1.1.3.5.5 1.1.4 1.7 0 1.2-.6 2.4-1.7 3-1.5.8-3.2 1.2-4.9 1.1-1.2 0-2.4-.1-3.6-.3-.7-.1-1.4-.4-2-.9-.4-.4-.6-.9-.6-1.4 0-.7.3-1.3.8-1.7.8-.5 1.8-.8 2.8-.8l.1.2c-.2.1-.4.3-.5.5-.1.2-.2.4-.2.7 0 .8.3 1.6.9 2.2.8.6 1.7.9 2.7.8.6 0 1.1 0 1.7-.2.4-.1.7-.3.9-.5.2-.3.3-.6.3-.9 0-.3-.1-.6-.3-.8-.3-.3-.7-.5-1.1-.6-.8-.2-1.5-.4-2.3-.5-.9-.1-1.7-.3-2.5-.6-.5-.1-1-.4-1.3-.8-.3-.3-.4-.7-.4-1.2 0-.4.1-.8.4-1.2.3-.4.7-.7 1.2-.9.7-.3 1.5-.4 2.3-.5l.1.1c-.1 0-.2.1-.3.2-.1.1-.1.2-.1.4s.1.3.2.4c.3.2.6.3.9.3.4.1 1.1.2 2 .4.7.1 1.7.4 2.6.7zm.4-4.5c-.5.7-1.2 1.3-2 1.7-.9.4-1.9.6-2.9.6-1.1 0-2.2-.2-3.2-.6-.8-.3-1.5-.9-2-1.5s-.8-1.4-.8-2.2c0-.9.2-1.7.7-2.4.5-.7 1.3-1.3 2.1-1.7 1-.4 2.1-.7 3.2-.6 1.1 0 2.1.2 3.1.6.8.4 1.4.9 1.9 1.6.9 1.3.9 3.1-.1 4.5zm-6.4-5.6c-.2.4-.4.9-.4 1.3 0 .7 0 1.4.1 2 .1.7.3 1.4.5 2 .2.5.4.9.8 1.2.2.3.5.4.9.4s.8-.4 1-1.1c.2-.9.2-1.9 0-2.8-.1-1-.4-1.9-.9-2.8-.4-.6-.8-.9-1.3-.9-.3.2-.6.4-.7.7zm3.4-.9c.3-.8.7-1.5 1.3-2.1.5-.5 1.2-.8 1.9-.8.5 0 1.1.2 1.5.5.3.4.5.9.5 1.4 0 .5-.1.9-.4 1.3-.3.3-.7.5-1.1.5-.3 0-.5-.1-.7-.2-.2-.1-.4-.3-.5-.5-.1-.2-.3-.4-.5-.5-.1-.1-.3-.2-.5-.2s-.5.1-.7.3c-.2.3-.4.6-.5.9h-.5l.2-.6zm10.3.3l.1 3.6v6.1c0 .2.1.3.2.5.1.1.2.2.3.2l1.1.2c.1 0 .2.1.2.1 0 .1.1.1.1.2s0 .2-.1.2c-.1.1-.2.1-.3.1H82c-.1 0-.2 0-.3-.1-.1-.1-.1-.1-.1-.2s0-.2.1-.2l.2-.2.4-.1c.1 0 .2-.1.3-.2 0-.1.1-.3.1-.4v-8.3c0-.1-.1-.1-.2-.1h-.6c-.1 0-.1-.1-.2-.1 0 0-.1-.1-.1-.2s0-.2.1-.2c.1-.1.2-.1.3-.2l3.8-1 .4-.1h.2c.1 0 .2 0 .2.1.1.1.2.2.2.3zm-.2 4.5c0-1 .1-2 .5-2.9.3-.7.7-1.3 1.3-1.7.5-.4 1.1-.6 1.7-.6.6 0 1.2.2 1.6.7.4.6.6 1.3.6 2 .1.7-.1 1.4-.6 1.9-.4.4-.9.6-1.4.6-.5 0-.9-.1-1.2-.4-.3-.4-.4-.8-.4-1.2v-.5c0-.2 0-.4-.1-.5-.1-.1-.3-.2-.4-.2-.2 0-.4.1-.6.3-.2.3-.3.6-.4.9-.1.5-.1 1-.1 1.6h-.5zm12.5 1.7c-.2-.1-.4-.2-.7-.3-.2-.1-.5-.1-.7-.1-.4 0-.8.2-1.1.5-.3.5-.4 1-.4 1.6 0 .5.1 1 .4 1.5.2.3.6.5 1 .5.3 0 .5-.1.8-.2.2-.1.4-.3.6-.6l.2.4c-.4.6-.9 1.1-1.5 1.4-.7.3-1.4.5-2.2.5-.9 0-1.8-.3-2.5-.8-.6-.5-.9-1.3-.9-2.1 0-1 .5-1.9 1.3-2.4 1.2-.7 2.6-1 4-.9.4 0 .7 0 1.1.1.3.1.5.2.8.3l-.2.6zm-6.3-3.6c0-.5.2-1.1.6-1.5.5-.5 1.1-1 1.8-1.2 1-.3 2-.5 3-.5 1.2-.1 2.5.2 3.5.9.8.6 1.2 1.6 1.2 2.6V53c0 .2 0 .4.1.5.2.2.4.2.6 0 .1-.1.2-.2.2-.3.1-.1.1-.2.2-.2s.1 0 .2.1v.2c0 .3-.1.6-.3.8-.3.4-.6.6-1 .8-.6.3-1.2.4-1.8.4-.6 0-1.2-.1-1.7-.5-.4-.3-.6-.7-.6-1.2l-.2-.1v-8.3c0-.4-.1-.7-.3-1-.2-.2-.5-.3-.8-.3-.3 0-.6.1-.8.3-.2.2-.3.4-.3.7V46c0 .5-.2 1-.6 1.4-.4.4-1 .6-1.5.6-.4 0-.9-.1-1.2-.4-.2-.3-.4-.7-.3-1.1zm16.8-2.8v15.9c0 .2 0 .3.1.5.1.1.1.2.2.2l.5.1c.1 0 .2.1.2.2v.2c0 .2-.1.3-.3.3h-5.7c-.1 0-.2 0-.3-.1-.1-.1-.1-.1-.1-.2s0-.2.1-.2l.2-.2.4-.1c.1 0 .2-.1.3-.2.1-.1.1-.3.1-.5V45.7c0-.1 0-.2-.1-.3-.1-.1-.1-.1-.2-.1h-.5c-.1 0-.1-.1-.2-.1 0-.1-.1-.1-.1-.2s0-.2.1-.2c.1-.1.2-.1.3-.2l3.7-1.1c.2-.1.3-.1.4-.1h.3c.1 0 .2 0 .3.1.2 0 .3.1.3.2zm-.4 2.5l-.3-.4c.5-.7 1.1-1.4 1.8-1.8.7-.4 1.4-.6 2.2-.6.9 0 1.7.2 2.5.7.7.5 1.3 1.1 1.7 1.9.4.9.6 2 .6 3 0 1.2-.2 2.3-.7 3.4-.9 1.9-2.8 3-4.8 3-.7 0-1.4-.1-2.1-.5-.6-.3-1-.8-1.3-1.4l.5-.5c.2.4.4.7.8 1 .3.2.6.3 1 .3s.9-.2 1.2-.5c.4-.4.7-.9.8-1.5.2-1 .3-2 .3-3 0-.9-.1-1.9-.3-2.8-.1-.6-.4-1.1-.7-1.5-.3-.3-.7-.5-1.1-.5-.4 0-.8.1-1.1.4-.4.4-.8.8-1 1.3zm14.6-10.1v17.5c0 .2 0 .3.1.5 0 .1.1.2.3.2l.5.1c.1.1.2.2.2.3 0 .2-.1.3-.3.3H119c-.1 0-.2 0-.3-.1-.1-.1-.1-.2-.1-.2 0-.1 0-.1.1-.2l.2-.2.5-.1c.1 0 .2-.1.2-.2.1-.1.1-.3.1-.5V38.1c0-.1 0-.2-.1-.3-.1-.1-.1-.1-.2-.1h-.5c-.1 0-.1-.1-.2-.1 0-.1-.1-.1-.1-.2s0-.2.1-.2c.1-.1.2-.1.3-.2l3.8-1.2.4-.1h.3c.1 0 .2 0 .3.1v.3zm-.4 10.5l-.3-.4.5-.5c.7-.7 1.6-1.3 2.4-1.9.6-.4 1.3-.6 1.9-.6.7 0 1.4.2 1.9.7.5.6.8 1.4.8 2.2l.8 7.3c0 .2.1.3.1.5.1.1.1.2.2.2l.4.1c.1 0 .1.1.2.2 0 .1.1.1.1.2s0 .2-.1.2c-.1.1-.2.1-.2.1h-5.6c-.2 0-.3-.1-.3-.2v-.1c0-.2.1-.3.2-.3l.4-.1c.1 0 .2-.1.3-.2v-.5l-.7-6.6c0-.4-.2-.8-.4-1.2-.2-.3-.5-.4-.8-.4-.2 0-.5.1-.7.2-.3.2-.5.3-.8.5l-.3.6zm20.6 1.7c0 .2-.1.4-.2.6-.2.1-.4.2-.6.2h-7.6v-.6h3.9c.2 0 .4-.1.4-.4.1-1-.1-2-.5-3-.3-.6-.7-.9-1.1-.9-.3 0-.6.1-.8.4-.3.3-.5.8-.6 1.2-.2.7-.2 1.5-.2 2.2-.1 1.3.2 2.6 1 3.7.7.8 1.7 1.2 2.7 1.2.7 0 1.5-.2 2.1-.6.5-.4.9-1 1-1.6 0-.1.1-.1.1-.2h.1c.1 0 .1 0 .1.1.1.1.1.1.1.2 0 .8-.3 1.7-.7 2.3-.5.7-1.1 1.3-1.9 1.7-.9.4-1.8.6-2.8.6-1.1 0-2.1-.2-3.1-.7-.9-.5-1.6-1.2-2.1-2.1-.5-.9-.7-2-.7-3 0-1.1.2-2.2.7-3.3.5-.9 1.2-1.7 2.1-2.2 1-.5 2.1-.8 3.2-.8 1 0 1.9.2 2.8.7.8.4 1.4 1 1.8 1.8.5.8.8 1.6.8 2.5zm6-4.5l.1 3.6v6.1c0 .1 0 .3.1.4.1.1.2.2.3.2l1.1.2c.1 0 .2.1.2.1 0 .1.1.1.1.2s0 .2-.1.2c-.1.1-.2.1-.3.1h-6.3c-.1 0-.2 0-.3-.1-.1-.1-.1-.1-.1-.2s0-.2.1-.2l.2-.2.4-.1c.1 0 .2-.1.3-.2.1-.1.1-.3.1-.4v-8c0-.1 0-.2-.1-.3 0-.1-.1-.1-.2-.1h-.6c-.1 0-.1-.1-.1-.1s-.1-.1-.1-.2 0-.2.1-.2c.1-.1.2-.1.3-.2l3.8-1 .4-.1h.2c.1 0 .2 0 .2.1.2.2.2.3.2.4zm-.2 4.6c0-1 .1-2 .5-2.9.3-.7.7-1.3 1.3-1.7.5-.4 1.1-.6 1.7-.6.6 0 1.2.2 1.6.7.4.6.6 1.3.6 2 .1.7-.1 1.4-.6 1.9-.4.4-.9.6-1.4.6-.5 0-.9-.1-1.2-.4-.3-.4-.4-.8-.4-1.2v-.5c0-.2 0-.4-.1-.5-.1-.1-.3-.2-.4-.2-.2 0-.4.1-.6.3-.2.3-.3.6-.4.9-.1.5-.1 1-.1 1.6h-.5zm7.8 6.9c-.4 0-.9-.1-1.2-.3-.4-.2-.7-.5-.9-.9-.2-.4-.3-.8-.3-1.3 0-.4.1-.8.3-1.2.2-.4.5-.7.9-.9.4-.2.8-.4 1.2-.3.4 0 .9.1 1.3.3.4.2.7.5.9.9.2.4.3.8.3 1.2 0 .4-.1.9-.3 1.3-.2.4-.5.7-.9.9-.5.2-.9.4-1.3.3z" fill="#1f191a"/></svg>