<svg xmlns="http://www.w3.org/2000/svg" viewBox="0 0 125 125"><path d="M112.62 64.62L125 57.38l-13.38-5.25L121.75 42l-14.25-1.75 7.25-12.38-14.25 2L104.38 16l-13.25 5.5.37-14.38-11.5 8.5-3.25-14-9 11.25L61.12 0l-5.88 13.12-9.62-10.75-2.5 14.12-12-8 1.12 14.25L18.75 18l4.5 13.62L9 30.25l7.75 12.12-14.12 2.25 10.5 9.75L0 60.12l12.62 6.75-11.24 8.88 13.88 3.5L6.5 90.62l14.37-.12-5.62 13.12L29.12 100l-2.25 14.12 12.62-7 1.38 14.25 10.38-9.88 4.88 13.5 7.62-12.25 8.12 11.88 4.25-13.75 10.88 9.5.75-14.37 12.75 6.5-2.75-14.13 14 3.12-6.25-13 14.38-.5-9.25-10.88L124.38 73l-11.76-8.38z" fill="#0f0"/><path d="M32.38 59.5c.5 0 .88-.12 1-.37.25-.25.37-.62.62-1.25l.75-2.75c.12-.37.12-.75-.12-1-.12-.25-.38-.5-.75-.5-.38-.12-.62 0-.88 0-.25.12-.5.38-.62.75l-.5 1c-.13.38-.38.62-.62.88-.25.25-.5.38-.75.5s-.62.12-1 .12h-.88c-.25 0-.5-.12-.75-.25-.12-.12-.25-.38-.25-.75v-8.5c0-.25 0-.5.12-.62l.38-.38.37-.12c.5-.25.75-.62.75-1.13 0-.37-.12-.62-.25-.75-.25-.25-.5-.25-1-.25h-5.75c-.37 0-.75.12-1 .25-.25.24-.25.5-.25.74 0 .5.25.88.75 1.13l.38.12.37.38c.12.12.12.38.12.62v8.38c0 .25 0 .5-.12.62l-.37.38-.38.12c-.5.25-.75.63-.75 1.13 0 .38.12.62.25.75.25.25.5.25 1 .25h7.38c.62 0 1 .12 1.38.25.74.12.99.25 1.37.25zm15.12-8.38c-.5-.88-1.25-1.5-2.12-2-.88-.5-2-.75-3.25-.75s-2.38.25-3.25.75c-1 .5-1.62 1.12-2.25 2-.5.88-.75 1.75-.75 2.75 0 1.13.25 2.13.75 3s1.25 1.5 2.13 2c.88.5 2 .75 3.25.75s2.38-.25 3.25-.75c1-.5 1.62-1.12 2.25-2 .5-.88.75-1.75.75-2.75-.14-1.24-.26-2.12-.76-3zm-4.12 5.51c-.12.25-.25.5-.5.5-.25.12-.5 0-.75-.12s-.5-.5-.75-1-.5-1-.62-1.75c-.25-.75-.25-1.38-.25-1.88s.12-.88.25-1.25c.12-.25.25-.5.5-.5.25-.12.5 0 .75.12.25.25.5.5.75 1s.5 1 .62 1.75.25 1.25.25 1.88c-.01.5-.13 1-.25 1.25zm17.5-5.51c-.5-.88-1.25-1.5-2.12-2-.88-.5-2-.75-3.25-.75s-2.38.25-3.25.75c-1 .5-1.62 1.12-2.25 2-.5.88-.75 1.75-.75 2.75 0 1.13.25 2.13.75 3 .5.88 1.25 1.5 2.13 2 .88.5 2 .75 3.25.75s2.38-.25 3.25-.75c1-.5 1.62-1.12 2.25-2 .5-.88.75-1.75.75-2.75-.02-1.12-.26-2.12-.76-3zm-4 5.51c-.12.25-.25.5-.5.5-.25.12-.5 0-.75-.12s-.5-.5-.75-1-.5-1-.62-1.75C54 53.5 54 52.88 54 52.38s.12-.88.25-1.25c.12-.25.25-.5.5-.5.25-.12.5 0 .75.12.25.25.5.5.75 1s.5 1 .62 1.75.25 1.25.25 1.88-.12 1-.24 1.25zM63.25 46l.12.12c.12.12.25.12.25.25.12.12.12.38.12.62v9.12c0 .38 0 .62-.12.75 0 .12-.12.25-.25.38l-.12.12-.38.38c-.12.12-.12.37-.12.5 0 .25.12.5.25.62.12.12.38.25.75.25h4.5c.62 0 .88-.25.88-.88 0-.37-.12-.62-.38-.88-.12-.12-.12-.25-.25-.38V55.6l1-.75 1.12 1.62c.12.25.25.38.38.62.12.12 0 .25-.25.5l-.12.12c-.12.12-.25.25-.25.38 0 .12-.12.25-.12.38 0 .25.12.5.25.62.12.12.38.25.62.25h4.62c.38 0 .62-.12.75-.25s.25-.38.25-.62c0-.25-.12-.38-.25-.62l-.5-.5-.38-.35-.38-.37-2.74-4.13.88-.75c.5-.38.75-.5 1-.62s.5-.12.75-.25c.5-.12.75-.25.88-.5.12-.25.25-.38.25-.62 0-.25-.12-.5-.25-.75-.12-.12-.38-.25-.75-.25h-3.88c-.25 0-.5.12-.75.25-.12.12-.25.38-.25.62 0 .12 0 .38.12.5s.12.25.25.38l.25.11c.12.12.25.25.25.38 0 .12-.12.25-.25.37l-2.62 2v-9.5c0-.25-.12-.5-.25-.75-.13-.12-.38-.24-.63-.24s-.5 0-.75.12-.5.12-.88.25l-2.25.88c-.62.25-.88.5-.88 1 0 .25 0 .38.12.5.14.25.27.37.39.37zm14.37 5.75l.12.12c.13.13.26.13.26.25.12.12.12.38.12.62v3.5c0 .38 0 .62-.12.75 0 .12-.12.25-.25.38v.12l-.38.38c-.12.12-.12.38-.12.5 0 .25.12.5.25.62.12.12.38.25.75.25h4.5c.38 0 .62-.12.75-.25.12-.12.25-.38.25-.62 0-.25 0-.38-.12-.5l-.38-.38-.12-.12c-.13-.12-.13-.25-.26-.37 0-.12-.12-.37-.12-.75V49.5c0-.25-.12-.5-.25-.75-.12-.12-.38-.25-.62-.25s-.5 0-.75.12-.5.12-.87.25l-2.26.88c-.62.25-.88.5-.88 1 0 .25 0 .38.12.5.01.25.14.37.38.5zm2.63-4.13c.75 0 1.5-.12 1.88-.5.5-.38.75-.88.75-1.5s-.25-1.13-.75-1.5c-.5-.38-1.13-.5-1.88-.5s-1.5.12-1.88.5c-.5.37-.75.88-.75 1.5s.25 1.12.75 1.5c.38.38 1.13.5 1.88.5zm18 9.88h-.12c-.13-.12-.13-.25-.25-.38 0-.12-.12-.38-.12-.75l-.38-4.25c-.12-1-.38-1.88-.87-2.5-.5-.62-1.25-1-2.25-1-.62 0-1.25.25-2 .62-.5.25-1.12.75-1.88 1.38v-1c0-.25-.12-.5-.25-.75-.12-.12-.38-.25-.62-.25s-.5 0-.75.12-.5.12-.87.25l-2.25.88c-.62.25-.87.5-.87 1 0 .25 0 .38.12.5l.38.38.12.12c.11.13.24.13.24.25.12.12.12.38.12.62v3.5c0 .38 0 .62-.12.75 0 .12-.12.25-.25.38l-.12.12-.38.38c-.12.12-.12.38-.12.5 0 .25.12.5.25.62.12.12.38.25.75.25h4.5c.62 0 .87-.25.87-.88 0-.38-.12-.62-.38-.88h-.12c-.12-.12-.12-.25-.25-.37v-4.88c.25-.25.5-.38.62-.38.25-.12.5-.12.62-.12.38 0 .62.12.88.38.12.25.25.62.38 1l.25 3.12v.88c0 .12-.12.25-.25.37l-.12.12c-.25.25-.38.5-.38.88 0 .62.25.88.88.88h4.62c.38 0 .62-.12.75-.25.12-.12.25-.38.25-.62s0-.38-.12-.5c-.26-.12-.39-.37-.51-.49zm6-14.12c-.5-.5-1.25-.75-2-.75s-1.25.25-1.75.62c-.5.38-.75 1-.75 1.62s.12 1.13.5 1.5c.38.38.87.5 1.62.5h.25c.25 0 .38 0 .38.12.12.12.12.25.12.38 0 .25-.12.38-.25.62-.12.25-.38.38-.75.62-.25.25-.62.38-1.12.5-.38.12-.62.25-.75.5-.12.12-.12.38-.12.62 0 .25.12.5.38.62.25.12.62.12 1 0 1.25-.37 2.12-1 2.88-2 .75-.88 1-2 1-3.25.11-.85-.14-1.6-.64-2.22zm-59 34H40c-.38 0-.75.12-1 .25s-.25.5-.25.75.13.5.25.62.38.25.62.5l.38.12c.12.12.38.12.38.25.12.12.12.25.12.5v2.12c0 .12-.12.25-.12.25-.12.12-.12.12-.38.12h-.5c-.75 0-1.38-.25-2-.75-.62-.5-1.12-1.12-1.5-2-.38-.88-.5-2-.5-3.25 0-1.12.12-2 .5-2.88.25-.75.75-1.38 1.25-1.75s1.25-.62 2-.62c.5 0 1 .12 1.5.25s1 .5 1.37.88c.5.38.88 1 1.25 1.75.12.38.38.62.62.62.25.12.5.12.75.12.38 0 .62-.25.75-.38.12-.25.25-.5.12-.88l-1-3.5c-.12-.38-.25-.62-.38-.88a.978.978 0 0 0-.62-.25c-.12 0-.38 0-.5.12s-.25.25-.38.25c-.12.12-.38.12-.5.12-.25 0-.5 0-.75-.12s-.62-.25-1.13-.38c-.5-.12-1-.12-1.75-.12-1.12 0-2.12.25-3.12.62-1 .38-1.88 1-2.5 1.62-.75.75-1.25 1.62-1.75 2.5-.37 1-.62 2-.62 3.12 0 1.25.12 2.38.5 3.25.37 1 .88 1.88 1.5 2.5.64.8 1.39 1.3 2.39 1.68.88.38 2 .62 3.12.62.75 0 1.38-.12 1.88-.25.5-.12.88-.38 1.25-.5s.62-.25.88-.25c.12 0 .38 0 .5.12l.37.39c.12.12.25.25.5.38.12.12.38.12.62.12.38 0 .62-.12.88-.25.25-.12.25-.5.25-.88v-4c0-.25 0-.38.12-.5s.25-.25.38-.25l.25-.13c.25-.12.38-.25.5-.38.12-.12.12-.38.12-.62 0-.38-.12-.62-.25-.75 0 .01-1.12.01-1.12.01zm11.87-2.26c-.88-.5-2-.75-3.25-.75s-2.38.25-3.25.75c-1 .5-1.62 1.12-2.25 2-.5.88-.75 1.75-.75 2.75 0 1.12.25 2.12.75 3s1.25 1.5 2.12 2 2 .75 3.25.75 2.38-.25 3.25-.75c1-.5 1.62-1.12 2.25-2 .51-.87.76-1.75.76-2.74 0-1.12-.25-2.12-.75-2.88-.63-1-1.25-1.62-2.13-2.13zm-1.99 7.51c-.12.25-.25.5-.5.5-.25.12-.5 0-.75-.12s-.5-.5-.75-1-.5-1-.62-1.75c-.25-.75-.25-1.38-.25-1.88s.12-.88.25-1.25c.12-.25.25-.5.5-.5.25-.12.5 0 .75.12.25.25.5.5.75 1s.5 1 .62 1.75.25 1.25.25 1.88c0 .5-.13 1-.25 1.25zm15.37-7.38c-.88-.5-2-.75-3.25-.75s-2.38.25-3.25.75c-1 .5-1.62 1.12-2.25 2-.5.87-.75 1.75-.75 2.75 0 1.12.25 2.12.75 3 .5.88 1.25 1.5 2.12 2s2 .75 3.25.75 2.38-.25 3.26-.75c1-.5 1.62-1.12 2.25-2 .5-.87.75-1.75.75-2.75 0-1.13-.25-2.13-.75-2.88-.51-.99-1.13-1.75-2.13-2.12zm-1.88 7.5c-.12.25-.25.5-.5.5-.25.12-.5 0-.75-.12s-.5-.5-.75-1-.5-1-.62-1.75c-.25-.75-.25-1.37-.25-1.88 0-.5.12-.88.25-1.25.12-.25.25-.5.5-.5.25-.12.5 0 .75.12.25.25.5.5.75 1s.5 1 .62 1.75.25 1.25.25 1.87c.01.51-.12.88-.25 1.26zm18.51.75l-.13-.12c-.12-.12-.12-.25-.25-.38 0-.12-.12-.38-.12-.75V70c0-.25-.12-.5-.25-.75a.954.954 0 0 0-.63-.25c-.25 0-.5 0-.75.12s-.5.12-.87.25l-2.25.88c-.62.25-.87.5-.87 1 0 .25 0 .38.12.5l.38.38.12.12c.12.12.25.12.38.25.12.12.12.38.12.62V75c-.62-.38-1.37-.5-2.12-.5-1 0-2 .25-2.88.75-.88.5-1.5 1.13-2 2-.5.88-.75 1.88-.75 3.12 0 1 .12 1.88.62 2.75.38.75.88 1.37 1.62 1.88.62.5 1.5.62 2.25.62 1 0 1.88-.25 2.62-.88.25-.25.5-.5.88-.75.12.25.25.5.5.75.38.38.88.5 1.38.5h2.38c.38 0 .62-.12.75-.25s.25-.38.25-.62c0-.25 0-.38-.12-.5-.01-.12-.13-.25-.38-.37zm-6.01-.5c-.38 0-.62-.12-1-.38-.25-.25-.5-.5-.62-1s-.25-1-.25-1.75c0-.62.12-1.25.25-1.62.12-.5.38-.75.62-1 .25-.25.62-.38.87-.38.38 0 .62.12 1 .25.12 0 .12.12.25.12v5.25c-.49.39-.74.51-1.12.51zM92 69.12c-1 0-1.63.25-2.12.62-.5.38-.62 1-.62 1.75v.62c0 .25.12.5.12.75l1.25 5.75c.12.38.25.75.5.88.25.25.5.25.75.25.38 0 .62-.12.88-.25.25-.12.38-.5.5-.88l1.38-5.75c0-.25.12-.5.12-.75v-.61c0-.75-.25-1.38-.62-1.75-.52-.5-1.14-.63-2.14-.63zm1.25 11.63c-.38-.25-.88-.38-1.38-.38s-.87.13-1.25.38-.75.5-.88 1c-.25.38-.38.88-.38 1.25 0 .5.12.88.38 1.25.25.38.5.75.88 1s.88.38 1.25.38c.5 0 .88-.12 1.38-.38.38-.25.75-.5.87-1 .25-.38.38-.87.38-1.25 0-.5-.12-.87-.38-1.37-.24-.25-.5-.63-.87-.88z"/></svg>