<svg xmlns="http://www.w3.org/2000/svg" viewBox="0 0 100 100"><path fill="#F60" d="M90.1 51.8L100 46l-10.7-4.2 8.1-8.1L86 32.3l5.8-9.9L80.4 24l3.2-11.1L73 17.2l.3-11.5-9.2 6.9-2.6-11.2-7.2 8.9L49.1 0l-4.9 10.5-7.6-8.6-2 11.3L25 6.7l.9 11.5L15 14.3l3.7 10.9-11.5-1.1 6.3 9.7-11.4 1.8 8.4 7.8L0 48l10.1 5.5-9.1 7 11.2 2.8-7 9.1 11.5-.1-4.6 10.5 11.1-2.9-1.8 11.4 10.1-5.7 1.1 11.5 8.3-7.9 3.9 10.8 6.1-9.8 6.4 9.5 3.5-10.9 8.6 7.5.7-11.4 10.2 5.2-2.2-11.3 11.2 2.5-5-10.4 11.5-.3-7.4-8.8 11.1-3.3z"/><path d="M23.1 44.9l-.3.3-.2.1c-.4.2-.7.6-.7 1 0 .3.1.5.2.6.2.2.4.2.8.2h2.4c.3 0 .6-.1.8-.2.2-.2.2-.4.2-.6 0-.4-.2-.8-.7-1l-.2-.1c-.2-.1-.3-.2-.4-.3-.1-.1-.1-.3-.1-.5v-4.3l4.1 5.4c.2.3.4.5.5.6.1.1.1.3.1.4 0 .5.2.7.7.7h2.8c.3 0 .5-.1.6-.2.2-.2.2-.4.3-.6 0-.2 0-.3-.1-.4-.1-.1-.1-.3-.3-.5V45c-.1-.2-.2-.4-.2-.7-.1-.2-.1-.5-.1-.8V38c0-.2 0-.4.1-.5.1-.1.2-.2.4-.3l.2-.2c.4-.2.7-.6.7-1 0-.3-.1-.5-.2-.6-.2-.2-.4-.2-.8-.2h-2.4c-.3 0-.6.1-.8.2-.2.2-.2.4-.2.6 0 .4.2.8.6 1l.2.1c.2.1.3.2.3.3.1.1.1.3.1.5v4.4l-5-6.6c-.2-.3-.4-.5-.6-.5-.2-.1-.4-.1-.7-.1h-2.5c-.3 0-.5.1-.6.2-.2.1-.2.3-.3.6 0 .2 0 .4.1.5.1.1.2.3.4.5l.6.7c.2.2.3.4.3.5.1.2.1.4.1.8v5.6c-.1.2-.1.3-.2.4zM37.8 47c.7.4 1.6.6 2.6.6s1.9-.2 2.6-.6c.8-.4 1.4-.9 1.8-1.6.4-.7.6-1.4.6-2.2 0-.9-.2-1.7-.6-2.3-.4-.7-1-1.2-1.7-1.6-.7-.4-1.6-.6-2.6-.6s-1.9.2-2.6.6c-.8.4-1.3.9-1.8 1.6-.4.7-.6 1.4-.6 2.2 0 .9.2 1.7.6 2.4.4.6 1 1.1 1.7 1.5zm1.6-6c.1-.2.2-.4.4-.4.2-.1.4 0 .6.1.2.2.4.4.6.8.2.4.4.8.5 1.4.1.6.2 1 .2 1.5 0 .4 0 .7-.1 1-.1.2-.2.4-.4.4-.2.1-.4 0-.6-.1-.2-.1-.4-.4-.6-.8-.2-.4-.4-.8-.5-1.4-.2-.6-.2-1.1-.2-1.5-.1-.5 0-.8.1-1zm7.1-.5l.1.1c.1.1.3.2.3.2.1.1.1.3.1.5v3.5c0 .9.2 1.6.8 2.1.5.5 1.3.7 2.3.7.6 0 1.1-.1 1.6-.4.5-.2.9-.6 1.2-1 .3-.4.4-.9.5-1.3 0-.2 0-.3-.1-.4-.1-.1-.2-.2-.3-.2-.1 0-.3 0-.4.2-.1.1-.3.2-.4.4-.2.1-.4.2-.6.2-.3 0-.5-.1-.6-.3-.1-.2-.2-.5-.2-.8v-3.2h.9c.6 0 1.1-.1 1.4-.3.3-.2.4-.5.4-.8 0-.2-.1-.4-.2-.5-.1-.1-.3-.2-.6-.2h-1.9v-1.5c0-.3-.1-.5-.2-.6-.2-.2-.4-.2-.6-.2-.2 0-.4.1-.6.2-.2.1-.4.3-.6.5l-.8 1c-.2.2-.3.4-.4.4-.2.2-.3.2-.4.2h-.4c-.2 0-.4.1-.6.2-.2.1-.2.3-.2.5s0 .3.1.4c.1.2.3.3.4.4zm15.6 7.2c.3 0 .6.1 1 .1 1 0 1.8-.2 2.5-.5s1.2-.8 1.6-1.4.6-1.2.6-1.9c0-.6-.1-1.2-.4-1.7-.3-.5-.7-1-1.3-1.5-.6-.5-1.5-.9-2.7-1.2-.4-.1-.7-.2-1-.4-.3-.1-.5-.3-.6-.5-.1-.2-.2-.4-.2-.6 0-.3.1-.5.4-.7.2-.2.6-.3 1-.3s.8.1 1.2.3c.4.2.8.4 1.2.7.4.3.7.7.9 1.2.3.5.6.7 1.1.6.3-.1.5-.2.6-.4.1-.2.1-.5.1-.8l-.7-2.3c-.1-.5-.3-.8-.5-1-.2-.2-.4-.3-.6-.3-.2 0-.3 0-.4.1-.1.1-.2.2-.3.2-.1.1-.2.1-.4.1s-.4 0-.6-.1c-.2-.1-.5-.1-.8-.2-.3-.1-.7-.1-1.2-.1-.9 0-1.7.2-2.4.5s-1.2.8-1.5 1.4c-.4.6-.5 1.2-.6 2 0 .7.1 1.3.4 1.8.3.6.8 1.1 1.5 1.5.7.5 1.7.9 2.9 1.2.4.1.7.2.9.4.2.1.4.3.5.4.1.2.1.3.1.5 0 .3-.1.6-.4.8-.3.2-.6.3-1.1.3-.4 0-.7-.1-1.1-.2-.3-.1-.7-.3-.9-.5-.3-.2-.6-.6-.8-1-.3-.5-.8-.7-1.3-.6-.2.1-.4.2-.5.4-.1.2-.1.4-.1.6l.5 2.2c.1.3.2.6.3.7.1.1.3.2.6.2h.3c.1 0 .2-.1.3-.1.1 0 .2-.1.3-.1h.4c.1 0 .3 0 .5.1.2 0 .4 0 .7.1zm16.3-6.5c-.4-.7-1-1.2-1.7-1.6-.7-.4-1.6-.6-2.6-.6s-1.9.2-2.6.6c-.8.4-1.3.9-1.8 1.6-.4.7-.6 1.4-.6 2.2 0 .9.2 1.7.6 2.4.4.7 1 1.2 1.7 1.6.7.4 1.6.6 2.6.6s1.9-.2 2.6-.6c.8-.4 1.4-.9 1.8-1.6.4-.7.6-1.4.6-2.2 0-1-.2-1.8-.6-2.4zm-3.3 4.4c-.1.2-.2.4-.4.4-.2.1-.4 0-.6-.1-.2-.1-.4-.4-.6-.8-.2-.4-.4-.8-.5-1.4-.2-.6-.2-1.1-.2-1.5 0-.4.1-.7.2-1 .1-.2.2-.4.4-.4.2-.1.4 0 .6.1.2.2.4.4.6.8.2.4.4.8.5 1.4.1.6.2 1 .2 1.5 0 .4-.1.7-.2 1zM38.4 66.3l-.3-.1c-.1-.2-.2-.2-.3-.3-.1-.1-.1-.3-.1-.5l-.4-6.7c0-.2 0-.4.1-.5.1-.1.2-.2.4-.3l.3-.1c.2-.1.3-.2.4-.4s.2-.3.2-.6-.1-.5-.2-.6c-.2-.2-.4-.2-.8-.2h-3.1c-.5 0-.9.1-1.2.4-.3.2-.5.7-.8 1.3l-2 5-1.9-5.1c-.2-.6-.5-1-.7-1.2-.3-.3-.7-.4-1.2-.4h-3c-.7 0-1 .3-1 .9 0 .2 0 .4.2.6.1.2.2.3.4.4l.3.1c.1.1.3.2.3.3.1.1.1.3.1.5l-.6 6.7c0 .2-.1.4-.1.5l-.3.3-.2.1c-.2.1-.4.2-.5.4-.1.1-.2.3-.2.6s.1.5.2.6c.2.2.4.2.8.2h2.3c.3 0 .6-.1.8-.2.2-.2.2-.4.2-.7 0-.2 0-.4-.1-.5l-.3-.3-.3-.2c-.1-.1-.3-.2-.4-.3-.1-.1-.1-.3-.1-.5l.4-4.8 2.2 5.8c.2.5.4.8.5 1 .2.2.3.4.5.4.2.1.4.1.6.1.3 0 .6-.1.8-.3.2-.2.4-.6.7-1.2l2.3-5.8.3 4.8c0 .2 0 .4-.1.5-.1.1-.2.2-.4.3l-.1-.1c-.4.2-.6.5-.6.9 0 .3.1.5.2.6.2.2.4.2.8.2h4.5c.3 0 .6-.1.8-.3.2-.2.2-.4.2-.7 0-.2 0-.4-.1-.6-.1.2-.3 0-.4 0zm11.6.4l-.1-.1c-.1-.1-.1-.2-.2-.3 0-.1-.1-.3-.1-.6v-5.4c0-.2-.1-.4-.2-.6-.1-.1-.3-.2-.5-.2s-.4 0-.6.1c-.2.1-.4.1-.7.2l-1.8.7c-.5.2-.7.4-.7.8 0 .2 0 .3.1.4l.3.3.1.1c.1.1.2.1.2.2.1.1.1.3.1.5v2.5l.1.1c-.2.2-.4.3-.5.3-.2.1-.3.1-.5.1-.3 0-.5-.1-.6-.3-.1-.2-.2-.5-.2-.8v-4.4c0-.2-.1-.4-.2-.6-.1-.1-.3-.2-.5-.2s-.4 0-.6.1c-.2.1-.4.1-.7.2l-1.8.7c-.5.2-.7.4-.7.8 0 .2 0 .3.1.4l.3.3.1.1c.1.1.2.1.2.2.1.1.1.3.1.5v2.8c0 .8.2 1.5.7 2 .4.5 1 .8 1.8.8.5 0 1-.2 1.6-.5.5-.3 1.1-.7 1.7-1.3 0 .4.2.8.5 1.1.3.3.7.5 1.1.5h1.9c.3 0 .5-.1.6-.2.1-.1.2-.3.2-.5s0-.3-.1-.4c-.2-.2-.3-.3-.5-.4zm9.7-1.7c-.1 0-.3.1-.7.3-.3.2-.6.3-.9.4-.3.1-.6.1-1 .1-.5 0-.9-.1-1.3-.3-.4-.2-.7-.5-.9-.9-.2-.4-.3-.9-.3-1.5 0-.4.1-.7.2-1 .1-.3.3-.4.4-.6.2-.1.4-.2.6-.2.3 0 .5.1.6.2.2.1.2.3.2.5v.3c0 .4.1.8.4 1.1.3.3.7.4 1.2.4.6 0 1-.1 1.3-.4.3-.3.5-.7.5-1.1 0-.5-.1-.9-.5-1.4-.3-.4-.7-.7-1.3-1-.6-.2-1.3-.4-2-.4-1 0-1.8.2-2.6.6-.7.4-1.3.9-1.7 1.6-.4.7-.6 1.5-.6 2.4 0 .8.2 1.6.6 2.2.4.6 1 1.1 1.7 1.5.7.4 1.5.5 2.4.5.8 0 1.5-.1 2.1-.4.6-.3 1.1-.6 1.4-1.1.3-.4.5-.9.5-1.4 0-.2 0-.4-.1-.5.1.1 0 .1-.2.1zm12.2 1.8l-.1-.1c-.1-.1-.1-.2-.2-.3 0-.1-.1-.3-.1-.6l-.3-3.4c-.1-.8-.3-1.5-.7-2-.4-.5-1-.8-1.8-.8-.5 0-1 .1-1.6.5-.4.2-.9.6-1.5 1.1v-5.3c0-.2-.1-.4-.2-.6-.1-.1-.3-.2-.5-.2s-.4 0-.6.1c-.2.1-.4.1-.7.2l-1.8.7c-.5.2-.7.4-.7.8 0 .2 0 .3.1.4l.3.3.1.1c.1.1.2.1.2.2.1.1.1.3.1.5l-.1 7.3c0 .3 0 .5-.1.6 0 .1-.1.2-.2.3l-.1.1-.3.3c-.1.1-.1.3-.1.4 0 .2.1.4.2.5.1.1.3.2.6.2h3.6c.5 0 .7-.2.7-.7 0-.3-.1-.5-.3-.7l-.1-.1c-.1-.1-.1-.2-.2-.3v-3.9c.2-.2.4-.3.5-.3.2-.1.4-.1.5-.1.3 0 .5.1.7.3.1.2.2.5.3.8l.2 2.5v.7c0 .1-.1.2-.2.3l-.1.1c-.2.2-.3.4-.3.7 0 .5.2.7.7.7h3.7c.3 0 .5-.1.6-.2.1-.1.2-.3.2-.5s0-.3-.1-.4c0 0-.2-.1-.3-.2zm3.7-11.5c-.8 0-1.3.2-1.7.5-.4.3-.5.8-.5 1.4v.5c0 .2.1.4.1.6l1 4.6c.1.3.2.6.4.7.2.2.4.2.6.2.3 0 .5-.1.7-.2.2-.1.3-.4.4-.7l1.1-4.6c0-.2.1-.4.1-.6v-.5c0-.6-.2-1.1-.5-1.4-.4-.3-1-.5-1.7-.5zm.9 9.4c-.3-.2-.7-.3-1.1-.3-.4 0-.7.1-1 .3-.3.2-.6.4-.7.8-.2.3-.3.7-.3 1 0 .4.1.7.3 1 .2.3.4.6.7.8.3.2.7.3 1 .3.4 0 .7-.1 1.1-.3.3-.2.6-.4.7-.8.2-.3.3-.7.3-1 0-.4-.1-.7-.3-1.1-.1-.2-.4-.5-.7-.7z"/></svg>