<svg xmlns="http://www.w3.org/2000/svg" viewBox="0 0 660 100"><path fill="#FBA900" d="M77.123 21.981c1.885 2.86 4.994 4.264 8.06 5.543 1.136.474 2.383.723 3.694.623 1.585-.12 3.187-.028 4.781-.028 2.157 0 4.315-.016 6.472.01.598.007.842-.189.796-.791-.036-.465.001-.934-.009-1.402-.023-1.15-1.036-1.708-2.278-1.474a16.819 16.819 0 0 1-3.544.257c-.784-.021-1.566-1.006-1.479-1.77.111-.966-.39-1.974.408-2.931.305-.366.084-1.219.002-1.837-.067-.51-.426-1.008-.401-1.498.049-.964-.131-1.888.402-2.919.388-.749-.282-2.022-.415-3.07-.042-.331.067-.711.203-1.028.525-1.224.551-2.37-.062-3.62-.4-.816-.259-1.681.481-2.488.77-.839 1.807-1.035 2.469-.576 1.006.697 1.969.315 2.937.409.732.071 1.146-.448 1.277-1.157.271-1.464-.341-2.174-1.958-2.182-3.752-.017-7.504-.011-11.255.002-.444.002-.956-.01-1.321.191-2.861 1.578-6.102 2.565-8.213 5.32-.693.905-2.375 3.271-2.603 3.979-.783 2.434-1.886 4.843-.562 7.435-.378 2.113 1.148 3.53 2.118 5.002zm9.698-10.142c.071-2.149-.019-4.303.03-6.453.025-1.087 1.184-1.941 2.496-1.969 1.404-.03 1.422-.03 1.429 1.262.013 2.432.004 4.864.004 7.296 0 2.245-.034 4.491.019 6.734.019.783-.286 1.603.45 2.346.829.837-.904 1.915.092 2.85-.264.265-.482.666-.798.771-1.739.577-3.421-.321-3.673-2.082-.203-1.415.2-2.914-.596-4.253.979-2.099.475-4.328.547-6.502zm394.791 77.43c-1.083-.332-1.798-1.122-2.171-2.293-.311-.975-1.018-1.817-1.409-2.775-.879-2.158-1.924-4.293-2.438-6.543-.744-3.253-2.422-6.109-3.455-9.227-.348-1.051-1.506-1.458-2.327-1.472-.791-.013-1.693.754-1.997 1.71-.734 2.313-2.059 4.414-2.684 6.719-.335 1.235-1.138 2.129-1.525 3.314-1.013 3.103-2.048 6.235-3.689 9.116-.347.608-.53.865-1.271.99-1.057.178-1.49 1.338-1.139 2.392.254.763 1.233 1.305 2.03.782 1.078-.708 2.154-.236 3.208-.422 1.105 1.237 1.912.019 2.731-.411.751-.394.632-.825-.144-1.281-.565-.332-1.444-.659-1.545-1.126-.155-.713-.286-1.548.253-2.376.444-.682.951-1.454.836-2.466-.086-.762.464-1.326 1.365-1.324 2.06.005 4.121-.015 6.181.021.288.005.701.192.837.423.797 1.349 1.675 2.666 1.723 4.33.036 1.247.03 2.378-1.559 2.701-.246.05-.41.498-.612.762.365.249.713.68 1.097.714 1.115.097 2.245.034 3.369.034 1.311 0 2.63.081 3.931-.035.635-.057 1.118-.546 1.098-1.34-.013-.515-.093-.733-.694-.917zm-9.559-10.336c-.572.635-1.009 1.62-2.179 1.408-.36-.065-.742-.01-1.114-.01-.372 0-.754.05-1.112-.019-.208-.04-.544-.283-.537-.419.042-.796-.111-1.841.33-2.324.723-.793.75-1.575.786-2.493.039-.994.549-1.473 1.502-1.455.248.005.721.371.699.512-.206 1.36.764 2.297 1.163 3.431.167.472.621 1.192.462 1.369zM106.736 7.248c.133-.253.216-.555.409-.749.313-.316.659-.706 1.059-.812 2.15-.573 4.232-1.458 6.566-1.174 1.561.19 1.913.381 1.918 1.966.016 4.955-.04 9.91.041 14.864.018 1.11-.382 1.147-1.282 1.199-1.466.085-1.766.829-.929 1.995.39.543.876.869 1.645.799 1.023-.093 2.062-.023 3.093-.023 1.032 0 2.064.021 3.095-.006 1.077-.028 1.567-.447 1.666-1.351.13-1.192-.141-1.618-1.291-2.01-.329-.112-.657-.268-.996-.304-1.142-.123-1.384-.995-1.05-1.735.843-1.866.228-3.813.565-5.668.334-1.844-1.257-3.617-.064-5.446.103-.157.004-.602-.155-.745-.687-.619-.316-1.396-.374-2.095-.074-.896.521-1.326 1.317-1.392.629-.052 1.403-.131 1.879.169.739.465 1.223.332 1.968.04 1.541-.604 2.183-.305 3.269 1.118.363.475.656.284 1.134.098 1.306-.506.589-2.493 2.138-2.762.064-.011.063-.327.113-.495.14-.468.376-.928.406-1.401.019-.303-.185-.711-.422-.923-.691-.615-1.455-.428-2.233-.09-1.498.65-3.051 1.051-4.709.859-1.426-.166-2.941.415-4.282-.544-.186-.133-.56-.068-.829-.011-3.705.781-7.261.954-9.609-.133-.884-.409-1.226-.263-1.847.117-1.059.646-2.997 4.049-2.953 5.272.007.187-.071.422.015.551.201.3.48.551.729.822zM17.475 56.487c.345-.997-.771-1.706-1.312-1.836-.973-.234-.81-.737-.881-1.36-.208-1.839.494-3.598.488-5.373-.004-1.209.777-1.484 1.353-1.613 1.291-.29 2.64-.549 3.98.175.604.326 1.069.457.974 1.274-.061.521-.098 1.262.2 1.564.738.748-.76.972-.25 1.632.184.238-.086.911.1 1.048 1.267.928-.08 1.626-.264 2.322-.166.624-1.006 1.057-1.502 1.616-.176.198-.371.62-.279.76.177.273.545.579.845.591 1.497.059 3.002-.036 4.496.053.776.046 1.295-.26 1.622-.823.382-.655-.336-.938-.658-1.341-.505-.632-1.415-1.254-1.432-1.898-.035-1.319-.321-2.633.307-4.042.858-1.927-.981-4.457-2.76-5.475-1.861-1.066-3.267-.026-4.844.282-.836.164-1.594.723-2.43.889-.938.186-1.597-.62-2.39-.971-.788-.349-1.83-.858-2.499-.607-1.894.711-3.624.562-5.478-.039-1.057-.343-2.036.47-3.015.81-.504.175-.921.883-1.141 1.442-.085.217.498.678.744 1.049.141.213.187.49.33.702 1.145 1.696.252 3.6.573 5.373.188 1.04-.791 1.395-1.051 2.094-.263.709-1.171 1.447-.591 2.208.271.355 1.174.249 1.795.314.371.039.749.007 1.124.007.75 0 1.507-.067 2.248.016 1.018.114 1.083-.484.951-1.178-.112-.591-.328-1.168-.556-1.729-.247-.607-1.065-1.167-.064-1.81-.907-.709-.253-1.333.042-2.04.166-.398.22-1.068-.007-1.36-.581-.748-.377-1.299-.209-2.164.277-1.427 1.416-.987 2.055-1.26 2.02-.866 4.203.641 4.375 2.848.079 1.021-.029 2.056.023 3.081.077 1.511.09 2.972-1.411 3.908a.642.642 0 0 0-.198.197c-.394.631.045 1.476.789 1.486 1.218.017 2.437-.013 3.655.01.851.015 1.834.09 2.153-.832zm279.484-2.59c-.002-1.496.064-2.996-.026-4.487-.048-.788.356-1.217.862-1.613.409-.32.88-.58 1.356-.792.394-.176.866-.404 1.253-.332 1.687.313 3.252 2.257 3.308 4.045.038 1.215-.077 2.439.035 3.644.083.886-.344 1.405-.933 1.866-.336.263-.846.333-1.124.632-.204.219-.223.673-.2 1.014.013.196.271.534.424.537 1.97.037 3.943.068 5.909-.018.334-.014.751-.534.922-.913.09-.2-.196-.675-.432-.899-1.877-1.785-2.113-2.596-1.421-4.968.124-.424.213-.882.193-1.318-.058-1.25.193-2.034 1.521-2.767 1.699-.936 2.239-1.214 3.512-.121.926.795 1.286 1.683 1.2 2.893-.099 1.396-.029 2.804-.021 4.207.006 1.023.113 2.057-1.332 2.296-.18.03-.337.765-.315 1.164.009.17.501.441.779.448 1.688.042 3.378.031 5.067.016.737-.006 1.173-.869.767-1.493-.1-.153-.238-.341-.397-.388-1.192-.357-1.301-1.231-1.204-2.277.069-.742.013-1.495.013-2.243 0-1.216-.019-2.432.005-3.647.031-1.535-.828-2.878-1.993-3.309-2.138-.79-4.546-1.473-6.611.35-.996.879-1.874.944-2.906.16a3.7 3.7 0 0 0-1.157-.592c-1.144-.34-2.107-.895-3.512-.116-1.831 1.014-1.976.735-4.145-.215-.281-.123-.881-.181-.919-.094-.494 1.163-1.825.707-2.563 1.366-.294.262-.83.383-.947.686-.205.529.062 1.002.511 1.451 1.728 1.728 1.704 1.752 1.704 3.727 0 1.122-.006 2.244.003 3.367.004.576.073 1.124-.828 1.06-.283-.02-.575.458-.894.506-.754.113-.49.652-.528 1.055-.067.708.439.656.912.654 1.595-.006 3.191.012 4.786-.012.402-.006 1.043.247 1.035-.504-.004-.419-.104-.936-.363-1.236-1.28-1.485-1.305-1.465-1.306-2.79zm-110.97-39.274c1.631.568 1.658.548 1.678 1.913.023 1.495-.022 2.991.015 4.485.024.985-.024 1.845-1.265 2.054-.704.118-.452.738-.396 1.12.031.214.449.522.701.531 1.499.05 3 .041 4.5.019 1.062-.016 1.501-.83.677-1.581-.932-.85-.827-1.771-.845-2.765-.011-.654-.002-1.308-.002-1.962 0-1.215-.031-2.431.026-3.643.012-.244.316-.542.561-.698 1.87-1.189 3.561-.594 5.204.546 1.064.738 1.209.917.684 2.215-.33.816-.369 1.499-.002 2.295.64 1.39.516 2.656-.825 3.63-.225.163-.453.362-.588.597-.207.359-.571.879-.449 1.125.283.574.935 1.176 1.572.774 1.298-.82 2.671-.399 4.008-.531.403-.04 1.041.253 1.054-.489.007-.417-.074-1.032-.35-1.224-1.351-.942-1.437-2.245-1.331-3.685.069-.929.102-1.878-.007-2.8-.177-1.494.473-2.247 1.796-2.907 1.303-.65 2.131-.054 3.217.389.979.399 1.23.925 1.214 1.849-.031 1.775-.006 3.551-.01 5.326-.003 1.18.013 1.205-1.239 2.235-.544.448-.322.74.094.989.289.174.655.301.989.308 1.5.032 3 .025 4.5.008.567-.006 1.02-.896.721-1.393a1.19 1.19 0 0 0-.394-.395c-1.347-.791-1.357-2.062-1.301-3.397.051-1.213-.072-2.436.03-3.642.167-1.982-.947-3.3-2.334-4.34-.717-.538-1.797-.606-2.721-.858-.748-.204-1.123.505-1.668.712-1.404.531-2.661 1.409-4.473.491-2.198-1.114-3-.834-6.621-.096-.353.072-.872.14-1.087-.048-1.563-1.368-2.828.221-4.228.356-1.089.105-1.098 1.207-1.644 1.811-.038.04.296.592.539.676zm218.565 33.378c.308-1.911-1.318-2.558-2.417-3.421-1.458-1.145-2.915-.993-4.377.146a6.803 6.803 0 0 0-.996.99c-.681.807-1.142.236-1.551-.263-.269-.329-.379-.783-.625-1.136-.118-.17-.465-.386-.571-.329-1.23.666-2.237 1.84-3.862 1.584-.109-.017-.262.245-.395.377-.265.265-.616.488-.77.807-.123.256-.135.74.029.923.417.464.903.954 1.464 1.181.946.383 1.127 1.034 1.122 1.929-.023 3.836-.034 7.672.005 11.507.012 1.185-.001 2.181-1.516 2.466-.384.072-1.064.647-.669 1.287.261.421.61.916 1.335.827.74-.091 1.5-.02 2.251-.02 1.033 0 2.073.077 3.095-.027.671-.068 1.179-.542 1.106-1.313-.029-.31-.157-.733-.385-.88-.573-.369-1.515-.456-1.778-.942-.314-.58-.001-1.466-.095-2.203-.088-.684-.408-1.335-.525-2.018-.095-.551-.115-1.089.794-1.061 1.18.037 2.296.258 3.446.494.833.171 1.916-.321 2.798-.606 1.045-.337 2.111-1.204 2.721-2.132.741-1.128 1.203-2.527 1.441-3.869.27-1.508.182-3.091-1.075-4.298zm-3.435 7.952c-1.135.766-4.655.045-5.5-1.089-1.02-1.369-1.535-3.581-1.187-5.351.063-.319.281-.711.547-.869.889-.528 1.794-1.077 2.765-1.404.941-.317 1.805.382 2.355.943 1.304 1.331 2.707 2.736 2.145 4.905.292 1.223-.121 2.186-1.125 2.865zM295.286 86.296c-.022-2.168-.524-4.166-1.511-6.11-.472-.929-.922-1.831-1.928-2.066-1.255-.293-2.448-1.06-3.893-.394-.756.348-1.745.259-2.623.222-.157-.007-1.157-.433-.358-1.16.202-.183.135-.684.153-1.04.114-2.225-.491-4.566 1.112-6.553.137-.17-.024-.553.026-.824.149-.81-.402-1.289-.969-1.459-.413-.124-1.132.11-1.447.439-.768.803-1.643 1.562-2.672 1.68-.883.102-1.287.592-1.834 1.055-.336.284-.455.483-.036.808.367.285.636.887 1.007.94 1.616.233 1.443 1.37 1.439 2.478-.009 3.268.048 6.538-.021 9.805-.045 2.128.734 4.514-1.65 6.052-.306.197.067 1.318.412 1.384 1.044.201 2.092.379 3.518.634.503-.188 1.36-.411 2.118-.816.869-.464.983-1.1.152-1.694-1.531-1.094-1.11-2.591-1.14-4.026 1.23-.694.178-1.416-.039-2.052-.375-1.099.037-2.694 1.001-3.27h2.344c1.567-.053 2.527 1.141 2.771 2.228.305 1.36.97 2.719.7 4.231-.184 1.031.226 2.165-1.335 2.609-.437.124-.805 1.291-.79 1.97.015.667 1.057.95 2.036.475.653-.316 1.091-.33 1.753-.046 1.137.488 2.069.091 2.687-.979.112-.194.134-.656.025-.726-1.515-.965-.995-2.471-1.008-3.795zm-36.54 1.857c-.651-.391-1.82-.195-1.799-1.501.047-2.986-.095-5.979.046-8.959.138-2.91-.618-5.871.484-8.748.126-.329-.329-.987-.665-1.357-.415-.457-.784-.053-1.147.257-.328.281-.74.462-1.111.694-.892.559-1.794 1.103-2.668 1.689-.818.547-.824 1.724.068 2.219 1.28.71 1.825 1.696 1.635 3.13-.049.367.018.748-.012 1.119-.083 1.014-1.071 1.841-1.867 1.322-.802-.523-1.541-.439-2.704-.524-.271.037-.983-.034-1.504.247-.855.461-1.69 1.059-2.336 1.775-.499.553-.728 1.364-1.019 2.083-1.018 2.516-1.017 4.988.428 7.361.412.677.845 1.35 1.349 1.96.654.793 1.355 1.35 2.59 1.253 1.349-.106 2.433-.505 3.353-1.439.396-.401.696-.29 1.179-.048.663.332.221 1.469 1.32 1.467.94-.002 1.176-.803 1.784-1.154.374-.216.801-.343 1.163-.575.597-.383 1.218-.76 1.719-1.25.366-.355.27-.686-.286-1.021zm-6.321-.708c-1.043 1.028-2.134.932-3.254.53-2.255-.808-3.758-4.145-2.906-6.247.649-1.603 3.886-2.513 5.344-1.343 1.186.951 2.612 1.954 1.907 3.846.313 1.338-.144 2.281-1.091 3.214zm378.87-72.872c1.048.167 1.201.889 1.558 1.608 1.271 2.561 2.167 5.27 3.211 7.92.645 1.636 1.603 2.308 3.167 1.639.539-.23 1.42-.304 1.472-1.579.056-1.375.999-2.72 1.581-4.067.248-.574.643-.512 1.076-.164.465.374.54.848.653 1.423a16.97 16.97 0 0 0 1.16 3.713c.546 1.207 2.806 1.216 3.2.006.833-2.556 3.034-4.542 2.987-7.485-.01-.636.206-1.677 1.378-1.928.539-.115.893-.929 1.415-1.313.772-.567.473-1.337.491-2.039.004-.152-.328-.443-.511-.448-1.498-.037-3.001-.071-4.495.014-.376.021-.895.408-1.035.754-.113.279.133.883.411 1.111 1.332 1.09 1.701 2.112.164 3.359-.244.198.037.95-.17 1.302-.398.675-.865 1.55-1.505 1.776-.639.226-1.267-.449-1.323-1.333-.014-.216-.389-.386-.512-.621-.4-.766-.776-1.546-1.132-2.333-.572-1.265.861-1.7 1.243-2.562.39-.88.02-1.358-.369-1.392a35.578 35.578 0 0 0-5.037-.063c-.82.046-1.014 1.17-.412 1.873.41.479 1.06.94 1.138 1.476.173 1.189.127 2.426.028 3.632-.065.79-1.011 1.404-1.868 1.408-.823.004-1.495.183-1.603-1.195-.067-.858-.355-2.04-1.276-2.836-.361-.312-.364-1.456-.082-1.983.375-.699 1.392-1.354.81-2.078-.358-.446-1.53-.249-2.338-.324-.279-.026-.562-.004-.843-.004-.843 0-1.695.073-2.528-.018-1.06-.116-.892.54-.972 1.197-.096.79.353 1.471.868 1.554zM344.223 57.112c.194-.403.519-.464.631.143.045.245.223.467.348.695.691 1.267.986 1.355 2.118.531a45.29 45.29 0 0 0 2.547-1.993c.208-.175.448-.586.374-.767-.182-.444-.595-1.191-.816-1.158-1.477.222-1.198-.769-1.199-1.561-.009-4.023.061-8.047-.035-12.068-.039-1.659.042-3.334.772-4.739.552-1.062-.262-1.212-.595-1.282-.572-.12-1.314-.03-1.822.257a28.885 28.885 0 0 0-3.519 2.37c-.687.536-.659 1.22.15 1.486 1.742.572 1.749 1.829 1.67 3.236-.031.56.006 1.123-.008 1.684-.022.89-.8 1.51-1.34.957-.892-.912-2.235.031-2.945-1.004-1.028.463-2.177.769-3.049 1.435-.813.621-1.982 1.231-1.677 2.645-1.098.99-.315 2.287-.571 3.404-.357 2.779.745 4.986 2.812 6.688.622.512 1.558 1.333 2.386.87 1.224-.683 2.995-.225 3.768-1.829zm-2.095-2.218c-.309-.149-.65-.393-.953-.363-.817.081-1.436-.138-1.915-.81-.56-.787-1.161-1.531-1.188-2.578-.037-1.482-.156-2.976 1.376-3.888.512-.305 1.058-.553 1.17-.61 2.392 0 3.419.551 3.959 2.311.568 1.849 1.536 3.825-.518 5.527-.637.529-1.171.778-1.931.411zm14.739 33.208c-1.31-.692-1.318-.694-1.32-2.21-.005-4.395-.019-8.79.011-13.185.007-.97-.272-1.987.514-2.885.232-.265.103-.916.022-1.369-.161-.889-1.04-1.161-1.809-.628-1.163.806-2.269 1.752-3.543 2.314-.634.28-.893.424-.834 1.068.054.592-.156 1.066.841 1.361 1.471.434 1.403.669 1.415 2.101.005.561.019 1.123-.003 1.683-.061 1.607-.586 1.903-2.285 1.426-2.679-.752-5.68.102-6.684 2.848-.483 1.321-.528 2.8-.772 4.208l.167.033c0 .374.037.752-.006 1.121-.281 2.422 1.299 3.982 2.639 5.64.2.247.6.46.913.468 1.348.035 2.684.135 3.864-.863 1.113-.941 1.186-.856 2.135.012 1.04.95 1.014.908 2.166.176.652-.414 1.398-.9 2.122-.935 1.261-.061.846-1.206 1.309-1.753.397-.464-.516-.448-.862-.631zm-5.459-.588c-1.193.562-2.378 1.093-3.8.388-1.772-.879-2.816-2.113-2.762-4.132.019-.726-.168-1.636.195-2.131.553-.756 1.432-1.393 2.308-1.756.558-.231 1.458-.051 2.031.261.929.507 1.892 1.145 2.502 1.974.421.572.271 1.561.377 2.363l-.094.012c0 .186.005.372-.001.558-.029.893.316 1.957-.756 2.463zm-230.772-3.277c0-1.171.274-2.228-.077-3.003-.35-.774-.995-1.356-1.195-2.331-.111-.544-.878-1.217-1.851-1.436-2.098-.471-2.07-.597-4.767.34-.935.325-1.724-.03-1.654-.937.208-2.67-.822-5.488.989-7.99.442-.611-.474-2.295-1.21-2.475-.109-.027-.266.114-.393.19-1.425.855-2.86 1.694-4.267 2.577-1.019.639-1.078 1.747.042 2.066 1.526.435 1.434 1.389 1.431 2.507-.013 4.014-.005 8.028-.005 12.042 0 1.643 0 1.643-1.439 3.558-.587.781-.287 1.522.682 1.648.276.036.654-.112.828.024 1.462 1.141 2.891.328 4.323-.024.54-.133.921-.998.634-1.427a1.977 1.977 0 0 0-.593-.591c-1.289-.774-1.495-2.326-.953-3.145.899-1.359-.002-2.145-.292-3.163-.056-.196-.195-.435-.133-.587.294-.719.505-1.549 1.018-2.076.43-.442 1.551-.904 1.818-.687.853.691 2.223.281 2.797 1.499.457.969.995 1.857.901 2.998-.077.927-.097 1.874.004 2.797.142 1.306-.21 2.298-1.264 3.145-.703.565-.336 1.639.571 1.782.527.083 1.27.151 1.597-.136.691-.606 1.024-.337 1.632.085.285.198 1.031-.085 1.472-.326.695-.381.586-1.066.349-1.691-.667-1.765-1.198-3.55-.995-5.233zm397.14 3.476c-1.188-.089-1.135-.551-1.128-1.368.024-3.175-.025-6.351.021-9.525.038-2.61-.387-5.267.829-7.781.171-.353-.178-1.116-.511-1.488-.194-.216-1.02-.217-1.248.005-1.115 1.088-2.547 1.527-3.895 2.166-.986.468-1.095 1.216-.217 1.901 1.389 1.083 1.916 2.397 1.662 4.1-.068.457.002.933-.013 1.399-.032 1.051-.088 1.102-1.067.733-1.55-.584-3.201-1.053-4.711-.281-1.449.741-3.287 1.363-3.232 3.557-1.136.981-.29 2.287-.637 3.451.087.962.108 1.975.298 2.954.094.484.431.971.778 1.346a42.526 42.526 0 0 0 2.786 2.767c.299.269.944.565 1.174.426.838-.504 1.933-.294 2.664-1.072.42-.447.988-.758 1.489-1.13.349.475.687.958 1.05 1.421.172.219.379.418.599.589.091.071.301.111.384.056 1.18-.778 2.403-1.504 3.5-2.387.941-.759.712-1.742-.575-1.839zm-6.458.389c-.966.119-2.131-.225-2.997-.723-.996-.572-1.652-1.622-1.793-2.844-.064-.551-.022-1.115-.009-1.673.049-2.013 1.09-3.069 3.336-3.097 1.227.028 2.482.427 3 2.088.229.732.73 1.381.949 2.115.456 1.52-.885 3.936-2.486 4.134zM63.333 77.014c-1.479-.108-2.976-.024-4.464.049-.425.021-.623.847-.329 1.171.126.138.284.251.393.4.472.644 1.056 1.251 1.325 1.973.087.234-.772.723-1.002 1.19-.456.928-.765 1.926-1.156 2.887-.13.32-.29.642-.503.911-.445.562-.766.449-1.196-.161-.661-.938-.362-2.342-1.533-3.036-.147-.087-.112-.5-.14-.765-.103-.951.059-1.734.828-2.483.687-.669.406-1.204-.602-1.681-1.285-.608-3.497-.713-4.737-.226-1.149.452-1.144.448-.296 1.39.302.335.771.667.829 1.05.313 2.097-.256 4.12-.717 6.14-.053.231-.35.492-.588.565-.141.043-.454-.212-.575-.405a112.512 112.512 0 0 1-2.026-3.369c-.387-.668-1.063-1.39-1.004-2.033.063-.686.833-1.311 1.304-1.957.405-.556.357-.753-.349-1.157a3.412 3.412 0 0 0-.861-.346c-.862-.217-1.726-.104-2.595-.162-.493.001-.991-.04-1.481-.022a4.945 4.945 0 0 0-.487.041c-.776.11-1.269.53-1.312 1.433-.043.917.629.606 1.055.837.676.367 1.567.93 1.72 1.565.799 3.311 2.703 6.21 3.451 9.526.052.232.177.565.354.634 1.457.571 2.699-.357 3.646-1.905.753-1.232 1.007-2.589 1.619-3.832.285-.578.654-.576 1.058-.194.254.24.515.537.622.858.414 1.235.756 2.493 1.145 3.736.455 1.454 1.801 1.927 2.896.959.447-.396.912-.971 1.007-1.526.335-1.962 2.032-3.227 2.437-5.183.444-2.145 1.083-4.32 3.493-5.25.066-.025.089-.452-.01-.559-.373-.4-.785-1.032-1.219-1.063zm583.832-19.256c.413-.36.659-.655.771.194.042.316.366.589.537.895.419.753.971.962 1.612.494.945-.69 1.833-1.459 2.764-2.17.984-.752 1.125-1.493-.247-2.025-1.32-.512-1.313-1.301-1.311-2.324.006-4.023.028-8.046-.013-12.069-.012-1.189.088-2.32.567-3.421.234-.539.343-1.131.509-1.7-.721-.071-1.496-.342-2.151-.166-.923.247-1.82.71-2.465 1.518-.446.559-1.089 1.005-1.371 1.626-.097.214.671.774.975 1.222.647.95.641 2.039.571 2.882 0 .903.009 1.558-.002 2.213-.012.7-.472.716-.929.497-1.515-.728-3.051-1.065-4.694-.462-1.481.543-2.788 1.392-3.199 2.948-.503 1.906-1.021 3.848-.753 5.87.229 1.726 2.053 4.194 4.022 5.598 1.108.791 1.796-.649 2.796-.391 1.042.266 1.414-.709 2.011-1.229zm-2.232-2.219c-.682-.598-1.51-.134-1.993-.682-.512-.582-.84-1.335-1.385-1.877-.651-.649-.315-1.384-.397-2.082a3.397 3.397 0 0 1 0-.837c.23-1.723.885-2.806 3.006-2.854 2.186-.041 3.02.978 3.825 3.258.613 1.737.475 2.993-.645 4.368-.712.875-1.89 1.163-2.411.706zm-54.519-10.646c-1.172-.569-2.299-.495-3.457-.473-1.527.029-2.087 1.157-1.117 2.351.668.822.977 1.364.229 2.374-.474.64-.719 1.546-.744 2.501-.029 1.119-1.378 1.585-2.209.848-.519-.46-.955-.936-1.186-1.752-.453-1.597-.842-3.055.036-4.623.137-.245-.128-1.024-.369-1.111-.848-.307-1.761-.459-2.661-.595-.639-.097-1.187.03-1.766.51-.687.569-1.174 1.15-.646 1.523.237.168.417.346.555.534.092.125.164.254.221.386.314.727.165 1.552.198 2.353-.011.652.021 1.3-.089 1.935a3.73 3.73 0 0 1-.103.446 3.218 3.218 0 0 1-.344.768c-.422.686-.798 1.225-1.675 1.071-.705-.124-.975-.592-1.207-1.273-.334-.976-.444-2.002-1.024-2.949-.752-1.228-1.258-2.678.362-3.83.114-.081-.09-.607-.146-.925-1.676.377-3.193-.552-4.83-.592-.786-.019-1.337.317-1.586.872-.254.567-.114 1.225.504 1.712.844.665 1.573 1.319 2.054 2.458.805 1.904 1.851 3.71 2.465 5.713.328 1.07.766 2.114 1.235 3.133.376.818 1.2.906 1.924.708.695-.191 1.647-.204 1.88-1.108.392-1.524 1.179-2.882 1.702-4.346.158-.441-.336-1.301.595-1.198.4.044.778.637 1.091 1.039.517.664.593 1.45.59 2.283-.005 1.363.789 2.379 1.807 3.145.317.238 1.057.159 1.475-.041.477-.229.989-.686 1.177-1.164.823-2.092 1.693-4.189 2.221-6.363.293-1.205.739-2.165 1.588-3 .601-.591 1.318-1.115 1.741-1.814.221-.37.468-1.041-.491-1.506zM307.136 14.651c.387.336.955.673 1.052 1.099.606 2.645 1.973 4.992 2.851 7.525.569 1.639 1.146 2.083 2.722 2.038 1.279-.036 1.843-.549 2.351-2.126.372-1.155.707-2.325 1.141-3.456.297-.773.88-.807 1.308-.09.215.361.305.822.357 1.249.165 1.362.91 2.467 1.674 3.511.917 1.254 1.625 1.267 2.681.206.498-.501.998-1.077 1.264-1.715.864-2.077 1.761-4.139 2.321-6.341.281-1.106.468-2.594 2.259-2.478.15.01.379-.102.455-.227.552-.907-.167-2.473-1.209-2.554-.932-.072-1.875-.003-2.813-.019-.749-.013-1.699-.126-1.889.713-.111.492.411 1.255.846 1.707.507.526.932 1.22.573 1.689-.888 1.163-1.046 2.576-1.614 3.838-.359.798-.969.509-1.379.424-.352-.073-.671-.579-.894-.958-1.172-1.999-1.26-3.315-.328-6.209.127-.394.34-.432-.188-.664-1.751-.77-3.38-.48-5.197-.083-1.367.299-.789.68-.478 1.196.261.432.631.823 1.023 1.148.783.652.765 1.063.692 2.141-.109 1.6-.996 2.773-1.694 4.087-.31.584-.584.647-1.004.37-.383-.253-.928-.62-.964-.979-.197-1.989-2.351-3.578-.952-5.952.724-1.229.027-1.885-1.529-1.901-.563-.006-1.126-.001-1.689-.001-.844 0-1.69-.031-2.532.016-.32.018-.875.181-.897.337-.058.414-.016.966.228 1.271.381.476.978.777 1.452 1.188zm245.095 7.321c-2.034-.066-2.245-1.646-2.279-3.005-.04-1.595-.092-3.176.38-4.844.538-1.903.162-4.075.113-6.129-.039-1.635.013-3.242.955-4.651.355-.531.141-.805-.206-1.172-.449-.476-.767-.525-1.387-.126-1.162.748-2.454 1.294-3.686 1.935-.879.457-1.114 1.901-.277 2.187 1.171.401 1.28 1.121 1.242 2.103-.037.932-.034 1.869.002 2.801.024.612-.223.806-.812.776-.748-.038-1.731.295-2.206-.065-1.562-1.184-2.641.105-3.896.485-1.209.367-1.701 1.497-2.048 2.461-.475 1.322-.526 2.795-.758 4.203-.304 2.347.661 4.075 2.375 5.554.76.655 1.691 1.561 2.491 1.29 1.15-.39 2.583-.013 3.474-1.081.718-.861 1.415-.571 1.723.183.461 1.129.978 1.265 1.97.667 1.191-.717 2.457-1.308 3.648-2.024.146-.088.144-.669.009-.909-.164-.284-.536-.629-.827-.639zm-5.154-1.733c.162 1.256-.764 2.06-1.637 2.169-.935.117-2.012-.427-2.938-.868-.555-.264-.925-.898-1.403-1.34-1.393-1.288-.855-2.875-.555-4.329.256-1.24 1.406-1.774 3.08-1.789 1.899-.017 3.092 1.035 3.46 2.999.197 1.06 1.137 2.107-.007 3.158zm40.545 58.605c-1.886-1.421-3.683-1.775-5.595-.502-1.325.882-1.318.874-2.357-.047-.39-.346-.664-1.026-1.35-.734-1.629.694-3.248 1.423-4.476 2.765-.511.559-.407.91.308 1.128 2.211.675 2.211.675 2.217 2.769 0 .093.004.187 0 .28-.187 3.941-.386 7.882-.55 11.824-.023.542-.095.807-.727.899-.258.038-.446.652-.637 1.018-.427.818-.066 1.658.806 1.719 1.026.072 2.062.017 3.093.017.938 0 1.878.035 2.812-.021.286-.017.713-.223.798-.447.114-.299.075-.79-.113-1.035-.252-.329-.709-.503-1.078-.743-1.467-.956-2.234-2.257-2.164-4.054.06-1.545.012-1.549 1.706-1.559 1.031-.006 2.064-.033 3.094.006 1.586.061 2.703-1.21 4.199-1.442.248-.039.4-.723.588-1.113.339-.701.651-1.416 1.019-2.101.168-.312.639-.564.641-.846.029-2.798.557-5.679-2.234-7.781zm-.782 9.298c-.59 1.475-2.534 2.201-4.182 1.537-1.398-.563-2.396-1.669-3.278-2.793-.376-.479-.181-1.404-.3-2.744-.195-.702.402-1.593 1.287-2.543.789-.845 1.632-.686 2.527-.707.913-.021 1.733-.034 2.487.783 1.554 1.686 2.271 4.439 1.459 6.467zM182.007 47.926c.066.763.128 1.525-.4 2.356-.537.847-.216 1.976.803 2.624.442.281.916.511 1.352.8.424.281.654.635.06.978-.297.171-.649.246-.954.406-2.377 1.252-2.383 1.374-.2 3.13 1.188.956 1.174 1.13-.023 2.151-.497.424-.945.907-1.393 1.384-.29.309-.736.643-.76.99-.033.483.127 1.116.448 1.459.779.832 1.325 1.825 2.684 2.184a14.414 14.414 0 0 0 3.446.469c1.964 0 2.877-.183 4.017-.776.38-.198.786-.442 1.264-.739.99-.617 1.48-1.339 1.516-2.432.036-1.101.213-2.241-.99-2.962-.39-.234-.682-.635-1.001-.977-1.03-1.105-2.218-1.808-3.811-1.671-.619.053-1.253.145-1.788-.47-.217-.249-1.014-.059-.823-.726.113-.393.606-1.023.829-.984 1.777.311 2.737-1.155 4.085-1.743 1.658-.723 2.662-1.908 2.365-3.819-.178-1.147.254-1.948 1.123-2.631.438-.345.776-.814 1.207-1.171.435-.36.469-.588.027-1.014-.864-.832-1.121-.903-2.167-.237-2.13 1.355-2.438 1.444-4.216.033-1.471-1.167-2.822-.837-4.265-.137-1.479.715-2.598 1.625-2.435 3.525zm5.153 11.952c.513.127 1.047.189 1.575.237 1.873.169 3.033 2.086 2.187 3.742-.175.342-.671.647-1.066.722-.471.09-.964.063-1.456.044-.164-.006-.328-.012-.49-.012-.437-.012-.884.028-1.316.014a2.986 2.986 0 0 1-.836-.129 1.875 1.875 0 0 1-.388-.177 2.102 2.102 0 0 1-.688-.695c-.519-.813-.543-1.777.174-2.946.393-.64 1.503-.998 2.304-.8zm-1.865-13.374c.407-.508 1.767-.658 2.265-.225.776.674 1.552 1.38 2.166 2.194.286.379.189 1.044.202 1.134-.013 2.764-2.025 4.068-4.24 3.188-.16-.064-.285-.243-.399-.39-1.41-1.796-1.425-4.114.006-5.901zm206.164-29.192c.212 1.385.883 2.486 1.328 3.7.214.584.497 1.093.519 1.754.045 1.399.861 2.419 1.913 2.546 1.666.201 2.638-.379 3.134-1.904.215-.662.271-1.399.595-1.996.44-.814.52-2.269 1.619-2.179.998.081.994 1.369 1.223 2.313.28 1.156.317 2.485 1.458 3.325.872.642 2.253.731 2.657-.115.93-1.948 2.153-3.735 2.664-5.926.436-1.87.675-4.123 3.107-4.839.158-.047.269-.253.401-.386.636-.639.361-1.189-.382-1.802-.932-.769-1.924-.409-2.831-.526-.531 0-1-.007-1.469.002-1.126.022-1.462.495-1.044 1.499.166.399.322.838.606 1.145.612.661.519 1.249.067 1.942-.179.274-.294.734-.191 1.02.518 1.436-1.077 2.009-1.264 3.156-.02.124-.675.257-.986.183-.237-.057-.567-.439-.562-.67.027-1.254-.473-2.227-1.312-3.125-.719-.769-.684-1.644-.001-2.464.119-.143.29-.248.392-.401.613-.924.376-1.306-.688-1.94-1.073-.639-2.172-.308-3.239-.298-.64.006-1.276.495-1.914.767.332.664.578 1.817 1.012 1.892.981.169.376 1.239 1.087 1.4.076.017.172.357.116.484-.668 1.502-1.303 3.024-2.078 4.471-.393.733-1.103.703-1.512-.054-.739-1.369-1.447-2.773-1.974-4.231-.303-.838.138-1.702.451-2.572.449-1.247.049-1.569-1.255-1.657-.788-.053-1.707.372-2.316-.513-.616.804-1.504.425-2.284.543-.298.045-.723.217-.811.441-.117.297-.081.791.105 1.038.25.331.678.633 1.081.728 1.736.409 2.391 2.031 2.578 3.249zM331.408 5.677c.412.284 1.034.8.985 1.124-.308 2.049.628 3.941.621 5.937-.01 2.614-.043 5.229.015 7.841.029 1.277-.081 2.316-1.588 2.702-.301.077-.732.85-.626 1.05.221.416.724.84 1.18.939.716.154 1.49.041 2.239.041.937 0 1.884.081 2.805-.039.377-.049.894-.485.983-.836.079-.313-.27-1.007-.561-1.093-1.943-.575-1.998-2.066-1.452-3.441.354-.89.295-1.332-.076-2.174-.458-1.042-.257-2.442.527-3.3.412-.45 1.538-.252 2.342-.343.092-.011.189-.014.281 0 2.076.322 3.221.926 3.484 3.54.121 1.201-.028 2.428.037 3.638.045.835-.207 1.541-.965 1.758-.556.159-.922.323-.713.846.211.529.609 1.331 1.003 1.379 1.384.169 2.805.115 4.206.044.635-.032.98-1.001.694-1.648-.388-.876-1.045-1.647-.871-2.726.415-2.57-.839-4.9-1.187-7.365-.089-.632-1.016-1.611-1.579-1.626-1.806-.047-3.564-1.607-5.466-.129-.599.466-1.935-.331-1.867-1.042.26-2.722-1.025-5.738 1.504-8.063.347-.319.304-.808-.371-.984-.242-.063-.463-.407-.588-.672-.277-.586-.617-.55-1.067-.22-.643.472-1.273.973-1.959 1.374-.67.391-1.473.577-2.097 1.021-1.486 1.058-1.422 1.398.127 2.467zM204.187 78.119c-1.007-.323-2.05-.538-3.08-.79l-.048.194c-.562 0-1.136-.073-1.683.017-.869.142-1.162 1.153-.56 1.82.313.347.719.624.968 1.007.158.243.253.719.119.926-.646 1-1.167 2.009-.964 3.248-.756.219-.276 1.49-1.614 1.508-1.295.017-1.164-.934-1.626-1.435-.313-.339-.131-1.195-.459-1.448-1.524-1.179-.675-2.452-.221-3.651.487-1.286.582-1.474-.647-1.715-1.215-.238-2.548-.305-3.752-.064-1.56.312-1.577.715-.563 1.901.456.533.828 1.143 1.19 1.747.169.281.385.684.301.941-.401 1.229-.819 2.467-1.404 3.614-.189.371.051 1.163-.852 1.151-.867-.011-1.34-.352-1.629-1.139-.515-1.399-1.236-2.728-1.129-4.3.063-.929.049-1.869-.012-2.798-.018-.266-.325-.737-.494-.735-1.549.022-2.94-.786-4.549-.67-1.161.084-1.275.517-1.11 1.343.105.527-.516 1.264.563 1.574.904.259.708.665 1.905 2.035 1.002 1.147 1.291 2.551 1.78 3.775.527 1.318 1.612 2.565 1.42 4.205-.041.351.552 1.035.951 1.124.803.179 1.689.144 2.51.012.368-.059.823-.51.958-.883.294-.818.36-1.714.611-2.552.222-.741.516-1.472.883-2.151.143-.263.641-.574.862-.504.398.127.81.466 1.025.829.164.277-.07.764.05 1.095.562 1.55.722 3.314 2.181 4.411.251.189.79.393.923.278.698-.603 1.72-1.229 1.865-1.992.334-1.753 1.396-3.175 1.814-4.877a11.83 11.83 0 0 1 2.499-4.84c1.257.348.568-1.236 1.355-1.355-.109-.296-.152-.797-.337-.856zm-47.061 10.828c-1.034-.676-1.064-1.643-1.005-2.69.031-.559.006-1.121.006-1.682 0-.561.003-1.122 0-1.682-.014-2.5-1.197-3.845-3.663-4.883-1.373-.577-2.509-.608-3.842-.061-1.176.482-1.996-.101-2.061-1.322-.05-.932-.017-1.869-.008-2.804.015-1.702-.238-3.427.993-4.931.377-.461.269-1.196-.354-1.702-.594-.483-1.109-.466-1.738-.094-1.276.755-2.6 1.429-3.866 2.199-.942.573-.95 1.296.077 1.912.975.585 1.511 1.302 1.51 2.434-.005 4.954-.01 9.908.008 14.862.002.577-.146.865-.769.817-.457-.035-.957-.09-.936.632.016.558.058.813.777 1.118 2.03.86 3.812.747 5.576-.501.367-.259.43-.461.037-.804-1.32-1.151-1.42-1.179-1.286-2.484.158-1.54-.902-3.054-.043-4.593.064-.114-.005-.398-.111-.495-.484-.441-.695-.885-.087-1.359.488-.381.972-.898 1.534-1.028 1.568-.362 2.719.299 3.911 1.431 1.729 1.643 1.384 3.598 1.568 5.566.14 1.501-.952 1.71-1.794 2.332-.905.669-.447 1.095.298 1.957.825.954 1.451-.223 2.024.209 1.31.985 2.372-.532 3.607-.344.062.009.36-.625.296-.901-.096-.407-.33-.894-.659-1.109zm-75.909-.234a287.908 287.908 0 0 1-.569-7.063c-.12-1.856-1.503-3.344-3.239-4.182-1.659-.801-3.194-.569-4.596.121-1.031.507-1.323-.055-1.929-.492-.869-.627.119-1.089.242-1.261.534-.748.465-1.532.506-2.338.086-1.71-.314-3.46.528-5.115.177-.348.121-1.007-.108-1.318-.318-.433-.645-1.167-1.536-.541-1.435 1.008-3 1.829-4.449 2.818-.726.496-.693 1.049.147 1.334 1.701.577 2.001 1.698 2.086 3.35.228 4.445-.63 8.82-.602 13.241.006.876-.094 1.413-1.092 1.804-.924.362-.695.788.103 1.401.849.652 1.72.472 2.611.525.988-.018 1.933.037 2.892-.514.764-.439.713-.821.216-1.178-1.309-.941-1.519-2.196-1.382-3.664.073-.779.206-1.633-.497-2.272.765-.692.813-1.397.036-2.115.409-.65.693-1.685 1.254-1.866a6.178 6.178 0 0 1 3.29-.101c.63.162 1.139 1.069 1.552 1.735 1.026 1.654 1.238 3.496 1.173 5.419-.028.847-.249 1.542-1.03 1.717-1.491.334-.552 1.397-.571 2.021-.011.36.771 1.435 1.679.465.057-.061.375.167.58.188.727.072 1.462.185 2.185.144.682-.039 1.113-.889.873-1.571-.086-.243-.332-.453-.353-.692zm460.124-30.321c.429-.03.953-.522 1.172-.939.106-.201-.336-.775-.636-1.074-.226-.225-.854-.225-.904-.424-.301-1.201.277-2.552-.645-3.668-.092-.111-.089-.418 0-.542.754-1.055.461-2.263.587-3.415.042-.381.498-1.024.762-1.023 1.143.004 2.287-.475 3.446.397 1.019.766 1.665 1.433 1.413 2.778-.135.722-.035 1.49-.022 2.237.028 1.576.183 3.16-1.499 4.169-.414.249-.308.698.274 1.006 1.929 1.022 3.981.338 5.966.523.096.009.338-.318.308-.368-.35-.588.806-1.755-.816-1.921-.486-.05-.962-.752-.878-1.549.097-.924.023-1.866.023-2.8 0-.56-.088-1.138.016-1.678.338-1.749-.707-3.072-1.37-4.487-.581-1.24-2.011-.979-3.03-1.45-.896-.414-1.478-.389-2.175.226-.39.344-.919.529-1.317.865-.442.373-.84.403-1.16-.05-.858-1.216-1.793-.853-2.82-.254-.746.435-1.533.826-2.345 1.114-.683.242-.459.751-.406 1.131.031.218.44.545.682.547 1.25.01 1.607.718 1.528 1.794-.078 1.061.359 2.218-.558 3.131.618.872.228 1.704.07 2.629-.151.884-.851 1.156-1.189 1.769-.306.557.137 1.359.745 1.365 1.594.016 3.192.07 4.778-.039zM68.349 63.736c.028-.6.747-1.157 1.119-1.755.367-.59.784-1.175 1.008-1.821.285-.822.191-1.841.643-2.523.5-.753 1.008-1.364 1.204-2.333.16-.789 1.053-1.405 1.495-2.17.473-.818.901-1.691 1.167-2.593.585-1.981 1.464-3.689 3.365-4.748.309-.172.619-.805.529-1.108-.104-.35-.664-.82-.999-.8-.98.06-2.052-.469-2.944.31-.481.42-.799.179-1.168-.174-.461-.441-.808-.121-1.157.228-.345.346-.741.808-.23 1.121.545.334.068 1.245 1.091 1.353.734.077.591 1.396.162 1.469-.992.168-.721.768-.921 1.333-.343.97-.904 1.868-1.42 2.77-.306.535-1.013.477-1.156-.149-.337-1.473-1.072-2.733-1.786-4.031-.438-.796-.03-1.488.959-2.274.218-.173.301-.515.445-.779l-2.301-1.224c-.875 1.001-1.721.446-2.638.03-.383-.174-1.031-.183-1.353.035-.396.268-.664.822-.827 1.306-.156.464.147.645.625.932 1.139.684 1.965 1.611 2.357 3.105.426 1.626.949 3.379 2.28 4.651.176.168.348.468.328.69-.127 1.4.461 2.865-.965 4.122-.689.607-.964 1.798-1.613 2.662-.881 1.172-1.509 2.536-2.215 3.834-.471.867-.342 1.052.671 1.089.281.01.562.002 1.419.002.148-.024.954.034 1.543-.295.797-.446 1.233-1.206 1.283-2.265zm482.672 23.707c-.003-1.028-.001-2.055-.001-3.083 0-1.308-.026-2.616.009-3.923.024-.924-.272-1.409-1.205-1.858-.983-.473-2.148-.105-2.842-.569-1.449-.969-2.587-.313-3.707.286-.649.347-1.189.555-1.733.135-.857-.663-1.865-.497-2.639-.246-.884.287-1.647 1.059-2.357 1.731-.532.503-.165 1.452.619 1.5.761.046.931.295.912.986a75.287 75.287 0 0 0-.002 4.483c.038 1.217-.215 2.297-1.065 3.212-.203.219-.498.7-.441.757.41.416 1.09 1.163 1.332 1.05 1.534-.712 3.114-.12 4.635-.373.23-.038.527-.416.568-.672.062-.395.214-1.033-.547-.973-.797.063-1.196-.109-1.135-1.032.06-.911.229-1.988-.164-2.716-.644-1.19-.443-2.38-.295-3.485.111-.831.433-2.002 1.52-2.305 2.072-.579 3.526.16 4.315 2.267.426 1.138.627 2.372.828 3.579.24 1.439-.334 2.614-1.342 3.646-1.014 1.038-.924.98.297 1.738 1.991 1.235 3.737-.254 5.6-.353.139-.007.368-.241.378-.381.021-.315-.041-.908-.119-.916-1.668-.174-1.416-1.399-1.419-2.485zM96.962 55.263c.62-1.993 1.8-3.73 2.565-5.672.587-1.491 1.562-3.111 3.226-3.956.14-.071.261-.526.218-.556-.581-.406-.872-1.063-1.709-1.305-1.232-.356-2.275 1.268-3.515.143-.184-.167-1.016 1.404-.755 1.856.18.312.607.499.74.818.194.467.474 1.298.282 1.46-1.326 1.116-1.188 2.923-2.146 4.197-.503.669-.961.812-1.334.069-.58-1.154-1.206-2.348-1.437-3.595-.184-.991-.519-2.262.647-3.054.713-.484.132-.776-.169-.98-.671-.454-1.304-.912-2.256-.342-.413.247-1.195.202-1.807-.292-.354-.285-1.096-.318-1.567-.167-.436.14-.9.619-1.062 1.056-.151.406-.157.853.606 1.22 1.178.566 1.98 1.598 2.365 3.09a10.914 10.914 0 0 0 1.803 3.755c.922 1.244 1.061 3.047.789 4.676-.178 1.062-.774 1.978-1.631 2.684-1.504 1.237-1.859 3.164-2.824 4.726-.372.603.123 1.173.885 1.2.375.013.75.002 1.346.002 1.082.378 1.593-.481 2.293-1.358.554-.694.203-1.569.568-2.006 1.562-1.867 1.781-4.359 3.148-6.291.298-.424.58-.89.731-1.378zm403.839 34.625c-.722-.362-1.166-.842-1.05-1.706.037-.276-.025-.565.011-.841.381-2.955-.898-5.572-1.714-8.279-.096-.319-.484-.821-.68-.796-1.55.197-2.906-1.553-4.618-.306-.717.522-1.852.474-2.797.686-2.08-1.642-3.468.161-5.013 1.038-.637.362-.561.94.03 1.323.354.229.817.285 1.216.453.22.093.591.264.587.389-.05 1.366-.154 2.731-.258 4.095-.025.322-.255.841-.137.927 1.003.733.036 1.29-.171 1.849-.178.481-.666.839-.941 1.296-.476.792.287 2.37.951 2.047 1.701-.829 3.441-.31 5.142-.535.201-.027.432-.47.493-.753.1-.467.058-.918-.646-.912-.403.004-1.134.208-.997-.53.136-.736.062-1.447-.074-2.149-.227-1.17-.628-2.316-.515-3.518 0-.468.004-.936-.001-1.403-.01-1 .841-1.658 1.45-1.843.899-.274 1.981.05 2.984.119.111 1.14 1.413 1.479 1.714 2.376.391 1.165.437 2.446.609 3.681.161 1.153-.297 2.101-1.057 2.929-.253.276-.541.52-.792.798-.625.691-.55 1.019.33 1.228.946.225 2.134.818 2.81.468 1.015-.526 1.968-.267 2.907-.501.353-.088.634-.623.839-1.012.04-.083-.354-.489-.612-.618zM46.563 24.734c-.252.19-.757.243-.82.455-.542 1.825-1.853 3.173-2.846 4.716-.427.664-.837 1.338-1.268 1.998-.16.244-.711.447-.017.709 2.839 1.071 4.241 1.034 5.277-1.81.854-2.345 2.133-4.537 3.235-6.791.191-.391.626-.754.625-1.13-.003-1.259.674-2.129 1.297-3.135.579-.934 1.048-1.985 1.553-2.991.02-.039 2.047-2.648 2.082-2.672.442-.29.883-.582 1.326-.869.669-.433.73-1.144.429-1.691-.215-.391-.835-.657-1.324-.778-.53-.131-1.118-.03-1.75-.03-.894.137-1.872-.253-2.826.518-.866.7-.996.54-.09 1.166 1.195.825 1.456 1.824.586 2.926-.622.788-1.102 1.551-1.304 2.565-.095.474-.758 1.162-1.171 1.168-.579.008-.849-.667-1.089-1.329-.35-.963-.255-2.145-1.153-2.882-.672-.552-.625-1.04.033-1.561.292-.231.581-.492.786-.796.186-.276.256-.629.378-.948-.245-.088-.485-.238-.735-.253-1.072-.068-2.123.089-3.174-.515-.563-.323-1.47-.018-2.216-.068-.899-.06-.486.813-.875 1.149-.621.538.222.858.415.931 1.712.648 2.148 2.052 2.741 3.62.725 1.92 1.144 4.018 2.548 5.685.606.718.176 2.02-.653 2.643zm317.361-10.103c1.724.61 1.808.604 1.733 2.111-.053 1.056.483 2.23-.463 3.164 1.336 1.748.097 2.794-1.058 3.866-.062.058-.101.143-.14.221-.282.565.16 1.308.81 1.314 1.688.015 3.376.015 5.064 0 .743-.007 1.191-.857.793-1.482-.098-.154-.238-.338-.396-.389-1.159-.368-1.342-1.205-1.216-2.271.074-.626-.07-1.174-.453-1.785-.25-.399.348-1.276.451-1.956.136-.895-.171-2.187.319-2.611.54-.468 1.769-.147 2.697-.168.188-.004.376-.015.562.002 1.369.121 2.548 1.29 2.623 2.682.055 1.025-.014 2.056.018 3.083.035 1.133-.299 2.079-1.09 2.928-.461.495-1.556.884-1.046 1.681.244.381 1.352.224 2.071.285.372.031.75.006 1.125.006.938 0 1.878-.043 2.813.012.903.054.572-.777.866-1.148.67-.846-.318-.402-.541-.569-1.36-1.022-1.774-2.493-1.18-4.39.567-1.81.896-3.539-.852-4.977-.291-.239-.307-.793-.488-1.185-.146-.315-.322-.844-.529-.867-1.527-.166-2.877-1.482-4.578-.622-.878.444-2.131.35-3.359.292-1.357-.064-2.824-.335-3.741 1.168-.155.254-.621.3-.894.507-.182.138-.391.397-.38.59.009.183.26.438.459.508zm292.982 54.17c-2.515-1.82-2.559-1.757-4.849-.226-1.212.81-1.921 2.144-3.279 2.784-.855.403-.933 1.269-.875 2.145.049.743-.018 1.493.017 2.238.054 1.157-.016 1.997-1.463 2.497-1.319.456-1.039 2.108-.163 2.382 1.616.505 1.728 1.59 1.637 2.961-.08 1.208-.006 2.425-.02 3.638-.013 1.149.358 2.495-1.453 2.746-.173.024-.225.628-.414.908-.191.283-.668.602.066.663 1.29.108 2.738-.25 3.842.227 1.047.453 1.981.178 2.947.34.7.117.742-.453.626-.895-.107-.406-.341-1.02-.634-1.096-1.674-.431-1.684-1.629-1.609-2.97.062-1.116-.004-2.239.018-3.358.018-.915-.195-2.002.23-2.68.253-.404 1.539-.164 2.361-.215.182-.011.459.041.528-.054.306-.422.758-.885.761-1.337.003-.45-.39-.982-.755-1.325-.204-.192-.703-.075-1.069-.091-2.052-.093-2.052-.092-2.061-2.029v-.56c0-.84-.078-1.689.019-2.517.127-1.079.876-1.594 1.93-1.648.801-.041 1.33.244 1.957.752 1.112.901 2.137.503 2.647-.81.442-1.141.27-1.593-.942-2.47zM55.847 43.887c-1.081-.303-2.148-1.075-3.518-.139-.709.484-1.884 1.141-3.188.173-.894-.664-3.995.804-4.448 1.837-.164.375.079 1.353.26 1.386 1.437.262 1.335 1.285 1.327 2.306-.009 1.027-.069 2.06.015 3.081.11 1.346-.326 2.434-1.189 3.446-.714.838-.365 1.795.669 1.878 1.024.082 2.077-.096 3.087.05 1.034.149 1.496-.511 2.118-1.047.403-.347.311-.559-.049-.803-1.119-.758-1.464-1.81-1.288-3.12.086-.642.015-1.306.015-1.96 0-1.121-.069-2.248.032-3.36.044-.481.317-1.126.695-1.358 1.33-.814 3.669.083 4.578 1.41.711 1.038.917 2.084.904 3.284-.028 2.638.002 2.639-1.273 5.084-.041.079-.153.122-.192.202-.28.573-.026 1.495.522 1.52 1.608.074 3.244.515 4.802-.427 1.187-.718 1.433-1.404.26-2.212-1.01-.696-1.325-1.472-1.318-2.561.01-1.588.013-3.176 0-4.764-.015-1.929-.925-3.374-2.821-3.906zm379.561-29.863c1.072.484 1.295 1.073 1.269 2.08-.046 1.775-.071 3.556.013 5.328.037.788-.362 1.498-.866 1.548-.807.081-.741.564-.969 1.023-.628 1.266-.642 1.281.756 1.307.563.01 1.126.002 1.689.002.938 0 1.897.112 2.805-.051.406-.073.862-.646 1.022-1.089.158-.438.265-1.08-.682-1.166-.355-.032-.881-.733-.917-1.163-.075-.885-.004-1.832.249-2.682.349-1.172.401-2.26-.02-3.415-.393-1.077.384-2.173 1.53-2.216.739-.028 1.507.1 1.97-.686.27-.459.337-.848-.328-1.008-.767-.184-1.552-.321-2.293-.582-.403-.142-1.035-.49-1.04-.757-.029-1.326-.411-2.64.375-3.983 1.261-2.156 1.582-2.386 3.708-1.407.16.073.256.329.411.36.902.18 1.965.803 2.304-.776.049-.23.362-.42.58-.595.153-.122.312-.236.472-.348.161-.112.324-.221.483-.334a4.732 4.732 0 0 1-.19-.28c-.123-.191-.243-.387-.385-.554a1.492 1.492 0 0 0-.233-.224c-1.122-.853-2.562-1.052-3.788-1.717-.228-.124-.682.096-1.003.228-1.528.628-2.493 2.308-4.447 2.246-.391-.013-.864.867-1.21 1.393-.987 1.498-.447 3.196-.57 4.809 1.131.82.317 1.369-.273 1.95-.134.131-.255.277-.4.395-1.367 1.111-1.46 1.714-.022 2.364zm14.165 42.909c-.071-.473-.442-1.004-.838-1.306-1.146-.877-1.575-1.956-1.385-3.372.098-.733-.047-1.497.031-2.236.151-1.422-.285-2.618-1.126-3.746-.482-.646-2.392-2.11-3.551-2.259-.607-.078-1.292.259-1.907.498a5.213 5.213 0 0 0-1.353.788c-.479.383-.836.275-1.165-.138-.782-.982-1.557-1.012-2.563-.229-.667.519-1.547.762-2.318 1.154-.738.376-.951 1.091-.429 1.615.293.294.793.372 1.123.641.342.278.879.71.837 1.005-.356 2.523 1.195 5.434-1.462 7.503a.704.704 0 0 0-.181.204c-.287.518.157 1.367.744 1.373 1.498.017 2.996.011 4.494 0 .265-.002.62.019.774-.133.307-.301.503-.714.745-1.08-.274-.155-.542-.321-.822-.464-.994-.509-1.736-1.117-1.454-2.432.134-.625.023-1.301.023-1.955 0-.933.048-1.869-.016-2.798-.049-.715.221-1.192.715-1.678 1.189-1.169 2.525-.819 3.8-.35.439.161 1.401.114 1.173 1.11 1.592 1.671.916 3.766 1.11 5.707.088.882-.326 1.405-.919 1.864-.337.261-.843.332-1.123.629-.205.218-.274.691-.199 1.001.058.236.432.551.675.559 1.496.051 2.995.041 4.493.019.65-.008 2.146-1.014 2.074-1.494zM264.265 2.555c-.293-.623-2.449-2.181-3.512-2.347-1.001-.156-1.804.392-2.52 1.08-.441.424-.784.918-1.526 1.082-.425.094-.563 1.192-1.034 1.421-1.34.65-1.544 1.73-1.53 2.995.01.933-.044 1.869.014 2.798.063 1.002-.391 1.676-1.337 1.652-1.093-.028-.925.603-.93 1.239-.004.557-.111 1.102.801 1.067 1.219-.046 1.489.766 1.463 1.824-.039 1.585-.127 3.183.025 4.755.136 1.413-.438 2.461-1.586 2.87-.821.293-.817.739-.66 1.177.159.444.611 1.019 1.015 1.092.906.164 1.863.051 2.799.051.843 0 1.686-.023 2.528.006.891.031 1.33-.424 1.505-1.241.17-.794-.432-1.531-.882-1.502-1.426.091-1.454-.658-1.382-1.67.046-.65.275-1.508-.042-1.92-.922-1.203-.418-2.492-.484-3.726-.071-1.312.4-1.674 1.811-1.734.467-.02.943-.054 1.403.007 1.048.14.435-1.12 1.115-1.266-.326-.33-.608-.865-.987-.946-.716-.153-1.518.078-2.227-.089-.436-.103-1.047-.617-1.093-1.004-.143-1.196-.239-2.455-.013-3.625.46-2.381 2.559-3.1 4.557-1.684.226.16.384.413.606.58.13.098.33.168.49.155.941-.076 2.035-2.199 1.613-3.097zm107.194 44.214c-.968 1.274-1.355 2.681-1.268 4.075 0 .547-.056.931.01 1.293.208 1.123.212 2.386.767 3.315.583.976 1.622 1.774 2.626 2.38.944.571 2.095.815 3.171 1.151.346.108 3.178-.789 3.782-1.033 1.52-.616 2.429-1.622 2.799-3.299.279-1.268 1.238-2.459.872-3.796-.361-1.319-.979-2.595-1.657-3.794-.873-1.544-2.399-2.595-3.948-3.141-2.23-.787-5.621.832-7.154 2.849zm8.875 3.538c.602 1.242.691 2.388.086 3.754-.285.645-.516.928-1.089 1.179-1.649.721-2.964.484-4.207-.553-1.244-1.036-1.93-2.192-1.49-3.821-.514-2.052.467-3.271 2.267-4.009.239-.098.569-.276.739-.189.927.472 1.931.891 2.68 1.577.526.482.676 1.366 1.014 2.062zm105.434-4.763c-.194-.033-.437.21-.657.326.407.573-.762 1.57.769 1.984 1.146.31 1.733 1.547 1.5 2.928-.092.545-.015 1.119-.015 1.68 0 .935-.04 1.871.01 2.803.059 1.103 1.38 3.117 2.184 3.141 1.705.051 3.51.379 5.016-.74.58-.431.926-.468 1.379.062.691.808 1.414 1.144 2.34.251.201-.194.715-.145 1.067-.09.816.129 1.254-.402 1.495-.965.35-.819-.182-1.524-.864-1.804-.464-.191-.782-.183-.812-.801-.134-2.742.072-5.46.799-8.096.154-.56.472-.866-.037-1.384-.544-.553-1.15-.62-1.726-.277-1.214.723-2.583 1.167-3.563 2.327-.525.621-.361.814.091 1.229 1.64 1.507 1.631 1.516 1.634 3.198.001.748.059 1.502-.023 2.24-.045.41-.248.856-.513 1.178-.851 1.033-2.445 1.241-3.994.592-1.077-.451-1.081-.451-1.103-1.458-.023-1.021.121-2.074-.084-3.056-.499-2.391-.553-2.375-.005-4.365.174-.631.219-1.234-.415-1.727-.598-.465-1.098-.424-1.742-.075-.842.456-1.648 1.085-2.731.899zM134.156 18.568c-.141 1.518-.231 3.482 1.999 4.525.961 1.951 2.644 2.393 4.636 2.226.557-.047 1.133.064 1.679-.025.682-.112 1.413-.233 2-.565 2.185-1.236 2.908-3.521 3.716-5.656a2.517 2.517 0 0 0-.481-2.566c-.435-.495-.553-1.254-.88-1.858-1.378-2.549-3.236-4.239-6.443-3.97-1.792.15-3.351.763-4.47 2.021-1.028 1.157-2.176 2.445-1.767 4.286.079.355.011.742.011 1.582zm3.376-2.964c-.034-.865.375-1.273 1.207-1.542 2.475-.802 4.229-.119 5.264 2.274.655 1.514 1.243 3.01.367 4.753-.28.556-.472.733-.983.953-1.876.808-2.967.541-4.429-.58-1.505-1.154-1.55-2.589-1.421-3.902-.001-.84.017-1.398-.005-1.956zm72.743 61.912c-.376.175-.915.139-1.172.402-.625.636-1.056 1.465-1.695 2.082-1.253 1.211-1.997 2.566-1.958 4.44.459 1.405.912 2.812 1.382 4.213.078.232.171.536.354.643.936.546 1.547 1.567 2.508 1.967 1.119.466 2.383.586 3.584.856.591-.881 1.606-.281 2.267-.626.714-.372 1.131-1.291 1.835-1.705 1.913-1.125 2.286-3.002 2.355-4.873.085-2.318-.966-4.23-2.639-5.917-2.017-2.033-4.162-2.716-6.821-1.482zm5.935 8.843c-.395.744-.183 1.933-1.504 2.152-1.068.177-1.974.413-3.066-.226-2.088-1.221-2.557-1.73-2.561-4.192-.156-1.318.031-2.673 1.844-3.221.396-.12 1.776-.558 2.057-.553 1.153.022 2.557.486 2.685 1.374.223 1.542 1.389 3.077.545 4.666zM13.627 82.411c-.151-2.683-.824-3.555-3.643-5.51-.971-.674-1.764-1.251-2.989-1.079-2.467.303-4.474 1.23-5.863 3.552-.534.892-.189 1.771-.662 2.547-.906 1.487-.31 2.948.192 4.37.482 1.367 1.335 2.538 2.443 3.462.441.368 1.099.501 1.678.674.755.225 1.53.53 2.297.53.766 0 1.526-.369 2.301-.513 1.504-.279 3.178-1.282 3.622-2.571.451-1.309 1.6-2.45 1.158-4.007-.142-.498-.507-.963-.534-1.455zm-2.896 3.648c-.043.508-.717 1.234-1.232 1.373-.951.256-2.008.243-3.004.156-.465-.041-.934-.468-1.328-.805-1.143-.981-2.286-1.988-1.703-3.522 0-.699-.143-1.228.03-1.616.363-.814.185-1.965 1.125-2.413 1.405-.669 2.8-.476 4.094.43 2.314 1.619 2.217 4.028 2.018 6.397zm470.993-38.792a6.452 6.452 0 0 0-3.74-3.348c-1.619-.546-3.669-.302-4.99.637-2.127 1.512-3.923 3.553-3.649 6.478-.203 1.931.463 3.614 1.418 5.077.605.928 1.708 1.961 2.707 2.102 1.365.192 2.792 1.64 4.252.222 1.889.061 3.181-.69 4.047-2.461.777-1.589 2.069-3.033 1.605-4.914-.325-1.319-1.055-2.546-1.65-3.793zm-4.777 8.404c-1.654.127-2.658-.87-3.822-1.64-.238-.158-.365-.608-.39-.934-.057-.741-.018-1.49-.018-2.235v-.839c.006-2.376.007-2.375 2.301-3.15.079-.027.125-.17.201-.186.95-.196 4.008 1.763 4.246 2.775.242 1.028.518 2.075.548 3.12.067 2.233-.829 2.917-3.066 3.089zM330.634 88.957c-1.517-.388-1.666-1.433-1.57-2.704.17-2.26-.409-4.573.544-6.786.17-.395.069-.931.004-1.388-.029-.201-.294-.535-.433-.526-.617.041-1.308.039-1.82.324-.852.474-1.577 1.171-2.374 1.748-1.377.996-1.409 1.409.163 2.073.923.39 1.255.854 1.109 1.773-.029.182-.004.373-.004.56 0 .561.117 1.153-.026 1.675-.25.912-.441 2.004-1.062 2.604-.622.601-1.726.857-2.648.936-.479.041-1.032-.606-1.528-.975-.711-.529-1.004-1.201-.958-2.136.088-1.771.006-3.55.037-5.325.009-.527.033-1.123.28-1.557.265-.466.35-.74-.003-1.187-.405-.512-1.074-.811-1.44-.503-1.182.996-2.752 1.132-3.975 1.982-.467.324-.528.63-.024.999.368.27.683.857 1.031.865 1.301.03 1.001 1.244 1.21 1.797.338.896.079 2.015.072 3.041l.021 3.749c.161.214.276.514.49.627.996.528 1.993 1.07 3.04 1.479.946.369 1.726-.352 2.502-.707 1.099-.504 2.086-1.612 3.143.025.07.108.369.185.488.127 1.254-.612 2.825-.218 3.938-1.407.639-.687.194-1.081-.207-1.183zm91.206-39.83c-.956-1.573-1.636-3.383-3.248-4.566-.642-.471-1.163-.806-1.955-.732-.555.052-1.119.01-1.883.01-.849.235-1.885-.149-3.016.341-3.604 1.563-5.274 7.483-2.156 11.704 1.083 1.466 2.776 1.864 4.287 2.506 1.4.595 2.869-.282 4.197-.634 1.086-.287 2.176-1.469 2.737-2.531.459-.87 1.707-1.428 1.269-2.855-.312-1.017.267-2.422-.232-3.243zm-4.362 5.729c-1.235 1.035-2.68 1.201-3.794-.031-.623-.689-1.699-.748-2.058-1.869-.2-.625-.267-1.203-.301-1.812-.042-.739.06-1.491-.029-2.222-.092-.756.287-1.189.779-1.639 1.273-1.165 2.047-1.233 3.662-.456 2.074.997 3.164 2.526 2.867 4.955.26 1.198-.09 2.205-1.126 3.074zM31.842 88.167c-1.183-.881-1.464-1.996-1.361-3.388.103-1.393.097-2.804.003-4.198-.106-1.576-.938-2.793-2.287-3.612-1.792-1.09-3.359-.623-4.879.665-.957.811-1.049.7-1.922-.452-.208-.274-.711-.595-.963-.518-.989.301-1.979.667-2.879 1.169-1.064.594-1.255 2.051-.221 2.374 1.005.314.797 1.109 1.233 1.568.377.398.408 1.669.046 2.105-.866 1.045-.329 2.134-.492 3.181-.113.726.356 1.703-.956 1.842-.095.01-.234.686-.144.993.067.231.463.51.72.518 1.497.049 2.997.043 4.495.008.317-.007.875-.179.897-.335a2.171 2.171 0 0 0-.22-1.28c-.216-.393-.648-.663-.966-1.006-1.403-1.516-.902-3.402-1.04-5.178-.099-1.275 1.122-1.985 1.209-3.162.007-.101.458-.225.708-.241.56-.036 1.124-.02 1.685-.01 1.568.029 1.92.519 2.658 2.116.701 1.516.388 3.031.53 4.548.108 1.147-.365 2.074-.958 2.969-.285.43-1.091.747-.647 1.317.238.305 1.005.224 1.537.268.465.039.936.008 1.404.008.656 0 1.319-.061 1.965.016.744.088 1.307-.185 1.643-.771.473-.821-.359-1.187-.798-1.514zm151.489-67.706c.556-.834.352-1.588.369-2.366.021-.967.562-2.249-1.064-2.575.502-1.376-1.424-1.827-1.219-3.166.046-.3-.677-1.035-1.027-1.023-1.835.063-3.516-.853-5.386-.659-1.361.141-2.524.591-3.237 1.638-1.182 1.737-2.79 3.394-2.179 5.32.063 1.337-.174 2.326.199 2.957.725 1.227 1.59 2.589 2.762 3.291 2.193 1.315 4.545 2.129 7.228.694 1.823-.975 2.533-2.578 3.554-4.111zm-3.582.101c-1.108 2.583-3.907 2.568-5.804.457-.985-1.096-.85-2.132-.955-3.72.073-.281.23-.967.432-1.639.225-.747.078-1.937.991-2.041 1.188-.135 2.422-.454 3.634.614 2.585 2.276 2.979 3.355 1.702 6.329zM12.073 13.315c1.516.514 1.611 1.488 1.538 2.734-.038.651-.007 1.306-.007 1.96 0 1.027-.043 2.056.012 3.08.061 1.131 1.418 3.108 2.245 3.059 1.423-.086 2.968.602 4.265-.52.801.379 1.763-1.077 2.554.262.152.257.971.203 1.469.154.511-.05.997-.309 1.508-.409 1.553-.302 1.948-1.29.969-2.471-.402-.485-1.075-.946-1.137-1.474-.162-1.381-.366-2.898.058-4.156.269-.797.331-1.543.463-2.323.131-.772.391-1.522.542-2.291.118-.6-.21-.868-.79-.754-.335.065-.668.2-.972.359a170.696 170.696 0 0 0-3.675 1.976c-.777.431-.79.75-.11 1.382 1.609 1.495 1.609 1.495 1.612 3.206.001.747.06 1.5-.023 2.238-.046.408-.287.817-.515 1.179-.897 1.417-2.341.848-3.562.833-.783-.01-2.133-2.038-2.081-2.937.121-2.074-.415-4.19.512-6.226a1.394 1.394 0 0 0-.498-1.731c-.609-.433-1.113-.414-1.739-.014-.728.464-1.537.802-2.306 1.203-1.246.648-1.415 1.314-.332 1.681zm297.946 65.696c-.24-.094-.528-.354-.582-.586-.319-1.362-1.391-1.394-2.457-1.464-1.649-.108-3.141.27-4.639 1.036-2.057 1.052-3.226 2.506-3.132 4.859.019.467.003.935.003 1.402 0 .374.048.755-.008 1.121-.314 2.06.771 3.471 2.202 4.699.604.518 1.236 1.106 1.962 1.357 1.076.371 2.403.91 3.339.58 1.348-.476 2.878-.741 3.975-1.991 1.202-1.369 1.635-3.097 2.588-4.564.171-.264.158-.803.003-1.095-.983-1.84-.798-4.394-3.254-5.354zm-1.954 9.657c-.658.796-1.465.627-2.274.642-.446.008-.778.043-1.002-.6-.221-.638-.875-1.142-1.382-1.663-1.37-1.408-1.379-1.399-1.379-3.584-.314-1.572.536-2.505 2.098-3.404 1.013-.583 1.285.248 1.907.295 1.089.082 2.222.442 2.71 1.437a12.623 12.623 0 0 1 1.13 3.719c.205 1.406-1.01 2.192-1.808 3.158zM597.67 15.444c.201 1.316 1.279 2.681.587 3.89-.53.927-.419 1.742-.464 2.615-.052 1.019.099 2.074-1.35 2.266-.144.019-.348.422-.324.622.021.176.318.444.504.453.934.046 1.872.021 2.808.021.843 0 1.686-.014 2.528.005.503.012.909-.001.898-.686-.01-.603.019-1.115-.857-1.03-.265.026-.775-.233-.805-.42-.101-.637.034-1.311-.059-1.951-.099-.682-.512-1.343-.502-2.01.011-.765.381-1.518.509-2.29.118-.713-.14-1.723.252-2.093.405-.383 1.393-.165 2.126-.189.561-.018 1.213-.184 1.665.038.711.349 1.438.629 1.884 1.554.914 1.897.962 3.852.77 5.806-.059.596-.264 1.912-1.654 1.606-.183-.04-.502.21-.648.407-.201.271-.33.612-.405.942-.012.052.424.293.654.297 1.685.026 3.371.018 5.056.011.27-.001.631.051.792-.094.32-.29.531-.701.787-1.062-.254-.175-.524-.331-.759-.528-.627-.525-1.516-.703-1.81-1.676-.275-.912-.121-1.584.178-2.51.781-2.418-.328-4.713-1.208-6.955-.094-.239-.398-.585-.579-.571-1.623.127-3.158-1.377-4.889-.12-.64.464-1.961.828-2.473.49-2.09-1.38-3.355.209-4.836 1.035-.259.145-.353.584-.524.886.281.147.584.448.841.413.725-.098 1.249.452 1.307.828zm18.539 7.742c1.161 1.137 2.105 2.702 4.16 2.141.123-.034.317.124.456.223 1.545 1.103 2.873-.669 4.359-.323.924-.921 1.962-1.758 2.731-2.793.488-.657.678-1.593.816-2.434.133-.816-.041-1.677.047-2.505.106-1.005-.18-1.75-.959-2.416-.692-.591-1.501-1.234-1.818-2.028-.484-1.209-1.509-1.455-2.456-1.719-.669-.187-1.342-.317-2.017-.541-.546-.181-1.322.273-1.98.493-1.14.38-2.426.543-2.754 2.065-.104.484-.4 1.041-.786 1.325-.815.6-.784 1.384-.769 2.215.01.558.002 1.116.002 1.675 0 .279.005.558-.001.837-.032 1.352-.116 2.723.969 3.785zm2.393-7.168c.442-1.034 1.783-2.163 2.795-1.908 1.83.461 3.421 1.259 4.007 3.325.335 1.18.378 2.288-.02 3.437-.519 1.5-1.476 2.193-2.838 2.194-1.445.019-2.156-.566-2.978-1.47-1.598-1.756-1.863-3.479-.966-5.578zM278.861 24.42c.649.82 1.494 1.166 2.439.863.898-.288 1.738-.785 2.567-1.255.732-.415.673-.902.003-1.38-.905-.645-1.595-1.476-1.539-2.106.236-2.664-.802-5.511 1.103-7.947.045-.058.004-.182.006-.276.01-.563.096-1.053-.807-1.068-2.107-.035-3.3 1.538-4.776 2.588-.154.11-.422 1.174.378 1.346 1.213.262 1.166 1.09 1.302 2.049.238 1.689-.654 3.184-.615 4.817.003.147-.227.438-.253.427-1.115-.45-1.893 1.169-3.313.264-1.409-.897-2.099-1.851-2.038-3.375.098-2.449-.45-4.947.516-7.346.063-.156-.286-.671-.505-.715-1.397-.282-4.318 1.125-4.902 2.331-.062.129.086.471.234.572 1.651 1.123 2.129 2.69 1.83 4.581-.043.273-.006.559-.006.84 0 .841.093 1.694-.023 2.519-.154 1.095.399 1.794 1.177 2.314.803.536 1.675 1.034 2.735.852 1.128-.194 2.45.524 3.349-.748.296-.424.751-.636 1.138-.147zm328.471 27.432c.017 2.899.412 4.462 2.143 5.512 1.371.831 3.05 1.225 4.642 1.605 2.197.524 3.808-.946 5.188-2.214.816-.75.977-2.238 2.037-3.036.146-.11.087-.515.09-.784.01-.838.191-1.731-.034-2.503-.509-1.741-.953-3.583-2.977-4.363-.883-.341-1.677-.906-2.543-1.3-1.952-.888-4.773-.401-6.272 1.037-1.728 1.656-2.238 3.763-2.274 6.046zm3.807-3.664c.528-.302.764-.944 1.544-1.017 1.044-.098 2.104.082 2.8.646 1.547 1.252 2.668 2.779 2.643 5.027-.013 1.212-1.257 1.475-1.356 2.559-.028.314-1.16.661-1.82.759-1.486.22-2.682.061-3.507-1.654-.534-1.112-1.879-1.832-1.288-2.952.043-1.498-.25-2.661.984-3.368zM165.205 84.293c1.703-.845 3.438-1.698 5.257-2.209.944-.266 1.377-.9 1.905-1.463.246-.262.414-1.178-.282-1.389-2.002-.607-3.684-2.086-6.05-1.775-1.599.21-2.687.937-3.672 2.016-.282.309-.317.868-.624 1.126-2.258 1.905-1.707 4.433-1.535 6.846.046.654.331 1.454.791 1.885 1.634 1.529 3.156 3.558 5.902 2.228 2.313.558 3.512-1.479 5.241-2.274.519-.238.492-2.086.022-2.163-.461-.075-1.425-.549-1.414.681.001.127-.377.348-.594.369-.557.053-1.123.018-1.81.018-.931-.138-1.951-.022-3.06-.45-1.107-.427-1.046-1.382-1.683-1.929.528-.516.974-1.204 1.606-1.517zm42.701-38.859c-.859-.744-1.675-1.863-3.156-1.616-.727.121-1.495.076-2.236.01-1.584-.143-2.767.548-3.807 1.64-1.42 1.492-1.836 3.354-2.143 5.609.184.682.533 1.595.662 2.539.202 1.473 1.144 2.43 2.177 3.281 1.089.896 2.512 1.316 3.841 1.464 1.274.141 2.786-.04 3.882-.642 1.021-.561 1.678-1.831 2.403-2.853.338-.477.364-1.17.693-1.657 1.125-1.664.611-3.246-.217-4.764-.585-1.077-1.2-2.233-2.099-3.011zm-.994 8.248c-.594.778-.888 1.793-1.981 1.92-.984.114-2.07.225-2.693-.891-.044-.078-.125-.138-.195-.198-1.977-1.682-1.977-1.682-1.977-4.059.255-.84-.463-1.994.5-2.969.242-.245.103-1.038.728-.807.831.307 1.287-1.241 2.187-.31.348.36.858.686 1.34.771 1.027.182 1.931.947 1.914 1.656-.04 1.621 1.526 3.121.177 4.887zm323.78 2.289c.638-.443.816-1.114.548-1.684-.119-.252-1.114-.418-1.399-.206-.699.52-1.261.642-1.957.107-.823-.633-.78-1.69-.388-2.231.651-.9.268-1.777.429-2.558 0-.645.034-1.208-.006-1.765-.114-1.577-.973-2.619-2.441-3.137-1.937-.683-5.937.678-7.075 2.385-.239.358-.552.763-.559 1.152-.007.381.293.799.55 1.13.057.073.532-.101.758-.248.669-.435 1.26-1.013 1.969-1.357 1.945-.943 3.49.108 3.437 2.233-.015.594-.209.749-.795.808-.962.096-2.091.089-2.819.596-1.16.808-2.837.866-3.437 2.637-.353 1.041-.206 1.984-.256 2.958-.061 1.205.428 1.712 1.622 1.611 1.312-.111 2.672-.302 3.881-.782 1.07-.425 1.806-.467 2.724.294 1.038.861 1.858.697 2.865-.161a29.823 29.823 0 0 1 2.349-1.782zm-6.157-1.473c-.101.708-.901 1.316-1.589 1.107-.653-.199-1.287-.534-1.856-.917-.713-.481-.713-1.065.032-1.512.659-.395 1.398-.734 2.145-.888 1.107-.229 1.267-.024 1.277 1.094 0 .372.042.75-.009 1.116zM641.59 79.984c-.349-.57-1.098-.893-1.658-1.339-1.216-.968-2.648-.377-3.759-.56-.494 0-.777-.023-1.054.004-.804.079-1.896-.114-2.349.331-.921.905-2.519 1.455-2.321 3.197-.879.811-.121 2.172-.638 2.778-1.006 1.178-.021 1.991.08 2.95.201 1.903 1.166 3.176 3.089 3.664.411.104.787.352 1.171.551 1.534.797 3.248.795 4.799.485 1.711-.341 3.065-1.698 3.793-3.226.321-.674.307-1.745.702-2.494.502-.954.174-1.825-.085-2.614-.424-1.299-1.053-2.557-1.77-3.727zm-1.148 6.408c-.775 1.057-1.408 2.22-2.216 3.248-.2.254-.867.093-1.272.247-1.271.484-1.672-.907-2.61-1.151-1.15-.299-1.077-1.266-1.097-2.194-.009-.416-.16-.863-.358-1.237-.895-1.693.325-2.911 1.059-4.133.234-.39 1.343-.258 1.486-.279 3.069-.004 3.918.539 4.537 3.017.198.788 1.217 1.463.471 2.482zm-75.288-29.903c.398-.597.768-1.216.424-1.708-.389-.557-1.035-.2-1.688.028-2.782.973-5.066-.004-6.321-2.451-.178-.347-.471-.432.124-.68 2.154-.901 4.06-2.301 6.416-2.838 1.414-.322 1.666-1.667.662-2.767-.595-.653-1.434-1.078-2.093-1.681-1.041-.953-2.42-.788-3.396-.456-1.37.466-3.002 1.329-3.636 2.499-.876 1.616-2.338 3.242-1.834 5.075-.055 2.541 1.009 4.221 2.489 5.753 1.309 1.355 3.013 1.453 4.557 1.095 1.474-.344 3.237-.281 4.296-1.869zm-243.969-2.59c.013.537.882 2.881 1.156 3.165 2.747 2.849 8.547 2.264 10.571-1.098.119-.198-.064-.68-.249-.922-.137-.179-.506-.25-.77-.246-.243.004-.487.164-.723.27-2.821 1.26-4.785.59-6.197-2.119-.443-.849-.203-1.664.63-1.789.793-.119 1.536-.138 2.323-.527.912-.451 1.696-1.225 2.877-1.247.495-.009 1.109-.668 1.417-1.181.221-.368.233-1.144-.016-1.467-2.66-3.445-6.598-3.061-9.326.017-1.378 1.555-1.875 3.412-1.695 5.252-.001.771-.012 1.332.002 1.892zm-143.616.057c-.156-.016-.326.103-.49.159-1.102.37-1.736.064-1.787-.949-.057-1.117-.013-2.24-.013-3.36 0-1.027.032-2.055-.015-3.08-.02-.424-.113-.906-.343-1.249-.671-.998-3.346-2.078-4.348-1.605-1.607.759-3.272 1.533-4.294 3.109-.276.426-.495.948-.534 1.443-.021.264.367.597.636.823.079.066.421-.081.57-.213.42-.37.776-.815 1.205-1.174 1.583-1.325 3.488-.779 4.269.942.155.342.343 1.048-.574 1.244-1.092.234-2.125.737-3.195 1.086-2.897.944-4.179 2.496-4.08 4.979.055 1.379 1.792 2.902 2.941 2.239 1.25-.721 2.702-.038 3.836-.993.283-.239 1.141-.09 1.553.168 1.057.664 2.332.592 3.187.234 1.026-.429 1.763-1.599 2.539-2.519.173-.205.116-.804-.068-1.044-.163-.212-.647-.205-.995-.24zm-5.708.846c-.427.405-.967.691-1.161.826-.718 0-1.194.091-1.243-.015-.31-.67-1.561-.119-1.517-1.237.033-.84.344-1.344 1.175-1.568.408-.11.759-.438 1.168-.529.529-.118.915-1.176 1.596-.31.805 1.025.808 2.048-.018 2.833zm242.931-31.251c1.444 1.349 2.953 2.046 4.75 1.746 3.425.33 3.503-.669 5.437-2.671.135-.14.279-.488.212-.567-.226-.267-.517-.534-.837-.646-.175-.061-.449.245-.696.289-2.084.373-4.182.846-5.726-1.285-.622-.859-.612-1.776.347-2.288 1.291-.689 2.513-1.543 4.013-1.822.665-.124 1.333-.42 1.91-.782.818-.513.879-1.346.263-2.088-1.222-1.472-2.543-2.694-4.715-2.176-.696.166-1.543-.057-2.14.249-3.373 1.731-5.058 6.173-3.711 9.861.257.706.154 1.49.893 2.18zM41.207 56.331c.562-.701 1.116-1.407 1.689-2.099.258-.312.792-.518.151-1.006-.384-.292-.658-.61-1.176-.243-.275.195-.635.266-.95.407-.783.35-1.362.155-1.389-.549-.05-1.303-.014-2.61-.014-3.915 0-1.212-.033-2.425.012-3.636.029-.779-.436-1.164-1.023-1.436-.389-.18-.853-.192-1.267-.326-2.329-.754-5.532.639-6.773 2.783-.395.683-.908 1.419-.26 1.852.338.226 1.77-.345 1.904-.794.461-1.547 1.579-1.284 2.634-1.271.765.009 1.988 1.456 1.957 2.215-.021.531-1.252 1.641-1.925 1.695a8.205 8.205 0 0 1-1.402 0c-.977-.091-1.654.545-2.406.969-.644.363-.703 1.185-1.502 1.637-.956.54-.936 3.114-.247 3.669.748.602 1.552 1.306 2.437 1.512.635.148 1.447-.444 2.177-.714.324-.12.683-.203.952-.402 1.034-.767 1.899-.671 2.908.17 1.049.873 2.666.538 3.513-.518zm-6.487-1.826h-.559c-.373 0-.761.068-1.114-.014-.69-.16-.882-1.135-.539-1.734.677-1.181 2.044-.975 3.014-1.555.117-.07 1.033.702 1.128 1.174.246 1.229-.66 2.12-1.93 2.129zm474.971-31.361c.472.455.987.882 1.381 1.399.514.673 1.137.876 1.944.779.463-.055.938-.01 1.407-.01.657 0 1.359.15 1.963-.03 1.475-.439 2.993-.946 3.619-2.557.137-.353-.124-.859-.202-1.295-.321.1-.693.128-.954.312-2.248 1.584-4.225.495-6.127-.67-1.023-.626-.706-1.956.42-2.667 1.566-.988 3.127-1.905 5.01-2.206.559-.089 1.167-.529 1.526-.986.277-.353.434-1.108.24-1.469-1.345-2.511-6.367-3.525-8.369-1.492-1.928 1.958-3.859 4.055-3.401 7.302.2 1.413.521 2.605 1.543 3.59zm-274.106-2.285c.142.751.367 1.944.824 2.086 1.01.315 1.349 1.252 2.133 1.656a6.596 6.596 0 0 0 2.233.683c1.017.114 2.066.114 3.083 0 .764-.086 1.609-.269 2.225-.69 1.894-1.293 2.544-3.408 2.942-5.471.506-2.625-.857-4.665-2.723-6.406-1.435-1.339-5.052-2.012-6.841-1.094-2.369 1.215-4.156 2.897-3.91 5.883.031.371.004.746.004 1.119.001.746-.106 1.513.03 2.234zm3.952-6.525c.017-.077.127-.192.192-.191 1.191.018 2.53-.275 3.531.175.989.445 2.215 1.162 2.413 2.515.12.823.022 1.677.022 2.517 0 .187.005.374-.001.56-.028.896.35 2.073-.758 2.449-1.449.491-3.052 1.29-4.508.112-.648-.525-1.318-1.37-1.412-2.138-.111-.906-.382-1.734-.669-2.55-.533-1.513.928-2.259 1.19-3.449zm163.16 73.06c-1.816.717-2.07.396-2.085-1.399-.007-.934-.001-1.869-.001-2.803 0-1.215.069-2.435-.034-3.641-.041-.475-.35-1.111-.737-1.342-2.129-1.274-5.913-.665-7.605 1.254-.555.629-.839 1.51-1.178 2.305-.079.187.048.589.215.714.152.113.639.077.717-.051.987-1.626 2.567-1.434 4.152-1.603 1.359-.145 1.201.979 1.566 1.495.429.607-.362 1.102-.944 1.364-.551.247-1.178.33-1.724.585-1.497.701-3.27.847-4.394 2.314-.664.867-1.119 3.063-.471 3.784.521.579 1.331.89 1.914 1.425.699.643.952-.408 1.619-.326.768.094 1.665-.412 2.423-.813.796-.42 1.294-.216 1.952.305 1.241.981 2.479.815 3.634-.201.599-.527.956-1.346 1.913-1.512.175-.03.323-.938.235-1.393-.035-.183-.274-.813-1.167-.461zm-6.662 1.919c-.918.173-2.333-.556-2.748-1.416-.223-.462.244-1.667.792-1.885a13.72 13.72 0 0 1 1.97-.619c.847-.195 1.691.437 1.744 1.241.073 1.072-.872 2.512-1.758 2.679zM349.911 20.18c-.002 2.006 2.616 4.704 4.594 5.099 2.994.598 5.353-.635 7.163-2.998.094-.123.135-.419.055-.512-.151-.176-.405-.362-.618-.364-.34-.002-.729.064-1.013.239-1.486.912-2.923 1.547-4.262-.232-.07-.092-.357-.009-.54-.032-1.307-.16-1.226-1.278-1.416-2.147-.163-.746-.004-.96 1.074-1.447 1.262-.57 2.358-1.459 3.89-1.528.772-.035 1.53-.785 2.252-1.273.234-.158.52-.566.461-.766-.186-.631-.365-1.455-.838-1.768-.846-.56-1.966-.693-2.857-1.203-1.039-.594-1.861-.429-2.95-.044-1.133.4-2.353.708-2.911 1.716-1.005 1.816-2.511 3.517-2.085 5.658.001.668.002 1.135.001 1.602zM622.29 88.147c-2.066 1.044-4.536.613-6.103-.977-.444-.45-.625-1.977-.164-2.249a30.651 30.651 0 0 1 3.47-1.766c1.109-.477 2.323-.723 3.411-1.239.957-.453 1.088-1.509.362-2.27-.925-.971-1.796-2.103-3.321-2.112-1.713-.01-3.424-.349-4.82 1.353-.542.66-1.093 1.49-1.867 2.007-.805.537-.894 1.311-.843 2.175.038.65.008 1.304.008 1.957 0 .186.013.374-.002.559-.21 2.6.207 4.835 3.241 5.554.676 1.255 1.874 1.027 2.957.967 1.944-.107 3.245-1.621 4.875-2.42.283-.139.36-1.314.106-1.778-.385-.705-.843.003-1.31.239zm-190.595.183c-1.17.892-3.276.569-4.174-.564-.739-.933-1.428-2.088-.927-3.191.427-.94 1.59-1.426 2.714-1.418 1.342.009 2.201-1.016 3.357-1.405.726-.244.932-1.26.573-1.632-1.157-1.198-2.027-2.998-4.215-2.607-.453.081-.935-.008-1.401.016-1.252.065-4.047 1.888-4.317 2.953-.37 1.457-.584 2.953-.865 4.433l.142.028c0 .466-.077.948.015 1.396.246 1.195.244 2.619.925 3.508 1.219 1.593 3.106 2.655 5.166 2.199 1.565-.347 3.238-.818 4.421-2.213.524-.619 1.112-1.332.666-1.896-.68-.861-1.387-.136-2.08.393zm-192.756-.778c-.01-5.223.032-10.446-.034-15.667-.013-1.024.199-1.622 1.189-2.019.496-.199.834-.731.263-1.324-.33-.343-.531-.951-.908-1.071-.461-.147-1.133-.056-1.561.194-1.216.71-2.367 1.535-3.519 2.348-1.403.99-1.532 1.855-.135 2.382 1.315.496 1.328 1.272 1.326 2.301-.009 4.197-.033 8.394.015 12.59.013 1.167-.092 2.205-1.164 2.882-.767.484-.231.759.08 1.205.829 1.189 2.025.608 3.066.739 1.395.144 2.719-.014 3.784-1.012.23-.215.28-.621.413-.94-.241-.095-.474-.239-.723-.277-2.071-.315-2.088-.309-2.092-2.331zM132.143 54.55c.068-.323.342-.766.219-.934-.372-.507-.728-.135-1.146.12-.35.213-.871.211-1.313.196-1.045-.036-1.328-.604-1.029-1.762.179-.694.195-1.431.213-1.576 0-1.142.073-1.715-.021-2.259-.087-.5-.461-.956-.524-1.455-.343-2.724-.676-3.042-3.414-3.041-.469 0-.954-.076-1.402.019-.589.124-1.347.218-1.684.617-.907 1.073-1.643 2.292-2.408 3.478-.117.182-.027.496-.032.749.199-.071.429-.101.591-.222.537-.402 1.263-.734 1.528-1.281.566-1.166 1.468-.317 2.174-.517.361-.102 1.026.035 1.211.301.488.701.828 1.518 1.13 2.324.056.149-.314.499-.538.701-.743.673-1.732.793-2.561.527-2.004-.642-2.509 1.664-4.04 1.855-.444.975-.841 1.936-.734 3.071.133 1.414.98 2.304 2.359 2.428a5.192 5.192 0 0 0 3.095-.686c1.251-.715 2.338-.771 3.478.238.351.31 1.283.567 1.447.389 1.071-1.163 3.013-1.438 3.401-3.28zm-6.205-.624c-.147.162-.52.098-.719.239-1.605 1.137-2.118 1.117-3.648-.118-.403-.326-.327-.538.035-.791.646-.451 1.248-.987 1.942-1.343.981-.504 2.637.201 2.743 1.297-.057.126-.139.48-.353.716zm213.311 36.317c-1.118-.826-1.208-1.911-1.191-3.177.06-4.665.042-9.332.012-13.998-.008-1.187-.087-2.433.802-3.298.996-.969-.299-1.425-.395-2.123-.06-.436-1.041-.382-1.629.133-1.128.988-2.389 1.754-3.847 2.228-.44.143-1.336.105-1.143 1.14.138.739.504 1.09 1.155 1.328 1.666.61 1.681.623 1.685 2.166.011 4.573-.002 9.145.009 13.718.002.825.098 1.57-1.074 1.793-.58.11-.584.574-.08 1.174.45.536.951.715 1.472.77.195.021.394.024.594.021l.2-.004c.134-.003.268-.007.401-.007.134 0 .267.002.401.011.492 0 .993.05 1.479.024a3.67 3.67 0 0 0 .481-.056c.398-.076.898-.397 1.048-.74.118-.272-.107-.901-.38-1.103zm-112.867-68.41c.156-.496-.188-1.516-.664-1.516-.386 0-.842.256-1.146.53-1.002.902-2.192 1.46-3.434.966-.961-.383-1.77-1.214-2.559-1.94-.727-.67-.691-1.355.047-2.085.369-.365.831-.698 1.314-.879 1.624-.608 3.277-1.136 4.916-1.705.464-.161.914-1.301.783-1.751-.626-2.143-2.653-2.341-4.269-3.153-1.2-.604-1.973.776-3.057.478-2.318 2.11-4.045 4.533-4.244 7.76.1.774-.019 1.622.33 2.179.713 1.138 1.554 2.268 2.579 3.117.835.692 1.977 1.161 3.053 1.368.79.152 1.722-.194 2.54-.469 1.58-.531 3.223-1.03 3.811-2.9zm-8.824-6.711c-.259-1.225.798-1.374 1.563-1.816.71-.411 1.284-.548 1.935.067.496.468.67.952.038 1.34-.805.494-1.688.86-2.644 1.335-.399-.399-.828-.624-.892-.926zm56.768 42.05c.26-.424.787-.808 1.268-.95.877-.258.377-.896.521-1.348-.4-.123-.805-.353-1.198-.334-.305.015-.579.374-.895.521-1.643.766-3.979.35-5.323-.929-.601-.572-.732-2.116-.122-2.414a148.212 148.212 0 0 1 6.135-2.813c.807-.349 1.202-1.17.869-1.962-.907-2.155-3.156-2.192-4.854-3.094-.141-.075-.433-.073-.537.022-1.457 1.334-4.342 1.037-4.477 3.878-1.158 1.267-1.48 2.799-1.417 4.809-.532 1.231.56 2.382 1.133 3.651.931 2.06 3.092 2.109 4.861 2.787 1.287-.719 3.086-.273 4.036-1.824zm-6.492-8.73c.743-1.566 1.69-2.201 2.836-1.768.377.143.78.567.904.948.198.607-.432.528-.776.759-.749.502-1.249 1.407-2.184 1.078-.981-.033-1.128-.283-.78-1.017zm364.163 9.897c1.527.734 3.348.101 4.298-1.578.158-.279.205-.621.223-.979.017-.358.005-.734.043-1.081-.191.001-.398-.024-.601-.044-.339-.032-.668-.049-.893.096-.439.282-.555.15-.833-.114-.618-.587-1.11-1.155-.993-2.135.12-1.015.027-2.055.027-3.085 0-1.029-.067-2.064.019-3.086.088-1.052-.18-1.607-1.342-1.373-1.159-1.217-2.324-.037-3.475-.065-1.282-.031-1.847.757-2.5 1.479-.651.719-1.191 1.551-1.678 2.392-.092.158.276.602.462.895.316.499.559.18.793-.094 1.058-1.244 2.205-2.231 4.046-1.826.493.109.674.171.905.712.771 1.804.752 2.094-1.02 2.668-.834.27-1.72.379-2.577.58-.338.079-.714.137-.986.328-1.724 1.209-2.679 2.801-2.2 4.964.108.488.549 1.324.742 1.298.779-.105 1.058 1.008 2.184.447 1.568-.782 3.325-1.377 5.356-.399zm-5.437-3.527c-.088-.191-.027-.626.117-.721 1.006-.663 2.052-1.266 3.251-1.988.371.375.869.675 1.055 1.109.373.87-.513 2.601-1.403 2.977-.792.335-2.596-.457-3.02-1.377zM536.268 21.63c-.185-.479-.52-.784-1.4-.343-1.237.619-2.321-.356-2.423-1.841-.077-1.114-.015-2.238-.015-3.358 0-.84-.072-1.687.017-2.517.125-1.172-.159-1.566-1.481-1.894-3.06-.76-6.598.674-7.528 3.508-.098.298.097.691.156 1.04.32-.062.806-.014.933-.204.982-1.466 2.429-1.488 3.941-1.377.093.007.194.023.28-.002 1.087-.323.716.81 1.15 1.159.645.517.123.915-.241 1.342-.884 1.036-2.156 1.177-3.345 1.413-2.703.536-3.47 1.398-3.458 4.159.002.373-.022.748.004 1.119.069.97.532 1.373 1.534 1.486 1.484.167 2.805-.358 4.129-.886.888-.354 1.652-.424 2.504.272 1.203.982 1.936.849 3.057-.191.535-.496 1.025-1.213 1.66-1.392 1.08-.306.695-1.055.526-1.493zm-6.137-.544c-.3.892-.95 1.748-1.904 1.894-.713.109-1.528-.238-2.248-.511-.219-.083-.275-.594-.406-.909-.236-1.017.449-1.234 1.143-1.522.557-.231 1.028-.747 1.592-.854.451-.085 1.128.118 1.439.444.314.33.523 1.044.384 1.458zm-87.845 68.532c-1.003-.239-1.143-.842-1.135-1.759.042-5.323.026-10.646.016-15.969-.002-.842-.034-1.646.8-2.206.278-.187.011-1.893-.355-2.065-.38-.178-1.152-.315-1.266-.146-.949 1.417-2.72 1.191-3.96 2.091-1.629 1.183-1.798 1.741-.111 2.788a.81.81 0 0 0 .51.109c.946-.147 1.027.362 1.021 1.133-.032 4.202-.009 8.405-.019 12.607-.003 1.168.195 2.299-.923 3.293-.765.68.057 1.975 1.202 2.056.559.04 1.124.007 1.686.007.539-.008 1.074.013 1.603-.04.528-.053 1.05-.18 1.559-.486.439-.263.55-.302.175-.654-.272-.254-.493-.685-.803-.759zM283.598 58.877c1.263.498 2.198-.463 3.231-.808 1.174-.392 2.356-.999 2.962-2.28.15-.317.526-.508.041-.802-.297-.18-.654-.5-.917-.445-.493.104-1.031.343-1.382.693-.649.648-1.627.619-2.058.327-1.098-.745-2.53-.92-3.393-2.085-.44-.594-.41-.94.1-1.378.352-.303.634-.858 1.016-.928 2.098-.385 3.613-2.176 5.817-2.31.606-.037.871-1.237.692-1.889-.523-1.908-2.392-1.822-3.696-2.557-.519-.293-1.283-.703-1.704-.522-1.44.618-3.122 1.043-4.065 2.353-1.188 1.65-2.205 3.469-2.112 5.73.33 1.373.412 2.876 1.05 4.088.875 1.659 2.755 2.157 4.418 2.813zm-.32-12.203c.793-.092 1.707-.256 2.23.647.122.211.22.677.144.724-.951.579-1.936 1.103-3.079 1.732-.375-.472-.757-.737-.791-1.041-.073-.647.877-1.99 1.496-2.062zM108.181 57.498c.924.314 1.943.352 2.918.516 1.571.222 2.783-.52 4.072-1.229 1.069-.588 1.022-1.442.923-2.351-.02-.188-.665-.524-.743-.459-1.237 1.035-2.686.484-4.01.483-1.317 0-2.319-.936-3.051-1.971-.169-.239-.315-.941.396-1.386a21.66 21.66 0 0 1 4.714-2.209c.659-.218 1.364-.352 1.967-.675.842-.45 1.021-1.134.504-2.083-.736-1.353-1.811-2.303-3.484-2.295-.656.003-1.32.063-1.967-.012-1.666-.193-2.505 1.21-3.738 1.848-.642 1.887-2.461 3.389-1.836 5.7.118.435-.075.952.033 1.393.486 1.994 1.083 3.977 3.302 4.73zm-.293-9.666c.513-1.135 1.359-1.75 2.608-1.735.402.005 1.041-.287 1.102.434.035.413-.045 1.041-.316 1.234-.766.545-1.656.914-2.022 1.105-1.615.059-1.764-.171-1.372-1.038zm152.813 3.999c-1.439-.138-1.747-2.115-3.486-1.932-.655.069-1.45-.933-2.138-1.498-.6-.493-.586-1.152-.112-1.69.268-.305.827-.671 1.119-.579.818.257 1.574.722 2.338 1.135.616.332 1.192.741 1.823 1.038.14.066.611-.174.63-.313.075-.551.031-1.118.031-1.679-.003-1.885-.004-1.855-1.905-1.926-.788-.029-1.62.287-2.354-.489-.266-.281-1.158-.233-1.619-.021-1.029.473-2.147.983-2.872 1.794-.435.486-.211 1.568-.258 2.384-.027.466-.169 1.024.028 1.384.444.811.471 2.153 1.64 2.217 1.944.106 2.899 1.961 4.685 2.333.849.177.279 1.115.374 1.698.023.139-.281.449-.474.487-1.848.368-3.558-.294-5.15-1.839-.267-.259-.786-.36-1.181-.345-.173.007-.453.483-.468.757a33.042 33.042 0 0 0-.004 3.084c.008.207.244.576.384.581 1.908.062 3.784.144 5.696.475 1.448.25 3.113-.779 3.725-2.22.455-1.071.176-2.475.121-3.726-.017-.397-.339-1.088-.573-1.11zm-120.62 25.73c-.73-.113-1.49-.029-2.237-.039-1.124-.014-1.788-.514-1.984-1.582-.083-.451.028-.935-.028-1.395-.039-.325-.172-.881-.328-.904-.415-.062-.95-.012-1.276.22-.316.225-.352.814-.65 1.098-1.023.972-1.473 2.695-3.357 2.573-.764-.049-.69.665-.533.965.258.492.747 1.191 1.168 1.212 1.441.071 1.46 1.164 1.571 2.031.153 1.193.038 2.421.038 3.633 0 .933.136 1.891-.032 2.793-.253 1.36.517 2.156 1.424 2.77 1.355.918 3.041.869 4.484.526.919-.219 1.443-1.39 1.724-2.569.154-.644-.091-.923-.32-.975-.669-.149-1.409-.249-2.068-.114-1.331.272-1.783.069-1.822-1.192-.043-1.398-.025-2.799-.006-4.198.026-1.862.187-2.074 2.052-2.059 1.078.008 1.997-.083 2.668-1.06.413-.6.22-1.625-.488-1.734zm6.449-32.093c-1.323 2.353-.102 4.781 1.722 5.674.702.344 1.383.733 2.063 1.12.834.475 1.725.888 2.456 1.49.342.282.517.948.504 1.433-.018.713-.69.36-1.091.443-1.748.36-3.064-.708-4.455-1.432-.198-.103-.113-1.012-.725-.77-.423.167-.914.711-.971 1.139-.134 1.003-.07 2.043.042 3.054.014.131.271.967 1.175.513.824-.414 2.259-.61 2.91-.161 1.276.88 2.18.265 3.253-.092 1.69-.561 2.119-1.047 2.149-2.602.013-.653.01-1.307.001-1.96-.02-1.442-.942-2.954-2.343-3.256-1.225-.265-2.001-1.266-2.994-1.582-1.372-.436-.838-1.284-.812-1.925.035-.855.863-.416 1.334-.452 1.013-.077 2.026-.146 2.713.931.311.488 1.025 1.209 1.342 1.114 1.006-.302.747-1.324.761-2.139.005-.28.036-.565-.006-.839-.121-.792-.5-1.337-1.401-1.332-.843.005-1.686.001-2.528.001s-1.701-.1-2.524.025c-1.051.161-1.981.549-2.575 1.605zm13.879-20.607c.991.869 2.148.411 3.205.422 2.56.027 3.719-1.296 3.816-3.809.041-1.07-.225-2.146-.83-2.724-1.056-1.008-2.463-1.661-3.755-2.409a15.942 15.942 0 0 0-2.35-1.117c-.665-.251-.47-.773-.401-1.148.156-.849 1.214-1.546 1.848-1.058.87.671 2.255.22 2.804 1.482.277.636.981.912 1.65.686.894-.302.26-1.122.43-1.684.026-.086.004-.186.004-.28 0-.468.113-.972-.026-1.395-.207-.629-.314-1.364-1.44-.639-.545.351-1.684.275-2.625-.252-1.267-.71-2.605-.144-3.78.608-1.075.689-1.264 1.728-1.148 2.896.037.371.074.763-.008 1.119-.199.874.346 1.338.847 1.911.98 1.121 2.398 1.482 3.598 2.216.513.314 1.331.36 1.598.785.299.475.12 1.244.171 1.883.053.662-.333.679-.86.73-1.836.178-3.183-.674-4.164-2.058-.251-.354-.243-.941-.805-.731-.377.14-.833.584-.892.951-.134.82-.078 1.679-.034 2.519.073 1.377.735 1.748 2.212 1.304.314-.096.793-.333.935-.208zM419.742 78.12c-1.495-.086-2.999-.068-4.497-.008-.299.012-.667.323-.841.598-.09.141.114.564.294.761.612.667 1.458 1.199 1.065 2.322-.543 1.55-1.518 2.921-1.831 4.579-.067.357-.505.924-1.174.216-1.249-1.323-1.764-3.02-2.522-4.58a1.603 1.603 0 0 1 .513-2.005c.29-.216.587-.879.46-1.099-.243-.423-.586-.928-1.311-.839-.739.091-1.497.02-2.247.02-.844 0-1.689-.027-2.53.02-.197.011-.565.34-.539.41.228.635-.644 1.609.822 1.94.659.148 1.176 1.285 1.595 2.059 1.484 2.741 2.895 5.519 3.764 8.536.182.631.588 1.063 1.38 1.089 1.206.039 2.458-.731 2.504-1.945.041-1.066.608-1.812.997-2.689a99.046 99.046 0 0 0 1.859-4.557c.464-1.204.504-2.697 2.422-2.685.297.002.699-.884.838-1.415.043-.156-.646-.706-1.021-.728zM1.673 12.993c.4.08.897.377 1.06.716.128.267-.253.739-.294 1.132-.086.822-.097 1.652-.171 3.12.145.89.384 2.389.638 3.885.058.343 1.531 2.18 1.839 2.344 1.642.871 3.075.757 4.435-.365.743-.614 1.543-1.441 1.351-2.322-.208-.955-1.364-.656-2.173-.681-1.174-.035-1.993-.655-2.054-1.783a48.653 48.653 0 0 1-.001-4.755c.034-.787.494-1.334 1.396-1.323.655.008 1.323.081 1.962-.02.676-.107 1.083-.546 1.143-1.308.063-.8-.425-1.212-1.008-1.446-.403-.162-.924-.025-1.391-.032-2.072-.032-2.072-.033-2.122-2.245-.006-.189.001-.376-.003-.562-.011-.52-.236-.685-.58-.24-.308.397-.876.152-1.194.849-.494 1.08-1.277 2.134-2.831 2.25-.96.072-1.048 1.036-1.058 1.938-.01.894.507.738 1.056.848zm240.651 42.085c-.651-.052-1.309-.02-1.963-.009-.903.016-1.372-.533-1.403-1.313-.07-1.768-.101-3.547.034-5.308.034-.441.692-1.045 1.178-1.189.687-.204 1.504.061 2.222-.086.624-.128 1.067-.596 1.067-1.376.001-.787-.464-1.146-1.079-1.382-.245-.093-.556-.004-.836-.018-.823-.041-1.947.21-2.382-.223-.435-.433-.163-1.556-.235-2.373-.011-.125-.05-.248-.097-.371s-.101-.244-.142-.367a2.33 2.33 0 0 1-.256.068c-.266.06-.547.108-.684.274-1.28 1.551-2.621 2.98-4.645 3.599-.221.068-.42.809-.326 1.158.165.618.608 1.047 1.385 1.059.998.016 1.426.625 1.398 1.605-.024.838.013 1.678-.01 2.516-.023.82.234 1.967-.201 2.393-1.014.993.484 1.424.222 2.181-.331.956.311 1.607.99 2.08.699.487 1.517.804 2.273 1.19 1.575-.811 3.537-.591 4.086-2.726.199-.766.123-1.325-.596-1.382zm51.163-34.884c1.071.532 1.324 1.136 1.197 2.109-.036.272-.303.706-.508.733-2.024.269-3.823-.219-5.05-1.942-.231-.324-.133-1.034-.736-.791-.422.17-.865.705-.965 1.152-.16.711-.07 1.485-.037 2.23.062 1.421.756 1.878 2.15 1.44.325-.102.823-.429.932-.327 1.142 1.074 2.508.451 3.736.469 1.967.029 2.733-.876 2.751-2.793a98.76 98.76 0 0 0-.008-3.079c-.006-.252-.052-.598-.218-.735-.615-.505-1.277-.957-1.942-1.397a16.235 16.235 0 0 0-1.58-.927c-.616-.313-1.289-.524-1.882-.872-.496-.291-.879-1.859-.504-2.236.506-.508 1.074-.325 1.718.045.735.422 1.656.509 2.453.843.62.26.904 1.521 1.706.938.388-.282.207-1.361.253-2.081.03-.465.165-1.032-.044-1.368-.171-.274-.292-1.007-1.156-.607-.783.362-1.777.272-2.679.38a3.394 3.394 0 0 1-.011-.1c-.843 0-1.69-.054-2.527.012-1.462.115-2.4.948-2.931 2.289-.524 1.325-.339 2.423.748 3.422 1.503 1.379 3.34 2.303 5.134 3.193zm277.639 65.353c-1.153-.931-2.498-1.628-3.774-2.404-.594-.361-1.259-.616-1.827-1.01-.756-.525-.41-1.371-.348-2.054.013-.146.993-.37 1.469-.274.841.17 1.758.401 2.416.902.627.478 1.247 1.078 1.915.677.367-.22.307-1.146.323-1.22 0-.932.011-1.307-.002-1.68-.03-.868-.655-1.369-1.41-.885-.988.633-1.713.442-2.73.076-2.047-.736-4.799.801-5.347 2.896-.197.755.028 1.619.06 2.433 1.567.122 1.659 2.052 3.165 2.45 1.312.347 2.734.888 3.604 2.094.282.391.492 1.089.328 1.474-.168.394-.803.715-1.289.827-1.739.403-2.803-.904-4.05-1.728-.517-.342-1.308-1.107-1.483-.984-.773.542-.589 1.456-.139 2.121.339.5-.121.554-.186.82-.309 1.269-.158 1.456 1.077 1.479 1.027.019 2.239-.325 3.047.1 2.305 1.213 3.782.107 5.234-1.391.969-.998 1.026-3.849-.053-4.719zm-.905-71.467c.526.095 1.285-.026 1.528.278.277.345.106 1.055.112 1.607.009.745.002 1.49.002 2.236 0 1.211.034 2.423-.009 3.633-.054 1.538.818 2.658 1.939 3.359 1.592.996 5.148-.533 5.874-2.335.191-.473.155-.938-.534-.903-.531.027-1.179-.02-1.56.258-.613.448-.933.281-1.392-.155-.626-.594-1.034-1.181-.967-2.136.105-1.483.049-2.979.017-4.469-.012-.578.154-.798.767-.824 1.245-.053 2.47.169 3.725-.484 1.047-.545.511-1.248.548-1.845.044-.711-.661-.43-1.062-.45-.746-.037-1.496.008-2.243-.015-1.217-.038-1.652-.432-1.719-1.566-.033-.557.056-1.127-.033-1.672-.041-.254-.342-.6-.581-.653-.311-.069-.78.007-.997.212-.296.28-.444.732-.613 1.128-.641 1.496-1.5 2.679-3.379 2.559-.747-.048-.601.535-.591.96.02.743.463 1.149 1.168 1.277zm-196.19 66.79c.975.062 1.9-.018 2.88-.475 1.096-.511.52-1.241.564-1.836.054-.717-.649-.407-1.05-.47-.183-.028-.373-.005-.56-.005-.841 0-1.863.298-2.48-.072-.861-.516-.253-1.68-.371-2.555-.078-.578-.943-1.106-1.367-.717-.435.399-.701.987-1.017 1.507-.592.976-.927 2.155-2.562 1.89-.707-.114-1.346.51-1.251 1.413.085.808.518 1.247 1.384 1.358 1.414.181 1.413.226 1.424 1.524.008.931.002 1.863.002 2.794 0 1.211-.065 2.426.013 3.632.17 2.616 3.145 4.406 5.386 3.146.941-.529 1.619-1.529 2.394-2.337.101-.105.15-.403.075-.501-.138-.181-.386-.396-.585-.392-.531.009-1.182-.04-1.563.238-.606.443-.93.312-1.392-.138-.613-.597-1.045-1.169-.978-2.131.109-1.576.068-3.166.013-4.748-.026-.795.124-1.183 1.041-1.125zm-100.075 2.651c-.786-.364-1.428-.98-2.422-.996-.602-.01-1.067-.577-1.068-1.36-.001-.791.457-1.181 1.087-1.381.799-.254 2.657.476 3.436 1.259.459.461 2.136.599 2.161.185.064-1.067.457-2.216-.275-3.181-.207-.273-.891-.527-1.108-.392-.967.6-1.71.413-2.741-.021-1.272-.536-2.605.013-3.796.822-1.148.78-1.039 1.858-1.002 2.97.006.187.041.385-.006.56-.361 1.341.505 2.122 1.397 2.781.909.671 1.962 1.146 2.926 1.748.603.377 1.237.758 1.713 1.271.489.527-.007 2.03-.686 2.051-1.051.032-2.237.429-3.065-.747-.425-.604-1.019-1.1-1.586-1.588-.188-.162-.445-.246-.695-.337a3.776 3.776 0 0 1-.245-.096c-.079.243-.183.483-.25.728a2.132 2.132 0 0 0-.053.247c-.053.367-.012.747-.012 1.121s-.006.749.001 1.123c.024 1.255.027 1.234 1.421 1.28 1.005.033 2.049-.023 3.004.23 2.721.721 3.901.203 5.252-2.244.394-.713.479-1.133.227-1.956-.605-1.971-1.823-3.246-3.615-4.077zm94.543-26.638c.269-.572-.192-1.23-.871-1.252-.468-.015-.938.016-1.406-.007-1.224-.058-1.636-.433-1.655-1.635-.032-1.962.028-3.925-.027-5.886-.022-.776.282-.928.972-.911 1.075.026 2.149.122 3.159-.519.561-.356.415-.793.354-1.178-.033-.21-.462-.367-.725-.528-.068-.042-.184-.006-.277-.006-1.031 0-2.232.332-3.051-.084-1.016-.517-.154-1.858-.433-2.788-.096-.32-.362-.666-.648-.822-.148-.081-.562.175-.763.372-.316.31-.577.683-.819 1.057-.803 1.245-1.581 2.487-3.388 2.299-.161-.017-.502.431-.536.693-.113.861.345 1.597 1.187 1.471 1.324-.198 1.14 1.017 1.528 1.529.359.473.373 1.693.002 2.125-.753.875-.328 1.766-.459 2.619-.394 1.557.275 2.806 1.091 4.036.78 1.175 1.951 1.777 3.216 1.468 1.313-.32 2.848-.564 3.549-2.053zm99.136-37.99c.986.261 1.919.826 2.786 1.39.651.424 1.232 1.013 1.691 1.64.141.193-.202 1.084-.354 1.092-1.905.102-3.862.315-5.309-1.401-.331-.393-.685-1.079-1.32-.736-.251.135-.282.811-.284 1.241-.006 1.011-.312 2.386.214 2.93.514.53 1.911.213 2.92.261.281.013.562.002.844.002 1.125 0 2.25.002 3.375-.001.277-.001.694.093.808-.048.673-.832 1.867-1.264 1.968-2.544.126-1.601.002-3.322-1.492-4.068-1.479-.738-2.469-2.326-4.371-2.372-.695-.017-1.183-1.535-.893-2.346.27-.755.947-.309 1.437-.403.667-.129 1.254.452 1.737.466 1.017.031 1.299 1.897 2.216 1.01.485-.469.183-1.747.234-2.659.005-.093-.002-.187.001-.28.03-.778-.376-1.095-.979-.613-.778.623-1.569.506-2.293.175-1.172-.535-2.127-.268-3.304.133-1.458.496-1.399 2.004-2.397 2.75-.252.189-.223 1.301.064 1.555.98.866 1.166 2.42 2.701 2.826zm-6.748 36.496c-.856-.519-1.678-.631-2.466.15-.102.101-.343.086-.52.085-.44-.004-.903.122-.982-.606-.064-.59-.489-1.151-.512-1.735-.071-1.774-.008-3.553-.036-5.329-.01-.628.26-.768.834-.758 1.077.019 2.124.055 3.172-.498.614-.324.467-.679.505-1.083.067-.708-.437-.66-.912-.655-.751.008-1.506.056-2.251-.012-.801-.074-1.346-.491-1.34-1.39.005-.655.035-1.312-.02-1.962-.017-.198-.247-.423-.438-.544-.105-.066-.411 0-.489.107-.363.495-.624 1.07-1.019 1.534-.935 1.097-1.645 2.53-3.509 2.295-.56-.071-1.066.928-.694 1.359.328.381.848.774 1.319.824 1.221.128 1.522.797 1.48 1.867-.04 1.027-.009 2.057-.009 3.086s.013 2.058-.003 3.086c-.025 1.673.572 2.904 2.253 3.523 1.316.485 3.424.107 4.389-1.061.543-.659.841-1.516 1.248-2.283zm43.915-6.081c.111 1.11.025 2.24.025 3.361 0 1.028-.016 2.056.006 3.083.013.608 1.264 2.305 1.773 2.697.794.613 1.72.837 2.527.406 1.102-.589 2.653-.555 3.065-2.259.235-.973.176-1.557-.753-1.505-.408.023-.79.344-1.203.466-1.148.338-1.986-.235-2.023-1.449-.048-1.587-.015-3.177-.011-4.765.005-2.063.008-2.054 1.959-2.142.444-.02 1.032.033 1.295-.217.44-.419 1.593-.121 1.291-1.386-.268-1.119-1.02-.444-1.527-.632-.082-.031-.186-.003-.28-.005-.837-.017-1.931.274-2.433-.144-.445-.37-.223-1.527-.311-2.336-.028-.26-.052-.546-.176-.765-.134-.235-.355-.495-.593-.569-.14-.044-.4.238-.582.4a1.322 1.322 0 0 0-.33.422c-.798 1.751-1.799 3.205-4.066 3.029-.127-.01-.382.508-.429.804-.123.776.434 1.349 1.036 1.36 1.555.026 1.638 1.128 1.74 2.146zm103.426 39.36c-.145.118-.777-.062-.91-.275-.785-1.256-2.104-2.311-1.668-4.079.087-.352-.004-.745.016-1.118.039-.708-.136-1.398.519-2.045.664-.657 1.334-.828 2.207-.853.583-.017 1.146-.429 1.739-.509.94-.128.564-.809.557-1.263-.002-.151-.508-.343-.808-.426-.261-.072-.559-.007-.84-.016-.719-.023-1.384.09-2.041-.555-.694-.681-.786-1.381-.788-2.226-.001-.405.273-1.067-.408-1.104-.359-.019-.817.351-1.098.664-.343.381-.509.915-.822 1.331-.655.87-1.205 1.929-2.534 1.883-.623-.022-.758.245-.773.819-.034 1.263-.067 1.264 1.272 1.435.812.104 1.907 1.424 1.469 1.965-.922 1.137-.161 2.346-.473 3.256 0 1.053-.056 1.898.011 2.734.153 1.905 1.418 2.985 3.01 3.739.779.369 2.866-.344 3.627-1.215.645-.739 1.203-1.554 1.799-2.336-1.042-.349-2.062-.622-3.063.194zM486.445 23.177c.452-1.179.553-1.16-.668-1.234-2.357-.143-3.464-1.269-3.482-3.552-.009-1.118.03-2.238-.013-3.355-.026-.68.12-1.036.906-.967.742.066 1.498.051 2.243.005.932-.058 1.442-.717 1.373-1.637-.071-.943-.789-.537-1.252-.586-.555-.058-1.132.056-1.68-.029-.953-.149-1.556-.958-1.578-1.983-.012-.557.029-1.12-.053-1.665-.018-.121-.551-.324-.682-.239-.365.24-.732.562-.94.938-.8 1.445-1.445 2.922-3.516 3.019-.909.043-.318 1.068-.403 1.634-.022.148.42.414.688.547.49.241 1.342-.511 1.54.604.105.59.478 1.143.523 1.729.087 1.112.025 2.235.025 3.354 0 1.119-.02 2.238.006 3.355.021.885.937 2.079 1.704 2.181.551.074 1.129-.05 1.68.026 1.793.248 2.922-.432 3.579-2.145zm-384.52 64.199c-1.019.317-2.175.214-3.274.231-.18.003-.367-.281-.547-.437-.563-.49-.127-1.541-1.22-1.83-1.059-.28-.021-1.529-.662-2.101-.554-.495-.169-.832-.02-1.376.389-1.419 1.755-1.295 2.631-1.846.405-.255 1.373.325 2.06.591.24.093.407.376.602.578.41.425.756.311 1.167-.049.856-.749.499-1.731.449-2.591-.018-.304-.734-.754-1.174-.812-1.399-.182-2.741-.909-4.244-.236-1.753.786-3.593 1.38-3.626 3.766-.98.829-.184 1.945-.471 2.706 0 .834-.115 1.513.027 2.134.206.904.437 1.879.956 2.614.494.7 1.371 1.13 2.079 1.68.496.385.984 1.086 1.486 1.096 1.151.021 2.289.179 3.509-.27 1.234-.454 1.479-1.456 2.03-2.279.188-.28-.145-1.019-.401-1.454-.352-.599-.768-.298-1.357-.115zm286.856-7.903c-.02-.875-.536-1.362-1.347-1.363-.782-.001-1.556-.191-2.364.438-.384.299-1.454-.31-2.225-.446-.232-.041-.544.061-.744.203-.801.567-1.577 1.17-2.355 1.77-.617.475-.85 1.015-.086 1.541 1.13.778 1.389 1.843 1.251 3.133-.089.83-.061 1.679-.006 2.515.076 1.158-.086 2.161-1.119 2.918-.299.219-.622.936-.502 1.09.301.385.822.726 1.304.815.724.133 1.491.035 2.239.035.842 0 1.689.055 2.525-.017.71-.062 1.168-.523 1.158-1.264-.004-.323-.242-.931-.297-.923-1.929.305-1.97-1.33-2.26-2.386-.568-2.067-.486-4.102 1.325-5.703.366-.323.457-.181.823-.003 2.268 1.097 2.731.763 2.681-1.791-.004-.189.003-.376-.001-.562zM29.901 14.06c1.379.447 1.986 1.196 1.764 2.718-.173 1.191-.05 2.426-.03 3.642.016.954.075 1.901-1.222 2.088-.733.105-.439.693-.463 1.094-.045.755.55.571.973.582.75.019 1.501.005 2.252.005.938 0 1.879.04 2.813-.026.249-.018.62-.324.677-.56.075-.31-.017-.928-.189-.988-1.532-.54-1.465-1.789-1.466-3.026-.001-.935.125-1.891-.027-2.801-.289-1.738.762-2.449 2.586-2.103.402.076.884.534 1.139.414.479-.226.892-.695 1.202-1.152.557-.822-.016-2.504-1.083-3.033-.455-.226-1.093-.264-1.593-.15-.283.064-.416.649-.689.928-.316.323-.605 1.038-1.194.224-.271-.374-.603-.764-.999-.972-.373-.196-.98-.363-1.29-.192-1.155.636-2.25 1.391-3.329 2.154-.579.408-.531.927.168 1.154zM133.92 47.73c2.014.206 1.999 1.603 1.937 3.092-.05 1.212.021 2.43-.027 3.642-.017.421-.178.857-.362 1.245-.331.698-1.742.984-1.15 1.893.273.42 1.536.207 2.351.268.28.021.562.003.843.003.937 0 1.892.105 2.804-.046.43-.072.961-.567 1.121-.992.239-.637-.457-.53-.833-.716-.507-.251-1.287-.66-1.316-1.048a37.872 37.872 0 0 1-.008-5.596c.038-.518.653-1.114 1.157-1.428.275-.171.916.095 1.314.308.357.191.535.727 1.027.12.26-.321.701-.542 1.104-.692.653-.244.476-.794.382-1.154-.15-.574-.405-1.192-.807-1.609-.469-.486-1.143-.775-1.729-1.15-.271.449-.533.903-.817 1.343-.098.153-.255.267-.374.407-.522.612-.795.579-1.311-.166-1.112-1.603-1.106-1.595-2.638-.405-.269.209-.626.467-.924.445-1.056-.075-1.354.869-1.959 1.376-.106.091.105.849.215.86zm467.83 10.704c.401-.07 1.077.255 1.056-.469-.011-.373-.363-.888-.705-1.071-1.009-.539-1.515-1.304-1.508-2.431.004-.653.001-1.307.001-1.96v-.84c0-.187-.002-.373 0-.56.03-2.056.907-2.881 2.654-1.958 1.299.686 1.419-.31 1.993-.692.838-.557.082-.994-.068-1.563-.191-.721-.699-1.039-1.078-1.525-.441-.565-.822-.495-1.372-.034-1.07.897-1.1.842-2.141-.09-.297-.265-.817-.731-.963-.645-1.451.853-3.023 1.57-4.083 2.949-.316.411.134 1.212.763 1.328.452.083.716.058.963.648.645 1.545.745 4.499-.052 5.991-.206.385-.395.942-.724 1.065-.66.246-1.266.509-.918 1.251.218.466 1.173 1.106 1.246 1.043.874-.764 1.695.764 2.332.098.81-.851 1.737-.384 2.604-.535zM230.715 77.539c-.773-.12-1.044.492-1.374 1.072-.492.865-.543.836-1.109.018-.759-1.097-1.511-1.509-2.094-.918-.854.867-1.989 1.128-2.94 1.751-.797.521-.861 1.374.012 1.693 1.517.555 1.808 1.545 1.658 2.952a11.3 11.3 0 0 0 .002 2.514c.156 1.308-.222 2.294-1.269 3.138-.694.559-.312 1.663.582 1.78.736.096 1.494.02 2.243.02s1.52.111 2.237-.04c.462-.097.967-.506 1.203-.918.109-.191-.295-.924-.615-1.056-.744-.308-1.282-.605-1.02-1.522-1.119-1.292-.456-2.829-.515-4.245-.03-.727.231-1.743.743-2.14.539-.418 1.432-.243 2.259.233 1.006.58 1.93-.163 2.016-1.345a6.625 6.625 0 0 0-.002-1.118c-.075-.769-1.05-1.719-2.017-1.869zm223.298-62.13c.649 2.767 1.61 5.564-.622 8.127a1.054 1.054 0 0 0 .681 1.758c.832.084 1.679.018 2.52.018s1.681-.017 2.521.005c.712.019.764-.488.621-.911-.163-.482-.548-1.277-.812-1.267-.864.032-.761-.559-.966-1.019-.776-1.744-.673-3.526-.103-5.259.432-1.313 1.424-1.66 2.641-1.08.447.213.796.763 1.236.003.135-.234.351-.48.59-.584 1.202-.524.464-1.455.206-1.925-.836-1.522-1.608-1.648-3.328-.877-.157.07-.357.092-.471.204-.303.296-.38.418-.689-.105-.771-1.306-.788-1.081-2.121-.716-1.135.311-1.597 1.339-2.575 1.788-.652.299-.535 1.09-.044 1.622.149.162.687.1.715.218zm50.153 9.11c.045-.067-.275-.379-.432-.574-.058-.072-.121-.173-.199-.193-.718-.187-1.57-.452-1.468-1.282.088-.719-.975-1.32-.092-2.103.233-.206.099-.905.023-1.36-.239-1.447-.097-2.1.557-2.959.503-.661.899-.745 1.693-.315 1.639.887 2.223.491 2.267-1.307.012-.467.07-.948-.021-1.396a1.665 1.665 0 0 0-.539-.884c-.742-.613-1.555-.365-2.285.543-.273.34-.659.702-1.058.803-.71.18-.492-.552-.689-.89-.435-.745-1.214-1.051-1.893-.69-.937.498-1.719 1.284-2.574 1.939-.662.508-.748 1.047-.032 1.546 1.129.788 1.344 1.862 1.228 3.151-.1 1.112.012 2.241-.038 3.36-.019.421-.181.856-.364 1.244-.329.698-1.745.981-1.145 1.893.277.421 1.537.205 2.352.266.28.021.562.003.843.003 1.031 0 2.067.056 3.09-.035.288-.028.575-.458.776-.76zM224.805 56.016c-.277.104-.442.744-.478 1.153-.019.217.342.667.542.673 1.684.055 3.372.079 5.054.011.876-.035 1.386-1.163.751-1.695-.778-.651-.757-1.403-.753-2.232.006-1.493.002-2.986.002-4.479 0-1.586-.051-3.175.02-4.758.038-.852-.435-1.021-1.009-.83-1.643.546-3.311 1.062-4.757 2.063-.29.201-.599.462-.102.785.41.266-.021 1.062.911 1.121.754.048 1.057.828 1.013 1.685a40.521 40.521 0 0 0-.001 4.197c.053 1.044-.031 1.871-1.193 2.306zM532.49 82.251c-.467-1.262.414-2.552.915-3.783.118-.289-.121-.825-.357-1.12-.178-.223-.771-.435-.908-.322-1.131.924-2.599 1.012-3.835 1.636-1.112.561-1.388 1.813-.429 2.375 1.017.597 1.258 1.246 1.198 2.316-.089 1.585-.037 3.178-.017 4.768.008.672.05 1.208-.911 1.319-.365.042-1.093.647-.729 1.271.234.4.831.642 1.315.825.328.124.742.024 1.739.024.449-.1 1.48-.365 2.525-.552.986-.176 1.524-.664 1.09-1.272-1.627-2.282-.695-5.053-1.596-7.485zM90.921 88.762c-1.633-.305-1.29-1.567-1.239-2.603.034-.678.443-1.332.516-2.015.222-2.069-.41-4.205.541-6.237.122-.261-.245-.813-.482-1.165-.473-.704-.669.174-1.021.239-1.116.206-2.027.915-3.175 1.193-1.56.378-1.594 1.747-.199 2.702.666.457 1.078.918.987 1.774-.069.647-.014 1.308-.014 1.962 0 .468.03.937-.006 1.402-.085 1.101.47 2.493-1.388 2.816-.196.034-.289 1.16-.238 1.764.014.164.717.351 1.117.389 1.458.137 2.903.051 4.266-.555.276-.123.685-.322.718-.534.059-.384.303-1.004-.383-1.132zm470.384-64.946c-.118.026-.215.708-.107 1.009.081.226.502.457.778.465 1.499.045 3-.005 4.499.032.779.019 1.232-.422 1.417-1.034.198-.655-.652-.496-.808-.731-.475-.713-.919-1.463-.879-2.44.084-2.052.001-4.11.043-6.165.01-.511.3-1.012.343-1.528.058-.687.279-1.651-.072-2.015-.53-.549-1.298.094-1.923.424-.999.526-2.045.974-2.99 1.581-.286.184-.383.775-.428 1.194-.079.742.527.608.953.587.659-.032.746.315.729.859-.032 1.027-.009 2.055-.009 3.083 0 .374.028.75-.005 1.121-.122 1.342.659 3.074-1.541 3.558zM430.319 46.412c.305-.228.296-1.361.002-1.773-.359-.502-1.083-.375-1.681.12-.29.24-.898.054-1.294.221-.794.336-1.585.72-2.289 1.21-.313.218-.56.737-.566 1.123-.005.325.363.67.599.982.272.36.87.74.822 1.029-.26 1.588.585 2.997.605 4.518.011.876-.506 1.762-1.439 2.988-.237.311-.264.866-.196 1.278.026.155.591.287.919.312.65.048 1.305.014 1.958.014.933 0 1.87.042 2.796-.037.179-.015.436-.5.444-.774.01-.317-.121-.785-.355-.938-1.39-.908-1.406-2.242-1.315-3.664.059-.926-.031-1.862.021-2.789.076-1.316-.457-2.754.969-3.82zm167.432 40.926c.111-1.201.026-2.421.026-3.632 0-1.305.006-2.609-.001-3.914-.01-1.855-.049-1.983-1.81-1.664-1.081.196-2.127.729-3.115 1.251-.968.511-1.007 1.343.004 1.884 1.168.623 1.561 1.49 1.545 2.699-.016 1.211-.114 2.436.025 3.631.166 1.43-.578 2.192-1.647 2.848-.531.326-.503.321-.099.561 1.71 1.017 3.584.432 5.382.497.221.008 1.162-.474.352-1.371-.609-.675-.759-1.749-.662-2.79zm-149.4-71.547l.144-.018c0-.84.049-1.683-.019-2.517-.039-.48.4-1.261-.416-1.38-.673-.098-1.516-.339-2.031.461-.283.439-.434 1.02-.816 1.326-.918.737-.805 1.286.024 1.996.283.242.409.788.422 1.201.049 1.491-.047 2.988.042 4.476.06 1.006-.159 1.779-.964 2.424-.257.206-.541.838-.45.933.281.295.727.569 1.124.593 1.212.074 2.433.047 3.649.015.402-.011 1.038.284 1.1-.433.035-.412-.126-.87-.3-1.262-.211-.474-.704-.877-.771-1.353-.306-2.147-.503-4.307-.738-6.462zM212.783 62.944c.334.23.844.539 1.132.432.511-.191.966-.624 1.352-1.041 1.635-1.766 2.624-3.921 3.608-6.076.106-.233.273-.439.366-.586-.037-.2-.022-.319-.074-.369-.869-.833-1.693-1.73-2.66-2.432-.244-.177-1.076.148-1.417.473-.568.542-.846 1.404-1.443 1.892-1.41 1.152.782 1.301.511 2.102-.057.168-.027.373-.005.558.177 1.535-.273 2.843-1.411 3.905-.427.399-.415.827.041 1.142zm369.421-32.512c1.078-1.222 2.264-2.385 3.131-3.746.631-.992.821-2.261 1.208-3.407.217-.876-.282-1.418-.885-1.889-.246-.192-.621-.241-.828-.459-1.01-1.061-1.757-.942-2.277.358a3.075 3.075 0 0 1-.732 1.086c-.355.331-.243.445-.013.823 1.137 1.861 1.095 3.651-.462 5.34-.317.344-.454.977-.438 1.469.022.606.902.872 1.296.425zM448.97 86.156c-.045-.071-.248-.043-.068-.018-1.293.172-1.489 1.135-2.036 1.735-1.387 1.521-1.36 1.546-.009 2.897.393.393.746.845 1.199 1.15.211.142.707.119.916-.038.514-.385 1.023-.835 1.367-1.367.266-.411.521-1.093.356-1.467-.45-1.019-1.121-1.943-1.725-2.892zM62.053 24.751c.914-.061 2.352-2.429 2.076-3.282-.357-1.106-1.115-1.928-2.158-2.032-.541-.054-1.184.798-1.762 1.264-.287.232-.572.491-.779.791-.138.2-.184.495-.188.749-.016.878 1.897 2.57 2.811 2.51zm164.966 14.046c.487.164.941.426 1.209.551.431 0 .685.079.794-.012.972-.817 1.902-1.679 2.395-2.89a.509.509 0 0 0-.019-.389c-.823-1.428-1.938-1.606-3.085-.41-.61.636-1.083 1.405-1.595 2.13-.308.436-.337.805.301 1.02zM427.83 39.88c1.558.121 2.664-1.019 2.638-2.605 0-.185.067-.407-.012-.548-.253-.453-.475-1.094-.871-1.247-.392-.152-1.053.092-1.466.36-.533.346-1.129.814-1.345 1.367-.234.599-.174 1.384-.014 2.031.072.293.682.612 1.07.642zm170.623 29.247c-.353-.086-.742-.025-1.334-.025-1.228-.549-1.594.636-2.151 1.486-.138.21-.156.493-.263.728-.385.849-.031 1.563.862 1.716 1.898.325 3.646-1.432 3.321-3.367-.035-.206-.252-.493-.435-.538zM564.504 6.785c1.617.286 3.647-1.667 3.39-3.316-.036-.232-.391-.482-.654-.593-.237-.1-.55-.021-.83-.021-1.615-.01-1.616-.01-2.432 1.691-.074.155-.129.318-.203.473-.384.812-.048 1.629.729 1.766zM529.87 72.306c.611.368 1.802.138 2.566-.202.832-.37 1.431-1.192 1.2-2.309-.122-.418-.191-1.165-.375-1.194-.602-.095-1.333-.093-1.848.182-.517.276-.919.879-1.214 1.422-.359.659-1.182 1.587-.329 2.101zM89.826 68.542c-.931-.503-1.48.42-2.085 1.088-.572.632-.42 1.735.1 2.459.764 1.063 1.234-.151 1.849-.2 1.016-.081 1.075-1.102 1.427-1.758.639-1.188.325-1.596-1.291-1.589z"/><path fill="#FBA900" d="M445.678 8.938c-.094 1.15-.031 1.214 1.197 1.216 1.743.003 2.576-.766 2.733-2.574.021-.24-.068-.641-.23-.722-1.504-.757-3.565.422-3.7 2.08z"/></svg>