<svg xmlns="http://www.w3.org/2000/svg" viewBox="0 0 100 100"><circle cx="50" cy="50" r="37.5" fill="#f60"/><path d="M42.88 41.45c.68.83 1.57 1.43 2.62 1.8s2.1.53 3.15.3a5.74 5.74 0 0 0 2.85-1.28c.82-.68 1.5-1.5 1.88-2.62.38-1.05.45-2.1.3-3.15a6.775 6.775 0 0 0-1.35-2.85c-.67-.83-1.57-1.42-2.62-1.8-1.05-.38-2.1-.52-3.15-.3-1.05.23-2.03.6-2.93 1.27-.82.67-1.5 1.5-1.88 2.55-.38 1.05-.53 2.18-.3 3.23.22 1.13.67 2.03 1.43 2.85zm24.3.15c-.23-1.05-.68-2.03-1.35-2.85s-1.57-1.43-2.62-1.8c-1.05-.38-2.1-.52-3.15-.3-1.05.15-2.03.6-2.93 1.28-.82.67-1.5 1.5-1.88 2.55-.38 1.05-.52 2.18-.3 3.22.22 1.05.67 2.03 1.35 2.85.68.82 1.57 1.42 2.62 1.8s2.1.53 3.15.3c1.05-.15 2.02-.6 2.85-1.28.82-.68 1.5-1.5 1.88-2.62.52-.97.6-2.03.38-3.15zM58.7 56.68c-2.4-2.18-5.32-3.9-8.92-5.25-3.53-1.35-6.9-1.95-10.12-1.88-3.22.07-6.15.67-8.62 1.8-2.55 1.12-4.58 2.55-6.08 4.35-1.42 1.8-1.65 3.08-.67 3.9.3.3.75.38 1.2.3.45-.07 1.05-.22 1.72-.52 1.8-.75 3.75-1.2 5.92-1.43 2.17-.22 4.43-.22 6.75.08 2.33.3 4.65.82 6.9 1.72 2.25.82 4.42 1.95 6.38 3.23a26.22 26.22 0 0 1 5.1 4.35c1.5 1.57 2.63 3.22 3.53 4.95.3.68.67 1.12.98 1.5s.68.53 1.05.53c1.27 0 1.95-1.12 2.02-3.38.07-2.32-.52-4.73-1.72-7.28-1.22-2.47-3.02-4.8-5.42-6.97z"/></svg>